<?xml version="1.0" encoding="UTF-8" standalone="no"?>
<!-- Created with Inkscape (http://www.inkscape.org/) -->

<svg
   xmlns:dc="http://purl.org/dc/elements/1.1/"
   xmlns:cc="http://creativecommons.org/ns#"
   xmlns:rdf="http://www.w3.org/1999/02/22-rdf-syntax-ns#"
   xmlns:svg="http://www.w3.org/2000/svg"
   xmlns="http://www.w3.org/2000/svg"
   xmlns:sodipodi="http://sodipodi.sourceforge.net/DTD/sodipodi-0.dtd"
   xmlns:inkscape="http://www.inkscape.org/namespaces/inkscape"
   width="204.22916mm"
   height="90.458336mm"
   viewBox="0 0 204.22916 90.458335"
   version="1.1"
   id="svg8"
   sodipodi:docname="phase_diagram_water_2.svg"
   inkscape:version="0.92.2 (5c3e80d, 2017-08-06)">
  <defs
     id="defs2" />
  <sodipodi:namedview
     id="base"
     pagecolor="#ffffff"
     bordercolor="#666666"
     borderopacity="1.0"
     inkscape:pageopacity="0.0"
     inkscape:pageshadow="2"
     inkscape:zoom="3.8819783"
     inkscape:cx="341.75486"
     inkscape:cy="76.649672"
     inkscape:document-units="mm"
     inkscape:current-layer="g2296-4-8"
     showgrid="false"
     showguides="true"
     inkscape:window-width="1920"
     inkscape:window-height="1017"
     inkscape:window-x="-8"
     inkscape:window-y="-8"
     inkscape:window-maximized="1"
     inkscape:measure-start="0,0"
     inkscape:measure-end="0,0">
    <inkscape:grid
       type="xygrid"
       id="grid932"
       originx="29.354168"
       originy="-44.729162" />
  </sodipodi:namedview>
  <metadata
     id="metadata5">
    <rdf:RDF>
      <cc:Work
         rdf:about="">
        <dc:format>image/svg+xml</dc:format>
        <dc:type
           rdf:resource="http://purl.org/dc/dcmitype/StillImage" />
        <dc:title />
      </cc:Work>
    </rdf:RDF>
  </metadata>
  <g
     inkscape:label="Layer 1"
     inkscape:groupmode="layer"
     id="layer1"
     transform="translate(29.354163,-161.81251)">
    <flowRoot
       xml:space="preserve"
       id="flowRoot1271"
       style="font-style:normal;font-weight:normal;font-size:16px;line-height:1.25;font-family:sans-serif;letter-spacing:0px;word-spacing:0px;fill:#000000;fill-opacity:1;stroke:none"
       transform="scale(0.26458333)"><flowRegion
         id="flowRegion1273"><rect
           id="rect1275"
           width="85"
           height="20"
           x="160"
           y="167.51968" /></flowRegion><flowPara
         id="flowPara1277" /></flowRoot>    <g
       transform="translate(-65.709628,30.317884)"
       aria-label="0 oC"
       style="font-style:normal;font-weight:normal;font-size:4.23333311px;line-height:1.25;font-family:sans-serif;letter-spacing:0px;word-spacing:0px;fill:#000000;fill-opacity:1;stroke:none;stroke-width:0.26458332"
       id="text1302-9-5" />
    <g
       id="g2296-4-8"
       transform="rotate(-40.7343,191.31599,136.32916)">
      <path
         style="fill:#d5ffd5;stroke:none;stroke-width:0.265;stroke-linecap:butt;stroke-linejoin:miter;stroke-opacity:1;stroke-miterlimit:4;stroke-dasharray:none"
         d="M -12.801824,104.49727 4.4815221,84.427842 41.538173,116.34021 24.256837,136.4073 Z"
         id="path911"
         inkscape:connector-curvature="0" />
      <path
         style="fill:none;stroke:#969696;stroke-width:0.5;stroke-linecap:butt;stroke-linejoin:miter;stroke-miterlimit:4;stroke-dasharray:1.5, 0.5;stroke-dashoffset:0;stroke-opacity:1"
         d="M 41.5536,116.38969 24.288158,136.43833"
         id="path875"
         inkscape:connector-curvature="0" />
      <path
         style="fill:none;stroke:#969696;stroke-width:0.5;stroke-linecap:butt;stroke-linejoin:miter;stroke-miterlimit:4;stroke-dasharray:1.5, 0.5;stroke-dashoffset:0;stroke-opacity:1"
         d="M 78.867681,113.6065 44.336797,153.70378"
         id="path877"
         inkscape:connector-curvature="0" />
      <path
         style="fill:none;stroke:#969696;stroke-width:0.5;stroke-linecap:butt;stroke-linejoin:miter;stroke-miterlimit:4;stroke-dasharray:1.5, 0.5;stroke-dashoffset:0;stroke-opacity:1"
         d="M 115.95766,145.54756 81.426779,185.64484"
         id="path879"
         inkscape:connector-curvature="0" />
      <path
         style="fill:none;stroke:#969696;stroke-width:0.5;stroke-linecap:butt;stroke-linejoin:miter;stroke-miterlimit:4;stroke-dasharray:1.50000004, 0.50000001;stroke-dashoffset:0;stroke-opacity:1"
         d="M 4.4636174,84.448627 -12.801825,104.49727"
         id="path871"
         inkscape:connector-curvature="0" />
      <path
         style="fill:none;stroke:#969696;stroke-width:0.5;stroke-linecap:butt;stroke-linejoin:miter;stroke-miterlimit:4;stroke-dasharray:1.5, 0.5;stroke-dashoffset:0;stroke-opacity:1"
         d="M 78.867681,113.6065 1.6804194,47.134545"
         id="path881"
         inkscape:connector-curvature="0" />
      <path
         style="fill:none;stroke:#969696;stroke-width:0.5;stroke-linecap:butt;stroke-linejoin:miter;stroke-miterlimit:4;stroke-dasharray:1.50000004, 0.50000001;stroke-dashoffset:0;stroke-opacity:1"
         d="M 4.4636174,84.448627 -15.585023,67.183184"
         id="path873"
         inkscape:connector-curvature="0" />
      <path
         sodipodi:nodetypes="cccc"
         inkscape:connector-curvature="0"
         id="path1740-4-3-5-5-3-1-4-4-7-1"
         d="m 106.6308,207.34996 -4.15364,-5.31511 -1.72503,2.00617 z"
         style="fill:#000000;fill-opacity:1;stroke:none;stroke-width:0.5;stroke-linecap:butt;stroke-linejoin:miter;stroke-miterlimit:4;stroke-dasharray:none;stroke-opacity:1" />
      <path
         sodipodi:nodetypes="cccc"
         inkscape:connector-curvature="0"
         id="path1740-4-3-5-5-3-1-4-4-7-1-7"
         d="m 20.577743,25.190955 -5.318097,4.149817 2.004929,1.726472 z"
         style="fill:#000000;fill-opacity:1;stroke:none;stroke-width:0.5;stroke-linecap:butt;stroke-linejoin:miter;stroke-miterlimit:4;stroke-dasharray:none;stroke-opacity:1" />
      <g
         id="text3675"
         style="font-style:normal;font-weight:normal;font-size:4.23333359px;line-height:1.25;font-family:sans-serif;letter-spacing:0px;word-spacing:0px;writing-mode:tb-rl;fill:#000000;fill-opacity:1;stroke:none;stroke-width:0.26458335"
         transform="rotate(-139.2657,-7.9302186,-3.1532056)"
         aria-label="Temperature">
        <g
           transform="scale(-1)"
           style="font-style:normal;font-variant:normal;font-weight:normal;font-stretch:normal;font-size:4.93888855px;line-height:1.25;font-family:'Calisto MT';-inkscape-font-specification:'Calisto MT';letter-spacing:0px;word-spacing:0px;fill:#000000;fill-opacity:1;stroke:none;stroke-width:0.07000434"
           id="text899" />
        <g
           aria-label="Temperature (oC)"
           style="font-style:normal;font-variant:normal;font-weight:normal;font-stretch:normal;font-size:4.93888855px;line-height:1.25;font-family:'Calisto MT';-inkscape-font-specification:'Calisto MT';letter-spacing:0px;word-spacing:0px;fill:#000000;fill-opacity:1;stroke:none;stroke-width:0.07000434"
           id="text903">
          <path
             d="m -33.879706,-66.232387 v -0.185691 q 0.419612,0.04582 0.940511,0.08199 -0.02653,1.068324 -0.02653,1.52411 0,0.378616 0.02653,1.379416 -0.53778,0.03135 -0.940511,0.07235 v -0.180868 q 0.441316,-0.113343 0.516075,-0.147105 0.07717,-0.03376 0.10852,-0.09887 0.03376,-0.0627 0.03376,-0.32315 v -0.535368 q -0.641476,-0.01929 -1.586811,-0.01929 -0.87781,0 -1.18649,0.01929 -0.07235,0.0048 -0.09887,0.03617 -0.03376,0.041 -0.103697,0.397909 -0.0048,0.03376 -0.0217,0.101286 h -0.142283 q 0.02653,-0.47749 0.02653,-0.851283 0,-0.354501 -0.02653,-0.725882 h 0.142283 q 0.0217,0.0844 0.02894,0.127813 0.05547,0.330385 0.09405,0.381028 0.01929,0.0217 0.05305,0.03135 0.03617,0.01206 0.535368,0.01929 0.771701,0.0096 1.143083,0.0096 0.648711,0 1.143082,-0.0096 v -0.573953 l -0.0024,-0.103698 q 0,-0.137459 -0.02894,-0.180867 -0.041,-0.06752 -0.173633,-0.120579 -0.101286,-0.041 -0.453374,-0.125401 z"
             style="stroke-width:0.07000434"
             id="path868" />
          <path
             d="m -35.777609,-61.469543 -0.142283,0.09164 -0.3545,-0.479902 q -0.06752,-0.09887 -0.09887,-0.204983 -0.04582,-0.15434 -0.04582,-0.315915 0,-0.393086 0.315915,-0.672827 0.315915,-0.277331 0.853695,-0.277331 0.578776,0 0.928453,0.332797 0.349677,0.335207 0.349677,0.817521 0,0.373792 -0.207395,0.576364 -0.204983,0.204983 -0.629419,0.209806 -0.05788,-0.101285 -0.142282,-0.18569 0.0024,-0.171221 0.0024,-0.21463 0,-0.639065 -0.01929,-1.111732 -0.540191,-0.0024 -0.817521,0.183279 -0.279742,0.185691 -0.279742,0.496783 0,0.156752 0.06029,0.327973 0.0627,0.171221 0.226688,0.426847 z m 1.056266,-0.352088 q 0.238745,-0.01447 0.361735,-0.106109 0.180867,-0.135048 0.180867,-0.364147 0,-0.197748 -0.137459,-0.352089 -0.135048,-0.15434 -0.448551,-0.229099 -0.0024,0.08923 -0.0024,0.135048 0,0.395497 0.04582,0.916396 z"
             style="stroke-width:0.07000434"
             id="path870" />
          <path
             d="m -34.43919,-60.914883 h 0.137459 q 0.12299,0.448552 0.306269,0.766879 l -0.05064,0.05788 q -0.192926,-0.03376 -0.41479,-0.041 l 0.32315,0.349677 q 0.05788,0.06511 0.09405,0.159163 0.04823,0.130225 0.04823,0.274919 0,0.267684 -0.144694,0.44614 -0.103697,0.127813 -0.320738,0.180867 0.299034,0.267684 0.366558,0.390674 0.09887,0.183279 0.09887,0.402732 0,0.180867 -0.07717,0.327973 -0.07476,0.149517 -0.176044,0.214629 -0.09887,0.06752 -0.212218,0.08682 -0.110932,0.01929 -0.366558,0.01929 l -0.660769,-0.0048 q -0.494372,0 -0.576365,0.01929 -0.05305,0.01206 -0.07958,0.05064 -0.02412,0.03858 -0.08199,0.320739 h -0.135048 q 0.02653,-0.303858 0.02653,-0.516076 0,-0.18569 -0.02653,-0.648711 h 0.135048 q 0.01447,0.04582 0.0217,0.06994 0.0627,0.217041 0.09646,0.248392 0.03617,0.03376 0.202572,0.04582 0.335207,0.02412 0.762055,0.02412 0.409966,0 0.535367,-0.03617 0.127814,-0.03376 0.200161,-0.13746 0.07235,-0.103697 0.07235,-0.253214 0,-0.207395 -0.125402,-0.371381 -0.12299,-0.161575 -0.318327,-0.212218 -0.103697,-0.02894 -0.651123,-0.02894 -0.624596,0 -0.682473,0.03858 -0.05788,0.03858 -0.113344,0.352089 h -0.135048 q 0.02653,-0.313504 0.02653,-0.571542 0,-0.265272 -0.02653,-0.58601 h 0.135048 l 0.01688,0.0627 q 0.06029,0.226688 0.106109,0.255627 0.08199,0.05305 0.450963,0.05547 l 0.713824,0.01447 q 0.344854,0 0.475078,-0.110932 0.132637,-0.110932 0.132637,-0.315915 0,-0.171222 -0.101286,-0.330385 -0.101286,-0.159163 -0.272507,-0.233922 -0.130225,-0.05788 -0.443728,-0.05788 l -0.419613,0.0048 q -0.470256,0 -0.525722,0.03376 -0.05305,0.03376 -0.113343,0.286976 -0.0048,0.02894 -0.01929,0.08199 h -0.135048 q 0.02653,-0.289388 0.02653,-0.520898 0,-0.21463 -0.02653,-0.629419 h 0.135048 q 0.05788,0.284565 0.09887,0.320738 0.05547,0.04341 0.356912,0.04341 h 0.06511 l 0.706589,0.0096 q 0.460609,0 0.52331,-0.03858 0.06511,-0.03617 0.06511,-0.127813 0,-0.07235 -0.02894,-0.243569 z"
             style="stroke-width:0.07000434"
             id="path872" />
          <path
             d="m -34.43919,-56.817631 h 0.135048 q 0.144694,0.499194 0.303857,0.757231 l -0.04823,0.07958 q -0.209806,-0.03376 -0.460609,-0.04341 0.349677,0.306269 0.443728,0.460609 0.06993,0.115755 0.06993,0.299034 0,0.38344 -0.267683,0.627008 -0.265273,0.24598 -0.757232,0.24598 -0.397909,0 -0.701766,-0.163987 -0.301446,-0.163986 -0.49196,-0.467844 -0.190514,-0.301446 -0.190514,-0.578776 0,-0.08923 0.02653,-0.197748 0.02653,-0.106109 0.07717,-0.229099 -0.641477,0.0072 -0.754821,0.0217 -0.0627,0.0096 -0.09164,0.04582 -0.03135,0.03617 -0.08923,0.27733 -0.0072,0.03376 -0.02653,0.101286 h -0.132637 q 0.02653,-0.373793 0.02653,-0.586011 0,-0.171221 -0.02653,-0.663181 h 0.132637 l 0.02894,0.115755 q 0.04582,0.207395 0.09405,0.250803 0.04823,0.04341 0.192926,0.05064 0.09646,0.0048 1.114144,0.0048 l 1.0008,-0.0072 0.07958,0.0024 q 0.241157,0 0.299035,-0.03617 0.03617,-0.0217 0.03617,-0.08682 0,-0.06994 -0.0217,-0.279741 z m -1.483113,0.781347 q -0.115756,0.132636 -0.176045,0.270096 -0.05788,0.13987 -0.05788,0.286976 0,0.267684 0.233922,0.470256 0.236333,0.204983 0.670415,0.204983 0.44614,0 0.701766,-0.204983 0.192925,-0.151929 0.192925,-0.395497 0,-0.159164 -0.09646,-0.315916 -0.09646,-0.156751 -0.250803,-0.23151 -0.151929,-0.07476 -0.383439,-0.07958 z"
             style="stroke-width:0.07000434"
             id="path874" />
          <path
             d="m -35.777609,-52.189835 -0.142283,0.09164 -0.3545,-0.479902 q -0.06752,-0.09887 -0.09887,-0.204983 -0.04582,-0.154341 -0.04582,-0.315915 0,-0.393086 0.315915,-0.672828 0.315915,-0.27733 0.853695,-0.27733 0.578776,0 0.928453,0.332796 0.349677,0.335208 0.349677,0.817522 0,0.373792 -0.207395,0.576364 -0.204983,0.204983 -0.629419,0.209806 -0.05788,-0.101286 -0.142282,-0.18569 0.0024,-0.171222 0.0024,-0.21463 0,-0.639065 -0.01929,-1.111732 -0.540191,-0.0024 -0.817521,0.183279 -0.279742,0.185691 -0.279742,0.496783 0,0.156752 0.06029,0.327973 0.0627,0.171221 0.226688,0.426847 z m 1.056266,-0.352089 q 0.238745,-0.01447 0.361735,-0.106109 0.180867,-0.135047 0.180867,-0.364146 0,-0.197749 -0.137459,-0.352089 -0.135048,-0.15434 -0.448551,-0.229099 -0.0024,0.08923 -0.0024,0.135048 0,0.395497 0.04582,0.916395 z"
             style="stroke-width:0.07000434"
             id="path876" />
          <path
             d="m -34.444013,-51.888389 h 0.137459 q 0.113344,0.450963 0.311092,0.76929 l -0.04582,0.0627 q -0.233922,-0.03858 -0.511252,-0.04582 0.3545,0.291799 0.434082,0.407555 0.07958,0.115755 0.07958,0.272507 0,0.103697 -0.05064,0.23151 -0.245979,-0.05305 -0.501606,-0.08682 v -0.120579 q 0.115756,-0.0217 0.166399,-0.07235 0.05305,-0.05064 0.05305,-0.113343 0,-0.09646 -0.08923,-0.207395 -0.132636,-0.163987 -0.306269,-0.238745 -0.171221,-0.07235 -0.487136,-0.07235 -0.559484,0 -0.752409,0.03135 -0.07235,0.01206 -0.113344,0.06511 -0.041,0.05547 -0.106109,0.342442 h -0.135048 q 0.02653,-0.301446 0.02653,-0.547426 0,-0.204983 -0.02653,-0.67765 h 0.135048 q 0.08199,0.330385 0.125402,0.371381 0.04582,0.04341 0.241156,0.04341 l 0.52331,0.0048 q 0.76929,0 0.827168,-0.01447 0.09646,-0.02412 0.09646,-0.135047 0,-0.0627 -0.02411,-0.207395 -0.0024,-0.0217 -0.0072,-0.0627 z"
             style="stroke-width:0.07000434"
             id="path878" />
          <path
             d="m -34.723755,-49.727625 0.01688,-0.156751 q 0.250803,0.04823 0.499195,0.06752 0.212217,0.470256 0.212217,0.848872 0,0.163986 -0.04823,0.296623 -0.04582,0.132636 -0.130225,0.209806 -0.08199,0.07717 -0.197748,0.115755 -0.115755,0.041 -0.36897,0.041 l -0.995977,-0.0217 q -0.202571,0 -0.265272,0.04582 -0.0627,0.04582 -0.0627,0.118167 0,0.08682 0.130225,0.272507 l -0.09887,0.07476 q -0.303858,-0.340031 -0.32315,-0.371381 -0.03858,-0.06752 -0.03858,-0.16881 0,-0.156752 0.07717,-0.243568 0.07958,-0.08441 0.265272,-0.113344 -0.224276,-0.289388 -0.282153,-0.429259 -0.06029,-0.139871 -0.06029,-0.303857 0,-0.267684 0.161575,-0.431671 0.163986,-0.163986 0.417201,-0.163986 0.15434,0 0.27733,0.05788 0.125401,0.05788 0.219452,0.166398 0.06994,0.08441 0.16881,0.284565 0.229099,0.470256 0.36897,0.819933 0.340031,-0.01206 0.450963,-0.113344 0.110932,-0.101285 0.110932,-0.311092 0,-0.197748 -0.12299,-0.340031 -0.120579,-0.139871 -0.381028,-0.250803 z m -0.267684,1.01527 q -0.282153,-0.629419 -0.412378,-0.762055 -0.127813,-0.130225 -0.30868,-0.130225 -0.180868,0 -0.289388,0.09887 -0.108521,0.09887 -0.108521,0.23151 0,0.137459 0.08923,0.296623 0.09164,0.161575 0.204984,0.212218 0.113343,0.05305 0.412377,0.05305 z"
             style="stroke-width:0.07000434"
             id="path880" />
          <path
             d="m -33.464917,-47.086959 v 0.139871 l -0.614949,-0.05547 0.0072,0.668004 -0.03859,0.01929 q -0.09887,-0.06029 -0.212218,-0.110932 0.01447,-0.284564 0.01929,-0.576364 l -1.239545,-0.0217 h -0.01447 q -0.286976,0 -0.414789,0.0627 -0.125402,0.06511 -0.125402,0.219452 0,0.127813 0.108521,0.337619 l -0.13746,0.06994 q -0.163986,-0.262861 -0.214629,-0.40032 -0.05305,-0.137459 -0.05305,-0.238745 0,-0.159164 0.08199,-0.270096 0.0844,-0.110932 0.23151,-0.147105 0.08199,-0.0217 0.501606,-0.0217 0.448551,0 1.275719,0.02653 -0.0048,-0.16881 -0.01929,-0.349677 h 0.130225 q 0.09164,0.202571 0.250803,0.349677 0.159163,0.149517 0.47749,0.299034 z"
             style="stroke-width:0.07000434"
             id="path882" />
          <path
             d="m -34.280026,-46.288732 h 0.135047 q 0.02412,0.438906 0.106109,0.807875 l -0.04582,0.06029 q -0.417201,-0.05064 -1.012858,-0.05064 -0.518486,0 -0.66318,0.03135 -0.142283,0.03376 -0.224276,0.142282 -0.08199,0.108521 -0.08199,0.26045 0,0.173632 0.09405,0.325561 0.09405,0.15434 0.238745,0.214629 0.144694,0.06029 0.44614,0.06029 0.03617,0 0.812698,-0.01447 0.103697,-0.01206 0.139871,-0.0627 0.03617,-0.04823 0.04823,-0.272507 l 0.0072,-0.08682 h 0.135047 q 0.03858,0.516075 0.106109,0.805463 l -0.04582,0.0627 q -0.20016,-0.0217 -0.501605,-0.03376 -0.299035,-0.0096 -0.699355,-0.0096 -0.504017,0 -0.598068,0.02653 -0.09405,0.02653 -0.09405,0.135048 0,0.0627 0.02894,0.253214 h -0.135047 q -0.06511,-0.248391 -0.132637,-0.419612 -0.06752,-0.16881 -0.178455,-0.359324 l 0.05305,-0.07235 q 0.178456,0.03135 0.356912,0.03617 -0.265272,-0.284565 -0.337619,-0.426848 -0.07235,-0.142282 -0.07235,-0.318326 0,-0.332797 0.163986,-0.496783 0.161575,-0.166398 0.494371,-0.166398 h 0.844049 q 0.450963,-0.0024 0.518486,-0.05306 0.06752,-0.04823 0.0844,-0.294211 0.0024,-0.02894 0.0096,-0.08441 z"
             style="stroke-width:0.07000434"
             id="path884" />
          <path
             d="m -34.444013,-43.503371 h 0.137459 q 0.113344,0.450962 0.311092,0.769289 l -0.04582,0.0627 q -0.233922,-0.03859 -0.511252,-0.04582 0.3545,0.2918 0.434082,0.407555 0.07958,0.115755 0.07958,0.272507 0,0.103697 -0.05064,0.23151 -0.245979,-0.05305 -0.501606,-0.08682 v -0.120578 q 0.115756,-0.0217 0.166399,-0.07235 0.05305,-0.05064 0.05305,-0.113344 0,-0.09646 -0.08923,-0.207395 -0.132636,-0.163986 -0.306269,-0.238745 -0.171221,-0.07235 -0.487136,-0.07235 -0.559484,0 -0.752409,0.03135 -0.07235,0.01206 -0.113344,0.06511 -0.041,0.05547 -0.106109,0.342442 h -0.135048 q 0.02653,-0.301445 0.02653,-0.547425 0,-0.204983 -0.02653,-0.67765 h 0.135048 q 0.08199,0.330384 0.125402,0.371381 0.04582,0.04341 0.241156,0.04341 l 0.52331,0.0048 q 0.76929,0 0.827168,-0.01447 0.09646,-0.02412 0.09646,-0.135048 0,-0.0627 -0.02411,-0.207395 -0.0024,-0.0217 -0.0072,-0.0627 z"
             style="stroke-width:0.07000434"
             id="path886" />
          <path
             d="m -35.777609,-39.794381 -0.142283,0.09164 -0.3545,-0.479902 q -0.06752,-0.09887 -0.09887,-0.204983 -0.04582,-0.15434 -0.04582,-0.315915 0,-0.393085 0.315915,-0.672827 0.315915,-0.27733 0.853695,-0.27733 0.578776,0 0.928453,0.332796 0.349677,0.335208 0.349677,0.817521 0,0.373793 -0.207395,0.576364 -0.204983,0.204984 -0.629419,0.209807 -0.05788,-0.101286 -0.142282,-0.185691 0.0024,-0.171221 0.0024,-0.214629 0,-0.639065 -0.01929,-1.111733 -0.540191,-0.0024 -0.817521,0.18328 -0.279742,0.18569 -0.279742,0.496782 0,0.156752 0.06029,0.327973 0.0627,0.171222 0.226688,0.426848 z m 1.056266,-0.352089 q 0.238745,-0.01447 0.361735,-0.106109 0.180867,-0.135048 0.180867,-0.364147 0,-0.197748 -0.137459,-0.352088 -0.135048,-0.154341 -0.448551,-0.229099 -0.0024,0.08923 -0.0024,0.135048 0,0.395496 0.04582,0.916395 z"
             style="stroke-width:0.07000434"
             id="path888" />
          <path
             d="m -37.176318,-36.82092 h -0.20016 q 0.144694,-0.313503 0.337619,-0.528133 0.315915,-0.3545 0.805464,-0.571541 0.489548,-0.214629 1.138259,-0.214629 0.530545,0 1.003212,0.163986 0.475078,0.163987 0.834402,0.511252 0.262861,0.253215 0.44614,0.639065 h -0.20016 q -0.159164,-0.23151 -0.361735,-0.378616 -0.2918,-0.204983 -0.757232,-0.344854 -0.465433,-0.137459 -0.967039,-0.137459 -0.528133,0 -0.993565,0.147106 -0.463021,0.147105 -0.730705,0.340031 -0.18569,0.137459 -0.3545,0.373792 z"
             style="stroke-width:0.07000434"
             id="path890" />
          <path
             d="m -33.173522,-36.594112 q 0.379339,0 0.600359,0.21475 0.221021,0.21475 0.221021,0.564306 0,0.330747 -0.199075,0.523551 -0.199075,0.194373 -0.556469,0.194373 -0.38561,0 -0.611332,-0.217885 -0.224156,-0.216318 -0.224156,-0.561172 0,-0.333881 0.200643,-0.526686 0.200642,-0.191237 0.569009,-0.191237 z m 0.136374,0.300963 q -0.257073,0 -0.379339,0.03292 -0.197508,0.05173 -0.297829,0.163022 -0.09875,0.112861 -0.09875,0.261775 0,0.192805 0.14578,0.316639 0.147346,0.123834 0.471823,0.123834 0.363664,0 0.537658,-0.141077 0.175563,-0.139509 0.175563,-0.329178 0,-0.188103 -0.137942,-0.308801 -0.136374,-0.119132 -0.41696,-0.119132 z"
             style="font-size:64.99999762%;baseline-shift:super"
             id="path892" />
          <path
             d="m -35.775198,-31.680667 -0.183279,0.101286 q -0.243568,-0.388262 -0.359323,-0.745174 -0.115756,-0.356912 -0.115756,-0.737939 0,-0.484725 0.219453,-0.880222 0.221864,-0.395497 0.624596,-0.60048 0.405143,-0.202572 0.897103,-0.202572 0.803051,0 1.314303,0.52331 0.511253,0.525721 0.511253,1.389062 0,0.530545 -0.217041,1.181668 -0.212218,-0.0048 -0.318327,-0.0048 -0.308681,0 -0.648712,0.03617 v -0.202571 q 0.422025,-0.08923 0.581188,-0.190514 0.159163,-0.101286 0.253214,-0.327973 0.09646,-0.226687 0.09646,-0.559484 0,-0.699354 -0.496783,-1.053854 -0.388262,-0.274919 -0.974273,-0.274919 -0.699354,0 -1.104497,0.385851 -0.402732,0.388262 -0.402732,1.015269 0,0.270096 0.06994,0.525722 0.06994,0.255626 0.253214,0.622184 z"
             style="stroke-width:0.07000434"
             id="path894" />
          <path
             d="m -33.011542,-31.318933 h 0.20016 q -0.144694,0.313504 -0.33762,0.528133 -0.315915,0.3545 -0.805463,0.571541 -0.489548,0.217041 -1.138259,0.217041 -0.530545,0 -1.005624,-0.163986 -0.472667,-0.163987 -0.829579,-0.511252 -0.265272,-0.255626 -0.448551,-0.641477 h 0.20016 q 0.159163,0.23151 0.364147,0.378616 0.289388,0.207395 0.75482,0.344854 0.465432,0.137459 0.967038,0.137459 0.528133,0 0.991154,-0.147105 0.465432,-0.147106 0.733116,-0.340031 0.185691,-0.135048 0.354501,-0.373793 z"
             style="stroke-width:0.07000434"
             id="path896" />
        </g>
      </g>
      <path
         style="fill:#ff0000;stroke:#969696;stroke-width:1;stroke-linecap:round;stroke-linejoin:miter;stroke-miterlimit:4;stroke-dasharray:none;stroke-opacity:1"
         d="m 41.553595,116.38969 37.314082,-2.78321"
         id="path2310-5"
         inkscape:connector-curvature="0" />
      <path
         style="fill:#ff0000;stroke:#969696;stroke-width:1;stroke-linecap:round;stroke-linejoin:miter;stroke-miterlimit:4;stroke-dasharray:none;stroke-opacity:1"
         d="m 116.15802,145.72031 37.31381,-2.7832"
         id="path2310-9"
         inkscape:connector-curvature="0" />
      <path
         style="fill:none;stroke:#969696;stroke-width:1;stroke-linecap:round;stroke-linejoin:miter;stroke-miterlimit:4;stroke-dasharray:none;stroke-opacity:1"
         d="m 79.068144,113.77908 37.089986,31.94106"
         id="path2335"
         inkscape:connector-curvature="0" />
      <g
         aria-label="Water"
         transform="rotate(40.734299)"
         style="font-style:normal;font-variant:normal;font-weight:normal;font-stretch:normal;font-size:4.93888855px;line-height:1.25;font-family:'Calisto MT';-inkscape-font-specification:'Calisto MT';letter-spacing:0px;word-spacing:0px;fill:#969696;fill-opacity:1;stroke:none;stroke-width:1;stroke-miterlimit:4;stroke-dasharray:none"
         id="text2384">
        <path
           d="m 106.49528,49.856553 h -0.17363 q -0.3955,-1.147906 -0.85852,-2.413978 -0.2291,-0.627007 -0.29421,-0.733116 -0.0338,-0.05547 -0.0868,-0.09164 -0.0796,-0.05064 -0.3545,-0.113343 v -0.142283 q 0.55708,0.02653 0.71142,0.02653 0.20498,0 0.65835,-0.02653 v 0.142283 q -0.28697,0.07235 -0.33761,0.110932 -0.0482,0.03858 -0.0482,0.09405 0,0.05064 0.10129,0.352088 0.44855,1.362536 0.69935,2.004012 l 0.66077,-1.777324 q -0.16157,-0.441317 -0.21945,-0.540191 -0.0555,-0.09887 -0.11575,-0.135048 -0.0603,-0.03617 -0.34245,-0.10852 v -0.142283 q 0.44855,0.02653 0.69453,0.02653 0.25804,0 0.67283,-0.02653 v 0.142283 l -0.0868,0.0217 q -0.20016,0.03859 -0.25803,0.0844 -0.0362,0.03135 -0.0362,0.09405 0,0.02653 0.005,0.05064 0.0145,0.0627 0.26768,0.795817 l 0.51849,1.473468 q 0.1664,-0.458198 0.40032,-1.172022 l 0.35932,-1.099674 q 0.007,-0.03376 0.007,-0.06029 0,-0.04341 -0.0265,-0.0627 -0.0265,-0.0217 -0.35932,-0.125401 v -0.142283 q 0.44855,0.02653 0.58601,0.02653 0.16398,0 0.55224,-0.02653 v 0.142283 q -0.27491,0.07235 -0.34244,0.125401 -0.0434,0.03617 -0.082,0.120578 -0.0627,0.13746 -0.56431,1.550638 -0.0145,0.03617 -0.53054,1.55546 h -0.1664 l -0.59325,-1.651923 q -0.0796,-0.221864 -0.21221,-0.557072 -0.32074,0.827168 -0.80547,2.208995 z"
           style="stroke-width:1;stroke-miterlimit:4;stroke-dasharray:none;fill:#969696;fill-opacity:1"
           id="path925" />
        <path
           d="m 109.97276,48.146752 -0.15675,-0.01688 q 0.0482,-0.250802 0.0675,-0.499194 0.47026,-0.212218 0.84888,-0.212218 0.16398,0 0.29662,0.04823 0.13263,0.04582 0.2098,0.130224 0.0772,0.08199 0.11576,0.197749 0.041,0.115755 0.041,0.368969 l -0.0217,0.995977 q 0,0.202572 0.0458,0.265273 0.0458,0.0627 0.11817,0.0627 0.0868,0 0.27251,-0.130225 l 0.0748,0.09887 q -0.34003,0.303858 -0.37138,0.32315 -0.0675,0.03858 -0.16881,0.03858 -0.15675,0 -0.24356,-0.07717 -0.0844,-0.07958 -0.11335,-0.265272 -0.28939,0.224275 -0.42926,0.282153 -0.13987,0.06029 -0.30385,0.06029 -0.26769,0 -0.43167,-0.161575 -0.16399,-0.163986 -0.16399,-0.417201 0,-0.15434 0.0579,-0.27733 0.0579,-0.125401 0.16639,-0.219453 0.0844,-0.06994 0.28457,-0.168809 0.47025,-0.229099 0.81993,-0.36897 -0.0121,-0.340031 -0.11334,-0.450963 -0.10129,-0.110932 -0.31109,-0.110932 -0.19775,0 -0.34003,0.12299 -0.13988,0.120578 -0.25081,0.381027 z m 1.01527,0.267684 q -0.62942,0.282154 -0.76205,0.412378 -0.13023,0.127813 -0.13023,0.308681 0,0.180867 0.0989,0.289388 0.0989,0.10852 0.23151,0.10852 0.13746,0 0.29662,-0.08923 0.16157,-0.09164 0.21222,-0.204983 0.053,-0.113343 0.053,-0.412378 z"
           style="stroke-width:1;stroke-miterlimit:4;stroke-dasharray:none;fill:#969696;fill-opacity:1"
           id="path927" />
        <path
           d="m 112.61825,46.887915 h 0.13987 l -0.0555,0.614949 0.668,-0.0072 0.0193,0.03859 q -0.0603,0.09887 -0.11093,0.212217 -0.28456,-0.01447 -0.57636,-0.01929 l -0.0217,1.239545 v 0.01447 q 0,0.286976 0.0627,0.414789 0.0651,0.125401 0.21945,0.125401 0.12782,0 0.33762,-0.10852 l 0.0699,0.137459 q -0.26286,0.163987 -0.40032,0.21463 -0.13746,0.05305 -0.23875,0.05305 -0.15916,0 -0.27009,-0.08199 -0.11093,-0.08441 -0.14711,-0.231511 -0.0217,-0.08199 -0.0217,-0.501605 0,-0.448552 0.0265,-1.275719 -0.16881,0.0048 -0.34968,0.01929 v -0.130224 q 0.20257,-0.09164 0.34968,-0.250803 0.14951,-0.159164 0.29903,-0.47749 z"
           style="stroke-width:1;stroke-miterlimit:4;stroke-dasharray:none;fill:#969696;fill-opacity:1"
           id="path929" />
        <path
           d="m 115.4422,49.200607 0.0916,0.142283 -0.47991,0.3545 q -0.0989,0.06752 -0.20498,0.09887 -0.15434,0.04582 -0.31591,0.04582 -0.39309,0 -0.67283,-0.315915 -0.27733,-0.315916 -0.27733,-0.853695 0,-0.578776 0.33279,-0.928453 0.33521,-0.349677 0.81753,-0.349677 0.37379,0 0.57636,0.207394 0.20498,0.204984 0.20981,0.629419 -0.10129,0.05788 -0.18569,0.142283 -0.17123,-0.0024 -0.21463,-0.0024 -0.63907,0 -1.11174,0.01929 -0.002,0.540191 0.18328,0.817521 0.18569,0.279742 0.49679,0.279742 0.15675,0 0.32797,-0.06029 0.17122,-0.0627 0.42685,-0.226687 z m -0.35209,-1.056266 q -0.0145,-0.238745 -0.10611,-0.361735 -0.13505,-0.180868 -0.36415,-0.180868 -0.19775,0 -0.35209,0.13746 -0.15434,0.135047 -0.2291,0.448551 0.0892,0.0024 0.13505,0.0024 0.3955,0 0.9164,-0.04582 z"
           style="stroke-width:1;stroke-miterlimit:4;stroke-dasharray:none;fill:#969696;fill-opacity:1"
           id="path931" />
        <path
           d="m 115.74846,47.867011 v -0.13746 q 0.45097,-0.113343 0.76929,-0.311092 l 0.0627,0.04582 q -0.0386,0.233922 -0.0458,0.511252 0.29179,-0.3545 0.40755,-0.434082 0.11576,-0.07958 0.27251,-0.07958 0.10369,0 0.23151,0.05064 -0.0531,0.24598 -0.0868,0.501606 h -0.12058 q -0.0217,-0.115755 -0.0723,-0.166398 -0.0507,-0.05305 -0.11335,-0.05305 -0.0965,0 -0.20739,0.08923 -0.16399,0.132636 -0.23875,0.306269 -0.0723,0.171221 -0.0723,0.487136 0,0.559484 0.0314,0.752409 0.0121,0.07235 0.0651,0.113344 0.0555,0.041 0.34244,0.106108 v 0.135048 q -0.30145,-0.02653 -0.54743,-0.02653 -0.20498,0 -0.67765,0.02653 v -0.135048 q 0.33039,-0.08199 0.37139,-0.125401 0.0434,-0.04582 0.0434,-0.241157 l 0.005,-0.52331 q 0,-0.769289 -0.0145,-0.827167 -0.0241,-0.09646 -0.13505,-0.09646 -0.0627,0 -0.20739,0.02412 -0.0217,0.0024 -0.0627,0.0072 z"
           style="stroke-width:1;stroke-miterlimit:4;stroke-dasharray:none;fill:#969696;fill-opacity:1"
           id="path933" />
      </g>
      <g
         aria-label="Steam"
         transform="rotate(40.7343)"
         style="font-style:normal;font-variant:normal;font-weight:normal;font-stretch:normal;font-size:4.93888855px;line-height:1.25;font-family:'Calisto MT';-inkscape-font-specification:'Calisto MT';letter-spacing:0px;word-spacing:0px;fill:#969696;fill-opacity:1;stroke:none;stroke-width:1;stroke-miterlimit:4;stroke-dasharray:none"
         id="text2384-1">
        <path
           d="m 184.14609,18.632256 h -0.18328 q -0.0627,-0.30868 -0.14228,-0.450963 -0.0796,-0.142282 -0.24357,-0.221864 -0.16157,-0.08199 -0.36414,-0.08199 -0.28698,0 -0.4582,0.159163 -0.16881,0.159164 -0.16881,0.385851 0,0.20016 0.13987,0.349677 0.13746,0.149517 0.67042,0.378616 0.53536,0.229099 0.72829,0.472667 0.19051,0.24598 0.19051,0.552249 0,0.274918 -0.14469,0.511252 -0.14228,0.236333 -0.43167,0.378616 -0.28698,0.139871 -0.61977,0.139871 -0.22669,0 -0.45579,-0.04341 -0.22669,-0.04341 -0.54501,-0.149518 0.0338,-0.34003 0.0338,-0.901926 h 0.18569 q 0.0796,0.361735 0.16398,0.506429 0.0868,0.144694 0.26045,0.238746 0.17364,0.09164 0.38103,0.09164 0.28457,0 0.4992,-0.159163 0.21462,-0.159164 0.21462,-0.44614 0,-0.233922 -0.15434,-0.41479 -0.15675,-0.178456 -0.68006,-0.402731 -0.5209,-0.226687 -0.69694,-0.434082 -0.17604,-0.204983 -0.17604,-0.489548 0,-0.248392 0.14228,-0.472667 0.14228,-0.226688 0.4172,-0.356912 0.27733,-0.132636 0.57395,-0.132636 0.35691,0 0.86334,0.171221 -0.012,0.352089 -0.012,0.424436 0,0.147105 0.012,0.397908 z"
           style="stroke-width:1;stroke-miterlimit:4;stroke-dasharray:none;fill:#969696;fill-opacity:1"
           id="path959" />
        <path
           d="m 185.28676,18.236759 h 0.13987 l -0.0555,0.61495 0.668,-0.0072 0.0193,0.03858 q -0.0603,0.09887 -0.11094,0.212218 -0.28456,-0.01447 -0.57636,-0.01929 l -0.0217,1.239546 v 0.01447 q 0,0.286976 0.0627,0.41479 0.0651,0.125401 0.21945,0.125401 0.12781,0 0.33762,-0.108521 l 0.0699,0.13746 q -0.26286,0.163986 -0.40032,0.214629 -0.13746,0.05306 -0.23874,0.05306 -0.15917,0 -0.2701,-0.08199 -0.11093,-0.0844 -0.1471,-0.23151 -0.0217,-0.08199 -0.0217,-0.501606 0,-0.448551 0.0265,-1.275719 -0.16881,0.0048 -0.34968,0.01929 v -0.130225 q 0.20257,-0.09164 0.34968,-0.250803 0.14952,-0.159163 0.29903,-0.47749 z"
           style="stroke-width:1;stroke-miterlimit:4;stroke-dasharray:none;fill:#969696;fill-opacity:1"
           id="path961" />
        <path
           d="m 188.11071,20.549452 0.0916,0.142282 -0.4799,0.3545 q -0.0989,0.06752 -0.20499,0.09888 -0.15434,0.04582 -0.31591,0.04582 -0.39309,0 -0.67283,-0.315915 -0.27733,-0.315915 -0.27733,-0.853694 0,-0.578776 0.3328,-0.928454 0.3352,-0.349677 0.81752,-0.349677 0.37379,0 0.57636,0.207395 0.20499,0.204983 0.20981,0.629419 -0.10129,0.05788 -0.18569,0.142282 -0.17122,-0.0024 -0.21463,-0.0024 -0.63907,0 -1.11173,0.01929 -0.002,0.540191 0.18328,0.817521 0.18569,0.279742 0.49678,0.279742 0.15675,0 0.32797,-0.06029 0.17122,-0.0627 0.42685,-0.226687 z m -0.35209,-1.056267 q -0.0145,-0.238745 -0.10611,-0.361735 -0.13505,-0.180867 -0.36415,-0.180867 -0.19774,0 -0.35208,0.137459 -0.15434,0.135048 -0.2291,0.448552 0.0892,0.0024 0.13504,0.0024 0.3955,0 0.9164,-0.04582 z"
           style="stroke-width:1;stroke-miterlimit:4;stroke-dasharray:none;fill:#969696;fill-opacity:1"
           id="path963" />
        <path
           d="m 188.82936,19.495597 -0.15676,-0.01688 q 0.0482,-0.250803 0.0675,-0.499194 0.47025,-0.212218 0.84887,-0.212218 0.16399,0 0.29662,0.04823 0.13264,0.04582 0.20981,0.130225 0.0772,0.08199 0.11575,0.197748 0.041,0.115755 0.041,0.36897 l -0.0217,0.995977 q 0,0.202572 0.0458,0.265272 0.0458,0.0627 0.11816,0.0627 0.0868,0 0.27251,-0.130225 l 0.0748,0.09888 q -0.34003,0.303857 -0.37138,0.32315 -0.0675,0.03859 -0.16881,0.03859 -0.15675,0 -0.24357,-0.07717 -0.0844,-0.07958 -0.11334,-0.265273 -0.28939,0.224276 -0.42926,0.282154 -0.13987,0.06029 -0.30386,0.06029 -0.26769,0 -0.43167,-0.161575 -0.16399,-0.163987 -0.16399,-0.417201 0,-0.154341 0.0579,-0.27733 0.0579,-0.125402 0.1664,-0.219453 0.0844,-0.06994 0.28456,-0.16881 0.47026,-0.229099 0.81994,-0.368969 -0.0121,-0.340031 -0.11335,-0.450963 -0.10128,-0.110932 -0.31109,-0.110932 -0.19775,0 -0.34003,0.122989 -0.13987,0.120579 -0.2508,0.381028 z m 1.01527,0.267684 q -0.62942,0.282153 -0.76206,0.412378 -0.13022,0.127813 -0.13022,0.30868 0,0.180868 0.0989,0.289388 0.0989,0.108521 0.23151,0.108521 0.13746,0 0.29662,-0.08923 0.16158,-0.09164 0.21222,-0.204983 0.0531,-0.113344 0.0531,-0.412378 z"
           style="stroke-width:1;stroke-miterlimit:4;stroke-dasharray:none;fill:#969696;fill-opacity:1"
           id="path965" />
        <path
           d="m 190.86472,19.211032 v -0.137459 q 0.44855,-0.12299 0.76688,-0.306269 l 0.0579,0.05064 q -0.0338,0.192925 -0.041,0.414789 l 0.34967,-0.32315 q 0.0651,-0.05788 0.15917,-0.09405 0.13022,-0.04823 0.27492,-0.04823 0.26768,0 0.44614,0.144694 0.12781,0.103697 0.18086,0.320738 0.26769,-0.299034 0.39068,-0.366558 0.18328,-0.09887 0.40273,-0.09887 0.18087,0 0.32797,0.07717 0.14952,0.07476 0.21463,0.176044 0.0675,0.09887 0.0868,0.212218 0.0193,0.110932 0.0193,0.366558 l -0.005,0.66077 q 0,0.494371 0.0193,0.576364 0.0121,0.05305 0.0506,0.07958 0.0386,0.02411 0.32074,0.08199 v 0.135048 q -0.30386,-0.02653 -0.51607,-0.02653 -0.18569,0 -0.64872,0.02653 v -0.135048 q 0.0458,-0.01447 0.0699,-0.0217 0.21704,-0.0627 0.24839,-0.09646 0.0338,-0.03617 0.0458,-0.202571 0.0241,-0.335208 0.0241,-0.762055 0,-0.409967 -0.0362,-0.535368 -0.0338,-0.127813 -0.13746,-0.20016 -0.10369,-0.07235 -0.25321,-0.07235 -0.2074,0 -0.37138,0.125401 -0.16158,0.12299 -0.21222,0.318327 -0.0289,0.103697 -0.0289,0.651123 0,0.624596 0.0386,0.682473 0.0386,0.05788 0.35209,0.113344 v 0.135048 q -0.31351,-0.02653 -0.57155,-0.02653 -0.26527,0 -0.58601,0.02653 v -0.135048 l 0.0627,-0.01688 q 0.22669,-0.06029 0.25563,-0.106109 0.0531,-0.08199 0.0555,-0.450963 l 0.0145,-0.713824 q 0,-0.344854 -0.11094,-0.475078 -0.11093,-0.132636 -0.31591,-0.132636 -0.17122,0 -0.33039,0.101285 -0.15916,0.101286 -0.23392,0.272507 -0.0579,0.130225 -0.0579,0.443729 l 0.005,0.419612 q 0,0.470256 0.0338,0.525722 0.0338,0.05305 0.28698,0.113343 0.0289,0.0048 0.082,0.01929 v 0.135048 q -0.28939,-0.02653 -0.5209,-0.02653 -0.21463,0 -0.62942,0.02653 v -0.135048 q 0.28457,-0.05788 0.32074,-0.09887 0.0434,-0.05547 0.0434,-0.356912 v -0.06511 l 0.01,-0.706589 q 0,-0.46061 -0.0386,-0.52331 -0.0362,-0.06511 -0.12781,-0.06511 -0.0724,0 -0.24357,0.02894 z"
           style="stroke-width:1;stroke-miterlimit:4;stroke-dasharray:none;fill:#969696;fill-opacity:1"
           id="path967" />
      </g>
      <g
         aria-label="Ice"
         transform="rotate(40.7343)"
         style="font-style:normal;font-variant:normal;font-weight:normal;font-stretch:normal;font-size:4.93888855px;line-height:1.25;font-family:'Calisto MT';-inkscape-font-specification:'Calisto MT';letter-spacing:0px;word-spacing:0px;fill:#969696;fill-opacity:1;stroke:none;stroke-width:0.26458338"
         id="text2384-4">
        <path
           d="m 39.546297,70.340987 v 0.142283 q -0.08441,0.01929 -0.125402,0.02653 -0.320738,0.05547 -0.371381,0.106109 -0.05064,0.04823 -0.05064,0.219452 v 0.08441 l -0.0096,0.96945 0.0072,1.408355 q 0,0.16881 0.04823,0.214629 0.05064,0.04582 0.340031,0.07958 0.05547,0.0072 0.161575,0.02894 V 73.763 q -0.388262,-0.02653 -0.747586,-0.02653 -0.371381,0 -0.815109,0.02653 v -0.142282 q 0.06994,-0.01929 0.106108,-0.02412 0.342443,-0.05547 0.390674,-0.101286 0.05064,-0.04823 0.05064,-0.238745 l -0.0024,-0.120578 0.0048,-0.885045 q 0,-1.364947 -0.0048,-1.509641 -0.0048,-0.07958 -0.05306,-0.12299 -0.04582,-0.04341 -0.364146,-0.103697 -0.04341,-0.0096 -0.127813,-0.03135 v -0.142283 q 0.52331,0.02653 0.817521,0.02653 0.327973,0 0.745174,-0.02653 z"
           style="stroke-width:0.26458338;fill:#969696;fill-opacity:1"
           id="path899" />
        <path
           d="m 41.637125,72.20754 -0.161575,-0.01206 q -0.0096,-0.303857 -0.15434,-0.448551 -0.142283,-0.147106 -0.390674,-0.147106 -0.178456,0 -0.342442,0.09887 -0.163987,0.09646 -0.258038,0.318327 -0.09164,0.219453 -0.09164,0.499194 0,0.448552 0.217041,0.701766 0.219453,0.250803 0.506429,0.250803 0.301446,0 0.725882,-0.238745 l 0.08923,0.144694 q -0.378616,0.279742 -0.629419,0.393085 -0.120578,0.05305 -0.294211,0.05305 -0.422024,0 -0.682474,-0.24598 -0.344854,-0.325561 -0.344854,-0.882633 0,-0.576365 0.361735,-0.947746 0.361735,-0.371381 0.89228,-0.371381 0.361735,0 0.696943,0.18569 -0.01688,0.08199 -0.04823,0.212218 -0.041,0.171221 -0.09164,0.436494 z"
           style="stroke-width:0.26458338;fill:#969696;fill-opacity:1"
           id="path901" />
        <path
           d="m 43.918467,73.179401 0.09164,0.142283 -0.479902,0.3545 q -0.09887,0.06752 -0.204983,0.09887 -0.15434,0.04582 -0.315915,0.04582 -0.393086,0 -0.672827,-0.315915 -0.277331,-0.315916 -0.277331,-0.853695 0,-0.578776 0.332797,-0.928453 0.335207,-0.349677 0.817521,-0.349677 0.373793,0 0.576364,0.207394 0.204983,0.204984 0.209806,0.629419 -0.101285,0.05788 -0.18569,0.142283 -0.171221,-0.0024 -0.21463,-0.0024 -0.639065,0 -1.111732,0.01929 -0.0024,0.540191 0.183279,0.817521 0.185691,0.279742 0.496783,0.279742 0.156752,0 0.327973,-0.06029 0.171221,-0.0627 0.426847,-0.226687 z M 43.566379,72.123135 Q 43.551909,71.88439 43.46027,71.7614 q -0.135048,-0.180868 -0.364147,-0.180868 -0.197748,0 -0.352089,0.13746 -0.15434,0.135048 -0.229099,0.448551 0.08923,0.0024 0.135048,0.0024 0.395497,0 0.916396,-0.04582 z"
           style="stroke-width:0.26458338;fill:#969696;fill-opacity:1"
           id="path903" />
      </g>
      <g
         aria-label="Ice &amp; Water"
         transform="rotate(40.7343)"
         style="font-style:normal;font-variant:normal;font-weight:normal;font-stretch:normal;font-size:4.93888855px;line-height:1.25;font-family:'Calisto MT';-inkscape-font-specification:'Calisto MT';letter-spacing:0px;word-spacing:0px;fill:#008000;fill-opacity:1;stroke:none;stroke-width:0.26458338"
         id="text2384-5">
        <path
           d="m 70.95582,54.319392 v 0.142283 q -0.08441,0.01929 -0.125402,0.02653 -0.320738,0.05547 -0.371381,0.106109 -0.05064,0.04823 -0.05064,0.219452 v 0.0844 l -0.0096,0.96945 0.0072,1.408355 q 0,0.16881 0.04823,0.214629 0.05064,0.04582 0.340031,0.07958 0.05547,0.0072 0.161575,0.02894 v 0.142282 q -0.388262,-0.02653 -0.747586,-0.02653 -0.371381,0 -0.815109,0.02653 v -0.142282 q 0.06994,-0.01929 0.106108,-0.02412 0.342443,-0.05547 0.390674,-0.101286 0.05064,-0.04823 0.05064,-0.238745 l -0.0024,-0.120578 0.0048,-0.885045 q 0,-1.364947 -0.0048,-1.509641 -0.0048,-0.07958 -0.05306,-0.12299 -0.04582,-0.04341 -0.364146,-0.103697 -0.04341,-0.0096 -0.127813,-0.03135 v -0.142283 q 0.52331,0.02653 0.817521,0.02653 0.327973,0 0.745174,-0.02653 z"
           style="stroke-width:0.26458338;fill:#008000;fill-opacity:1"
           id="path906" />
        <path
           d="m 73.046648,56.185945 -0.161575,-0.01206 q -0.0096,-0.303857 -0.15434,-0.448551 -0.142283,-0.147106 -0.390674,-0.147106 -0.178456,0 -0.342442,0.09887 -0.163987,0.09646 -0.258038,0.318327 -0.09164,0.219453 -0.09164,0.499194 0,0.448552 0.217041,0.701766 0.219453,0.250803 0.506429,0.250803 0.301446,0 0.725882,-0.238745 l 0.08923,0.144694 q -0.378616,0.279742 -0.629419,0.393085 -0.120578,0.05306 -0.294211,0.05306 -0.422024,0 -0.682474,-0.24598 -0.344854,-0.325561 -0.344854,-0.882633 0,-0.576365 0.361735,-0.947746 0.361735,-0.371381 0.89228,-0.371381 0.361735,0 0.696943,0.18569 -0.01688,0.08199 -0.04823,0.212218 -0.041,0.171221 -0.09164,0.436494 z"
           style="stroke-width:0.26458338;fill:#008000;fill-opacity:1"
           id="path908" />
        <path
           d="m 75.32799,57.157806 0.09164,0.142283 -0.479902,0.3545 q -0.09887,0.06752 -0.204983,0.09887 -0.15434,0.04582 -0.315915,0.04582 -0.393086,0 -0.672827,-0.315915 -0.277331,-0.315916 -0.277331,-0.853695 0,-0.578776 0.332797,-0.928453 0.335207,-0.349677 0.817521,-0.349677 0.373793,0 0.576364,0.207394 0.204983,0.204984 0.209806,0.629419 -0.101285,0.05788 -0.18569,0.142283 -0.171221,-0.0024 -0.21463,-0.0024 -0.639065,0 -1.111732,0.01929 -0.0024,0.540191 0.183279,0.817521 0.185691,0.279742 0.496783,0.279742 0.156752,0 0.327973,-0.06029 0.171221,-0.0627 0.426847,-0.226687 z M 74.975902,56.10154 q -0.01447,-0.238745 -0.106109,-0.361735 -0.135048,-0.180868 -0.364147,-0.180868 -0.197748,0 -0.352089,0.13746 -0.15434,0.135048 -0.229099,0.448551 0.08923,0.0024 0.135048,0.0024 0.395497,0 0.916396,-0.04582 z"
           style="stroke-width:0.26458338;fill:#008000;fill-opacity:1"
           id="path910" />
        <path
           d="m 79.297429,55.677104 v -0.139871 q 0.342442,0.02653 0.573953,0.02653 0.245979,0 0.52331,-0.02653 v 0.139871 q -0.277331,0.04341 -0.388263,0.135048 -0.110932,0.09164 -0.352088,0.542602 -0.173633,0.325562 -0.41479,0.624596 0.231511,0.224276 0.381028,0.308681 0.149517,0.08199 0.279741,0.08199 0.120579,0 0.253215,-0.04823 0.132636,-0.05064 0.337619,-0.185691 l 0.113344,0.137459 q -0.405143,0.342443 -0.557072,0.426848 -0.151929,0.0844 -0.274919,0.0844 -0.371381,0 -0.839225,-0.470256 -0.265272,0.241157 -0.525721,0.356912 -0.26045,0.113344 -0.564307,0.113344 -0.388262,0 -0.634242,-0.243569 -0.24598,-0.243568 -0.24598,-0.595657 0,-0.303857 0.207395,-0.564306 0.207395,-0.260449 0.805463,-0.573953 -0.12299,-0.272507 -0.171221,-0.448552 -0.04582,-0.178455 -0.04582,-0.342442 0,-0.2918 0.265273,-0.530545 0.267683,-0.238745 0.658357,-0.238745 0.284565,0 0.44614,0.151929 0.161575,0.151929 0.161575,0.395497 0,0.564306 -0.83199,0.967038 0.137459,0.279742 0.258037,0.479902 0.12299,0.20016 0.378616,0.564306 0.219453,-0.27733 0.32315,-0.532956 0.106109,-0.258037 0.106109,-0.40032 0,-0.05305 -0.04341,-0.09887 -0.04341,-0.04823 -0.183279,-0.09646 z m -0.926042,-0.09887 q 0.330385,-0.151929 0.458198,-0.306269 0.127813,-0.156752 0.127813,-0.364147 0,-0.217041 -0.108521,-0.342442 -0.10852,-0.127813 -0.258037,-0.127813 -0.09888,0 -0.197749,0.06029 -0.09646,0.06029 -0.144694,0.16881 -0.04823,0.10852 -0.04823,0.24598 0,0.248391 0.171221,0.665592 z m -0.313504,0.407555 q -0.241156,0.137459 -0.352088,0.241156 -0.149517,0.139871 -0.219453,0.284565 -0.06993,0.144694 -0.06993,0.303858 0,0.270095 0.190513,0.463021 0.192926,0.190513 0.470256,0.190513 0.359323,0 0.706589,-0.32315 -0.407555,-0.516075 -0.725882,-1.159963 z"
           style="stroke-width:0.26458338;fill:#008000;fill-opacity:1"
           id="path912" />
        <path
           d="m 83.754003,57.813752 h -0.173632 q -0.395497,-1.147905 -0.858518,-2.413978 -0.229099,-0.627007 -0.294211,-0.733116 -0.03376,-0.05547 -0.08682,-0.09164 -0.07958,-0.05064 -0.3545,-0.113343 v -0.142283 q 0.557072,0.02653 0.711412,0.02653 0.204983,0 0.658358,-0.02653 v 0.142283 q -0.286976,0.07235 -0.337619,0.110932 -0.04823,0.03859 -0.04823,0.09405 0,0.05064 0.101286,0.352089 0.448551,1.362535 0.699354,2.004011 l 0.66077,-1.777324 q -0.161575,-0.441317 -0.219453,-0.540191 -0.05547,-0.09887 -0.115755,-0.135048 -0.06029,-0.03617 -0.342443,-0.10852 v -0.142283 q 0.448552,0.02653 0.694532,0.02653 0.258037,0 0.672827,-0.02653 v 0.142283 l -0.08682,0.0217 q -0.20016,0.03858 -0.258037,0.08441 -0.03617,0.03135 -0.03617,0.09405 0,0.02653 0.0048,0.05064 0.01447,0.0627 0.267684,0.795817 l 0.518487,1.473467 q 0.166398,-0.458198 0.40032,-1.172022 l 0.359324,-1.099674 q 0.0072,-0.03376 0.0072,-0.06029 0,-0.04341 -0.02653,-0.0627 -0.02653,-0.0217 -0.359323,-0.125401 v -0.142283 q 0.448551,0.02653 0.58601,0.02653 0.163987,0 0.552249,-0.02653 v 0.142283 q -0.274919,0.07235 -0.342442,0.125401 -0.04341,0.03617 -0.08199,0.120578 -0.0627,0.13746 -0.564306,1.550638 -0.01447,0.03617 -0.530545,1.55546 H 85.36493 l -0.593245,-1.651923 q -0.07958,-0.221864 -0.212218,-0.557072 -0.320739,0.827168 -0.805464,2.208995 z"
           style="stroke-width:0.26458338;fill:#008000;fill-opacity:1"
           id="path914" />
        <path
           d="m 87.231484,56.103952 -0.156752,-0.01688 q 0.04823,-0.250803 0.06752,-0.499195 0.470255,-0.212218 0.848871,-0.212218 0.163987,0 0.296623,0.04823 0.132636,0.04582 0.209806,0.130224 0.07717,0.08199 0.115755,0.197749 0.041,0.115755 0.041,0.36897 l -0.0217,0.995977 q 0,0.202571 0.04582,0.265272 0.04582,0.0627 0.118167,0.0627 0.08682,0 0.272507,-0.130225 l 0.07476,0.09887 q -0.340031,0.303858 -0.371381,0.32315 -0.06752,0.03859 -0.16881,0.03859 -0.156752,0 -0.243568,-0.07717 -0.0844,-0.07958 -0.113344,-0.265272 -0.289388,0.224275 -0.429259,0.282153 -0.13987,0.06029 -0.303857,0.06029 -0.267684,0 -0.43167,-0.161575 -0.163987,-0.163986 -0.163987,-0.417201 0,-0.15434 0.05788,-0.27733 0.05788,-0.125401 0.166398,-0.219452 0.0844,-0.06994 0.284565,-0.16881 0.470255,-0.229099 0.819932,-0.36897 -0.01206,-0.340031 -0.113343,-0.450963 -0.101286,-0.110932 -0.311092,-0.110932 -0.197749,0 -0.340031,0.12299 -0.139871,0.120578 -0.250803,0.381028 z m 1.015269,0.267683 q -0.629419,0.282154 -0.762055,0.412378 -0.130224,0.127813 -0.130224,0.308681 0,0.180867 0.09887,0.289388 0.09887,0.10852 0.23151,0.10852 0.13746,0 0.296623,-0.08923 0.161575,-0.09164 0.212218,-0.204983 0.05305,-0.113343 0.05305,-0.412378 z"
           style="stroke-width:0.26458338;fill:#008000;fill-opacity:1"
           id="path916" />
        <path
           d="m 89.876971,54.845114 h 0.139871 l -0.05547,0.614949 0.668004,-0.0072 0.01929,0.03858 q -0.06029,0.09887 -0.110932,0.212217 -0.284565,-0.01447 -0.576365,-0.01929 l -0.0217,1.239545 v 0.01447 q 0,0.286976 0.0627,0.414789 0.06511,0.125402 0.219452,0.125402 0.127813,0 0.33762,-0.108521 l 0.06994,0.137459 q -0.262861,0.163987 -0.40032,0.21463 -0.137459,0.05305 -0.238745,0.05305 -0.159164,0 -0.270096,-0.08199 -0.110932,-0.0844 -0.147105,-0.23151 -0.0217,-0.08199 -0.0217,-0.501606 0,-0.448552 0.02653,-1.275719 -0.16881,0.0048 -0.349677,0.01929 v -0.130224 q 0.202571,-0.09164 0.349677,-0.250803 0.149517,-0.159163 0.299034,-0.47749 z"
           style="stroke-width:0.26458338;fill:#008000;fill-opacity:1"
           id="path918" />
        <path
           d="m 92.700917,57.157806 0.09164,0.142283 -0.479902,0.3545 q -0.09887,0.06752 -0.204983,0.09887 -0.154341,0.04582 -0.315916,0.04582 -0.393085,0 -0.672827,-0.315915 -0.27733,-0.315916 -0.27733,-0.853695 0,-0.578776 0.332796,-0.928453 0.335208,-0.349677 0.817521,-0.349677 0.373793,0 0.576365,0.207394 0.204983,0.204984 0.209806,0.629419 -0.101286,0.05788 -0.185691,0.142283 -0.171221,-0.0024 -0.214629,-0.0024 -0.639065,0 -1.111732,0.01929 -0.0024,0.540191 0.183279,0.817521 0.185691,0.279742 0.496783,0.279742 0.156751,0 0.327973,-0.06029 0.171221,-0.0627 0.426847,-0.226687 z M 92.348828,56.10154 q -0.01447,-0.238745 -0.106109,-0.361735 -0.135047,-0.180868 -0.364146,-0.180868 -0.197749,0 -0.352089,0.13746 -0.15434,0.135048 -0.229099,0.448551 0.08923,0.0024 0.135048,0.0024 0.395497,0 0.916395,-0.04582 z"
           style="stroke-width:0.26458338;fill:#008000;fill-opacity:1"
           id="path920" />
        <path
           d="m 93.007186,55.82421 v -0.137459 q 0.450963,-0.113344 0.769289,-0.311093 l 0.0627,0.04582 q -0.03858,0.233922 -0.04582,0.511252 0.2918,-0.3545 0.407555,-0.434082 0.115755,-0.07958 0.272507,-0.07958 0.103698,0 0.231511,0.05064 -0.05306,0.245979 -0.08682,0.501605 h -0.120578 q -0.0217,-0.115755 -0.07235,-0.166398 -0.05064,-0.05305 -0.113344,-0.05305 -0.09646,0 -0.207394,0.08923 -0.163987,0.132636 -0.238746,0.306269 -0.07235,0.171221 -0.07235,0.487136 0,0.559484 0.03135,0.752409 0.01206,0.07235 0.06511,0.113344 0.05547,0.041 0.342443,0.106109 v 0.135047 q -0.301446,-0.02653 -0.547426,-0.02653 -0.204983,0 -0.67765,0.02653 v -0.135047 q 0.330384,-0.08199 0.371381,-0.125402 0.04341,-0.04582 0.04341,-0.241157 l 0.0048,-0.52331 q 0,-0.769289 -0.01447,-0.827167 -0.02412,-0.09646 -0.135048,-0.09646 -0.0627,0 -0.207395,0.02412 -0.0217,0.0024 -0.0627,0.0072 z"
           style="stroke-width:0.26458338;fill:#008000;fill-opacity:1"
           id="path922" />
      </g>
      <g
         aria-label="Water &amp; Steam"
         transform="rotate(40.7343)"
         style="font-style:normal;font-variant:normal;font-weight:normal;font-stretch:normal;font-size:4.93888855px;line-height:1.25;font-family:'Calisto MT';-inkscape-font-specification:'Calisto MT';letter-spacing:0px;word-spacing:0px;fill:#969696;fill-opacity:1;stroke:none;stroke-width:1;stroke-miterlimit:4;stroke-dasharray:none"
         id="text2384-5-5">
        <path
           d="m 144.12418,31.439531 h -0.17363 q -0.3955,-1.147906 -0.85852,-2.413979 -0.2291,-0.627007 -0.29421,-0.733116 -0.0338,-0.05547 -0.0868,-0.09164 -0.0796,-0.05064 -0.3545,-0.113343 V 27.94517 q 0.55708,0.02653 0.71142,0.02653 0.20498,0 0.65835,-0.02653 v 0.142283 q -0.28697,0.07235 -0.33762,0.110932 -0.0482,0.03859 -0.0482,0.09405 0,0.05064 0.10129,0.352089 0.44855,1.362535 0.69935,2.004012 l 0.66077,-1.777325 q -0.16157,-0.441317 -0.21945,-0.540191 -0.0555,-0.09887 -0.11576,-0.135048 -0.0603,-0.03617 -0.34244,-0.10852 V 27.94517 q 0.44855,0.02653 0.69453,0.02653 0.25804,0 0.67283,-0.02653 v 0.142283 l -0.0868,0.0217 q -0.20016,0.03859 -0.25803,0.08441 -0.0362,0.03135 -0.0362,0.09405 0,0.02653 0.005,0.05064 0.0145,0.0627 0.26768,0.795817 l 0.51849,1.473467 q 0.16639,-0.458198 0.40032,-1.172021 l 0.35932,-1.099675 q 0.007,-0.03376 0.007,-0.06029 0,-0.04341 -0.0265,-0.0627 -0.0265,-0.0217 -0.35933,-0.125401 V 27.94517 q 0.44856,0.02653 0.58601,0.02653 0.16399,0 0.55225,-0.02653 v 0.142283 q -0.27492,0.07235 -0.34244,0.125401 -0.0434,0.03617 -0.082,0.120579 -0.0627,0.137459 -0.56431,1.550637 -0.0145,0.03617 -0.53054,1.555461 h -0.1664 l -0.59325,-1.651924 q -0.0796,-0.221864 -0.21222,-0.557072 -0.32073,0.827168 -0.80546,2.208996 z"
           style="stroke-width:1;stroke-miterlimit:4;stroke-dasharray:none;fill:#969696;fill-opacity:1"
           id="path936" />
        <path
           d="m 147.60166,29.72973 -0.15675,-0.01688 q 0.0482,-0.250803 0.0675,-0.499195 0.47026,-0.212217 0.84887,-0.212217 0.16399,0 0.29663,0.04823 0.13263,0.04582 0.2098,0.130225 0.0772,0.08199 0.11576,0.197748 0.041,0.115755 0.041,0.36897 l -0.0217,0.995977 q 0,0.202571 0.0458,0.265272 0.0458,0.0627 0.11817,0.0627 0.0868,0 0.2725,-0.130225 l 0.0748,0.09887 q -0.34003,0.303858 -0.37138,0.32315 -0.0675,0.03859 -0.16881,0.03859 -0.15675,0 -0.24357,-0.07717 -0.0844,-0.07958 -0.11334,-0.265272 -0.28939,0.224276 -0.42926,0.282153 -0.13987,0.06029 -0.30386,0.06029 -0.26768,0 -0.43167,-0.161575 -0.16398,-0.163986 -0.16398,-0.417201 0,-0.15434 0.0579,-0.27733 0.0579,-0.125401 0.1664,-0.219452 0.0844,-0.06994 0.28457,-0.16881 0.47025,-0.229099 0.81993,-0.36897 -0.0121,-0.340031 -0.11334,-0.450963 -0.10129,-0.110932 -0.3111,-0.110932 -0.19774,0 -0.34003,0.12299 -0.13987,0.120579 -0.2508,0.381028 z m 1.01527,0.267684 q -0.62942,0.282153 -0.76205,0.412378 -0.13023,0.127813 -0.13023,0.30868 0,0.180868 0.0989,0.289388 0.0989,0.108521 0.23151,0.108521 0.13745,0 0.29662,-0.08923 0.16157,-0.09164 0.21222,-0.204984 0.053,-0.113343 0.053,-0.412377 z"
           style="stroke-width:1;stroke-miterlimit:4;stroke-dasharray:none;fill:#969696;fill-opacity:1"
           id="path938" />
        <path
           d="m 150.24715,28.470892 h 0.13987 l -0.0555,0.614949 0.66801,-0.0072 0.0193,0.03858 q -0.0603,0.09887 -0.11093,0.212218 -0.28457,-0.01447 -0.57637,-0.01929 l -0.0217,1.239545 v 0.01447 q 0,0.286976 0.0627,0.414789 0.0651,0.125402 0.21945,0.125402 0.12782,0 0.33762,-0.108521 l 0.0699,0.13746 q -0.26286,0.163986 -0.40032,0.214629 -0.13746,0.05305 -0.23875,0.05305 -0.15916,0 -0.27009,-0.08199 -0.11093,-0.08441 -0.14711,-0.23151 -0.0217,-0.08199 -0.0217,-0.501606 0,-0.448551 0.0265,-1.275719 -0.16881,0.0048 -0.34968,0.01929 v -0.130225 q 0.20257,-0.09164 0.34968,-0.250803 0.14951,-0.159163 0.29903,-0.47749 z"
           style="stroke-width:1;stroke-miterlimit:4;stroke-dasharray:none;fill:#969696;fill-opacity:1"
           id="path940" />
        <path
           d="m 153.07109,30.783584 0.0916,0.142283 -0.4799,0.3545 q -0.0989,0.06752 -0.20498,0.09887 -0.15434,0.04582 -0.31592,0.04582 -0.39308,0 -0.67282,-0.315915 -0.27733,-0.315915 -0.27733,-0.853695 0,-0.578776 0.33279,-0.928453 0.33521,-0.349677 0.81752,-0.349677 0.3738,0 0.57637,0.207395 0.20498,0.204983 0.2098,0.629419 -0.10128,0.05788 -0.18569,0.142282 -0.17122,-0.0024 -0.21463,-0.0024 -0.63906,0 -1.11173,0.01929 -0.002,0.540191 0.18328,0.817521 0.18569,0.279742 0.49678,0.279742 0.15676,0 0.32798,-0.06029 0.17122,-0.0627 0.42684,-0.226688 z m -0.35208,-1.056266 q -0.0145,-0.238745 -0.10611,-0.361735 -0.13505,-0.180867 -0.36415,-0.180867 -0.19775,0 -0.35209,0.137459 -0.15434,0.135048 -0.2291,0.448551 0.0892,0.0024 0.13505,0.0024 0.3955,0 0.9164,-0.04582 z"
           style="stroke-width:1;stroke-miterlimit:4;stroke-dasharray:none;fill:#969696;fill-opacity:1"
           id="path942" />
        <path
           d="m 153.37736,29.449988 v -0.137459 q 0.45097,-0.113344 0.76929,-0.311092 l 0.0627,0.04582 q -0.0386,0.233922 -0.0458,0.511253 0.2918,-0.354501 0.40756,-0.434082 0.11575,-0.07958 0.27251,-0.07958 0.10369,0 0.23151,0.05064 -0.0531,0.24598 -0.0868,0.501606 h -0.12058 q -0.0217,-0.115756 -0.0724,-0.166399 -0.0506,-0.05305 -0.11334,-0.05305 -0.0965,0 -0.20739,0.08923 -0.16399,0.132636 -0.23875,0.306269 -0.0724,0.171221 -0.0724,0.487136 0,0.559484 0.0314,0.752409 0.0121,0.07235 0.0651,0.113344 0.0555,0.041 0.34244,0.106109 v 0.135048 q -0.30145,-0.02653 -0.54743,-0.02653 -0.20498,0 -0.67765,0.02653 v -0.135048 q 0.33039,-0.08199 0.37138,-0.125402 0.0434,-0.04582 0.0434,-0.241156 l 0.005,-0.52331 q 0,-0.76929 -0.0145,-0.827168 -0.0241,-0.09646 -0.13505,-0.09646 -0.0627,0 -0.2074,0.02411 -0.0217,0.0024 -0.0627,0.0072 z"
           style="stroke-width:1;stroke-miterlimit:4;stroke-dasharray:none;fill:#969696;fill-opacity:1"
           id="path944" />
        <path
           d="m 158.78651,29.302882 v -0.13987 q 0.34244,0.02653 0.57395,0.02653 0.24598,0 0.52331,-0.02653 v 0.13987 q -0.27733,0.04341 -0.38826,0.135048 -0.11093,0.09164 -0.35209,0.542603 -0.17363,0.325561 -0.41479,0.624595 0.23151,0.224276 0.38103,0.308681 0.14951,0.08199 0.27974,0.08199 0.12058,0 0.25321,-0.04823 0.13264,-0.05064 0.33762,-0.185691 l 0.11335,0.13746 q -0.40515,0.342442 -0.55708,0.426847 -0.15192,0.08441 -0.27491,0.08441 -0.37139,0 -0.83923,-0.470256 -0.26527,0.241157 -0.52572,0.356912 -0.26045,0.113344 -0.56431,0.113344 -0.38826,0 -0.63424,-0.243569 -0.24598,-0.243568 -0.24598,-0.595656 0,-0.303858 0.20739,-0.564307 0.2074,-0.260449 0.80547,-0.573953 -0.12299,-0.272507 -0.17122,-0.448551 -0.0458,-0.178456 -0.0458,-0.342443 0,-0.291799 0.26527,-0.530544 0.26768,-0.238746 0.65836,-0.238746 0.28456,0 0.44614,0.151929 0.16157,0.151929 0.16157,0.395497 0,0.564307 -0.83199,0.967038 0.13746,0.279742 0.25804,0.479902 0.12299,0.20016 0.37862,0.564307 0.21945,-0.277331 0.32315,-0.532957 0.1061,-0.258037 0.1061,-0.40032 0,-0.05305 -0.0434,-0.09887 -0.0434,-0.04823 -0.18328,-0.09646 z m -0.92604,-0.09887 q 0.33038,-0.151928 0.45819,-0.306269 0.12782,-0.156752 0.12782,-0.364146 0,-0.217041 -0.10852,-0.342443 -0.10853,-0.127813 -0.25804,-0.127813 -0.0989,0 -0.19775,0.06029 -0.0965,0.06029 -0.14469,0.16881 -0.0482,0.108521 -0.0482,0.24598 0,0.248391 0.17123,0.665592 z m -0.31351,0.407555 q -0.24116,0.137459 -0.35209,0.241157 -0.14951,0.139871 -0.21945,0.284565 -0.0699,0.144694 -0.0699,0.303857 0,0.270095 0.19052,0.463021 0.19292,0.190513 0.47025,0.190513 0.35933,0 0.70659,-0.323149 -0.40755,-0.516076 -0.72588,-1.159964 z"
           style="stroke-width:1;stroke-miterlimit:4;stroke-dasharray:none;fill:#969696;fill-opacity:1"
           id="path946" />
        <path
           d="m 163.73022,28.866389 h -0.18328 q -0.0627,-0.308681 -0.14228,-0.450963 -0.0796,-0.142283 -0.24357,-0.221864 -0.16158,-0.08199 -0.36415,-0.08199 -0.28697,0 -0.4582,0.159163 -0.16881,0.159163 -0.16881,0.385851 0,0.20016 0.13988,0.349677 0.13745,0.149517 0.67041,0.378616 0.53537,0.229099 0.72829,0.472667 0.19052,0.24598 0.19052,0.552249 0,0.274918 -0.1447,0.511252 -0.14228,0.236333 -0.43167,0.378616 -0.28697,0.139871 -0.61977,0.139871 -0.22669,0 -0.45579,-0.04341 -0.22668,-0.04341 -0.54501,-0.149517 0.0338,-0.340031 0.0338,-0.901926 h 0.18569 q 0.0796,0.361735 0.16399,0.506429 0.0868,0.144694 0.26045,0.238745 0.17363,0.09164 0.38103,0.09164 0.28456,0 0.49919,-0.159164 0.21463,-0.159163 0.21463,-0.446139 0,-0.233922 -0.15434,-0.41479 -0.15675,-0.178456 -0.68006,-0.402731 -0.5209,-0.226688 -0.69694,-0.434082 -0.17605,-0.204984 -0.17605,-0.489548 0,-0.248392 0.14228,-0.472668 0.14229,-0.226687 0.4172,-0.356911 0.27733,-0.132637 0.57396,-0.132637 0.35691,0 0.86334,0.171222 -0.0121,0.352088 -0.0121,0.424435 0,0.147106 0.0121,0.397909 z"
           style="stroke-width:1;stroke-miterlimit:4;stroke-dasharray:none;fill:#969696;fill-opacity:1"
           id="path948" />
        <path
           d="m 164.87089,28.470892 h 0.13987 l -0.0555,0.614949 0.66801,-0.0072 0.0193,0.03858 q -0.0603,0.09887 -0.11093,0.212218 -0.28457,-0.01447 -0.57637,-0.01929 l -0.0217,1.239545 v 0.01447 q 0,0.286976 0.0627,0.414789 0.0651,0.125402 0.21945,0.125402 0.12782,0 0.33762,-0.108521 l 0.0699,0.13746 q -0.26286,0.163986 -0.40032,0.214629 -0.13746,0.05305 -0.23875,0.05305 -0.15916,0 -0.27009,-0.08199 -0.11094,-0.08441 -0.14711,-0.23151 -0.0217,-0.08199 -0.0217,-0.501606 0,-0.448551 0.0265,-1.275719 -0.16881,0.0048 -0.34967,0.01929 v -0.130225 q 0.20257,-0.09164 0.34967,-0.250803 0.14952,-0.159163 0.29904,-0.47749 z"
           style="stroke-width:1;stroke-miterlimit:4;stroke-dasharray:none;fill:#969696;fill-opacity:1"
           id="path950" />
        <path
           d="m 167.69483,30.783584 0.0916,0.142283 -0.4799,0.3545 q -0.0989,0.06752 -0.20498,0.09887 -0.15434,0.04582 -0.31592,0.04582 -0.39308,0 -0.67282,-0.315915 -0.27733,-0.315915 -0.27733,-0.853695 0,-0.578776 0.33279,-0.928453 0.33521,-0.349677 0.81752,-0.349677 0.3738,0 0.57637,0.207395 0.20498,0.204983 0.2098,0.629419 -0.10128,0.05788 -0.18569,0.142282 -0.17122,-0.0024 -0.21463,-0.0024 -0.63906,0 -1.11173,0.01929 -0.002,0.540191 0.18328,0.817521 0.18569,0.279742 0.49678,0.279742 0.15676,0 0.32798,-0.06029 0.17122,-0.0627 0.42684,-0.226688 z m -0.35208,-1.056266 q -0.0145,-0.238745 -0.10611,-0.361735 -0.13505,-0.180867 -0.36415,-0.180867 -0.19775,0 -0.35209,0.137459 -0.15434,0.135048 -0.2291,0.448551 0.0892,0.0024 0.13505,0.0024 0.3955,0 0.9164,-0.04582 z"
           style="stroke-width:1;stroke-miterlimit:4;stroke-dasharray:none;fill:#969696;fill-opacity:1"
           id="path952" />
        <path
           d="m 168.41348,29.72973 -0.15675,-0.01688 q 0.0482,-0.250803 0.0675,-0.499195 0.47026,-0.212217 0.84887,-0.212217 0.16399,0 0.29663,0.04823 0.13263,0.04582 0.2098,0.130225 0.0772,0.08199 0.11576,0.197748 0.041,0.115755 0.041,0.36897 l -0.0217,0.995977 q 0,0.202571 0.0458,0.265272 0.0458,0.0627 0.11817,0.0627 0.0868,0 0.2725,-0.130225 l 0.0748,0.09887 q -0.34003,0.303858 -0.37138,0.32315 -0.0675,0.03859 -0.16881,0.03859 -0.15675,0 -0.24357,-0.07717 -0.0844,-0.07958 -0.11334,-0.265272 -0.28939,0.224276 -0.42926,0.282153 -0.13987,0.06029 -0.30386,0.06029 -0.26768,0 -0.43167,-0.161575 -0.16398,-0.163986 -0.16398,-0.417201 0,-0.15434 0.0579,-0.27733 0.0579,-0.125401 0.1664,-0.219452 0.0844,-0.06994 0.28457,-0.16881 0.47025,-0.229099 0.81993,-0.36897 -0.0121,-0.340031 -0.11334,-0.450963 -0.10129,-0.110932 -0.3111,-0.110932 -0.19774,0 -0.34003,0.12299 -0.13987,0.120579 -0.2508,0.381028 z m 1.01527,0.267684 q -0.62942,0.282153 -0.76205,0.412378 -0.13023,0.127813 -0.13023,0.30868 0,0.180868 0.0989,0.289388 0.0989,0.108521 0.23151,0.108521 0.13745,0 0.29662,-0.08923 0.16157,-0.09164 0.21222,-0.204984 0.0531,-0.113343 0.0531,-0.412377 z"
           style="stroke-width:1;stroke-miterlimit:4;stroke-dasharray:none;fill:#969696;fill-opacity:1"
           id="path954" />
        <path
           d="m 170.44884,29.445165 v -0.137459 q 0.44855,-0.12299 0.76688,-0.306269 l 0.0579,0.05064 q -0.0338,0.192925 -0.041,0.414789 l 0.34968,-0.32315 q 0.0651,-0.05788 0.15916,-0.09405 0.13023,-0.04823 0.27492,-0.04823 0.26769,0 0.44614,0.144694 0.12781,0.103697 0.18087,0.320738 0.26768,-0.299034 0.39067,-0.366558 0.18328,-0.09887 0.40273,-0.09887 0.18087,0 0.32798,0.07717 0.14951,0.07476 0.21463,0.176044 0.0675,0.09887 0.0868,0.212218 0.0193,0.110932 0.0193,0.366558 l -0.005,0.660769 q 0,0.494372 0.0193,0.576365 0.012,0.05305 0.0506,0.07958 0.0386,0.02411 0.32074,0.08199 v 0.135048 q -0.30386,-0.02653 -0.51608,-0.02653 -0.18569,0 -0.64871,0.02653 v -0.135048 q 0.0458,-0.01447 0.0699,-0.0217 0.21704,-0.0627 0.24839,-0.09646 0.0338,-0.03617 0.0458,-0.202572 0.0241,-0.335207 0.0241,-0.762055 0,-0.409966 -0.0362,-0.535367 -0.0338,-0.127813 -0.13746,-0.20016 -0.1037,-0.07235 -0.25322,-0.07235 -0.20739,0 -0.37138,0.125401 -0.16157,0.12299 -0.21221,0.318327 -0.0289,0.103697 -0.0289,0.651123 0,0.624596 0.0386,0.682473 0.0386,0.05788 0.35209,0.113344 v 0.135048 q -0.3135,-0.02653 -0.57154,-0.02653 -0.26527,0 -0.58601,0.02653 v -0.135048 l 0.0627,-0.01688 q 0.22669,-0.06029 0.25563,-0.106109 0.053,-0.08199 0.0555,-0.450963 l 0.0145,-0.713824 q 0,-0.344854 -0.11093,-0.475078 -0.11093,-0.132637 -0.31592,-0.132637 -0.17122,0 -0.33038,0.101286 -0.15916,0.101286 -0.23392,0.272507 -0.0579,0.130225 -0.0579,0.443728 l 0.005,0.419613 q 0,0.470256 0.0338,0.525722 0.0338,0.05305 0.28698,0.113343 0.0289,0.0048 0.082,0.01929 v 0.135048 q -0.28938,-0.02653 -0.52089,-0.02653 -0.21463,0 -0.62942,0.02653 v -0.135048 q 0.28456,-0.05788 0.32074,-0.09887 0.0434,-0.05547 0.0434,-0.356912 v -0.06511 l 0.01,-0.706589 q 0,-0.460609 -0.0386,-0.52331 -0.0362,-0.06511 -0.12781,-0.06511 -0.0724,0 -0.24357,0.02894 z"
           style="stroke-width:1;stroke-miterlimit:4;stroke-dasharray:none;fill:#969696;fill-opacity:1"
           id="path956" />
      </g>
      <g
         aria-label="0"
         transform="rotate(40.734299)"
         style="font-style:normal;font-variant:normal;font-weight:normal;font-stretch:normal;font-size:4.93888855px;line-height:1.25;font-family:'Calisto MT';-inkscape-font-specification:'Calisto MT';letter-spacing:0px;word-spacing:0px;fill:#000000;fill-opacity:1;stroke:none;stroke-width:0.26458335"
         id="text885">
        <path
           d="m 28.537521,61.182332 q 0,-1.008035 0.36897,-1.485525 0.296623,-0.38344 0.76929,-0.38344 0.299034,0 0.530545,0.161575 0.233922,0.161575 0.368969,0.516076 0.13746,0.352089 0.13746,0.945334 0,0.581188 -0.12299,1.049032 -0.12299,0.467844 -0.419613,0.704177 -0.224276,0.176045 -0.56913,0.176045 -0.542602,0 -0.803051,-0.441317 -0.26045,-0.441317 -0.26045,-1.241957 z m 0.479902,-0.135048 q 0,0.499194 0.04341,0.798229 0.04582,0.299034 0.13746,0.487136 0.09405,0.188102 0.192925,0.262861 0.101286,0.07235 0.241157,0.07235 0.168809,0 0.296623,-0.10852 0.127813,-0.110933 0.219452,-0.417202 0.09405,-0.306269 0.09405,-0.904337 0,-0.557072 -0.08441,-1.056266 -0.03858,-0.219453 -0.110932,-0.371382 -0.07235,-0.151928 -0.173633,-0.224275 -0.101285,-0.07476 -0.258037,-0.07476 -0.149517,0 -0.253215,0.07476 -0.101286,0.07476 -0.176044,0.224275 -0.05547,0.108521 -0.09646,0.330385 -0.07235,0.381027 -0.07235,0.906749 z"
           style="font-size:4.93888903px;stroke-width:0.26458335"
           id="path977" />
      </g>
      <g
         aria-label="100"
         transform="rotate(40.734299)"
         style="font-style:normal;font-variant:normal;font-weight:normal;font-stretch:normal;font-size:4.93888855px;line-height:1.25;font-family:'Calisto MT';-inkscape-font-specification:'Calisto MT';letter-spacing:0px;word-spacing:0px;fill:#000000;fill-opacity:1;stroke:none;stroke-width:0.26458335"
         id="text895">
        <path
           d="m 23.871028,33.392105 v -0.130224 q 0.475079,-0.195337 0.67765,-0.289388 0.09405,-0.04341 0.236334,-0.130225 l 0.06994,0.05305 q -0.05547,0.716236 -0.05547,1.78456 0,0.921218 0.0048,1.04662 0.0048,0.245979 0.03859,0.311092 0.01688,0.03135 0.04823,0.04823 0.01206,0.0048 0.373793,0.101286 v 0.135048 q -0.496783,-0.02653 -0.725882,-0.02653 -0.265272,0 -0.61495,0.02653 v -0.135048 q 0.352089,-0.09164 0.385851,-0.110932 0.03376,-0.01929 0.05064,-0.05064 0.0217,-0.04341 0.03135,-0.311092 0.0024,-0.09164 0.0024,-0.964627 l -0.0024,-0.964626 -0.0024,-0.226688 q -0.0024,-0.137459 -0.03617,-0.180867 -0.03376,-0.04341 -0.10852,-0.04341 -0.08199,0 -0.373793,0.05788 z"
           style="stroke-width:0.26458335"
           id="path970" />
        <path
           d="m 26.005265,34.711232 q 0,-1.008035 0.368969,-1.485525 0.296623,-0.383439 0.76929,-0.383439 0.299034,0 0.530545,0.161575 0.233922,0.161575 0.368969,0.516075 0.13746,0.352089 0.13746,0.945334 0,0.581188 -0.12299,1.049032 -0.12299,0.467844 -0.419613,0.704177 -0.224276,0.176045 -0.56913,0.176045 -0.542602,0 -0.803051,-0.441317 -0.260449,-0.441317 -0.260449,-1.241957 z m 0.479901,-0.135048 q 0,0.499195 0.04341,0.798229 0.04582,0.299034 0.137459,0.487136 0.09405,0.188103 0.192925,0.262861 0.101286,0.07235 0.241157,0.07235 0.168809,0 0.296623,-0.10852 0.127813,-0.110932 0.219452,-0.417201 0.09405,-0.306269 0.09405,-0.904338 0,-0.557072 -0.08441,-1.056266 -0.03859,-0.219453 -0.110932,-0.371381 -0.07235,-0.151929 -0.173633,-0.224276 -0.101285,-0.07476 -0.258037,-0.07476 -0.149517,0 -0.253215,0.07476 -0.101285,0.07476 -0.176044,0.224276 -0.05547,0.10852 -0.09646,0.330384 -0.07235,0.381028 -0.07235,0.906749 z"
           style="stroke-width:0.26458335"
           id="path972" />
        <path
           d="m 28.52294,34.711232 q 0,-1.008035 0.36897,-1.485525 0.296623,-0.383439 0.76929,-0.383439 0.299034,0 0.530544,0.161575 0.233922,0.161575 0.36897,0.516075 0.137459,0.352089 0.137459,0.945334 0,0.581188 -0.12299,1.049032 -0.122989,0.467844 -0.419612,0.704177 -0.224276,0.176045 -0.56913,0.176045 -0.542602,0 -0.803052,-0.441317 -0.260449,-0.441317 -0.260449,-1.241957 z m 0.479902,-0.135048 q 0,0.499195 0.04341,0.798229 0.04582,0.299034 0.137459,0.487136 0.09405,0.188103 0.192926,0.262861 0.101286,0.07235 0.241156,0.07235 0.16881,0 0.296623,-0.10852 0.127813,-0.110932 0.219453,-0.417201 0.09405,-0.306269 0.09405,-0.904338 0,-0.557072 -0.08441,-1.056266 -0.03858,-0.219453 -0.110932,-0.371381 -0.07235,-0.151929 -0.173633,-0.224276 -0.101286,-0.07476 -0.258038,-0.07476 -0.149517,0 -0.253214,0.07476 -0.101286,0.07476 -0.176044,0.224276 -0.05547,0.10852 -0.09646,0.330384 -0.07235,0.381028 -0.07235,0.906749 z"
           style="stroke-width:0.26458335"
           id="path974" />
      </g>
      <path
         style="fill:#808080;stroke:#969696;stroke-width:1;stroke-linecap:round;stroke-linejoin:miter;stroke-miterlimit:4;stroke-dasharray:none;stroke-opacity:1"
         d="M -32.850468,87.231822 4.463615,84.448626"
         id="path2310"
         inkscape:connector-curvature="0" />
      <path
         style="fill:none;stroke:#000000;stroke-width:1;stroke-linecap:round;stroke-linejoin:miter;stroke-miterlimit:4;stroke-dasharray:none;stroke-opacity:1"
         d="M -32.850471,87.23182 16.356039,30.093199"
         id="path3381"
         inkscape:connector-curvature="0"
         sodipodi:nodetypes="cc" />
      <path
         style="fill:none;stroke:#000000;stroke-width:1;stroke-linecap:round;stroke-linejoin:miter;stroke-miterlimit:4;stroke-dasharray:none;stroke-opacity:1"
         d="M -32.850468,87.231822 101.78399,203.17603"
         id="path3398"
         inkscape:connector-curvature="0"
         sodipodi:nodetypes="cc" />
      <path
         style="fill:#808080;stroke:#000000;stroke-width:1;stroke-linecap:round;stroke-linejoin:miter;stroke-miterlimit:4;stroke-dasharray:none;stroke-opacity:1"
         d="M 4.4636137,84.448628 41.553595,116.38969"
         id="path2333"
         inkscape:connector-curvature="0"
         sodipodi:nodetypes="cc" />
      <g
         aria-label="Heat added"
         transform="rotate(40.7343)"
         style="font-style:normal;font-variant:normal;font-weight:normal;font-stretch:normal;font-size:4.93888855px;line-height:1.25;font-family:'Calisto MT';-inkscape-font-specification:'Calisto MT';letter-spacing:0px;word-spacing:0px;fill:#000000;fill-opacity:1;stroke:none;stroke-width:0.07000434"
         id="text911">
        <path
           d="m 114.41506,90.90122 -0.002,-0.171221 -0.002,-0.518487 -0.005,-0.450963 q -0.002,-0.101286 -0.0289,-0.125401 -0.0386,-0.041 -0.1881,-0.0627 l -0.32556,-0.07235 v -0.142282 q 0.55707,0.02653 0.80546,0.02653 0.27251,0 0.75482,-0.02653 V 89.5001 q -0.39791,0.08199 -0.44855,0.103697 -0.0506,0.0217 -0.0675,0.04823 -0.0265,0.04341 -0.0289,0.265272 -0.005,0.361735 -0.005,1.239545 l 0.01,1.143083 v 0.06752 q 0,0.113343 0.041,0.144694 0.0675,0.05064 0.49919,0.125401 v 0.142283 q -0.66077,-0.02653 -0.83922,-0.02653 -0.29663,0 -0.72106,0.02653 v -0.142283 l 0.44131,-0.09887 q 0.041,-0.01688 0.0627,-0.04823 0.0338,-0.05064 0.0362,-0.190514 l 0.0121,-1.133436 q -0.63425,-0.01206 -0.97186,-0.01206 -0.36415,0 -0.76929,0.01206 l 0.007,1.164786 q 0,0.125402 0.0241,0.159164 0.0241,0.03376 0.1254,0.0627 0.0241,0.0072 0.39549,0.0844 v 0.142283 q -0.58842,-0.02653 -0.83199,-0.02653 -0.30144,0 -0.7307,0.02653 v -0.142283 q 0.26045,-0.05788 0.38826,-0.08199 0.0965,-0.01688 0.12299,-0.04823 0.0362,-0.041 0.0362,-0.171222 0.007,-0.460609 0.007,-1.316715 l -0.01,-1.193725 v -0.07717 q 0,-0.0844 -0.0289,-0.115755 -0.0265,-0.03376 -0.11575,-0.05547 l -0.40032,-0.07717 v -0.142282 q 0.48714,0.02653 0.8127,0.02653 0.34244,0 0.74999,-0.02653 V 89.5001 l -0.40514,0.07958 q -0.0772,0.01929 -0.10611,0.05547 -0.0289,0.03376 -0.0289,0.12299 l -0.012,1.143082 q 0.37138,0.0072 0.78375,0.0072 0.53296,0 0.9574,-0.0072 z"
           style="fill:#000000;stroke-width:0.07000434"
           id="path2271" />
        <path
           d="m 117.55974,92.196232 0.0916,0.142282 -0.4799,0.3545 q -0.0989,0.06752 -0.20499,0.09887 -0.15434,0.04582 -0.31591,0.04582 -0.39309,0 -0.67283,-0.315915 -0.27733,-0.315915 -0.27733,-0.853694 0,-0.578776 0.3328,-0.928454 0.33521,-0.349677 0.81752,-0.349677 0.37379,0 0.57636,0.207395 0.20499,0.204983 0.20981,0.629419 -0.10129,0.05788 -0.18569,0.142282 -0.17122,-0.0024 -0.21463,-0.0024 -0.63907,0 -1.11173,0.01929 -0.002,0.540191 0.18328,0.817521 0.18569,0.279742 0.49678,0.279742 0.15675,0 0.32797,-0.06029 0.17122,-0.0627 0.42685,-0.226687 z m -0.35209,-1.056267 q -0.0145,-0.238745 -0.10611,-0.361735 -0.13505,-0.180867 -0.36414,-0.180867 -0.19775,0 -0.35209,0.137459 -0.15434,0.135048 -0.2291,0.448552 0.0892,0.0024 0.13505,0.0024 0.39549,0 0.91639,-0.04582 z"
           style="fill:#000000;stroke-width:0.07000434"
           id="path2273" />
        <path
           d="m 118.27839,91.142377 -0.15676,-0.01688 q 0.0482,-0.250803 0.0675,-0.499194 0.47025,-0.212218 0.84887,-0.212218 0.16399,0 0.29662,0.04823 0.13264,0.04582 0.20981,0.130225 0.0772,0.08199 0.11575,0.197748 0.041,0.115755 0.041,0.36897 l -0.0217,0.995977 q 0,0.202572 0.0458,0.265272 0.0458,0.0627 0.11816,0.0627 0.0868,0 0.27251,-0.130225 l 0.0748,0.09888 q -0.34003,0.303857 -0.37138,0.32315 -0.0675,0.03858 -0.16881,0.03858 -0.15675,0 -0.24357,-0.07717 -0.0844,-0.07958 -0.11334,-0.265273 -0.28939,0.224276 -0.42926,0.282154 -0.13987,0.06029 -0.30386,0.06029 -0.26768,0 -0.43167,-0.161575 -0.16399,-0.163987 -0.16399,-0.417201 0,-0.154341 0.0579,-0.27733 0.0579,-0.125402 0.1664,-0.219453 0.0844,-0.06994 0.28456,-0.16881 0.47026,-0.229099 0.81994,-0.368969 -0.0121,-0.340031 -0.11335,-0.450963 -0.10128,-0.110932 -0.31109,-0.110932 -0.19775,0 -0.34003,0.122989 -0.13987,0.120579 -0.2508,0.381028 z m 1.01527,0.267684 q -0.62942,0.282153 -0.76206,0.412378 -0.13022,0.127813 -0.13022,0.30868 0,0.180868 0.0989,0.289388 0.0989,0.108521 0.23151,0.108521 0.13746,0 0.29662,-0.08923 0.16158,-0.09164 0.21222,-0.204983 0.0531,-0.113344 0.0531,-0.412378 z"
           style="fill:#000000;stroke-width:0.07000434"
           id="path2275" />
        <path
           d="m 120.91905,89.883539 h 0.13987 l -0.0555,0.61495 0.668,-0.0072 0.0193,0.03858 q -0.0603,0.09887 -0.11093,0.212218 -0.28456,-0.01447 -0.57636,-0.01929 l -0.0217,1.239546 v 0.01447 q 0,0.286976 0.0627,0.41479 0.0651,0.125401 0.21946,0.125401 0.12781,0 0.33762,-0.108521 l 0.0699,0.13746 q -0.26286,0.163986 -0.40032,0.214629 -0.13746,0.05306 -0.23874,0.05306 -0.15917,0 -0.2701,-0.08199 -0.11093,-0.0844 -0.14711,-0.23151 -0.0217,-0.08199 -0.0217,-0.501606 0,-0.448551 0.0265,-1.275719 -0.16881,0.0048 -0.34968,0.01929 v -0.130225 q 0.20257,-0.09164 0.34968,-0.250803 0.14952,-0.159163 0.29903,-0.47749 z"
           style="fill:#000000;stroke-width:0.07000434"
           id="path2277" />
        <path
           d="m 123.45843,91.142377 -0.15675,-0.01688 q 0.0482,-0.250803 0.0675,-0.499194 0.47026,-0.212218 0.84888,-0.212218 0.16398,0 0.29662,0.04823 0.13263,0.04582 0.2098,0.130225 0.0772,0.08199 0.11576,0.197748 0.041,0.115755 0.041,0.36897 l -0.0217,0.995977 q 0,0.202572 0.0458,0.265272 0.0458,0.0627 0.11817,0.0627 0.0868,0 0.27251,-0.130225 l 0.0748,0.09888 q -0.34003,0.303857 -0.37138,0.32315 -0.0675,0.03858 -0.16881,0.03858 -0.15675,0 -0.24357,-0.07717 -0.0844,-0.07958 -0.11334,-0.265273 -0.28939,0.224276 -0.42926,0.282154 -0.13987,0.06029 -0.30386,0.06029 -0.26768,0 -0.43167,-0.161575 -0.16398,-0.163987 -0.16398,-0.417201 0,-0.154341 0.0579,-0.27733 0.0579,-0.125402 0.16639,-0.219453 0.0844,-0.06994 0.28457,-0.16881 0.47025,-0.229099 0.81993,-0.368969 -0.0121,-0.340031 -0.11334,-0.450963 -0.10129,-0.110932 -0.31109,-0.110932 -0.19775,0 -0.34004,0.122989 -0.13987,0.120579 -0.2508,0.381028 z m 1.01527,0.267684 q -0.62942,0.282153 -0.76205,0.412378 -0.13023,0.127813 -0.13023,0.30868 0,0.180868 0.0989,0.289388 0.0989,0.108521 0.23151,0.108521 0.13746,0 0.29662,-0.08923 0.16157,-0.09164 0.21222,-0.204983 0.053,-0.113344 0.053,-0.412378 z"
           style="fill:#000000;stroke-width:0.07000434"
           id="path2279" />
        <path
           d="m 126.82016,89.683379 v -0.132636 q 0.26044,-0.07476 0.37861,-0.120578 0.11817,-0.04823 0.40032,-0.195337 l 0.0603,0.04823 q -0.053,0.559484 -0.053,2.083594 0,0.844048 0.0217,0.940511 0.0217,0.09646 0.14469,0.09646 0.0724,0 0.25563,-0.03135 v 0.130225 q -0.50402,0.149517 -0.78135,0.311092 l -0.0603,-0.04582 q 0.0289,-0.180868 0.0362,-0.361735 -0.30145,0.272507 -0.44373,0.340031 -0.13987,0.06752 -0.33521,0.06752 -0.36897,0 -0.61254,-0.274919 -0.24115,-0.27733 -0.24115,-0.783759 0,-0.347266 0.11816,-0.598069 0.0892,-0.192925 0.25804,-0.364146 0.16881,-0.173633 0.37621,-0.274919 0.2098,-0.103697 0.41961,-0.103697 0.0965,0 0.21463,0.02412 0.11816,0.02412 0.25804,0.07235 0.005,-0.120579 0.005,-0.139871 0,-0.566719 -0.0217,-0.627008 -0.0289,-0.08923 -0.15916,-0.08923 -0.0434,0 -0.15434,0.01688 -0.0289,0.0048 -0.0844,0.01206 z m 0.41479,1.868964 q 0,-0.475078 -0.0217,-0.549837 -0.041,-0.144694 -0.19051,-0.243568 -0.14711,-0.101286 -0.36656,-0.101286 -0.27492,0 -0.46784,0.229099 -0.19293,0.226687 -0.19293,0.668004 0,0.453374 0.19534,0.69212 0.19533,0.236333 0.46784,0.236333 0.18087,0 0.33039,-0.103697 0.14951,-0.103698 0.19774,-0.250803 0.0482,-0.147106 0.0482,-0.576365 z"
           style="fill:#000000;stroke-width:0.07000434"
           id="path2281" />
        <path
           d="m 129.50182,89.683379 v -0.132636 q 0.26045,-0.07476 0.37861,-0.120578 0.11817,-0.04823 0.40032,-0.195337 l 0.0603,0.04823 q -0.053,0.559484 -0.053,2.083594 0,0.844048 0.0217,0.940511 0.0217,0.09646 0.1447,0.09646 0.0723,0 0.25562,-0.03135 v 0.130225 q -0.50402,0.149517 -0.78135,0.311092 l -0.0603,-0.04582 q 0.0289,-0.180868 0.0362,-0.361735 -0.30145,0.272507 -0.44373,0.340031 -0.13987,0.06752 -0.33521,0.06752 -0.36897,0 -0.61254,-0.274919 -0.24115,-0.27733 -0.24115,-0.783759 0,-0.347266 0.11817,-0.598069 0.0892,-0.192925 0.25803,-0.364146 0.16881,-0.173633 0.37621,-0.274919 0.2098,-0.103697 0.41961,-0.103697 0.0965,0 0.21463,0.02412 0.11817,0.02412 0.25804,0.07235 0.005,-0.120579 0.005,-0.139871 0,-0.566719 -0.0217,-0.627008 -0.0289,-0.08923 -0.15917,-0.08923 -0.0434,0 -0.15434,0.01688 -0.0289,0.0048 -0.0844,0.01206 z m 0.41479,1.868964 q 0,-0.475078 -0.0217,-0.549837 -0.041,-0.144694 -0.19051,-0.243568 -0.14711,-0.101286 -0.36656,-0.101286 -0.27492,0 -0.46784,0.229099 -0.19293,0.226687 -0.19293,0.668004 0,0.453374 0.19534,0.69212 0.19534,0.236333 0.46784,0.236333 0.18087,0 0.33039,-0.103697 0.14951,-0.103698 0.19775,-0.250803 0.0482,-0.147106 0.0482,-0.576365 z"
           style="fill:#000000;stroke-width:0.07000434"
           id="path2283" />
        <path
           d="m 132.79119,92.196232 0.0916,0.142282 -0.4799,0.3545 q -0.0989,0.06752 -0.20498,0.09887 -0.15434,0.04582 -0.31592,0.04582 -0.39308,0 -0.67282,-0.315915 -0.27733,-0.315915 -0.27733,-0.853694 0,-0.578776 0.33279,-0.928454 0.33521,-0.349677 0.81752,-0.349677 0.3738,0 0.57637,0.207395 0.20498,0.204983 0.2098,0.629419 -0.10128,0.05788 -0.18569,0.142282 -0.17122,-0.0024 -0.21463,-0.0024 -0.63906,0 -1.11173,0.01929 -0.002,0.540191 0.18328,0.817521 0.18569,0.279742 0.49678,0.279742 0.15676,0 0.32798,-0.06029 0.17122,-0.0627 0.42684,-0.226687 z m -0.35209,-1.056267 q -0.0145,-0.238745 -0.1061,-0.361735 -0.13505,-0.180867 -0.36415,-0.180867 -0.19775,0 -0.35209,0.137459 -0.15434,0.135048 -0.2291,0.448552 0.0892,0.0024 0.13505,0.0024 0.3955,0 0.91639,-0.04582 z"
           style="fill:#000000;stroke-width:0.07000434"
           id="path2285" />
        <path
           d="m 134.45035,89.683379 v -0.132636 q 0.26045,-0.07476 0.37862,-0.120578 0.11817,-0.04823 0.40032,-0.195337 l 0.0603,0.04823 q -0.0531,0.559484 -0.0531,2.083594 0,0.844048 0.0217,0.940511 0.0217,0.09646 0.14469,0.09646 0.0724,0 0.25563,-0.03135 v 0.130225 q -0.50402,0.149517 -0.78135,0.311092 l -0.0603,-0.04582 q 0.0289,-0.180868 0.0362,-0.361735 -0.30144,0.272507 -0.44372,0.340031 -0.13987,0.06752 -0.33521,0.06752 -0.36897,0 -0.61254,-0.274919 -0.24116,-0.27733 -0.24116,-0.783759 0,-0.347266 0.11817,-0.598069 0.0892,-0.192925 0.25804,-0.364146 0.16881,-0.173633 0.3762,-0.274919 0.20981,-0.103697 0.41962,-0.103697 0.0965,0 0.21463,0.02412 0.11816,0.02412 0.25803,0.07235 0.005,-0.120579 0.005,-0.139871 0,-0.566719 -0.0217,-0.627008 -0.0289,-0.08923 -0.15916,-0.08923 -0.0434,0 -0.15434,0.01688 -0.0289,0.0048 -0.0844,0.01206 z m 0.41479,1.868964 q 0,-0.475078 -0.0217,-0.549837 -0.041,-0.144694 -0.19052,-0.243568 -0.1471,-0.101286 -0.36655,-0.101286 -0.27492,0 -0.46785,0.229099 -0.19292,0.226687 -0.19292,0.668004 0,0.453374 0.19533,0.69212 0.19534,0.236333 0.46785,0.236333 0.18087,0 0.33038,-0.103697 0.14952,-0.103698 0.19775,-0.250803 0.0482,-0.147106 0.0482,-0.576365 z"
           style="fill:#000000;stroke-width:0.07000434"
           id="path2287" />
      </g>
    </g>
  </g>
</svg>
