<svg xmlns="http://www.w3.org/2000/svg" xmlns:xlink="http://www.w3.org/1999/xlink" xmlns:lucid="lucid" width="745" height="180"><g transform="translate(-34 -80)" lucid:page-tab-id="0_0"><path d="M637.5 100H720v60h-82.5z" fill="none"/><use xlink:href="#a" transform="matrix(1,0,0,1,637.5,100) translate(17.166666666666668 64)"/><path d="M599 180h160v60H599z" fill="none"/><use xlink:href="#b" transform="matrix(1,0,0,1,599,180) translate(62.5 33.6)"/><path d="M518.46 100h82.5v60h-82.5z" fill="none"/><use xlink:href="#c" transform="matrix(1,0,0,1,518.4583333333333,100) translate(8.166666666666671 64)"/><path d="M54 180h94v60H54z" fill="none"/><use xlink:href="#d" transform="matrix(1,0,0,1,54,180) translate(35.5 33.6)"/><path d="M178 180h76v60h-76z" fill="none"/><use xlink:href="#e" transform="matrix(1,0,0,1,178,180) translate(23 33.6)"/><path d="M60 100h82.5v60H60z" fill="none"/><use xlink:href="#f" transform="matrix(1,0,0,1,60,100) translate(14.833333333333336 64)"/><path d="M280 180h100v60H280z" fill="none"/><use xlink:href="#g" transform="matrix(1,0,0,1,280,180) translate(37.025 33.6)"/><path d="M174.5 100H257v60h-82.5z" fill="none"/><use xlink:href="#h" transform="matrix(1,0,0,1,174.5,100) translate(14.833333333333336 64)"/><path d="M289 100h82.73v60H289z" fill="none"/><use xlink:href="#i" transform="matrix(1,0,0,1,289,100) translate(12.722222222222225 64)"/><path d="M403.73 100h82.73v60h-82.73z" fill="none"/><use xlink:href="#j" transform="matrix(1,0,0,1,403.72916666666663,100) translate(12.722222222222225 64)"/><path d="M403.5 180H486v60h-82.5z" fill="none"/><use xlink:href="#k" transform="matrix(1,0,0,1,403.5,180) translate(26.025 33.6)"/><path d="M148.1 132H167v-5l9 10-9 10v-5h-18.9zM260.1 132H279v-5l9 10-9 10v-5h-18.9zM374.1 132H393v-5l9 10-9 10v-5h-18.9zM494.1 132H513v-5l9 10-9 10v-5h-18.9zM614.1 132H633v-5l9 10-9 10v-5h-18.9z" stroke="#000" stroke-width="2"/><defs><path d="M209 0H11v-25l151-195H24v-28h176v25L50-27h159V0" id="l"/><use transform="matrix(0.2222222222222222,0,0,0.2222222222222222,0,0)" xlink:href="#l" id="a"/><path d="M101-251c82-7 93 87 43 132L82-64C71-53 59-42 53-27h129V0H18c2-99 128-94 128-182 0-28-16-43-45-43s-46 15-49 41l-32-3c6-41 34-60 81-64" id="m"/><path d="M110-160c48 1 74 30 74 79 0 53-28 85-80 85-65 0-83-55-86-122-5-90 50-162 133-122 14 7 22 21 27 39l-31 6c-5-40-67-38-82-6-9 19-15 44-15 74 11-20 30-34 60-33zm-7 138c34 0 49-23 49-58s-16-56-50-56c-29 0-50 16-49 49 1 36 15 65 50 65" id="n"/><path d="M59-47c-2 24 18 29 38 22v24C64 9 27 4 27-40v-127H5v-23h24l9-43h21v43h35v23H59v120" id="o"/><path d="M106-169C34-169 62-67 57 0H25v-261h32l-1 103c12-21 28-36 61-36 89 0 53 116 60 194h-32v-121c2-32-8-49-39-48" id="p"/><g id="b"><use transform="matrix(0.05,0,0,0.05,0,0)" xlink:href="#m"/><use transform="matrix(0.05,0,0,0.05,10,0)" xlink:href="#n"/><use transform="matrix(0.05,0,0,0.05,20,0)" xlink:href="#o"/><use transform="matrix(0.05,0,0,0.05,25,0)" xlink:href="#p"/></g><path d="M33 0v-38h34V0H33" id="q"/><g id="c"><use transform="matrix(0.2222222222222222,0,0,0.2222222222222222,0,0)" xlink:href="#q"/><use transform="matrix(0.2222222222222222,0,0,0.2222222222222222,22.22222222222222,0)" xlink:href="#q"/><use transform="matrix(0.2222222222222222,0,0,0.2222222222222222,44.44444444444444,0)" xlink:href="#q"/></g><path d="M27 0v-27h64v-190l-56 39v-29l58-41h29v221h61V0H27" id="r"/><path d="M135-143c-3-34-86-38-87 0 15 53 115 12 119 90S17 21 10-45l28-5c4 36 97 45 98 0-10-56-113-15-118-90-4-57 82-63 122-42 12 7 21 19 24 35" id="s"/><g id="d"><use transform="matrix(0.05,0,0,0.05,0,0)" xlink:href="#r"/><use transform="matrix(0.05,0,0,0.05,10,0)" xlink:href="#s"/><use transform="matrix(0.05,0,0,0.05,19,0)" xlink:href="#o"/></g><path d="M117-194c89-4 53 116 60 194h-32v-121c0-31-8-49-39-48C34-167 62-67 57 0H25l-1-190h30c1 10-1 24 2 32 11-22 29-35 61-36" id="t"/><path d="M85-194c31 0 48 13 60 33l-1-100h32l1 261h-30c-2-10 0-23-3-31C134-8 116 4 85 4 32 4 16-35 15-94c0-66 23-100 70-100zm9 24c-40 0-46 34-46 75 0 40 6 74 45 74 42 0 51-32 51-76 0-42-9-74-50-73" id="u"/><g id="e"><use transform="matrix(0.05,0,0,0.05,0,0)" xlink:href="#m"/><use transform="matrix(0.05,0,0,0.05,10,0)" xlink:href="#t"/><use transform="matrix(0.05,0,0,0.05,20,0)" xlink:href="#u"/></g><path d="M205 0l-28-72H64L36 0H1l101-248h38L239 0h-34zm-38-99l-47-123c-12 45-31 82-46 123h93" id="v"/><use transform="matrix(0.2222222222222222,0,0,0.2222222222222222,0,0)" xlink:href="#v" id="f"/><path d="M126-127c33 6 58 20 58 59 0 88-139 92-164 29-3-8-5-16-6-25l32-3c6 27 21 44 54 44 32 0 52-15 52-46 0-38-36-46-79-43v-28c39 1 72-4 72-42 0-27-17-43-46-43-28 0-47 15-49 41l-32-3c6-42 35-63 81-64 48-1 79 21 79 65 0 36-21 52-52 59" id="w"/><path d="M114-163C36-179 61-72 57 0H25l-1-190h30c1 12-1 29 2 39 6-27 23-49 58-41v29" id="x"/><g id="g"><use transform="matrix(0.05,0,0,0.05,0,0)" xlink:href="#w"/><use transform="matrix(0.05,0,0,0.05,10,0)" xlink:href="#x"/><use transform="matrix(0.05,0,0,0.05,15.949999999999998,0)" xlink:href="#u"/></g><path d="M160-131c35 5 61 23 61 61C221 17 115-2 30 0v-248c76 3 177-17 177 60 0 33-19 50-47 57zm-97-11c50-1 110 9 110-42 0-47-63-36-110-37v79zm0 115c55-2 124 14 124-45 0-56-70-42-124-44v89" id="y"/><use transform="matrix(0.2222222222222222,0,0,0.2222222222222222,0,0)" xlink:href="#y" id="h"/><path d="M212-179c-10-28-35-45-73-45-59 0-87 40-87 99 0 60 29 101 89 101 43 0 62-24 78-52l27 14C228-24 195 4 139 4 59 4 22-46 18-125c-6-104 99-153 187-111 19 9 31 26 39 46" id="z"/><use transform="matrix(0.2222222222222222,0,0,0.2222222222222222,0,0)" xlink:href="#z" id="i"/><path d="M30-248c118-7 216 8 213 122C240-48 200 0 122 0H30v-248zM63-27c89 8 146-16 146-99s-60-101-146-95v194" id="A"/><use transform="matrix(0.2222222222222222,0,0,0.2222222222222222,0,0)" xlink:href="#A" id="j"/><path d="M155-56V0h-30v-56H8v-25l114-167h33v167h35v25h-35zm-30-156c-27 46-58 90-88 131h88v-131" id="B"/><g id="k"><use transform="matrix(0.05,0,0,0.05,0,0)" xlink:href="#B"/><use transform="matrix(0.05,0,0,0.05,10,0)" xlink:href="#x"/><use transform="matrix(0.05,0,0,0.05,15.949999999999998,0)" xlink:href="#o"/><use transform="matrix(0.05,0,0,0.05,20.95,0)" xlink:href="#p"/></g></defs></g></svg>