<svg xmlns="http://www.w3.org/2000/svg" xmlns:xlink="http://www.w3.org/1999/xlink" xmlns:lucid="lucid" width="939" height="214.33"><g transform="translate(-47 -260)" lucid:page-tab-id="V-gGIEYF_q5w"><path d="M80 360h855.1M917.87 370.18L935.1 360l-17.23-10.18" stroke="#000" stroke-width="5" fill="none"/><path d="M160 320v80M240 320v80M320 320v80M400 320v80M480 320v80" stroke="#000" stroke-width="2" fill="none"/><path d="M67 280h28v60H67z" fill="none"/><use xlink:href="#a" transform="matrix(1,0,0,1,67,280) translate(7.209876543209876 34.888888888888886)"/><path d="M79.2 320l.8 80" stroke="#000" stroke-width="5" fill="none"/><path d="M147 280h28v60h-28z" fill="none"/><use xlink:href="#b" transform="matrix(1,0,0,1,147,280) translate(7.209876543209876 34.888888888888886)"/><path d="M159.2 320v80" stroke="#000" stroke-width="2" fill="none"/><path d="M227 280h28v60h-28z" fill="none"/><use xlink:href="#c" transform="matrix(1,0,0,1,227,280) translate(7.209876543209876 34.888888888888886)"/><path d="M239.2 320v80" stroke="#000" stroke-width="2" fill="none"/><path d="M307 280h28v60h-28z" fill="none"/><use xlink:href="#d" transform="matrix(1,0,0,1,307,280) translate(7.209876543209876 34.888888888888886)"/><path d="M319.2 320v80" stroke="#000" stroke-width="2" fill="none"/><path d="M387 280h28v60h-28z" fill="none"/><use xlink:href="#e" transform="matrix(1,0,0,1,387,280) translate(7.209876543209876 34.888888888888886)"/><path d="M399.2 320v80" stroke="#000" stroke-width="2" fill="none"/><path d="M467 280h28v60h-28z" fill="none"/><use xlink:href="#f" transform="matrix(1,0,0,1,467,280) translate(7.209876543209876 34.888888888888886)"/><path d="M479.2 320v80" stroke="#000" stroke-width="2" fill="none"/><path d="M160 400l2.58.32 2.6 1 3 2.17 4.16 4.97 6.33 11.86 3.35 5.1 7.3 6.9 2.3 2.16 3.07 2.3 4.18 2.52 5.84 2.7 8.16 2.75 10.48 2.34 9.53 1.13 3.1.1 3.47-.2 6.5-1.1 9.6-2.65 9.88-3.88 7.93-4.13 5.8-3.86 3.5-2.83 5.27-5.47L300 409.64" stroke="#fcc438" stroke-width="5" fill="none"/><path d="M312.7 403.5l-10.83 10.38-4.02-8.35z" stroke="#fcc438" stroke-width="5" fill="#fcc438"/><path d="M320 400l2.58.32 2.6 1 3 2.17 4.16 4.97 6.33 11.86 3.35 5.1 7.3 6.9 2.3 2.16 3.07 2.3 4.18 2.52 5.84 2.7 8.16 2.75 10.48 2.34 9.53 1.13 3.1.1 3.47-.2 6.5-1.1 9.6-2.65 9.88-3.88 7.93-4.13 5.8-3.86 3.5-2.83 5.27-5.47L460 409.64" stroke="#fcc438" stroke-width="5" fill="none"/><path d="M472.7 403.5l-10.83 10.38-4.02-8.35z" stroke="#fcc438" stroke-width="5" fill="#fcc438"/><path d="M560 320v80M640 320v80" stroke="#000" stroke-width="2" fill="none"/><path d="M547 280h28v60h-28z" fill="none"/><use xlink:href="#g" transform="matrix(1,0,0,1,547,280) translate(7.209876543209876 34.888888888888886)"/><path d="M559.2 320v80" stroke="#000" stroke-width="2" fill="none"/><path d="M627 280h28v60h-28z" fill="none"/><use xlink:href="#h" transform="matrix(1,0,0,1,627,280) translate(7.209876543209876 34.888888888888886)"/><path d="M639.2 320v80M720 320v80M800 320v80" stroke="#000" stroke-width="2" fill="none"/><path d="M707 280h28v60h-28z" fill="none"/><use xlink:href="#i" transform="matrix(1,0,0,1,707,280) translate(7.209876543209876 34.888888888888886)"/><path d="M719.2 320v80" stroke="#000" stroke-width="2" fill="none"/><path d="M787 280h28v60h-28z" fill="none"/><use xlink:href="#j" transform="matrix(1,0,0,1,787,280) translate(7.209876543209876 34.888888888888886)"/><path d="M799.2 320v80" stroke="#000" stroke-width="2" fill="none"/><path d="M480 400l2.58.32 2.6 1 3 2.17 4.16 4.97 6.33 11.86 3.35 5.1 7.3 6.9 2.3 2.16 3.07 2.3 4.18 2.52 5.84 2.7 8.16 2.75 10.48 2.34 9.53 1.13 3.1.1 3.47-.2 6.5-1.1 9.6-2.65 9.88-3.88 7.93-4.13 5.8-3.86 3.5-2.83 5.27-5.47L620 409.64" stroke="#fcc438" stroke-width="5" fill="none"/><path d="M632.7 403.5l-10.83 10.38-4.02-8.35z" stroke="#fcc438" stroke-width="5" fill="#fcc438"/><path d="M640 400l2.58.32 2.6 1 3 2.17 4.16 4.97 6.33 11.86 3.35 5.1 7.3 6.9 2.3 2.16 3.07 2.3 4.18 2.52 5.84 2.7 8.16 2.75 10.48 2.34 9.53 1.13 3.1.1 3.47-.2 6.5-1.1 9.6-2.65 9.88-3.88 7.93-4.13 5.8-3.86 3.5-2.83 5.27-5.47L780 409.64" stroke="#fcc438" stroke-width="5" fill="none"/><path d="M792.7 403.5l-10.83 10.38-4.02-8.35z" stroke="#fcc438" stroke-width="5" fill="#fcc438"/><defs><path d="M101-251c68 0 85 55 85 127S166 4 100 4C33 4 14-52 14-124c0-73 17-127 87-127zm-1 229c47 0 54-49 54-102s-4-102-53-102c-51 0-55 48-55 102 0 53 5 102 54 102" id="k"/><use transform="matrix(0.06790123456790124,0,0,0.06790123456790124,0,0)" xlink:href="#k" id="a"/><path d="M27 0v-27h64v-190l-56 39v-29l58-41h29v221h61V0H27" id="l"/><use transform="matrix(0.06790123456790124,0,0,0.06790123456790124,0,0)" xlink:href="#l" id="b"/><path d="M101-251c82-7 93 87 43 132L82-64C71-53 59-42 53-27h129V0H18c2-99 128-94 128-182 0-28-16-43-45-43s-46 15-49 41l-32-3c6-41 34-60 81-64" id="m"/><use transform="matrix(0.06790123456790124,0,0,0.06790123456790124,0,0)" xlink:href="#m" id="c"/><path d="M126-127c33 6 58 20 58 59 0 88-139 92-164 29-3-8-5-16-6-25l32-3c6 27 21 44 54 44 32 0 52-15 52-46 0-38-36-46-79-43v-28c39 1 72-4 72-42 0-27-17-43-46-43-28 0-47 15-49 41l-32-3c6-42 35-63 81-64 48-1 79 21 79 65 0 36-21 52-52 59" id="n"/><use transform="matrix(0.06790123456790124,0,0,0.06790123456790124,0,0)" xlink:href="#n" id="d"/><path d="M155-56V0h-30v-56H8v-25l114-167h33v167h35v25h-35zm-30-156c-27 46-58 90-88 131h88v-131" id="o"/><use transform="matrix(0.06790123456790124,0,0,0.06790123456790124,0,0)" xlink:href="#o" id="e"/><path d="M54-142c48-35 137-8 131 61C196 18 31 33 14-55l32-4c7 23 22 37 52 37 35-1 51-22 54-58 4-55-73-65-99-34H22l8-134h141v27H59" id="p"/><use transform="matrix(0.06790123456790124,0,0,0.06790123456790124,0,0)" xlink:href="#p" id="f"/><path d="M110-160c48 1 74 30 74 79 0 53-28 85-80 85-65 0-83-55-86-122-5-90 50-162 133-122 14 7 22 21 27 39l-31 6c-5-40-67-38-82-6-9 19-15 44-15 74 11-20 30-34 60-33zm-7 138c34 0 49-23 49-58s-16-56-50-56c-29 0-50 16-49 49 1 36 15 65 50 65" id="q"/><use transform="matrix(0.06790123456790124,0,0,0.06790123456790124,0,0)" xlink:href="#q" id="g"/><path d="M64 0c3-98 48-159 88-221H18v-27h164v26C143-157 98-101 97 0H64" id="r"/><use transform="matrix(0.06790123456790124,0,0,0.06790123456790124,0,0)" xlink:href="#r" id="h"/><path d="M134-131c28 9 52 24 51 62-1 50-34 73-85 73S17-19 16-69c0-36 21-54 49-61-75-25-45-126 34-121 46 3 78 18 79 63 0 33-17 51-44 57zm-34-11c31 1 46-15 46-44 0-28-17-43-47-42-29 0-46 13-45 42 1 28 16 44 46 44zm1 122c35 0 51-18 51-52 0-30-18-46-53-46-33 0-51 17-51 47 0 34 19 51 53 51" id="s"/><use transform="matrix(0.06790123456790124,0,0,0.06790123456790124,0,0)" xlink:href="#s" id="i"/><path d="M99-251c64 0 84 50 84 122C183-37 130 33 47-8c-14-7-20-23-25-40l30-5c6 39 69 39 84 7 9-19 16-44 16-74-10 22-31 35-62 35-49 0-73-33-73-83 0-54 28-83 82-83zm-1 141c31-1 51-18 51-49 0-36-14-67-51-67-34 0-49 23-49 58 0 34 15 58 49 58" id="t"/><use transform="matrix(0.06790123456790124,0,0,0.06790123456790124,0,0)" xlink:href="#t" id="j"/></defs></g></svg>