<svg xmlns="http://www.w3.org/2000/svg" xmlns:xlink="http://www.w3.org/1999/xlink" xmlns:lucid="lucid" width="939" height="242.67"><g transform="translate(-47 -260)" lucid:page-tab-id="V-gGIEYF_q5w"><path d="M80 360h855.1M917.87 370.18L935.1 360l-17.23-10.18" stroke="#000" stroke-width="5" fill="none"/><path d="M160 320v80M240 320v80M320 320v80M400 320v80M480 320v80" stroke="#000" stroke-width="2" fill="none"/><path d="M67 280h28v60H67z" fill="none"/><use xlink:href="#a" transform="matrix(1,0,0,1,67,280) translate(7.209876543209876 34.888888888888886)"/><path d="M79.2 320l.8 80" stroke="#000" stroke-width="5" fill="none"/><path d="M147 280h28v60h-28z" fill="none"/><use xlink:href="#b" transform="matrix(1,0,0,1,147,280) translate(7.209876543209876 34.888888888888886)"/><path d="M159.2 320v80" stroke="#000" stroke-width="2" fill="none"/><path d="M227 280h28v60h-28z" fill="none"/><use xlink:href="#c" transform="matrix(1,0,0,1,227,280) translate(7.209876543209876 34.888888888888886)"/><path d="M239.2 320v80" stroke="#000" stroke-width="2" fill="none"/><path d="M307 280h28v60h-28z" fill="none"/><use xlink:href="#d" transform="matrix(1,0,0,1,307,280) translate(7.209876543209876 34.888888888888886)"/><path d="M319.2 320v80" stroke="#000" stroke-width="2" fill="none"/><path d="M387 280h28v60h-28z" fill="none"/><use xlink:href="#e" transform="matrix(1,0,0,1,387,280) translate(7.209876543209876 34.888888888888886)"/><path d="M399.2 320v80" stroke="#000" stroke-width="2" fill="none"/><path d="M467 280h28v60h-28z" fill="none"/><use xlink:href="#f" transform="matrix(1,0,0,1,467,280) translate(7.209876543209876 34.888888888888886)"/><path d="M479.2 320v80M560 320v80M640 320v80" stroke="#000" stroke-width="2" fill="none"/><path d="M547 280h28v60h-28z" fill="none"/><use xlink:href="#g" transform="matrix(1,0,0,1,547,280) translate(7.209876543209876 34.888888888888886)"/><path d="M559.2 320v80" stroke="#000" stroke-width="2" fill="none"/><path d="M627 280h28v60h-28z" fill="none"/><use xlink:href="#h" transform="matrix(1,0,0,1,627,280) translate(7.209876543209876 34.888888888888886)"/><path d="M639.2 320v80M720 320v80M800 320v80" stroke="#000" stroke-width="2" fill="none"/><path d="M707 280h28v60h-28z" fill="none"/><use xlink:href="#i" transform="matrix(1,0,0,1,707,280) translate(7.209876543209876 34.888888888888886)"/><path d="M719.2 320v80" stroke="#000" stroke-width="2" fill="none"/><path d="M787 280h28v60h-28z" fill="none"/><use xlink:href="#j" transform="matrix(1,0,0,1,787,280) translate(7.209876543209876 34.888888888888886)"/><path d="M799.2 320v80" stroke="#000" stroke-width="2" fill="none"/><path d="M160 400l1.6.15 1.33.4 1.18.62 1.18.96 1.3 1.57 1.68 3.2 7.07 18.77 3 3.8 4.45 3.74 6.38 3.4 6.92 2.06 3.25.34 6.7-.77 4.93-1.93 4.36-3.16 4-4.8 7.23-13.06" stroke="#fcc438" stroke-width="4" fill="none"/><path d="M235.72 404.86l-5.94 13.77-6.96-6.13z" stroke="#fcc438" stroke-width="4" fill="#fcc438"/><path d="M240 400l1.46.06 1.27.18 1.14.26 1.03.34.97.42.9.5.9.6.86.7.87.85.9 1.05.92 1.3 1 1.72 1.08 2.4 1.3 3.68 2.05 8.18 4.96 22.25 1.9 5.37 1.76 3.8.74 1.35 2.04 3.2 2.5 3.15 3.03 3.15 3.72 3.17 4.55 3.16 5.6 3.12 6.75 2.92 7.67 2.47 7.44 1.62 5.34.64 2.03.07 3.38-.18 6.36-.9 8.28-1.94 8.1-2.68 6.96-3.03 5.72-3.14 4.65-3.13 3.8-3.1 3.1-3.03 2.53-3 1.8-2.54 1.97-3.35 2.08-4.4 2.38-6.57 7.62-27.3" stroke="#fcc438" stroke-width="4" fill="none"/><path d="M395.23 404.37l-7.4 13.05-6.25-6.83z" stroke="#fcc438" stroke-width="4" fill="#fcc438"/><path d="M400 400l3 .08 3 .25 2.96.42 2.98.6 3.02.76 3.1.98 3.2 1.2 3.34 1.5 3.55 1.8 3.82 2.24 4.2 2.78 4.8 3.57 5.77 4.8 7.97 7.47 29.58 29.9 4.2 3.5L490 463l4.1 2.86 4.1 2.45 4.16 2.1 4.26 1.8 4.46 1.54 4.76 1.26 5.24 1 6 .74 7.6.4 27.32-.8 36.52.1 8.96-.8 7.1-1.06 5.92-1.25 5.03-1.38 4.38-1.48 3.87-1.57 3.45-1.65 3.1-1.7 2.8-1.8 2.6-1.86.28-.23 2.9-2.43 3.28-3.14 3.98-4.38 6.16-7.8 17.3-23.18 4.2-4.63 3.5-3.35 3.16-2.63 2.94-2.14 2.82-1.77 2.78-1.48.2-.1" stroke="#fcc438" stroke-width="4" fill="none"/><path d="M713.68 401.4l-12.92 7.63-2-9.05z" stroke="#fcc438" stroke-width="4" fill="#fcc438"/><defs><path d="M101-251c68 0 85 55 85 127S166 4 100 4C33 4 14-52 14-124c0-73 17-127 87-127zm-1 229c47 0 54-49 54-102s-4-102-53-102c-51 0-55 48-55 102 0 53 5 102 54 102" id="k"/><use transform="matrix(0.06790123456790124,0,0,0.06790123456790124,0,0)" xlink:href="#k" id="a"/><path d="M27 0v-27h64v-190l-56 39v-29l58-41h29v221h61V0H27" id="l"/><use transform="matrix(0.06790123456790124,0,0,0.06790123456790124,0,0)" xlink:href="#l" id="b"/><path d="M101-251c82-7 93 87 43 132L82-64C71-53 59-42 53-27h129V0H18c2-99 128-94 128-182 0-28-16-43-45-43s-46 15-49 41l-32-3c6-41 34-60 81-64" id="m"/><use transform="matrix(0.06790123456790124,0,0,0.06790123456790124,0,0)" xlink:href="#m" id="c"/><path d="M126-127c33 6 58 20 58 59 0 88-139 92-164 29-3-8-5-16-6-25l32-3c6 27 21 44 54 44 32 0 52-15 52-46 0-38-36-46-79-43v-28c39 1 72-4 72-42 0-27-17-43-46-43-28 0-47 15-49 41l-32-3c6-42 35-63 81-64 48-1 79 21 79 65 0 36-21 52-52 59" id="n"/><use transform="matrix(0.06790123456790124,0,0,0.06790123456790124,0,0)" xlink:href="#n" id="d"/><path d="M155-56V0h-30v-56H8v-25l114-167h33v167h35v25h-35zm-30-156c-27 46-58 90-88 131h88v-131" id="o"/><use transform="matrix(0.06790123456790124,0,0,0.06790123456790124,0,0)" xlink:href="#o" id="e"/><path d="M54-142c48-35 137-8 131 61C196 18 31 33 14-55l32-4c7 23 22 37 52 37 35-1 51-22 54-58 4-55-73-65-99-34H22l8-134h141v27H59" id="p"/><use transform="matrix(0.06790123456790124,0,0,0.06790123456790124,0,0)" xlink:href="#p" id="f"/><path d="M110-160c48 1 74 30 74 79 0 53-28 85-80 85-65 0-83-55-86-122-5-90 50-162 133-122 14 7 22 21 27 39l-31 6c-5-40-67-38-82-6-9 19-15 44-15 74 11-20 30-34 60-33zm-7 138c34 0 49-23 49-58s-16-56-50-56c-29 0-50 16-49 49 1 36 15 65 50 65" id="q"/><use transform="matrix(0.06790123456790124,0,0,0.06790123456790124,0,0)" xlink:href="#q" id="g"/><path d="M64 0c3-98 48-159 88-221H18v-27h164v26C143-157 98-101 97 0H64" id="r"/><use transform="matrix(0.06790123456790124,0,0,0.06790123456790124,0,0)" xlink:href="#r" id="h"/><path d="M134-131c28 9 52 24 51 62-1 50-34 73-85 73S17-19 16-69c0-36 21-54 49-61-75-25-45-126 34-121 46 3 78 18 79 63 0 33-17 51-44 57zm-34-11c31 1 46-15 46-44 0-28-17-43-47-42-29 0-46 13-45 42 1 28 16 44 46 44zm1 122c35 0 51-18 51-52 0-30-18-46-53-46-33 0-51 17-51 47 0 34 19 51 53 51" id="s"/><use transform="matrix(0.06790123456790124,0,0,0.06790123456790124,0,0)" xlink:href="#s" id="i"/><path d="M99-251c64 0 84 50 84 122C183-37 130 33 47-8c-14-7-20-23-25-40l30-5c6 39 69 39 84 7 9-19 16-44 16-74-10 22-31 35-62 35-49 0-73-33-73-83 0-54 28-83 82-83zm-1 141c31-1 51-18 51-49 0-36-14-67-51-67-34 0-49 23-49 58 0 34 15 58 49 58" id="t"/><use transform="matrix(0.06790123456790124,0,0,0.06790123456790124,0,0)" xlink:href="#t" id="j"/></defs></g></svg>