<svg xmlns="http://www.w3.org/2000/svg" xmlns:xlink="http://www.w3.org/1999/xlink" xmlns:lucid="lucid" width="579" height="166"><g transform="translate(-47 -260)" lucid:page-tab-id="V-gGIEYF_q5w"><path d="M80 360h495.1M557.87 370.18L575.1 360l-17.23-10.18" stroke="#000" stroke-width="5" fill="none"/><path d="M160 320v80M240 320v80M320 320v80M400 320v80M480 320v80" stroke="#000" stroke-width="2" fill="none"/><path d="M67 280h28v60H67z" fill="none"/><use xlink:href="#a" transform="matrix(1,0,0,1,67,280) translate(7.209876543209876 34.888888888888886)"/><path d="M79.2 320v80" stroke="#000" stroke-width="5" fill="none"/><path d="M147 280h28v60h-28z" fill="none"/><use xlink:href="#b" transform="matrix(1,0,0,1,147,280) translate(7.209876543209876 34.888888888888886)"/><path d="M159.2 320v80" stroke="#000" stroke-width="2" fill="none"/><path d="M227 280h28v60h-28z" fill="none"/><use xlink:href="#c" transform="matrix(1,0,0,1,227,280) translate(7.209876543209876 34.888888888888886)"/><path d="M239.2 320v80" stroke="#000" stroke-width="2" fill="none"/><path d="M307 280h28v60h-28z" fill="none"/><use xlink:href="#d" transform="matrix(1,0,0,1,307,280) translate(7.209876543209876 34.888888888888886)"/><path d="M319.2 320v80" stroke="#000" stroke-width="2" fill="none"/><path d="M387 280h28v60h-28z" fill="none"/><use xlink:href="#e" transform="matrix(1,0,0,1,387,280) translate(7.209876543209876 34.888888888888886)"/><path d="M399.2 320v80" stroke="#000" stroke-width="2" fill="none"/><path d="M467 280h28v60h-28z" fill="none"/><use xlink:href="#f" transform="matrix(1,0,0,1,467,280) translate(7.209876543209876 34.888888888888886)"/><path d="M479.2 320v80" stroke="#000" stroke-width="2" fill="none"/><defs><path d="M101-251c68 0 85 55 85 127S166 4 100 4C33 4 14-52 14-124c0-73 17-127 87-127zm-1 229c47 0 54-49 54-102s-4-102-53-102c-51 0-55 48-55 102 0 53 5 102 54 102" id="g"/><use transform="matrix(0.06790123456790124,0,0,0.06790123456790124,0,0)" xlink:href="#g" id="a"/><path d="M27 0v-27h64v-190l-56 39v-29l58-41h29v221h61V0H27" id="h"/><use transform="matrix(0.06790123456790124,0,0,0.06790123456790124,0,0)" xlink:href="#h" id="b"/><path d="M101-251c82-7 93 87 43 132L82-64C71-53 59-42 53-27h129V0H18c2-99 128-94 128-182 0-28-16-43-45-43s-46 15-49 41l-32-3c6-41 34-60 81-64" id="i"/><use transform="matrix(0.06790123456790124,0,0,0.06790123456790124,0,0)" xlink:href="#i" id="c"/><path d="M126-127c33 6 58 20 58 59 0 88-139 92-164 29-3-8-5-16-6-25l32-3c6 27 21 44 54 44 32 0 52-15 52-46 0-38-36-46-79-43v-28c39 1 72-4 72-42 0-27-17-43-46-43-28 0-47 15-49 41l-32-3c6-42 35-63 81-64 48-1 79 21 79 65 0 36-21 52-52 59" id="j"/><use transform="matrix(0.06790123456790124,0,0,0.06790123456790124,0,0)" xlink:href="#j" id="d"/><path d="M155-56V0h-30v-56H8v-25l114-167h33v167h35v25h-35zm-30-156c-27 46-58 90-88 131h88v-131" id="k"/><use transform="matrix(0.06790123456790124,0,0,0.06790123456790124,0,0)" xlink:href="#k" id="e"/><path d="M54-142c48-35 137-8 131 61C196 18 31 33 14-55l32-4c7 23 22 37 52 37 35-1 51-22 54-58 4-55-73-65-99-34H22l8-134h141v27H59" id="l"/><use transform="matrix(0.06790123456790124,0,0,0.06790123456790124,0,0)" xlink:href="#l" id="f"/></defs></g></svg>