<svg xmlns="http://www.w3.org/2000/svg" viewBox="0 0 121 20.85"><defs><style>.cls-1{isolation:isolate;}.cls-2{fill:#777ebc;}.cls-3{fill:#5d5d5d;}.cls-4{fill:#747bb7;}.cls-11,.cls-5{fill:#fff;}.cls-6{fill:none;}.cls-7{fill:#5f68af;}.cls-8{fill:#f16722;}.cls-9{fill:#f06923;}.cls-10,.cls-13{fill:#f05a2d;}.cls-10{opacity:0.5;mix-blend-mode:multiply;}.cls-11{opacity:0.15;}.cls-12{fill:#f37d37;}.cls-14{fill:#6f4a9d;}.cls-15{fill:#c7a8cf;}.cls-16{fill:#414042;}</style></defs><g class="cls-1"><g id="Layer_1" data-name="Layer 1"><rect class="cls-2" x="1.1" y="0.01" width="119.9" height="20.84" rx="5"/><path class="cls-3" d="M5,0h19.4a0,0,0,0,1,0,0V20.84a0,0,0,0,1,0,0H5a5,5,0,0,1-5-5V5A5,5,0,0,1,5,0Z"/><path class="cls-4" d="M11,6.36a4.53,4.53,0,0,1,.06-.5A4.53,4.53,0,0,0,11,6.36Z" transform="translate(-0.67 -0.55)"/><path class="cls-4" d="M11.5,6.21a1.13,1.13,0,0,0,.35-.09h0A1.13,1.13,0,0,1,11.5,6.21Z" transform="translate(-0.67 -0.55)"/><path class="cls-4" d="M17.31,12.69v0Z" transform="translate(-0.67 -0.55)"/><path class="cls-4" d="M16.72,13.75l.1-.14Z" transform="translate(-0.67 -0.55)"/><path class="cls-4" d="M16.94,13.42l0-.06Z" transform="translate(-0.67 -0.55)"/><path class="cls-4" d="M16.45,14.1l.19-.24Z" transform="translate(-0.67 -0.55)"/><path class="cls-4" d="M11.89,6.12h0c.14,0,.28-.06.42-.06h0C12.17,6.06,12,6.12,11.89,6.12Z" transform="translate(-0.67 -0.55)"/><path class="cls-4" d="M11,6.4l.44-.15h0Z" transform="translate(-0.67 -0.55)"/><polygon class="cls-4" points="16.45 12.54 16.45 12.54 16.45 12.54 16.45 12.54"/><polygon class="cls-4" points="16.48 12.49 16.48 12.49 16.48 12.49 16.48 12.49"/><path class="cls-4" d="M12.35,6l.43,0-.43,0Z" transform="translate(-0.67 -0.55)"/><path class="cls-4" d="M17.62,10.24h0s0,.07,0,.1h0S17.62,10.28,17.62,10.24Z" transform="translate(-0.67 -0.55)"/><path class="cls-4" d="M17.66,10.72h0v.12h0Z" transform="translate(-0.67 -0.55)"/><path class="cls-5" d="M17,13.36l.15-.27Z" transform="translate(-0.67 -0.55)"/><path class="cls-5" d="M17.66,10.84a2.26,2.26,0,0,1,0,.26.92.92,0,0,1,0,.16,2.11,2.11,0,0,1,0,.25c0,.09,0,.17-.05.26l0,.18-.06.21,0,.13c0,.12-.08.24-.13.36A4.85,4.85,0,0,0,17.66,10.84Z" transform="translate(-0.67 -0.55)"/><path class="cls-5" d="M16.64,13.86l.08-.11Z" transform="translate(-0.67 -0.55)"/><path class="cls-5" d="M17.15,13a3.73,3.73,0,0,0,.16-.35A3.73,3.73,0,0,1,17.15,13Z" transform="translate(-0.67 -0.55)"/><path class="cls-5" d="M16.82,13.61l.12-.19Z" transform="translate(-0.67 -0.55)"/><path class="cls-5" d="M17.13,13.09l0-.05Z" transform="translate(-0.67 -0.55)"/><path class="cls-5" d="M12.35,6h0Z" transform="translate(-0.67 -0.55)"/><path class="cls-5" d="M11.89,6.09h0Z" transform="translate(-0.67 -0.55)"/><path class="cls-5" d="M11.42,6.2h.08l-.1,0Z" transform="translate(-0.67 -0.55)"/><path class="cls-5" d="M17.54,9.83a.36.36,0,0,1,0,.11l.06.3a5.45,5.45,0,0,0-.18-.8C17.48,9.57,17.51,9.7,17.54,9.83Z" transform="translate(-0.67 -0.55)"/><polygon class="cls-5" points="10.34 5.31 10.34 5.31 10.34 5.31 10.34 5.31"/><path class="cls-5" d="M17.66,10.72l0-.38Z" transform="translate(-0.67 -0.55)"/><path class="cls-5" d="M17.63,8.68A5.34,5.34,0,0,0,11,5.86h0a1.84,1.84,0,0,0,0,.52c.14-.06.29-.07.44-.13h0s.07,0,.1,0a1.13,1.13,0,0,0,.35-.09h0c.14,0,.28-.06.42-.06h0s0,0,0,0h0a3.1,3.1,0,0,1,.44,0,4.89,4.89,0,0,1,4.45,2.86l.06.15-2.36,1.07a.23.23,0,0,0-.11.3.23.23,0,0,0,.21.13l.09,0,2.31-1.06c.09.26.1.53.17.8h0v.1h0c0,.13.05.29.06.41h0v.13h0a4.78,4.78,0,0,1-.34,1.79l0,0c0,.12-.15.23-.15.34h0c-.07,0,0,0,0,0h0c-.05.09-.09.18-.15.27l0,.07-.12.19-.1.14-.08.11-.19.24.49.11A5.32,5.32,0,0,0,17.63,8.68Z" transform="translate(-0.67 -0.55)"/><path class="cls-6" d="M17.45,12.29a4.89,4.89,0,0,1-.3.75A4.89,4.89,0,0,0,17.45,12.29Z" transform="translate(-0.67 -0.55)"/><path class="cls-6" d="M16.45,14.1a5.26,5.26,0,0,0,.68-1A5.26,5.26,0,0,1,16.45,14.1Z" transform="translate(-0.67 -0.55)"/><path class="cls-7" d="M16.94,14.21a5.36,5.36,0,0,1-2,1.52,5.25,5.25,0,0,1-2.2.48A5.31,5.31,0,0,1,11.42,16a5.28,5.28,0,0,1-3.48-2.94,5.31,5.31,0,0,1-.45-1.66A5.17,5.17,0,0,1,8,8.54,5.29,5.29,0,0,1,10.58,6L11,5.86A7.4,7.4,0,0,1,12,3,7.91,7.91,0,0,0,7.76,4.77a7.95,7.95,0,0,0-2.48,8.65A7.92,7.92,0,0,0,20,14.18,7.55,7.55,0,0,1,16.94,14.21Z" transform="translate(-0.67 -0.55)"/><path class="cls-5" d="M8,8.54a5.17,5.17,0,0,0-.52,2.89,5.36,5.36,0,0,0,1.41,3.1A5.38,5.38,0,0,0,11.42,16a5.31,5.31,0,0,0,1.37.18,5.25,5.25,0,0,0,2.2-.48,5.36,5.36,0,0,0,2-1.52l-.49-.11a4.9,4.9,0,0,1-4.92,1.5,5,5,0,0,1-2.31-1.38l0,0,2-.9a.23.23,0,0,0,.11-.3.23.23,0,0,0-.3-.11l-2.09,1a4.23,4.23,0,0,1-.55-.92,4.78,4.78,0,0,1-.41-1.45H8L12,9.59a.22.22,0,0,0,.11-.29.22.22,0,0,0-.29-.12L7.91,11a5,5,0,0,1,.5-2.25,4.85,4.85,0,0,1,2.36-2.28L11,6.36a4.53,4.53,0,0,1,.06-.5L10.58,6A5.29,5.29,0,0,0,8,8.54Z" transform="translate(-0.67 -0.55)"/><path class="cls-8" d="M11,6.36l-.19.09A4.85,4.85,0,0,0,8.41,8.73,5,5,0,0,0,7.91,11l3.46-1.57A7.59,7.59,0,0,1,11,6.36Z" transform="translate(-0.67 -0.55)"/><path class="cls-8" d="M14.11,14a.9.9,0,0,1-.9-.91.89.89,0,0,1,.23-.59,7.29,7.29,0,0,1-1-1.16,7,7,0,0,1-.86-1.5L8,11.44h0a4.78,4.78,0,0,0,.41,1.45,4.23,4.23,0,0,0,.55.92l2.09-1a.23.23,0,0,1,.3.11.23.23,0,0,1-.11.3l-2,.9,0,0a5,5,0,0,0,2.31,1.38,4.91,4.91,0,0,0,4.92-1.5,7.84,7.84,0,0,1-1.54-.61A.9.9,0,0,1,14.11,14Z" transform="translate(-0.67 -0.55)"/><path class="cls-9" d="M14.11,14a.9.9,0,0,0,.8-.49,7.25,7.25,0,0,1-1.47-1,.89.89,0,0,0-.23.59A.9.9,0,0,0,14.11,14Z" transform="translate(-0.67 -0.55)"/><path class="cls-10" d="M14.11,14a.9.9,0,0,0,.8-.49,7.25,7.25,0,0,1-1.47-1,.89.89,0,0,0-.23.59A.9.9,0,0,0,14.11,14Z" transform="translate(-0.67 -0.55)"/><path class="cls-11" d="M12.15,9.3a.22.22,0,0,0-.29-.12l-.49.23c.05.14.1.28.16.41L12,9.59A.22.22,0,0,0,12.15,9.3Z" transform="translate(-0.67 -0.55)"/><path class="cls-12" d="M17.44,9.44,15.11,10.5l-.09,0a.23.23,0,0,1-.21-.13.23.23,0,0,1,.11-.3L17.29,9a1,1,0,0,0-.07-.15A4.88,4.88,0,0,0,11,6.36a7.59,7.59,0,0,0,.41,3.05l.49-.23a.22.22,0,0,1,.29.12.22.22,0,0,1-.11.29l-.51.23a7,7,0,0,0,.86,1.5,7.29,7.29,0,0,0,1,1.16.87.87,0,0,1,.67-.31.9.9,0,0,1,.91.9.82.82,0,0,1-.11.42,7.84,7.84,0,0,0,1.54.61A4.9,4.9,0,0,0,17.44,9.44Z" transform="translate(-0.67 -0.55)"/><path class="cls-13" d="M15,13.07a.9.9,0,0,0-.91-.9.87.87,0,0,0-.67.31,7.25,7.25,0,0,0,1.47,1A.82.82,0,0,0,15,13.07Z" transform="translate(-0.67 -0.55)"/><path class="cls-2" d="M17.36,5a2,2,0,0,1,.08-.54A7.91,7.91,0,0,0,12.78,3c-.25,0-.5,0-.74,0a7.4,7.4,0,0,0-1,2.85,5.32,5.32,0,0,1,5.92,8.35,7.47,7.47,0,0,0,3,0,7.89,7.89,0,0,0-.26-7.1l-.28,0A2.07,2.07,0,0,1,17.36,5Z" transform="translate(-0.67 -0.55)"/><path class="cls-5" d="M21.86,5.65A2.25,2.25,0,0,0,21.94,5a2.51,2.51,0,0,0-2.51-2.52h0a2.52,2.52,0,0,0-2.17,1.3,8.27,8.27,0,0,0-4.45-1.29q-.39,0-.78,0A8.41,8.41,0,0,0,4.85,8.23a8.56,8.56,0,0,0-.43,2.66,8.35,8.35,0,0,0,.44,2.67,8.38,8.38,0,0,0,7.92,5.68,8.38,8.38,0,0,0,7.59-4.87,8.21,8.21,0,0,0,.77-3.48,8.44,8.44,0,0,0-.78-3.52A2.52,2.52,0,0,0,21.86,5.65Zm-1.17,5.24A7.92,7.92,0,0,1,7.77,17a8,8,0,0,1-2.49-3.59,7.89,7.89,0,0,1-.41-2.53A7.91,7.91,0,0,1,7.76,4.77,7.91,7.91,0,0,1,12,3c.24,0,.49,0,.74,0a7.89,7.89,0,0,1,4.27,1.25,2.36,2.36,0,0,0-.14.8,2.51,2.51,0,0,0,2.52,2.51,2,2,0,0,0,.49,0A7.89,7.89,0,0,1,20.69,10.89Z" transform="translate(-0.67 -0.55)"/><path class="cls-14" d="M19.22,3Z" transform="translate(-0.67 -0.55)"/><path class="cls-14" d="M19.26,5.09a1.8,1.8,0,0,1,0-2.11,2.06,2.06,0,0,0-1.78,1.51,2,2,0,0,0-.08.54A2.07,2.07,0,0,0,19.43,7.1l.28,0a2.08,2.08,0,0,0,1.66-1.36A1.83,1.83,0,0,1,19.26,5.09Z" transform="translate(-0.67 -0.55)"/><path class="cls-14" d="M21.37,5.72h0c0-.06,0-.12.05-.18Z" transform="translate(-0.67 -0.55)"/><path class="cls-15" d="M19.43,3l-.21,0a1.8,1.8,0,0,0,0,2.11,1.84,1.84,0,0,0,2.12.63c0-.06,0-.12.05-.18A2.4,2.4,0,0,0,21.5,5,2.07,2.07,0,0,0,19.43,3Z" transform="translate(-0.67 -0.55)"/><path class="cls-16" d="M28.45,11.67a5.41,5.41,0,0,1,.37-2.1,4.18,4.18,0,0,1,.76-1.12,3.31,3.31,0,0,1,1.06-.73A4.42,4.42,0,0,1,32.4,7.4a3.83,3.83,0,0,1,2.89,1.12,4.28,4.28,0,0,1,1.08,3.11,4.28,4.28,0,0,1-1.07,3.1,3.83,3.83,0,0,1-2.88,1.11,3.83,3.83,0,0,1-2.89-1.11A4.2,4.2,0,0,1,28.45,11.67Zm1.7-.06a3.06,3.06,0,0,0,.64,2.11,2.11,2.11,0,0,0,1.63.71A2.06,2.06,0,0,0,34,13.72a3.11,3.11,0,0,0,.63-2.13,3.07,3.07,0,0,0-.62-2.09,2.07,2.07,0,0,0-1.63-.69,2.1,2.1,0,0,0-1.65.7A3.08,3.08,0,0,0,30.15,11.61Z" transform="translate(-0.67 -0.55)"/><path class="cls-16" d="M37.6,9.79h1.46v.87a2.24,2.24,0,0,1,3.6-.2,3.27,3.27,0,0,1,.72,2.25A3.35,3.35,0,0,1,42.65,15a2.28,2.28,0,0,1-1.75.82,2,2,0,0,1-.89-.2,2.83,2.83,0,0,1-.84-.67v3H37.6Zm1.55,2.85a2.32,2.32,0,0,0,.4,1.48,1.18,1.18,0,0,0,1,.47,1.12,1.12,0,0,0,.91-.43,2.27,2.27,0,0,0,.36-1.44,2.13,2.13,0,0,0-.37-1.38,1.16,1.16,0,0,0-.92-.45,1.23,1.23,0,0,0-1,.44A2,2,0,0,0,39.15,12.64Z" transform="translate(-0.67 -0.55)"/><path class="cls-16" d="M48.05,13.82l1.56.26a2.59,2.59,0,0,1-1,1.31,2.82,2.82,0,0,1-1.63.45,2.64,2.64,0,0,1-2.28-1,3.4,3.4,0,0,1-.59-2,3.26,3.26,0,0,1,.77-2.3,2.52,2.52,0,0,1,2-.84,2.62,2.62,0,0,1,2.08.87,3.9,3.9,0,0,1,.73,2.68H45.77a1.54,1.54,0,0,0,.38,1.08,1.17,1.17,0,0,0,.9.39,1,1,0,0,0,.62-.2A1.35,1.35,0,0,0,48.05,13.82Zm.09-1.58a1.53,1.53,0,0,0-.36-1,1.08,1.08,0,0,0-.81-.35,1.13,1.13,0,0,0-.85.37,1.44,1.44,0,0,0-.32,1Z" transform="translate(-0.67 -0.55)"/><path class="cls-16" d="M56.35,15.7H54.78v-3a4.54,4.54,0,0,0-.1-1.24.82.82,0,0,0-.32-.43.92.92,0,0,0-.55-.16,1.33,1.33,0,0,0-.73.22,1.17,1.17,0,0,0-.44.59A5.13,5.13,0,0,0,52.52,13V15.7H51V9.79h1.46v.87a2.37,2.37,0,0,1,2-1,2.48,2.48,0,0,1,1,.19,1.56,1.56,0,0,1,.65.48,1.84,1.84,0,0,1,.3.65A4.78,4.78,0,0,1,56.35,12Z" transform="translate(-0.67 -0.55)"/><path class="cls-16" d="M61.11,9V7.54h1.56V9Zm0,6.72V9.79h1.56V15.7Z" transform="translate(-0.67 -0.55)"/><path class="cls-16" d="M69.66,15.7H68.09v-3a4.54,4.54,0,0,0-.1-1.24.82.82,0,0,0-.32-.43.92.92,0,0,0-.55-.16,1.33,1.33,0,0,0-.73.22,1.17,1.17,0,0,0-.44.59A5.13,5.13,0,0,0,65.83,13V15.7H64.27V9.79h1.45v.87a2.38,2.38,0,0,1,2-1,2.48,2.48,0,0,1,1,.19,1.56,1.56,0,0,1,.65.48,1.84,1.84,0,0,1,.3.65A4.78,4.78,0,0,1,69.66,12Z" transform="translate(-0.67 -0.55)"/><path class="cls-16" d="M79.65,12.7l1.6.51a3.53,3.53,0,0,1-1.22,2,3.44,3.44,0,0,1-2.17.65,3.5,3.5,0,0,1-2.67-1.11,4.24,4.24,0,0,1-1-3,4.49,4.49,0,0,1,1-3.17A3.62,3.62,0,0,1,78,7.4a3.38,3.38,0,0,1,2.43.88,3.18,3.18,0,0,1,.84,1.51l-1.63.39a1.68,1.68,0,0,0-1.72-1.37,1.85,1.85,0,0,0-1.48.65,3.23,3.23,0,0,0-.56,2.11,3.46,3.46,0,0,0,.55,2.21,1.85,1.85,0,0,0,1.45.65A1.67,1.67,0,0,0,79,14,2.37,2.37,0,0,0,79.65,12.7Z" transform="translate(-0.67 -0.55)"/><path class="cls-16" d="M83.83,11.59l-1.42-.25a2.17,2.17,0,0,1,.82-1.27A3,3,0,0,1,85,9.65a3.82,3.82,0,0,1,1.56.25,1.62,1.62,0,0,1,.72.63,3.19,3.19,0,0,1,.21,1.4l0,1.83a6.28,6.28,0,0,0,.08,1.15,3.14,3.14,0,0,0,.28.79H86.25c0-.1-.09-.25-.15-.46a1.2,1.2,0,0,0-.06-.18,2.74,2.74,0,0,1-.85.58,2.49,2.49,0,0,1-1,.2,2,2,0,0,1-1.44-.5,1.65,1.65,0,0,1-.53-1.25,1.71,1.71,0,0,1,.24-.9,1.59,1.59,0,0,1,.68-.6,4.94,4.94,0,0,1,1.24-.36,8.5,8.5,0,0,0,1.52-.39v-.15A.82.82,0,0,0,85.7,11a1.33,1.33,0,0,0-.84-.19,1.09,1.09,0,0,0-.65.17A1,1,0,0,0,83.83,11.59Zm2.09,1.27a8.41,8.41,0,0,1-1,.24,3,3,0,0,0-.85.27.65.65,0,0,0-.31.56.73.73,0,0,0,.25.56.84.84,0,0,0,.62.24,1.4,1.4,0,0,0,.81-.27,1,1,0,0,0,.37-.52,3.23,3.23,0,0,0,.06-.77Z" transform="translate(-0.67 -0.55)"/><path class="cls-16" d="M89,15.7V7.54h1.57V15.7Z" transform="translate(-0.67 -0.55)"/><path class="cls-16" d="M92.17,15.7V7.54h1.57V15.7Z" transform="translate(-0.67 -0.55)"/><path class="cls-16" d="M94.6,9.79h1.67L97.68,14l1.39-4.2h1.62L98.6,15.48l-.38,1a3.39,3.39,0,0,1-.39.79,1.85,1.85,0,0,1-.43.45,1.88,1.88,0,0,1-.59.26,3.32,3.32,0,0,1-.8.09,4.41,4.41,0,0,1-.89-.09L95,16.78a3.46,3.46,0,0,0,.66.08,1,1,0,0,0,.81-.32,2.17,2.17,0,0,0,.4-.82Z" transform="translate(-0.67 -0.55)"/><path class="cls-16" d="M101.14,14l1.57-.24a1.15,1.15,0,0,0,.41.69,1.34,1.34,0,0,0,.85.24,1.56,1.56,0,0,0,.92-.23.5.5,0,0,0,.2-.41.4.4,0,0,0-.11-.3,1.41,1.41,0,0,0-.52-.21,8.25,8.25,0,0,1-2.4-.76,1.51,1.51,0,0,1-.7-1.33,1.65,1.65,0,0,1,.6-1.29,2.84,2.84,0,0,1,1.89-.53,3.2,3.2,0,0,1,1.8.4,2,2,0,0,1,.81,1.17l-1.47.27a1,1,0,0,0-.36-.53,1.36,1.36,0,0,0-.76-.18A1.74,1.74,0,0,0,103,11a.37.37,0,0,0-.18.32.33.33,0,0,0,.16.28,5.49,5.49,0,0,0,1.46.44,4.27,4.27,0,0,1,1.74.7,1.44,1.44,0,0,1,.49,1.16,1.78,1.78,0,0,1-.67,1.4,3,3,0,0,1-2,.59,3.35,3.35,0,0,1-1.91-.49A2.24,2.24,0,0,1,101.14,14Z" transform="translate(-0.67 -0.55)"/><path class="cls-16" d="M110.75,9.79V11h-1.07v2.39a6,6,0,0,0,0,.84.35.35,0,0,0,.14.2.45.45,0,0,0,.26.08,2,2,0,0,0,.63-.15l.14,1.21a3.08,3.08,0,0,1-1.24.24,2,2,0,0,1-.76-.14,1.11,1.11,0,0,1-.5-.37,1.41,1.41,0,0,1-.22-.61,6.76,6.76,0,0,1,0-1.11V11h-.72V9.79h.72V8.61l1.57-.91V9.79Z" transform="translate(-0.67 -0.55)"/><path class="cls-16" d="M111.47,12.66a3.18,3.18,0,0,1,.39-1.51A2.54,2.54,0,0,1,113,10a3.18,3.18,0,0,1,1.57-.39,3,3,0,0,1,2.2.87,3,3,0,0,1,.86,2.21,3,3,0,0,1-.87,2.22,2.91,2.91,0,0,1-2.18.89,3.5,3.5,0,0,1-1.55-.37,2.49,2.49,0,0,1-1.12-1.08A3.54,3.54,0,0,1,111.47,12.66Zm1.61.08a2,2,0,0,0,.42,1.35,1.35,1.35,0,0,0,2,0,2,2,0,0,0,.42-1.36,1.91,1.91,0,0,0-.42-1.33,1.35,1.35,0,0,0-2,0A1.94,1.94,0,0,0,113.08,12.74Z" transform="translate(-0.67 -0.55)"/><path class="cls-5" d="M28.45,10.93a5.41,5.41,0,0,1,.37-2.1,4,4,0,0,1,.76-1.12A3.31,3.31,0,0,1,30.64,7a4.42,4.42,0,0,1,1.76-.33,3.86,3.86,0,0,1,2.89,1.12,4.32,4.32,0,0,1,1.08,3.12A4.24,4.24,0,0,1,35.3,14a3.8,3.8,0,0,1-2.88,1.12A3.83,3.83,0,0,1,29.53,14,4.2,4.2,0,0,1,28.45,10.93Zm1.7-.06A3.06,3.06,0,0,0,30.79,13,2.21,2.21,0,0,0,34,13a3.11,3.11,0,0,0,.63-2.13,3.1,3.1,0,0,0-.62-2.1,2.07,2.07,0,0,0-1.63-.69,2.14,2.14,0,0,0-1.65.7A3.13,3.13,0,0,0,30.15,10.87Z" transform="translate(-0.67 -0.55)"/><path class="cls-5" d="M37.6,9h1.46v.87a2.32,2.32,0,0,1,.77-.72,2.12,2.12,0,0,1,1.08-.28,2.25,2.25,0,0,1,1.75.81A3.27,3.27,0,0,1,43.38,12a3.31,3.31,0,0,1-.73,2.3,2.25,2.25,0,0,1-1.75.83,2,2,0,0,1-.89-.2,2.83,2.83,0,0,1-.84-.67v3H37.6Zm1.55,2.86a2.32,2.32,0,0,0,.4,1.48,1.21,1.21,0,0,0,1,.47,1.12,1.12,0,0,0,.91-.43A2.29,2.29,0,0,0,41.78,12a2.13,2.13,0,0,0-.37-1.38,1.16,1.16,0,0,0-.92-.45,1.23,1.23,0,0,0-1,.44A2,2,0,0,0,39.15,11.9Z" transform="translate(-0.67 -0.55)"/><path class="cls-5" d="M48.05,13.08l1.56.26a2.59,2.59,0,0,1-1,1.31A2.82,2.82,0,0,1,47,15.1a2.64,2.64,0,0,1-2.28-1,3.4,3.4,0,0,1-.59-2,3.3,3.3,0,0,1,.77-2.31,2.55,2.55,0,0,1,2-.83A2.62,2.62,0,0,1,49,9.78a3.86,3.86,0,0,1,.73,2.67H45.77a1.55,1.55,0,0,0,.38,1.09,1.17,1.17,0,0,0,.9.38.94.94,0,0,0,.62-.2A1.27,1.27,0,0,0,48.05,13.08Zm.09-1.58a1.53,1.53,0,0,0-.36-1,1.08,1.08,0,0,0-.81-.35,1.1,1.1,0,0,0-.85.37,1.44,1.44,0,0,0-.32,1Z" transform="translate(-0.67 -0.55)"/><path class="cls-5" d="M56.35,15H54.78v-3a4.54,4.54,0,0,0-.1-1.24.85.85,0,0,0-.32-.44,1,1,0,0,0-.55-.15,1.26,1.26,0,0,0-.73.22,1.17,1.17,0,0,0-.44.59,5.13,5.13,0,0,0-.12,1.36V15H51V9h1.46v.87a2.36,2.36,0,0,1,2-1,2.3,2.3,0,0,1,1,.19,1.63,1.63,0,0,1,.65.47,2,2,0,0,1,.3.66,4.74,4.74,0,0,1,.09,1Z" transform="translate(-0.67 -0.55)"/><path class="cls-5" d="M61.11,8.24V6.79h1.56V8.24Zm0,6.72V9h1.56V15Z" transform="translate(-0.67 -0.55)"/><path class="cls-5" d="M69.66,15H68.09v-3A4.54,4.54,0,0,0,68,10.7a.85.85,0,0,0-.32-.44,1,1,0,0,0-.55-.15,1.26,1.26,0,0,0-.73.22,1.17,1.17,0,0,0-.44.59,5.13,5.13,0,0,0-.12,1.36V15H64.27V9h1.45v.87a2.37,2.37,0,0,1,2-1,2.3,2.3,0,0,1,1,.19,1.63,1.63,0,0,1,.65.47,2,2,0,0,1,.3.66,4.74,4.74,0,0,1,.09,1Z" transform="translate(-0.67 -0.55)"/><path class="cls-5" d="M79.65,12l1.6.51a3.53,3.53,0,0,1-1.22,2A3.84,3.84,0,0,1,75.19,14a4.26,4.26,0,0,1-1-3,4.48,4.48,0,0,1,1-3.17A3.62,3.62,0,0,1,78,6.65a3.38,3.38,0,0,1,2.43.89A3.2,3.2,0,0,1,81.23,9l-1.63.39a1.7,1.7,0,0,0-1.72-1.37,1.86,1.86,0,0,0-1.48.66,3.21,3.21,0,0,0-.56,2.11,3.41,3.41,0,0,0,.55,2.2,1.83,1.83,0,0,0,1.45.66A1.63,1.63,0,0,0,79,13.27,2.34,2.34,0,0,0,79.65,12Z" transform="translate(-0.67 -0.55)"/><path class="cls-5" d="M83.83,10.85l-1.42-.26a2.23,2.23,0,0,1,.82-1.27A3.06,3.06,0,0,1,85,8.91a3.66,3.66,0,0,1,1.56.25,1.51,1.51,0,0,1,.72.63,3.19,3.19,0,0,1,.21,1.4l0,1.83a6.28,6.28,0,0,0,.08,1.15,3.28,3.28,0,0,0,.28.79H86.25c0-.1-.09-.26-.15-.46a.88.88,0,0,0-.06-.18,2.74,2.74,0,0,1-.85.58,2.49,2.49,0,0,1-1,.2,2,2,0,0,1-1.44-.5,1.65,1.65,0,0,1-.53-1.25,1.68,1.68,0,0,1,.24-.9,1.59,1.59,0,0,1,.68-.6,5.33,5.33,0,0,1,1.24-.37,7.89,7.89,0,0,0,1.52-.38v-.16a.8.8,0,0,0-.22-.64,1.33,1.33,0,0,0-.84-.19,1.1,1.1,0,0,0-.65.16A1.07,1.07,0,0,0,83.83,10.85Zm2.09,1.27a8.41,8.41,0,0,1-1,.24,2.67,2.67,0,0,0-.85.27.65.65,0,0,0-.31.55.75.75,0,0,0,.25.57.84.84,0,0,0,.62.24,1.35,1.35,0,0,0,.81-.28,1,1,0,0,0,.37-.51,3.23,3.23,0,0,0,.06-.77Z" transform="translate(-0.67 -0.55)"/><path class="cls-5" d="M89,15V6.79h1.57V15Z" transform="translate(-0.67 -0.55)"/><path class="cls-5" d="M92.17,15V6.79h1.57V15Z" transform="translate(-0.67 -0.55)"/><path class="cls-5" d="M94.6,9h1.67l1.41,4.21L99.07,9h1.62l-2.09,5.7-.38,1a3.61,3.61,0,0,1-.39.79,1.64,1.64,0,0,1-.43.44,1.89,1.89,0,0,1-.59.27,3.32,3.32,0,0,1-.8.09,4.41,4.41,0,0,1-.89-.09L95,16a3.37,3.37,0,0,0,.66.07,1,1,0,0,0,.81-.32,2.05,2.05,0,0,0,.4-.81Z" transform="translate(-0.67 -0.55)"/><path class="cls-5" d="M101.14,13.27l1.57-.24a1.15,1.15,0,0,0,.41.7A1.34,1.34,0,0,0,104,14a1.56,1.56,0,0,0,.92-.22.5.5,0,0,0,.2-.42A.38.38,0,0,0,105,13a1.25,1.25,0,0,0-.52-.21,8.58,8.58,0,0,1-2.4-.76,1.51,1.51,0,0,1-.7-1.33,1.65,1.65,0,0,1,.6-1.3,2.9,2.9,0,0,1,1.89-.52,3.2,3.2,0,0,1,1.8.4,2,2,0,0,1,.81,1.17l-1.47.27a1,1,0,0,0-.36-.53,1.36,1.36,0,0,0-.76-.18,1.64,1.64,0,0,0-.88.17.37.37,0,0,0-.18.32.33.33,0,0,0,.16.28,5.94,5.94,0,0,0,1.46.44,4.27,4.27,0,0,1,1.74.7,1.43,1.43,0,0,1,.49,1.16,1.79,1.79,0,0,1-.67,1.4,3,3,0,0,1-2,.59,3.28,3.28,0,0,1-1.91-.5A2.21,2.21,0,0,1,101.14,13.27Z" transform="translate(-0.67 -0.55)"/><path class="cls-5" d="M110.75,9v1.25h-1.07v2.39a6,6,0,0,0,0,.84.35.35,0,0,0,.14.2.45.45,0,0,0,.26.08,2,2,0,0,0,.63-.15l.14,1.21a3.08,3.08,0,0,1-1.24.24,1.84,1.84,0,0,1-.76-.15,1,1,0,0,1-.5-.36,1.47,1.47,0,0,1-.22-.61,6.83,6.83,0,0,1,0-1.11V10.29h-.72V9h.72V7.87L109.68,7V9Z" transform="translate(-0.67 -0.55)"/><path class="cls-5" d="M111.47,11.92a3.18,3.18,0,0,1,.39-1.51A2.54,2.54,0,0,1,113,9.3a3.18,3.18,0,0,1,1.57-.39,3,3,0,0,1,2.2.87,3,3,0,0,1,.86,2.21,3,3,0,0,1-.87,2.22,2.91,2.91,0,0,1-2.18.89,3.5,3.5,0,0,1-1.55-.37,2.54,2.54,0,0,1-1.12-1.08A3.54,3.54,0,0,1,111.47,11.92Zm1.61.08a2,2,0,0,0,.42,1.35,1.35,1.35,0,0,0,2,0A2,2,0,0,0,116,12a2,2,0,0,0-.42-1.34,1.37,1.37,0,0,0-2,0A2,2,0,0,0,113.08,12Z" transform="translate(-0.67 -0.55)"/></g></g></svg>