<?xml version="1.0" encoding="UTF-8" standalone="no"?>
<!-- Created with Inkscape (http://www.inkscape.org/) -->

<svg
   xmlns:dc="http://purl.org/dc/elements/1.1/"
   xmlns:cc="http://creativecommons.org/ns#"
   xmlns:rdf="http://www.w3.org/1999/02/22-rdf-syntax-ns#"
   xmlns:svg="http://www.w3.org/2000/svg"
   xmlns="http://www.w3.org/2000/svg"
   xmlns:sodipodi="http://sodipodi.sourceforge.net/DTD/sodipodi-0.dtd"
   xmlns:inkscape="http://www.inkscape.org/namespaces/inkscape"
   width="90.058334mm"
   height="34.495831mm"
   viewBox="0 0 90.058336 34.495831"
   version="1.1"
   id="svg8"
   inkscape:version="0.92.2 (5c3e80d, 2017-08-06)"
   sodipodi:docname="Rough Surfaces.svg">
  <defs
     id="defs2" />
  <sodipodi:namedview
     id="base"
     pagecolor="#ffffff"
     bordercolor="#666666"
     borderopacity="1.0"
     inkscape:pageopacity="0.0"
     inkscape:pageshadow="2"
     inkscape:zoom="1.979899"
     inkscape:cx="79.911851"
     inkscape:cy="-24.553315"
     inkscape:document-units="mm"
     inkscape:current-layer="g864"
     showgrid="true"
     showguides="false"
     inkscape:window-width="1920"
     inkscape:window-height="1017"
     inkscape:window-x="-8"
     inkscape:window-y="-8"
     inkscape:window-maximized="1"
     inkscape:snap-global="true"
     inkscape:snap-others="false"
     inkscape:object-nodes="true"
     inkscape:snap-nodes="true">
    <inkscape:grid
       type="xygrid"
       id="grid3699"
       originx="-46.252085"
       originy="-194.41875" />
  </sodipodi:namedview>
  <metadata
     id="metadata5">
    <rdf:RDF>
      <cc:Work
         rdf:about="">
        <dc:format>image/svg+xml</dc:format>
        <dc:type
           rdf:resource="http://purl.org/dc/dcmitype/StillImage" />
        <dc:title />
      </cc:Work>
    </rdf:RDF>
  </metadata>
  <g
     inkscape:label="Layer 1"
     inkscape:groupmode="layer"
     id="layer1"
     transform="translate(-46.252078,-68.085437)">
    <g
       id="g864">
      <g
         id="g821"
         transform="translate(-2.943589,-52.139635)">
        <path
           style="fill:#ffeeaa;fill-opacity:1;stroke:#000000;stroke-width:0.5;stroke-miterlimit:4;stroke-dasharray:none;stroke-opacity:1;paint-order:fill markers stroke"
           d="m 122.54258,135.52942 c -0.35728,-1.08411 -0.70417,-2.11731 -0.77085,-2.296 -0.11843,-0.31732 -0.14373,-0.30255 -1.08735,0.63476 l -0.9661,0.95965 h -1.03475 c -0.98751,0 -1.10165,-0.0336 -2.50028,-0.73499 -0.80604,-0.40424 -1.5417,-0.73348 -1.6348,-0.73163 -0.0931,0.002 -0.6736,0.76552 -1.28999,1.69705 l -1.12073,1.6937 -0.4513,-0.8952 -0.45131,-0.8952 -1.73863,-0.87123 -1.73863,-0.87123 -0.58019,1.19206 -0.58018,1.19206 -0.48539,-0.48538 -0.48538,-0.48539 -1.53858,0.76587 -1.53858,0.76586 h -1.36097 c -1.266863,0 -1.384904,0.0229 -1.70705,0.33156 l -0.346078,0.33157 -0.572521,-1.73473 c -0.314886,-0.9541 -0.60085,-1.73473 -0.635476,-1.73473 -0.0674,0 -4.791718,1.17315 -5.134528,1.27502 -0.150355,0.0447 -0.433028,-0.40022 -1.064974,-1.67618 -0.47316,-0.95535 -0.893612,-1.73699 -0.934339,-1.73699 -0.04073,0 -0.394671,0.9682 -0.786543,2.15156 l -0.712497,2.15157 -0.522417,-0.51012 -0.522414,-0.51013 -1.334432,1.32943 -1.334431,1.32942 -1.304562,-1.29967 -1.30456,-1.29966 -1.29857,1.29857 -1.298567,1.29856 -0.50388,-0.48433 c -0.277133,-0.26639 -1.054368,-0.75859 -1.72719,-1.09379 l -1.223309,-0.60946 -0.965708,-2.89725 c -0.584306,-1.75301 -1.004149,-2.82378 -1.063045,-2.7112 -0.05354,0.10233 -0.415386,1.47898 -0.804111,3.05921 -0.388724,1.58023 -0.728576,2.89883 -0.755227,2.93022 -0.02665,0.0314 -0.220721,-0.10796 -0.431263,-0.30967 l -0.382804,-0.36676 -2.688344,1.34546 -2.688342,1.34545 -2.737336,-1.36673 -2.737335,-1.36674 -0.508394,0.49643 -0.508394,0.49644 -0.629856,-1.26797 c -0.346425,-0.69737 -0.676109,-1.26796 -0.732634,-1.26796 -0.05653,0 -1.002552,0.90128 -2.102279,2.00284 l -1.999504,2.00285 -0.558548,-0.54818 -0.558552,-0.54817 -1.649968,0.54985 c -0.907481,0.30242 -1.694979,0.54986 -1.749996,0.54986 -0.05502,0 -0.100029,-3.48787 -0.100029,-7.75082 v -7.75082 h 43.631749 43.631748 v 6.78615 6.78615 l -0.79153,0.78327 -0.79152,0.78326 -0.13736,-0.52018 c -0.0755,-0.2861 -0.32816,-1.28691 -0.56137,-2.22402 l -0.424,-1.70385 h -0.56827 -0.56827 l -0.424,1.70385 c -0.23321,0.93711 -0.48592,1.93828 -0.56158,2.22481 l -0.13757,0.52097 -1.05711,-1.0509 -1.05711,-1.05091 -1.33834,0.65849 -1.33834,0.6585 -0.73568,-0.72654 -0.73567,-0.72654 -1.50428,1.50002 c -0.82736,0.825 -1.5951,1.50001 -1.70609,1.50001 -0.14151,0 -0.39592,-0.58898 -0.85141,-1.97111 z"
           id="path4638"
           inkscape:connector-curvature="0" />
        <path
           style="fill:#ffeeaa;fill-opacity:1;stroke:#000000;stroke-width:0.5;stroke-miterlimit:4;stroke-dasharray:none;stroke-opacity:1;paint-order:fill markers stroke"
           d="m 50.568583,146.49939 v -6.78614 l 0.796719,-0.78841 c 0.556945,-0.55114 0.816888,-0.73086 0.863735,-0.59718 0.03686,0.10518 0.222856,0.82266 0.413329,1.5944 0.660802,2.67739 0.520243,2.40543 1.243193,2.40543 h 0.633978 l 0.514345,-2.08547 0.514345,-2.08547 1.888387,1.88501 c 1.038613,1.03677 1.928489,1.88503 1.977501,1.88503 0.04901,0 0.377137,-0.87101 0.729165,-1.93557 l 0.640051,-1.93557 0.411422,0.39877 c 0.226282,0.21932 0.473482,0.39876 0.549333,0.39876 0.07585,0 0.775287,-0.33286 1.554302,-0.73969 1.41037,-0.73654 1.420122,-0.73931 2.29456,-0.64972 l 0.87817,0.09 v 2.35061 2.35061 l 1.128969,-1.1231 1.128967,-1.12311 1.732097,-0.55791 1.732098,-0.55792 0.746479,0.74648 0.74648,0.74648 1.258959,-1.25372 1.258959,-1.25373 0.647805,1.29041 0.647804,1.29042 1.55671,-1.47122 c 1.997596,-1.88788 2.033529,-1.89171 2.834754,-0.30191 l 0.589304,1.1693 1.547577,0.83522 c 0.851169,0.45937 1.602303,0.83522 1.669187,0.83522 0.06689,0 0.905137,-0.81135 1.86278,-1.80299 l 1.741173,-1.80299 0.624279,1.87316 0.624279,1.87317 0.488929,-0.29968 c 0.268912,-0.16483 1.210559,-0.76314 2.092547,-1.32958 l 1.603616,-1.02989 1.472076,1.45985 c 0.809638,0.80292 1.511252,1.45986 1.559139,1.45986 0.04789,0 0.339849,-0.75854 0.648806,-1.68563 0.395171,-1.18581 0.598172,-1.6316 0.684609,-1.5034 0.06758,0.10023 0.278027,0.48292 0.467664,0.85042 0.189638,0.36749 0.369629,0.69522 0.399974,0.72829 0.03035,0.0331 0.708152,-0.59084 1.506232,-1.38644 l 1.45105,-1.44656 1.24949,0.70436 1.24948,0.70436 0.60249,-0.32415 c 0.33136,-0.17828 0.91645,-0.50196 1.30019,-0.7193 l 0.69771,-0.39515 0.57182,0.55316 c 0.31451,0.30425 1.11305,0.82291 1.77454,1.1526 l 1.20271,0.59942 0.93187,2.82126 c 0.51253,1.55169 0.96527,2.82126 1.00609,2.82126 0.0408,0 0.39886,-1.35305 0.79563,-3.00679 0.39678,-1.65373 0.75258,-3.00678 0.79067,-3.00678 0.0381,0 0.2295,0.15353 0.42536,0.34117 l 0.3561,0.34117 2.77197,-1.27661 c 2.08368,-0.95963 2.90902,-1.27661 3.32395,-1.27661 0.46205,0 0.89698,0.20962 2.66932,1.28652 l 2.11732,1.28653 0.51417,-0.50207 0.51415,-0.50206 0.64616,1.28712 0.64615,1.28712 2.06664,-2.06988 2.06664,-2.06987 0.57303,0.56239 0.57303,0.56238 1.69421,-0.56083 c 0.93181,-0.30846 1.70523,-0.54726 1.7187,-0.53068 0.0135,0.0166 0.0675,3.52305 0.12013,7.79216 l 0.0956,7.76201 -31.50522,0.089 c -17.327872,0.049 -36.997642,0.089 -43.710597,0.089 h -12.20537 z"
           id="path4640"
           inkscape:connector-curvature="0" />
      </g>
    </g>
  </g>
</svg>
