<?xml version="1.0" encoding="UTF-8" standalone="no"?>
<!-- Created with Inkscape (http://www.inkscape.org/) -->

<svg
   xmlns:dc="http://purl.org/dc/elements/1.1/"
   xmlns:cc="http://creativecommons.org/ns#"
   xmlns:rdf="http://www.w3.org/1999/02/22-rdf-syntax-ns#"
   xmlns:svg="http://www.w3.org/2000/svg"
   xmlns="http://www.w3.org/2000/svg"
   xmlns:sodipodi="http://sodipodi.sourceforge.net/DTD/sodipodi-0.dtd"
   xmlns:inkscape="http://www.inkscape.org/namespaces/inkscape"
   width="188.58711mm"
   height="27.812529mm"
   viewBox="0 0 188.58711 27.812529"
   version="1.1"
   id="svg8"
   sodipodi:docname="Dice.svg"
   inkscape:version="0.92.3 (2405546, 2018-03-11)">
  <defs
     id="defs2" />
  <sodipodi:namedview
     id="base"
     pagecolor="#ffffff"
     bordercolor="#666666"
     borderopacity="1.0"
     inkscape:pageopacity="0.0"
     inkscape:pageshadow="2"
     inkscape:zoom="1.4"
     inkscape:cx="312.30201"
     inkscape:cy="109.5066"
     inkscape:document-units="mm"
     inkscape:current-layer="layer1"
     showgrid="false"
     inkscape:window-width="1680"
     inkscape:window-height="987"
     inkscape:window-x="1672"
     inkscape:window-y="14"
     inkscape:window-maximized="1" />
  <metadata
     id="metadata5">
    <rdf:RDF>
      <cc:Work
         rdf:about="">
        <dc:format>image/svg+xml</dc:format>
        <dc:type
           rdf:resource="http://purl.org/dc/dcmitype/StillImage" />
      </cc:Work>
    </rdf:RDF>
  </metadata>
  <g
     inkscape:label="Layer 1"
     inkscape:groupmode="layer"
     id="layer1"
     transform="translate(-11.603722,-130.21008)">
    <path
       style="fill:#000000;stroke-width:0.16603704"
       d="m 182.68858,157.81158 c -2.39725,-0.11136 -3.45621,-0.22142 -3.60998,-0.3752 -0.1197,-0.11968 -1.64574,-2.98876 -3.39124,-6.37573 -2.35563,-4.57088 -3.14777,-6.254 -3.0733,-6.53013 0.0633,-0.23484 1.03405,-1.04129 2.63269,-2.1872 1.3928,-0.99836 3.82202,-2.74317 5.39828,-3.87736 l 2.86591,-2.06217 4.81635,-0.41532 c 2.64901,-0.22843 4.98696,-0.37251 5.19547,-0.32018 0.30891,0.0775 0.97326,1.31571 3.58846,6.68807 2.76216,5.67423 3.18846,6.65246 3.05931,7.02017 -0.10161,0.28937 -1.90683,1.75338 -5.594,4.53666 l -5.44397,4.10942 -1.5258,-0.0267 c -0.83918,-0.0147 -3.05238,-0.0976 -4.91818,-0.18431 z m 5.67539,-0.24262 c -0.38811,-0.035 -1.0232,-0.035 -1.41131,0 -0.38811,0.035 -0.0706,0.0636 0.70565,0.0636 0.77623,0 1.09377,-0.0286 0.70566,-0.0636 z m -3.48176,-0.16579 c -0.38536,-0.0348 -1.05781,-0.0352 -1.49434,-10e-4 -0.43652,0.0343 -0.12124,0.0628 0.70065,0.0633 0.82188,5e-4 1.17904,-0.0276 0.79369,-0.0624 z m -3.57481,-0.16566 c -0.34245,-0.0358 -0.90283,-0.0358 -1.24528,0 -0.34245,0.0358 -0.0623,0.0651 0.62264,0.0651 0.6849,0 0.96509,-0.0293 0.62264,-0.0651 z m 3.85083,-6.37356 -3.1651,-6.32847 -3.68436,0.10887 c -2.0264,0.0599 -3.95181,0.14759 -4.2787,0.19492 l -0.59434,0.086 3.07042,5.96752 3.07043,5.96752 1.0107,0.0189 c 0.55587,0.0104 1.982,0.0725 3.16916,0.13792 1.18717,0.0654 2.70038,0.13164 3.36269,0.14711 l 1.20418,0.0281 z m -5.72491,4.10733 c -1.7307,-1.80626 -0.58623,-3.64511 1.17345,-1.88542 0.8886,0.88858 1.2658,2.01584 0.79421,2.37337 -0.59,0.4473 -1.2216,0.29067 -1.96766,-0.48795 z m 1.32172,-0.31092 c -0.2536,-0.80194 -0.8772,-1.45283 -1.39192,-1.45283 -0.27617,0 0.28288,1.01947 0.79623,1.452 0.56204,0.47357 0.74526,0.47382 0.59569,8.3e-4 z m 0.16981,-5.79993 c -1.01367,-0.89002 -1.32214,-1.94655 -0.76807,-2.63079 0.27593,-0.34077 0.35435,-0.35599 0.90224,-0.17517 1.13015,0.37298 2.12235,1.89227 1.92268,2.94405 -0.0436,0.22949 -0.23235,0.31986 -0.74675,0.35743 -0.57989,0.0423 -0.7865,-0.0358 -1.3101,-0.49552 z m 1.69974,-0.33307 c -0.053,-0.13245 -0.0923,-0.0931 -0.10032,0.10032 -0.007,0.17503 0.032,0.2731 0.0872,0.21792 0.0552,-0.0552 0.0611,-0.19838 0.0131,-0.31824 z m -0.4455,-0.0678 c 0,-0.64661 -1.30991,-1.99418 -1.55422,-1.59889 -0.13336,0.21578 0.40457,1.18549 0.85351,1.53865 0.50145,0.39443 0.70071,0.41156 0.70071,0.0602 z m 11.67214,4.91344 c 2.6667,-2.00935 5.01988,-3.78662 5.2293,-3.94951 l 0.38076,-0.29614 -3.07688,-6.27627 c -1.69229,-3.45195 -3.13965,-6.25107 -3.21636,-6.22027 -0.0767,0.0308 -2.49568,1.77449 -5.37549,3.87486 l -5.23605,3.81885 3.17254,6.35092 c 1.7449,3.493 3.19528,6.35092 3.22309,6.35092 0.0278,0 2.2324,-1.64402 4.89909,-3.65336 z m -3.72137,-4.97324 c -0.53114,-0.46373 -0.56212,-0.55046 -0.56212,-1.57324 0,-1.01357 0.035,-1.11441 0.54986,-1.58468 0.61509,-0.56179 0.98675,-0.61768 1.68981,-0.25412 0.68919,0.3564 0.99805,0.88451 0.99805,1.70651 0,0.95863 -0.39478,1.67198 -1.08493,1.96034 -0.78775,0.32914 -0.95196,0.30283 -1.59067,-0.25481 z m 1.75298,-0.70842 c 0.52274,-0.74632 0.14605,-2.12154 -0.58113,-2.12154 -0.51556,0 -0.9868,0.59468 -0.9868,1.24528 0,1.06042 1.03414,1.63836 1.56793,0.87626 z m -1.95098,-1.08065 c -0.0421,-0.16155 -0.0793,-0.0696 -0.0827,0.20439 -0.003,0.27396 0.0311,0.40613 0.0765,0.29372 0.0455,-0.11241 0.0482,-0.33656 0.006,-0.49811 z m 0.2382,10.1251 c 0.20651,-0.26334 0.20065,-0.26922 -0.0627,-0.0627 -0.27657,0.21691 -0.36453,0.35326 -0.22787,0.35326 0.0345,0 0.16522,-0.13076 0.29057,-0.29057 z m 8.79996,-6.64148 c 0.20652,-0.26335 0.20065,-0.26922 -0.0627,-0.0627 -0.15981,0.12533 -0.29056,0.25609 -0.29056,0.29057 0,0.13665 0.13635,0.0487 0.35326,-0.22788 z m -21.89657,-5.64367 c -0.57075,-0.0324 -1.50471,-0.0324 -2.07546,0 -0.57075,0.0324 -0.10377,0.059 1.03773,0.059 1.14151,0 1.60849,-0.0265 1.03773,-0.059 z m 4.06791,-0.1658 c -0.52509,-0.0329 -1.38433,-0.0329 -1.90943,0 -0.52509,0.0329 -0.0955,0.0599 0.95472,0.0599 1.05018,0 1.4798,-0.027 0.95471,-0.0599 z m 5.95915,-4.00496 c 2.84375,-2.0675 5.15107,-3.78045 5.12736,-3.80655 -0.0237,-0.0261 -1.9021,0.10961 -4.17424,0.30158 -3.87188,0.32713 -4.17022,0.37581 -4.75379,0.77569 -0.77343,0.52998 -0.78444,0.5982 -0.0468,0.29001 0.68024,-0.28423 1.68241,-0.31618 1.84152,-0.0587 0.35547,0.57515 -1.66364,1.97661 -2.84773,1.97661 -0.62757,0 -0.90966,-0.49746 -0.53801,-0.94879 0.19433,-0.236 -3.83312,2.57065 -4.26174,2.96993 -0.0913,0.0851 0.11174,0.0387 0.45127,-0.10305 0.71593,-0.29889 1.72018,-0.33934 1.88302,-0.0758 0.46879,0.75851 -2.72837,2.52432 -3.57957,1.97703 -0.21962,-0.1412 -0.21606,-0.21861 0.0301,-0.65493 0.26048,-0.46174 0.20223,-0.43887 -0.87169,0.34223 -0.63295,0.46037 -1.15083,0.87716 -1.15083,0.92619 0,0.049 1.73717,0.0348 3.86037,-0.0316 l 3.86036,-0.12071 z m -6.37424,3.02148 c -0.8354,-0.3371 1.2823,-1.94047 2.84602,-2.1548 0.66136,-0.0906 0.74171,-0.0636 0.85317,0.28762 0.29295,0.92303 -2.52013,2.34294 -3.69919,1.86718 z m 0.95471,-0.61944 c 0,-0.0359 -0.11596,-0.10975 -0.25767,-0.16414 -0.14777,-0.0567 -0.21442,-0.0289 -0.15624,0.0653 0.0975,0.15776 0.41391,0.23335 0.41391,0.0989 z m 2.17967,-0.72343 c 0.20652,-0.26334 0.20065,-0.26921 -0.0627,-0.0627 -0.15981,0.12533 -0.29056,0.25608 -0.29056,0.29056 0,0.13666 0.13635,0.0487 0.35326,-0.22788 z m 2.41403,-2.47671 c -0.0609,-0.0609 -0.1107,-0.28457 -0.1107,-0.49707 0,-0.75142 2.45119,-2.0537 3.41175,-1.81261 1.04374,0.26196 -0.11357,1.54141 -1.89339,2.09321 -1.17078,0.36298 -1.24911,0.37503 -1.40766,0.21647 z m 0.88552,-0.80411 c 0,-0.17743 -0.50829,-0.18621 -0.65345,-0.0113 -0.14155,0.17054 -0.0913,0.19955 0.23692,0.13681 0.22909,-0.0438 0.41653,-0.10028 0.41653,-0.12553 z m 2.17967,-0.70406 c 0.20652,-0.26335 0.20066,-0.26922 -0.0627,-0.0627 -0.15982,0.12533 -0.29057,0.25608 -0.29057,0.29056 0,0.13666 0.13635,0.0487 0.35326,-0.22787 z m -12.14189,4.87434 c 0,-0.1575 -0.49701,-0.23689 -0.58561,-0.0935 -0.054,0.0873 0.0557,0.15879 0.24374,0.15879 0.18802,0 0.34187,-0.0294 0.34187,-0.0653 z m 4.98111,-3.95773 c 0,-0.0972 -0.1055,-0.081 -0.24905,0.0381 -0.13698,0.11368 -0.24906,0.23256 -0.24906,0.26417 0,0.0316 0.11208,0.0145 0.24906,-0.0381 0.13698,-0.0526 0.24905,-0.17144 0.24905,-0.26418 z m 2.61163,-2.2207 c -0.0552,-0.0552 -0.19838,-0.0611 -0.31824,-0.0131 -0.13245,0.053 -0.0931,0.0923 0.10032,0.10032 0.17502,0.007 0.2731,-0.032 0.21792,-0.0872 z m 1.99245,-0.16603 c -0.0552,-0.0552 -0.19838,-0.0611 -0.31825,-0.0131 -0.13244,0.053 -0.0931,0.0923 0.10032,0.10031 0.17502,0.007 0.2731,-0.032 0.21793,-0.0872 z m 1.99244,-0.16604 c -0.0552,-0.0552 -0.19838,-0.0611 -0.31824,-0.0131 -0.13245,0.053 -0.0931,0.0924 0.10032,0.10031 0.17502,0.007 0.27309,-0.032 0.21792,-0.0872 z m 1.91288,-0.17569 c -0.11415,-0.0461 -0.30094,-0.0461 -0.41509,0 -0.11415,0.0461 -0.0208,0.0837 0.20754,0.0837 0.2283,0 0.3217,-0.0377 0.20755,-0.0837 z m 1.99244,-0.16603 c -0.11415,-0.0461 -0.30094,-0.0461 -0.41509,0 -0.11415,0.0461 -0.0207,0.0837 0.20755,0.0837 0.2283,0 0.32169,-0.0377 0.20754,-0.0837 z m -45.51925,19.86405 c -1.04116,-0.62389 -2.02546,-1.27042 -2.18735,-1.43671 -0.55154,-0.56659 -6.97426,-12.36923 -6.88346,-12.64931 0.0485,-0.14953 2.94326,-1.98585 6.43285,-4.08072 l 6.3447,-3.80885 2.16483,0.5586 c 1.19065,0.30722 2.29799,0.63895 2.46076,0.73716 0.25488,0.1538 7.25875,13.13324 7.25875,13.45178 0,0.0641 -0.10679,0.22328 -0.23731,0.3538 -0.29228,0.29229 -13.19153,8.04712 -13.34815,8.02472 -0.0619,-0.009 -0.96445,-0.52657 -2.00562,-1.15047 z m 8.60327,-3.68175 c 3.23402,-1.9451 5.884,-3.60116 5.88882,-3.68014 0.0155,-0.25396 -6.45024,-12.38592 -6.60281,-12.38912 -0.14032,-0.003 -12.55472,7.44842 -12.55472,7.53558 0,0.0516 5.84764,10.70085 6.41459,11.68172 0.33348,0.57695 0.46087,0.67789 0.69143,0.54788 0.15545,-0.0877 2.92865,-1.75083 6.16269,-3.69592 z m -6.5248,0.32824 c -0.40985,-0.46708 -0.4599,-0.63635 -0.39326,-1.32998 0.0858,-0.89284 0.4427,-1.38998 1.24021,-1.72754 0.86336,-0.36542 1.42268,-0.28497 1.96672,0.28288 0.41908,0.43742 0.48766,0.63783 0.48766,1.42493 0,0.82466 -0.054,0.9642 -0.54224,1.40042 -0.4535,0.4052 -0.6852,0.48449 -1.41585,0.48449 -0.77631,0 -0.92591,-0.0596 -1.34324,-0.5352 z m 1.59945,0.2592 c -0.11415,-0.0461 -0.30094,-0.0461 -0.41509,0 -0.11415,0.0461 -0.0207,0.0837 0.20755,0.0837 0.2283,0 0.32169,-0.0377 0.20754,-0.0837 z m 0.34299,-0.41527 c 0.53115,-0.2829 0.76685,-0.6558 0.76994,-1.21816 0.004,-0.69636 -0.17723,-0.91022 -0.86511,-1.02185 -0.49406,-0.0802 -0.67068,-0.0232 -1.02429,0.33041 -0.51673,0.51673 -0.54479,1.07842 -0.0832,1.66527 0.37806,0.48062 0.65379,0.53664 1.20263,0.24433 z m -1.9349,-1.17665 c -0.0461,-0.11415 -0.0838,-0.0207 -0.0838,0.20755 0,0.2283 0.0377,0.32169 0.0838,0.20754 0.0461,-0.11415 0.0461,-0.30094 0,-0.41509 z m 0.57536,-1.07924 c 0.20653,-0.26335 0.20066,-0.26922 -0.0627,-0.0627 -0.15981,0.12533 -0.29056,0.25609 -0.29056,0.29057 0,0.13665 0.13635,0.0487 0.35325,-0.22788 z m 1.42819,-0.4739 c -0.0552,-0.0552 -0.19838,-0.0611 -0.31824,-0.0131 -0.13245,0.053 -0.0931,0.0923 0.10031,0.10031 0.17503,0.007 0.2731,-0.032 0.21793,-0.0872 z m 4.47601,-0.86348 c -0.36382,-0.37975 -0.44505,-0.61722 -0.44019,-1.28679 0.0163,-2.2419 2.86825,-2.90149 3.64118,-0.84212 0.27437,0.73101 0.0462,1.52835 -0.5995,2.09531 -0.46242,0.40602 -0.71685,0.49928 -1.36199,0.49928 -0.65248,0 -0.87256,-0.0827 -1.2395,-0.46568 z m 1.50132,0.19933 c -0.0552,-0.0552 -0.19838,-0.0611 -0.31824,-0.0131 -0.13245,0.053 -0.0931,0.0924 0.10032,0.10032 0.17503,0.007 0.27309,-0.032 0.21792,-0.0872 z m -0.95125,-0.29445 c 0,-0.0345 -0.13076,-0.16523 -0.29057,-0.29056 -0.26334,-0.20653 -0.26922,-0.20066 -0.0627,0.0627 0.21691,0.27658 0.35326,0.36453 0.35326,0.22787 z m 1.33162,-0.18808 c 1.23756,-0.63997 1.07387,-2.23978 -0.22918,-2.23978 -1.15847,0 -1.70169,1.26085 -0.90747,2.10627 0.42597,0.45342 0.50097,0.46223 1.13665,0.13351 z m -1.87834,-1.28313 c -0.0397,-0.20654 -0.0737,-0.0767 -0.0756,0.28863 -0.002,0.36528 0.0307,0.53426 0.0722,0.37552 0.0416,-0.15875 0.0431,-0.45762 0.003,-0.66415 z m 1.91968,-1.39764 c -0.11241,-0.0455 -0.33656,-0.0482 -0.49811,-0.006 -0.16155,0.0421 -0.0696,0.0793 0.20439,0.0827 0.27396,0.003 0.40613,-0.0311 0.29372,-0.0765 z m -6.022,2.14895 c -0.2283,-0.0419 -0.62877,-0.30747 -0.88992,-0.59019 -0.41937,-0.45399 -0.46579,-0.60808 -0.39743,-1.31943 0.0938,-0.97626 0.5758,-1.55448 1.50419,-1.80447 0.83486,-0.2248 1.5291,0.0399 1.96066,0.74762 0.92222,1.51233 -0.3864,3.29511 -2.1775,2.96647 z m 1.41886,-0.95325 c 0.81228,-0.81228 0.43286,-2.08301 -0.62196,-2.08301 -0.57069,0 -1.29501,0.65474 -1.29501,1.17061 0,0.19553 0.12818,0.57251 0.28485,0.83773 0.36522,0.61826 1.05689,0.6499 1.63212,0.0747 z m -2.30512,-0.96226 c -0.0461,-0.11415 -0.0838,-0.0207 -0.0838,0.20755 0,0.2283 0.0377,0.3217 0.0838,0.20754 0.0461,-0.11415 0.0461,-0.30094 0,-0.41509 z m 0.57536,-1.07924 c 0.20653,-0.26334 0.20066,-0.26922 -0.0627,-0.0627 -0.15982,0.12534 -0.29057,0.25609 -0.29057,0.29057 0,0.13665 0.13635,0.0487 0.35325,-0.22788 z m -5.50976,1.24979 c -0.82045,-0.89829 -0.61932,-2.26514 0.43565,-2.96058 0.90344,-0.59555 2.30514,-0.27264 2.71427,0.6253 0.26068,0.57214 0.22115,1.57575 -0.0789,2.00421 -0.37016,0.52847 -1.11111,0.86618 -1.90046,0.86618 -0.55619,0 -0.77177,-0.0986 -1.17051,-0.53511 z m 1.62476,0.26876 c -0.0552,-0.0552 -0.19838,-0.0611 -0.31823,-0.0131 -0.13246,0.053 -0.0931,0.0923 0.10031,0.10031 0.17503,0.007 0.2731,-0.032 0.21792,-0.0872 z m 0.56814,-0.70389 c 0.61523,-0.54971 0.70888,-1.3166 0.22594,-1.85025 -0.35866,-0.39631 -0.76088,-0.42252 -1.40138,-0.0913 -0.81825,0.42313 -0.91306,1.26385 -0.21942,1.94579 0.58256,0.57275 0.74966,0.57224 1.39486,-0.004 z m -2.23451,-0.97754 c -0.0421,-0.16154 -0.0793,-0.0696 -0.0827,0.20439 -0.003,0.27396 0.0311,0.40614 0.0765,0.29373 0.0455,-0.11242 0.0482,-0.33657 0.006,-0.49812 z m 6.55026,-2.47175 c -0.50355,-0.57241 -0.54992,-0.71026 -0.48082,-1.42941 0.0859,-0.89403 0.44246,-1.39096 1.24032,-1.72866 0.79083,-0.33472 1.24226,-0.27847 1.84923,0.23046 0.6907,0.57913 0.88885,1.63549 0.45716,2.4371 -0.36408,0.67605 -0.77801,0.92306 -1.7326,1.03391 -0.73715,0.0856 -0.80391,0.0584 -1.33329,-0.5434 z m 1.99303,-0.24258 c 0.72989,-0.39062 0.89236,-1.7762 0.25575,-2.181 -0.70135,-0.44595 -1.94055,0.26596 -1.94055,1.11483 0,0.47791 0.66713,1.24528 1.08261,1.24528 0.14713,0 0.41812,-0.0806 0.60219,-0.17911 z m -2.07295,-1.1907 c -0.0461,-0.11415 -0.0837,-0.0208 -0.0837,0.20755 0,0.2283 0.0377,0.3217 0.0837,0.20755 0.0461,-0.11415 0.0461,-0.30095 0,-0.4151 z m 0.57537,-1.07924 c 0.20653,-0.26334 0.20065,-0.26921 -0.0627,-0.0627 -0.15981,0.12533 -0.29057,0.25608 -0.29057,0.29056 0,0.13665 0.13635,0.0487 0.35326,-0.22788 z m -4.30108,15.77698 c -0.28279,-0.10085 -0.88457,-1.29716 -0.73561,-1.46234 0.0646,-0.0716 0.0355,-0.0836 -0.0646,-0.0266 -0.18301,0.10423 -1.02306,-1.47397 -0.93466,-1.75595 0.0251,-0.08 -0.0205,-0.10465 -0.10135,-0.0547 -0.15393,0.0951 -0.808,-1.20156 -0.72884,-1.44492 0.0251,-0.0771 -0.0194,-0.10003 -0.099,-0.0509 -0.1538,0.095 -0.97445,-1.52402 -0.89727,-1.77023 0.0251,-0.08 -0.0205,-0.10466 -0.10135,-0.0547 -0.15393,0.0951 -0.808,-1.20156 -0.72883,-1.44492 0.0251,-0.0771 -0.0194,-0.10003 -0.099,-0.0509 -0.1538,0.0951 -0.97445,-1.52402 -0.89726,-1.77023 0.0251,-0.08 -0.0205,-0.10466 -0.10136,-0.0547 -0.16503,0.102 -0.80526,-1.21038 -0.71911,-1.47409 0.0304,-0.0932 0.002,-0.11655 -0.0621,-0.0519 -0.0646,0.0646 -0.23895,-0.0238 -0.38742,-0.1964 -0.28288,-0.32888 -2.51503,-1.39523 -2.50658,-1.19745 0.003,0.0628 1.37226,2.57977 3.04349,5.59334 2.2414,4.04168 3.1658,5.55924 3.52341,5.78423 0.26664,0.16775 0.97046,0.61996 1.56404,1.0049 0.59359,0.38494 1.1166,0.66708 1.16226,0.62698 0.0457,-0.0401 -0.0124,-0.10694 -0.12897,-0.14853 z m -4.66788,-5.44579 c -1.00337,-1.14277 -1.57634,-2.90103 -0.94538,-2.90103 0.50659,0 1.92338,2.25778 1.92338,3.06507 0,0.59269 -0.36775,0.53101 -0.978,-0.16404 z m -0.51633,-1.90481 c -0.0977,-0.18264 -0.21508,-0.33207 -0.26074,-0.33207 -0.0457,0 -0.003,0.14943 0.0947,0.33207 0.0978,0.18264 0.21508,0.33208 0.26074,0.33208 0.0457,0 0.003,-0.14944 -0.0947,-0.33208 z m -0.4151,-5.56657 c 0.64324,-0.39618 0.64977,-0.40909 0.20755,-0.40991 -1.02778,-0.002 -0.14929,-1.21518 1.37528,-1.89937 1.04804,-0.47033 1.74772,-0.47799 1.85029,-0.0203 0.0387,0.17272 0.52915,-0.0535 1.75917,-0.81139 1.52933,-0.94231 1.66225,-1.06173 1.28679,-1.15596 -0.2303,-0.0578 -0.41872,-0.20911 -0.41872,-0.33623 0,-0.52902 2.25299,-1.91569 3.11854,-1.9194 0.22473,-9.6e-4 0.42755,0.1298 0.49841,0.32134 0.11325,0.30617 0.16436,0.29528 0.98216,-0.20915 l 0.8627,-0.53212 -1.75065,-0.45867 -1.75064,-0.45867 -0.60668,0.37726 -0.60668,0.37726 0.4566,0.0525 c 0.60529,0.0696 0.57677,0.39762 -0.083,0.95469 -1.49287,1.26046 -3.89362,1.70768 -2.82431,0.52611 0.15888,-0.17557 -0.0839,-0.0685 -0.53962,0.2379 -0.45568,0.30642 -1.33442,0.85289 -1.95276,1.21439 -0.97826,0.57191 -1.07908,0.67397 -0.77635,0.78596 0.50531,0.18693 0.34594,0.61389 -0.45806,1.22712 -1.41806,1.08159 -3.14788,1.31996 -2.55326,0.35184 0.21655,-0.35257 0.21257,-0.3573 -0.0872,-0.1035 -0.17275,0.14626 -0.64663,0.45995 -1.05309,0.69709 -0.72822,0.42486 -0.73306,0.43348 -0.33207,0.59123 0.22381,0.088 0.81787,0.3491 1.32013,0.58013 1.13667,0.52284 1.25681,0.52399 2.07546,0.0198 z m -0.80251,-2.47892 c 0,-0.13296 -0.0635,-0.20252 -0.14107,-0.15456 -0.0776,0.048 -0.0981,0.15674 -0.0455,0.24175 0.13426,0.21724 0.18662,0.19278 0.18662,-0.0872 z m 5.76396,-3.5027 c 0.0567,-0.14777 0.0289,-0.21441 -0.0653,-0.15624 -0.0903,0.0558 -0.16414,0.17175 -0.16414,0.25768 0,0.23883 0.11901,0.1862 0.22939,-0.10144 z m 0.62257,-0.13119 c -0.10171,-0.12255 -0.12954,-0.28396 -0.0618,-0.35869 0.0677,-0.0747 0.0261,-0.0799 -0.0925,-0.0114 -0.16611,0.0959 -0.17097,0.1782 -0.0212,0.35869 0.10693,0.12885 0.23178,0.23428 0.27744,0.23428 0.0457,0 -1.6e-4,-0.10027 -0.1019,-0.22283 z m -99.571139,19.43435 c -0.09691,-0.11119 -1.537342,-2.73585 -3.20096,-5.83257 l -3.024758,-5.63041 0.681752,-4.3971 c 0.374963,-2.4184 0.769362,-4.48393 0.876441,-4.59007 0.278255,-0.27579 13.926718,-3.94878 14.234468,-3.83068 0.140716,0.054 1.438315,2.65498 2.883553,5.77995 l 2.627707,5.68178 -0.200661,4.46713 c -0.134772,3.0003 -0.265871,4.53234 -0.399254,4.66573 -0.149427,0.14942 -13.969516,3.92721 -14.247936,3.89473 -0.02978,-0.003 -0.133441,-0.0973 -0.230352,-0.20849 z m 7.274283,-2.47541 c 3.538665,-0.93322 6.433935,-1.74744 6.433935,-1.80938 0,-0.0619 -1.120288,-2.45579 -2.489531,-5.31968 -1.369242,-2.86389 -2.514096,-5.27939 -2.54412,-5.36777 -0.04303,-0.12666 -9.310213,2.23953 -13.087164,3.34155 l -0.769947,0.22465 2.84541,5.31073 c 1.564974,2.9209 2.920125,5.31207 3.011445,5.3137 0.09132,0.002 3.061308,-0.76058 6.599972,-1.6938 z m -5.382424,-0.0826 c -0.645361,-0.10092 -1.234854,-0.72676 -1.371713,-1.45628 -0.102412,-0.5459 -0.06053,-0.69584 0.293123,-1.0495 0.531211,-0.53121 1.834886,-0.69058 2.585587,-0.31608 0.472761,0.23584 0.513178,0.23376 0.513178,-0.0264 0,-0.3659 0.572977,-0.8514 1.225758,-1.03861 0.555957,-0.15945 1.551893,-0.0401 1.887436,0.22623 0.130749,0.10377 0.207546,0.10531 0.207546,0.004 0,-0.0883 0.186541,-0.37763 0.414538,-0.64297 0.384268,-0.44719 0.499484,-0.48241 1.577906,-0.48241 1.078423,0 1.193639,0.0352 1.577907,0.48242 0.528144,0.61464 0.526958,1.26792 -0.0034,1.89827 -0.515376,0.61249 -1.443596,0.81309 -2.246446,0.48549 -0.542334,-0.22129 -0.568742,-0.21214 -1.167299,0.40464 -0.525457,0.54145 -0.715365,0.6309 -1.337499,0.63002 -0.398798,-5e-4 -0.915138,-0.1002 -1.147424,-0.22143 -0.344957,-0.18003 -0.459036,-0.18112 -0.622639,-0.006 -0.110166,0.11793 -0.200302,0.29057 -0.200302,0.38364 0,0.43761 -1.289347,0.86509 -2.186211,0.72484 z m 1.479626,-0.91371 c 0.600656,-0.4985 -0.104901,-1.29462 -1.147351,-1.29462 -0.669871,0 -1.191536,0.48895 -1.014337,0.95073 0.229505,0.59808 1.593878,0.81513 2.161688,0.34389 z m 3.433697,-0.94873 c 0.762203,-0.84223 -1.082505,-1.82446 -1.896926,-1.01004 -0.421809,0.42181 -0.417057,0.57204 0.03131,0.98975 0.475951,0.44342 1.472878,0.45426 1.865618,0.0203 z m -5.528561,-0.47042 c 0.206528,-0.26334 0.200655,-0.26922 -0.06269,-0.0627 -0.159811,0.12534 -0.290565,0.25609 -0.290565,0.29057 0,0.13665 0.136348,0.0487 0.353254,-0.22788 z m 8.687952,-0.2342 c 0.7253,-0.33047 0.522354,-1.20106 -0.337467,-1.44766 -0.561072,-0.16091 -1.189232,0.0244 -1.494901,0.44102 -0.173185,0.23604 -0.16129,0.34042 0.06796,0.59629 0.512581,0.57211 1.106328,0.7102 1.764412,0.41035 z m -2.731799,-0.36811 c 0,-0.0345 -0.130754,-0.16523 -0.290565,-0.29056 -0.263344,-0.20653 -0.269217,-0.20066 -0.06269,0.0627 0.216906,0.27657 0.353254,0.36453 0.353254,0.22787 z m -9.004186,-2.94266 c -0.686823,-0.51252 -1.005526,-2.1418 -0.418955,-2.1418 0.09431,0 0.258975,-0.11966 0.365916,-0.26591 0.28218,-0.3859 1.60508,-0.49565 2.22811,-0.18484 0.472703,0.23582 0.514126,0.2318 0.606368,-0.0588 0.194354,-0.61236 0.896244,-0.98475 1.856073,-0.98475 0.495951,0 1.041859,0.075 1.213131,0.16666 0.256665,0.13736 0.362462,0.0802 0.601856,-0.32504 0.381427,-0.6457 1.035035,-0.89819 2.068144,-0.79892 1.797014,0.17267 2.425547,1.98739 0.983398,2.83928 -0.567792,0.33541 -1.814153,0.36174 -2.244017,0.0474 -0.283368,-0.2072 -0.357297,-0.16835 -0.773801,0.40661 -0.574676,0.79332 -1.366478,0.99493 -2.419827,0.61615 -0.389108,-0.13992 -0.707469,-0.1947 -0.707469,-0.12172 0,0.073 -0.229898,0.36259 -0.510883,0.64358 -0.452311,0.45231 -0.618876,0.51028 -1.452824,0.50562 -0.682626,-0.004 -1.066728,-0.0984 -1.39522,-0.3435 z m 1.653589,0.0824 c -0.05517,-0.0552 -0.198381,-0.0611 -0.318238,-0.0131 -0.132453,0.053 -0.09311,0.0923 0.100314,0.10031 0.17503,0.007 0.273096,-0.032 0.217924,-0.0872 z m 0.666678,-0.59752 c 0.316095,-0.26233 0.251852,-0.60218 -0.199071,-1.0531 -0.504041,-0.50404 -1.219391,-0.52923 -1.811136,-0.0638 -0.364348,0.2866 -0.40733,0.39933 -0.258373,0.67766 0.369067,0.68961 1.664637,0.94043 2.26858,0.4392 z m 3.365877,-0.93134 c 0.479533,-0.3883 0.327702,-0.9339 -0.358659,-1.28883 -0.665707,-0.34425 -1.431611,-0.17153 -1.682659,0.37947 -0.169216,0.37138 -0.138614,0.46408 0.268949,0.81465 0.547897,0.47128 1.26031,0.50935 1.772369,0.0947 z m -2.991365,-0.25992 c 0,-0.0345 -0.130754,-0.16524 -0.290565,-0.29057 -0.263345,-0.20653 -0.269217,-0.20065 -0.06269,0.0627 0.216906,0.27658 0.353254,0.36453 0.353254,0.22788 z m 6.564458,-0.66833 c 0.489549,-0.35797 0.159834,-1.12217 -0.589265,-1.36578 -0.712374,-0.23167 -1.167948,-0.0785 -1.492193,0.50178 -0.235012,0.42057 -0.22565,0.46386 0.166037,0.76761 0.487948,0.37841 1.462655,0.42746 1.915421,0.0964 z m -7.851245,-0.0431 c -0.11415,-0.0461 -0.300942,-0.0461 -0.415093,0 -0.11415,0.0461 -0.02075,0.0837 0.207547,0.0837 0.228301,0 0.321696,-0.0377 0.207546,-0.0837 z m 14.70372,6.498 c -0.05112,-0.0511 -0.143963,0.041 -0.206315,0.20478 -0.09011,0.23663 -0.07103,0.2557 0.09295,0.0929 0.113473,-0.11262 0.164488,-0.2466 0.113367,-0.29772 z m -0.149356,-5.21965 c 0.07912,-1.59473 0.09626,-3.01435 0.03811,-3.1547 -0.06146,-0.14832 -0.140504,0.0577 -0.188758,0.49198 -0.06764,0.60881 -0.144513,0.74717 -0.415092,0.74717 -0.903929,0 -1.708465,-3.56408 -0.849932,-3.76519 0.168899,-0.0396 0.01383,-0.51167 -0.59025,-1.79705 -0.450631,-0.95886 -0.772351,-1.50224 -0.714932,-1.2075 0.15063,0.77321 -0.03685,1.23798 -0.47423,1.17567 -0.533569,-0.076 -1.113602,-1.36221 -1.155465,-2.5622 -0.03191,-0.91473 -0.01068,-0.97494 0.33954,-0.96258 0.205471,0.007 0.370059,-0.0301 0.36575,-0.083 -0.02138,-0.26252 -0.973804,-1.88811 -0.980535,-1.67356 -0.0043,0.13698 -0.125824,1.70603 -0.270064,3.48678 -0.23511,2.90262 -0.236113,3.29787 -0.0097,3.81885 l 0.252564,0.58113 -0.03184,-0.99622 c -0.0307,-0.96044 -0.01693,-0.99622 0.38325,-0.99622 1.027984,0 1.844187,3.59482 0.855031,3.76583 -0.271678,0.047 -0.206224,0.26147 0.573497,1.87943 0.876187,1.81812 0.879754,1.82255 0.786498,0.97599 -0.10121,-0.91877 0.04628,-1.15415 0.610911,-0.97494 0.414844,0.13166 0.77264,0.80894 1.008601,1.90919 0.245937,1.14677 0.09596,1.71961 -0.424185,1.62018 l -0.393191,-0.0752 0.525373,1.06984 0.525373,1.06984 0.04491,-0.722 c 0.0247,-0.39711 0.109642,-2.02679 0.188757,-3.62153 z m 0.2986,1.94481 c -0.03957,-0.20547 -0.07196,-0.0374 -0.07196,0.37358 0,0.41095 0.03238,0.57906 0.07196,0.37359 0.03958,-0.20547 0.03958,-0.5417 0,-0.74717 z m 0.168004,-3.40148 c -0.03816,-0.25238 -0.07041,-0.0853 -0.07166,0.3713 -0.0012,0.45661 0.02998,0.6631 0.06939,0.45889 0.03941,-0.20422 0.04043,-0.5778 0.0023,-0.83019 z m -0.94933,-1.02217 c 0,-0.0815 -0.122643,-0.19533 -0.27254,-0.25285 -0.227882,-0.0875 -0.238153,-0.0632 -0.06269,0.14827 0.239114,0.28812 0.335228,0.3181 0.335228,0.10458 z M 43.31606,143.36984 c -0.04606,-0.11415 -0.08375,-0.0208 -0.08375,0.20755 0,0.2283 0.03769,0.32169 0.08375,0.20754 0.04606,-0.11415 0.04606,-0.30094 0,-0.41509 z m 7.318117,-1.25785 c 3.674502,-0.98771 6.710801,-1.82791 6.747331,-1.8671 0.09871,-0.10591 0.646572,-7.19881 0.577854,-7.48116 -0.04722,-0.19403 -1.340055,0.10681 -6.48174,1.5083 -3.532513,0.96287 -6.46469,1.7938 -6.515948,1.84652 -0.07366,0.0757 -1.257466,7.32011 -1.257466,7.6951 0,0.16024 0.03861,0.15076 6.929969,-1.70166 z m -4.812997,0.27582 c -0.890902,-0.32466 -0.436928,-1.62147 0.767744,-2.19312 0.783593,-0.37184 1.968364,-0.35472 2.319716,0.0335 0.371324,0.41031 0.348434,0.57958 -0.160081,1.18392 -0.741022,0.88065 -2.019147,1.30665 -2.927379,0.97568 z m 1.857448,-1.10545 c 0.665126,-0.49109 0.649844,-0.76001 -0.03686,-0.64858 -0.724631,0.11759 -1.44701,0.57088 -1.44701,0.90799 0,0.32598 0.905404,0.16769 1.483865,-0.25941 z m 0.591598,0.13654 c 0.165288,-0.18264 0.263166,-0.33207 0.217505,-0.33207 -0.04566,0 -0.218254,0.14943 -0.383542,0.33207 -0.165288,0.18265 -0.263165,0.33208 -0.217505,0.33208 0.04566,0 0.218254,-0.14943 0.383542,-0.33208 z m 4.275454,-1.07854 c -0.977346,-1.11008 1.708155,-2.96274 3.101513,-2.13967 0.280385,0.16563 0.509792,0.42874 0.509792,0.58468 0,0.42007 -0.819632,1.31777 -1.439739,1.57687 -0.701863,0.29326 -1.904778,0.28114 -2.171566,-0.0219 z m 2.220361,-0.995 c 0.396915,-0.26007 0.542724,-0.74909 0.223352,-0.74909 -0.299244,0 -1.382328,0.50037 -1.694395,0.78279 -0.656954,0.59453 0.554597,0.56678 1.471043,-0.0337 z m 0.581939,0.12261 c 0.206528,-0.26334 0.200655,-0.26922 -0.06269,-0.0627 -0.276576,0.21691 -0.364531,0.35325 -0.227876,0.35325 0.03448,0 0.165232,-0.13075 0.290565,-0.29056 z m -6.134265,-0.30189 c -0.321635,-0.36424 0.03641,-1.30664 0.667031,-1.75568 0.624101,-0.4444 1.984858,-0.60578 2.551388,-0.30258 1.20935,0.64722 -0.454829,2.32861 -2.288658,2.31232 -0.414883,-0.004 -0.802102,-0.10949 -0.929761,-0.25406 z m 1.256502,-0.18615 c -0.159811,-0.0418 -0.421319,-0.0418 -0.58113,0 -0.15981,0.0418 -0.02906,0.0759 0.290565,0.0759 0.319621,0 0.450375,-0.0342 0.290565,-0.0759 z m 0.755412,-0.65588 c 0.292257,-0.14972 0.584301,-0.35457 0.648989,-0.45521 0.389929,-0.60668 -1.109166,-0.31121 -1.720014,0.339 l -0.364912,0.38843 h 0.452282 c 0.248753,0 0.691398,-0.1225 0.983655,-0.27222 z m -5.166618,-0.32023 c -0.38402,-0.43488 0.04606,-1.33343 0.869098,-1.81576 1.174294,-0.68818 2.753432,-0.48172 2.753432,0.35999 0,0.39447 -0.909018,1.29953 -1.546652,1.53993 -0.674746,0.25439 -1.817849,0.20805 -2.075878,-0.0842 z m 1.940988,-0.80791 c 0.253248,-0.13096 0.557553,-0.35511 0.676234,-0.49811 0.186689,-0.22495 0.155964,-0.26001 -0.227886,-0.26001 -0.505506,0 -1.261712,0.35229 -1.58035,0.73622 -0.186689,0.22495 -0.155964,0.26001 0.227886,0.26001 0.244016,0 0.65087,-0.10715 0.904116,-0.23811 z m 0.934375,-0.094 c 0.165289,-0.18264 0.263166,-0.33207 0.217505,-0.33207 -0.04566,0 -0.218254,0.14943 -0.383542,0.33207 -0.165288,0.18264 -0.263165,0.33208 -0.217505,0.33208 0.04566,0 0.218254,-0.14944 0.383542,-0.33208 z m 3.981603,-0.99985 c -0.285997,-0.31603 -0.28784,-0.3692 -0.03141,-0.90694 0.682268,-1.43073 3.604493,-1.72631 3.604493,-0.36459 0,0.41401 -0.90192,1.19434 -1.633935,1.41366 -0.956126,0.28646 -1.593557,0.23974 -1.939148,-0.14213 z m 1.124036,-0.10633 c -0.11415,-0.0461 -0.300942,-0.0461 -0.415093,0 -0.11415,0.0461 -0.02075,0.0837 0.207547,0.0837 0.228301,0 0.321696,-0.0377 0.207546,-0.0837 z m 0.858762,-0.66448 c 0.735011,-0.3505 0.905136,-0.71989 0.331551,-0.71989 -0.483107,0 -1.242053,0.35937 -1.554811,0.73621 -0.186393,0.2246 -0.157247,0.26001 0.214007,0.26001 0.236384,0 0.690548,-0.12435 1.009253,-0.27633 z m -11.411579,6.96248 c -0.0421,-0.16155 -0.07931,-0.0696 -0.08269,0.20439 -0.0034,0.27396 0.03106,0.40613 0.07654,0.29372 0.04548,-0.11241 0.04825,-0.33656 0.0062,-0.49811 z m 0.160938,-1.0824 c -0.04606,-0.11415 -0.08375,-0.0208 -0.08375,0.20754 0,0.22831 0.03769,0.3217 0.08375,0.20755 0.04606,-0.11415 0.04606,-0.30094 0,-0.41509 z m 0.171136,-1.07608 c -0.0421,-0.16155 -0.07931,-0.0696 -0.08269,0.20438 -0.0034,0.27396 0.03106,0.40614 0.07654,0.29373 0.04548,-0.11241 0.04825,-0.33656 0.0062,-0.49811 z m 15.549715,0.36326 c -0.05408,-0.14092 -0.133931,-0.22061 -0.177452,-0.17708 -0.04352,0.0435 -0.02988,0.15882 0.03031,0.25621 0.163721,0.26491 0.259413,0.21344 0.147142,-0.0791 z m -0.608023,-0.43906 c -0.053,-0.13246 -0.09235,-0.0931 -0.100313,0.10031 -0.0072,0.17503 0.03203,0.2731 0.08721,0.21792 0.05517,-0.0552 0.06107,-0.19838 0.0131,-0.31823 z m -14.780754,-1.0066 c -0.04606,-0.11415 -0.08375,-0.0208 -0.08375,0.20754 0,0.2283 0.03769,0.3217 0.08375,0.20755 0.04606,-0.11415 0.04606,-0.30094 0,-0.41509 z m 0.171136,-1.07608 c -0.0421,-0.16155 -0.07931,-0.0696 -0.08269,0.20438 -0.0034,0.27396 0.03106,0.40614 0.07654,0.29373 0.04548,-0.11242 0.04825,-0.33657 0.0062,-0.49811 z m 0.160938,-1.0824 c -0.04606,-0.11416 -0.08375,-0.0208 -0.08375,0.20754 0,0.2283 0.03769,0.3217 0.08375,0.20755 0.04606,-0.11415 0.04606,-0.30094 0,-0.41509 z m 0.27028,-0.78891 c 0.04779,-0.18277 0.01915,-0.29043 -0.06365,-0.23926 -0.0828,0.0512 -0.150552,0.20072 -0.150552,0.33231 0,0.34365 0.112822,0.29464 0.214206,-0.0931 z m 14.639017,0.0117 c 0.05254,-0.085 0.01959,-0.20149 -0.07322,-0.25885 -0.09281,-0.0574 -0.168745,0.0122 -0.168745,0.15456 0,0.29165 0.09963,0.33459 0.241965,0.10429 z m 54.059931,15.9989 c -3.32891,-2.04596 -6.16369,-3.83104 -6.29951,-3.96686 -0.21856,-0.21857 -0.20379,-0.58608 0.12854,-3.19807 L 107.48601,142 l 0.90502,-1.32829 c 4.35559,-6.39274 7.19522,-10.30951 7.57063,-10.44237 0.36734,-0.13 1.20281,0.32275 6.84628,3.71012 3.53534,2.12201 6.47322,3.97635 6.52864,4.12075 0.0554,0.14441 -0.3483,1.61403 -0.89713,3.26582 l -0.99788,3.00326 -3.70767,5.55771 c -3.7318,5.59389 -4.01411,5.98874 -4.26344,5.96304 -0.075,-0.008 -2.86004,-1.68803 -6.18895,-3.73398 z m 6.78697,0.40707 c 0.35124,-1.2217 0.5912,-2.27065 0.53324,-2.33101 -0.24432,-0.2544 -12.1943,-7.44906 -12.26128,-7.38208 -0.0579,0.0579 -0.68861,4.32074 -0.7074,4.78128 -0.003,0.0617 0.57448,0.46119 1.28221,0.88786 l 1.28679,0.77577 -0.62264,-0.64581 c -0.4072,-0.42235 -0.62264,-0.80137 -0.62264,-1.0954 0,-0.39255 0.0656,-0.44961 0.51715,-0.44961 1.08971,0 2.80359,1.36098 2.80359,2.22629 0,0.25225 -0.12227,0.28776 -0.82216,0.23878 -0.45219,-0.0316 -0.76974,-0.01 -0.70566,0.0488 0.0641,0.0585 1.31197,0.83204 2.7731,1.71895 2.06417,1.25296 2.53626,1.48666 2.11697,1.04797 -0.53217,-0.5568 -0.72136,-1.33007 -0.37741,-1.54264 0.0892,-0.0551 0.45965,-0.0202 0.8232,0.0777 1.3649,0.36753 2.80912,1.92618 2.16328,2.33467 -0.36649,0.23179 -0.94561,0.18986 -1.53807,-0.11137 -0.29226,-0.14859 -0.47748,-0.213 -0.4116,-0.14312 0.18435,0.19556 3.02854,1.88539 3.08282,1.83161 0.0263,-0.0261 0.33527,-1.04702 0.68651,-2.26873 z m -3.20578,-2.32609 c -0.72028,-0.47709 -1.26446,-1.25008 -1.26446,-1.79611 0,-0.35902 0.80808,-0.35932 1.64193,-6.7e-4 0.99254,0.42698 1.88731,1.35322 1.81273,1.87649 -0.041,0.28747 -0.18073,0.36669 -0.71662,0.40622 -0.52289,0.0386 -0.83905,-0.0657 -1.47358,-0.486 z m 1.06006,-0.38199 c 0,-0.14549 -1.0185,-0.79154 -1.10752,-0.70251 -0.0507,0.0507 0.15907,0.24536 0.46616,0.43258 0.5942,0.36226 0.64136,0.38211 0.64136,0.26993 z m 0.66415,0.0176 c 0,-0.0297 -0.20547,-0.23521 -0.4566,-0.45661 l -0.4566,-0.40252 0.40252,0.4566 c 0.37622,0.42676 0.51068,0.53275 0.51068,0.40253 z m -4.77329,0.0367 c -1.23784,-0.61272 -2.00664,-1.97101 -1.2746,-2.25191 0.72387,-0.27778 3.05922,1.19183 3.05922,1.92512 0,0.72529 -0.71503,0.85622 -1.78462,0.32679 z m 0.8215,-0.52228 c -0.21127,-0.25257 -1.19536,-0.84323 -1.19536,-0.71746 0,0.0811 1.15762,0.89162 1.30712,0.91524 0.034,0.005 -0.0163,-0.0836 -0.11176,-0.19778 z m -1.37215,-0.55257 c -0.1061,-0.12785 -0.26279,-0.18926 -0.3482,-0.13647 -0.0918,0.0568 -0.0764,0.19095 0.0376,0.32841 0.1061,0.12785 0.26279,0.18926 0.3482,0.13648 0.0918,-0.0568 0.0765,-0.19096 -0.0376,-0.32842 z m -2.24875,-2.15867 c -0.78454,-0.38705 -1.56767,-1.27762 -1.60743,-1.82796 -0.03,-0.41586 0.0298,-0.49085 0.42818,-0.53658 1.33306,-0.15304 3.7409,2.11808 2.67801,2.52595 -0.43019,0.16508 -0.95059,0.10904 -1.49876,-0.16141 z m 0.42401,-0.82799 c -0.22503,-0.27115 -1.15317,-0.80514 -1.15317,-0.66345 0,0.0831 1.18677,0.92345 1.30415,0.92345 0.0356,0 -0.0323,-0.117 -0.15098,-0.26 z m 0.83927,0.20593 c 0,-0.0298 -0.20547,-0.23522 -0.4566,-0.45661 l -0.4566,-0.40252 0.40252,0.4566 c 0.37623,0.42676 0.51068,0.53274 0.51068,0.40253 z m 8.01617,7.35312 c -0.0487,-0.18627 -0.12566,-0.30157 -0.17101,-0.25622 -0.0898,0.0898 0.0688,0.59487 0.18688,0.59487 0.04,0 0.0328,-0.15239 -0.0159,-0.33865 z m 2.82976,-4.72651 c -0.28062,-0.20519 -0.28137,-0.24737 -0.0145,-0.80711 0.17488,-0.36671 0.21929,-0.62913 0.11718,-0.69224 -0.0905,-0.0559 -0.15377,-0.0401 -0.1407,0.0352 0.0589,0.33909 -0.0301,0.56258 -0.1857,0.4664 -0.0936,-0.0578 -0.15945,-0.0436 -0.14637,0.0317 0.0546,0.3144 -0.025,0.56574 -0.15391,0.48605 -0.0761,-0.047 -0.13837,0.006 -0.13837,0.11711 0,0.11145 -0.26795,0.6125 -0.59544,1.11345 -0.33191,0.50769 -0.75634,1.49521 -0.95898,2.2312 -0.19994,0.7262 -0.405,1.43601 -0.45568,1.57735 -0.0507,0.14133 0.5965,-0.77794 1.43819,-2.04283 1.41281,-2.12321 1.50759,-2.31643 1.23424,-2.51631 z m -5.94857,3.73569 c -0.11112,-0.17981 -1.07851,-0.71845 -1.07851,-0.60052 0,0.0674 1.02227,0.75904 1.13055,0.76494 0.0282,0.001 0.005,-0.0725 -0.052,-0.16442 z m 0.7479,0.10993 c 0,-0.0315 -0.16811,-0.19962 -0.37358,-0.37358 l -0.37359,-0.3163 0.3163,0.37358 c 0.29725,0.35108 0.43087,0.44917 0.43087,0.3163 z m 2.60398,-0.47196 c -0.053,-0.13245 -0.0923,-0.0931 -0.10031,0.10032 -0.007,0.17503 0.032,0.27309 0.0872,0.21792 0.0552,-0.0552 0.0611,-0.19838 0.0131,-0.31824 z m 0.33207,-1.16226 c -0.053,-0.13245 -0.0923,-0.0931 -0.10031,0.10032 -0.007,0.17503 0.032,0.27309 0.0872,0.21792 0.0552,-0.0552 0.0611,-0.19838 0.0131,-0.31824 z m 3.94999,-6.92949 c 2.05618,-3.05212 3.71963,-5.5682 3.69655,-5.59128 -0.0231,-0.0231 -2.79968,-1.68555 -6.17021,-3.69437 -6.12263,-3.64906 -6.12849,-3.65207 -6.40196,-3.2917 -0.934,1.23078 -7.30026,10.51896 -7.30311,10.65499 -0.004,0.20874 11.95872,7.54324 12.23625,7.50199 0.11218,-0.0167 1.88629,-2.52751 3.94248,-5.57963 z m -6.13682,2.60828 c -1.05484,-0.61151 -1.22495,-1.79161 -0.39047,-2.70865 0.47562,-0.52267 0.60905,-0.57671 1.42409,-0.57671 0.77258,0 0.96769,0.0684 1.38464,0.48534 0.41227,0.41227 0.48534,0.61562 0.48534,1.35077 0,1.18902 -0.48206,1.65281 -1.71044,1.64562 -0.47472,-0.003 -1.01165,-0.0911 -1.19316,-0.19637 z m 2.10451,-0.95597 c 0.42195,-0.45291 0.37644,-0.78513 -0.18436,-1.34594 -0.83298,-0.83297 -2.00522,-0.48732 -2.00522,0.59127 0,1.12148 1.39871,1.60357 2.18958,0.75467 z m -2.57263,-0.79039 c -0.0421,-0.16154 -0.0793,-0.0696 -0.0827,0.20439 -0.003,0.27396 0.0311,0.40614 0.0765,0.29373 0.0455,-0.11242 0.0483,-0.33657 0.006,-0.49812 z m 3.1496,0.0799 c -0.0461,-0.11415 -0.0837,-0.0207 -0.0837,0.20755 0,0.2283 0.0377,0.3217 0.0837,0.20755 0.0461,-0.11416 0.0461,-0.30095 0,-0.4151 z m -1.39359,-1.39569 c -0.11241,-0.0455 -0.33656,-0.0482 -0.49811,-0.006 -0.16155,0.0421 -0.0696,0.0793 0.20439,0.0827 0.27396,0.003 0.40614,-0.0311 0.29372,-0.0765 z m -2.36918,-1.66836 c -0.3703,-0.13483 -0.99169,-0.88645 -1.10452,-1.33602 -0.11425,-0.45521 0.35538,-1.44939 0.8509,-1.80128 0.18013,-0.12792 0.70391,-0.23258 1.16395,-0.23258 1.01883,0 1.64121,0.4876 1.91361,1.49921 0.19392,0.72017 0.15623,0.8383 -0.48846,1.53096 -0.35896,0.38567 -0.55403,0.45457 -1.2557,0.4435 -0.4569,-0.007 -0.9428,-0.0539 -1.07978,-0.10379 z m 1.9361,-1.16833 c 0.46484,-0.55251 0.30677,-1.01398 -0.49818,-1.45439 -0.55393,-0.30306 -0.64544,-0.31031 -1.04755,-0.083 -0.67068,0.37912 -0.81382,0.70684 -0.56796,1.3004 0.37747,0.9113 1.44563,1.03107 2.11369,0.237 z m -0.89837,-1.97944 c -0.11415,-0.0461 -0.30094,-0.0461 -0.41509,0 -0.11415,0.0461 -0.0208,0.0837 0.20754,0.0837 0.2283,0 0.3217,-0.0377 0.20755,-0.0837 z m -2.78666,-2.126 c -0.66508,-0.66509 -0.72448,-1.14552 -0.24259,-1.96226 1.03486,-1.75395 3.65189,-0.93978 3.65189,1.13612 0,0.24682 -0.1975,0.64458 -0.45606,0.91853 -0.40148,0.42537 -0.57107,0.4832 -1.41686,0.4832 -0.87489,0 -1.01223,-0.0515 -1.53638,-0.57559 z m 2.22156,-0.37912 c 0.18887,-0.15981 0.38956,-0.48619 0.446,-0.72528 0.20536,-0.87005 -1.38422,-1.52406 -2.10933,-0.86785 -1.00283,0.90755 0.62781,2.46936 1.66333,1.59313 z m -6.86579,12.57612 c -0.11112,-0.1798 -1.07851,-0.71845 -1.07851,-0.60051 0,0.0674 1.02226,0.75903 1.13055,0.76493 0.0282,0.002 0.005,-0.0725 -0.052,-0.16442 z m -3.95721,-1.53466 c -0.0461,-0.11415 -0.0838,-0.0208 -0.0838,0.20755 0,0.2283 0.0377,0.32169 0.0838,0.20754 0.0461,-0.11415 0.0461,-0.30094 0,-0.41509 z m 0.17053,-1.24528 c -0.0418,-0.15981 -0.0759,-0.029 -0.0759,0.29057 0,0.31962 0.0342,0.45037 0.0759,0.29056 0.0418,-0.15981 0.0418,-0.42132 0,-0.58113 z m 18.72779,-1.14914 c 0.68961,-1.03864 1.81876,-4.1412 1.56437,-4.29842 -0.0871,-0.0538 -0.14763,-0.0363 -0.13455,0.039 0.0589,0.33909 -0.0301,0.56258 -0.1857,0.4664 -0.0936,-0.0578 -0.15945,-0.0436 -0.14638,0.0317 0.0589,0.33909 -0.0301,0.56258 -0.1857,0.4664 -0.0936,-0.0578 -0.15945,-0.0436 -0.14637,0.0317 0.0589,0.33909 -0.0301,0.56258 -0.1857,0.4664 -0.0936,-0.0578 -0.15945,-0.0436 -0.14638,0.0317 0.0589,0.33909 -0.0301,0.56258 -0.18569,0.4664 -0.0936,-0.0578 -0.15945,-0.0436 -0.14638,0.0317 0.0589,0.33909 -0.0301,0.56258 -0.1857,0.4664 -0.0936,-0.0578 -0.15945,-0.0436 -0.14637,0.0317 0.0589,0.33909 -0.0301,0.56258 -0.1857,0.4664 -0.0936,-0.0578 -0.15945,-0.0436 -0.14638,0.0317 0.0491,0.28294 -0.0327,0.48074 -0.36572,0.88403 -0.18853,0.2283 -0.28697,0.30302 -0.21874,0.16604 0.073,-0.1466 0.0619,-0.19214 -0.0271,-0.11069 -0.0831,0.0761 -0.16049,0.20685 -0.17191,0.29056 -0.0114,0.0837 -0.0301,0.23133 -0.0415,0.32804 -0.0114,0.0967 -0.083,0.13735 -0.15911,0.0903 -0.0761,-0.047 -0.13837,0.0161 -0.13837,0.14036 0,0.17872 0.0672,0.18586 0.32193,0.0342 0.26177,-0.15586 0.35727,-0.13738 0.5111,0.0989 0.10404,0.15981 0.19765,0.29057 0.20802,0.29057 0.0104,0 0.30018,-0.42372 0.64404,-0.9416 z m -18.56115,-0.01 c -0.0421,-0.16154 -0.0793,-0.0696 -0.0827,0.20439 -0.003,0.27396 0.0311,0.40614 0.0765,0.29373 0.0455,-0.11242 0.0482,-0.33657 0.006,-0.49812 z m 0.16543,-1.33145 c -0.0418,-0.15981 -0.0759,-0.0291 -0.0759,0.29056 0,0.31962 0.0342,0.45038 0.0759,0.29057 0.0418,-0.15981 0.0418,-0.42132 0,-0.58113 z m 0.16155,-1.07924 c -0.0461,-0.11415 -0.0837,-0.0208 -0.0837,0.20754 0,0.2283 0.0377,0.3217 0.0837,0.20755 0.0461,-0.11415 0.0461,-0.30094 0,-0.41509 z m -92.536639,10.87201 c -0.289467,-0.18417 -3.932563,-14.84939 -3.758037,-15.12791 0.0791,-0.12623 1.822343,-0.70676 3.873882,-1.29007 3.486846,-0.99141 4.172086,-1.12525 10.508826,-2.05262 5.883477,-0.86103 6.810168,-0.96064 7.016595,-0.75422 0.130811,0.13082 0.962867,3.38438 1.849012,7.23014 1.234219,5.35637 1.569534,7.05832 1.433198,7.27445 -0.09789,0.15519 -1.724854,0.93602 -3.615483,1.73518 l -3.437506,1.45303 -6.505856,0.82998 c -6.878282,0.87749 -7.061422,0.89495 -7.364631,0.70204 z m 0.981776,-0.3141 c -0.11415,-0.0461 -0.300942,-0.0461 -0.415092,0 -0.114151,0.0461 -0.02075,0.0837 0.207546,0.0837 0.228301,0 0.321697,-0.0377 0.207546,-0.0837 z m 1.407856,-0.15638 c -0.05517,-0.0552 -0.19838,-0.0611 -0.318238,-0.0131 -0.132453,0.053 -0.09311,0.0923 0.100314,0.10032 0.175031,0.007 0.273096,-0.032 0.217924,-0.0872 z m 1.328296,-0.16604 c -0.05517,-0.0552 -0.19838,-0.0611 -0.318238,-0.0131 -0.132453,0.053 -0.09311,0.0923 0.100314,0.10031 0.175031,0.007 0.273097,-0.032 0.217924,-0.0872 z m 3.395364,-0.84427 c 3.440825,-0.43222 6.234283,-0.82613 6.207684,-0.87535 -0.0266,-0.0492 -0.780969,-3.19023 -1.676378,-6.98003 -0.895411,-3.7898 -1.686194,-6.95751 -1.757297,-7.03937 -0.180335,-0.20763 -12.957729,1.58252 -12.877652,1.80419 0.03399,0.0941 0.838883,3.25263 1.788659,7.019 0.949777,3.76637 1.801583,6.85008 1.892903,6.85268 0.09132,0.003 2.981257,-0.34889 6.422081,-0.78112 z m -5.010766,-1.33868 c -0.745561,-0.37245 -1.238275,-1.32739 -1.090719,-2.11393 0.115879,-0.61768 0.918279,-1.4141 1.424723,-1.4141 1.67163,0 2.758357,2.08194 1.726699,3.308 -0.505118,0.6003 -1.159598,0.67018 -2.060703,0.22003 z m 1.328296,-0.7054 c 0.448754,-0.44876 0.418158,-1.09127 -0.07547,-1.5849 -0.517199,-0.5172 -1.3305,-0.55082 -1.590111,-0.0657 -0.258088,0.48225 -0.04451,1.25535 0.455444,1.64861 0.534044,0.42008 0.791652,0.42051 1.210138,0.002 z m 0.777571,-0.69528 c -0.053,-0.13246 -0.09235,-0.0931 -0.100314,0.10031 -0.0072,0.17503 0.03203,0.2731 0.08721,0.21792 0.05517,-0.0552 0.06107,-0.19838 0.01311,-0.31823 z m 4.604551,0.62531 c -0.789624,-0.34381 -1.231196,-1.01615 -1.231196,-1.87462 0,-1.6189 1.772547,-2.28392 2.949772,-1.10669 0.674885,0.67488 0.881186,2.55316 0.280427,2.55316 -0.132843,0 -0.241532,0.10409 -0.241532,0.2313 0,0.4618 -0.913846,0.56416 -1.757471,0.19685 z m 1.110671,-0.64161 c 0.426231,-0.32463 0.523247,-0.88313 0.246403,-1.41849 -0.278179,-0.53793 -0.558558,-0.69256 -1.255789,-0.69256 -0.822203,0 -0.930792,1.09138 -0.182994,1.83918 0.526858,0.52685 0.781396,0.58489 1.19238,0.27187 z m -9.015994,-5.55222 c -0.941471,-0.0991 -1.627724,-0.96412 -1.627724,-2.05176 0,-0.6868 0.07682,-0.90353 0.439337,-1.2395 0.663165,-0.6146 1.55762,-0.55966 2.324086,0.14275 0.506115,0.46382 0.613114,0.68572 0.683408,1.41729 0.07568,0.78766 0.03939,0.91218 -0.394957,1.3549 -0.263065,0.26814 -0.553017,0.47704 -0.644338,0.46422 -0.09132,-0.0128 -0.442235,-0.0524 -0.779812,-0.0879 z m 0.406229,-0.32161 c -0.11415,-0.0461 -0.300942,-0.0461 -0.415092,0 -0.114151,0.0461 -0.02075,0.0838 0.207546,0.0838 0.228301,0 0.321697,-0.0377 0.207546,-0.0838 z m 0.319,-0.4969 c 0.346018,-0.31314 0.395647,-1.16897 0.09081,-1.56601 -0.549032,-0.71509 -1.627955,-0.72502 -1.852657,-0.017 -0.209096,0.6588 0.572152,1.84399 1.222225,1.85416 0.12979,0.002 0.372619,-0.11997 0.53962,-0.2711 z m 0.750775,-0.8428 c -0.0421,-0.16155 -0.07931,-0.0696 -0.08269,0.20438 -0.0034,0.27397 0.03106,0.40614 0.07654,0.29373 0.04548,-0.11241 0.04825,-0.33656 0.0062,-0.49811 z m -2.824269,-0.57391 c -0.053,-0.13246 -0.09235,-0.0931 -0.100314,0.10031 -0.0072,0.17503 0.03203,0.2731 0.08721,0.21792 0.05517,-0.0552 0.06107,-0.19838 0.01311,-0.31823 z m 6.899204,0.79105 c -0.55812,-0.51148 -0.620201,-0.65165 -0.620201,-1.40041 0,-0.6943 0.08073,-0.91631 0.487666,-1.34105 1.133834,-1.18347 3.079877,-0.0686 3.08151,1.76544 9.02e-4,1.01348 -0.534244,1.54439 -1.5567,1.54439 -0.647593,0 -0.872069,-0.0916 -1.392275,-0.56837 z m 1.576331,0.30202 c -0.05517,-0.0552 -0.19838,-0.0611 -0.318238,-0.0131 -0.132453,0.053 -0.09311,0.0923 0.100314,0.10032 0.175031,0.007 0.273096,-0.032 0.217924,-0.0872 z m 0.233039,-0.58924 c 0.720769,-0.83105 0.02699,-2.20735 -1.059534,-2.10188 -0.412247,0.04 -0.57072,0.1573 -0.695688,0.51484 -0.258572,0.73979 0.502095,1.87221 1.29862,1.93329 0.08061,0.006 0.28608,-0.14963 0.456602,-0.34625 z m 0.757176,-0.92614 c -0.0421,-0.16155 -0.07931,-0.0696 -0.08269,0.20438 -0.0034,0.27396 0.03106,0.40614 0.07654,0.29373 0.04548,-0.11242 0.04825,-0.33657 0.0062,-0.49811 z m -0.281099,-0.93755 c 0,-0.0345 -0.130754,-0.16523 -0.290565,-0.29056 -0.263344,-0.20653 -0.269216,-0.20066 -0.06269,0.0627 0.216906,0.27657 0.353253,0.36453 0.353253,0.22787 z m -1.207227,-0.70177 c -0.05517,-0.0552 -0.19838,-0.0611 -0.318238,-0.0131 -0.132453,0.053 -0.09311,0.0923 0.100314,0.10031 0.175031,0.007 0.273096,-0.032 0.217924,-0.0872 z m -2.490556,13.28296 c -0.05517,-0.0552 -0.198379,-0.0611 -0.318237,-0.0131 -0.132454,0.053 -0.09311,0.0923 0.100314,0.10031 0.17503,0.007 0.273096,-0.032 0.217923,-0.0872 z m 1.328297,-0.16604 c -0.05517,-0.0552 -0.19838,-0.0611 -0.318238,-0.0131 -0.132453,0.053 -0.09311,0.0924 0.100314,0.10032 0.175031,0.007 0.273096,-0.032 0.217924,-0.0872 z m 1.328296,-0.16603 c -0.05517,-0.0552 -0.19838,-0.0611 -0.318238,-0.0131 -0.132453,0.053 -0.09311,0.0923 0.100314,0.10031 0.175031,0.007 0.273096,-0.032 0.217924,-0.0872 z m 1.328296,-0.16604 c -0.05517,-0.0552 -0.19838,-0.0611 -0.318238,-0.0131 -0.132453,0.053 -0.09311,0.0924 0.100314,0.10031 0.175031,0.007 0.273097,-0.032 0.217924,-0.0872 z m 2.490556,-0.33207 c -0.05517,-0.0552 -0.198381,-0.0611 -0.318238,-0.0131 -0.132453,0.053 -0.09311,0.0923 0.100314,0.10031 0.17503,0.007 0.273096,-0.032 0.217924,-0.0872 z m 1.328296,-0.16604 c -0.05517,-0.0552 -0.198381,-0.0611 -0.318238,-0.0131 -0.132453,0.053 -0.09311,0.0923 0.100315,0.10031 0.175029,0.007 0.273096,-0.032 0.217923,-0.0872 z m 4.444949,-2.14174 c 1.461126,-0.61534 2.714155,-1.17107 2.784509,-1.23496 0.09183,-0.0834 -2.773916,-13.15621 -2.939345,-13.40858 -0.07782,-0.11872 -6.455099,1.8832 -6.517554,2.04596 -0.06187,0.16124 2.900421,13.00109 3.183823,13.80004 0.08587,0.24208 -0.06478,0.29401 3.488567,-1.20246 z m -2.299704,-5.2304 c -0.691946,-0.82233 -0.797026,-2.65448 -0.187217,-3.26429 0.218777,-0.21878 0.333903,-0.22534 0.771731,-0.044 1.036726,0.42942 1.486627,2.62684 0.712871,3.48183 -0.414541,0.45806 -0.810476,0.4051 -1.297385,-0.17356 z m 0.878471,-1.7029 c -0.131525,-0.37378 -0.332533,-0.70996 -0.446683,-0.74707 -0.308471,-0.10028 -0.263264,1.03121 0.06669,1.66927 l 0.27424,0.53032 0.172443,-0.38646 c 0.126771,-0.2841 0.109106,-0.56646 -0.06669,-1.06606 z m -1.037279,-0.41013 c -0.0421,-0.16154 -0.07931,-0.0696 -0.08269,0.20439 -0.0034,0.27396 0.03106,0.40614 0.07654,0.29373 0.04548,-0.11242 0.04825,-0.33657 0.0061,-0.49812 z m -16.265622,-4.12987 c -0.05517,-0.0552 -0.19838,-0.0611 -0.318238,-0.0131 -0.132453,0.053 -0.09311,0.0923 0.100315,0.10032 0.17503,0.007 0.273096,-0.032 0.217923,-0.0872 z m 2.476225,-0.48081 c -0.136981,-0.13698 -0.326764,-0.24906 -0.421741,-0.24906 -0.09498,0 -0.129679,0.11208 -0.07712,0.24906 0.05257,0.13698 0.242348,0.24905 0.421742,0.24905 0.289928,0 0.298497,-0.0277 0.07711,-0.24905 z m 1.968725,-0.0964 c 0.362626,-0.10199 0.253929,-0.11674 -0.399625,-0.0542 -0.635509,0.0608 -0.937885,0.0226 -1.035188,-0.13081 -0.102917,-0.16227 -0.138093,-0.14372 -0.139997,0.0738 -0.0028,0.32191 0.659391,0.36865 1.57481,0.11117 z m 1.788058,-0.42763 c -0.112413,-0.0455 -0.336563,-0.0482 -0.498111,-0.006 -0.161549,0.0421 -0.06958,0.0793 0.204386,0.0827 0.273961,0.003 0.406137,-0.0311 0.293725,-0.0765 z m 3.691164,-0.31893 c 1.413008,-0.16381 1.870647,-0.3718 0.913203,-0.41502 -0.410941,-0.0186 -1.027354,-0.0169 -1.369805,0.004 -0.482675,0.0291 -0.622639,-0.024 -0.622639,-0.23602 0,-0.23155 -0.121003,-0.25608 -0.788676,-0.15989 -1.76252,0.25391 -2.093861,0.33551 -2.159271,0.53173 -0.06919,0.20758 0.483675,0.27068 1.827197,0.20857 0.373381,-0.0173 0.622639,0.0473 0.622639,0.16114 0,0.10446 0.130754,0.15197 0.290565,0.10558 0.15981,-0.0464 0.738865,-0.13631 1.286787,-0.19984 z m 2.362569,-0.33662 c -0.05517,-0.0552 -0.19838,-0.0611 -0.318238,-0.0131 -0.132454,0.053 -0.09311,0.0923 0.100314,0.10032 0.17503,0.007 0.273096,-0.032 0.217924,-0.0872 z m 1.552881,-0.39779 c 0.08385,0 0.152457,-0.0644 0.152457,-0.14302 0,-0.0787 -0.186792,-0.1073 -0.415093,-0.0637 -0.228301,0.0436 -0.415092,0.15335 -0.415092,0.2438 0,0.0904 0.118185,0.11909 0.262636,0.0637 0.144448,-0.0554 0.33124,-0.10078 0.415092,-0.10078 z m 0.716921,-0.56989 c 0.391669,-0.0353 0.710239,-0.17043 0.806323,-0.34212 0.129333,-0.23111 0.101583,-0.26712 -0.149372,-0.19385 -0.169516,0.0495 -1.055378,0.18562 -1.968582,0.30251 -0.913203,0.11688 -1.529616,0.23885 -1.369805,0.27105 0.15981,0.0322 0.290565,0.11661 0.290565,0.1876 0,0.071 0.392262,0.0625 0.871694,-0.0189 0.479432,-0.0814 1.163061,-0.17422 1.519177,-0.20627 z m 1.760054,-0.2603 c 0,-0.0913 -0.07472,-0.16604 -0.166037,-0.16604 -0.09132,0 -0.166037,0.0747 -0.166037,0.16604 0,0.0913 0.07472,0.16604 0.166037,0.16604 0.09132,0 0.166037,-0.0747 0.166037,-0.16604 z m 1.411315,-0.49811 c 0.21896,-0.0941 0.247239,-0.14581 0.08302,-0.15183 -0.136981,-0.005 -0.361131,0.0633 -0.498111,0.15183 -0.303511,0.19614 -0.04136,0.19614 0.415092,0 z m 49.798346,14.72232 c -7.138908,-4.18891 -6.877774,-4.02075 -6.877774,-4.4292 0,-0.39473 6.86527,-12.74113 7.320686,-13.16541 0.354232,-0.33002 1.940757,-1.1084 2.264421,-1.11097 0.231119,-0.002 12.293382,7.08372 12.638473,7.42403 0.123021,0.12132 0.188489,0.31205 0.145487,0.42386 -0.043,0.1118 -1.625368,2.8901 -3.516369,6.17399 -3.913727,6.79653 -4.952879,8.27015 -5.790862,8.21199 -0.10668,-0.007 -2.889509,-1.59513 -6.184062,-3.52829 z m 9.962868,-3.50048 c 1.885373,-3.27965 3.369198,-6.02044 3.297387,-6.09065 -0.422162,-0.41275 -12.274482,-7.24847 -12.382233,-7.14134 -0.137367,0.13656 -6.899113,12.20254 -6.863255,12.24711 0.189792,0.23592 12.334149,7.15069 12.411175,7.0667 0.05993,-0.0654 1.65155,-2.80217 3.536926,-6.08182 z M 78.965,144.94338 c -0.856415,-0.69372 -0.966983,-1.824 -0.268488,-2.74464 0.421935,-0.55612 0.523206,-0.60228 1.33383,-0.60787 0.783386,-0.005 0.938805,0.0555 1.452824,0.56955 0.480025,0.48002 0.575596,0.6953 0.575596,1.29656 0,0.76577 -0.165375,1.06769 -0.825621,1.50731 -0.544837,0.36278 -1.808857,0.35112 -2.268141,-0.0209 z m 1.47806,0.0193 c -0.112412,-0.0455 -0.336562,-0.0482 -0.498111,-0.006 -0.161549,0.0421 -0.06957,0.0793 0.204387,0.0827 0.273961,0.003 0.406137,-0.0311 0.293724,-0.0765 z m 0.358315,-0.48383 c 0.374545,-0.37455 0.498538,-1.02805 0.284279,-1.4983 -0.366378,-0.80411 -1.627872,-0.89215 -2.115687,-0.14765 -0.675099,1.03033 0.969221,2.50814 1.831408,1.64595 z m 0.874338,-1.189 c -0.0421,-0.16155 -0.07931,-0.0696 -0.08269,0.20439 -0.0034,0.27396 0.03106,0.40613 0.07654,0.29372 0.04548,-0.11241 0.04825,-0.33656 0.0062,-0.49811 z m -3.156344,-0.0758 c -0.053,-0.13245 -0.09235,-0.0931 -0.100313,0.10031 -0.0072,0.17503 0.03203,0.2731 0.08721,0.21793 0.05517,-0.0552 0.06107,-0.19838 0.0131,-0.31824 z m 10.247289,-1.03151 c -0.466478,-0.46647 -0.564526,-0.68818 -0.564526,-1.27651 0,-0.46502 0.129585,-0.90239 0.373583,-1.26091 0.958881,-1.40894 3.443784,-0.58431 3.444878,1.1432 4.99e-4,0.87224 -0.276944,1.37303 -0.934595,1.68664 -0.942941,0.44966 -1.668776,0.35815 -2.31934,-0.29242 z m 1.548988,0.29818 c -0.05517,-0.0552 -0.198381,-0.0611 -0.318239,-0.0131 -0.132452,0.053 -0.09311,0.0923 0.100315,0.10031 0.17503,0.007 0.273096,-0.032 0.217924,-0.0872 z m 0.372817,-0.55961 c 0.451394,-0.45139 0.588426,-1.11047 0.330924,-1.59162 -0.263157,-0.49171 -0.678162,-0.63555 -1.42788,-0.49491 -1.039802,0.19507 -1.141694,1.50109 -0.163642,2.09748 0.65328,0.39836 0.853026,0.39662 1.260598,-0.0109 z m 0.949472,-1.28785 c -0.0421,-0.16155 -0.07931,-0.0696 -0.08269,0.20438 -0.0034,0.27397 0.03106,0.40614 0.07654,0.29373 0.04548,-0.11241 0.04825,-0.33656 0.0062,-0.49811 z m -3.156344,0.0902 c -0.053,-0.13245 -0.09235,-0.0931 -0.100313,0.10032 -0.0072,0.17503 0.03203,0.27309 0.08721,0.21792 0.05517,-0.0552 0.06107,-0.19838 0.0131,-0.31824 z m 1.754495,-1.40712 c -0.114151,-0.0461 -0.300943,-0.0461 -0.415093,0 -0.11415,0.0461 -0.02076,0.0837 0.207546,0.0837 0.228301,0 0.321697,-0.0377 0.207547,-0.0837 z m 2.12526,6.1288 c 0.295955,-0.52509 0.647905,-1.12282 0.782113,-1.32829 0.134206,-0.20547 0.167803,-0.37359 0.07466,-0.37359 -0.09315,0 -0.373082,0.35491 -0.62208,0.78868 -0.248999,0.43377 -0.598417,1.0315 -0.776485,1.3283 -0.17807,0.29679 -0.250083,0.53962 -0.160033,0.53962 0.09005,0 0.405874,-0.42963 0.701828,-0.95472 z m 3.293772,-6.74612 0.371278,-0.39521 -0.558321,-0.34506 c -0.594429,-0.36738 -1.28861,-0.32665 -1.28861,0.0756 0,0.12633 -0.0934,0.23007 -0.207546,0.23054 -0.192912,8e-4 1.005377,0.81272 1.216336,0.82415 0.05257,0.003 0.26266,-0.17266 0.466863,-0.39002 z m -3.136023,-1.34818 c -0.113684,-0.13698 -0.286547,-0.24906 -0.384139,-0.24906 -0.09759,0 -0.03241,0.1097 0.144858,0.24378 0.416499,0.31502 0.497834,0.31682 0.239281,0.005 z m 1.091316,-0.93275 c 0.04946,-0.08 -0.101141,-0.0728 -0.334661,0.0159 -0.275528,0.10475 -0.424581,0.10457 -0.424581,-5.1e-4 0,-0.0891 0.08717,-0.16192 0.19371,-0.16192 0.10654,0 0.154592,-0.0391 0.106782,-0.0869 -0.04781,-0.0478 -0.211603,-0.0391 -0.363985,0.0194 -0.203686,0.0782 -0.230348,0.1626 -0.100678,0.31884 0.181757,0.219 0.764141,0.1529 0.923413,-0.10481 z m -2.364631,-0.26325 c 0.159316,0.0611 0.204348,-0.0229 0.15385,-0.28705 -0.04943,-0.25857 -0.462951,-0.59881 -1.343882,-1.10573 -1.346516,-0.77483 -2.085465,-0.8841 -2.230412,-0.32982 -0.06103,0.23339 0.240473,0.48693 1.352898,1.13766 1.027591,0.6011 1.489392,0.78954 1.636868,0.66792 0.112986,-0.0932 0.306793,-0.13052 0.430678,-0.083 z m -5.11856,-2.53894 c -0.05613,-0.0908 -0.266014,-0.24528 -0.466399,-0.34322 -0.313878,-0.15341 -0.30685,-0.13105 0.05076,0.16145 0.464858,0.38023 0.565505,0.42425 0.415643,0.18177 z m 2.316876,-0.15546 c 0.05254,-0.085 0.03204,-0.1938 -0.04555,-0.24175 -0.07759,-0.048 -0.141073,0.0216 -0.141073,0.15456 0,0.27997 0.05236,0.30443 0.186619,0.0872 z m -0.478944,-0.36309 c 0.04946,-0.08 -0.0985,-0.0738 -0.328783,0.0137 -0.26759,0.10174 -0.454324,0.10156 -0.5174,-5e-4 -0.05428,-0.0878 -0.183281,-0.15969 -0.286667,-0.15969 -0.103385,0 -0.04884,0.10173 0.121217,0.22608 0.313062,0.22892 0.846925,0.18692 1.011633,-0.0796 z m -0.839445,-0.48313 c 0.04436,-0.0718 -0.07004,-0.0911 -0.254229,-0.0429 -0.18419,0.0482 -0.371189,0.14631 -0.415551,0.21809 -0.04436,0.0718 0.07004,0.0911 0.254229,0.0429 0.18419,-0.0482 0.371189,-0.1463 0.415551,-0.21809 z m -1.746205,-0.35262 c 0,-0.15079 -0.25179,-0.42273 -0.559533,-0.6043 -0.534971,-0.31564 -0.587279,-0.31789 -1.191584,-0.0513 l -0.632052,0.27886 0.513994,0.32544 c 0.657703,0.41642 1.869175,0.44966 1.869175,0.0513 z"
       id="path828"
       inkscape:connector-curvature="0" />
    <flowRoot
       xml:space="preserve"
       id="flowRoot830"
       style="font-style:normal;font-variant:normal;font-weight:normal;font-stretch:normal;font-size:40px;line-height:1.25;font-family:'Calisto MT';-inkscape-font-specification:'Calisto MT';letter-spacing:0px;word-spacing:0px;fill:#000000;fill-opacity:1;stroke:none"
       transform="scale(0.26458333)"><flowRegion
         id="flowRegion832"><rect
           id="rect834"
           width="8.9320145"
           height="56.699665"
           x="208.92513"
           y="430.10571" /></flowRegion><flowPara
         id="flowPara836"></flowPara></flowRoot>    <path
       style="fill:#b3b3b3;fill-opacity:1;stroke:#000000;stroke-width:0.08908886;stroke-miterlimit:4;stroke-dasharray:none;stroke-opacity:1"
       d="m 110.44025,568.83223 c -1.31472,-3.76092 -12.119883,-51.18464 -11.832622,-51.93323 0.352983,-0.91986 23.521472,-8.0688 24.115362,-7.44111 0.45476,0.48064 6.618,27.87507 9.87249,43.88136 0.95853,4.71423 1.13118,6.11202 0.7822,6.33279 -1.12233,0.71003 -19.90703,8.72906 -21.96743,9.37772 -0.53305,0.16781 -0.86101,0.0943 -0.97,-0.21753 z m 9.22986,-23.51785 c 1.76408,-2.0965 2.07859,-4.9973 0.93372,-8.61201 -0.80561,-2.54358 -1.47298,-3.48199 -3.24422,-4.56181 -1.66682,-1.01616 -2.60049,-0.93217 -3.66208,0.32946 -1.07254,1.27463 -1.48366,3.53269 -1.17715,6.46527 0.28611,2.7373 1.03527,4.47316 2.64226,6.12232 1.6985,1.74306 3.18555,1.82777 4.50747,0.25677 z"
       id="path840"
       inkscape:connector-curvature="0"
       transform="scale(0.26458333)" />
    <path
       style="fill:#b3b3b3;fill-opacity:1;stroke:#000000;stroke-width:0.08908886;stroke-miterlimit:4;stroke-dasharray:none;stroke-opacity:1"
       d="m 116.86609,541.6388 c -1.11237,-2.64278 -1.42113,-6.67725 -0.46582,-6.08684 0.62405,0.38569 2.05822,3.84489 2.06182,4.9731 0.002,0.60085 -0.2271,1.40442 -0.50893,1.78572 -0.48777,0.6599 -0.54008,0.62756 -1.08707,-0.67198 z"
       id="path842"
       inkscape:connector-curvature="0"
       transform="scale(0.26458333)" />
    <path
       style="fill:#b3b3b3;fill-opacity:1;stroke:#000000;stroke-width:0.08908886;stroke-miterlimit:4;stroke-dasharray:none;stroke-opacity:1"
       d="m 235.68461,565.41475 -1.4581,-3.125 1.04346,-0.11157 c 2.09911,-0.22443 2.54802,-2.11469 1.58354,-6.66791 -1.03294,-4.87643 -3.15776,-7.73177 -5.34511,-7.18279 -0.957,0.2402 -1.30232,1.51126 -1.00758,3.70871 0.11091,0.82696 0.0935,1.50356 -0.0387,1.50356 -0.2782,0 -4.77155,-9.3697 -5.07702,-10.58679 -0.15056,-0.5999 0.0526,-1.03645 0.76951,-1.65306 0.75646,-0.65069 1.01326,-1.2454 1.14935,-2.66178 0.38975,-4.05622 -2.07546,-10.54428 -4.30369,-11.32663 -1.72562,-0.60587 -2.18836,0.0185 -2.39328,3.22947 l -0.17999,2.82022 -0.44302,-1.42857 c -0.24366,-0.78571 -0.44685,-2.15179 -0.45153,-3.03571 -0.0155,-2.92248 1.53928,-22.67263 1.80911,-22.98103 0.14554,-0.16636 0.83413,0.71757 1.53019,1.96428 1.90918,3.41948 1.91356,3.4489 0.53322,3.58126 l -1.18942,0.11406 -0.11667,2.5 c -0.24986,5.35437 2.07466,10.89285 4.57178,10.89285 1.33896,0 1.79489,-0.62801 1.79489,-2.47232 0,-1.59319 0.008,-1.60389 0.58072,-0.78608 0.82557,1.17866 4.06214,8.4925 4.06214,9.17942 0,0.3154 -0.32143,0.98209 -0.71429,1.48153 -1.92441,2.44649 0.38783,12.03059 3.29422,13.65433 0.87268,0.48755 1.02956,0.48669 1.52456,-0.008 0.30347,-0.30348 0.69186,-1.26623 0.86308,-2.13946 l 0.31131,-1.58768 0.0662,1.42857 c 0.1944,4.19325 -0.69121,24.82143 -1.06564,24.82143 -0.13486,0 -0.90135,-1.40625 -1.7033,-3.125 z"
       id="path844"
       inkscape:connector-curvature="0"
       transform="scale(0.26458333)" />
    <path
       style="fill:#b3b3b3;fill-opacity:1;stroke:#000000;stroke-width:0.08908886;stroke-miterlimit:4;stroke-dasharray:none;stroke-opacity:1"
       d="m 446.50129,582.24806 c -2.16071,-1.28811 -3.99098,-2.40381 -4.06726,-2.47933 -0.0763,-0.0755 0.7746,-0.11328 1.89085,-0.0839 1.62696,0.0428 2.17738,-0.0944 2.77485,-0.69192 1.03149,-1.03148 0.65763,-2.2383 -1.36241,-4.39789 -2.19486,-2.34649 -4.511,-3.77001 -7.34216,-4.51256 -2.04231,-0.53566 -2.43925,-0.5507 -2.96732,-0.11244 -0.88037,0.73064 -0.52261,3.22718 0.69036,4.81746 0.52534,0.68876 0.81177,1.25228 0.63652,1.25228 -0.31739,0 -11.01527,-6.375 -15.432,-9.19612 l -2.32143,-1.48278 2.67858,-0.10698 c 2.48086,-0.0991 2.68711,-0.16722 2.79435,-0.92323 0.0637,-0.44894 -0.30791,-1.53926 -0.82578,-2.42293 -2.77773,-4.73984 -11.96857,-8.41168 -11.96857,-4.78157 0,1.45498 0.50373,2.57634 1.85107,4.12068 1.50165,1.7212 0.85505,1.48875 -3.29542,-1.18471 -2.24263,-1.44455 -3.19561,-2.26805 -3.19681,-2.76245 -0.003,-1.06839 2.13017,-15.6108 2.42184,-16.51354 0.24447,-0.75667 0.45895,-0.66985 5.1815,2.09734 2.70956,1.58767 4.87679,2.93636 4.81607,2.99709 -0.0607,0.0607 -0.99193,-0.13303 -2.06933,-0.43056 -2.76751,-0.76425 -3.92805,-0.30038 -3.91056,1.56307 0.007,0.74146 0.22113,1.72396 0.47593,2.18332 0.83492,1.50524 3.85638,4.30833 5.50336,5.10562 3.30129,1.59813 6.8652,1.13723 6.8652,-0.88782 0,-1.0766 -1.80077,-3.7729 -3.22113,-4.82302 -0.6164,-0.45572 -1.04428,-0.90504 -0.95084,-0.99848 0.0934,-0.0934 5.20875,2.86616 11.36736,6.5769 18.88859,11.38092 22.09033,13.41703 22.09033,14.0481 0,1.85232 -4.24453,16.39718 -4.78092,16.38295 -0.21871,-0.006 -2.16551,-1.06446 -4.32623,-2.35257 z m 3.06667,-13.38211 c 0.90058,-0.90059 0.70738,-2.07361 -0.63127,-3.83276 -2.54187,-3.3403 -9.23441,-6.30014 -11.50169,-5.08673 -0.98167,0.52538 -0.95249,1.2713 0.13514,3.45387 1.07564,2.15854 2.1846,3.25754 4.98157,4.93687 1.78347,1.07081 2.45269,1.27398 4.19643,1.27398 1.62711,0 2.23533,-0.16074 2.81982,-0.74523 z m -13.24524,-1.75477 c 0.41605,-0.41605 0.71429,-1.19048 0.71429,-1.85479 0,-3.26095 -9.98564,-9.01232 -12.30513,-7.08731 -1.152,0.95608 -0.54866,3.15313 1.48363,5.40263 3.13217,3.46693 8.35185,5.29483 10.10721,3.53947 z"
       id="path848"
       inkscape:connector-curvature="0"
       transform="scale(0.26458333)" />
    <path
       style="fill:#b3b3b3;fill-opacity:1;stroke:#000000;stroke-width:0.08908886;stroke-miterlimit:4;stroke-dasharray:none;stroke-opacity:1"
       d="m 473.64415,549.61118 c -0.35553,-0.39286 -0.94294,-0.71428 -1.30535,-0.71428 -1.11934,0 -0.75722,-1.3303 0.7808,-2.86831 0.79185,-0.79185 1.53515,-1.91685 1.65178,-2.5 0.11663,-0.58315 0.43304,-1.06027 0.70313,-1.06027 0.2793,0 0.49107,-0.36706 0.49107,-0.8512 0,-0.55084 0.25204,-0.91711 0.71429,-1.03799 0.48267,-0.12622 0.71428,-0.48715 0.71428,-1.11308 0,-0.55056 0.18109,-0.89008 0.44643,-0.83701 0.24771,0.0495 0.49517,-0.3317 0.55593,-0.85649 0.0669,-0.57799 0.3794,-1.01636 0.80357,-1.12728 0.40853,-0.10683 0.69407,-0.48912 0.69407,-0.92923 0,-0.42654 0.23011,-0.74772 0.53572,-0.74772 0.34798,0 0.53571,-0.34864 0.53571,-0.99489 0,-0.75095 0.17211,-0.9949 0.70188,-0.9949 0.56872,0 0.66183,0.17181 0.49076,0.90561 -0.41182,1.76658 -2.72834,7.72701 -3.94587,10.15279 -1.05009,2.09218 -3.61862,6.28854 -3.84913,6.28854 -0.04,0 -0.36354,-0.32143 -0.71907,-0.71429 z"
       id="path850"
       inkscape:connector-curvature="0"
       transform="scale(0.26458333)" />
    <path
       style="fill:#b3b3b3;fill-opacity:1;stroke:#000000;stroke-width:0.08908886;stroke-miterlimit:4;stroke-dasharray:none;stroke-opacity:1"
       d="m 455.96558,577.3362 c 0,-0.0727 0.48925,-1.77901 1.08723,-3.79187 1.07863,-3.63082 2.44718,-6.71648 4.5319,-10.21807 0.59617,-1.00135 1.19269,-2.16326 1.3256,-2.58203 0.13291,-0.41877 0.43275,-0.72448 0.66632,-0.67937 0.23356,0.0451 0.47552,-0.35993 0.53767,-0.90011 0.0687,-0.59751 0.32848,-0.98214 0.66321,-0.98214 0.38599,0 0.4718,0.18654 0.2875,0.625 -0.59838,1.42356 -0.59524,2.28017 0.0108,2.94983 0.88304,0.97575 0.48951,1.78802 -4.54038,9.3716 -3.68383,5.55413 -4.56984,6.75758 -4.56984,6.20716 z"
       id="path852"
       inkscape:connector-curvature="0"
       transform="scale(0.26458333)" />
    <path
       style="fill:#b3b3b3;fill-opacity:1;stroke:#000000;stroke-width:0.08908886;stroke-miterlimit:4;stroke-dasharray:none;stroke-opacity:1"
       d="m 531.19425,538.44321 c -2.32959,-1.02727 -4.23031,-2.02847 -4.22383,-2.22489 0.006,-0.19643 1.22948,-1.11277 2.71776,-2.03632 l 2.70597,-1.67918 v 1.04737 c 0,0.82163 0.19403,1.09608 0.90018,1.27331 2.10317,0.52786 7.11409,-1.63863 10.19333,-4.40714 2.25022,-2.02314 2.51336,-2.8451 1.2367,-3.86307 l -0.9757,-0.778 3.16203,-1.89896 c 1.73912,-1.04443 4.46978,-2.73746 6.06813,-3.7623 l 2.9061,-1.86334 -0.0489,1.12667 -0.049,1.12668 2.07805,-0.043 c 4.50578,-0.0933 13.20851,-5.98485 11.18865,-7.57446 -0.22526,-0.17727 -0.85814,-0.46664 -1.40642,-0.64304 l -0.99686,-0.32071 1.94285,-1.17749 1.94285,-1.17749 6.14926,1.61098 c 3.3821,0.88604 6.20302,1.66474 6.26873,1.73044 0.17177,0.17178 -4.81016,3.13051 -5.27118,3.13051 -0.212,0 -0.75781,-0.40178 -1.21292,-0.89286 -1.00639,-1.0859 -2.01154,-1.12069 -4.58292,-0.15862 -3.82765,1.43211 -9.41552,5.69719 -9.04003,6.90001 0.0689,0.22081 0.65032,0.66842 1.29198,0.99469 l 1.16666,0.59322 -2.08078,1.40303 c -2.80589,1.89196 -8.02386,4.94356 -8.96241,5.24144 -0.52434,0.16642 -0.98782,0.0139 -1.49296,-0.49121 -0.88156,-0.88157 -1.76784,-0.9149 -4.32844,-0.16278 -2.9802,0.87537 -5.87263,2.56262 -7.64947,4.46221 -2.25557,2.41139 -2.14584,3.87694 0.29242,3.90573 0.57595,0.007 0.2753,0.32709 -1.17337,1.25 -2.63946,1.68154 -3.61065,1.61007 -8.71645,-0.6414 z"
       id="path854"
       inkscape:connector-curvature="0"
       transform="scale(0.26458333)" />
    <path
       style="fill:#b3b3b3;fill-opacity:1;stroke:#000000;stroke-width:0.08908886;stroke-miterlimit:4;stroke-dasharray:none;stroke-opacity:1"
       d="m 555.82973,584.98064 c -2.13722,-1.36724 -4.21075,-2.77309 -4.60783,-3.12411 -1.53604,-1.35782 -6.21111,-9.27524 -16.40414,-27.78106 -7.18906,-13.05201 -7.90998,-14.46429 -7.38354,-14.46429 0.73887,0 7.02552,3.23094 8.37801,4.30576 0.72765,0.57826 1.46161,1.05138 1.63103,1.05138 0.16942,0 0.3096,0.28125 0.31152,0.625 0.005,0.95855 1.58763,4.11339 2.44589,4.87679 0.4207,0.37419 0.76491,0.91319 0.76491,1.19777 0,0.78474 2.55893,5.48833 3.0985,5.69539 0.26011,0.0998 0.47305,0.36517 0.47321,0.58969 5.7e-4,0.81575 2.13291,4.89122 2.66624,5.09587 0.30127,0.11561 0.54776,0.45128 0.54776,0.74593 0,0.79905 1.9885,4.80722 2.83337,5.71117 0.40488,0.43318 1.06264,1.66026 1.4617,2.72683 0.39905,1.06658 1.09094,2.33349 1.53752,2.81536 0.44659,0.48187 1.08801,1.59892 1.42539,2.48234 0.33738,0.88342 1.13254,2.38425 1.76701,3.33519 1.76482,2.64508 3.68546,6.60341 3.20328,6.60178 -0.14519,-3.6e-4 -2.01261,-1.11955 -4.14983,-2.48679 z m -8.49827,-16.97181 c 0.0915,-1.12383 -0.22803,-2.10295 -1.51655,-4.6475 -2.84555,-5.61938 -6.21057,-8.60146 -6.84657,-6.06744 -0.74314,2.9609 5.11139,12.5845 7.45326,12.25159 0.64473,-0.0916 0.81576,-0.38052 0.90986,-1.53665 z"
       id="path856"
       inkscape:connector-curvature="0"
       transform="scale(0.26458333)" />
    <path
       style="fill:#b3b3b3;fill-opacity:1;stroke:#000000;stroke-width:0.08908886;stroke-miterlimit:4;stroke-dasharray:none;stroke-opacity:1"
       d="m 698.28701,593.4813 c -3.14286,-0.17018 -8.81376,-0.42755 -12.602,-0.57192 l -6.88771,-0.26248 -11.24592,-21.86829 c -6.18526,-12.02755 -11.3312,-22.09053 -11.43544,-22.36215 -0.3308,-0.86207 -0.41174,-0.85637 26.18136,-1.84542 l 5.43886,-0.20229 11.79328,23.58444 c 6.4863,12.97143 11.79328,23.66527 11.79328,23.76407 0,0.24734 -6.17459,0.13557 -13.03571,-0.23596 z m -12.61329,-6.02331 c 0.95173,-0.95173 1.05215,-1.24151 0.83539,-2.41072 -0.76675,-4.13595 -5.75746,-9.36466 -8.93839,-9.36466 -0.50783,0 -1.3178,0.39448 -1.79995,0.87662 -1.87501,1.87502 -0.73501,6.29733 2.41695,9.37587 2.97913,2.90973 5.57174,3.43715 7.486,1.52289 z m 5.09004,-23.19511 c 0.83249,-0.31652 0.91611,-0.53041 0.91611,-2.34355 0,-3.81765 -2.8279,-7.94532 -6.63866,-9.68994 -2.40043,-1.09896 -3.29378,-0.98354 -4.33122,0.55961 -1.20561,1.79329 -1.114,4.32636 0.24198,6.69055 1.04212,1.81696 3.46077,4.21169 4.83504,4.78722 0.99458,0.41652 3.87692,0.41426 4.97675,-0.004 z"
       id="path858"
       inkscape:connector-curvature="0"
       transform="scale(0.26458333)" />
    <path
       style="fill:#b3b3b3;fill-opacity:1;stroke:#000000;stroke-width:0.08908886;stroke-miterlimit:4;stroke-dasharray:none;stroke-opacity:1"
       d="m 658.82272,544.81767 c 0,-0.23701 6.87064,-5.24061 7.00778,-5.10347 0.0675,0.0675 -0.0754,0.64736 -0.31747,1.28868 -0.39114,1.03625 -0.36298,1.22243 0.25305,1.67287 3.17212,2.31952 16.08973,-4.73488 13.77576,-7.52304 -0.8473,-1.02092 -3.14085,-1.01187 -7.14769,0.0282 -1.042,0.27048 1.00827,-1.29519 8.39286,-6.40911 4.71347,-3.26414 5.00627,-3.41306 5.10942,-2.59872 0.3279,2.58853 3.63627,2.83632 8.13116,0.60901 3.07091,-1.52169 5.86656,-4.07816 5.86656,-5.36465 0,-1.10594 -1.27356,-1.56291 -3.71975,-1.33468 -1.19521,0.11152 -2.57489,0.30431 -3.06596,0.42844 l -0.89286,0.22568 0.83738,-0.73676 c 0.99609,-0.8764 2.6301,-1.35219 6.18111,-1.79983 4.05336,-0.51096 25.23792,-2.2255 25.90436,-2.09653 0.37661,0.0729 -0.9357,1.26196 -3.60696,3.26827 -2.30943,1.73453 -4.27047,3.08219 -4.35786,2.9948 -0.0874,-0.0874 0.12736,-0.65974 0.47725,-1.27186 1.20899,-2.11518 -0.66233,-3.34929 -4.01294,-2.64649 -4.71814,0.98964 -10.17234,4.81955 -10.17234,7.14296 0,0.90364 0.73579,2.23403 1.23556,2.23403 0.6221,0 6.64834,-1.96705 7.75346,-2.53084 0.79054,-0.4033 1.50156,-0.66906 1.58006,-0.59056 0.13645,0.13645 -17.53191,13.1214 -17.85404,13.1214 -0.0856,0 0.16871,-0.60268 0.5652,-1.33929 0.58823,-1.09281 0.65012,-1.52003 0.33631,-2.32143 -0.32555,-0.83138 -0.59152,-0.98149 -1.73271,-0.9779 -4.02149,0.0126 -10.87455,3.45696 -12.67522,6.3705 l -0.76157,1.23225 0.86576,0.70357 c 0.73618,0.59827 1.22349,0.67381 3.25591,0.50472 1.31458,-0.10936 3.39607,-0.60516 4.62554,-1.10176 1.22947,-0.4966 2.28257,-0.85574 2.34024,-0.79807 0.0577,0.0577 -1.15289,1.00532 -2.69011,2.10591 l -2.79495,2.00106 -11.47516,0.38165 c -12.2437,0.4072 -17.21714,0.47393 -17.21714,0.23099 z"
       id="path860"
       inkscape:connector-curvature="0"
       transform="scale(0.26458333)" />
    <path
       style="fill:#b3b3b3;fill-opacity:1;stroke:#000000;stroke-width:0.06299534;stroke-miterlimit:4;stroke-dasharray:none;stroke-opacity:1"
       d="m 637.80968,92.810871 c -2.36486,-1.793369 -4.7311,-5.727978 -3.44476,-5.727978 1.67116,0 4.90057,3.94528 4.90948,5.997781 0.003,0.745184 -0.16785,0.71367 -1.46472,-0.269803 z"
       id="path864"
       inkscape:connector-curvature="0"
       transform="matrix(0.26458333,0,0,0.26458333,11.603722,130.21008)" />
    <path
       style="fill:#b3b3b3;fill-opacity:1;stroke:#000000;stroke-width:0.06299534;stroke-miterlimit:4;stroke-dasharray:none;stroke-opacity:1"
       d="m 641.95119,68.37185 c -0.97015,-0.886665 -1.69082,-1.860199 -2.32116,-3.135598 -0.93119,-1.884133 -0.95151,-2.39702 -0.095,-2.39702 0.74736,0 3.6698,2.895152 4.39847,4.357389 1.3724,2.754055 0.38538,3.339205 -1.98235,1.175229 z"
       id="path866"
       inkscape:connector-curvature="0"
       transform="matrix(0.26458333,0,0,0.26458333,11.603722,130.21008)" />
    <path
       style="fill:#b3b3b3;fill-opacity:1;stroke:#000000;stroke-width:0.01574883;stroke-miterlimit:4;stroke-dasharray:none;stroke-opacity:1"
       d="m 377.35763,59.642318 c -1.34334,-0.765534 -4.35371,-2.989636 -4.35371,-3.216577 0,-0.328837 2.44598,0.988171 3.69507,1.989568 0.5185,0.41568 1.37275,1.496574 1.18277,1.496574 -0.0281,0 -0.26397,-0.121304 -0.52413,-0.269565 z"
       id="path868"
       inkscape:connector-curvature="0"
       transform="matrix(0.26458333,0,0,0.26458333,11.603722,130.21008)" />
    <path
       style="fill:#b3b3b3;fill-opacity:1;stroke:#000000;stroke-width:0.01574883;stroke-miterlimit:4;stroke-dasharray:none;stroke-opacity:1"
       d="m 375.77417,70.120648 c -1.28143,-0.778026 -3.02421,-2.000645 -3.30689,-2.319893 l -0.12627,-0.142602 0.22097,0.03937 c 0.30876,0.05501 1.86919,0.845559 2.58851,1.311395 0.79546,0.515138 1.17923,0.843407 1.32883,1.136632 0.25256,0.495064 0.14499,0.491266 -0.70515,-0.0249 z"
       id="path870"
       inkscape:connector-curvature="0"
       transform="matrix(0.26458333,0,0,0.26458333,11.603722,130.21008)" />
    <path
       style="fill:#b3b3b3;fill-opacity:1;stroke:#000000;stroke-width:0.01574883;stroke-miterlimit:4;stroke-dasharray:none;stroke-opacity:1"
       d="m 389.31346,72.791139 c -1.37787,-0.764178 -4.50014,-3.050526 -4.36055,-3.193108 0.11113,-0.113523 1.44381,0.561865 2.57743,1.306222 0.87334,0.573448 1.52213,1.082627 1.83459,1.439817 0.30316,0.34656 0.53196,0.70027 0.45213,0.698961 -0.028,-4.61e-4 -0.25462,-0.11381 -0.5036,-0.251892 z"
       id="path872"
       inkscape:connector-curvature="0"
       transform="matrix(0.26458333,0,0,0.26458333,11.603722,130.21008)" />
    <path
       style="fill:#b3b3b3;fill-opacity:1;stroke:#000000;stroke-width:0.01574883;stroke-miterlimit:4;stroke-dasharray:none;stroke-opacity:1"
       d="m 401.21452,74.093801 c -0.63301,-0.336827 -2.16484,-1.27313 -2.55762,-1.56329 -0.51622,-0.381353 -0.8359,-0.682407 -0.94152,-0.886644 -0.0911,-0.176227 -0.09,-0.178365 0.0936,-0.178365 0.57129,0 3.62522,1.933907 3.91372,2.478365 0.0881,0.166357 0.0619,0.362689 -0.0485,0.362689 -0.0329,0 -0.23979,-0.09574 -0.4597,-0.212755 z"
       id="path874"
       inkscape:connector-curvature="0"
       transform="matrix(0.26458333,0,0,0.26458333,11.603722,130.21008)" />
    <path
       style="fill:#b3b3b3;fill-opacity:1;stroke:#000000;stroke-width:0.01574883;stroke-miterlimit:4;stroke-dasharray:none;stroke-opacity:1"
       d="m 398.79388,84.177928 c -0.81834,-0.433663 -3.07916,-1.973198 -3.59817,-2.45022 l -0.25254,-0.232106 0.23371,0.03125 c 0.51488,0.06884 2.50607,1.162425 3.33621,1.83228 0.37369,0.301535 0.68809,0.714392 0.69062,0.906897 10e-4,0.112259 -0.0544,0.10024 -0.40983,-0.0881 z"
       id="path876"
       inkscape:connector-curvature="0"
       transform="matrix(0.26458333,0,0,0.26458333,11.603722,130.21008)" />
    <path
       style="fill:#b3b3b3;fill-opacity:1;stroke:#000000;stroke-width:0.01574883;stroke-miterlimit:4;stroke-dasharray:none;stroke-opacity:1"
       d="m 383.63762,71.378328 c -0.69094,-0.321732 -1.13173,-1.207305 -0.77733,-1.561703 0.42497,-0.424974 1.59275,0.386692 1.68085,1.168275 0.0269,0.238557 0.01,0.287208 -0.14288,0.407326 -0.22067,0.17358 -0.36363,0.170968 -0.76064,-0.0139 z"
       id="path878"
       inkscape:connector-curvature="0"
       transform="matrix(0.26458333,0,0,0.26458333,11.603722,130.21008)" />
    <path
       style="fill:#b3b3b3;fill-opacity:1;stroke:#000000;stroke-width:0.01574883;stroke-miterlimit:4;stroke-dasharray:none;stroke-opacity:1"
       d="m 380.09865,59.73236 c -0.34168,-0.247512 -2.5064,-2.598397 -2.39263,-2.598397 0.0635,0 1.63673,1.415912 2.22623,2.00362 0.3086,0.307658 0.52155,0.571882 0.52155,0.647129 0,0.169673 -0.0611,0.16067 -0.35515,-0.05235 z"
       id="path880"
       inkscape:connector-curvature="0"
       transform="matrix(0.26458333,0,0,0.26458333,11.603722,130.21008)" />
    <path
       style="fill:#b3b3b3;fill-opacity:1;stroke:#000000;stroke-width:0.01574883;stroke-miterlimit:4;stroke-dasharray:none;stroke-opacity:1"
       d="m 403.44439,73.690995 c -0.6707,-0.677477 -1.99985,-2.162358 -1.93557,-2.162358 0.067,0 1.66467,1.436059 2.2574,2.029122 0.55784,0.558144 0.66477,0.748797 0.42,0.748797 -0.0838,0 -0.3564,-0.226232 -0.74183,-0.615561 z"
       id="path882"
       inkscape:connector-curvature="0"
       transform="matrix(0.26458333,0,0,0.26458333,11.603722,130.21008)" />
    <path
       style="fill:#b3b3b3;fill-opacity:1;stroke:#000000;stroke-width:0.01574883;stroke-miterlimit:4;stroke-dasharray:none;stroke-opacity:1"
       d="m 401.23238,84.055436 c -0.32453,-0.291781 -1.71196,-1.872251 -1.71196,-1.950156 0,-0.07063 0.93039,0.720891 1.62004,1.378232 0.63705,0.60721 0.79446,0.861435 0.53337,0.861435 -0.0657,0 -0.26435,-0.13028 -0.44145,-0.289511 z"
       id="path884"
       inkscape:connector-curvature="0"
       transform="matrix(0.26458333,0,0,0.26458333,11.603722,130.21008)" />
  </g>
</svg>
