<?xml version="1.0" encoding="UTF-8" standalone="no"?>
<!-- Created with Inkscape (http://www.inkscape.org/) -->

<svg
   xmlns:dc="http://purl.org/dc/elements/1.1/"
   xmlns:cc="http://creativecommons.org/ns#"
   xmlns:rdf="http://www.w3.org/1999/02/22-rdf-syntax-ns#"
   xmlns:svg="http://www.w3.org/2000/svg"
   xmlns="http://www.w3.org/2000/svg"
   xmlns:sodipodi="http://sodipodi.sourceforge.net/DTD/sodipodi-0.dtd"
   xmlns:inkscape="http://www.inkscape.org/namespaces/inkscape"
   width="56.316002mm"
   height="18.675003mm"
   viewBox="0 0 199.54489 66.17127"
   id="svg6309"
   version="1.1"
   inkscape:version="0.91 r13725"
   sodipodi:docname="drawing-2-3.svg">
  <sodipodi:namedview
     id="base"
     pagecolor="#ffffff"
     bordercolor="#666666"
     borderopacity="1.0"
     inkscape:pageopacity="0.0"
     inkscape:pageshadow="2"
     inkscape:zoom="0.5"
     inkscape:cx="69.92126"
     inkscape:cy="-155.85039"
     inkscape:document-units="px"
     inkscape:current-layer="layer1"
     showgrid="false"
     inkscape:window-width="1855"
     inkscape:window-height="1056"
     inkscape:window-x="65"
     inkscape:window-y="24"
     inkscape:window-maximized="1"
     fit-margin-top="0"
     fit-margin-left="0"
     fit-margin-right="0"
     fit-margin-bottom="0" />
  <defs
     id="defs6311" />
  <metadata
     id="metadata6314">
    <rdf:RDF>
      <cc:Work
         rdf:about="">
        <dc:format>image/svg+xml</dc:format>
        <dc:type
           rdf:resource="http://purl.org/dc/dcmitype/StillImage" />
        <dc:title></dc:title>
      </cc:Work>
    </rdf:RDF>
  </metadata>
  <g
     inkscape:label="Layer 1"
     inkscape:groupmode="layer"
     id="layer1"
     transform="translate(-305.07874,-310.34055)">
    <g
       id="g6338">
      <g
         word-spacing="normal"
         letter-spacing="normal"
         font-size-adjust="none"
         font-stretch="normal"
         font-weight="normal"
         font-variant="normal"
         font-style="normal"
         stroke-miterlimit="10.433"
         xml:space="preserve"
         transform="matrix(1.0629921,0,0,-1.0629921,-186.02362,789.27165)"
         id="content"
         style="font-style:normal;font-variant:normal;font-weight:normal;font-stretch:normal;letter-spacing:normal;word-spacing:normal;text-anchor:start;fill:none;fill-opacity:1;fill-rule:evenodd;stroke:#000000;stroke-linecap:butt;stroke-linejoin:miter;stroke-miterlimit:10.43299961;stroke-dasharray:none;stroke-dashoffset:0;stroke-opacity:1"><path
           id="path6341"
           d="m 479.61,432.35 -1.19,0 c -0.1,-0.77 -0.45,-2.83 -0.9,-3.18 -0.28,-0.21 -2.97,-0.21 -3.45,-0.21 l -6.42,0 c 3.66,3.25 4.88,4.22 6.97,5.86 2.58,2.06 4.99,4.22 4.99,7.54 0,4.21 -3.7,6.79 -8.16,6.79 -4.33,0 -7.25,-3.03 -7.25,-6.24 0,-1.78 1.5,-1.95 1.84,-1.95 0.84,0 1.85,0.59 1.85,1.85 0,0.62 -0.24,1.85 -2.05,1.85 1.08,2.47 3.45,3.24 5.09,3.24 3.48,0 5.3,-2.72 5.3,-5.54 0,-3.04 -2.16,-5.45 -3.28,-6.7 l -8.4,-8.3 c -0.35,-0.31 -0.35,-0.38 -0.35,-1.36 l 14.36,0 z"
           inkscape:connector-curvature="0"
           style="fill:#000000;stroke-width:0" /><path
           id="path6343"
           d="m 505.41,442.36 0.04,0.03 0.03,0.03 0.03,0.04 0.03,0.03 0.03,0.03 0.03,0.03 0.02,0.03 0.03,0.03 0.02,0.03 0.02,0.03 0.02,0.03 0.02,0.02 0.02,0.03 0.02,0.02 0.01,0.03 0.02,0.02 0.01,0.03 0.01,0.02 0.01,0.03 0.01,0.02 0.01,0.02 0.01,0.03 0.01,0.02 0.01,0.02 0,0.02 0.01,0.03 0,0.02 0,0.02 0.01,0.02 0,0.03 0,0.04 c 0,0.56 -0.46,0.87 -0.84,0.87 -0.35,0 -0.45,-0.1 -0.87,-0.52 l -7.64,-7.6 -7.67,7.63 c -0.35,0.35 -0.49,0.49 -0.8,0.49 -0.49,0 -0.87,-0.38 -0.87,-0.87 0,-0.31 0.1,-0.42 0.52,-0.83 l 7.6,-7.61 -7.6,-7.6 c -0.49,-0.49 -0.52,-0.66 -0.52,-0.87 0,-0.49 0.38,-0.87 0.87,-0.87 0.31,0 0.42,0.1 0.8,0.48 l 7.67,7.64 7.95,-7.95 c 0.18,-0.1 0.35,-0.17 0.56,-0.17 0.38,0 0.84,0.31 0.84,0.87 0,0.28 -0.07,0.35 -0.18,0.45 -0.07,0.14 -6.83,6.91 -7.95,7.99 z"
           inkscape:connector-curvature="0"
           style="fill:#000000;stroke-width:0" /><path
           id="path6345"
           d="m 521.45,434.93 0,0.28 0.02,0.29 0.03,0.28 0.04,0.27 0.05,0.28 0.07,0.27 0.07,0.27 0.08,0.26 0.09,0.26 0.11,0.26 0.11,0.25 0.12,0.25 0.13,0.24 0.14,0.25 0.14,0.23 0.16,0.24 0.16,0.23 0.17,0.22 0.17,0.22 0.18,0.22 0.19,0.21 0.2,0.21 0.2,0.2 0.21,0.2 0.21,0.19 0.22,0.19 0.22,0.18 0.23,0.18 0.23,0.17 0.24,0.17 0.24,0.16 0.24,0.15 c 0.66,0.42 2.2,1.5 2.2,3.63 0,1.85 -1.36,4.71 -7.29,4.71 -4.29,0 -6.59,-2.27 -6.59,-4.64 0,-1.43 1.15,-1.74 1.67,-1.74 0.67,0 1.64,0.49 1.64,1.67 0,0.21 0,1.5 -1.64,1.64 0.63,0.98 2.24,2.09 4.82,2.09 3.97,0 4.22,-1.99 4.22,-3.59 0,-1.85 -0.7,-2.55 -1.26,-3.03 -2.34,-2.09 -3.62,-5.16 -3.62,-7.85 l 0,-1.46 c 0,-0.7 0,-0.87 0.58,-0.87 0.6,0 0.6,0.24 0.6,0.97 z"
           inkscape:connector-curvature="0"
           style="fill:#ff0000;stroke:#ff0000;stroke-width:0" /><path
           id="path6347"
           d="m 522.84,427.99 0,0.11 -0.01,0.11 -0.01,0.11 -0.02,0.1 -0.02,0.11 -0.03,0.1 -0.04,0.09 -0.03,0.1 -0.05,0.09 -0.04,0.09 -0.05,0.08 -0.06,0.08 -0.06,0.08 -0.06,0.08 -0.06,0.07 -0.07,0.07 -0.07,0.06 -0.08,0.06 -0.07,0.06 -0.08,0.05 -0.08,0.05 -0.09,0.05 -0.08,0.04 -0.09,0.04 -0.09,0.03 -0.09,0.03 -0.09,0.02 -0.09,0.03 -0.09,0.01 -0.1,0.01 -0.09,0.01 -0.1,0 c -1.21,0 -2.01,-0.97 -2.01,-1.99 0,-1.22 0.97,-2.02 1.98,-2.02 1.22,0 2.02,0.98 2.02,1.99 z"
           inkscape:connector-curvature="0"
           style="fill:#ff0000;stroke:#ff0000;stroke-width:0" /><polyline
           id="polyline6349"
           points="462,418 531.84,418 531.84,420.04 462,420.04 "
           style="fill:#000000;fill-rule:nonzero;stroke-width:0" /><path
           id="path6351"
           d="m 471.52,400.64 0.25,0 0.25,-0.02 0.24,-0.02 0.24,-0.04 0.23,-0.05 0.23,-0.06 0.22,-0.07 0.22,-0.09 0.21,-0.09 0.2,-0.11 0.19,-0.11 0.19,-0.13 0.18,-0.13 0.18,-0.15 0.17,-0.16 0.15,-0.17 0.16,-0.18 0.14,-0.2 0.13,-0.2 0.13,-0.21 0.12,-0.23 0.11,-0.23 0.09,-0.25 0.09,-0.26 0.08,-0.27 0.07,-0.28 0.06,-0.29 0.05,-0.3 0.04,-0.31 0.03,-0.32 0.02,-0.33 0,-0.35 c 0,-4.32 -2.51,-5.61 -4.53,-5.61 -1.39,0 -4.46,0.38 -5.93,2.44 1.64,0.07 2.02,1.22 2.02,1.95 0,1.12 -0.83,1.92 -1.91,1.92 -0.98,0 -1.96,-0.59 -1.96,-2.02 0,-3.28 3.63,-5.41 7.85,-5.41 4.84,0 8.19,3.25 8.19,6.73 0,2.72 -2.23,5.44 -6.06,6.24 3.66,1.33 4.98,3.94 4.98,6.07 0,2.76 -3.17,4.81 -7.04,4.81 -3.87,0 -6.84,-1.88 -6.84,-4.67 0,-1.18 0.77,-1.85 1.82,-1.85 1.08,0 1.77,0.8 1.77,1.78 0,1.01 -0.69,1.75 -1.77,1.81 1.22,1.54 3.62,1.92 4.92,1.92 1.56,0 3.76,-0.76 3.76,-3.8 0,-1.46 -0.49,-3.07 -1.39,-4.15 -1.16,-1.32 -2.13,-1.39 -3.87,-1.5 -0.88,-0.07 -0.95,-0.07 -1.12,-0.1 -0.07,0 -0.35,-0.07 -0.35,-0.46 0,-0.49 0.31,-0.49 0.91,-0.49 z"
           inkscape:connector-curvature="0"
           style="fill:#000000;stroke-width:0" /><path
           id="path6353"
           d="m 505.41,405.36 0.04,0.03 0.03,0.03 0.03,0.04 0.03,0.03 0.03,0.03 0.03,0.03 0.02,0.03 0.03,0.03 0.02,0.03 0.02,0.03 0.02,0.03 0.02,0.02 0.02,0.03 0.02,0.02 0.01,0.03 0.02,0.02 0.01,0.03 0.01,0.02 0.01,0.03 0.01,0.02 0.01,0.02 0.01,0.03 0.01,0.02 0.01,0.02 0,0.02 0.01,0.03 0,0.02 0,0.02 0.01,0.02 0,0.03 0,0.04 c 0,0.56 -0.46,0.87 -0.84,0.87 -0.35,0 -0.45,-0.1 -0.87,-0.52 l -7.64,-7.6 -7.67,7.63 c -0.35,0.35 -0.49,0.49 -0.8,0.49 -0.49,0 -0.87,-0.38 -0.87,-0.87 0,-0.31 0.1,-0.42 0.52,-0.83 l 7.6,-7.61 -7.6,-7.6 c -0.49,-0.49 -0.52,-0.66 -0.52,-0.87 0,-0.49 0.38,-0.87 0.87,-0.87 0.31,0 0.42,0.1 0.8,0.48 l 7.67,7.64 7.95,-7.95 c 0.18,-0.1 0.35,-0.17 0.56,-0.17 0.38,0 0.84,0.31 0.84,0.87 0,0.28 -0.07,0.35 -0.18,0.45 -0.07,0.14 -6.83,6.91 -7.95,7.99 z"
           inkscape:connector-curvature="0"
           style="fill:#000000;stroke-width:0" /><path
           id="path6355"
           d="m 521.45,397.93 0,0.28 0.02,0.29 0.03,0.28 0.04,0.27 0.05,0.28 0.07,0.27 0.07,0.27 0.08,0.26 0.09,0.26 0.11,0.26 0.11,0.25 0.12,0.25 0.13,0.24 0.14,0.25 0.14,0.23 0.16,0.24 0.16,0.23 0.17,0.22 0.17,0.22 0.18,0.22 0.19,0.21 0.2,0.21 0.2,0.2 0.21,0.2 0.21,0.19 0.22,0.19 0.22,0.18 0.23,0.18 0.23,0.17 0.24,0.17 0.24,0.16 0.24,0.15 c 0.66,0.42 2.2,1.5 2.2,3.63 0,1.85 -1.36,4.71 -7.29,4.71 -4.29,0 -6.59,-2.27 -6.59,-4.64 0,-1.43 1.15,-1.74 1.67,-1.74 0.67,0 1.64,0.49 1.64,1.67 0,0.21 0,1.5 -1.64,1.64 0.63,0.98 2.24,2.09 4.82,2.09 3.97,0 4.22,-1.99 4.22,-3.59 0,-1.85 -0.7,-2.55 -1.26,-3.03 -2.34,-2.09 -3.62,-5.16 -3.62,-7.85 l 0,-1.46 c 0,-0.7 0,-0.87 0.58,-0.87 0.6,0 0.6,0.24 0.6,0.97 z"
           inkscape:connector-curvature="0"
           style="fill:#ff0000;stroke:#ff0000;stroke-width:0" /><path
           id="path6357"
           d="m 522.84,390.99 0,0.11 -0.01,0.11 -0.01,0.11 -0.02,0.1 -0.02,0.11 -0.03,0.1 -0.04,0.09 -0.03,0.1 -0.05,0.09 -0.04,0.09 -0.05,0.08 -0.06,0.08 -0.06,0.08 -0.06,0.08 -0.06,0.07 -0.07,0.07 -0.07,0.06 -0.08,0.06 -0.07,0.06 -0.08,0.05 -0.08,0.05 -0.09,0.05 -0.08,0.04 -0.09,0.04 -0.09,0.03 -0.09,0.03 -0.09,0.02 -0.09,0.03 -0.09,0.01 -0.1,0.01 -0.09,0.01 -0.1,0 c -1.21,0 -2.01,-0.97 -2.01,-1.99 0,-1.22 0.97,-2.02 1.98,-2.02 1.22,0 2.02,0.98 2.02,1.99 z"
           inkscape:connector-curvature="0"
           style="fill:#ff0000;stroke:#ff0000;stroke-width:0" /><path
           id="path6359"
           d="m 585.22,422.29 0.14,0 0.15,0 0.15,0.01 0.07,0 0.07,0 0.07,0.01 0.08,0.01 0.07,0.01 0.07,0.01 0.06,0.02 0.07,0.01 0.07,0.02 0.06,0.02 0.06,0.03 0.06,0.03 0.05,0.03 0.06,0.03 0.05,0.04 0.04,0.04 0.05,0.05 0.03,0.05 0.02,0.03 0.02,0.02 0.02,0.03 0.01,0.03 0.02,0.03 0.01,0.04 0.01,0.03 0.01,0.04 0.01,0.03 0.01,0.04 0.01,0.04 0,0.04 0.01,0.04 0,0.04 0,0.05 0,0.05 c 0,0.99 -0.94,0.99 -1.64,0.99 l -29.84,0 c -0.7,0 -1.64,0 -1.64,-0.99 0,-1 0.94,-1 1.69,-1 z"
           inkscape:connector-curvature="0"
           style="fill:#000000;stroke-width:0" /><path
           id="path6361"
           d="m 585.27,412.62 0.13,0.01 0.14,0 0.14,0 0.07,0.01 0.07,0 0.07,0.01 0.07,0.01 0.07,0.01 0.07,0.01 0.06,0.01 0.07,0.02 0.06,0.02 0.06,0.02 0.06,0.02 0.06,0.03 0.06,0.03 0.05,0.04 0.05,0.04 0.04,0.04 0.05,0.04 0.02,0.03 0.02,0.03 0.01,0.02 0.02,0.03 0.02,0.03 0.01,0.03 0.02,0.03 0.01,0.03 0.01,0.04 0.01,0.03 0.01,0.04 0.01,0.04 0.01,0.04 0,0.04 0.01,0.04 0,0.04 0,0.05 0,0.04 c 0,1 -0.94,1 -1.69,1 l -29.74,0 c -0.75,0 -1.69,0 -1.69,-1 0,-1 0.94,-1 1.64,-1 z"
           inkscape:connector-curvature="0"
           style="fill:#000000;stroke-width:0" /><polyline
           id="polyline6363"
           points="610,418 649.72,418 649.72,420.04 610,420.04 "
           style="fill:#000000;fill-rule:nonzero;stroke-width:0" /><path
           id="path6365"
           d="m 621.68,411.18 0,0.04 0,0.04 0,0.04 0,0.04 0,0.04 0,0.04 0,0.03 0,0.04 -0.01,0.03 0,0.03 0,0.04 0,0.03 -0.01,0.02 0,0.03 0,0.03 -0.01,0.03 0,0.02 0,0.02 -0.02,0.05 -0.01,0.04 -0.01,0.04 -0.02,0.03 -0.02,0.03 -0.02,0.03 -0.03,0.03 -0.02,0.02 -0.03,0.02 -0.04,0.02 -0.03,0.01 -0.04,0.01 -0.05,0.02 -0.05,0 -0.02,0.01 -0.03,0 -0.03,0.01 -0.02,0 -0.03,0 -0.03,0 -0.04,0 -0.03,0.01 -0.03,0 -0.04,0 -0.03,0 -0.04,0 -0.04,0 -0.04,0 -0.04,0 -0.04,0 -0.05,0 -0.04,0 c -2.24,-2.19 -5.41,-2.23 -6.84,-2.23 l 0,-1.25 c 0.84,0 3.14,0 5.05,0.97 l 0,-17.78 c 0,-1.15 0,-1.61 -3.48,-1.61 l -1.33,0 0,-1.25 12.45,0 0,1.25 -1.32,0 c -3.49,0 -3.49,0.46 -3.49,1.61 z"
           inkscape:connector-curvature="0"
           style="fill:#000000;stroke-width:0" /><path
           id="path6367"
           d="m 647.61,395.35 -1.19,0 c -0.1,-0.77 -0.45,-2.83 -0.9,-3.18 -0.28,-0.21 -2.97,-0.21 -3.45,-0.21 l -6.42,0 c 3.66,3.25 4.88,4.22 6.97,5.86 2.58,2.06 4.99,4.22 4.99,7.54 0,4.21 -3.7,6.79 -8.16,6.79 -4.33,0 -7.25,-3.03 -7.25,-6.24 0,-1.78 1.5,-1.95 1.84,-1.95 0.84,0 1.86,0.59 1.86,1.85 0,0.62 -0.25,1.85 -2.06,1.85 1.08,2.47 3.45,3.24 5.09,3.24 3.48,0 5.3,-2.72 5.3,-5.54 0,-3.04 -2.16,-5.45 -3.28,-6.7 l -8.4,-8.3 c -0.35,-0.31 -0.35,-0.38 -0.35,-1.36 l 14.36,0 z"
           inkscape:connector-curvature="0"
           style="fill:#000000;stroke-width:0" /></g>    </g>
  </g>
</svg>
