<?xml version="1.0" encoding="UTF-8" standalone="no"?>
<!-- Created with Inkscape (http://www.inkscape.org/) -->

<svg
   xmlns:dc="http://purl.org/dc/elements/1.1/"
   xmlns:cc="http://creativecommons.org/ns#"
   xmlns:rdf="http://www.w3.org/1999/02/22-rdf-syntax-ns#"
   xmlns:svg="http://www.w3.org/2000/svg"
   xmlns="http://www.w3.org/2000/svg"
   xmlns:sodipodi="http://sodipodi.sourceforge.net/DTD/sodipodi-0.dtd"
   xmlns:inkscape="http://www.inkscape.org/namespaces/inkscape"
   width="250.37999mm"
   height="56.854919mm"
   viewBox="0 0 887.1732 201.45444"
   id="svg5364"
   version="1.1"
   inkscape:version="0.91 r13725"
   sodipodi:docname="lcd.svg">
  <sodipodi:namedview
     id="base"
     pagecolor="#ffffff"
     bordercolor="#666666"
     borderopacity="1.0"
     inkscape:pageopacity="0.0"
     inkscape:pageshadow="2"
     inkscape:zoom="0.98994949"
     inkscape:cx="276.79225"
     inkscape:cy="58.20528"
     inkscape:document-units="px"
     inkscape:current-layer="layer1"
     showgrid="false"
     inkscape:window-width="1855"
     inkscape:window-height="1056"
     inkscape:window-x="65"
     inkscape:window-y="24"
     inkscape:window-maximized="1"
     fit-margin-top="0"
     fit-margin-left="0"
     fit-margin-right="0"
     fit-margin-bottom="0" />
  <defs
     id="defs5366" />
  <metadata
     id="metadata5369">
    <rdf:RDF>
      <cc:Work
         rdf:about="">
        <dc:format>image/svg+xml</dc:format>
        <dc:type
           rdf:resource="http://purl.org/dc/dcmitype/StillImage" />
        <dc:title></dc:title>
      </cc:Work>
    </rdf:RDF>
  </metadata>
  <g
     inkscape:label="Layer 1"
     inkscape:groupmode="layer"
     id="layer1"
     transform="translate(29.20699,-263.21613)">
    <g
       transform="translate(-334.28572,-25.714285)"
       id="g5917">
      <g
         style="font-style:normal;font-variant:normal;font-weight:normal;font-stretch:normal;letter-spacing:normal;word-spacing:normal;text-anchor:start;fill:none;fill-opacity:1;fill-rule:evenodd;stroke:#000000;stroke-linecap:butt;stroke-linejoin:miter;stroke-miterlimit:10.43299961;stroke-dasharray:none;stroke-dashoffset:0;stroke-opacity:1"
         id="content"
         transform="matrix(1.0629921,0,0,-1.0629921,-186.02362,789.27165)"
         xml:space="preserve"
         stroke-miterlimit="10.433"
         font-style="normal"
         font-variant="normal"
         font-weight="normal"
         font-stretch="normal"
         font-size-adjust="none"
         letter-spacing="normal"
         word-spacing="normal"><path
           style="fill:#000000;stroke-width:0"
           inkscape:connector-curvature="0"
           d="m 471.52,437.64 0.25,0 0.25,-0.02 0.24,-0.02 0.24,-0.04 0.23,-0.05 0.23,-0.06 0.22,-0.07 0.22,-0.09 0.21,-0.09 0.2,-0.11 0.19,-0.11 0.19,-0.13 0.18,-0.13 0.18,-0.15 0.17,-0.16 0.15,-0.17 0.16,-0.18 0.14,-0.2 0.13,-0.2 0.13,-0.21 0.12,-0.23 0.11,-0.23 0.09,-0.25 0.09,-0.26 0.08,-0.27 0.07,-0.28 0.06,-0.29 0.05,-0.3 0.04,-0.31 0.03,-0.32 0.02,-0.33 0,-0.35 c 0,-4.32 -2.51,-5.61 -4.53,-5.61 -1.39,0 -4.46,0.38 -5.93,2.44 1.64,0.07 2.02,1.22 2.02,1.95 0,1.12 -0.83,1.92 -1.91,1.92 -0.98,0 -1.96,-0.59 -1.96,-2.02 0,-3.28 3.63,-5.41 7.85,-5.41 4.84,0 8.19,3.25 8.19,6.73 0,2.72 -2.23,5.44 -6.06,6.24 3.66,1.33 4.98,3.94 4.98,6.07 0,2.76 -3.17,4.81 -7.04,4.81 -3.87,0 -6.84,-1.88 -6.84,-4.67 0,-1.18 0.77,-1.85 1.82,-1.85 1.08,0 1.77,0.8 1.77,1.78 0,1.01 -0.69,1.75 -1.77,1.81 1.22,1.54 3.62,1.92 4.92,1.92 1.56,0 3.76,-0.76 3.76,-3.8 0,-1.46 -0.49,-3.07 -1.39,-4.15 -1.16,-1.32 -2.13,-1.39 -3.87,-1.5 -0.88,-0.07 -0.95,-0.07 -1.12,-0.1 -0.07,0 -0.35,-0.07 -0.35,-0.46 0,-0.49 0.31,-0.49 0.91,-0.49 z"
           id="path5920" /><polyline
           style="fill:#000000;fill-rule:nonzero;stroke-width:0"
           points="462,418 481.92,418 481.92,420.04 462,420.04 "
           id="polyline5922" /><path
           style="fill:#000000;stroke-width:0"
           inkscape:connector-curvature="0"
           d="m 480.45,394.72 0,1.25 -3.88,0 0,15.56 c 0,0.73 0,0.97 -0.76,0.97 -0.42,0 -0.56,0 -0.91,-0.49 l -11.54,-16.04 0,-1.25 10.25,0 0.25,1.25 -9.21,0 9.21,12.76 0,-12.76 -0.25,-1.25 0,-2.86 c 0,-1.19 0,-1.61 -2.82,-1.61 l -0.95,0 0,-1.25 10.5,0 0,1.25 -0.94,0 c -2.83,0 -2.83,0.42 -2.83,1.61 l 0,2.86 z"
           id="path5924" /><path
           style="fill:#000000;stroke-width:0"
           inkscape:connector-curvature="0"
           d="m 535.22,422.29 0.14,0 0.15,0 0.15,0.01 0.07,0 0.07,0 0.07,0.01 0.08,0.01 0.07,0.01 0.07,0.01 0.06,0.02 0.07,0.01 0.07,0.02 0.06,0.02 0.06,0.03 0.06,0.03 0.05,0.03 0.06,0.03 0.05,0.04 0.04,0.04 0.05,0.05 0.03,0.05 0.02,0.03 0.02,0.02 0.02,0.03 0.01,0.03 0.02,0.03 0.01,0.04 0.01,0.03 0.01,0.04 0.01,0.03 0.01,0.04 0.01,0.04 0,0.04 0.01,0.04 0,0.04 0,0.05 0,0.05 c 0,0.99 -0.94,0.99 -1.64,0.99 l -29.84,0 c -0.7,0 -1.64,0 -1.64,-0.99 0,-1 0.94,-1 1.69,-1 z"
           id="path5926" /><path
           style="fill:#000000;stroke-width:0"
           inkscape:connector-curvature="0"
           d="m 535.27,412.62 0.13,0.01 0.14,0 0.14,0 0.07,0.01 0.07,0 0.07,0.01 0.07,0.01 0.07,0.01 0.07,0.01 0.06,0.01 0.07,0.02 0.06,0.02 0.06,0.02 0.06,0.02 0.06,0.03 0.06,0.03 0.05,0.04 0.05,0.04 0.04,0.04 0.05,0.04 0.02,0.03 0.02,0.03 0.01,0.02 0.02,0.03 0.02,0.03 0.01,0.03 0.02,0.03 0.01,0.03 0.01,0.04 0.01,0.03 0.01,0.04 0.01,0.04 0.01,0.04 0,0.04 0.01,0.04 0,0.04 0,0.05 0,0.04 c 0,1 -0.94,1 -1.69,1 l -29.74,0 c -0.75,0 -1.69,0 -1.69,-1 0,-1 0.94,-1 1.64,-1 z"
           id="path5928" /><path
           style="fill:#000000;stroke-width:0"
           inkscape:connector-curvature="0"
           d="m 565.23,437.4 0,0.53 0.01,0.53 0.02,0.52 0.03,0.51 0.04,0.51 0.05,0.49 0.06,0.49 0.08,0.48 0.09,0.47 0.11,0.46 0.13,0.46 0.15,0.44 0.08,0.22 0.08,0.22 0.09,0.21 0.1,0.21 0.11,0.21 0.1,0.2 0.12,0.21 0.12,0.2 c 1.18,1.88 3.07,3.17 5.3,3.17 1.05,0 2.44,-0.28 3.14,-1.22 -0.87,-0.07 -1.61,-0.66 -1.61,-1.67 0,-0.87 0.6,-1.64 1.64,-1.64 1.05,0 1.68,0.69 1.68,1.71 0,2.02 -1.47,3.83 -4.92,3.83 -5.02,0 -10.15,-4.6 -10.15,-12.1 0,-9.03 4.26,-11.75 8.09,-11.75 4.26,0 7.95,3.25 7.95,7.81 0,4.43 -3.52,7.71 -7.6,7.71 l -0.17,-0.98 c 1.6,0 2.68,-0.63 3.55,-1.91 0.84,-1.33 0.87,-2.79 0.87,-4.82 0,-1.99 0,-3.45 -0.94,-4.81 -0.83,-1.22 -1.95,-1.88 -3.66,-1.88 l 0,0 c -1.74,0 -3.1,1.01 -3.83,2.54 -0.53,1.05 -0.8,2.79 -0.8,4.88 0,3.39 2.01,6 4.81,6 l 0.17,0.98 c -2.79,0 -4.32,-1.85 -5.09,-3.42 z"
           id="path5930" /><polyline
           style="fill:#000000;fill-rule:nonzero;stroke-width:0"
           points="560,418 579.92,418 579.92,420.04 560,420.04 "
           id="polyline5932" /><path
           style="fill:#000000;stroke-width:0"
           inkscape:connector-curvature="0"
           d="m 572.38,401.59 0.25,0.12 0.25,0.13 0.24,0.13 0.23,0.13 0.23,0.13 0.22,0.14 0.22,0.14 0.2,0.14 0.21,0.14 0.19,0.15 0.19,0.14 0.18,0.15 0.17,0.16 0.16,0.15 0.16,0.16 0.15,0.17 0.14,0.16 0.14,0.17 0.12,0.17 0.12,0.18 0.11,0.18 0.1,0.18 0.09,0.19 0.08,0.19 0.07,0.19 0.06,0.2 0.06,0.2 0.04,0.21 0.04,0.21 0.02,0.21 0.02,0.22 0,0.23 c 0,3.38 -3.52,5.19 -6.9,5.19 l -0.07,-1.01 c 2.72,0 5.12,-1.71 5.12,-4.18 0,-3.1 -3.62,-4.67 -3.69,-4.67 -0.07,0 -0.14,0.03 -0.39,0.17 l -4.21,2.44 c -0.91,0.52 -1.89,1.46 -1.89,2.76 0,2.19 2.54,3.48 5.06,3.48 l 0.07,1.01 c -3.84,0 -6.97,-2.51 -6.97,-5.82 0,-1.64 0.76,-2.83 1.39,-3.52 0.62,-0.74 0.87,-0.87 2.93,-2.1 -1.95,-0.83 -5.41,-2.71 -5.41,-6.37 0,-3.88 4.02,-6.04 7.99,-6.04 l 0.07,1.12 c -3.21,0 -5.96,2.06 -5.96,4.92 0,2.57 1.92,4.56 4.42,5.71 l 0,0 4.78,-2.75 c 0.91,-0.52 2.65,-1.57 2.65,-3.63 0,-2.61 -2.89,-4.25 -5.89,-4.25 l -0.07,-1.12 c 4.43,0 8.05,2.83 8.05,6.59 0,2.31 -1.36,4.26 -3.38,5.44 -0.45,0.28 -1.67,0.98 -2.16,1.26 z"
           id="path5934" /><path
           style="fill:#000000;stroke-width:0"
           inkscape:connector-curvature="0"
           d="m 633.22,422.29 0.14,0 0.15,0 0.15,0.01 0.07,0 0.07,0 0.07,0.01 0.08,0.01 0.07,0.01 0.07,0.01 0.06,0.02 0.07,0.01 0.07,0.02 0.06,0.02 0.06,0.03 0.06,0.03 0.05,0.03 0.06,0.03 0.05,0.04 0.04,0.04 0.05,0.05 0.03,0.05 0.02,0.03 0.02,0.02 0.02,0.03 0.01,0.03 0.02,0.03 0.01,0.04 0.01,0.03 0.01,0.04 0.01,0.03 0.01,0.04 0.01,0.04 0,0.04 0.01,0.04 0,0.04 0,0.05 0,0.05 c 0,0.99 -0.94,0.99 -1.64,0.99 l -29.84,0 c -0.7,0 -1.64,0 -1.64,-0.99 0,-1 0.94,-1 1.69,-1 z"
           id="path5936" /><path
           style="fill:#000000;stroke-width:0"
           inkscape:connector-curvature="0"
           d="m 633.27,412.62 0.13,0.01 0.14,0 0.14,0 0.07,0.01 0.07,0 0.07,0.01 0.07,0.01 0.07,0.01 0.07,0.01 0.06,0.01 0.07,0.02 0.06,0.02 0.06,0.02 0.06,0.02 0.06,0.03 0.06,0.03 0.05,0.04 0.05,0.04 0.04,0.04 0.05,0.04 0.02,0.03 0.02,0.03 0.01,0.02 0.02,0.03 0.02,0.03 0.01,0.03 0.02,0.03 0.01,0.03 0.01,0.04 0.01,0.03 0.01,0.04 0.01,0.04 0.01,0.04 0,0.04 0.01,0.04 0,0.04 0,0.05 0,0.04 c 0,1 -0.94,1 -1.69,1 l -29.74,0 c -0.75,0 -1.69,0 -1.69,-1 0,-1 0.94,-1 1.64,-1 z"
           id="path5938" /><path
           style="fill:#000000;stroke-width:0"
           inkscape:connector-curvature="0"
           d="m 682.57,436.39 0,-0.4 -0.01,-0.39 -0.01,-0.38 -0.02,-0.37 -0.03,-0.35 -0.03,-0.35 -0.04,-0.34 -0.04,-0.33 -0.05,-0.32 -0.06,-0.31 -0.05,-0.3 -0.07,-0.29 -0.06,-0.28 -0.07,-0.28 -0.08,-0.26 -0.08,-0.26 -0.08,-0.24 -0.09,-0.24 -0.09,-0.23 -0.09,-0.22 -0.2,-0.43 -0.21,-0.39 -0.22,-0.36 -0.24,-0.33 -0.24,-0.3 -0.24,-0.28 -0.25,-0.25 -0.26,-0.23 -0.26,-0.2 -0.27,-0.19 -0.26,-0.16 -0.27,-0.14 -0.26,-0.12 -0.27,-0.11 -0.26,-0.09 -0.25,-0.07 -0.25,-0.06 -0.24,-0.05 -0.23,-0.03 -0.23,-0.03 -0.21,-0.01 -0.2,0 c -0.77,0 -2.62,0.07 -3.56,1.15 1.43,0.14 1.53,1.32 1.53,1.64 0,0.87 -0.59,1.64 -1.64,1.64 -1.04,0 -1.67,-0.7 -1.67,-1.71 0,-2.37 1.99,-3.84 5.37,-3.84 4.99,0 9.69,4.71 9.69,12.17 0,8.65 -3.83,11.68 -7.91,11.68 -1.16,0 -3.56,-0.17 -5.54,-2.12 -1.19,-1.15 -2.59,-2.51 -2.59,-5.65 0,-4.43 3.53,-7.71 7.6,-7.71 l 0.18,0.98 c -1.36,0 -2.65,0.45 -3.63,2.05 -0.8,1.3 -0.8,2.76 -0.8,4.68 0,2.02 0,3.41 1.01,4.81 0.84,1.22 1.99,1.95 3.8,1.95 1.78,0 2.83,-1.11 3.39,-2.02 0.94,-1.46 1.04,-3.91 1.04,-5.13 0,-4.53 -2.62,-6.34 -4.81,-6.34 l 0,0 -0.18,-0.98 c 2.79,0 4.29,1.85 5.09,3.42 z"
           id="path5940" /><polyline
           style="fill:#000000;fill-rule:nonzero;stroke-width:0"
           points="658,418 697.72,418 697.72,420.04 658,420.04 "
           id="polyline5942" /><path
           style="fill:#000000;stroke-width:0"
           inkscape:connector-curvature="0"
           d="m 669.68,411.18 0,0.04 0,0.04 0,0.04 0,0.04 0,0.04 0,0.04 0,0.03 0,0.04 -0.01,0.03 0,0.03 0,0.04 0,0.03 -0.01,0.02 0,0.03 0,0.03 -0.01,0.03 0,0.02 0,0.02 -0.02,0.05 -0.01,0.04 -0.01,0.04 -0.02,0.03 -0.02,0.03 -0.02,0.03 -0.03,0.03 -0.02,0.02 -0.03,0.02 -0.04,0.02 -0.03,0.01 -0.04,0.01 -0.05,0.02 -0.05,0 -0.02,0.01 -0.03,0 -0.03,0.01 -0.02,0 -0.03,0 -0.03,0 -0.04,0 -0.03,0.01 -0.03,0 -0.04,0 -0.03,0 -0.04,0 -0.04,0 -0.04,0 -0.04,0 -0.04,0 -0.05,0 -0.04,0 c -2.24,-2.19 -5.41,-2.23 -6.84,-2.23 l 0,-1.25 c 0.84,0 3.14,0 5.05,0.97 l 0,-17.78 c 0,-1.15 0,-1.61 -3.48,-1.61 l -1.33,0 0,-1.25 12.45,0 0,1.25 -1.32,0 c -3.49,0 -3.49,0.46 -3.49,1.61 z"
           id="path5944" /><path
           style="fill:#000000;stroke-width:0"
           inkscape:connector-curvature="0"
           d="m 695.61,395.35 -1.19,0 c -0.1,-0.77 -0.45,-2.83 -0.9,-3.18 -0.28,-0.21 -2.97,-0.21 -3.45,-0.21 l -6.42,0 c 3.66,3.25 4.88,4.22 6.97,5.86 2.58,2.06 4.99,4.22 4.99,7.54 0,4.21 -3.7,6.79 -8.16,6.79 -4.33,0 -7.25,-3.03 -7.25,-6.24 0,-1.78 1.5,-1.95 1.84,-1.95 0.84,0 1.86,0.59 1.86,1.85 0,0.62 -0.25,1.85 -2.06,1.85 1.08,2.47 3.45,3.24 5.09,3.24 3.48,0 5.3,-2.72 5.3,-5.54 0,-3.04 -2.16,-5.45 -3.28,-6.7 l -8.4,-8.3 c -0.35,-0.31 -0.35,-0.38 -0.35,-1.36 l 14.36,0 z"
           id="path5946" /><path
           style="fill:#000000;stroke-width:0"
           inkscape:connector-curvature="0"
           d="m 751.22,422.29 0.14,0 0.15,0 0.15,0.01 0.07,0 0.07,0 0.07,0.01 0.08,0.01 0.07,0.01 0.07,0.01 0.06,0.02 0.07,0.01 0.07,0.02 0.06,0.02 0.06,0.03 0.06,0.03 0.05,0.03 0.06,0.03 0.05,0.04 0.04,0.04 0.05,0.05 0.03,0.05 0.02,0.03 0.02,0.02 0.02,0.03 0.01,0.03 0.02,0.03 0.01,0.04 0.01,0.03 0.01,0.04 0.01,0.03 0.01,0.04 0.01,0.04 0,0.04 0.01,0.04 0,0.04 0,0.05 0,0.05 c 0,0.99 -0.94,0.99 -1.64,0.99 l -29.84,0 c -0.7,0 -1.64,0 -1.64,-0.99 0,-1 0.94,-1 1.69,-1 z"
           id="path5948" /><path
           style="fill:#000000;stroke-width:0"
           inkscape:connector-curvature="0"
           d="m 751.27,412.62 0.13,0.01 0.14,0 0.14,0 0.07,0.01 0.07,0 0.07,0.01 0.07,0.01 0.07,0.01 0.07,0.01 0.06,0.01 0.07,0.02 0.06,0.02 0.06,0.02 0.06,0.02 0.06,0.03 0.06,0.03 0.05,0.04 0.05,0.04 0.04,0.04 0.05,0.04 0.02,0.03 0.02,0.03 0.01,0.02 0.02,0.03 0.02,0.03 0.01,0.03 0.02,0.03 0.01,0.03 0.01,0.04 0.01,0.03 0.01,0.04 0.01,0.04 0.01,0.04 0,0.04 0.01,0.04 0,0.04 0,0.05 0,0.04 c 0,1 -0.94,1 -1.69,1 l -29.74,0 c -0.75,0 -1.69,0 -1.69,-1 0,-1 0.94,-1 1.64,-1 z"
           id="path5950" /><path
           style="fill:#000000;stroke-width:0"
           inkscape:connector-curvature="0"
           d="m 787.68,448.18 0,0.04 0,0.04 0,0.04 0,0.04 0,0.04 0,0.04 0,0.03 0,0.04 -0.01,0.03 0,0.03 0,0.04 0,0.03 -0.01,0.02 0,0.03 0,0.03 -0.01,0.03 0,0.02 0,0.02 -0.02,0.05 -0.01,0.04 -0.01,0.04 -0.02,0.03 -0.02,0.03 -0.02,0.03 -0.03,0.03 -0.02,0.02 -0.03,0.02 -0.04,0.02 -0.03,0.01 -0.04,0.01 -0.05,0.02 -0.05,0 -0.02,0.01 -0.03,0 -0.03,0.01 -0.02,0 -0.03,0 -0.03,0 -0.04,0 -0.03,0.01 -0.03,0 -0.04,0 -0.03,0 -0.04,0 -0.04,0 -0.04,0 -0.04,0 -0.04,0 -0.05,0 -0.04,0 c -2.24,-2.19 -5.41,-2.23 -6.84,-2.23 l 0,-1.25 c 0.84,0 3.14,0 5.05,0.97 l 0,-17.78 c 0,-1.15 0,-1.61 -3.48,-1.61 l -1.33,0 0,-1.25 12.45,0 0,1.25 -1.32,0 c -3.49,0 -3.49,0.46 -3.49,1.61 z"
           id="path5952" /><path
           style="fill:#000000;stroke-width:0"
           inkscape:connector-curvature="0"
           d="m 813.61,432.35 -1.19,0 c -0.1,-0.77 -0.45,-2.83 -0.9,-3.18 -0.28,-0.21 -2.97,-0.21 -3.45,-0.21 l -6.42,0 c 3.66,3.25 4.88,4.22 6.97,5.86 2.58,2.06 4.99,4.22 4.99,7.54 0,4.21 -3.7,6.79 -8.16,6.79 -4.33,0 -7.25,-3.03 -7.25,-6.24 0,-1.78 1.5,-1.95 1.84,-1.95 0.84,0 1.86,0.59 1.86,1.85 0,0.62 -0.25,1.85 -2.06,1.85 1.08,2.47 3.45,3.24 5.09,3.24 3.48,0 5.3,-2.72 5.3,-5.54 0,-3.04 -2.16,-5.45 -3.28,-6.7 l -8.4,-8.3 c -0.35,-0.31 -0.35,-0.38 -0.35,-1.36 l 14.36,0 z"
           id="path5954" /><polyline
           style="fill:#000000;fill-rule:nonzero;stroke-width:0"
           points="776,418 815.72,418 815.72,420.04 776,420.04 "
           id="polyline5956" /><path
           style="fill:#000000;stroke-width:0"
           inkscape:connector-curvature="0"
           d="m 787.68,411.18 0,0.04 0,0.04 0,0.04 0,0.04 0,0.04 0,0.04 0,0.03 0,0.04 -0.01,0.03 0,0.03 0,0.04 0,0.03 -0.01,0.02 0,0.03 0,0.03 -0.01,0.03 0,0.02 0,0.02 -0.02,0.05 -0.01,0.04 -0.01,0.04 -0.02,0.03 -0.02,0.03 -0.02,0.03 -0.03,0.03 -0.02,0.02 -0.03,0.02 -0.04,0.02 -0.03,0.01 -0.04,0.01 -0.05,0.02 -0.05,0 -0.02,0.01 -0.03,0 -0.03,0.01 -0.02,0 -0.03,0 -0.03,0 -0.04,0 -0.03,0.01 -0.03,0 -0.04,0 -0.03,0 -0.04,0 -0.04,0 -0.04,0 -0.04,0 -0.04,0 -0.05,0 -0.04,0 c -2.24,-2.19 -5.41,-2.23 -6.84,-2.23 l 0,-1.25 c 0.84,0 3.14,0 5.05,0.97 l 0,-17.78 c 0,-1.15 0,-1.61 -3.48,-1.61 l -1.33,0 0,-1.25 12.45,0 0,1.25 -1.32,0 c -3.49,0 -3.49,0.46 -3.49,1.61 z"
           id="path5958" /><path
           style="fill:#000000;stroke-width:0"
           inkscape:connector-curvature="0"
           d="m 801.23,400.4 0,0.53 0.01,0.53 0.02,0.52 0.03,0.51 0.04,0.51 0.05,0.49 0.06,0.49 0.08,0.48 0.09,0.47 0.11,0.46 0.13,0.46 0.15,0.44 0.08,0.22 0.08,0.22 0.09,0.21 0.1,0.21 0.11,0.21 0.1,0.2 0.12,0.21 0.12,0.2 c 1.18,1.88 3.07,3.17 5.3,3.17 1.05,0 2.44,-0.28 3.14,-1.22 -0.87,-0.07 -1.61,-0.66 -1.61,-1.67 0,-0.87 0.6,-1.64 1.64,-1.64 1.05,0 1.68,0.69 1.68,1.71 0,2.02 -1.47,3.83 -4.92,3.83 -5.02,0 -10.15,-4.6 -10.15,-12.1 0,-9.03 4.26,-11.75 8.09,-11.75 4.26,0 7.95,3.25 7.95,7.81 0,4.43 -3.52,7.71 -7.6,7.71 l -0.17,-0.98 c 1.6,0 2.68,-0.63 3.55,-1.91 0.84,-1.33 0.87,-2.79 0.87,-4.82 0,-1.99 0,-3.45 -0.94,-4.81 -0.83,-1.22 -1.95,-1.88 -3.66,-1.88 l 0,0 c -1.74,0 -3.1,1.01 -3.83,2.54 -0.53,1.05 -0.8,2.79 -0.8,4.88 0,3.39 2.01,6 4.81,6 l 0.17,0.98 c -2.79,0 -4.32,-1.85 -5.09,-3.42 z"
           id="path5960" /><path
           style="fill:#000000;stroke-width:0"
           inkscape:connector-curvature="0"
           d="m 870.22,422.29 0.14,0 0.15,0 0.15,0.01 0.07,0 0.07,0 0.07,0.01 0.08,0.01 0.07,0.01 0.07,0.01 0.06,0.02 0.07,0.01 0.07,0.02 0.06,0.02 0.06,0.03 0.06,0.03 0.05,0.03 0.06,0.03 0.05,0.04 0.04,0.04 0.05,0.05 0.03,0.05 0.02,0.03 0.02,0.02 0.02,0.03 0.01,0.03 0.02,0.03 0.01,0.04 0.01,0.03 0.01,0.04 0.01,0.03 0.01,0.04 0.01,0.04 0,0.04 0.01,0.04 0,0.04 0,0.05 0,0.05 c 0,0.99 -0.94,0.99 -1.64,0.99 l -29.84,0 c -0.7,0 -1.64,0 -1.64,-0.99 0,-1 0.94,-1 1.69,-1 z"
           id="path5962" /><path
           style="fill:#000000;stroke-width:0"
           inkscape:connector-curvature="0"
           d="m 870.27,412.62 0.13,0.01 0.14,0 0.14,0 0.07,0.01 0.07,0 0.07,0.01 0.07,0.01 0.07,0.01 0.07,0.01 0.06,0.01 0.07,0.02 0.06,0.02 0.06,0.02 0.06,0.02 0.06,0.03 0.06,0.03 0.05,0.04 0.05,0.04 0.04,0.04 0.05,0.04 0.02,0.03 0.02,0.03 0.01,0.02 0.02,0.03 0.02,0.03 0.01,0.03 0.02,0.03 0.01,0.03 0.01,0.04 0.01,0.03 0.01,0.04 0.01,0.04 0.01,0.04 0,0.04 0.01,0.04 0,0.04 0,0.05 0,0.04 c 0,1 -0.94,1 -1.69,1 l -29.74,0 c -0.75,0 -1.69,0 -1.69,-1 0,-1 0.94,-1 1.64,-1 z"
           id="path5964" /><path
           style="fill:#000000;stroke-width:0"
           inkscape:connector-curvature="0"
           d="m 905.68,448.18 0,0.04 0,0.04 0,0.04 0,0.04 0,0.04 0,0.04 0,0.03 0,0.04 -0.01,0.03 0,0.03 0,0.04 0,0.03 -0.01,0.02 0,0.03 0,0.03 -0.01,0.03 0,0.02 0,0.02 -0.02,0.05 -0.01,0.04 -0.01,0.04 -0.02,0.03 -0.02,0.03 -0.02,0.03 -0.03,0.03 -0.02,0.02 -0.03,0.02 -0.04,0.02 -0.03,0.01 -0.04,0.01 -0.05,0.02 -0.05,0 -0.02,0.01 -0.03,0 -0.03,0.01 -0.02,0 -0.03,0 -0.03,0 -0.04,0 -0.03,0.01 -0.03,0 -0.04,0 -0.03,0 -0.04,0 -0.04,0 -0.04,0 -0.04,0 -0.04,0 -0.05,0 -0.04,0 c -2.24,-2.19 -5.41,-2.23 -6.84,-2.23 l 0,-1.25 c 0.84,0 3.14,0 5.05,0.97 l 0,-17.78 c 0,-1.15 0,-1.61 -3.48,-1.61 l -1.33,0 0,-1.25 12.45,0 0,1.25 -1.32,0 c -3.49,0 -3.49,0.46 -3.49,1.61 z"
           id="path5966" /><path
           style="fill:#000000;stroke-width:0"
           inkscape:connector-curvature="0"
           d="m 919.41,445.46 0.16,-0.04 0.16,-0.04 0.16,-0.04 0.15,-0.03 0.15,-0.03 0.14,-0.03 0.14,-0.03 0.14,-0.02 0.13,-0.03 0.13,-0.02 0.12,-0.02 0.12,-0.02 0.12,-0.01 0.11,-0.02 0.11,-0.01 0.1,-0.01 0.11,-0.01 0.09,-0.01 0.1,-0.01 0.09,0 0.09,-0.01 0.08,0 0.08,-0.01 0.08,0 0.08,0 0.07,0 0.07,0 0.06,-0.01 0.07,0 0.06,0 0.05,0 0.05,0 c 4.61,0 7.33,3.14 7.33,3.66 0,0.39 -0.24,0.49 -0.42,0.49 -0.07,0 -0.14,0 -0.28,-0.1 -0.84,-0.32 -2.68,-1.01 -5.26,-1.01 -0.98,0 -2.83,0.07 -5.1,0.94 -0.34,0.17 -0.41,0.17 -0.45,0.17 -0.45,0 -0.45,-0.38 -0.45,-0.94 l 0,-10.28 c 0,-0.6 0,-1.02 0.56,-1.02 0.31,0 0.34,0.07 0.7,0.49 1.49,1.92 3.62,2.2 4.84,2.2 2.09,0 3.03,-1.67 3.21,-1.96 0.63,-1.14 0.84,-2.47 0.84,-4.49 0,-1.05 0,-3.11 -1.05,-4.64 -0.87,-1.26 -2.37,-2.09 -4.08,-2.09 -2.27,0 -4.6,1.25 -5.47,3.56 1.32,-0.11 1.98,0.76 1.98,1.7 0,1.5 -1.28,1.78 -1.74,1.78 -0.07,0 -1.74,0 -1.74,-1.88 0,-3.14 2.85,-6.28 7.04,-6.28 4.46,0 8.37,3.31 8.37,7.71 0,3.94 -3,7.56 -7.33,7.56 -1.53,0 -3.34,-0.38 -4.87,-1.7 z"
           id="path5968" /><polyline
           style="fill:#000000;fill-rule:nonzero;stroke-width:0"
           points="894,418 933.72,418 933.72,420.04 894,420.04 "
           id="polyline5970" /><path
           style="fill:#000000;stroke-width:0"
           inkscape:connector-curvature="0"
           d="m 911.61,395.35 -1.19,0 c -0.1,-0.77 -0.45,-2.83 -0.9,-3.18 -0.28,-0.21 -2.97,-0.21 -3.45,-0.21 l -6.42,0 c 3.66,3.25 4.88,4.22 6.97,5.86 2.58,2.06 4.99,4.22 4.99,7.54 0,4.21 -3.7,6.79 -8.16,6.79 -4.33,0 -7.25,-3.03 -7.25,-6.24 0,-1.78 1.5,-1.95 1.84,-1.95 0.84,0 1.86,0.59 1.86,1.85 0,0.62 -0.25,1.85 -2.06,1.85 1.08,2.47 3.45,3.24 5.09,3.24 3.48,0 5.3,-2.72 5.3,-5.54 0,-3.04 -2.16,-5.45 -3.28,-6.7 l -8.4,-8.3 c -0.35,-0.31 -0.35,-0.38 -0.35,-1.36 l 14.36,0 z"
           id="path5972" /><path
           style="fill:#000000;stroke-width:0"
           inkscape:connector-curvature="0"
           d="m 931.99,400.12 0,0.71 -0.02,0.68 -0.03,0.66 -0.04,0.64 -0.06,0.62 -0.08,0.59 -0.09,0.58 -0.11,0.56 -0.12,0.55 -0.15,0.53 -0.17,0.51 -0.19,0.5 -0.21,0.49 -0.24,0.48 -0.26,0.47 -0.14,0.24 -0.15,0.23 c -1.08,1.6 -3.24,2.99 -6.03,2.99 l 0,-0.97 c 1.88,0 3.7,-1.15 4.33,-3.18 0.55,-1.88 0.59,-4.39 0.59,-7.42 0,-2.58 0,-5.17 -0.45,-7.36 -0.7,-3.17 -3.07,-3.94 -4.47,-3.94 l 0,0 c -1.6,0 -3.73,0.94 -4.43,3.8 -0.49,2.06 -0.49,4.92 -0.49,7.5 0,2.54 0,5.19 0.53,7.11 0.73,2.76 2.96,3.49 4.39,3.49 l 0,0.97 c -8.09,0 -8.09,-9.52 -8.09,-12.03 0,-2.51 0,-11.82 8.09,-11.82 8.09,0 8.09,9.31 8.09,11.82 z"
           id="path5974" /><path
           style="fill:#000000;stroke-width:0"
           inkscape:connector-curvature="0"
           d="m 988.22,422.29 0.14,0 0.15,0 0.15,0.01 0.07,0 0.07,0 0.07,0.01 0.08,0.01 0.07,0.01 0.07,0.01 0.06,0.02 0.07,0.01 0.07,0.02 0.06,0.02 0.06,0.03 0.06,0.03 0.05,0.03 0.06,0.03 0.05,0.04 0.04,0.04 0.05,0.05 0.03,0.05 0.02,0.03 0.02,0.02 0.02,0.03 0.01,0.03 0.02,0.03 0.01,0.04 0.01,0.03 0.01,0.04 0.01,0.03 0.01,0.04 0.01,0.04 0,0.04 0.01,0.04 0,0.04 0,0.05 0,0.05 c 0,0.99 -0.94,0.99 -1.64,0.99 l -29.84,0 c -0.7,0 -1.64,0 -1.64,-0.99 0,-1 0.94,-1 1.69,-1 z"
           id="path5976" /><path
           style="fill:#000000;stroke-width:0"
           inkscape:connector-curvature="0"
           d="m 988.27,412.62 0.13,0.01 0.14,0 0.14,0 0.07,0.01 0.07,0 0.07,0.01 0.07,0.01 0.07,0.01 0.07,0.01 0.06,0.01 0.07,0.02 0.06,0.02 0.06,0.02 0.06,0.02 0.06,0.03 0.06,0.03 0.05,0.04 0.05,0.04 0.04,0.04 0.05,0.04 0.02,0.03 0.02,0.03 0.01,0.02 0.02,0.03 0.02,0.03 0.01,0.03 0.02,0.03 0.01,0.03 0.01,0.04 0.01,0.03 0.01,0.04 0.01,0.04 0.01,0.04 0,0.04 0.01,0.04 0,0.04 0,0.05 0,0.04 c 0,1 -0.94,1 -1.69,1 l -29.74,0 c -0.75,0 -1.69,0 -1.69,-1 0,-1 0.94,-1 1.64,-1 z"
           id="path5978" /><path
           style="fill:#000000;stroke-width:0"
           inkscape:connector-curvature="0"
           d="m 1023.7,448.18 0,0.04 0,0.04 0,0.04 0,0.04 0,0.04 0,0.04 0,0.03 0,0.04 0,0.03 0,0.03 0,0.04 0,0.03 0,0.02 0,0.03 0,0.03 0,0.03 -0.1,0.02 0,0.02 0,0.05 0,0.04 0,0.04 0,0.03 0,0.03 -0.1,0.03 0,0.03 0,0.02 0,0.02 -0.1,0.02 0,0.01 0,0.01 -0.1,0.02 0,0 -0.1,0.01 0,0 0,0.01 0,0 -0.1,0 0,0 0,0 -0.1,0.01 0,0 0,0 -0.1,0 0,0 0,0 -0.1,0 0,0 -0.1,0 0,0 -0.1,0 c -2.2,-2.19 -5.4,-2.23 -6.8,-2.23 l 0,-1.25 c 0.8,0 3.1,0 5.1,0.97 l 0,-17.78 c 0,-1.15 0,-1.61 -3.5,-1.61 l -1.4,0 0,-1.25 12.5,0 0,1.25 -1.3,0 c -3.5,0 -3.5,0.46 -3.5,1.61 z"
           id="path5980" /><path
           style="fill:#000000;stroke-width:0"
           inkscape:connector-curvature="0"
           d="m 1044.4,438.59 0.2,0.12 0.3,0.13 0.2,0.13 0.3,0.13 0.2,0.13 0.2,0.14 0.2,0.14 0.2,0.14 0.2,0.14 0.2,0.15 0.2,0.14 0.2,0.15 0.2,0.16 0.1,0.15 0.2,0.16 0.1,0.17 0.2,0.16 0.1,0.17 0.1,0.17 0.1,0.18 0.2,0.18 0.1,0.18 0,0.19 0.1,0.19 0.1,0.19 0.1,0.2 0,0.2 0.1,0.21 0,0.21 0,0.21 0,0.22 0,0.23 c 0,3.38 -3.5,5.19 -6.9,5.19 l 0,-1.01 c 2.7,0 5.1,-1.71 5.1,-4.18 0,-3.1 -3.6,-4.67 -3.7,-4.67 -0.1,0 -0.1,0.03 -0.4,0.17 l -4.2,2.44 c -0.9,0.52 -1.9,1.46 -1.9,2.76 0,2.19 2.6,3.48 5.1,3.48 l 0,1.01 c -3.8,0 -6.9,-2.51 -6.9,-5.82 0,-1.64 0.7,-2.83 1.4,-3.52 0.6,-0.74 0.8,-0.87 2.9,-2.1 -2,-0.83 -5.4,-2.71 -5.4,-6.37 0,-3.88 4,-6.04 8,-6.04 l 0,1.12 c -3.2,0 -5.9,2.06 -5.9,4.92 0,2.57 1.9,4.56 4.4,5.71 l 0,0 4.8,-2.75 c 0.9,-0.52 2.6,-1.57 2.6,-3.63 0,-2.61 -2.9,-4.25 -5.9,-4.25 l 0,-1.12 c 4.4,0 8,2.83 8,6.59 0,2.31 -1.3,4.26 -3.4,5.44 -0.4,0.28 -1.6,0.98 -2.1,1.26 z"
           id="path5982" /><polyline
           style="fill:#000000;fill-rule:nonzero;stroke-width:0"
           points="1012,418 1051.7,418 1051.7,420.04 1012,420.04 "
           id="polyline5984" /><path
           style="fill:#000000;stroke-width:0"
           inkscape:connector-curvature="0"
           d="m 1029.6,395.35 -1.2,0 c -0.1,-0.77 -0.4,-2.83 -0.9,-3.18 -0.3,-0.21 -2.9,-0.21 -3.4,-0.21 l -6.4,0 c 3.6,3.25 4.8,4.22 6.9,5.86 2.6,2.06 5,4.22 5,7.54 0,4.21 -3.7,6.79 -8.1,6.79 -4.4,0 -7.3,-3.03 -7.3,-6.24 0,-1.78 1.5,-1.95 1.8,-1.95 0.9,0 1.9,0.59 1.9,1.85 0,0.62 -0.2,1.85 -2.1,1.85 1.1,2.47 3.5,3.24 5.1,3.24 3.5,0 5.3,-2.72 5.3,-5.54 0,-3.04 -2.1,-5.45 -3.2,-6.7 l -8.5,-8.3 c -0.3,-0.31 -0.3,-0.38 -0.3,-1.36 l 14.4,0 z"
           id="path5986" /><path
           style="fill:#000000;stroke-width:0"
           inkscape:connector-curvature="0"
           d="m 1050.4,394.72 0,1.25 -3.8,0 0,15.56 c 0,0.73 0,0.97 -0.8,0.97 -0.4,0 -0.6,0 -0.9,-0.49 l -11.5,-16.04 0,-1.25 10.2,0 0.3,1.25 -9.2,0 9.2,12.76 0,-12.76 -0.3,-1.25 0,-2.86 c 0,-1.19 0,-1.61 -2.8,-1.61 l -1,0 0,-1.25 10.5,0 0,1.25 -0.9,0 c -2.8,0 -2.8,0.42 -2.8,1.61 l 0,2.86 z"
           id="path5988" /><path
           style="fill:#000000;stroke-width:0"
           inkscape:connector-curvature="0"
           d="m 1106.2,422.29 0.2,0 0.1,0 0.2,0.01 0,0 0.1,0 0.1,0.01 0,0.01 0.1,0.01 0.1,0.01 0.1,0.02 0,0.01 0.1,0.02 0,0.02 0.1,0.03 0.1,0.03 0,0.03 0.1,0.03 0,0.04 0.1,0.04 0,0.05 0.1,0.05 0,0.03 0,0.02 0,0.03 0,0.03 0,0.03 0,0.04 0.1,0.03 0,0.04 0,0.03 0,0.04 0,0.04 0,0.04 0,0.04 0,0.04 0,0.05 0,0.05 c 0,0.99 -0.9,0.99 -1.6,0.99 l -29.9,0 c -0.7,0 -1.6,0 -1.6,-0.99 0,-1 0.9,-1 1.7,-1 z"
           id="path5990" /><path
           style="fill:#000000;stroke-width:0"
           inkscape:connector-curvature="0"
           d="m 1106.3,412.62 0.1,0.01 0.1,0 0.2,0 0.1,0.01 0,0 0.1,0.01 0.1,0.01 0,0.01 0.1,0.01 0.1,0.01 0,0.02 0.1,0.02 0.1,0.02 0,0.02 0.1,0.03 0,0.03 0.1,0.04 0,0.04 0.1,0.04 0,0.04 0,0.03 0.1,0.03 0,0.02 0,0.03 0,0.03 0,0.03 0,0.03 0,0.03 0.1,0.04 0,0.03 0,0.04 0,0.04 0,0.04 0,0.04 0,0.04 0,0.04 0,0.05 0,0.04 c 0,1 -0.9,1 -1.7,1 l -29.7,0 c -0.8,0 -1.7,0 -1.7,-1 0,-1 0.9,-1 1.6,-1 z"
           id="path5992" /><path
           style="fill:#000000;stroke-width:0"
           inkscape:connector-curvature="0"
           d="m 1147.6,432.35 -1.2,0 c -0.1,-0.77 -0.4,-2.83 -0.9,-3.18 -0.3,-0.21 -2.9,-0.21 -3.4,-0.21 l -6.4,0 c 3.6,3.25 4.8,4.22 6.9,5.86 2.6,2.06 5,4.22 5,7.54 0,4.21 -3.7,6.79 -8.2,6.79 -4.3,0 -7.2,-3.03 -7.2,-6.24 0,-1.78 1.5,-1.95 1.8,-1.95 0.9,0 1.9,0.59 1.9,1.85 0,0.62 -0.2,1.85 -2.1,1.85 1.1,2.47 3.5,3.24 5.1,3.24 3.5,0 5.3,-2.72 5.3,-5.54 0,-3.04 -2.1,-5.45 -3.3,-6.7 l -8.3,-8.3 c -0.4,-0.31 -0.4,-0.38 -0.4,-1.36 l 14.4,0 z"
           id="path5994" /><path
           style="fill:#000000;stroke-width:0"
           inkscape:connector-curvature="0"
           d="m 1161.7,448.18 0,0.04 0,0.04 0,0.04 0,0.04 0,0.04 0,0.04 0,0.03 0,0.04 0,0.03 0,0.03 0,0.04 0,0.03 0,0.02 0,0.03 0,0.03 0,0.03 -0.1,0.02 0,0.02 0,0.05 0,0.04 0,0.04 0,0.03 0,0.03 -0.1,0.03 0,0.03 0,0.02 0,0.02 -0.1,0.02 0,0.01 0,0.01 -0.1,0.02 0,0 -0.1,0.01 0,0 0,0.01 0,0 -0.1,0 0,0 0,0 -0.1,0.01 0,0 0,0 -0.1,0 0,0 0,0 -0.1,0 0,0 -0.1,0 0,0 -0.1,0 c -2.2,-2.19 -5.4,-2.23 -6.8,-2.23 l 0,-1.25 c 0.8,0 3.1,0 5.1,0.97 l 0,-17.78 c 0,-1.15 0,-1.61 -3.5,-1.61 l -1.4,0 0,-1.25 12.5,0 0,1.25 -1.3,0 c -3.5,0 -3.5,0.46 -3.5,1.61 z"
           id="path5996" /><polyline
           style="fill:#000000;fill-rule:nonzero;stroke-width:0"
           points="1130,418 1169.7,418 1169.7,420.04 1130,420.04 "
           id="polyline5998" /><path
           style="fill:#000000;stroke-width:0"
           inkscape:connector-curvature="0"
           d="m 1147.6,395.35 -1.2,0 c -0.1,-0.77 -0.4,-2.83 -0.9,-3.18 -0.3,-0.21 -2.9,-0.21 -3.4,-0.21 l -6.4,0 c 3.6,3.25 4.8,4.22 6.9,5.86 2.6,2.06 5,4.22 5,7.54 0,4.21 -3.7,6.79 -8.2,6.79 -4.3,0 -7.2,-3.03 -7.2,-6.24 0,-1.78 1.5,-1.95 1.8,-1.95 0.9,0 1.9,0.59 1.9,1.85 0,0.62 -0.2,1.85 -2.1,1.85 1.1,2.47 3.5,3.24 5.1,3.24 3.5,0 5.3,-2.72 5.3,-5.54 0,-3.04 -2.1,-5.45 -3.3,-6.7 l -8.3,-8.3 c -0.4,-0.31 -0.4,-0.38 -0.4,-1.36 l 14.4,0 z"
           id="path6000" /><path
           style="fill:#000000;stroke-width:0"
           inkscape:connector-curvature="0"
           d="m 1162.4,401.59 0.2,0.12 0.3,0.13 0.2,0.13 0.3,0.13 0.2,0.13 0.2,0.14 0.2,0.14 0.2,0.14 0.2,0.14 0.2,0.15 0.2,0.14 0.2,0.15 0.2,0.16 0.1,0.15 0.2,0.16 0.1,0.17 0.2,0.16 0.1,0.17 0.1,0.17 0.1,0.18 0.2,0.18 0.1,0.18 0,0.19 0.1,0.19 0.1,0.19 0.1,0.2 0,0.2 0.1,0.21 0,0.21 0,0.21 0,0.22 0,0.23 c 0,3.38 -3.5,5.19 -6.9,5.19 l 0,-1.01 c 2.7,0 5.1,-1.71 5.1,-4.18 0,-3.1 -3.6,-4.67 -3.7,-4.67 -0.1,0 -0.1,0.03 -0.4,0.17 l -4.2,2.44 c -0.9,0.52 -1.9,1.46 -1.9,2.76 0,2.19 2.6,3.48 5.1,3.48 l 0,1.01 c -3.8,0 -6.9,-2.51 -6.9,-5.82 0,-1.64 0.7,-2.83 1.4,-3.52 0.6,-0.74 0.8,-0.87 2.9,-2.1 -2,-0.83 -5.4,-2.71 -5.4,-6.37 0,-3.88 4,-6.04 8,-6.04 l 0,1.12 c -3.2,0 -5.9,2.06 -5.9,4.92 0,2.57 1.9,4.56 4.4,5.71 l 0,0 4.8,-2.75 c 0.9,-0.52 2.6,-1.57 2.6,-3.63 0,-2.61 -2.9,-4.25 -5.9,-4.25 l 0,-1.12 c 4.4,0 8,2.83 8,6.59 0,2.31 -1.3,4.26 -3.4,5.44 -0.4,0.28 -1.6,0.98 -2.1,1.26 z"
           id="path6002" /><path
           style="fill:#000000;stroke-width:0"
           inkscape:connector-curvature="0"
           d="m 1224.2,422.29 0.2,0 0.1,0 0.2,0.01 0,0 0.1,0 0.1,0.01 0,0.01 0.1,0.01 0.1,0.01 0.1,0.02 0,0.01 0.1,0.02 0,0.02 0.1,0.03 0.1,0.03 0,0.03 0.1,0.03 0,0.04 0.1,0.04 0,0.05 0.1,0.05 0,0.03 0,0.02 0,0.03 0,0.03 0,0.03 0,0.04 0.1,0.03 0,0.04 0,0.03 0,0.04 0,0.04 0,0.04 0,0.04 0,0.04 0,0.05 0,0.05 c 0,0.99 -0.9,0.99 -1.6,0.99 l -29.9,0 c -0.7,0 -1.6,0 -1.6,-0.99 0,-1 0.9,-1 1.7,-1 z"
           id="path6004" /><path
           style="fill:#000000;stroke-width:0"
           inkscape:connector-curvature="0"
           d="m 1224.3,412.62 0.1,0.01 0.1,0 0.2,0 0.1,0.01 0,0 0.1,0.01 0.1,0.01 0,0.01 0.1,0.01 0.1,0.01 0,0.02 0.1,0.02 0.1,0.02 0,0.02 0.1,0.03 0,0.03 0.1,0.04 0,0.04 0.1,0.04 0,0.04 0,0.03 0.1,0.03 0,0.02 0,0.03 0,0.03 0,0.03 0,0.03 0,0.03 0.1,0.04 0,0.03 0,0.04 0,0.04 0,0.04 0,0.04 0,0.04 0,0.04 0,0.05 0,0.04 c 0,1 -0.9,1 -1.7,1 l -29.7,0 c -0.8,0 -1.7,0 -1.7,-1 0,-1 0.9,-1 1.6,-1 z"
           id="path6006" /><path
           style="fill:#000000;stroke-width:0"
           inkscape:connector-curvature="0"
           d="m 1251.6,408.64 0,0.14 -0.1,0.13 0,0.13 0,0.13 0,0.13 -0.1,0.12 0,0.12 0,0.12 -0.1,0.12 -0.1,0.11 0,0.11 -0.1,0.11 -0.1,0.1 0,0.1 -0.1,0.1 -0.1,0.09 -0.1,0.09 -0.1,0.08 -0.1,0.08 -0.1,0.08 -0.1,0.07 -0.1,0.06 -0.1,0.06 -0.2,0.05 -0.1,0.05 -0.1,0.04 -0.1,0.04 -0.1,0.03 -0.2,0.02 -0.1,0.02 -0.1,0.01 -0.2,0 c -1.4,0 -2.6,-1.19 -2.6,-2.64 0,-1.44 1.2,-2.64 2.6,-2.64 1.5,0 2.7,1.2 2.7,2.64 z"
           id="path6008" /><path
           style="fill:#000000;stroke-width:0"
           inkscape:connector-curvature="0"
           d="m 1274.6,408.64 0,0.14 -0.1,0.13 0,0.13 0,0.13 0,0.13 -0.1,0.12 0,0.12 0,0.12 -0.1,0.12 -0.1,0.11 0,0.11 -0.1,0.11 -0.1,0.1 0,0.1 -0.1,0.1 -0.1,0.09 -0.1,0.09 -0.1,0.08 -0.1,0.08 -0.1,0.08 -0.1,0.07 -0.1,0.06 -0.1,0.06 -0.2,0.05 -0.1,0.05 -0.1,0.04 -0.1,0.04 -0.1,0.03 -0.2,0.02 -0.1,0.02 -0.1,0.01 -0.2,0 c -1.4,0 -2.6,-1.19 -2.6,-2.64 0,-1.44 1.2,-2.64 2.6,-2.64 1.5,0 2.7,1.2 2.7,2.64 z"
           id="path6010" /><path
           style="fill:#000000;stroke-width:0"
           inkscape:connector-curvature="0"
           d="m 1296.6,408.64 0,0.14 -0.1,0.13 0,0.13 0,0.13 0,0.13 -0.1,0.12 0,0.12 0,0.12 -0.1,0.12 -0.1,0.11 0,0.11 -0.1,0.11 -0.1,0.1 0,0.1 -0.1,0.1 -0.1,0.09 -0.1,0.09 -0.1,0.08 -0.1,0.08 -0.1,0.08 -0.1,0.07 -0.1,0.06 -0.1,0.06 -0.2,0.05 -0.1,0.05 -0.1,0.04 -0.1,0.04 -0.1,0.03 -0.2,0.02 -0.1,0.02 -0.1,0.01 -0.2,0 c -1.4,0 -2.6,-1.19 -2.6,-2.64 0,-1.44 1.2,-2.64 2.6,-2.64 1.5,0 2.7,1.2 2.7,2.64 z"
           id="path6012" /></g>    </g>
    <g
       id="g6120"
       transform="translate(-229.71428,68.571429)">
      <g
         word-spacing="normal"
         letter-spacing="normal"
         font-size-adjust="none"
         font-stretch="normal"
         font-weight="normal"
         font-variant="normal"
         font-style="normal"
         stroke-miterlimit="10.433"
         xml:space="preserve"
         transform="matrix(1.0629921,0,0,-1.0629921,-186.02362,789.27165)"
         id="g6122"
         style="font-style:normal;font-variant:normal;font-weight:normal;font-stretch:normal;letter-spacing:normal;word-spacing:normal;text-anchor:start;fill:none;fill-opacity:1;fill-rule:evenodd;stroke:#000000;stroke-linecap:butt;stroke-linejoin:miter;stroke-miterlimit:10.43299961;stroke-dasharray:none;stroke-dashoffset:0;stroke-opacity:1"><path
           id="path6124"
           d="m 467.41,445.46 0.16,-0.04 0.16,-0.04 0.16,-0.04 0.15,-0.03 0.15,-0.03 0.14,-0.03 0.14,-0.03 0.14,-0.02 0.13,-0.03 0.13,-0.02 0.12,-0.02 0.12,-0.02 0.12,-0.01 0.11,-0.02 0.11,-0.01 0.1,-0.01 0.11,-0.01 0.09,-0.01 0.1,-0.01 0.09,0 0.09,-0.01 0.08,0 0.08,-0.01 0.08,0 0.08,0 0.07,0 0.07,0 0.06,-0.01 0.07,0 0.06,0 0.05,0 0.06,0 c 4.6,0 7.32,3.14 7.32,3.66 0,0.39 -0.24,0.49 -0.42,0.49 -0.07,0 -0.14,0 -0.28,-0.1 -0.84,-0.32 -2.68,-1.01 -5.26,-1.01 -0.98,0 -2.83,0.07 -5.1,0.94 -0.34,0.17 -0.41,0.17 -0.45,0.17 -0.45,0 -0.45,-0.38 -0.45,-0.94 l 0,-10.28 c 0,-0.6 0,-1.02 0.56,-1.02 0.31,0 0.34,0.07 0.7,0.49 1.49,1.92 3.62,2.2 4.84,2.2 2.09,0 3.04,-1.67 3.21,-1.96 0.63,-1.14 0.84,-2.47 0.84,-4.49 0,-1.05 0,-3.11 -1.05,-4.64 -0.87,-1.26 -2.37,-2.09 -4.08,-2.09 -2.27,0 -4.6,1.25 -5.47,3.56 1.32,-0.11 1.98,0.76 1.98,1.7 0,1.5 -1.29,1.78 -1.74,1.78 -0.07,0 -1.74,0 -1.74,-1.88 0,-3.14 2.85,-6.28 7.04,-6.28 4.46,0 8.37,3.31 8.37,7.71 0,3.94 -3,7.56 -7.32,7.56 -1.54,0 -3.35,-0.38 -4.88,-1.7 z"
           inkscape:connector-curvature="0"
           style="fill:#000000;stroke-width:0" /><polyline
           id="polyline6126"
           points="462,418 481.92,418 481.92,420.04 462,420.04 "
           style="fill:#000000;fill-rule:nonzero;stroke-width:0" /><path
           id="path6128"
           d="m 467.23,400.4 0,0.53 0.01,0.53 0.02,0.52 0.03,0.51 0.04,0.51 0.05,0.49 0.06,0.49 0.08,0.48 0.09,0.47 0.11,0.46 0.13,0.46 0.15,0.44 0.08,0.22 0.08,0.22 0.09,0.21 0.1,0.21 0.11,0.21 0.1,0.2 0.12,0.21 0.12,0.2 c 1.18,1.88 3.07,3.17 5.3,3.17 1.04,0 2.44,-0.28 3.14,-1.22 -0.87,-0.07 -1.61,-0.66 -1.61,-1.67 0,-0.87 0.6,-1.64 1.64,-1.64 1.05,0 1.68,0.69 1.68,1.71 0,2.02 -1.47,3.83 -4.92,3.83 -5.02,0 -10.15,-4.6 -10.15,-12.1 0,-9.03 4.26,-11.75 8.09,-11.75 4.26,0 7.95,3.25 7.95,7.81 0,4.43 -3.52,7.71 -7.6,7.71 l -0.17,-0.98 c 1.6,0 2.68,-0.63 3.55,-1.91 0.84,-1.33 0.87,-2.79 0.87,-4.82 0,-1.99 0,-3.45 -0.94,-4.81 -0.83,-1.22 -1.95,-1.88 -3.66,-1.88 l 0,0 c -1.74,0 -3.1,1.01 -3.83,2.54 -0.53,1.05 -0.8,2.79 -0.8,4.88 0,3.39 2.02,6 4.81,6 l 0.17,0.98 c -2.79,0 -4.32,-1.85 -5.09,-3.42 z"
           inkscape:connector-curvature="0"
           style="fill:#000000;stroke-width:0" /><path
           id="path6130"
           d="m 535.22,422.29 0.14,0 0.15,0 0.15,0.01 0.07,0 0.07,0 0.07,0.01 0.08,0.01 0.07,0.01 0.07,0.01 0.06,0.02 0.07,0.01 0.07,0.02 0.06,0.02 0.06,0.03 0.06,0.03 0.05,0.03 0.06,0.03 0.05,0.04 0.04,0.04 0.05,0.05 0.03,0.05 0.02,0.03 0.02,0.02 0.02,0.03 0.01,0.03 0.02,0.03 0.01,0.04 0.01,0.03 0.01,0.04 0.01,0.03 0.01,0.04 0.01,0.04 0,0.04 0.01,0.04 0,0.04 0,0.05 0,0.05 c 0,0.99 -0.94,0.99 -1.64,0.99 l -29.84,0 c -0.7,0 -1.64,0 -1.64,-0.99 0,-1 0.94,-1 1.69,-1 z"
           inkscape:connector-curvature="0"
           style="fill:#000000;stroke-width:0" /><path
           id="path6132"
           d="m 535.27,412.62 0.13,0.01 0.14,0 0.14,0 0.07,0.01 0.07,0 0.07,0.01 0.07,0.01 0.07,0.01 0.07,0.01 0.06,0.01 0.07,0.02 0.06,0.02 0.06,0.02 0.06,0.02 0.06,0.03 0.06,0.03 0.05,0.04 0.05,0.04 0.04,0.04 0.05,0.04 0.02,0.03 0.02,0.03 0.01,0.02 0.02,0.03 0.02,0.03 0.01,0.03 0.02,0.03 0.01,0.03 0.01,0.04 0.01,0.03 0.01,0.04 0.01,0.04 0.01,0.04 0,0.04 0.01,0.04 0,0.04 0,0.05 0,0.04 c 0,1 -0.94,1 -1.69,1 l -29.74,0 c -0.75,0 -1.69,0 -1.69,-1 0,-1 0.94,-1 1.64,-1 z"
           inkscape:connector-curvature="0"
           style="fill:#000000;stroke-width:0" /><path
           id="path6134"
           d="m 571.68,448.18 0,0.04 0,0.04 0,0.04 0,0.04 0,0.04 0,0.04 0,0.03 0,0.04 -0.01,0.03 0,0.03 0,0.04 0,0.03 -0.01,0.02 0,0.03 0,0.03 -0.01,0.03 0,0.02 0,0.02 -0.02,0.05 -0.01,0.04 -0.01,0.04 -0.02,0.03 -0.02,0.03 -0.02,0.03 -0.03,0.03 -0.02,0.02 -0.03,0.02 -0.04,0.02 -0.03,0.01 -0.04,0.01 -0.05,0.02 -0.05,0 -0.02,0.01 -0.03,0 -0.03,0.01 -0.02,0 -0.03,0 -0.03,0 -0.04,0 -0.03,0.01 -0.03,0 -0.04,0 -0.03,0 -0.04,0 -0.04,0 -0.04,0 -0.04,0 -0.04,0 -0.05,0 -0.04,0 c -2.24,-2.19 -5.41,-2.23 -6.84,-2.23 l 0,-1.25 c 0.84,0 3.14,0 5.05,0.97 l 0,-17.78 c 0,-1.15 0,-1.61 -3.48,-1.61 l -1.33,0 0,-1.25 12.45,0 0,1.25 -1.32,0 c -3.49,0 -3.49,0.46 -3.49,1.61 z"
           inkscape:connector-curvature="0"
           style="fill:#000000;stroke-width:0" /><path
           id="path6136"
           d="m 597.99,437.12 0,0.71 -0.02,0.68 -0.03,0.66 -0.04,0.64 -0.06,0.62 -0.08,0.59 -0.09,0.58 -0.11,0.56 -0.12,0.55 -0.15,0.53 -0.17,0.51 -0.19,0.5 -0.21,0.49 -0.24,0.48 -0.26,0.47 -0.14,0.24 -0.15,0.23 c -1.08,1.6 -3.24,2.99 -6.03,2.99 l 0,-0.97 c 1.88,0 3.7,-1.15 4.33,-3.18 0.55,-1.88 0.59,-4.39 0.59,-7.42 0,-2.58 0,-5.17 -0.45,-7.36 -0.7,-3.17 -3.07,-3.94 -4.47,-3.94 l 0,0 c -1.6,0 -3.73,0.94 -4.43,3.8 -0.49,2.06 -0.49,4.92 -0.49,7.5 0,2.54 0,5.19 0.53,7.11 0.73,2.76 2.96,3.49 4.39,3.49 l 0,0.97 c -8.09,0 -8.09,-9.52 -8.09,-12.03 0,-2.51 0,-11.82 8.09,-11.82 8.09,0 8.09,9.31 8.09,11.82 z"
           inkscape:connector-curvature="0"
           style="fill:#000000;stroke-width:0" /><polyline
           id="polyline6138"
           points="560,418 599.72,418 599.72,420.04 560,420.04 "
           style="fill:#000000;fill-rule:nonzero;stroke-width:0" /><path
           id="path6140"
           d="m 571.68,411.18 0,0.04 0,0.04 0,0.04 0,0.04 0,0.04 0,0.04 0,0.03 0,0.04 -0.01,0.03 0,0.03 0,0.04 0,0.03 -0.01,0.02 0,0.03 0,0.03 -0.01,0.03 0,0.02 0,0.02 -0.02,0.05 -0.01,0.04 -0.01,0.04 -0.02,0.03 -0.02,0.03 -0.02,0.03 -0.03,0.03 -0.02,0.02 -0.03,0.02 -0.04,0.02 -0.03,0.01 -0.04,0.01 -0.05,0.02 -0.05,0 -0.02,0.01 -0.03,0 -0.03,0.01 -0.02,0 -0.03,0 -0.03,0 -0.04,0 -0.03,0.01 -0.03,0 -0.04,0 -0.03,0 -0.04,0 -0.04,0 -0.04,0 -0.04,0 -0.04,0 -0.05,0 -0.04,0 c -2.24,-2.19 -5.41,-2.23 -6.84,-2.23 l 0,-1.25 c 0.84,0 3.14,0 5.05,0.97 l 0,-17.78 c 0,-1.15 0,-1.61 -3.48,-1.61 l -1.33,0 0,-1.25 12.45,0 0,1.25 -1.32,0 c -3.49,0 -3.49,0.46 -3.49,1.61 z"
           inkscape:connector-curvature="0"
           style="fill:#000000;stroke-width:0" /><path
           id="path6142"
           d="m 597.61,395.35 -1.19,0 c -0.1,-0.77 -0.45,-2.83 -0.9,-3.18 -0.28,-0.21 -2.97,-0.21 -3.45,-0.21 l -6.42,0 c 3.66,3.25 4.88,4.22 6.97,5.86 2.58,2.06 4.99,4.22 4.99,7.54 0,4.21 -3.7,6.79 -8.16,6.79 -4.33,0 -7.25,-3.03 -7.25,-6.24 0,-1.78 1.5,-1.95 1.84,-1.95 0.84,0 1.86,0.59 1.86,1.85 0,0.62 -0.25,1.85 -2.06,1.85 1.08,2.47 3.45,3.24 5.09,3.24 3.48,0 5.3,-2.72 5.3,-5.54 0,-3.04 -2.16,-5.45 -3.28,-6.7 l -8.4,-8.3 c -0.35,-0.31 -0.35,-0.38 -0.35,-1.36 l 14.36,0 z"
           inkscape:connector-curvature="0"
           style="fill:#000000;stroke-width:0" /><path
           id="path6144"
           d="m 653.22,422.29 0.14,0 0.15,0 0.15,0.01 0.07,0 0.07,0 0.07,0.01 0.08,0.01 0.07,0.01 0.07,0.01 0.06,0.02 0.07,0.01 0.07,0.02 0.06,0.02 0.06,0.03 0.06,0.03 0.05,0.03 0.06,0.03 0.05,0.04 0.04,0.04 0.05,0.05 0.03,0.05 0.02,0.03 0.02,0.02 0.02,0.03 0.01,0.03 0.02,0.03 0.01,0.04 0.01,0.03 0.01,0.04 0.01,0.03 0.01,0.04 0.01,0.04 0,0.04 0.01,0.04 0,0.04 0,0.05 0,0.05 c 0,0.99 -0.94,0.99 -1.64,0.99 l -29.84,0 c -0.7,0 -1.64,0 -1.64,-0.99 0,-1 0.94,-1 1.69,-1 z"
           inkscape:connector-curvature="0"
           style="fill:#000000;stroke-width:0" /><path
           id="path6146"
           d="m 653.27,412.62 0.13,0.01 0.14,0 0.14,0 0.07,0.01 0.07,0 0.07,0.01 0.07,0.01 0.07,0.01 0.07,0.01 0.06,0.01 0.07,0.02 0.06,0.02 0.06,0.02 0.06,0.02 0.06,0.03 0.06,0.03 0.05,0.04 0.05,0.04 0.04,0.04 0.05,0.04 0.02,0.03 0.02,0.03 0.01,0.02 0.02,0.03 0.02,0.03 0.01,0.03 0.02,0.03 0.01,0.03 0.01,0.04 0.01,0.03 0.01,0.04 0.01,0.04 0.01,0.04 0,0.04 0.01,0.04 0,0.04 0,0.05 0,0.04 c 0,1 -0.94,1 -1.69,1 l -29.74,0 c -0.75,0 -1.69,0 -1.69,-1 0,-1 0.94,-1 1.64,-1 z"
           inkscape:connector-curvature="0"
           style="fill:#000000;stroke-width:0" /><path
           id="path6148"
           d="m 689.68,448.18 0,0.04 0,0.04 0,0.04 0,0.04 0,0.04 0,0.04 0,0.03 0,0.04 -0.01,0.03 0,0.03 0,0.04 0,0.03 -0.01,0.02 0,0.03 0,0.03 -0.01,0.03 0,0.02 0,0.02 -0.02,0.05 -0.01,0.04 -0.01,0.04 -0.02,0.03 -0.02,0.03 -0.02,0.03 -0.03,0.03 -0.02,0.02 -0.03,0.02 -0.04,0.02 -0.03,0.01 -0.04,0.01 -0.05,0.02 -0.05,0 -0.02,0.01 -0.03,0 -0.03,0.01 -0.02,0 -0.03,0 -0.03,0 -0.04,0 -0.03,0.01 -0.03,0 -0.04,0 -0.03,0 -0.04,0 -0.04,0 -0.04,0 -0.04,0 -0.04,0 -0.05,0 -0.04,0 c -2.24,-2.19 -5.41,-2.23 -6.84,-2.23 l 0,-1.25 c 0.84,0 3.14,0 5.05,0.97 l 0,-17.78 c 0,-1.15 0,-1.61 -3.48,-1.61 l -1.33,0 0,-1.25 12.45,0 0,1.25 -1.32,0 c -3.49,0 -3.49,0.46 -3.49,1.61 z"
           inkscape:connector-curvature="0"
           style="fill:#000000;stroke-width:0" /><path
           id="path6150"
           d="m 703.41,445.46 0.16,-0.04 0.16,-0.04 0.16,-0.04 0.15,-0.03 0.15,-0.03 0.14,-0.03 0.14,-0.03 0.14,-0.02 0.13,-0.03 0.13,-0.02 0.12,-0.02 0.12,-0.02 0.12,-0.01 0.11,-0.02 0.11,-0.01 0.1,-0.01 0.11,-0.01 0.09,-0.01 0.1,-0.01 0.09,0 0.09,-0.01 0.08,0 0.08,-0.01 0.08,0 0.08,0 0.07,0 0.07,0 0.06,-0.01 0.07,0 0.06,0 0.05,0 0.05,0 c 4.61,0 7.33,3.14 7.33,3.66 0,0.39 -0.24,0.49 -0.42,0.49 -0.07,0 -0.14,0 -0.28,-0.1 -0.84,-0.32 -2.68,-1.01 -5.26,-1.01 -0.98,0 -2.83,0.07 -5.1,0.94 -0.34,0.17 -0.41,0.17 -0.45,0.17 -0.45,0 -0.45,-0.38 -0.45,-0.94 l 0,-10.28 c 0,-0.6 0,-1.02 0.56,-1.02 0.31,0 0.34,0.07 0.7,0.49 1.49,1.92 3.62,2.2 4.84,2.2 2.09,0 3.03,-1.67 3.21,-1.96 0.63,-1.14 0.84,-2.47 0.84,-4.49 0,-1.05 0,-3.11 -1.05,-4.64 -0.87,-1.26 -2.37,-2.09 -4.08,-2.09 -2.27,0 -4.6,1.25 -5.47,3.56 1.32,-0.11 1.98,0.76 1.98,1.7 0,1.5 -1.28,1.78 -1.74,1.78 -0.07,0 -1.74,0 -1.74,-1.88 0,-3.14 2.85,-6.28 7.04,-6.28 4.46,0 8.37,3.31 8.37,7.71 0,3.94 -3,7.56 -7.33,7.56 -1.53,0 -3.34,-0.38 -4.87,-1.7 z"
           inkscape:connector-curvature="0"
           style="fill:#000000;stroke-width:0" /><polyline
           id="polyline6152"
           points="678,418 717.72,418 717.72,420.04 678,420.04 "
           style="fill:#000000;fill-rule:nonzero;stroke-width:0" /><path
           id="path6154"
           d="m 689.68,411.18 0,0.04 0,0.04 0,0.04 0,0.04 0,0.04 0,0.04 0,0.03 0,0.04 -0.01,0.03 0,0.03 0,0.04 0,0.03 -0.01,0.02 0,0.03 0,0.03 -0.01,0.03 0,0.02 0,0.02 -0.02,0.05 -0.01,0.04 -0.01,0.04 -0.02,0.03 -0.02,0.03 -0.02,0.03 -0.03,0.03 -0.02,0.02 -0.03,0.02 -0.04,0.02 -0.03,0.01 -0.04,0.01 -0.05,0.02 -0.05,0 -0.02,0.01 -0.03,0 -0.03,0.01 -0.02,0 -0.03,0 -0.03,0 -0.04,0 -0.03,0.01 -0.03,0 -0.04,0 -0.03,0 -0.04,0 -0.04,0 -0.04,0 -0.04,0 -0.04,0 -0.05,0 -0.04,0 c -2.24,-2.19 -5.41,-2.23 -6.84,-2.23 l 0,-1.25 c 0.84,0 3.14,0 5.05,0.97 l 0,-17.78 c 0,-1.15 0,-1.61 -3.48,-1.61 l -1.33,0 0,-1.25 12.45,0 0,1.25 -1.32,0 c -3.49,0 -3.49,0.46 -3.49,1.61 z"
           inkscape:connector-curvature="0"
           style="fill:#000000;stroke-width:0" /><path
           id="path6156"
           d="m 710.38,401.59 0.25,0.12 0.25,0.13 0.24,0.13 0.23,0.13 0.23,0.13 0.22,0.14 0.22,0.14 0.2,0.14 0.21,0.14 0.19,0.15 0.19,0.14 0.18,0.15 0.17,0.16 0.16,0.15 0.16,0.16 0.15,0.17 0.14,0.16 0.14,0.17 0.12,0.17 0.12,0.18 0.11,0.18 0.1,0.18 0.09,0.19 0.08,0.19 0.07,0.19 0.06,0.2 0.06,0.2 0.04,0.21 0.04,0.21 0.02,0.21 0.02,0.22 0,0.23 c 0,3.38 -3.52,5.19 -6.9,5.19 l -0.07,-1.01 c 2.72,0 5.12,-1.71 5.12,-4.18 0,-3.1 -3.62,-4.67 -3.69,-4.67 -0.07,0 -0.14,0.03 -0.39,0.17 l -4.21,2.44 c -0.91,0.52 -1.89,1.46 -1.89,2.76 0,2.19 2.54,3.48 5.06,3.48 l 0.07,1.01 c -3.84,0 -6.97,-2.51 -6.97,-5.82 0,-1.64 0.76,-2.83 1.39,-3.52 0.62,-0.74 0.87,-0.87 2.93,-2.1 -1.95,-0.83 -5.41,-2.71 -5.41,-6.37 0,-3.88 4.02,-6.04 7.99,-6.04 l 0.07,1.12 c -3.21,0 -5.96,2.06 -5.96,4.92 0,2.57 1.92,4.56 4.42,5.71 l 0,0 4.78,-2.75 c 0.91,-0.52 2.65,-1.57 2.65,-3.63 0,-2.61 -2.89,-4.25 -5.89,-4.25 l -0.07,-1.12 c 4.43,0 8.05,2.83 8.05,6.59 0,2.31 -1.36,4.26 -3.38,5.44 -0.45,0.28 -1.67,0.98 -2.16,1.26 z"
           inkscape:connector-curvature="0"
           style="fill:#000000;stroke-width:0" /><path
           id="path6158"
           d="m 771.22,422.29 0.14,0 0.15,0 0.15,0.01 0.07,0 0.07,0 0.07,0.01 0.08,0.01 0.07,0.01 0.07,0.01 0.06,0.02 0.07,0.01 0.07,0.02 0.06,0.02 0.06,0.03 0.06,0.03 0.05,0.03 0.06,0.03 0.05,0.04 0.04,0.04 0.05,0.05 0.03,0.05 0.02,0.03 0.02,0.02 0.02,0.03 0.01,0.03 0.02,0.03 0.01,0.04 0.01,0.03 0.01,0.04 0.01,0.03 0.01,0.04 0.01,0.04 0,0.04 0.01,0.04 0,0.04 0,0.05 0,0.05 c 0,0.99 -0.94,0.99 -1.64,0.99 l -29.84,0 c -0.7,0 -1.64,0 -1.64,-0.99 0,-1 0.94,-1 1.69,-1 z"
           inkscape:connector-curvature="0"
           style="fill:#000000;stroke-width:0" /><path
           id="path6160"
           d="m 771.27,412.62 0.13,0.01 0.14,0 0.14,0 0.07,0.01 0.07,0 0.07,0.01 0.07,0.01 0.07,0.01 0.07,0.01 0.06,0.01 0.07,0.02 0.06,0.02 0.06,0.02 0.06,0.02 0.06,0.03 0.06,0.03 0.05,0.04 0.05,0.04 0.04,0.04 0.05,0.04 0.02,0.03 0.02,0.03 0.01,0.02 0.02,0.03 0.02,0.03 0.01,0.03 0.02,0.03 0.01,0.03 0.01,0.04 0.01,0.03 0.01,0.04 0.01,0.04 0.01,0.04 0,0.04 0.01,0.04 0,0.04 0,0.05 0,0.04 c 0,1 -0.94,1 -1.69,1 l -29.74,0 c -0.75,0 -1.69,0 -1.69,-1 0,-1 0.94,-1 1.64,-1 z"
           inkscape:connector-curvature="0"
           style="fill:#000000;stroke-width:0" /><path
           id="path6162"
           d="m 813.61,432.35 -1.19,0 c -0.1,-0.77 -0.45,-2.83 -0.9,-3.18 -0.28,-0.21 -2.97,-0.21 -3.45,-0.21 l -6.42,0 c 3.66,3.25 4.88,4.22 6.97,5.86 2.58,2.06 4.99,4.22 4.99,7.54 0,4.21 -3.7,6.79 -8.16,6.79 -4.33,0 -7.25,-3.03 -7.25,-6.24 0,-1.78 1.5,-1.95 1.84,-1.95 0.84,0 1.86,0.59 1.86,1.85 0,0.62 -0.25,1.85 -2.06,1.85 1.08,2.47 3.45,3.24 5.09,3.24 3.48,0 5.3,-2.72 5.3,-5.54 0,-3.04 -2.16,-5.45 -3.28,-6.7 l -8.4,-8.3 c -0.35,-0.31 -0.35,-0.38 -0.35,-1.36 l 14.36,0 z"
           inkscape:connector-curvature="0"
           style="fill:#000000;stroke-width:0" /><path
           id="path6164"
           d="m 833.99,437.12 0,0.71 -0.02,0.68 -0.03,0.66 -0.04,0.64 -0.06,0.62 -0.08,0.59 -0.09,0.58 -0.11,0.56 -0.12,0.55 -0.15,0.53 -0.17,0.51 -0.19,0.5 -0.21,0.49 -0.24,0.48 -0.26,0.47 -0.14,0.24 -0.15,0.23 c -1.08,1.6 -3.24,2.99 -6.03,2.99 l 0,-0.97 c 1.88,0 3.7,-1.15 4.33,-3.18 0.55,-1.88 0.59,-4.39 0.59,-7.42 0,-2.58 0,-5.17 -0.45,-7.36 -0.7,-3.17 -3.07,-3.94 -4.47,-3.94 l 0,0 c -1.6,0 -3.73,0.94 -4.43,3.8 -0.49,2.06 -0.49,4.92 -0.49,7.5 0,2.54 0,5.19 0.53,7.11 0.73,2.76 2.96,3.49 4.39,3.49 l 0,0.97 c -8.09,0 -8.09,-9.52 -8.09,-12.03 0,-2.51 0,-11.82 8.09,-11.82 8.09,0 8.09,9.31 8.09,11.82 z"
           inkscape:connector-curvature="0"
           style="fill:#000000;stroke-width:0" /><polyline
           id="polyline6166"
           points="796,418 835.72,418 835.72,420.04 796,420.04 "
           style="fill:#000000;fill-rule:nonzero;stroke-width:0" /><path
           id="path6168"
           d="m 813.61,395.35 -1.19,0 c -0.1,-0.77 -0.45,-2.83 -0.9,-3.18 -0.28,-0.21 -2.97,-0.21 -3.45,-0.21 l -6.42,0 c 3.66,3.25 4.88,4.22 6.97,5.86 2.58,2.06 4.99,4.22 4.99,7.54 0,4.21 -3.7,6.79 -8.16,6.79 -4.33,0 -7.25,-3.03 -7.25,-6.24 0,-1.78 1.5,-1.95 1.84,-1.95 0.84,0 1.86,0.59 1.86,1.85 0,0.62 -0.25,1.85 -2.06,1.85 1.08,2.47 3.45,3.24 5.09,3.24 3.48,0 5.3,-2.72 5.3,-5.54 0,-3.04 -2.16,-5.45 -3.28,-6.7 l -8.4,-8.3 c -0.35,-0.31 -0.35,-0.38 -0.35,-1.36 l 14.36,0 z"
           inkscape:connector-curvature="0"
           style="fill:#000000;stroke-width:0" /><path
           id="path6170"
           d="m 834.45,394.72 0,1.25 -3.88,0 0,15.56 c 0,0.73 0,0.97 -0.76,0.97 -0.42,0 -0.56,0 -0.91,-0.49 l -11.54,-16.04 0,-1.25 10.25,0 0.24,1.25 -9.2,0 9.2,12.76 0,-12.76 -0.24,-1.25 0,-2.86 c 0,-1.19 0,-1.61 -2.83,-1.61 l -0.94,0 0,-1.25 10.5,0 0,1.25 -0.94,0 c -2.83,0 -2.83,0.42 -2.83,1.61 l 0,2.86 z"
           inkscape:connector-curvature="0"
           style="fill:#000000;stroke-width:0" /><path
           id="path6172"
           d="m 889.22,422.29 0.14,0 0.15,0 0.15,0.01 0.07,0 0.07,0 0.07,0.01 0.08,0.01 0.07,0.01 0.07,0.01 0.06,0.02 0.07,0.01 0.07,0.02 0.06,0.02 0.06,0.03 0.06,0.03 0.05,0.03 0.06,0.03 0.05,0.04 0.04,0.04 0.05,0.05 0.03,0.05 0.02,0.03 0.02,0.02 0.02,0.03 0.01,0.03 0.02,0.03 0.01,0.04 0.01,0.03 0.01,0.04 0.01,0.03 0.01,0.04 0.01,0.04 0,0.04 0.01,0.04 0,0.04 0,0.05 0,0.05 c 0,0.99 -0.94,0.99 -1.64,0.99 l -29.84,0 c -0.7,0 -1.64,0 -1.64,-0.99 0,-1 0.94,-1 1.69,-1 z"
           inkscape:connector-curvature="0"
           style="fill:#000000;stroke-width:0" /><path
           id="path6174"
           d="m 889.27,412.62 0.13,0.01 0.14,0 0.14,0 0.07,0.01 0.07,0 0.07,0.01 0.07,0.01 0.07,0.01 0.07,0.01 0.06,0.01 0.07,0.02 0.06,0.02 0.06,0.02 0.06,0.02 0.06,0.03 0.06,0.03 0.05,0.04 0.05,0.04 0.04,0.04 0.05,0.04 0.02,0.03 0.02,0.03 0.01,0.02 0.02,0.03 0.02,0.03 0.01,0.03 0.02,0.03 0.01,0.03 0.01,0.04 0.01,0.03 0.01,0.04 0.01,0.04 0.01,0.04 0,0.04 0.01,0.04 0,0.04 0,0.05 0,0.04 c 0,1 -0.94,1 -1.69,1 l -29.74,0 c -0.75,0 -1.69,0 -1.69,-1 0,-1 0.94,-1 1.64,-1 z"
           inkscape:connector-curvature="0"
           style="fill:#000000;stroke-width:0" /><path
           id="path6176"
           d="m 931.61,432.35 -1.19,0 c -0.1,-0.77 -0.45,-2.83 -0.9,-3.18 -0.28,-0.21 -2.97,-0.21 -3.45,-0.21 l -6.42,0 c 3.66,3.25 4.88,4.22 6.97,5.86 2.58,2.06 4.99,4.22 4.99,7.54 0,4.21 -3.7,6.79 -8.16,6.79 -4.33,0 -7.25,-3.03 -7.25,-6.24 0,-1.78 1.5,-1.95 1.84,-1.95 0.84,0 1.86,0.59 1.86,1.85 0,0.62 -0.25,1.85 -2.06,1.85 1.08,2.47 3.45,3.24 5.09,3.24 3.48,0 5.3,-2.72 5.3,-5.54 0,-3.04 -2.16,-5.45 -3.28,-6.7 l -8.4,-8.3 c -0.35,-0.31 -0.35,-0.38 -0.35,-1.36 l 14.36,0 z"
           inkscape:connector-curvature="0"
           style="fill:#000000;stroke-width:0" /><path
           id="path6178"
           d="m 939.41,445.46 0.16,-0.04 0.16,-0.04 0.16,-0.04 0.15,-0.03 0.15,-0.03 0.14,-0.03 0.14,-0.03 0.14,-0.02 0.13,-0.03 0.13,-0.02 0.12,-0.02 0.12,-0.02 0.12,-0.01 0.11,-0.02 0.11,-0.01 0.1,-0.01 0.11,-0.01 0.09,-0.01 0.1,-0.01 0.09,0 0.09,-0.01 0.08,0 0.08,-0.01 0.08,0 0.08,0 0.07,0 0.07,0 0.06,-0.01 0.07,0 0.06,0 0.05,0 0.05,0 c 4.61,0 7.33,3.14 7.33,3.66 0,0.39 -0.24,0.49 -0.42,0.49 -0.07,0 -0.14,0 -0.28,-0.1 -0.84,-0.32 -2.68,-1.01 -5.26,-1.01 -0.98,0 -2.83,0.07 -5.1,0.94 -0.34,0.17 -0.41,0.17 -0.45,0.17 -0.45,0 -0.45,-0.38 -0.45,-0.94 l 0,-10.28 c 0,-0.6 0,-1.02 0.56,-1.02 0.31,0 0.34,0.07 0.7,0.49 1.49,1.92 3.62,2.2 4.84,2.2 2.09,0 3.03,-1.67 3.21,-1.96 0.63,-1.14 0.84,-2.47 0.84,-4.49 0,-1.05 0,-3.11 -1.05,-4.64 -0.87,-1.26 -2.37,-2.09 -4.08,-2.09 -2.27,0 -4.6,1.25 -5.47,3.56 1.32,-0.11 1.98,0.76 1.98,1.7 0,1.5 -1.28,1.78 -1.74,1.78 -0.07,0 -1.74,0 -1.74,-1.88 0,-3.14 2.85,-6.28 7.04,-6.28 4.46,0 8.37,3.31 8.37,7.71 0,3.94 -3,7.56 -7.33,7.56 -1.53,0 -3.34,-0.38 -4.87,-1.7 z"
           inkscape:connector-curvature="0"
           style="fill:#000000;stroke-width:0" /><polyline
           id="polyline6180"
           points="914,418 953.72,418 953.72,420.04 914,420.04 "
           style="fill:#000000;fill-rule:nonzero;stroke-width:0" /><path
           id="path6182"
           d="m 923.52,400.64 0.25,0 0.25,-0.02 0.24,-0.02 0.24,-0.04 0.23,-0.05 0.23,-0.06 0.22,-0.07 0.22,-0.09 0.21,-0.09 0.2,-0.11 0.19,-0.11 0.19,-0.13 0.18,-0.13 0.18,-0.15 0.17,-0.16 0.15,-0.17 0.16,-0.18 0.14,-0.2 0.13,-0.2 0.13,-0.21 0.12,-0.23 0.11,-0.23 0.09,-0.25 0.09,-0.26 0.08,-0.27 0.07,-0.28 0.06,-0.29 0.05,-0.3 0.04,-0.31 0.03,-0.32 0.02,-0.33 0,-0.35 c 0,-4.32 -2.51,-5.61 -4.53,-5.61 -1.39,0 -4.46,0.38 -5.93,2.44 1.64,0.07 2.02,1.22 2.02,1.95 0,1.12 -0.83,1.92 -1.91,1.92 -0.98,0 -1.96,-0.59 -1.96,-2.02 0,-3.28 3.63,-5.41 7.85,-5.41 4.84,0 8.19,3.25 8.19,6.73 0,2.72 -2.23,5.44 -6.07,6.24 3.67,1.33 4.99,3.94 4.99,6.07 0,2.76 -3.17,4.81 -7.04,4.81 -3.87,0 -6.83,-1.88 -6.83,-4.67 0,-1.18 0.76,-1.85 1.81,-1.85 1.08,0 1.77,0.8 1.77,1.78 0,1.01 -0.69,1.75 -1.77,1.81 1.22,1.54 3.62,1.92 4.92,1.92 1.56,0 3.76,-0.76 3.76,-3.8 0,-1.46 -0.49,-3.07 -1.39,-4.15 -1.16,-1.32 -2.13,-1.39 -3.87,-1.5 -0.88,-0.07 -0.95,-0.07 -1.12,-0.1 -0.07,0 -0.35,-0.07 -0.35,-0.46 0,-0.49 0.31,-0.49 0.91,-0.49 z"
           inkscape:connector-curvature="0"
           style="fill:#000000;stroke-width:0" /><path
           id="path6184"
           d="m 951.99,400.12 0,0.71 -0.02,0.68 -0.03,0.66 -0.04,0.64 -0.06,0.62 -0.08,0.59 -0.09,0.58 -0.11,0.56 -0.12,0.55 -0.15,0.53 -0.17,0.51 -0.19,0.5 -0.21,0.49 -0.24,0.48 -0.26,0.47 -0.14,0.24 -0.15,0.23 c -1.08,1.6 -3.24,2.99 -6.03,2.99 l 0,-0.97 c 1.88,0 3.7,-1.15 4.33,-3.18 0.55,-1.88 0.59,-4.39 0.59,-7.42 0,-2.58 0,-5.17 -0.45,-7.36 -0.7,-3.17 -3.07,-3.94 -4.47,-3.94 l 0,0 c -1.6,0 -3.73,0.94 -4.43,3.8 -0.49,2.06 -0.49,4.92 -0.49,7.5 0,2.54 0,5.19 0.53,7.11 0.73,2.76 2.96,3.49 4.39,3.49 l 0,0.97 c -8.09,0 -8.09,-9.52 -8.09,-12.03 0,-2.51 0,-11.82 8.09,-11.82 8.09,0 8.09,9.31 8.09,11.82 z"
           inkscape:connector-curvature="0"
           style="fill:#000000;stroke-width:0" /><path
           id="path6186"
           d="m 1008.2,422.29 0.2,0 0.1,0 0.2,0.01 0,0 0.1,0 0.1,0.01 0,0.01 0.1,0.01 0.1,0.01 0.1,0.02 0,0.01 0.1,0.02 0,0.02 0.1,0.03 0.1,0.03 0,0.03 0.1,0.03 0,0.04 0.1,0.04 0,0.05 0.1,0.05 0,0.03 0,0.02 0,0.03 0,0.03 0,0.03 0,0.04 0.1,0.03 0,0.04 0,0.03 0,0.04 0,0.04 0,0.04 0,0.04 0,0.04 0,0.05 0,0.05 c 0,0.99 -0.9,0.99 -1.6,0.99 l -29.87,0 c -0.7,0 -1.64,0 -1.64,-0.99 0,-1 0.94,-1 1.69,-1 z"
           inkscape:connector-curvature="0"
           style="fill:#000000;stroke-width:0" /><path
           id="path6188"
           d="m 1008.3,412.62 0.1,0.01 0.1,0 0.2,0 0.1,0.01 0,0 0.1,0.01 0.1,0.01 0,0.01 0.1,0.01 0.1,0.01 0,0.02 0.1,0.02 0.1,0.02 0,0.02 0.1,0.03 0,0.03 0.1,0.04 0,0.04 0.1,0.04 0,0.04 0,0.03 0.1,0.03 0,0.02 0,0.03 0,0.03 0,0.03 0,0.03 0,0.03 0.1,0.04 0,0.03 0,0.04 0,0.04 0,0.04 0,0.04 0,0.04 0,0.04 0,0.05 0,0.04 c 0,1 -0.9,1 -1.7,1 l -29.72,0 c -0.75,0 -1.69,0 -1.69,-1 0,-1 0.94,-1 1.64,-1 z"
           inkscape:connector-curvature="0"
           style="fill:#000000;stroke-width:0" /><path
           id="path6190"
           d="m 1035.6,408.64 0,0.14 -0.1,0.13 0,0.13 0,0.13 0,0.13 -0.1,0.12 0,0.12 0,0.12 -0.1,0.12 -0.1,0.11 0,0.11 -0.1,0.11 -0.1,0.1 0,0.1 -0.1,0.1 -0.1,0.09 -0.1,0.09 -0.1,0.08 -0.1,0.08 -0.1,0.08 -0.1,0.07 -0.1,0.06 -0.1,0.06 -0.2,0.05 -0.1,0.05 -0.1,0.04 -0.1,0.04 -0.1,0.03 -0.2,0.02 -0.1,0.02 -0.1,0.01 -0.2,0 c -1.4,0 -2.6,-1.19 -2.6,-2.64 0,-1.44 1.2,-2.64 2.6,-2.64 1.5,0 2.7,1.2 2.7,2.64 z"
           inkscape:connector-curvature="0"
           style="fill:#000000;stroke-width:0" /><path
           id="path6192"
           d="m 1057.6,408.64 0,0.14 -0.1,0.13 0,0.13 0,0.13 0,0.13 -0.1,0.12 0,0.12 0,0.12 -0.1,0.12 -0.1,0.11 0,0.11 -0.1,0.11 -0.1,0.1 0,0.1 -0.1,0.1 -0.1,0.09 -0.1,0.09 -0.1,0.08 -0.1,0.08 -0.1,0.08 -0.1,0.07 -0.1,0.06 -0.1,0.06 -0.2,0.05 -0.1,0.05 -0.1,0.04 -0.1,0.04 -0.1,0.03 -0.2,0.02 -0.1,0.02 -0.1,0.01 -0.2,0 c -1.4,0 -2.6,-1.19 -2.6,-2.64 0,-1.44 1.2,-2.64 2.6,-2.64 1.5,0 2.7,1.2 2.7,2.64 z"
           inkscape:connector-curvature="0"
           style="fill:#000000;stroke-width:0" /><path
           id="path6194"
           d="m 1079.6,408.64 0,0.14 -0.1,0.13 0,0.13 0,0.13 0,0.13 -0.1,0.12 0,0.12 0,0.12 -0.1,0.12 -0.1,0.11 0,0.11 -0.1,0.11 -0.1,0.1 0,0.1 -0.1,0.1 -0.1,0.09 -0.1,0.09 -0.1,0.08 -0.1,0.08 -0.1,0.08 -0.1,0.07 -0.1,0.06 -0.1,0.06 -0.2,0.05 -0.1,0.05 -0.1,0.04 -0.1,0.04 -0.1,0.03 -0.2,0.02 -0.1,0.02 -0.1,0.01 -0.2,0 c -1.4,0 -2.6,-1.19 -2.6,-2.64 0,-1.44 1.2,-2.64 2.6,-2.64 1.5,0 2.7,1.2 2.7,2.64 z"
           inkscape:connector-curvature="0"
           style="fill:#000000;stroke-width:0" /></g>    </g>
    <rect
       style="fill:#0000ff;fill-opacity:0.2201258;stroke:#000000;stroke-width:1;stroke-miterlimit:4;stroke-dasharray:none;stroke-opacity:1"
       id="rect6286"
       width="67.680222"
       height="191.92899"
       x="165.66502"
       y="268.4838"
       rx="33.840111"
       ry="33.840111" />
    <rect
       style="fill:#0000ff;fill-opacity:0.2201258;stroke:#000000;stroke-width:1.63902676;stroke-miterlimit:4;stroke-dasharray:none;stroke-opacity:1"
       id="rect6288"
       width="109.07761"
       height="253.77319"
       x="555.37537"
       y="-290.80176"
       rx="54.538803"
       ry="54.677803"
       transform="matrix(0.6421849,0.76654977,-0.77500899,0.63195021,0,0)" />
  </g>
</svg>
