<?xml version="1.0" encoding="UTF-8" standalone="no"?>
<!-- Copyright 2017 mathsisfun.com -->
<svg xmlns="http://www.w3.org/2000/svg" xmlns:xlink="http://www.w3.org/1999/xlink" width="292.3" height="322.5" version="1.1">
<defs>
<linearGradient id="id01">
<stop offset="0" style="stop-color:#bee57c; stop-opacity:1;"/>
<stop offset="1" style="stop-color:#a6d904; stop-opacity:1;"/>
</linearGradient>
<radialGradient r="543.357" fx="395.208" fy="431.646" cx="395.2" cy="431.6" gradientTransform="matrix(1.35721,1.02439,-0.637284,0.844331,-1169.91,-417.647)" xlink:href="#id01" gradientUnits="userSpaceOnUse" id="id02"/>
</defs>
<g transform="translate(286.526,-212.142)">
<rect x="-279.3" y="505" ry="0.3" width="0.7" height="20.4" style="fill:white; stroke-width:0.64;"/>
<text x="-247.2" y="523.1" style="font-family:Arial; font-size:18.7px; font-style:italic; color:black; overflow:visible; fill:black; stroke-width:1px;">= 20 Games</text>
<text x="-241.9" y="234.6" style="font-family:Arial; font-size:30.9px; font-style:italic; color:black; overflow:visible; fill:#c4a000; stroke-width:1.29px;">Games Played</text>
<g transform="matrix(-0.030252,0,0,-0.030252,-296.596,534.867)" id="id03">
<circle cx="-908.6" cy="584.5" r="574.256" style="fill:url(#id02); stroke:#477000; stroke-width:3;"/>
<path d="m -1297.1,1008 c -14.1,-11.7 -24.2,-23.9 -36,-36.4 58.1,1 101.1,-13.6 153.5,-49.8 43.8,-27.6 100.8,-190.5 78.9,-338.1 -14.3,-126.7 -40.2,-102.6 -70.8,-293.4 -13.3,-73.3 0.3,-174.7 101.3,-256.6 27.6,-7.8 38.9,-10.8 84.1,-18.1 -168.1,114.2 -149.4,208.1 -138.6,281.4 5.7,103.8 61.5,156.8 75.8,288.5 21.9,152.6 -46.7,336.7 -90.5,364.3 -52.4,36.2 -99.6,59.3 -157.7,58.4 z" style="fill:#f7f7f7; stroke-width:24;"/>
<path d="m -457.5,228.8 c 14.2,16.4 22,27.5 34.4,47.5 12.3,144.8 17.4,268.1 -17,387.7 -45.7,129.3 -143.6,282 -131.8,323.3 -1.1,19.9 -2.2,40.7 7.5,59.7 -10.8,5 -20.7,13.6 -31.4,18.5 -6.2,-22.5 -7.8,-46.7 -5.9,-68.3 11.2,-81.9 42.1,-144.1 82.1,-218.9 25.3,-50.6 39.8,-101.1 59.7,-151.7 24.2,-75.1 23.2,-197 2.5,-397.9 z" style="fill:#f7f7f7; stroke-width:1px;"/>
</g>
<g>
<text x="-275.7" y="488.2" style="font-family:Arial; font-size:24px; color:black; overflow:visible; fill:#0084c8; stroke-width:1px;">John</text>
<use transform="translate(18.9262,-72.8254)" xlink:href="#id03" id="id04"/>
<use transform="translate(0,-42.5936)" xlink:href="#id04"/>
</g>
<g transform="translate(12)">
<text x="-76.3" y="488.2" style="font-family:Arial; font-size:24px; color:black; overflow:visible; fill:#0084c8; stroke-width:1px;">Alex</text>
<use transform="translate(216.042,-72.8254)" xlink:href="#id03" id="id05"/>
<use transform="translate(0,-42.5936)" xlink:href="#id05"/>
<g transform="translate(-0.013204,2.60006)">
<use transform="translate(-0.056604,-87.7176)" xlink:href="#id05"/>
<path d="m -53.1,339.1 a 17.6,17.6 0 0 1 17.6,17.6 h -17.6 z" style="color:black; overflow:visible; fill:white; stroke-width:0.1;"/>
</g>
</g>
<g transform="translate(7.32562)">
<text x="-145.6" y="488.2" style="font-family:Arial; font-size:24px; color:black; overflow:visible; fill:#0084c8; stroke-width:1px;">Mary</text>
<use transform="translate(151.011,-72.8254)" xlink:href="#id03" id="id06"/>
<use transform="translate(0,-42.5936)" xlink:href="#id06"/>
<use transform="translate(0,-85.1873)" xlink:href="#id06" id="id07"/>
<use transform="translate(0,-42.5936)" xlink:href="#id07"/>
<g transform="translate(9.69347)">
<use transform="translate(-9.69299,-170.305)" xlink:href="#id06"/>
<path d="m -145.3,274.1 a 17.6,17.6 0 0 1 8.8,-15.2 17.6,17.6 0 0 1 17.6,0 17.6,17.6 0 0 1 8.8,15.2 h -17.6 z" style="color:black; overflow:visible; fill:white; stroke-width:0.1;"/>
</g>
</g>
<g transform="translate(2.69794)">
<text x="-207.6" y="488.2" style="font-family:Arial; font-size:24px; color:black; overflow:visible; fill:#0084c8; stroke-width:1px;">Sam</text>
<use transform="translate(85.9333,-72.8254)" xlink:href="#id03" id="id08"/>
<use transform="translate(0,-42.5936)" xlink:href="#id08" id="id09"/>
<g transform="translate(8.72502,2.15327)">
<use transform="translate(-8.72545,-44.747)" xlink:href="#id09"/>
<path d="m -191.9,374.6 a 17.6,17.6 0 0 1 -17.6,-17.6 17.6,17.6 0 0 1 17.6,-17.6 17.6,17.6 0 0 1 17.6,17.6 H -191.9 Z" style="color:black; overflow:visible; fill:white; stroke-width:0.1;"/>
</g>
</g>
<rect x="-284.2" y="244.4" width="287.3" height="224.2" style="color:black; overflow:visible; fill:none; stroke:#204a87; stroke-width:1.2px;"/>
<g transform="translate(80.9073,158.277)">
<use transform="translate(-8.72545,-44.747)" xlink:href="#id09"/>
<path d="m -191.9,374.6 a 17.6,17.6 0 0 1 -17.6,-17.6 17.6,17.6 0 0 1 17.6,-17.6 17.6,17.6 0 0 1 17.6,17.6 H -191.9 Z" style="color:black; overflow:visible; fill:white; stroke-width:0.1;"/>
</g>
<text x="-86.2" y="523.8" style="font-family:Arial; font-size:18.7px; font-style:italic; color:black; overflow:visible; fill:black; stroke-width:1px;">= 5 Games</text>
</g>
</svg>
