<?xml version="1.0" encoding="UTF-8" standalone="no"?>
<!-- Created with Inkscape (http://www.inkscape.org/) -->
<svg
   xmlns:dc="http://purl.org/dc/elements/1.1/"
   xmlns:cc="http://web.resource.org/cc/"
   xmlns:rdf="http://www.w3.org/1999/02/22-rdf-syntax-ns#"
   xmlns:svg="http://www.w3.org/2000/svg"
   xmlns="http://www.w3.org/2000/svg"
   xmlns:sodipodi="http://sodipodi.sourceforge.net/DTD/sodipodi-0.dtd"
   xmlns:inkscape="http://www.inkscape.org/namespaces/inkscape"
   id="svg2211"
   sodipodi:version="0.32"
   inkscape:version="0.45.1"
   width="768"
   height="1024"
   version="1.0"
   sodipodi:docbase="C:\Documents and Settings\Operator\Moje dokumenty"
   sodipodi:docname="B707_szkic_180805.jpg.svg"
   inkscape:output_extension="org.inkscape.output.svg.inkscape">
  <metadata
     id="metadata2216">
    <rdf:RDF>
      <cc:Work
         rdf:about="">
        <dc:format>image/svg+xml</dc:format>
        <dc:type
           rdf:resource="http://purl.org/dc/dcmitype/StillImage" />
      </cc:Work>
    </rdf:RDF>
  </metadata>
  <defs
     id="defs2214" />
  <sodipodi:namedview
     inkscape:window-height="721"
     inkscape:window-width="1024"
     inkscape:pageshadow="2"
     inkscape:pageopacity="0.0"
     guidetolerance="10.0"
     gridtolerance="10.0"
     objecttolerance="10.0"
     borderopacity="1.0"
     bordercolor="#666666"
     pagecolor="#ffffff"
     id="base"
     inkscape:zoom="0.50000001"
     inkscape:cx="763.29"
     inkscape:cy="516.31779"
     inkscape:window-x="0"
     inkscape:window-y="20"
     inkscape:current-layer="svg2211"
     showguides="true"
     inkscape:guide-bbox="true"
     width="768px"
     height="1024px" />
  <g
     id="g7342"
     transform="matrix(2.0535802,0,0,2.0535802,31.539992,-16.832209)">
    <g
       style="stroke:#000000;stroke-opacity:1"
       id="g2176">
      <g
         style="stroke:#000000;stroke-opacity:1"
         id="g6139">
        <path
           id="path4185"
           d="M 75.892857,161.90476 L 104.91071,132.44048"
           style="fill:none;fill-rule:evenodd;stroke:#000000;stroke-width:2.5999999;stroke-linecap:butt;stroke-linejoin:miter;stroke-miterlimit:4;stroke-dasharray:none;stroke-opacity:1" />
        <g
           style="stroke:#000000;stroke-opacity:1"
           transform="matrix(0.4536313,0.4475248,-0.4475248,0.4536313,125.18546,65.765003)"
           id="g6129">
          <rect
             style="opacity:0.66513815;fill:none;fill-opacity:1;stroke:#000000;stroke-width:4.08017063;stroke-linecap:round;stroke-linejoin:miter;stroke-miterlimit:4;stroke-dasharray:none;stroke-opacity:1"
             id="rect5156"
             width="13.839286"
             height="26.636906"
             x="43.117561"
             y="133.48215"
             ry="1.7848055"
             rx="1.7848055" />
          <rect
             style="opacity:0.66513815;fill:none;fill-opacity:1;stroke:#000000;stroke-width:2.66780376;stroke-linecap:round;stroke-linejoin:miter;stroke-miterlimit:4;stroke-dasharray:none;stroke-opacity:1"
             id="rect5158"
             width="13.839286"
             height="26.636906"
             x="43.117561"
             y="106.77083"
             ry="1.7848055"
             rx="1.7848055" />
        </g>
      </g>
      <g
         style="stroke:#000000;stroke-opacity:1"
         id="g6145"
         transform="translate(-4.6603879,-52.146718)">
        <path
           id="path6147"
           d="M 75.892857,161.90476 L 104.91071,132.44048"
           style="fill:none;fill-rule:evenodd;stroke:#000000;stroke-width:2.5999999;stroke-linecap:butt;stroke-linejoin:miter;stroke-miterlimit:4;stroke-dasharray:none;stroke-opacity:1" />
        <g
           style="stroke:#000000;stroke-opacity:1"
           transform="matrix(0.4536313,0.4475248,-0.4475248,0.4536313,125.18546,65.765003)"
           id="g6149">
          <rect
             style="opacity:0.66513815;fill:none;fill-opacity:1;stroke:#000000;stroke-width:4.08017063;stroke-linecap:round;stroke-linejoin:miter;stroke-miterlimit:4;stroke-dasharray:none;stroke-opacity:1"
             id="rect6151"
             width="13.839286"
             height="26.636906"
             x="43.117561"
             y="133.48215"
             ry="1.7848055"
             rx="1.7848055" />
          <rect
             style="opacity:0.66513815;fill:none;fill-opacity:1;stroke:#000000;stroke-width:2.66780376;stroke-linecap:round;stroke-linejoin:miter;stroke-miterlimit:4;stroke-dasharray:none;stroke-opacity:1"
             id="rect6153"
             width="13.839286"
             height="26.636906"
             x="43.117561"
             y="106.77083"
             ry="1.7848055"
             rx="1.7848055" />
        </g>
      </g>
      <path
         id="path2220"
         style="fill:none;fill-rule:evenodd;stroke:#000000;stroke-width:1px;stroke-linecap:butt;stroke-linejoin:miter;stroke-opacity:1"
         d="M 100,202.97619 C 98.638142,146.391 97.22058,91.273648 88.095238,34.523809 C 92.956567,30.133625 100.92022,21.400181 102.67857,21.354166 C 117.37236,54.875276 130.46839,101.5625 144.25807,141.66667 C 148.14431,144.17777 151.64788,147.37768 157.54415,146.27073 L 100,202.97619 z M 106.36563,30.665995 L 101.62054,33.26131 L 114.72124,72.33673 L 112.862,73.016373 L 114.32908,77.39219 L 109.75175,79.486422 L 115.53201,96.727146 L 120.72985,96.483773 L 123.27043,104.06156 L 125.13817,103.40723 L 129.41631,116.16764 L 126.95443,116.84518 L 128.92538,122.7239 L 124.66563,124.22244 L 131.03777,143.2286 L 135.48727,142.39499 L 136.67345,148.11498 L 144.25088,141.67236 M 125.1302,103.44122 L 130.46875,99.293154 M 129.46428,116.14584 L 135.30506,114.39732 M 128.92485,122.71205 L 135.49107,142.41071 M 114.33587,77.394105 L 120.72811,96.475895"
         sodipodi:nodetypes="cccccccccccccccccccccccccccccccc" />
    </g>
    <g
       style="stroke:#000000;stroke-opacity:1"
       transform="matrix(9.9486553e-3,-0.9999505,-0.9999505,-9.9486553e-3,324.07168,325.90108)"
       id="g2189">
      <g
         style="stroke:#000000;stroke-opacity:1"
         id="g2191">
        <path
           id="path2193"
           d="M 75.892857,161.90476 L 104.91071,132.44048"
           style="fill:none;fill-rule:evenodd;stroke:#000000;stroke-width:2.5999999;stroke-linecap:butt;stroke-linejoin:miter;stroke-miterlimit:4;stroke-dasharray:none;stroke-opacity:1" />
        <g
           style="stroke:#000000;stroke-opacity:1"
           transform="matrix(0.4536313,0.4475248,-0.4475248,0.4536313,125.18546,65.765003)"
           id="g2195">
          <rect
             style="opacity:0.66513815;fill:none;fill-opacity:1;stroke:#000000;stroke-width:4.08017063;stroke-linecap:round;stroke-linejoin:miter;stroke-miterlimit:4;stroke-dasharray:none;stroke-opacity:1"
             id="rect2197"
             width="13.839286"
             height="26.636906"
             x="43.117561"
             y="133.48215"
             ry="1.7848055"
             rx="1.7848055" />
          <rect
             style="opacity:0.66513815;fill:none;fill-opacity:1;stroke:#000000;stroke-width:2.66780376;stroke-linecap:round;stroke-linejoin:miter;stroke-miterlimit:4;stroke-dasharray:none;stroke-opacity:1"
             id="rect2199"
             width="13.839286"
             height="26.636906"
             x="43.117561"
             y="106.77083"
             ry="1.7848055"
             rx="1.7848055" />
        </g>
      </g>
      <g
         style="stroke:#000000;stroke-opacity:1"
         id="g2201"
         transform="translate(-4.6603879,-52.146718)">
        <path
           id="path2203"
           d="M 75.892857,161.90476 L 104.91071,132.44048"
           style="fill:none;fill-rule:evenodd;stroke:#000000;stroke-width:2.5999999;stroke-linecap:butt;stroke-linejoin:miter;stroke-miterlimit:4;stroke-dasharray:none;stroke-opacity:1" />
        <g
           style="stroke:#000000;stroke-opacity:1"
           transform="matrix(0.4536313,0.4475248,-0.4475248,0.4536313,125.18546,65.765003)"
           id="g2205">
          <rect
             style="opacity:0.66513815;fill:none;fill-opacity:1;stroke:#000000;stroke-width:4.08017063;stroke-linecap:round;stroke-linejoin:miter;stroke-miterlimit:4;stroke-dasharray:none;stroke-opacity:1"
             id="rect2207"
             width="13.839286"
             height="26.636906"
             x="43.117561"
             y="133.48215"
             ry="1.7848055"
             rx="1.7848055" />
          <rect
             style="opacity:0.66513815;fill:none;fill-opacity:1;stroke:#000000;stroke-width:2.66780376;stroke-linecap:round;stroke-linejoin:miter;stroke-miterlimit:4;stroke-dasharray:none;stroke-opacity:1"
             id="rect2209"
             width="13.839286"
             height="26.636906"
             x="43.117561"
             y="106.77083"
             ry="1.7848055"
             rx="1.7848055" />
        </g>
      </g>
      <path
         id="path2211"
         style="fill:none;fill-rule:evenodd;stroke:#000000;stroke-width:1px;stroke-linecap:butt;stroke-linejoin:miter;stroke-opacity:1"
         d="M 100,202.97619 C 98.638142,146.391 97.22058,91.273648 88.095238,34.523809 C 92.956567,30.133625 100.92022,21.400181 102.67857,21.354166 C 117.37236,54.875276 130.46839,101.5625 144.25807,141.66667 C 148.14431,144.17777 151.64788,147.37768 157.54415,146.27073 L 100,202.97619 z M 106.36563,30.665995 L 101.62054,33.26131 L 114.72124,72.33673 L 112.862,73.016373 L 114.32908,77.39219 L 109.75175,79.486422 L 115.53201,96.727146 L 120.72985,96.483773 L 123.27043,104.06156 L 125.13817,103.40723 L 129.41631,116.16764 L 126.95443,116.84518 L 128.92538,122.7239 L 124.66563,124.22244 L 131.03777,143.2286 L 135.48727,142.39499 L 136.67345,148.11498 L 144.25088,141.67236 M 125.1302,103.44122 L 130.46875,99.293154 M 129.46428,116.14584 L 135.30506,114.39732 M 128.92485,122.71205 L 135.49107,142.41071 M 114.33587,77.394105 L 120.72811,96.475895"
         sodipodi:nodetypes="cccccccccccccccccccccccccccccccc" />
    </g>
    <path
       d="M 205.20833 72.321434 A 2.6785715 11.755952 0 1 1  199.85118,72.321434 A 2.6785715 11.755952 0 1 1  205.20833 72.321434 z"
       sodipodi:ry="11.755952"
       sodipodi:rx="2.6785715"
       sodipodi:cy="72.321434"
       sodipodi:cx="202.52975"
       id="path3218"
       style="opacity:0;fill:#ff0000;fill-opacity:1;stroke:#000000;stroke-width:17.70000076;stroke-linecap:round;stroke-linejoin:miter;stroke-miterlimit:4;stroke-dasharray:none;stroke-opacity:1"
       sodipodi:type="arc" />
    <path
       transform="matrix(4.1942294e-2,4.2775187e-2,-0.3287401,0.3121387,250.88828,23.71293)"
       d="M 658.61945 111.91016 A 51.012703 54.548237 0 1 1  556.59405,111.91016 A 51.012703 54.548237 0 1 1  658.61945 111.91016 z"
       sodipodi:ry="54.548237"
       sodipodi:rx="51.012703"
       sodipodi:cy="111.91016"
       sodipodi:cx="607.60675"
       id="path4169"
       style="fill:none;fill-opacity:1;fill-rule:evenodd;stroke:#000000;stroke-width:5.07765007;stroke-linecap:round;stroke-linejoin:miter;stroke-miterlimit:4;stroke-dasharray:none;stroke-dashoffset:0;stroke-opacity:1"
       sodipodi:type="arc" />
    <path
       sodipodi:nodetypes="cccccccscsccccccccccccccccsccccccccccccccccc"
       d="M 266.84863,59.092012 L 307.67563,79.821184 C 306.16191,84.641207 303.05081,88.662544 299.88903,92.658539 L 247.27692,90.764503 M 207.92307,95.815257 L 55.137493,249.86353 C 50.170747,258.30824 43.811092,266.62632 41.668792,275.32779 C 41.668792,275.32779 42.709326,280.29577 45.246416,281.85169 C 47.809119,283.42331 57.296022,280.84776 57.452426,280.37855 C 57.248524,281.19416 73.597719,270.72443 74.49875,270.06658 C 75.258871,269.51161 234.89311,110.48611 234.89311,110.48611 M 207.84414,95.894184 C 226.20916,82.413331 252.25235,68.051215 272.10984,52.252438 C 257.12929,71.042821 247.01659,91.050168 234.86047,110.54666 M 234.22912,78.137597 L 232.12464,26.367279 C 234.91683,22.463063 238.0915,18.722767 244.75154,16.476202 C 251.92342,30.893739 258.02903,43.392655 265.48071,57.250588 M 246.22468,19.948602 C 243.26965,21.56956 241.7823,23.113797 241.59482,25.525485 L 255.48441,64.247999 M 252.11724,30.786696 C 250.6985,31.944163 249.79781,33.101629 249.17096,34.259096 L 258.85159,56.566631 C 260.64145,58.130077 261.61238,58.725051 263.27101,58.881564 M 292.52334,72.034592 C 292.52334,72.034592 291.4328,75.45064 290.59101,75.029743 C 289.74921,74.608846 268.74266,66.773381 268.74266,66.773381 C 267.13608,64.900444 266.43069,62.727108 266.00684,60.459927 M 260.32473,68.877865 C 273.00124,73.383723 284.98146,78.585868 298.35426,82.395439 C 300.30849,82.768513 302.82337,80.712126 305.36069,78.558494 M 231.25,114.13691 L 227.52976,110.41667 L 232.44047,106.10119 L 235.75149,108.96578 M 52.678571,254.46429 C 51.519042,267.89003 57.229339,274.60208 73.511904,270.98214 L 71.875,272.02381 C 56.878712,275.80783 45.882663,275.13004 51.339285,256.10119 M 78.125,266.96429 C 77.97619,266.36905 75.148809,262.94643 75.148809,262.94643 L 79.761904,258.92857 L 83.482142,261.30952"
       style="fill:none;fill-rule:evenodd;stroke:#000000;stroke-width:1px;stroke-linecap:butt;stroke-linejoin:miter;stroke-opacity:1"
       id="path2213" />
  </g>
  <g
     id="g8563">
    <g
       transform="matrix(2.0603658,0,0,2.0603658,761.40566,74.951845)"
       id="g10284"
       style="stroke:#000000;stroke-opacity:1">
      <rect
         transform="scale(1,-1)"
         style="fill:none;fill-opacity:1;fill-rule:evenodd;stroke:#000000;stroke-width:0.63199985;stroke-linecap:round;stroke-linejoin:miter;stroke-miterlimit:4;stroke-dasharray:none;stroke-dashoffset:0;stroke-opacity:1"
         id="rect7086"
         width="8.0996571"
         height="14.428815"
         x="-311.51633"
         y="-314.93448"
         ry="1.6249707"
         rx="1.6249707" />
      <rect
         transform="scale(1,-1)"
         style="fill:none;fill-opacity:1;fill-rule:evenodd;stroke:#000000;stroke-width:0.63199985;stroke-linecap:round;stroke-linejoin:miter;stroke-miterlimit:4;stroke-dasharray:none;stroke-dashoffset:0;stroke-opacity:1"
         id="rect10208"
         width="5.478075"
         height="2.6437013"
         x="-310.20554"
         y="-305.79672"
         ry="0.29773322"
         rx="0.29773322" />
    </g>
    <rect
       transform="scale(1,-1)"
       ry="0.75993538"
       y="-709.12427"
       x="146.55316"
       height="6.7477942"
       width="6.3004298"
       id="rect10216"
       style="fill:none;fill-opacity:1;fill-rule:evenodd;stroke:#000000;stroke-width:1.30215096;stroke-linecap:round;stroke-linejoin:miter;stroke-miterlimit:4;stroke-dasharray:none;stroke-dashoffset:0;stroke-opacity:1"
       rx="0.75993538" />
    <rect
       transform="scale(1,-1)"
       ry="0.75993538"
       y="-709.12427"
       x="157.60298"
       height="6.7477942"
       width="6.3004298"
       id="rect10218"
       style="fill:none;fill-opacity:1;fill-rule:evenodd;stroke:#000000;stroke-width:1.30215096;stroke-linecap:round;stroke-linejoin:miter;stroke-miterlimit:4;stroke-dasharray:none;stroke-dashoffset:0;stroke-opacity:1"
       rx="0.75993538" />
    <rect
       transform="scale(1,-1)"
       ry="0.75993538"
       y="-709.12427"
       x="168.65273"
       height="6.7477942"
       width="6.3004298"
       id="rect10220"
       style="fill:none;fill-opacity:1;fill-rule:evenodd;stroke:#000000;stroke-width:1.30215096;stroke-linecap:round;stroke-linejoin:miter;stroke-miterlimit:4;stroke-dasharray:none;stroke-dashoffset:0;stroke-opacity:1"
       rx="0.75993538" />
    <rect
       transform="scale(1,-1)"
       ry="0.75993538"
       y="-709.12427"
       x="179.70255"
       height="6.7477942"
       width="6.3004298"
       id="rect10222"
       style="fill:none;fill-opacity:1;fill-rule:evenodd;stroke:#000000;stroke-width:1.30215096;stroke-linecap:round;stroke-linejoin:miter;stroke-miterlimit:4;stroke-dasharray:none;stroke-dashoffset:0;stroke-opacity:1"
       rx="0.75993538" />
    <rect
       transform="scale(1,-1)"
       ry="0.75993538"
       y="-709.12427"
       x="190.7523"
       height="6.7477942"
       width="6.3004298"
       id="rect10224"
       style="fill:none;fill-opacity:1;fill-rule:evenodd;stroke:#000000;stroke-width:1.30215096;stroke-linecap:round;stroke-linejoin:miter;stroke-miterlimit:4;stroke-dasharray:none;stroke-dashoffset:0;stroke-opacity:1"
       rx="0.75993538" />
    <rect
       transform="scale(1,-1)"
       ry="0.75993538"
       y="-709.12427"
       x="201.80212"
       height="6.7477942"
       width="6.3004298"
       id="rect10226"
       style="fill:none;fill-opacity:1;fill-rule:evenodd;stroke:#000000;stroke-width:1.30215096;stroke-linecap:round;stroke-linejoin:miter;stroke-miterlimit:4;stroke-dasharray:none;stroke-dashoffset:0;stroke-opacity:1"
       rx="0.75993538" />
    <rect
       transform="scale(1,-1)"
       ry="0.75993538"
       y="-709.12427"
       x="212.85194"
       height="6.7477942"
       width="6.3004298"
       id="rect10228"
       style="fill:none;fill-opacity:1;fill-rule:evenodd;stroke:#000000;stroke-width:1.30215096;stroke-linecap:round;stroke-linejoin:miter;stroke-miterlimit:4;stroke-dasharray:none;stroke-dashoffset:0;stroke-opacity:1"
       rx="0.75993538" />
    <rect
       transform="scale(1,-1)"
       ry="0.75993538"
       y="-709.12427"
       x="223.9017"
       height="6.7477942"
       width="6.3004298"
       id="rect10230"
       style="fill:none;fill-opacity:1;fill-rule:evenodd;stroke:#000000;stroke-width:1.30215096;stroke-linecap:round;stroke-linejoin:miter;stroke-miterlimit:4;stroke-dasharray:none;stroke-dashoffset:0;stroke-opacity:1"
       rx="0.75993538" />
    <rect
       transform="scale(1,-1)"
       ry="0.75993538"
       y="-709.12427"
       x="234.95151"
       height="6.7477942"
       width="6.3004298"
       id="rect10232"
       style="fill:none;fill-opacity:1;fill-rule:evenodd;stroke:#000000;stroke-width:1.30215096;stroke-linecap:round;stroke-linejoin:miter;stroke-miterlimit:4;stroke-dasharray:none;stroke-dashoffset:0;stroke-opacity:1"
       rx="0.75993538" />
    <rect
       transform="scale(1,-1)"
       ry="0.75993538"
       y="-709.12427"
       x="246.00133"
       height="6.7477942"
       width="6.3004298"
       id="rect10234"
       style="fill:none;fill-opacity:1;fill-rule:evenodd;stroke:#000000;stroke-width:1.30215096;stroke-linecap:round;stroke-linejoin:miter;stroke-miterlimit:4;stroke-dasharray:none;stroke-dashoffset:0;stroke-opacity:1"
       rx="0.75993538" />
    <rect
       transform="scale(1,-1)"
       ry="0.75993538"
       y="-709.12427"
       x="257.05112"
       height="6.7477942"
       width="6.3004298"
       id="rect10236"
       style="fill:none;fill-opacity:1;fill-rule:evenodd;stroke:#000000;stroke-width:1.30215096;stroke-linecap:round;stroke-linejoin:miter;stroke-miterlimit:4;stroke-dasharray:none;stroke-dashoffset:0;stroke-opacity:1"
       rx="0.75993538" />
    <rect
       transform="scale(1,-1)"
       ry="0.75993538"
       y="-709.12427"
       x="268.10089"
       height="6.7477942"
       width="6.3004298"
       id="rect10238"
       style="fill:none;fill-opacity:1;fill-rule:evenodd;stroke:#000000;stroke-width:1.30215096;stroke-linecap:round;stroke-linejoin:miter;stroke-miterlimit:4;stroke-dasharray:none;stroke-dashoffset:0;stroke-opacity:1"
       rx="0.75993538" />
    <rect
       transform="scale(1,-1)"
       ry="0.75993538"
       y="-709.12427"
       x="279.1507"
       height="6.7477942"
       width="6.3004298"
       id="rect10240"
       style="fill:none;fill-opacity:1;fill-rule:evenodd;stroke:#000000;stroke-width:1.30215096;stroke-linecap:round;stroke-linejoin:miter;stroke-miterlimit:4;stroke-dasharray:none;stroke-dashoffset:0;stroke-opacity:1"
       rx="0.75993538" />
    <rect
       transform="scale(1,-1)"
       ry="0.75993538"
       y="-709.12427"
       x="290.20047"
       height="6.7477942"
       width="6.3004298"
       id="rect10242"
       style="fill:none;fill-opacity:1;fill-rule:evenodd;stroke:#000000;stroke-width:1.30215096;stroke-linecap:round;stroke-linejoin:miter;stroke-miterlimit:4;stroke-dasharray:none;stroke-dashoffset:0;stroke-opacity:1"
       rx="0.75993538" />
    <rect
       transform="scale(1,-1)"
       ry="0.75993538"
       y="-709.12427"
       x="301.25031"
       height="6.7477942"
       width="6.3004298"
       id="rect10244"
       style="fill:none;fill-opacity:1;fill-rule:evenodd;stroke:#000000;stroke-width:1.30215096;stroke-linecap:round;stroke-linejoin:miter;stroke-miterlimit:4;stroke-dasharray:none;stroke-dashoffset:0;stroke-opacity:1"
       rx="0.75993538" />
    <rect
       transform="scale(1,-1)"
       ry="0.75993538"
       y="-709.12427"
       x="312.30008"
       height="6.7477942"
       width="6.3004298"
       id="rect10246"
       style="fill:none;fill-opacity:1;fill-rule:evenodd;stroke:#000000;stroke-width:1.30215096;stroke-linecap:round;stroke-linejoin:miter;stroke-miterlimit:4;stroke-dasharray:none;stroke-dashoffset:0;stroke-opacity:1"
       rx="0.75993538" />
    <rect
       transform="scale(1,-1)"
       ry="0.75993538"
       y="-709.12427"
       x="323.34988"
       height="6.7477942"
       width="6.3004298"
       id="rect10248"
       style="fill:none;fill-opacity:1;fill-rule:evenodd;stroke:#000000;stroke-width:1.30215096;stroke-linecap:round;stroke-linejoin:miter;stroke-miterlimit:4;stroke-dasharray:none;stroke-dashoffset:0;stroke-opacity:1"
       rx="0.75993538" />
    <rect
       transform="scale(1,-1)"
       ry="0.75993538"
       y="-709.12427"
       x="334.39966"
       height="6.7477942"
       width="6.3004298"
       id="rect10250"
       style="fill:none;fill-opacity:1;fill-rule:evenodd;stroke:#000000;stroke-width:1.30215096;stroke-linecap:round;stroke-linejoin:miter;stroke-miterlimit:4;stroke-dasharray:none;stroke-dashoffset:0;stroke-opacity:1"
       rx="0.75993538" />
    <rect
       transform="scale(1,-1)"
       ry="0.75993538"
       y="-709.12427"
       x="345.44943"
       height="6.7477942"
       width="6.3004298"
       id="rect10252"
       style="fill:none;fill-opacity:1;fill-rule:evenodd;stroke:#000000;stroke-width:1.30215096;stroke-linecap:round;stroke-linejoin:miter;stroke-miterlimit:4;stroke-dasharray:none;stroke-dashoffset:0;stroke-opacity:1"
       rx="0.75993538" />
    <rect
       transform="scale(1,-1)"
       ry="0.75993538"
       y="-709.12427"
       x="356.49927"
       height="6.7477942"
       width="6.3004298"
       id="rect10254"
       style="fill:none;fill-opacity:1;fill-rule:evenodd;stroke:#000000;stroke-width:1.30215096;stroke-linecap:round;stroke-linejoin:miter;stroke-miterlimit:4;stroke-dasharray:none;stroke-dashoffset:0;stroke-opacity:1"
       rx="0.75993538" />
    <rect
       transform="scale(1,-1)"
       ry="0.75993538"
       y="-709.12427"
       x="367.54904"
       height="6.7477942"
       width="6.3004298"
       id="rect10256"
       style="fill:none;fill-opacity:1;fill-rule:evenodd;stroke:#000000;stroke-width:1.30215096;stroke-linecap:round;stroke-linejoin:miter;stroke-miterlimit:4;stroke-dasharray:none;stroke-dashoffset:0;stroke-opacity:1"
       rx="0.75993538" />
    <rect
       transform="scale(1,-1)"
       ry="0.75993538"
       y="-709.12427"
       x="378.59885"
       height="6.7477942"
       width="6.3004298"
       id="rect10258"
       style="fill:none;fill-opacity:1;fill-rule:evenodd;stroke:#000000;stroke-width:1.30215096;stroke-linecap:round;stroke-linejoin:miter;stroke-miterlimit:4;stroke-dasharray:none;stroke-dashoffset:0;stroke-opacity:1"
       rx="0.75993538" />
    <rect
       transform="scale(1,-1)"
       ry="0.75993538"
       y="-709.12427"
       x="389.64862"
       height="6.7477942"
       width="6.3004298"
       id="rect10260"
       style="fill:none;fill-opacity:1;fill-rule:evenodd;stroke:#000000;stroke-width:1.30215096;stroke-linecap:round;stroke-linejoin:miter;stroke-miterlimit:4;stroke-dasharray:none;stroke-dashoffset:0;stroke-opacity:1"
       rx="0.75993538" />
    <rect
       transform="scale(1,-1)"
       ry="0.75993538"
       y="-709.12427"
       x="400.69843"
       height="6.7477942"
       width="6.3004298"
       id="rect10262"
       style="fill:none;fill-opacity:1;fill-rule:evenodd;stroke:#000000;stroke-width:1.30215096;stroke-linecap:round;stroke-linejoin:miter;stroke-miterlimit:4;stroke-dasharray:none;stroke-dashoffset:0;stroke-opacity:1"
       rx="0.75993538" />
    <rect
       transform="scale(1,-1)"
       ry="0.67361176"
       y="-708.35779"
       x="411.74823"
       height="5.9812894"
       width="6.3004298"
       id="rect10264"
       style="fill:none;fill-opacity:1;fill-rule:evenodd;stroke:#000000;stroke-width:1.30215096;stroke-linecap:round;stroke-linejoin:miter;stroke-miterlimit:4;stroke-dasharray:none;stroke-dashoffset:0;stroke-opacity:1"
       rx="0.67361176" />
    <rect
       transform="scale(1,-1)"
       ry="0.57002324"
       y="-707.43793"
       x="422.798"
       height="5.0614824"
       width="6.3004298"
       id="rect10266"
       style="fill:none;fill-opacity:1;fill-rule:evenodd;stroke:#000000;stroke-width:1.30215096;stroke-linecap:round;stroke-linejoin:miter;stroke-miterlimit:4;stroke-dasharray:none;stroke-dashoffset:0;stroke-opacity:1"
       rx="0.57002324" />
    <rect
       transform="scale(1,-1)"
       ry="0.3455818"
       y="-705.44501"
       x="433.84781"
       height="3.0685694"
       width="6.3004298"
       id="rect10268"
       style="fill:none;fill-opacity:1;fill-rule:evenodd;stroke:#000000;stroke-width:1.30215096;stroke-linecap:round;stroke-linejoin:miter;stroke-miterlimit:4;stroke-dasharray:none;stroke-dashoffset:0;stroke-opacity:1"
       rx="0.3455818" />
    <rect
       transform="scale(1,-1)"
       ry="0.31105232"
       y="-705.13837"
       x="444.89758"
       height="2.7619672"
       width="6.3004298"
       id="rect10270"
       style="fill:none;fill-opacity:1;fill-rule:evenodd;stroke:#000000;stroke-width:1.30215096;stroke-linecap:round;stroke-linejoin:miter;stroke-miterlimit:4;stroke-dasharray:none;stroke-dashoffset:0;stroke-opacity:1"
       rx="0.31105232" />
    <g
       transform="matrix(2.0603658,0,0,2.0603658,1196.6042,72.612816)"
       id="g10288"
       style="stroke:#000000;stroke-opacity:1">
      <rect
         transform="scale(1,-1)"
         style="fill:none;fill-opacity:1;fill-rule:evenodd;stroke:#000000;stroke-width:0.63199985;stroke-linecap:round;stroke-linejoin:miter;stroke-miterlimit:4;stroke-dasharray:none;stroke-dashoffset:0;stroke-opacity:1"
         id="rect10290"
         width="8.0996571"
         height="14.428815"
         x="-311.51633"
         y="-314.93448"
         ry="1.6249707"
         rx="1.6249707" />
      <rect
         transform="scale(1,-1)"
         style="fill:none;fill-opacity:1;fill-rule:evenodd;stroke:#000000;stroke-width:0.63199985;stroke-linecap:round;stroke-linejoin:miter;stroke-miterlimit:4;stroke-dasharray:none;stroke-dashoffset:0;stroke-opacity:1"
         id="rect10292"
         width="5.478075"
         height="2.6437013"
         x="-310.20554"
         y="-305.79672"
         ry="0.29773322"
         rx="0.29773322" />
    </g>
    <path
       sodipodi:nodetypes="cccccc"
       id="path10314"
       d="M 373.68767,723.74476 L 373.76984,737.54334 L 390.24339,742.38959 L 425.79865,742.82319 C 435.5584,741.65202 439.95112,736.45559 439.90159,727.92747 C 412.71432,718.68877 386.24099,721.88901 373.68767,723.74476 z "
       style="fill:none;fill-rule:evenodd;stroke:#000000;stroke-width:2.06036592px;stroke-linecap:butt;stroke-linejoin:miter;stroke-opacity:1" />
    <path
       sodipodi:nodetypes="ccccccccccccccccccccccccccccccccccccccccccccccccccscccccccccccccc"
       d="M 116.31609,685.58788 C 103.89507,686.61291 94.627216,689.76609 85.09685,695.1271 C 80.955947,698.45859 76.471231,704.19685 72.847604,703.90754 C 63.985662,706.67384 55.10429,709.41871 51.601174,718.10795 C 60.746046,738.17562 101.922,740.79173 125.31332,744.99119 L 297.01921,744.99119 M 73.714833,704.23272 C 74.148416,704.34112 94.202451,704.66633 94.202451,704.66633 C 96.017262,704.29643 97.720072,703.36224 97.346075,700.22191 C 95.629893,697.10913 93.37882,694.45487 89.649661,693.0675 M 116.20769,685.58788 C 120.54371,685.58788 590.56695,685.58788 590.56695,685.58788 C 619.47255,685.58901 631.99331,686.08504 658.13202,687.33544 M 580.08338,685.58594 C 596.92362,685.33087 668.61627,597.15926 670.2411,591.27972 L 640.86464,581.95731 L 712.40877,582.82449 C 704.80086,618.49048 696.94543,654.1211 690.29513,689.9239 L 728.8856,689.9239 L 698.09995,705.09991 C 695.85155,707.17435 693.64561,709.31952 690.80313,710.40383 C 619.62987,724.14923 548.90472,736.32624 476.09634,745.16628 L 353.62492,744.76236 M 535.44705,706.37443 C 525.90492,704.07838 517.22491,701.17885 503.79419,701.60483 C 423.71344,705.69385 350.06304,711.58052 272.73758,719.84234 C 267.09141,723.08841 266.72304,725.16161 268.40158,726.77997 C 275.40641,733.16073 285.04826,734.70696 294.41761,736.75277 M 296.15203,729.38157 C 292.99812,733.56226 295.84911,740.10058 296.89223,744.66281 C 304.87422,749.64222 309.57611,748.52136 316.53125,749.76079 L 339.50307,749.32721 C 349.2609,748.24201 353.55223,743.83652 361.49424,740.9355 L 361.49424,733.13067 L 342.5473,728.08076 C 326.99974,728.39066 310.24977,726.89695 296.15203,729.38157 z M 296.09941,729.48226 C 306.65522,724.28196 313.97928,716.37609 332.08831,715.70772 C 345.48458,714.00617 383.88102,711.88191 403.72937,709.17744 M 361.18764,733.00367 L 373.33296,730.24876 M 373.09849,723.61776 L 403.68501,709.35702 L 428.88648,707.70153 C 427.88335,712.34912 434.14968,713.93777 442.42877,715.76033 L 488.82407,716.62753 L 535.49965,706.40072 M 440.00339,728.41254 C 442.33271,724.69273 468.08078,719.98002 488.67529,716.60124 M 701.78555,703.36552 C 697.88315,702.93191 654.52307,709.21912 653.65587,708.78553 C 652.78866,708.35193 623.95421,701.63112 623.95421,701.63112 L 690.00168,689.82094 L 657.34147,687.32229 L 686.17593,604.28774 L 707.63916,604.28774 L 697.01594,646.13022 L 689.64473,646.13022 L 682.70712,680.38467 L 689.34039,688.40403 L 697.01594,646.13022 M 577.88413,730.57396 C 579.28855,734.67803 581.71147,737.89943 587.42335,738.27038 L 638.91344,738.05359 C 668.27549,726.95405 668.93069,720.73467 670.1327,714.42235"
       style="fill:none;fill-rule:evenodd;stroke:#000000;stroke-width:2.06036592px;stroke-linecap:butt;stroke-linejoin:miter;stroke-opacity:1"
       id="path8260" />
    <path
       transform="matrix(0.1380677,0,0,0.1391043,295.14853,739.28762)"
       d="M 658.61945 111.91016 A 51.012703 54.548237 0 1 1  556.59405,111.91016 A 51.012703 54.548237 0 1 1  658.61945 111.91016 z"
       sodipodi:ry="54.548237"
       sodipodi:rx="51.012703"
       sodipodi:cy="111.91016"
       sodipodi:cx="607.60675"
       id="path11326"
       style="fill:none;fill-opacity:1;fill-rule:evenodd;stroke:#000000;stroke-width:12.4395752;stroke-linecap:round;stroke-linejoin:miter;stroke-miterlimit:4;stroke-dasharray:none;stroke-dashoffset:0;stroke-opacity:1"
       sodipodi:type="arc" />
    <path
       transform="matrix(0.1380677,0,0,0.1391043,317.95134,739.28859)"
       d="M 658.61945 111.91016 A 51.012703 54.548237 0 1 1  556.59405,111.91016 A 51.012703 54.548237 0 1 1  658.61945 111.91016 z"
       sodipodi:ry="54.548237"
       sodipodi:rx="51.012703"
       sodipodi:cy="111.91016"
       sodipodi:cx="607.60675"
       id="path12298"
       style="fill:none;fill-opacity:1;fill-rule:evenodd;stroke:#000000;stroke-width:12.4395752;stroke-linecap:round;stroke-linejoin:miter;stroke-miterlimit:4;stroke-dasharray:none;stroke-dashoffset:0;stroke-opacity:1"
       sodipodi:type="arc" />
    <path
       transform="matrix(0.1380677,0,0,0.1391043,41.097223,739.56195)"
       d="M 658.61945 111.91016 A 51.012703 54.548237 0 1 1  556.59405,111.91016 A 51.012703 54.548237 0 1 1  658.61945 111.91016 z"
       sodipodi:ry="54.548237"
       sodipodi:rx="51.012703"
       sodipodi:cy="111.91016"
       sodipodi:cx="607.60675"
       id="path12300"
       style="fill:none;fill-opacity:1;fill-rule:evenodd;stroke:#000000;stroke-width:12.4395752;stroke-linecap:round;stroke-linejoin:miter;stroke-miterlimit:4;stroke-dasharray:none;stroke-dashoffset:0;stroke-opacity:1"
       sodipodi:type="arc" />
  </g>
  <g
     id="g7318"
     transform="matrix(2.0535802,0,0,2.0535802,1270.9725,58.832178)">
    <path
       sodipodi:nodetypes="cccsccc"
       id="rect3162"
       d="M -539.37256,426.81903 C -537.30463,427.36589 -534.28324,431.56277 -533.33613,434.56903 L -533.33613,437.28648 C -533.33613,439.43323 -535.91688,441.16148 -539.12256,441.16148 C -542.32825,441.16148 -544.909,439.43323 -544.909,437.28648 L -544.909,434.56903 C -544.85602,432.64487 -541.32034,428.05308 -539.37256,426.81903 z "
       style="fill:#000000;fill-opacity:1;fill-rule:evenodd;stroke:#000000;stroke-width:0.05098401;stroke-linecap:round;stroke-linejoin:miter;stroke-miterlimit:4;stroke-dashoffset:0;stroke-opacity:1" />
    <path
       sodipodi:nodetypes="cccsccc"
       id="path4341"
       d="M -498.14155,431.78023 C -496.07362,432.32709 -493.05223,436.52397 -492.10512,439.53023 L -492.10512,442.24768 C -492.10512,444.39443 -494.68587,446.12268 -497.89155,446.12268 C -501.09724,446.12268 -503.67799,444.39443 -503.67799,442.24768 L -503.67799,439.53023 C -503.62501,437.60607 -500.08933,433.01428 -498.14155,431.78023 z "
       style="fill:#000000;fill-opacity:1;fill-rule:evenodd;stroke:#000000;stroke-width:0.05098401;stroke-linecap:round;stroke-linejoin:miter;stroke-miterlimit:4;stroke-dashoffset:0;stroke-opacity:1" />
    <path
       sodipodi:nodetypes="cccsccc"
       id="path4343"
       d="M -359.81378,432.48733 C -357.74585,433.03419 -354.72446,437.23107 -353.77735,440.23733 L -353.77735,442.95478 C -353.77735,445.10153 -356.3581,446.82978 -359.56378,446.82978 C -362.76947,446.82978 -365.35022,445.10153 -365.35022,442.95478 L -365.35022,440.23733 C -365.29724,438.31317 -361.76156,433.72138 -359.81378,432.48733 z "
       style="fill:#000000;fill-opacity:1;fill-rule:evenodd;stroke:#000000;stroke-width:0.05098401;stroke-linecap:round;stroke-linejoin:miter;stroke-miterlimit:4;stroke-dashoffset:0;stroke-opacity:1" />
    <path
       sodipodi:nodetypes="cccsccc"
       id="path4345"
       d="M -318.71321,427.53759 C -316.64528,428.08445 -313.62389,432.28133 -312.67678,435.28759 L -312.67678,438.00504 C -312.67678,440.15179 -315.25753,441.88004 -318.46321,441.88004 C -321.6689,441.88004 -324.24965,440.15179 -324.24965,438.00504 L -324.24965,435.28759 C -324.19667,433.36343 -320.66099,428.77164 -318.71321,427.53759 z "
       style="fill:#000000;fill-opacity:1;fill-rule:evenodd;stroke:#000000;stroke-width:0.05098401;stroke-linecap:round;stroke-linejoin:miter;stroke-miterlimit:4;stroke-dashoffset:0;stroke-opacity:1" />
    <g
       style="fill:#000000;fill-opacity:1"
       id="g4352">
      <path
         sodipodi:type="arc"
         style="fill:#000000;fill-opacity:1;fill-rule:evenodd;stroke:#000000;stroke-width:0.60000002;stroke-linecap:round;stroke-linejoin:miter;stroke-miterlimit:4;stroke-dasharray:none;stroke-dashoffset:0;stroke-opacity:1"
         id="path4337"
         sodipodi:cx="607.60675"
         sodipodi:cy="111.91016"
         sodipodi:rx="51.012703"
         sodipodi:ry="54.548237"
         d="M 658.61945 111.91016 A 51.012703 54.548237 0 1 1  556.59405,111.91016 A 51.012703 54.548237 0 1 1  658.61945 111.91016 z"
         transform="matrix(4.908655e-2,0,0,8.467222e-2,-485.1579,440.5241)" />
      <path
         sodipodi:type="arc"
         style="fill:#000000;fill-opacity:1;fill-rule:evenodd;stroke:#000000;stroke-width:0.60000002;stroke-linecap:round;stroke-linejoin:miter;stroke-miterlimit:4;stroke-dasharray:none;stroke-dashoffset:0;stroke-opacity:1"
         id="path4350"
         sodipodi:cx="607.60675"
         sodipodi:cy="111.91016"
         sodipodi:rx="51.012703"
         sodipodi:ry="54.548237"
         d="M 658.61945 111.91016 A 51.012703 54.548237 0 1 1  556.59405,111.91016 A 51.012703 54.548237 0 1 1  658.61945 111.91016 z"
         transform="matrix(4.908655e-2,0,0,8.467222e-2,-479.89877,440.52432)" />
    </g>
    <g
       style="fill:#000000;fill-opacity:1"
       transform="translate(47.619228,-2.2168115e-4)"
       id="g4356">
      <path
         sodipodi:type="arc"
         style="fill:#000000;fill-opacity:1;fill-rule:evenodd;stroke:#000000;stroke-width:0.60000002;stroke-linecap:round;stroke-linejoin:miter;stroke-miterlimit:4;stroke-dasharray:none;stroke-dashoffset:0;stroke-opacity:1"
         id="path4358"
         sodipodi:cx="607.60675"
         sodipodi:cy="111.91016"
         sodipodi:rx="51.012703"
         sodipodi:ry="54.548237"
         d="M 658.61945 111.91016 A 51.012703 54.548237 0 1 1  556.59405,111.91016 A 51.012703 54.548237 0 1 1  658.61945 111.91016 z"
         transform="matrix(4.908655e-2,0,0,8.467222e-2,-485.1579,440.5241)" />
      <path
         sodipodi:type="arc"
         style="fill:#000000;fill-opacity:1;fill-rule:evenodd;stroke:#000000;stroke-width:0.60000002;stroke-linecap:round;stroke-linejoin:miter;stroke-miterlimit:4;stroke-dasharray:none;stroke-dashoffset:0;stroke-opacity:1"
         id="path4360"
         sodipodi:cx="607.60675"
         sodipodi:cy="111.91016"
         sodipodi:rx="51.012703"
         sodipodi:ry="54.548237"
         d="M 658.61945 111.91016 A 51.012703 54.548237 0 1 1  556.59405,111.91016 A 51.012703 54.548237 0 1 1  658.61945 111.91016 z"
         transform="matrix(4.908655e-2,0,0,8.467222e-2,-479.89877,440.52432)" />
    </g>
    <g
       transform="matrix(0.5747373,0,0,1,-168.233,0.5304387)"
       style="fill:#000000;fill-opacity:1"
       id="g6323">
      <path
         sodipodi:type="arc"
         style="fill:#000000;fill-opacity:1;fill-rule:evenodd;stroke:#000000;stroke-width:0.60000002;stroke-linecap:round;stroke-linejoin:miter;stroke-miterlimit:4;stroke-dasharray:none;stroke-dashoffset:0;stroke-opacity:1"
         id="path6325"
         sodipodi:cx="607.60675"
         sodipodi:cy="111.91016"
         sodipodi:rx="51.012703"
         sodipodi:ry="54.548237"
         d="M 658.61945 111.91016 A 51.012703 54.548237 0 1 1  556.59405,111.91016 A 51.012703 54.548237 0 1 1  658.61945 111.91016 z"
         transform="matrix(4.908655e-2,0,0,8.467222e-2,-485.1579,440.5241)" />
      <path
         sodipodi:type="arc"
         style="fill:#000000;fill-opacity:1;fill-rule:evenodd;stroke:#000000;stroke-width:0.60000002;stroke-linecap:round;stroke-linejoin:miter;stroke-miterlimit:4;stroke-dasharray:none;stroke-dashoffset:0;stroke-opacity:1"
         id="path6327"
         sodipodi:cx="607.60675"
         sodipodi:cy="111.91016"
         sodipodi:rx="51.012703"
         sodipodi:ry="54.548237"
         d="M 658.61945 111.91016 A 51.012703 54.548237 0 1 1  556.59405,111.91016 A 51.012703 54.548237 0 1 1  658.61945 111.91016 z"
         transform="matrix(4.908655e-2,0,0,8.467222e-2,-479.89877,440.52432)" />
    </g>
    <path
       sodipodi:nodetypes="ccccccccccccccccccccccc"
       d="M -428.99999,367 C -431.24313,384.01255 -430.73701,399.37555 -431.49999,415.5 C -434.58632,416.18093 -438.51063,418.99149 -438.62499,419.25 L -479.99999,417.5 L -440.99999,424 C -441.8506,427.45837 -441.63974,430.44577 -441.2071,432.67678 L -585.74998,421.25 C -533.22936,427.96709 -479.47929,431.02775 -428.47226,445.82322 C -382.31683,431.67981 -323.93045,429.56442 -271.99999,421.5 L -415.87499,432.5 C -415.02472,429.9027 -414.78753,426.74849 -415.49999,424.125 L -377.49999,417 L -418.49999,419.25 C -419.19884,418.00022 -422.67784,416.11424 -425.12499,415.5 C -426.39519,399.66667 -426.24724,382.83333 -428.99999,367 z M -441.14623,432.85266 C -440.08144,438.89175 -437.99184,441.08785 -436.01971,443.72442 M -415.77878,432.67588 C -417.43295,436.67768 -418.62586,441.00894 -421.83337,443.9012 M -440.93749,424 C -441.26898,423.90216 -439.04196,419.30566 -438.49999,419.125 M -418.46874,419.25 C -417.2174,420.79469 -416.28344,422.44518 -415.53124,424.15625"
       style="fill:none;fill-rule:evenodd;stroke:#000000;stroke-width:1px;stroke-linecap:butt;stroke-linejoin:miter;stroke-opacity:1"
       id="path2272" />
    <path
       transform="matrix(2.2872555e-2,0,0,2.5282744e-2,-449.99561,421.34713)"
       d="M 658.61945 111.91016 A 51.012703 54.548237 0 1 1  556.59405,111.91016 A 51.012703 54.548237 0 1 1  658.61945 111.91016 z"
       sodipodi:ry="54.548237"
       sodipodi:rx="51.012703"
       sodipodi:cy="111.91016"
       sodipodi:cx="607.60675"
       id="path7300"
       style="fill:#000000;fill-opacity:1;fill-rule:evenodd;stroke:#000000;stroke-width:0.60000002;stroke-linecap:round;stroke-linejoin:miter;stroke-miterlimit:4;stroke-dasharray:none;stroke-dashoffset:0;stroke-opacity:1"
       sodipodi:type="arc" />
    <path
       transform="matrix(2.2872555e-2,0,0,2.5282744e-2,-445.21529,421.34713)"
       d="M 658.61945 111.91016 A 51.012703 54.548237 0 1 1  556.59405,111.91016 A 51.012703 54.548237 0 1 1  658.61945 111.91016 z"
       sodipodi:ry="54.548237"
       sodipodi:rx="51.012703"
       sodipodi:cy="111.91016"
       sodipodi:cx="607.60675"
       id="path7302"
       style="fill:#000000;fill-opacity:1;fill-rule:evenodd;stroke:#000000;stroke-width:0.60000002;stroke-linecap:round;stroke-linejoin:miter;stroke-miterlimit:4;stroke-dasharray:none;stroke-dashoffset:0;stroke-opacity:1"
       sodipodi:type="arc" />
    <path
       transform="matrix(2.2872555e-2,0,0,2.5282744e-2,-440.43498,421.34713)"
       d="M 658.61945 111.91016 A 51.012703 54.548237 0 1 1  556.59405,111.91016 A 51.012703 54.548237 0 1 1  658.61945 111.91016 z"
       sodipodi:ry="54.548237"
       sodipodi:rx="51.012703"
       sodipodi:cy="111.91016"
       sodipodi:cx="607.60675"
       id="path7306"
       style="fill:#000000;fill-opacity:1;fill-rule:evenodd;stroke:#000000;stroke-width:0.60000002;stroke-linecap:round;stroke-linejoin:miter;stroke-miterlimit:4;stroke-dasharray:none;stroke-dashoffset:0;stroke-opacity:1"
       sodipodi:type="arc" />
    <path
       transform="matrix(2.2872555e-2,0,0,2.5282744e-2,-435.65466,421.34713)"
       d="M 658.61945 111.91016 A 51.012703 54.548237 0 1 1  556.59405,111.91016 A 51.012703 54.548237 0 1 1  658.61945 111.91016 z"
       sodipodi:ry="54.548237"
       sodipodi:rx="51.012703"
       sodipodi:cy="111.91016"
       sodipodi:cx="607.60675"
       id="path7308"
       style="fill:#000000;fill-opacity:1;fill-rule:evenodd;stroke:#000000;stroke-width:0.60000002;stroke-linecap:round;stroke-linejoin:miter;stroke-miterlimit:4;stroke-dasharray:none;stroke-dashoffset:0;stroke-opacity:1"
       sodipodi:type="arc" />
    <path
       sodipodi:nodetypes="ccsccc"
       id="path7310"
       d="M -535.30579,432.33536 L -535.30579,434.05652 C -535.30579,435.41622 -537.02874,436.51084 -539.1689,436.51084 C -541.30906,436.51084 -543.03201,435.41622 -543.03201,434.05652 L -543.03201,432.33536 C -541.17492,429.68014 -537.07723,429.23759 -535.30579,432.33536 z "
       style="fill:#e6e6e6;fill-opacity:1;fill-rule:evenodd;stroke:#000000;stroke-width:0.03315328;stroke-linecap:round;stroke-linejoin:miter;stroke-miterlimit:4;stroke-dashoffset:0;stroke-opacity:1" />
    <path
       sodipodi:nodetypes="ccsccc"
       id="path7312"
       d="M -494.02843,437.23689 L -494.02843,438.95805 C -494.02843,440.31775 -495.75138,441.41237 -497.89154,441.41237 C -500.0317,441.41237 -501.75465,440.31775 -501.75465,438.95805 L -501.75465,437.23689 C -499.89756,434.58167 -495.79987,434.13912 -494.02843,437.23689 z "
       style="fill:#e6e6e6;fill-opacity:1;fill-rule:evenodd;stroke:#000000;stroke-width:0.03315328;stroke-linecap:round;stroke-linejoin:miter;stroke-miterlimit:4;stroke-dashoffset:0;stroke-opacity:1" />
    <path
       sodipodi:nodetypes="ccsccc"
       id="path7314"
       d="M -355.78907,438.20916 L -355.78907,439.93032 C -355.78907,441.29002 -357.51202,442.38464 -359.65218,442.38464 C -361.79234,442.38464 -363.51529,441.29002 -363.51529,439.93032 L -363.51529,438.20916 C -361.6582,435.55394 -357.56051,435.11139 -355.78907,438.20916 z "
       style="fill:#e6e6e6;fill-opacity:1;fill-rule:evenodd;stroke:#000000;stroke-width:0.03315328;stroke-linecap:round;stroke-linejoin:miter;stroke-miterlimit:4;stroke-dashoffset:0;stroke-opacity:1" />
    <path
       sodipodi:nodetypes="ccsccc"
       id="path7316"
       d="M -314.5117,432.99425 L -314.5117,434.71541 C -314.5117,436.07511 -316.23465,437.16973 -318.37481,437.16973 C -320.51497,437.16973 -322.23792,436.07511 -322.23792,434.71541 L -322.23792,432.99425 C -320.38083,430.33903 -316.28314,429.89648 -314.5117,432.99425 z "
       style="fill:#e6e6e6;fill-opacity:1;fill-rule:evenodd;stroke:#000000;stroke-width:0.03315328;stroke-linecap:round;stroke-linejoin:miter;stroke-miterlimit:4;stroke-dashoffset:0;stroke-opacity:1" />
  </g>
</svg>
