<?xml version="1.0" encoding="UTF-8" standalone="no"?>
<!-- Created with Inkscape (http://www.inkscape.org/) -->

<svg
   xmlns:dc="http://purl.org/dc/elements/1.1/"
   xmlns:cc="http://creativecommons.org/ns#"
   xmlns:rdf="http://www.w3.org/1999/02/22-rdf-syntax-ns#"
   xmlns:svg="http://www.w3.org/2000/svg"
   xmlns="http://www.w3.org/2000/svg"
   xmlns:sodipodi="http://sodipodi.sourceforge.net/DTD/sodipodi-0.dtd"
   xmlns:inkscape="http://www.inkscape.org/namespaces/inkscape"
   id="svg2"
   version="1.1"
   inkscape:version="0.92.3 (2405546, 2018-03-11)"
   width="1112.1984"
   height="435.76697"
   sodipodi:docname="WingSpar.svg">
  <metadata
     id="metadata8">
    <rdf:RDF>
      <cc:Work
         rdf:about="">
        <dc:format>image/svg+xml</dc:format>
        <dc:type
           rdf:resource="http://purl.org/dc/dcmitype/StillImage" />
        <dc:title />
      </cc:Work>
    </rdf:RDF>
  </metadata>
  <defs
     id="defs6" />
  <sodipodi:namedview
     pagecolor="#ffffff"
     bordercolor="#666666"
     borderopacity="1"
     objecttolerance="10"
     gridtolerance="10"
     guidetolerance="10"
     inkscape:pageopacity="0"
     inkscape:pageshadow="2"
     inkscape:window-width="1920"
     inkscape:window-height="1001"
     id="namedview4"
     showgrid="false"
     inkscape:zoom="0.73899649"
     inkscape:cx="392.91509"
     inkscape:cy="256.65677"
     inkscape:window-x="-9"
     inkscape:window-y="1041"
     inkscape:window-maximized="1"
     inkscape:current-layer="svg2" />
  <g
     id="g1176"
     transform="matrix(0.39242349,0,0,0.39242349,545.17751,-0.93094686)">
    <path
       inkscape:connector-curvature="0"
       id="path3012"
       d="m 237.3327,633.82703 107.60694,37.18881 32.27826,-21.33647 -0.82064,-80.14855 75.77183,27.628 30.36345,-19.96875 -0.27355,-73.30993 70.0274,24.34546 25.1661,-16.95976 -0.82064,-68.11259 65.92423,24.34546 21.88356,-16.13912 v -62.09461 l 59.08562,20.78938 20.51584,-13.40368 -0.27355,-59.08561 56.07663,19.96875 19.69521,-13.40369 v -54.43536 l 52.52054,17.50685 21.33648,-14.22431 v -48.96447 l 49.23801,15.59204 20.51584,-14.22432 v -45.68193 l 44.58774,15.31849 16.4127,-11.76241 v -42.3994 l -15.592,-4.65026 z"
       style="fill:#ff5555;fill-opacity:1;stroke:#000000;stroke-width:1px;stroke-linecap:butt;stroke-linejoin:miter;stroke-opacity:1" />
    <g
       transform="matrix(1.3614288,0,0,1.3614288,-199.14329,-87.663212)"
       id="g3811">
      <path
         sodipodi:nodetypes="csssccc"
         inkscape:connector-curvature="0"
         id="path3759"
         d="m 343.69561,516.04162 c -34.54659,-12.74601 -72.50078,-30.13198 -69.67298,-44.10225 0.91805,-4.53544 9.9047,-12.51245 51.45892,-8.07198 59.15334,6.32111 81.10971,13.71649 120.21861,27.05934 85.95696,29.32609 155.86346,71.77122 227.21457,107.647 m -5.61374,4.51929 C 593.4214,587.62464 513.84912,567.98686 423.11039,541.33939"
         style="fill:none;stroke:#000000;stroke-width:3;stroke-linecap:butt;stroke-linejoin:round;stroke-miterlimit:4;stroke-dasharray:none;stroke-opacity:1" />
      <path
         style="fill:none;stroke:#000000;stroke-width:3;stroke-linecap:butt;stroke-linejoin:round;stroke-miterlimit:4;stroke-dasharray:none;stroke-opacity:1"
         d="m 426.18386,464.38406 c -31.52949,-11.74032 -66.05307,-27.76972 -63.48217,-40.47081 0.84894,-4.19407 9.15921,-11.57068 47.58582,-7.46443 54.70108,5.84534 75.00487,12.68411 111.17019,25.0227 79.33748,27.06771 143.88848,66.22134 209.73993,99.35715 m -4.34729,4.46623 C 658.42619,530.98835 583.28128,512.56596 499.81115,488.09642"
         id="path3761"
         inkscape:connector-curvature="0"
         sodipodi:nodetypes="csssccc" />
      <path
         sodipodi:nodetypes="csssccc"
         inkscape:connector-curvature="0"
         id="path3763"
         d="m 501.19251,418.13894 c -29.62089,-10.93722 -62.10265,-25.83567 -59.67875,-37.81059 0.78808,-3.89338 8.50256,-10.74115 44.17424,-6.92928 50.77939,5.42627 69.62755,11.77474 103.20005,23.22873 73.8243,25.18677 133.85696,61.6463 195.1382,92.45281 m -4.04269,4.01584 C 716.34209,479.79498 647.79442,462.89555 569.58253,439.92923"
         style="fill:none;stroke:#000000;stroke-width:3;stroke-linecap:butt;stroke-linejoin:round;stroke-miterlimit:4;stroke-dasharray:none;stroke-opacity:1" />
      <path
         style="fill:none;stroke:#000000;stroke-width:2.99978971;stroke-linecap:butt;stroke-linejoin:round;stroke-miterlimit:4;stroke-dasharray:none;stroke-opacity:1"
         d="m 570.19532,375.98121 c -27.15278,-10.09181 -56.47336,-23.68662 -54.25624,-34.63996 0.72977,-3.60532 7.87344,-9.94641 40.90573,-6.41659 47.02218,5.02478 64.47574,10.90353 95.56417,21.51002 68.014,23.20446 123.38651,56.74161 179.8333,85.17613 m -3.90491,3.92996 C 769.67956,433.201 705.87777,417.23522 634.11556,396.17953"
         id="path3765"
         inkscape:connector-curvature="0"
         sodipodi:nodetypes="csssccc" />
      <path
         sodipodi:nodetypes="csssccc"
         inkscape:connector-curvature="0"
         id="path3767"
         d="m 633.36751,336.08937 c -24.84117,-9.29575 -51.25354,-21.68018 -49.22886,-31.68286 0.67494,-3.33447 7.28197,-9.1992 37.83276,-5.93455 43.48972,4.64729 59.6321,10.08441 88.38508,19.89411 63.21025,21.56555 114.61477,52.78068 167.0848,79.16048 m -3.98253,3.34233 C 818.66398,389.40125 759.61295,374.81531 692.17203,354.96615"
         style="fill:none;stroke:#000000;stroke-width:3;stroke-linecap:butt;stroke-linejoin:round;stroke-miterlimit:4;stroke-dasharray:none;stroke-opacity:1" />
      <path
         style="fill:none;stroke:#000000;stroke-width:3;stroke-linecap:butt;stroke-linejoin:round;stroke-miterlimit:4;stroke-dasharray:none;stroke-opacity:1"
         d="m 692.74728,298.69652 c -22.56714,-8.54255 -45.96794,-19.72393 -44.13251,-28.79164 0.62501,-3.0878 6.74328,-8.51868 35.03406,-5.49554 40.27256,4.30351 55.2208,9.33841 81.84677,18.42244 58.34652,19.90619 105.83066,48.69089 154.25717,73.06937 m -3.63289,3.2439 C 865.5576,348.55207 811.07472,335.08887 748.8885,316.79266"
         id="path3769"
         inkscape:connector-curvature="0"
         sodipodi:nodetypes="csssccc" />
      <path
         sodipodi:nodetypes="csssccc"
         inkscape:connector-curvature="0"
         id="path3771"
         d="m 752.00837,262.7966 c -20.62301,-7.83013 -41.87303,-18.03383 -40.19634,-26.31729 0.57412,-2.83635 6.19416,-7.82499 32.18117,-5.04803 36.9931,3.95307 50.72409,8.57797 75.18186,16.92227 53.48028,18.24597 97.0255,44.61252 141.40948,66.97504 m -3.20871,3.09082 C 910.67107,308.6303 860.32186,296.17398 802.79672,279.21805"
         style="fill:none;stroke:#000000;stroke-width:3;stroke-linecap:butt;stroke-linejoin:round;stroke-miterlimit:4;stroke-dasharray:none;stroke-opacity:1" />
      <path
         style="fill:none;stroke:#000000;stroke-width:3;stroke-linecap:butt;stroke-linejoin:round;stroke-miterlimit:4;stroke-dasharray:none;stroke-opacity:1"
         d="m 806.38496,229.3871 c -18.67331,-7.14133 -37.63043,-16.352 -36.11316,-23.84784 0.52644,-2.60079 5.67974,-7.17514 29.5086,-4.62881 33.92091,3.62479 46.51156,7.8656 68.93817,15.51693 49.27489,16.81119 89.35188,41.14042 130.25343,61.70871 m -3.21822,2.60363 C 952.6901,271.72229 906.25284,260.2342 853.14589,244.56513"
         id="path3773"
         inkscape:connector-curvature="0"
         sodipodi:nodetypes="csssccc" />
      <path
         sodipodi:nodetypes="csssccc"
         inkscape:connector-curvature="0"
         id="path3775"
         d="m 855.14438,199.17032 c -17.1768,-6.59106 -34.4978,-15.05279 -33.10233,-21.94691 0.48713,-2.40662 5.25573,-6.63948 27.30569,-4.28325 31.38861,3.35419 43.03932,7.2784 63.79172,14.35854 49.80194,16.99102 89.45014,42.28132 131.02914,62.27144 m -13.5363,-2.77254 C 990.68383,238.43088 947.597,227.76607 898.29953,213.20902"
         style="fill:none;stroke:#000000;stroke-width:3;stroke-linecap:butt;stroke-linejoin:round;stroke-miterlimit:4;stroke-dasharray:none;stroke-opacity:1" />
      <path
         style="fill:none;stroke:#000000;stroke-width:3;stroke-linecap:butt;stroke-linejoin:miter;stroke-miterlimit:4;stroke-dasharray:none;stroke-opacity:1"
         d="M 608.84172,661.03146 1032.3906,244.84484"
         id="path3779"
         inkscape:connector-curvature="0"
         sodipodi:nodetypes="cc" />
      <path
         style="fill:none;stroke:#000000;stroke-width:3;stroke-linecap:butt;stroke-linejoin:round;stroke-miterlimit:4;stroke-dasharray:none;stroke-opacity:1"
         d="m 177.25685,523.57534 c 0.99554,-4.91833 10.74086,-13.56876 55.80308,-8.75342 64.14705,6.85474 87.95697,14.87443 130.36743,29.34369 101.77737,34.72356 182.80416,86.40788 267.77662,127.26055 C 532.98067,651.75864 426.22279,625.61314 299.42219,587.01813 266.00205,576.84585 172.69508,546.11209 177.25685,523.57534 Z"
         id="path2989"
         inkscape:connector-curvature="0"
         sodipodi:nodetypes="ssscss" />
      <path
         style="fill:none;stroke:#000000;stroke-width:3;stroke-linecap:butt;stroke-linejoin:miter;stroke-miterlimit:4;stroke-dasharray:none;stroke-opacity:1"
         d="M 631.33981,671.35151 1044.6342,249.73366 C 1023.7194,198.06422 996.04696,84.328064 821.83976,175.25989 L 181.9881,518.15542"
         id="path3783"
         inkscape:connector-curvature="0"
         sodipodi:nodetypes="cccc" />
      <path
         style="fill:none;stroke:#000000;stroke-width:3;stroke-linecap:butt;stroke-linejoin:miter;stroke-miterlimit:4;stroke-dasharray:none;stroke-opacity:1"
         d="m 320.86772,531.01082 v 62.04483 m 18.40006,5.95484 v -62.1862"
         id="path3785"
         inkscape:connector-curvature="0"
         sodipodi:nodetypes="cccc" />
      <path
         style="fill:none;stroke:#000000;stroke-width:3;stroke-linecap:butt;stroke-linejoin:miter;stroke-miterlimit:4;stroke-dasharray:none;stroke-opacity:1"
         d="m 399.38522,557.65974 23.63864,-16.28563 m 55.92603,-38.52973 20.98969,-14.46066 m 51.61725,-35.56125 19.34332,-13.32641 m 46.48116,-32.02278 16.68491,-11.49492 m 43.57794,-30.02263 15.19249,-10.46673 m 41.00113,-28.24736 15.2467,-10.50408 m 37.90116,-26.11166 16.03922,-11.05008 m 35.53564,-24.44179 15.10633,-10.44754 m 31.86289,-21.95166 12.54686,-8.64404 0.044,-30.54304"
         id="path3787"
         inkscape:connector-curvature="0"
         sodipodi:nodetypes="ccccccccccccccccccc" />
      <path
         style="fill:none;stroke:#000000;stroke-width:3;stroke-linecap:butt;stroke-linejoin:miter;stroke-miterlimit:4;stroke-dasharray:none;stroke-opacity:1"
         d="M 319.63678,530.41395 886.85281,179.31505"
         id="path3791"
         inkscape:connector-curvature="0"
         sodipodi:nodetypes="cc" />
      <path
         style="fill:none;stroke:#000000;stroke-width:3;stroke-linecap:butt;stroke-linejoin:miter;stroke-miterlimit:4;stroke-dasharray:none;stroke-opacity:1"
         d="M 898.26656,182.17922 339.4612,535.95388"
         id="path3793"
         inkscape:connector-curvature="0" />
      <path
         style="fill:none;stroke:#000000;stroke-width:3;stroke-linecap:butt;stroke-linejoin:miter;stroke-miterlimit:4;stroke-dasharray:none;stroke-opacity:1"
         d="m 422.63403,483.34223 v 58.44961"
         id="path3795"
         inkscape:connector-curvature="0"
         sodipodi:nodetypes="cc" />
      <path
         style="fill:none;stroke:#000000;stroke-width:3;stroke-linecap:butt;stroke-linejoin:miter;stroke-miterlimit:4;stroke-dasharray:none;stroke-opacity:1"
         d="m 500.19753,434.21224 v 53.96562"
         id="path3797"
         inkscape:connector-curvature="0" />
      <path
         style="fill:none;stroke:#000000;stroke-width:3;stroke-linecap:butt;stroke-linejoin:miter;stroke-miterlimit:4;stroke-dasharray:none;stroke-opacity:1"
         d="m 570.02402,389.91787 v 50.09712"
         id="path3799"
         inkscape:connector-curvature="0" />
      <path
         style="fill:none;stroke:#000000;stroke-width:3;stroke-linecap:butt;stroke-linejoin:miter;stroke-miterlimit:4;stroke-dasharray:none;stroke-opacity:1"
         d="m 633.85433,349.492 v 46.8089"
         id="path3801"
         inkscape:connector-curvature="0" />
      <path
         style="fill:none;stroke:#000000;stroke-width:3;stroke-linecap:butt;stroke-linejoin:miter;stroke-miterlimit:4;stroke-dasharray:none;stroke-opacity:1"
         d="m 692.26874,312.35437 v 43.52066"
         id="path3803"
         inkscape:connector-curvature="0" />
      <path
         style="fill:none;stroke:#000000;stroke-width:3;stroke-linecap:butt;stroke-linejoin:miter;stroke-miterlimit:4;stroke-dasharray:none;stroke-opacity:1"
         d="M 748.55547,276.76413 V 316.4163"
         id="path3805"
         inkscape:connector-curvature="0" />
      <path
         style="fill:none;stroke:#000000;stroke-width:3;stroke-linecap:butt;stroke-linejoin:miter;stroke-miterlimit:4;stroke-dasharray:none;stroke-opacity:1"
         d="m 802.71452,242.52788 v 36.94421"
         id="path3807"
         inkscape:connector-curvature="0" />
      <path
         style="fill:none;stroke:#000000;stroke-width:3;stroke-linecap:butt;stroke-linejoin:miter;stroke-miterlimit:4;stroke-dasharray:none;stroke-opacity:1"
         d="M 853.00507,210.80615 V 245.0424"
         id="path3809"
         inkscape:connector-curvature="0" />
    </g>
  </g>
  <g
     id="g1119"
     transform="matrix(0.55443197,0.54215379,-0.54215379,0.55443197,159.53125,-191.13742)"
     style="opacity:0.65">
    <g
       transform="matrix(0,2.0535802,-2.0535802,0,744.44085,-38.929557)"
       id="g7342">
      <g
         id="g1148">
        <g
           id="g1205"
           transform="rotate(-58.756394,160.2971,164.31955)">
          <g
             id="g2176"
             style="stroke:#000000;stroke-opacity:1">
            <g
               id="g6139"
               style="stroke:#000000;stroke-opacity:1">
              <path
                 style="fill:none;fill-rule:evenodd;stroke:#000000;stroke-width:2.5999999;stroke-linecap:butt;stroke-linejoin:miter;stroke-miterlimit:4;stroke-dasharray:none;stroke-opacity:1"
                 d="M 75.892857,161.90476 104.91071,132.44048"
                 id="path4185"
                 inkscape:connector-curvature="0" />
              <g
                 id="g6129"
                 transform="matrix(0.4536313,0.4475248,-0.4475248,0.4536313,125.18546,65.765003)"
                 style="stroke:#000000;stroke-opacity:1">
                <rect
                   rx="1.7848055"
                   ry="1.7848055"
                   y="133.48215"
                   x="43.117561"
                   height="26.636906"
                   width="13.839286"
                   id="rect5156"
                   style="opacity:0.66513815;fill:none;fill-opacity:1;stroke:#000000;stroke-width:4.08017063;stroke-linecap:round;stroke-linejoin:miter;stroke-miterlimit:4;stroke-dasharray:none;stroke-opacity:1" />
                <rect
                   rx="1.7848055"
                   ry="1.7848055"
                   y="106.77083"
                   x="43.117561"
                   height="26.636906"
                   width="13.839286"
                   id="rect5158"
                   style="opacity:0.66513815;fill:none;fill-opacity:1;stroke:#000000;stroke-width:2.66780376;stroke-linecap:round;stroke-linejoin:miter;stroke-miterlimit:4;stroke-dasharray:none;stroke-opacity:1" />
              </g>
            </g>
            <g
               transform="translate(-4.6603879,-52.146718)"
               id="g6145"
               style="stroke:#000000;stroke-opacity:1">
              <path
                 style="fill:none;fill-rule:evenodd;stroke:#000000;stroke-width:2.5999999;stroke-linecap:butt;stroke-linejoin:miter;stroke-miterlimit:4;stroke-dasharray:none;stroke-opacity:1"
                 d="M 75.892857,161.90476 104.91071,132.44048"
                 id="path6147"
                 inkscape:connector-curvature="0" />
              <g
                 id="g6149"
                 transform="matrix(0.4536313,0.4475248,-0.4475248,0.4536313,125.18546,65.765003)"
                 style="stroke:#000000;stroke-opacity:1">
                <rect
                   rx="1.7848055"
                   ry="1.7848055"
                   y="133.48215"
                   x="43.117561"
                   height="26.636906"
                   width="13.839286"
                   id="rect6151"
                   style="opacity:0.66513815;fill:none;fill-opacity:1;stroke:#000000;stroke-width:4.08017063;stroke-linecap:round;stroke-linejoin:miter;stroke-miterlimit:4;stroke-dasharray:none;stroke-opacity:1" />
                <rect
                   rx="1.7848055"
                   ry="1.7848055"
                   y="106.77083"
                   x="43.117561"
                   height="26.636906"
                   width="13.839286"
                   id="rect6153"
                   style="opacity:0.66513815;fill:none;fill-opacity:1;stroke:#000000;stroke-width:2.66780376;stroke-linecap:round;stroke-linejoin:miter;stroke-miterlimit:4;stroke-dasharray:none;stroke-opacity:1" />
              </g>
            </g>
            <path
               sodipodi:nodetypes="cccccccccccccccccccccccccccccccc"
               d="M 100,202.97619 C 98.638142,146.391 97.22058,91.273648 88.095238,34.523809 92.956567,30.133625 100.92022,21.400181 102.67857,21.354166 c 14.69379,33.52111 27.78982,80.208334 41.5795,120.312504 3.88624,2.5111 7.38981,5.71101 13.28608,4.60406 z m 6.36563,-172.310195 -4.74509,2.595315 13.1007,39.07542 -1.85924,0.679643 1.46708,4.375817 -4.57733,2.094232 5.78026,17.240724 5.19784,-0.243373 2.54058,7.577787 1.86774,-0.65433 4.27814,12.76041 -2.46188,0.67754 1.97095,5.87872 -4.25975,1.49854 6.37214,19.00616 4.4495,-0.83361 1.18618,5.71999 7.57743,-6.44262 m -19.12068,-38.23114 5.33855,-4.148066 m -1.00447,16.852686 5.84078,-1.74852 m -6.38021,8.31473 6.56622,19.69866 m -21.1552,-65.016605 6.39224,19.08179"
               style="fill:none;fill-rule:evenodd;stroke:#000000;stroke-width:1px;stroke-linecap:butt;stroke-linejoin:miter;stroke-opacity:1"
               id="path2220"
               inkscape:connector-curvature="0" />
          </g>
          <g
             id="g2189"
             transform="matrix(0.00994866,-0.9999505,-0.9999505,-0.00994866,324.07168,325.90108)"
             style="stroke:#000000;stroke-opacity:1">
            <g
               id="g2191"
               style="stroke:#000000;stroke-opacity:1">
              <path
                 style="fill:none;fill-rule:evenodd;stroke:#000000;stroke-width:2.5999999;stroke-linecap:butt;stroke-linejoin:miter;stroke-miterlimit:4;stroke-dasharray:none;stroke-opacity:1"
                 d="M 75.892857,161.90476 104.91071,132.44048"
                 id="path2193"
                 inkscape:connector-curvature="0" />
              <g
                 id="g2195"
                 transform="matrix(0.4536313,0.4475248,-0.4475248,0.4536313,125.18546,65.765003)"
                 style="stroke:#000000;stroke-opacity:1">
                <rect
                   rx="1.7848055"
                   ry="1.7848055"
                   y="133.48215"
                   x="43.117561"
                   height="26.636906"
                   width="13.839286"
                   id="rect2197"
                   style="opacity:0.66513815;fill:none;fill-opacity:1;stroke:#000000;stroke-width:4.08017063;stroke-linecap:round;stroke-linejoin:miter;stroke-miterlimit:4;stroke-dasharray:none;stroke-opacity:1" />
                <rect
                   rx="1.7848055"
                   ry="1.7848055"
                   y="106.77083"
                   x="43.117561"
                   height="26.636906"
                   width="13.839286"
                   id="rect2199"
                   style="opacity:0.66513815;fill:none;fill-opacity:1;stroke:#000000;stroke-width:2.66780376;stroke-linecap:round;stroke-linejoin:miter;stroke-miterlimit:4;stroke-dasharray:none;stroke-opacity:1" />
              </g>
            </g>
            <g
               transform="translate(-4.6603879,-52.146718)"
               id="g2201"
               style="stroke:#000000;stroke-opacity:1">
              <path
                 style="fill:none;fill-rule:evenodd;stroke:#000000;stroke-width:2.5999999;stroke-linecap:butt;stroke-linejoin:miter;stroke-miterlimit:4;stroke-dasharray:none;stroke-opacity:1"
                 d="M 75.892857,161.90476 104.91071,132.44048"
                 id="path2203"
                 inkscape:connector-curvature="0" />
              <g
                 id="g2205"
                 transform="matrix(0.4536313,0.4475248,-0.4475248,0.4536313,125.18546,65.765003)"
                 style="stroke:#000000;stroke-opacity:1">
                <rect
                   rx="1.7848055"
                   ry="1.7848055"
                   y="133.48215"
                   x="43.117561"
                   height="26.636906"
                   width="13.839286"
                   id="rect2207"
                   style="opacity:0.66513815;fill:none;fill-opacity:1;stroke:#000000;stroke-width:4.08017063;stroke-linecap:round;stroke-linejoin:miter;stroke-miterlimit:4;stroke-dasharray:none;stroke-opacity:1" />
                <rect
                   rx="1.7848055"
                   ry="1.7848055"
                   y="106.77083"
                   x="43.117561"
                   height="26.636906"
                   width="13.839286"
                   id="rect2209"
                   style="opacity:0.66513815;fill:none;fill-opacity:1;stroke:#000000;stroke-width:2.66780376;stroke-linecap:round;stroke-linejoin:miter;stroke-miterlimit:4;stroke-dasharray:none;stroke-opacity:1" />
              </g>
            </g>
            <path
               sodipodi:nodetypes="cccccccccccccccccccccccccccccccc"
               d="M 100,202.97619 C 98.638142,146.391 97.22058,91.273648 88.095238,34.523809 92.956567,30.133625 100.92022,21.400181 102.67857,21.354166 c 14.69379,33.52111 27.78982,80.208334 41.5795,120.312504 3.88624,2.5111 7.38981,5.71101 13.28608,4.60406 z m 6.36563,-172.310195 -4.74509,2.595315 13.1007,39.07542 -1.85924,0.679643 1.46708,4.375817 -4.57733,2.094232 5.78026,17.240724 5.19784,-0.243373 2.54058,7.577787 1.86774,-0.65433 4.27814,12.76041 -2.46188,0.67754 1.97095,5.87872 -4.25975,1.49854 6.37214,19.00616 4.4495,-0.83361 1.18618,5.71999 7.57743,-6.44262 m -19.12068,-38.23114 5.33855,-4.148066 m -1.00447,16.852686 5.84078,-1.74852 m -6.38021,8.31473 6.56622,19.69866 m -21.1552,-65.016605 6.39224,19.08179"
               style="fill:none;fill-rule:evenodd;stroke:#000000;stroke-width:1px;stroke-linecap:butt;stroke-linejoin:miter;stroke-opacity:1"
               id="path2211"
               inkscape:connector-curvature="0" />
          </g>
          <ellipse
             style="opacity:0;fill:#ff0000;fill-opacity:1;stroke:#000000;stroke-width:17.70000076;stroke-linecap:round;stroke-linejoin:miter;stroke-miterlimit:4;stroke-dasharray:none;stroke-opacity:1"
             id="path3218"
             cx="202.52975"
             cy="72.321434"
             rx="2.6785715"
             ry="11.755952" />
          <ellipse
             style="fill:none;fill-opacity:1;fill-rule:evenodd;stroke:#000000;stroke-width:5.07765007;stroke-linecap:round;stroke-linejoin:miter;stroke-miterlimit:4;stroke-dasharray:none;stroke-dashoffset:0;stroke-opacity:1"
             id="path4169"
             transform="matrix(0.04194229,0.04277519,-0.3287401,0.3121387,250.88828,23.71293)"
             cx="607.60675"
             cy="111.91016"
             rx="51.012703"
             ry="54.548237" />
          <path
             id="path2213"
             style="fill:none;fill-rule:evenodd;stroke:#000000;stroke-width:1px;stroke-linecap:butt;stroke-linejoin:miter;stroke-opacity:1"
             d="m 266.84863,59.092012 40.827,20.729172 c -1.51372,4.820023 -4.62482,8.84136 -7.7866,12.837355 L 247.27692,90.764503 M 207.92307,95.815257 55.137493,249.86353 c -4.966746,8.44471 -11.326401,16.76279 -13.468701,25.46426 0,0 1.040534,4.96798 3.577624,6.5239 2.562703,1.57162 12.049606,-1.00393 12.20601,-1.47314 -0.203902,0.81561 16.145293,-9.65412 17.046324,-10.31197 0.760121,-0.55497 160.39436,-159.58047 160.39436,-159.58047 M 207.84414,95.894184 c 18.36502,-13.480853 44.40821,-27.842969 64.2657,-43.641746 -14.98055,18.790383 -25.09325,38.79773 -37.24937,58.294222 m -0.63135,-32.409063 -2.10448,-51.770318 c 2.79219,-3.904216 5.96686,-7.644512 12.6269,-9.891077 7.17188,14.417537 13.27749,26.916453 20.72917,40.774386 M 246.22468,19.948602 c -2.95503,1.620958 -4.44238,3.165195 -4.62986,5.576883 l 13.88959,38.722514 m -3.36717,-33.461303 c -1.41874,1.157467 -2.31943,2.314933 -2.94628,3.4724 l 9.68063,22.307535 c 1.78986,1.563446 2.76079,2.15842 4.41942,2.314933 m 29.25233,13.153028 c 0,0 -1.09054,3.416048 -1.93233,2.995151 -0.8418,-0.420897 -21.84835,-8.256362 -21.84835,-8.256362 -1.60658,-1.872937 -2.31197,-4.046273 -2.73582,-6.313454 m -5.68211,8.417938 c 12.67651,4.505858 24.65673,9.708003 38.02953,13.517574 1.95423,0.373074 4.46911,-1.683313 7.00643,-3.836945 M 231.25,114.13691 l -3.72024,-3.72024 4.91071,-4.31548 3.31102,2.86459 M 52.678571,254.46429 c -1.159529,13.42574 4.550768,20.13779 20.833333,16.51785 L 71.875,272.02381 c -14.996288,3.78402 -25.992337,3.10623 -20.535715,-15.92262 M 78.125,266.96429 c -0.14881,-0.59524 -2.976191,-4.01786 -2.976191,-4.01786 l 4.613095,-4.01786 3.720238,2.38095"
             sodipodi:nodetypes="cccccccscsccccccccccccccccsccccccccccccccccc"
             inkscape:connector-curvature="0" />
        </g>
      </g>
    </g>
  </g>
  <ellipse
     style="opacity:1;fill:#008000;fill-opacity:0;fill-rule:nonzero;stroke:#00a806;stroke-width:5.00020456;stroke-miterlimit:4;stroke-dasharray:none;stroke-dashoffset:0;stroke-opacity:1;paint-order:markers fill stroke"
     id="path1207"
     cx="228.37396"
     cy="229.0407"
     rx="135.63361"
     ry="41.629448"
     transform="matrix(0.88690222,-0.46195719,0.47325929,0.88092318,0,0)" />
  <ellipse
     style="opacity:1;fill:#008000;fill-opacity:0;fill-rule:nonzero;stroke:#00a806;stroke-width:4.36979389;stroke-miterlimit:4;stroke-dasharray:none;stroke-dashoffset:0;stroke-opacity:1;paint-order:markers fill stroke"
     id="path1207-2"
     cx="607.26721"
     cy="572.42542"
     rx="358.20847"
     ry="113.23355"
     transform="matrix(0.86944831,-0.49402392,0.46494526,0.88533943,0,0)" />
  <path
     style="fill:none;stroke:#00a806;stroke-width:5;stroke-linecap:butt;stroke-linejoin:miter;stroke-miterlimit:4;stroke-dasharray:none;stroke-opacity:1"
     d="M 193.72727,164.2045 497.04786,398.63209"
     id="path1224"
     inkscape:connector-curvature="0" />
  <path
     style="fill:none;stroke:#00a806;stroke-width:5;stroke-linecap:butt;stroke-linejoin:miter;stroke-miterlimit:4;stroke-dasharray:none;stroke-opacity:1"
     d="M 427.19801,30.245883 1025.2275,2.4973131"
     id="path1226"
     inkscape:connector-curvature="0" />
</svg>
