<svg version="1.1" xmlns="http://www.w3.org/2000/svg" xmlns:xlink="http://www.w3.org/1999/xlink" width="1679" height="720"><defs><clipPath id="JftDJwGQAUIV"><path fill="none" stroke="none" d=" M 0 0 L 1679 0 L 1679 720 L 0 720 L 0 0 Z"/></clipPath></defs><g transform="scale(1,1)" clip-path="url(#JftDJwGQAUIV)"><g transform="translate(-17.731340251729762,-128.87042573821174)"><rect fill="rgb(255,255,255)" stroke="none" x="0" y="0" width="1855" height="1003" fill-opacity="1"/><path fill="none" stroke="rgb(128,128,128)" paint-order="fill stroke markers" d=" M 976.1017706337357 488.2593371314643 C 976.1017706337357 620.5826804786534 868.8325063854231 727.8519447269659 736.5091630382342 727.8519447269659 C 604.1858196910453 727.8519447269659 496.9165554427327 620.5826804786534 496.9165554427327 488.2593371314643 C 496.9165554427327 355.9359937842752 604.1858196910453 248.6667295359626 736.5091630382342 248.6667295359626 C 868.8325063854231 248.6667295359626 976.1017706337357 355.9359937842752 976.1017706337357 488.2593371314643 Z" stroke-opacity="0.6980392156862745" stroke-linejoin="round" stroke-miterlimit="10" stroke-width="2.5" stroke-dasharray="10.5,8"/><path fill="none" stroke="rgb(128,128,128)" paint-order="fill stroke markers" d=" M 1215.6943782292371 488.2593371314643 C 1215.6943782292371 620.5826804786534 1108.4251139809246 727.8519447269659 976.1017706337357 727.8519447269659 C 843.7784272865467 727.8519447269659 736.5091630382342 620.5826804786534 736.5091630382342 488.2593371314643 C 736.5091630382342 355.9359937842752 843.7784272865467 248.6667295359626 976.1017706337357 248.6667295359626 C 1108.4251139809246 248.6667295359626 1215.6943782292371 355.9359937842752 1215.6943782292371 488.2593371314643 Z" stroke-opacity="0.6980392156862745" stroke-linejoin="round" stroke-miterlimit="10" stroke-width="2.5" stroke-dasharray="10.5,8"/><path fill="none" stroke="rgb(0,0,0)" paint-order="fill stroke markers" d=" M -5 488.2593371314643 L 1860 488.2593371314643" stroke-opacity="1" stroke-linecap="round" stroke-linejoin="round" stroke-miterlimit="10" stroke-width="2.5"/><path fill="none" stroke="rgb(0,0,0)" paint-order="fill stroke markers" d=" M 856.3054668359849 1008 L 856.3054668359849 -5" stroke-opacity="1" stroke-linecap="round" stroke-linejoin="round" stroke-miterlimit="10" stroke-width="2.5"/><path fill="rgb(0,0,255)" stroke="none" paint-order="stroke fill markers" d=" M 741.5091630382342 488.2593371314643 C 741.5091630382342 491.02076088061824 739.2705867873882 493.2593371314643 736.5091630382342 493.2593371314643 C 733.7477392890802 493.2593371314643 731.5091630382342 491.02076088061824 731.5091630382342 488.2593371314643 C 731.5091630382342 485.49791338231034 733.7477392890802 483.2593371314643 736.5091630382342 483.2593371314643 C 739.2705867873882 483.2593371314643 741.5091630382342 485.49791338231034 741.5091630382342 488.2593371314643 Z" fill-opacity="1"/><path fill="none" stroke="rgb(0,0,0)" paint-order="fill stroke markers" d=" M 741.5091630382342 488.2593371314643 C 741.5091630382342 491.02076088061824 739.2705867873882 493.2593371314643 736.5091630382342 493.2593371314643 C 733.7477392890802 493.2593371314643 731.5091630382342 491.02076088061824 731.5091630382342 488.2593371314643 C 731.5091630382342 485.49791338231034 733.7477392890802 483.2593371314643 736.5091630382342 483.2593371314643 C 739.2705867873882 483.2593371314643 741.5091630382342 485.49791338231034 741.5091630382342 488.2593371314643 Z" stroke-opacity="1" stroke-linecap="round" stroke-linejoin="round" stroke-miterlimit="10"/><path fill="rgb(0,0,255)" stroke="none" paint-order="stroke fill markers" d=" M 981.1017706337357 488.2593371314643 C 981.1017706337357 491.02076088061824 978.8631943828897 493.2593371314643 976.1017706337357 493.2593371314643 C 973.3403468845817 493.2593371314643 971.1017706337357 491.02076088061824 971.1017706337357 488.2593371314643 C 971.1017706337357 485.49791338231034 973.3403468845817 483.2593371314643 976.1017706337357 483.2593371314643 C 978.8631943828897 483.2593371314643 981.1017706337357 485.49791338231034 981.1017706337357 488.2593371314643 Z" fill-opacity="1"/><path fill="none" stroke="rgb(0,0,0)" paint-order="fill stroke markers" d=" M 981.1017706337357 488.2593371314643 C 981.1017706337357 491.02076088061824 978.8631943828897 493.2593371314643 976.1017706337357 493.2593371314643 C 973.3403468845817 493.2593371314643 971.1017706337357 491.02076088061824 971.1017706337357 488.2593371314643 C 971.1017706337357 485.49791338231034 973.3403468845817 483.2593371314643 976.1017706337357 483.2593371314643 C 978.8631943828897 483.2593371314643 981.1017706337357 485.49791338231034 981.1017706337357 488.2593371314643 Z" stroke-opacity="1" stroke-linecap="round" stroke-linejoin="round" stroke-miterlimit="10"/><path fill="rgb(0,0,255)" stroke="none" paint-order="stroke fill markers" d=" M 861.3054668359849 280.7660523948034 C 861.3054668359849 283.52747614395736 859.0668905851389 285.7660523948034 856.3054668359849 285.7660523948034 C 853.5440430868309 285.7660523948034 851.3054668359849 283.52747614395736 851.3054668359849 280.7660523948034 C 851.3054668359849 278.00462864564946 853.5440430868309 275.7660523948034 856.3054668359849 275.7660523948034 C 859.0668905851389 275.7660523948034 861.3054668359849 278.00462864564946 861.3054668359849 280.7660523948034 Z" fill-opacity="1"/><path fill="none" stroke="rgb(0,0,0)" paint-order="fill stroke markers" d=" M 861.3054668359849 280.7660523948034 C 861.3054668359849 283.52747614395736 859.0668905851389 285.7660523948034 856.3054668359849 285.7660523948034 C 853.5440430868309 285.7660523948034 851.3054668359849 283.52747614395736 851.3054668359849 280.7660523948034 C 851.3054668359849 278.00462864564946 853.5440430868309 275.7660523948034 856.3054668359849 275.7660523948034 C 859.0668905851389 275.7660523948034 861.3054668359849 278.00462864564946 861.3054668359849 280.7660523948034 Z" stroke-opacity="1" stroke-linecap="round" stroke-linejoin="round" stroke-miterlimit="10"/><path fill="rgb(0,0,255)" stroke="none" paint-order="stroke fill markers" d=" M 861.3054668359849 695.7526218681253 C 861.3054668359849 698.5140456172793 859.0668905851389 700.7526218681253 856.3054668359849 700.7526218681253 C 853.5440430868309 700.7526218681253 851.3054668359849 698.5140456172793 851.3054668359849 695.7526218681253 C 851.3054668359849 692.9911981189713 853.5440430868309 690.7526218681253 856.3054668359849 690.7526218681253 C 859.0668905851389 690.7526218681253 861.3054668359849 692.9911981189713 861.3054668359849 695.7526218681253 Z" fill-opacity="1"/><path fill="none" stroke="rgb(0,0,0)" paint-order="fill stroke markers" d=" M 861.3054668359849 695.7526218681253 C 861.3054668359849 698.5140456172793 859.0668905851389 700.7526218681253 856.3054668359849 700.7526218681253 C 853.5440430868309 700.7526218681253 851.3054668359849 698.5140456172793 851.3054668359849 695.7526218681253 C 851.3054668359849 692.9911981189713 853.5440430868309 690.7526218681253 856.3054668359849 690.7526218681253 C 859.0668905851389 690.7526218681253 861.3054668359849 692.9911981189713 861.3054668359849 695.7526218681253 Z" stroke-opacity="1" stroke-linecap="round" stroke-linejoin="round" stroke-miterlimit="10"/><path fill="rgb(77,77,255)" stroke="none" paint-order="stroke fill markers" d=" M 22.731340251729762 128.87042573821174 C 22.731340251729762 131.6318494873657 20.492764000883728 133.87042573821174 17.731340251729762 133.87042573821174 C 14.969916502575796 133.87042573821174 12.731340251729762 131.6318494873657 12.731340251729762 128.87042573821174 C 12.731340251729762 126.10900198905777 14.969916502575796 123.87042573821174 17.731340251729762 123.87042573821174 C 20.492764000883728 123.87042573821174 22.731340251729762 126.10900198905777 22.731340251729762 128.87042573821174 Z" fill-opacity="1"/><path fill="none" stroke="rgb(0,0,0)" paint-order="fill stroke markers" d=" M 22.731340251729762 128.87042573821174 C 22.731340251729762 131.6318494873657 20.492764000883728 133.87042573821174 17.731340251729762 133.87042573821174 C 14.969916502575796 133.87042573821174 12.731340251729762 131.6318494873657 12.731340251729762 128.87042573821174 C 12.731340251729762 126.10900198905777 14.969916502575796 123.87042573821174 17.731340251729762 123.87042573821174 C 20.492764000883728 123.87042573821174 22.731340251729762 126.10900198905777 22.731340251729762 128.87042573821174 Z" stroke-opacity="1" stroke-linecap="round" stroke-linejoin="round" stroke-miterlimit="10"/><path fill="rgb(77,77,255)" stroke="none" paint-order="stroke fill markers" d=" M 1699.87959342024 847.6482485247168 C 1699.87959342024 850.4096722738708 1697.641017169394 852.6482485247168 1694.87959342024 852.6482485247168 C 1692.1181696710862 852.6482485247168 1689.87959342024 850.4096722738708 1689.87959342024 847.6482485247168 C 1689.87959342024 844.8868247755628 1692.1181696710862 842.6482485247168 1694.87959342024 842.6482485247168 C 1697.641017169394 842.6482485247168 1699.87959342024 844.8868247755628 1699.87959342024 847.6482485247168 Z" fill-opacity="1"/><path fill="none" stroke="rgb(0,0,0)" paint-order="fill stroke markers" d=" M 1699.87959342024 847.6482485247168 C 1699.87959342024 850.4096722738708 1697.641017169394 852.6482485247168 1694.87959342024 852.6482485247168 C 1692.1181696710862 852.6482485247168 1689.87959342024 850.4096722738708 1689.87959342024 847.6482485247168 C 1689.87959342024 844.8868247755628 1692.1181696710862 842.6482485247168 1694.87959342024 842.6482485247168 C 1697.641017169394 842.6482485247168 1699.87959342024 844.8868247755628 1699.87959342024 847.6482485247168 Z" stroke-opacity="1" stroke-linecap="round" stroke-linejoin="round" stroke-miterlimit="10"/></g></g></svg>