<?xml version="1.0" encoding="UTF-8" standalone="no"?>
<!-- Created with Inkscape (http://www.inkscape.org/) -->

<svg
   xmlns:dc="http://purl.org/dc/elements/1.1/"
   xmlns:cc="http://creativecommons.org/ns#"
   xmlns:rdf="http://www.w3.org/1999/02/22-rdf-syntax-ns#"
   xmlns:svg="http://www.w3.org/2000/svg"
   xmlns="http://www.w3.org/2000/svg"
   xmlns:sodipodi="http://sodipodi.sourceforge.net/DTD/sodipodi-0.dtd"
   xmlns:inkscape="http://www.inkscape.org/namespaces/inkscape"
   width="224.92363mm"
   height="76.869774mm"
   viewBox="0 0 224.92363 76.869773"
   version="1.1"
   id="svg8"
   inkscape:version="0.92.2 (5c3e80d, 2017-08-06)"
   sodipodi:docname="concave_convex_mirrors.svg">
  <defs
     id="defs2" />
  <sodipodi:namedview
     id="base"
     pagecolor="#ffffff"
     bordercolor="#666666"
     borderopacity="1.0"
     inkscape:pageopacity="0.0"
     inkscape:pageshadow="2"
     inkscape:zoom="1.4"
     inkscape:cx="273.8204"
     inkscape:cy="237.69869"
     inkscape:document-units="mm"
     inkscape:current-layer="layer1"
     showgrid="false"
     inkscape:snap-nodes="false"
     inkscape:snap-global="false"
     inkscape:measure-start="689.107,137.679"
     inkscape:measure-end="752.857,137.857"
     inkscape:window-width="1920"
     inkscape:window-height="1017"
     inkscape:window-x="-8"
     inkscape:window-y="-8"
     inkscape:window-maximized="1">
    <inkscape:grid
       type="xygrid"
       id="grid815"
       originx="-50.459836"
       originy="-164.15135" />
  </sodipodi:namedview>
  <metadata
     id="metadata5">
    <rdf:RDF>
      <cc:Work
         rdf:about="">
        <dc:format>image/svg+xml</dc:format>
        <dc:type
           rdf:resource="http://purl.org/dc/dcmitype/StillImage" />
        <dc:title />
      </cc:Work>
    </rdf:RDF>
  </metadata>
  <g
     inkscape:label="Layer 1"
     inkscape:groupmode="layer"
     id="layer1"
     transform="translate(-50.459831,-55.978878)">
    <path
       style="fill:none;stroke:#ff0000;stroke-width:0.5;stroke-linecap:butt;stroke-linejoin:miter;stroke-miterlimit:4;stroke-dasharray:none;stroke-opacity:1"
       d="M 211.01343,75.995726 200.61907,66.971545"
       id="path892"
       inkscape:connector-curvature="0"
       sodipodi:nodetypes="cc" />
    <path
       style="fill:none;stroke:#ff0000;stroke-width:0.5;stroke-linecap:butt;stroke-linejoin:miter;stroke-miterlimit:4;stroke-dasharray:none;stroke-opacity:1"
       d="m 210.90641,102.58212 -10.39436,9.02419"
       id="path892-2"
       inkscape:connector-curvature="0"
       sodipodi:nodetypes="cc" />
    <path
       style="opacity:1;fill:none;stroke:#ff0000;stroke-width:0.5;stroke-linecap:butt;stroke-linejoin:miter;stroke-miterlimit:4;stroke-dasharray:2.00000002, 2.00000002;stroke-dashoffset:0;stroke-opacity:0.39215686"
       d="M 225.16675,89.261988 210.89814,102.58566"
       id="path890-4"
       inkscape:connector-curvature="0" />
    <path
       style="opacity:1;fill:none;stroke:#ff0000;stroke-width:0.5;stroke-linecap:butt;stroke-linejoin:miter;stroke-miterlimit:4;stroke-dasharray:2, 2;stroke-dashoffset:0;stroke-opacity:0.39215686"
       d="M 225.27377,89.315842 211.00516,75.992182"
       id="path890"
       inkscape:connector-curvature="0" />
    <circle
       style="opacity:0.95;fill:none;fill-opacity:1;stroke:#adadad;stroke-width:0.5;stroke-linecap:butt;stroke-linejoin:round;stroke-miterlimit:4;stroke-dasharray:1.50000004, 1.50000004;stroke-dashoffset:0;stroke-opacity:0.39215686;paint-order:fill markers stroke"
       id="path856"
       cx="92.037201"
       cy="89.491066"
       r="33.261906" />
    <path
       style="fill:none;stroke:#000000;stroke-width:0.5;stroke-linecap:butt;stroke-linejoin:miter;stroke-miterlimit:4;stroke-dasharray:none;stroke-opacity:1"
       d="M 50.459831,89.302083 H 133.61458"
       id="path817"
       inkscape:connector-curvature="0"
       sodipodi:nodetypes="cc" />
    <path
       style="fill:none;stroke:#fd0000;stroke-width:0.5;stroke-linecap:butt;stroke-linejoin:miter;stroke-miterlimit:4;stroke-dasharray:none;stroke-opacity:1"
       d="M 66.149209,76.034918 122.27581,76.101735 86.060787,111.7154"
       id="path864"
       inkscape:connector-curvature="0" />
    <path
       style="fill:none;stroke:#ff0000;stroke-width:0.5;stroke-linecap:butt;stroke-linejoin:miter;stroke-miterlimit:4;stroke-dasharray:none;stroke-opacity:1"
       d="M 66.182296,102.57227 122.30898,102.50547 86.093874,66.891852"
       id="path864-0"
       inkscape:connector-curvature="0" />
    <circle
       style="opacity:1;fill:#ffeeaa;fill-opacity:1;stroke:#100000;stroke-width:0.5;stroke-linecap:butt;stroke-linejoin:round;stroke-miterlimit:4;stroke-dasharray:none;stroke-opacity:1;paint-order:fill markers stroke"
       id="path881"
       cx="108.7954"
       cy="89.281464"
       r="1.2027128" />
    <circle
       style="opacity:1;fill:#ffeeaa;fill-opacity:1;stroke:#100000;stroke-width:0.5;stroke-linecap:butt;stroke-linejoin:round;stroke-miterlimit:4;stroke-dasharray:none;stroke-opacity:1;paint-order:fill markers stroke"
       id="path881-6"
       cx="92.040947"
       cy="89.298172"
       r="1.2027128" />
    <g
       aria-label="C"
       style="font-style:normal;font-variant:normal;font-weight:normal;font-stretch:normal;font-size:4.23333311px;line-height:1.25;font-family:'Calisto MT';-inkscape-font-specification:'Calisto MT';letter-spacing:0px;word-spacing:0px;fill:#000000;fill-opacity:1;stroke:none;stroke-width:0.26458332"
       id="text900">
      <path
         d="m 93.254409,94.46854 0.08682,0.157096 q -0.332797,0.208773 -0.638721,0.307992 -0.305925,0.09922 -0.63252,0.09922 -0.415478,0 -0.754476,-0.188103 -0.338997,-0.190169 -0.514697,-0.535367 -0.173633,-0.347266 -0.173633,-0.768946 0,-0.68833 0.448552,-1.126546 0.450618,-0.438216 1.190625,-0.438216 0.454752,0 1.012858,0.186035 -0.0041,0.181901 -0.0041,0.272852 0,0.264583 0.03101,0.556038 h -0.173633 q -0.07648,-0.361735 -0.163298,-0.498161 -0.08682,-0.136425 -0.28112,-0.217041 -0.194303,-0.08268 -0.479557,-0.08268 -0.599446,0 -0.903304,0.425814 -0.235644,0.332796 -0.235644,0.835091 0,0.599446 0.330729,0.946712 0.332796,0.345199 0.870231,0.345199 0.23151,0 0.450618,-0.05994 0.219108,-0.05994 0.533301,-0.217041 z"
         style="font-style:normal;font-variant:normal;font-weight:normal;font-stretch:normal;font-size:4.23333311px;font-family:'Calisto MT';-inkscape-font-specification:'Calisto MT';stroke-width:0.26458332"
         id="path11586" />
    </g>
    <g
       aria-label="F"
       style="font-style:normal;font-variant:normal;font-weight:normal;font-stretch:normal;font-size:4.23333311px;line-height:1.25;font-family:'Calisto MT';-inkscape-font-specification:'Calisto MT';letter-spacing:0px;word-spacing:0px;fill:#000000;fill-opacity:1;stroke:none;stroke-width:0.26458332"
       id="text900-9">
      <path
         d="M 107.62681,92.044326 V 91.92237 q 0.48162,0.02274 1.0604,0.02274 0.60771,0 1.33325,-0.02274 l 0.0455,0.775146 h -0.14263 q -0.0868,-0.328662 -0.13022,-0.419612 -0.0289,-0.06201 -0.093,-0.08888 -0.062,-0.02894 -0.28112,-0.02894 h -0.90124 q -0.0124,0.272851 -0.0207,1.054199 h 0.56637 q 0.1633,0 0.21084,-0.0186 0.0496,-0.0186 0.0806,-0.07235 0.0331,-0.05374 0.0724,-0.243912 0.006,-0.03514 0.0227,-0.103353 h 0.1385 q -0.0186,0.432015 -0.0186,0.562239 0,0.04134 0.0186,0.5271 h -0.1385 q -0.0103,-0.05788 -0.0145,-0.08682 -0.0434,-0.26665 -0.0971,-0.316259 -0.0537,-0.04961 -0.27698,-0.04961 h -0.56431 q -0.002,0.206706 -0.002,0.276986 0,0.824756 0.0124,0.886767 0.008,0.04134 0.0455,0.06201 0.0475,0.02894 0.46922,0.09509 v 0.121956 q -0.46715,-0.02274 -0.67179,-0.02274 l -0.72347,0.02274 v -0.121956 q 0.0827,-0.01654 0.12402,-0.02274 0.25012,-0.03721 0.29559,-0.08268 0.0475,-0.04547 0.0475,-0.190169 l 0.0124,-0.589112 q 0.002,-0.136425 0.002,-0.520898 0,-0.936377 -0.008,-1.058333 -0.006,-0.08062 -0.0414,-0.109554 -0.0455,-0.03927 -0.32039,-0.09302 -0.0372,-0.0062 -0.11162,-0.02274 z"
         style="font-style:normal;font-variant:normal;font-weight:normal;font-stretch:normal;font-size:4.23333311px;font-family:'Calisto MT';-inkscape-font-specification:'Calisto MT';stroke-width:0.26458332"
         id="path11589" />
    </g>
    <g
       transform="rotate(134.70889,112.65251,117.74963)"
       id="g1752-6-9-7">
      <path
         sodipodi:nodetypes="cccc"
         inkscape:connector-curvature="0"
         id="path1740-4-3-5"
         d="m 95.185273,178.69304 1.322917,-6.61458 h -2.645834 z"
         style="fill:#fc0000;fill-opacity:1;stroke:none;stroke-width:0.5;stroke-linecap:butt;stroke-linejoin:miter;stroke-miterlimit:4;stroke-dasharray:none;stroke-opacity:1" />
      <path
         sodipodi:nodetypes="cccc"
         inkscape:connector-curvature="0"
         id="path1740-4-3-5-6"
         d="m 133.34351,140.98614 -6.62768,1.25563 0.0269,-2.6457 z"
         style="fill:#fc0000;fill-opacity:1;stroke:none;stroke-width:0.5;stroke-linecap:butt;stroke-linejoin:miter;stroke-miterlimit:4;stroke-dasharray:none;stroke-opacity:1" />
    </g>
    <path
       sodipodi:nodetypes="cccc"
       inkscape:connector-curvature="0"
       id="path1740-4-3-5-5"
       d="m 122.00822,102.50683 -6.6152,-1.31976 10e-4,2.64583 z"
       style="fill:#fc0000;fill-opacity:1;stroke:none;stroke-width:0.5;stroke-linecap:butt;stroke-linejoin:miter;stroke-miterlimit:4;stroke-dasharray:none;stroke-opacity:1" />
    <path
       sodipodi:nodetypes="cccc"
       inkscape:connector-curvature="0"
       id="path1740-4-3-5-5-3"
       d="m 121.99198,76.048467 -6.6152,-1.31976 0.001,2.64583 z"
       style="fill:#fc0000;fill-opacity:1;stroke:none;stroke-width:0.5;stroke-linecap:butt;stroke-linejoin:miter;stroke-miterlimit:4;stroke-dasharray:none;stroke-opacity:1" />
    <path
       style="fill:none;stroke:#646464;stroke-width:1;stroke-linecap:butt;stroke-linejoin:miter;stroke-miterlimit:4;stroke-dasharray:none;stroke-opacity:1"
       d="m 108.80375,60.792201 c 1.36969,0.915605 2.3718,1.548883 3.45859,2.375395 1.83798,1.397798 3.72826,3.241008 5.00122,4.682878 2.63326,2.982665 4.38294,6.359764 5.63275,9.333859 4.02803,9.585183 2.32107,18.838344 -0.23545,25.326627 -0.76709,1.94683 -2.39176,4.98488 -4.83818,7.95438 -2.38783,2.89838 -5.56404,5.72751 -9.04398,7.73134"
       id="path1668"
       inkscape:connector-curvature="0"
       sodipodi:nodetypes="csssssc" />
    <circle
       style="opacity:1;fill:none;fill-opacity:1;stroke:#adadad;stroke-width:0.5;stroke-linecap:butt;stroke-linejoin:round;stroke-miterlimit:4;stroke-dasharray:1.50000006, 1.50000006;stroke-dashoffset:0;stroke-opacity:0.39215686;paint-order:fill markers stroke"
       id="path856-7"
       cx="241.87155"
       cy="89.490784"
       r="33.261906" />
    <path
       style="fill:none;stroke:#000000;stroke-width:0.5;stroke-linecap:butt;stroke-linejoin:miter;stroke-miterlimit:4;stroke-dasharray:none;stroke-opacity:1"
       d="m 169.60426,89.301439 h 83.15475"
       id="path817-1"
       inkscape:connector-curvature="0"
       sodipodi:nodetypes="cc" />
    <path
       style="fill:none;stroke:#fd0000;stroke-width:0.5;stroke-linecap:butt;stroke-linejoin:miter;stroke-miterlimit:4;stroke-dasharray:none;stroke-opacity:1"
       d="m 209.75061,76.034344 -40.2516,0.0668"
       id="path864-06"
       inkscape:connector-curvature="0"
       sodipodi:nodetypes="cc" />
    <path
       style="fill:none;stroke:#ff0000;stroke-width:0.5;stroke-linecap:butt;stroke-linejoin:miter;stroke-miterlimit:4;stroke-dasharray:none;stroke-opacity:1"
       d="m 207.13793,102.57156 -37.57898,-0.0668"
       id="path864-0-4"
       inkscape:connector-curvature="0"
       sodipodi:nodetypes="cc" />
    <circle
       style="opacity:1;fill:#ffeeaa;fill-opacity:1;stroke:#100000;stroke-width:0.5;stroke-linecap:butt;stroke-linejoin:round;stroke-miterlimit:4;stroke-dasharray:none;stroke-opacity:1;paint-order:fill markers stroke"
       id="path881-3"
       cx="225.29271"
       cy="89.281174"
       r="1.2027128" />
    <circle
       style="opacity:1;fill:#ffeeaa;fill-opacity:1;stroke:#100000;stroke-width:0.5;stroke-linecap:butt;stroke-linejoin:round;stroke-miterlimit:4;stroke-dasharray:none;stroke-opacity:1;paint-order:fill markers stroke"
       id="path881-6-3"
       cx="241.87531"
       cy="89.297844"
       r="1.2027128" />
    <g
       aria-label="C"
       style="font-style:normal;font-variant:normal;font-weight:normal;font-stretch:normal;font-size:4.23333311px;line-height:1.25;font-family:'Calisto MT';-inkscape-font-specification:'Calisto MT';letter-spacing:0px;word-spacing:0px;fill:#000000;fill-opacity:1;stroke:none;stroke-width:0.26458332"
       id="text900-4">
      <path
         d="m 243.08877,94.468319 0.0868,0.157096 q -0.33279,0.208773 -0.63872,0.307992 -0.30592,0.09922 -0.63252,0.09922 -0.41547,0 -0.75447,-0.188102 -0.339,-0.190169 -0.5147,-0.535368 -0.17363,-0.347265 -0.17363,-0.768945 0,-0.68833 0.44855,-1.126546 0.45062,-0.438216 1.19062,-0.438216 0.45476,0 1.01286,0.186035 -0.004,0.181901 -0.004,0.272851 0,0.264584 0.031,0.556039 h -0.17363 q -0.0765,-0.361735 -0.1633,-0.498161 -0.0868,-0.136426 -0.28112,-0.217041 -0.1943,-0.08268 -0.47955,-0.08268 -0.59945,0 -0.90331,0.425814 -0.23564,0.332796 -0.23564,0.835091 0,0.599446 0.33073,0.946712 0.33279,0.345198 0.87023,0.345198 0.23151,0 0.45062,-0.05994 0.2191,-0.05994 0.5333,-0.217041 z"
         style="font-style:normal;font-variant:normal;font-weight:normal;font-stretch:normal;font-size:4.23333311px;font-family:'Calisto MT';-inkscape-font-specification:'Calisto MT';stroke-width:0.26458332"
         id="path11601" />
    </g>
    <g
       aria-label="F"
       style="font-style:normal;font-variant:normal;font-weight:normal;font-stretch:normal;font-size:4.23333311px;line-height:1.25;font-family:'Calisto MT';-inkscape-font-specification:'Calisto MT';letter-spacing:0px;word-spacing:0px;fill:#000000;fill-opacity:1;stroke:none;stroke-width:0.26458332"
       id="text900-9-8">
      <path
         d="m 224.12411,92.044082 v -0.121956 q 0.48162,0.02274 1.0604,0.02274 0.60771,0 1.33325,-0.02274 l 0.0455,0.775146 h -0.14263 q -0.0868,-0.328662 -0.13023,-0.419612 -0.0289,-0.06201 -0.093,-0.08888 -0.062,-0.02894 -0.28112,-0.02894 h -0.90124 q -0.0124,0.272852 -0.0207,1.0542 h 0.56637 q 0.1633,0 0.21084,-0.0186 0.0496,-0.0186 0.0806,-0.07235 0.0331,-0.05374 0.0724,-0.243913 0.006,-0.03514 0.0227,-0.103352 h 0.1385 q -0.0186,0.432014 -0.0186,0.562239 0,0.04134 0.0186,0.5271 h -0.1385 q -0.0103,-0.05788 -0.0145,-0.08682 -0.0434,-0.26665 -0.0971,-0.316259 -0.0537,-0.04961 -0.27698,-0.04961 h -0.56431 q -0.002,0.206706 -0.002,0.276986 0,0.824756 0.0124,0.886767 0.008,0.04134 0.0455,0.06201 0.0475,0.02894 0.46922,0.09508 v 0.121956 q -0.46715,-0.02274 -0.67179,-0.02274 l -0.72347,0.02274 v -0.121956 q 0.0827,-0.01654 0.12402,-0.02274 0.25012,-0.03721 0.29559,-0.08268 0.0475,-0.04547 0.0475,-0.19017 l 0.0124,-0.589111 q 0.002,-0.136426 0.002,-0.520898 0,-0.936377 -0.008,-1.058333 -0.006,-0.08062 -0.0413,-0.109555 -0.0455,-0.03927 -0.32039,-0.09302 -0.0372,-0.0062 -0.11162,-0.02274 z"
         style="font-style:normal;font-variant:normal;font-weight:normal;font-stretch:normal;font-size:4.23333311px;font-family:'Calisto MT';-inkscape-font-specification:'Calisto MT';stroke-width:0.26458332"
         id="path11598" />
    </g>
    <g
       transform="rotate(134.70889,169.84275,141.60903)"
       id="g1752-6-9-7-7">
      <path
         sodipodi:nodetypes="cccc"
         inkscape:connector-curvature="0"
         id="path1740-4-3-5-9"
         d="m 95.185273,178.69304 1.322917,-6.61458 h -2.645834 z"
         style="fill:#fc0000;fill-opacity:1;stroke:none;stroke-width:0.5;stroke-linecap:butt;stroke-linejoin:miter;stroke-miterlimit:4;stroke-dasharray:none;stroke-opacity:1" />
      <path
         sodipodi:nodetypes="cccc"
         inkscape:connector-curvature="0"
         id="path1740-4-3-5-6-9"
         d="m 133.34351,140.98614 -6.62768,1.25563 0.0269,-2.6457 z"
         style="fill:#fc0000;fill-opacity:1;stroke:none;stroke-width:0.5;stroke-linecap:butt;stroke-linejoin:miter;stroke-miterlimit:4;stroke-dasharray:none;stroke-opacity:1" />
    </g>
    <path
       sodipodi:nodetypes="cccc"
       inkscape:connector-curvature="0"
       id="path1740-4-3-5-5-1"
       d="m 210.98996,102.50612 -6.6152,-1.31976 0.001,2.64583 z"
       style="fill:#fc0000;fill-opacity:1;stroke:none;stroke-width:0.5;stroke-linecap:butt;stroke-linejoin:miter;stroke-miterlimit:4;stroke-dasharray:none;stroke-opacity:1" />
    <path
       sodipodi:nodetypes="cccc"
       inkscape:connector-curvature="0"
       id="path1740-4-3-5-5-3-9"
       d="m 210.97372,76.047894 -6.6152,-1.319751 0.001,2.645815 z"
       style="fill:#fc0000;fill-opacity:1;stroke:none;stroke-width:0.5;stroke-linecap:butt;stroke-linejoin:miter;stroke-miterlimit:4;stroke-dasharray:none;stroke-opacity:1" />
    <path
       style="fill:none;stroke:#646464;stroke-width:1;stroke-linecap:butt;stroke-linejoin:miter;stroke-miterlimit:4;stroke-dasharray:none;stroke-opacity:1"
       d="m 225.08644,60.791721 c -1.36969,0.915594 -2.3718,1.548871 -3.45859,2.375378 -1.83798,1.397791 -3.72826,3.240992 -5.00122,4.682853 -2.63326,2.982652 -4.38294,6.359724 -5.63275,9.333806 -4.02803,9.585126 -2.32107,18.838235 0.23545,25.326492 0.76709,1.94683 2.39176,4.98488 4.83818,7.95438 2.38783,2.89838 5.56404,5.72751 9.04398,7.73134"
       id="path1668-4"
       inkscape:connector-curvature="0"
       sodipodi:nodetypes="csssssc" />
    <g
       aria-label="Concave"
       style="font-style:normal;font-variant:normal;font-weight:normal;font-stretch:normal;font-size:8.46666622px;line-height:1.25;font-family:'Calisto MT';-inkscape-font-specification:'Calisto MT';letter-spacing:0px;word-spacing:0px;fill:#000000;fill-opacity:1;stroke:none;stroke-width:0.26458332"
       id="text914">
      <path
         d="m 82.565375,130.51052 0.173633,0.31419 q -0.665593,0.41755 -1.277442,0.61599 -0.611848,0.19843 -1.265039,0.19843 -0.830957,0 -1.508951,-0.3762 -0.677995,-0.38034 -1.029395,-1.07074 -0.347265,-0.69453 -0.347265,-1.53789 0,-1.37666 0.897102,-2.25309 0.901237,-0.87643 2.38125,-0.87643 0.909505,0 2.025716,0.37207 -0.0083,0.3638 -0.0083,0.5457 0,0.52917 0.06201,1.11208 h -0.347266 q -0.152962,-0.72347 -0.326595,-0.99632 -0.173633,-0.27285 -0.562239,-0.43408 -0.388607,-0.16537 -0.959115,-0.16537 -1.198893,0 -1.806608,0.85163 -0.471289,0.66559 -0.471289,1.67018 0,1.19889 0.661458,1.89342 0.665593,0.6904 1.740463,0.6904 0.46302,0 0.901236,-0.11989 0.438217,-0.11989 1.066602,-0.43408 z"
         style="font-style:normal;font-variant:normal;font-weight:normal;font-stretch:normal;font-size:8.46666622px;font-family:'Calisto MT';-inkscape-font-specification:'Calisto MT';stroke-width:0.26458332"
         id="path11558" />
      <path
         d="m 83.321918,129.58448 q 0,-1.00046 0.566374,-1.58337 0.566373,-0.58291 1.488281,-0.58291 0.872298,0 1.380794,0.52504 0.51263,0.52503 0.51263,1.46761 0,1.01699 -0.574642,1.6123 -0.570508,0.59118 -1.480013,0.59118 -0.880566,0 -1.389062,-0.52917 -0.504362,-0.52916 -0.504362,-1.50068 z m 0.79375,-0.35967 q 0,0.678 0.08682,1.00046 0.136426,0.52089 0.429948,0.78548 0.297656,0.26045 0.690397,0.26045 0.508496,0 0.835091,-0.38448 0.326595,-0.3886 0.326595,-1.24436 0,-0.95912 -0.37207,-1.418 -0.367936,-0.46303 -0.868164,-0.46303 -0.496094,0 -0.81442,0.36381 -0.314193,0.35966 -0.314193,1.09967 z"
         style="font-style:normal;font-variant:normal;font-weight:normal;font-stretch:normal;font-size:8.46666622px;font-family:'Calisto MT';-inkscape-font-specification:'Calisto MT';stroke-width:0.26458332"
         id="path11560" />
      <path
         d="m 87.716481,128.22436 v -0.23978 q 0.744141,-0.17364 1.347722,-0.52504 l 0.111621,0.0703 q -0.05788,0.3514 -0.07028,0.72347 l 0.525032,-0.52089 q 0.132292,-0.11576 0.310059,-0.18191 0.243913,-0.0909 0.508496,-0.0909 0.591178,0 0.892969,0.39274 0.202571,0.26045 0.202571,0.89711 l -0.0124,1.00045 q 0,1.00459 0.02481,1.18649 0.02067,0.12403 0.07855,0.17364 0.05788,0.0496 0.392741,0.12815 0.06201,0.0165 0.186035,0.0455 v 0.23151 q -0.487826,-0.0455 -0.868164,-0.0455 -0.330729,0 -1.132748,0.0455 v -0.23151 q 0.479558,-0.14056 0.537435,-0.19017 0.06201,-0.0496 0.07441,-0.16123 0.04548,-0.40928 0.04548,-1.25264 0,-0.90123 -0.03721,-1.08727 -0.05788,-0.27285 -0.243913,-0.42168 -0.186035,-0.14883 -0.446485,-0.14883 -0.272851,0 -0.537434,0.16123 -0.264584,0.1571 -0.392741,0.42582 -0.124024,0.26872 -0.124024,0.79375 0,1.48828 0.06201,1.6123 0.06201,0.11989 0.483691,0.22738 0.05374,0.0124 0.157097,0.0413 v 0.23151 q -0.553972,-0.0455 -0.930176,-0.0455 -0.363802,0 -1.083138,0.0455 v -0.23151 q 0.487826,-0.11576 0.553971,-0.1695 0.04134,-0.0331 0.05788,-0.17363 0.04547,-0.39274 0.04547,-1.07074 0,-1.40146 -0.02894,-1.52135 -0.04548,-0.17363 -0.243912,-0.17363 -0.09095,0 -0.285254,0.0289 -0.05374,0.008 -0.161231,0.0207 z"
         style="font-style:normal;font-variant:normal;font-weight:normal;font-stretch:normal;font-size:8.46666622px;font-family:'Calisto MT';-inkscape-font-specification:'Calisto MT';stroke-width:0.26458332"
         id="path11562" />
      <path
         d="m 95.666384,128.84861 -0.276986,-0.0207 q -0.01654,-0.5209 -0.264583,-0.76895 -0.243913,-0.25218 -0.669727,-0.25218 -0.305924,0 -0.587044,0.1695 -0.28112,0.16536 -0.44235,0.5457 -0.157096,0.37621 -0.157096,0.85576 0,0.76895 0.37207,1.20303 0.376204,0.42995 0.868164,0.42995 0.516764,0 1.244368,-0.40928 l 0.152963,0.24805 q -0.649056,0.47956 -1.079004,0.67386 -0.206706,0.0909 -0.504362,0.0909 -0.72347,0 -1.169955,-0.42168 -0.591178,-0.55811 -0.591178,-1.51309 0,-0.98805 0.620117,-1.6247 0.620117,-0.63666 1.529623,-0.63666 0.620117,0 1.194759,0.31833 -0.02894,0.14056 -0.08268,0.3638 -0.07028,0.29352 -0.157096,0.74828 z"
         style="font-style:normal;font-variant:normal;font-weight:normal;font-stretch:normal;font-size:8.46666622px;font-family:'Calisto MT';-inkscape-font-specification:'Calisto MT';stroke-width:0.26458332"
         id="path11564" />
      <path
         d="m 96.923154,128.70805 -0.268717,-0.0289 q 0.08268,-0.42995 0.115755,-0.85576 0.806152,-0.36381 1.455208,-0.36381 0.28112,0 0.508496,0.0827 0.227377,0.0785 0.359668,0.22324 0.132292,0.14056 0.198438,0.339 0.07028,0.19843 0.07028,0.63252 l -0.03721,1.70738 q 0,0.34727 0.07855,0.45476 0.07855,0.10748 0.202572,0.10748 0.148828,0 0.467155,-0.22324 l 0.12816,0.1695 q -0.582913,0.5209 -0.636657,0.55397 -0.115755,0.0661 -0.289388,0.0661 -0.268717,0 -0.417545,-0.13229 -0.144694,-0.13643 -0.194304,-0.45476 -0.496093,0.38448 -0.735872,0.4837 -0.239779,0.10335 -0.520898,0.10335 -0.458887,0 -0.740007,-0.27699 -0.28112,-0.28112 -0.28112,-0.7152 0,-0.26458 0.09922,-0.47542 0.09922,-0.21498 0.285254,-0.37621 0.144694,-0.11989 0.487826,-0.28939 0.806152,-0.39274 1.405598,-0.63251 -0.02067,-0.58291 -0.194303,-0.77308 -0.173633,-0.19017 -0.533301,-0.19017 -0.338997,0 -0.58291,0.21084 -0.239778,0.2067 -0.429948,0.65319 z m 1.740462,0.45888 q -1.079003,0.48369 -1.30638,0.70694 -0.223242,0.2191 -0.223242,0.52916 0,0.31006 0.169499,0.4961 0.169498,0.18603 0.396875,0.18603 0.235644,0 0.508496,-0.15296 0.276986,-0.1571 0.363802,-0.3514 0.09095,-0.1943 0.09095,-0.70693 z"
         style="font-style:normal;font-variant:normal;font-weight:normal;font-stretch:normal;font-size:8.46666622px;font-family:'Calisto MT';-inkscape-font-specification:'Calisto MT';stroke-width:0.26458332"
         id="path11566" />
      <path
         d="m 99.928655,127.79027 v -0.23151 q 0.508495,0.0455 0.868165,0.0455 0.33486,0 0.98392,-0.0455 v 0.23151 q -0.062,0.0124 -0.0951,0.0165 -0.26871,0.0455 -0.32659,0.0951 -0.0579,0.0496 -0.0579,0.11989 v 0.0413 q 0.008,0.0372 0.0579,0.17777 0.23564,0.6904 0.34726,0.97152 l 0.49196,1.24437 q 0.13643,-0.33073 0.55397,-1.42214 0.26045,-0.67799 0.28526,-0.79375 0.0289,-0.11989 0.0289,-0.2067 0,-0.0744 -0.0372,-0.11576 -0.0537,-0.0579 -0.19844,-0.0951 -0.0413,-0.0124 -0.11575,-0.0331 v -0.23151 l 0.16123,0.0124 q 0.46302,0.0331 0.67799,0.0331 0.20671,0 0.54157,-0.0455 v 0.23151 q -0.40101,0.11989 -0.50023,0.28112 -0.13229,0.21911 -1.42213,3.54294 h -0.24805 q -1.04593,-2.68718 -1.36426,-3.3569 -0.10748,-0.22738 -0.21497,-0.31006 -0.0785,-0.062 -0.417545,-0.1571 z"
         style="font-style:normal;font-variant:normal;font-weight:normal;font-stretch:normal;font-size:8.46666622px;font-family:'Calisto MT';-inkscape-font-specification:'Calisto MT';stroke-width:0.26458332"
         id="path11568" />
      <path
         d="m 107.35766,130.51465 0.1571,0.24392 -0.82269,0.60771 q -0.1695,0.11576 -0.3514,0.1695 -0.26459,0.0786 -0.54157,0.0786 -0.67386,0 -1.15342,-0.54157 -0.47542,-0.54157 -0.47542,-1.46348 0,-0.99218 0.5705,-1.59163 0.57465,-0.59945 1.40147,-0.59945 0.64079,0 0.98805,0.35554 0.3514,0.3514 0.35967,1.079 -0.17363,0.0992 -0.31833,0.24391 -0.29352,-0.004 -0.36793,-0.004 -1.09554,0 -1.90583,0.0331 -0.004,0.92604 0.31419,1.40147 0.31833,0.47955 0.85163,0.47955 0.26872,0 0.56224,-0.10335 0.29352,-0.10749 0.73174,-0.38861 z m -0.60358,-1.81074 q -0.0248,-0.40927 -0.1819,-0.62011 -0.23151,-0.31006 -0.62425,-0.31006 -0.339,0 -0.60358,0.23564 -0.26459,0.23151 -0.39275,0.76895 0.15297,0.004 0.23151,0.004 0.678,0 1.57097,-0.0785 z"
         style="font-style:normal;font-variant:normal;font-weight:normal;font-stretch:normal;font-size:8.46666622px;font-family:'Calisto MT';-inkscape-font-specification:'Calisto MT';stroke-width:0.26458332"
         id="path11570" />
    </g>
    <g
       aria-label="Convex"
       style="font-style:normal;font-variant:normal;font-weight:normal;font-stretch:normal;font-size:8.46666622px;line-height:1.25;font-family:'Calisto MT';-inkscape-font-specification:'Calisto MT';letter-spacing:0px;word-spacing:0px;fill:#000000;fill-opacity:1;stroke:none;stroke-width:0.26458332"
       id="text914-7">
      <path
         d="m 203.85936,130.29888 0.17363,0.31419 q -0.66559,0.41755 -1.27744,0.61599 -0.61185,0.19843 -1.26504,0.19843 -0.83096,0 -1.50895,-0.3762 -0.678,-0.38034 -1.0294,-1.07074 -0.34726,-0.69453 -0.34726,-1.53789 0,-1.37666 0.8971,-2.25309 0.90124,-0.87643 2.38125,-0.87643 0.90951,0 2.02572,0.37207 -0.008,0.3638 -0.008,0.5457 0,0.52917 0.062,1.11208 h -0.34726 q -0.15297,-0.72347 -0.3266,-0.99632 -0.17363,-0.27285 -0.56224,-0.43408 -0.38861,-0.16537 -0.95911,-0.16537 -1.1989,0 -1.80661,0.85163 -0.47129,0.66559 -0.47129,1.67018 0,1.19889 0.66146,1.89343 0.66559,0.69039 1.74046,0.69039 0.46302,0 0.90124,-0.11989 0.43821,-0.11989 1.0666,-0.43408 z"
         style="font-style:normal;font-variant:normal;font-weight:normal;font-stretch:normal;font-size:8.46666622px;font-family:'Calisto MT';-inkscape-font-specification:'Calisto MT';stroke-width:0.26458332"
         id="path11573" />
      <path
         d="m 204.6159,129.37284 q 0,-1.00046 0.56637,-1.58337 0.56638,-0.58291 1.48829,-0.58291 0.87229,0 1.38079,0.52504 0.51263,0.52503 0.51263,1.46761 0,1.01699 -0.57464,1.6123 -0.57051,0.59118 -1.48001,0.59118 -0.88057,0 -1.38907,-0.52917 -0.50436,-0.52916 -0.50436,-1.50068 z m 0.79375,-0.35967 q 0,0.678 0.0868,1.00046 0.13642,0.5209 0.42995,0.78548 0.29765,0.26045 0.69039,0.26045 0.5085,0 0.83509,-0.38447 0.3266,-0.38861 0.3266,-1.24437 0,-0.95912 -0.37207,-1.418 -0.36794,-0.46302 -0.86817,-0.46302 -0.49609,0 -0.81442,0.3638 -0.31419,0.35967 -0.31419,1.09967 z"
         style="font-style:normal;font-variant:normal;font-weight:normal;font-stretch:normal;font-size:8.46666622px;font-family:'Calisto MT';-inkscape-font-specification:'Calisto MT';stroke-width:0.26458332"
         id="path11575" />
      <path
         d="m 209.01046,128.01272 v -0.23978 q 0.74415,-0.17364 1.34773,-0.52504 l 0.11162,0.0703 q -0.0579,0.3514 -0.0703,0.72347 l 0.52503,-0.52089 q 0.13229,-0.11576 0.31006,-0.1819 0.24391,-0.091 0.50849,-0.091 0.59118,0 0.89297,0.39275 0.20257,0.26044 0.20257,0.8971 l -0.0124,1.00045 q 0,1.00459 0.0248,1.18649 0.0207,0.12403 0.0786,0.17364 0.0579,0.0496 0.39274,0.12816 0.062,0.0165 0.18603,0.0455 v 0.23151 q -0.48782,-0.0455 -0.86816,-0.0455 -0.33073,0 -1.13275,0.0455 v -0.23151 q 0.47956,-0.14056 0.53743,-0.19017 0.062,-0.0496 0.0744,-0.16123 0.0455,-0.40928 0.0455,-1.25264 0,-0.90123 -0.0372,-1.08727 -0.0579,-0.27285 -0.24392,-0.42168 -0.18603,-0.14883 -0.44648,-0.14883 -0.27285,0 -0.53743,0.16123 -0.26459,0.1571 -0.39275,0.42582 -0.12402,0.26872 -0.12402,0.79375 0,1.48828 0.062,1.6123 0.062,0.11989 0.48369,0.22738 0.0538,0.0124 0.1571,0.0413 v 0.23151 q -0.55397,-0.0455 -0.93018,-0.0455 -0.3638,0 -1.08313,0.0455 v -0.23151 q 0.48782,-0.11575 0.55397,-0.1695 0.0413,-0.0331 0.0579,-0.17363 0.0455,-0.39274 0.0455,-1.07074 0,-1.40146 -0.0289,-1.52135 -0.0455,-0.17363 -0.24391,-0.17363 -0.0909,0 -0.28525,0.0289 -0.0537,0.008 -0.16124,0.0207 z"
         style="font-style:normal;font-variant:normal;font-weight:normal;font-stretch:normal;font-size:8.46666622px;font-family:'Calisto MT';-inkscape-font-specification:'Calisto MT';stroke-width:0.26458332"
         id="path11577" />
      <path
         d="m 213.33475,127.57863 v -0.23151 q 0.50849,0.0455 0.86816,0.0455 0.33487,0 0.98392,-0.0455 v 0.23151 q -0.062,0.0124 -0.0951,0.0165 -0.26872,0.0455 -0.3266,0.0951 -0.0579,0.0496 -0.0579,0.11989 v 0.0413 q 0.008,0.0372 0.0579,0.17776 0.23565,0.6904 0.34727,0.97152 l 0.49196,1.24437 q 0.13642,-0.33073 0.55397,-1.42214 0.26045,-0.67799 0.28525,-0.79375 0.0289,-0.11989 0.0289,-0.2067 0,-0.0744 -0.0372,-0.11576 -0.0537,-0.0579 -0.19843,-0.0951 -0.0413,-0.0124 -0.11576,-0.0331 v -0.23151 l 0.16123,0.0124 q 0.46302,0.0331 0.678,0.0331 0.2067,0 0.54157,-0.0455 v 0.23151 q -0.40101,0.11989 -0.50023,0.28112 -0.13229,0.21911 -1.42214,3.54294 h -0.24804 q -1.04594,-2.68717 -1.36426,-3.3569 -0.10749,-0.22738 -0.21498,-0.31006 -0.0785,-0.062 -0.41754,-0.1571 z"
         style="font-style:normal;font-variant:normal;font-weight:normal;font-stretch:normal;font-size:8.46666622px;font-family:'Calisto MT';-inkscape-font-specification:'Calisto MT';stroke-width:0.26458332"
         id="path11579" />
      <path
         d="m 220.76375,130.30302 0.1571,0.24391 -0.82269,0.60771 q -0.1695,0.11576 -0.3514,0.1695 -0.26458,0.0786 -0.54157,0.0786 -0.67386,0 -1.15342,-0.54157 -0.47542,-0.54157 -0.47542,-1.46348 0,-0.99218 0.57051,-1.59163 0.57464,-0.59945 1.40146,-0.59945 0.64079,0 0.98806,0.35554 0.3514,0.3514 0.35966,1.079 -0.17363,0.0992 -0.31832,0.24391 -0.29352,-0.004 -0.36794,-0.004 -1.09554,0 -1.90583,0.0331 -0.004,0.92604 0.3142,1.40147 0.31832,0.47955 0.85162,0.47955 0.26872,0 0.56224,-0.10335 0.29353,-0.10749 0.73174,-0.3886 z m -0.60358,-1.81075 q -0.0248,-0.40927 -0.1819,-0.62011 -0.23151,-0.31006 -0.62425,-0.31006 -0.339,0 -0.60358,0.23564 -0.26458,0.23151 -0.39274,0.76895 0.15296,0.004 0.23151,0.004 0.67799,0 1.57096,-0.0786 z"
         style="font-style:normal;font-variant:normal;font-weight:normal;font-stretch:normal;font-size:8.46666622px;font-family:'Calisto MT';-inkscape-font-specification:'Calisto MT';stroke-width:0.26458332"
         id="path11581" />
      <path
         d="m 221.35493,127.57863 v -0.23151 q 0.50436,0.0455 0.88057,0.0455 0.36793,0 0.95084,-0.0455 v 0.23151 q -0.0661,0.0124 -0.10335,0.0165 -0.15296,0.0248 -0.22738,0.0786 -0.0372,0.0289 -0.0372,0.0785 0,0.17776 0.57877,0.99218 0.35554,-0.42168 0.55811,-0.76894 0.10748,-0.17363 0.10748,-0.23978 0,-0.0579 -0.0372,-0.0827 -0.0579,-0.0496 -0.21084,-0.0661 l -0.0579,-0.008 v -0.23151 q 0.3514,0.0455 0.67386,0.0455 0.28939,0 0.76481,-0.0455 v 0.23151 q -0.26045,0.0248 -0.39274,0.0992 -0.12816,0.0744 -0.28939,0.27285 l -0.9095,1.12035 q 1.05006,1.5999 1.20716,1.76113 0.11575,0.11989 0.5333,0.23978 v 0.23151 q -0.55811,-0.0455 -0.92191,-0.0455 -0.39274,0 -0.88883,0.0455 v -0.23151 q 0.0496,-0.0124 0.0785,-0.0165 0.21497,-0.0455 0.26871,-0.0951 0.0455,-0.0372 0.0455,-0.0951 0,-0.0744 -0.0579,-0.1819 -0.14469,-0.28112 -0.68213,-1.0666 -0.9095,1.07074 -0.9095,1.25264 0,0.062 0.0413,0.0951 0.0868,0.062 0.31419,0.0951 0.0289,0.004 0.0785,0.0124 v 0.23151 q -0.48369,-0.0455 -0.77308,-0.0455 -0.30179,0 -0.79788,0.0455 v -0.23151 q 0.34313,-0.0579 0.47955,-0.17363 0.13643,-0.11989 1.33946,-1.61231 -0.12816,-0.21497 -0.6904,-1.04179 -0.23565,-0.34314 -0.38034,-0.45062 -0.14056,-0.10749 -0.5333,-0.21498 z"
         style="font-style:normal;font-variant:normal;font-weight:normal;font-stretch:normal;font-size:8.46666622px;font-family:'Calisto MT';-inkscape-font-specification:'Calisto MT';stroke-width:0.26458332"
         id="path11583" />
    </g>
    <circle
       style="opacity:1;fill:#ffeeaa;fill-opacity:1;stroke:#100000;stroke-width:0.5;stroke-linecap:butt;stroke-linejoin:round;stroke-miterlimit:4;stroke-dasharray:none;stroke-opacity:1;paint-order:fill markers stroke"
       id="path881-4"
       cx="125.28944"
       cy="89.287056"
       r="1.2027128" />
    <g
       aria-label="V"
       style="font-style:normal;font-variant:normal;font-weight:normal;font-stretch:normal;font-size:4.23333311px;line-height:1.25;font-family:'Calisto MT';-inkscape-font-specification:'Calisto MT';letter-spacing:0px;word-spacing:0px;fill:#000000;fill-opacity:1;stroke:none;stroke-width:0.26458332"
       id="text900-9-4">
      <path
         d="m 128.07602,94.920733 h -0.13642 q -0.26872,-0.787549 -0.65526,-1.775602 -0.32246,-0.822689 -0.36794,-0.907439 -0.031,-0.05581 -0.0744,-0.08475 -0.0434,-0.03101 -0.30799,-0.10542 v -0.121956 q 0.44648,0.02274 0.58704,0.02274 0.20051,0 0.58705,-0.02274 v 0.121956 q -0.0372,0.01033 -0.0558,0.01447 -0.20257,0.04961 -0.23977,0.08061 -0.0351,0.02894 -0.0351,0.06821 0,0.02067 0.006,0.04548 0.0372,0.150895 0.31006,0.895036 l 0.39274,1.081071 q 0.25424,-0.657325 0.44441,-1.217497 0.23978,-0.700732 0.25632,-0.777214 0.004,-0.01654 0.004,-0.02894 0,-0.03927 -0.031,-0.06408 -0.0455,-0.03514 -0.30179,-0.103353 v -0.115755 q 0.0124,0 0.14882,0.0062 0.31833,0.01654 0.40928,0.01654 0.1757,0 0.41961,-0.02274 v 0.115755 q -0.21497,0.05581 -0.27285,0.09922 -0.0579,0.04134 -0.11989,0.183968 -0.12609,0.285254 -0.63458,1.682584 z"
         style="font-style:normal;font-variant:normal;font-weight:normal;font-stretch:normal;font-size:4.23333311px;font-family:'Calisto MT';-inkscape-font-specification:'Calisto MT';stroke-width:0.26458332"
         id="path11592" />
    </g>
    <g
       aria-label="V"
       style="font-style:normal;font-variant:normal;font-weight:normal;font-stretch:normal;font-size:4.23333311px;line-height:1.25;font-family:'Calisto MT';-inkscape-font-specification:'Calisto MT';letter-spacing:0px;word-spacing:0px;fill:#000000;fill-opacity:1;stroke:none;stroke-width:0.26458332"
       id="text900-9-4-2">
      <path
         d="m 211.67148,94.919352 h -0.13643 q -0.26871,-0.787549 -0.65525,-1.775602 -0.32246,-0.822689 -0.36794,-0.907439 -0.031,-0.05581 -0.0744,-0.08475 -0.0434,-0.03101 -0.30799,-0.10542 v -0.121956 q 0.44648,0.02274 0.58704,0.02274 0.2005,0 0.58704,-0.02274 v 0.121956 q -0.0372,0.01034 -0.0558,0.01447 -0.20257,0.04961 -0.23978,0.08061 -0.0351,0.02894 -0.0351,0.06821 0,0.02067 0.006,0.04547 0.0372,0.150895 0.31005,0.895036 l 0.39275,1.081071 q 0.25424,-0.657325 0.44441,-1.217497 0.23978,-0.700732 0.25632,-0.777214 0.004,-0.01654 0.004,-0.02894 0,-0.03927 -0.031,-0.06408 -0.0455,-0.03514 -0.30179,-0.103353 v -0.115755 q 0.0124,0 0.14882,0.0062 0.31833,0.01654 0.40928,0.01654 0.1757,0 0.41961,-0.02274 v 0.115755 q -0.21497,0.05581 -0.27285,0.09922 -0.0579,0.04134 -0.11989,0.183968 -0.12609,0.285254 -0.63458,1.682584 z"
         style="font-style:normal;font-variant:normal;font-weight:normal;font-stretch:normal;font-size:4.23333311px;font-family:'Calisto MT';-inkscape-font-specification:'Calisto MT';stroke-width:0.26458332"
         id="path11595" />
    </g>
    <circle
       style="opacity:1;fill:#ffeeaa;fill-opacity:1;stroke:#100000;stroke-width:0.5;stroke-linecap:butt;stroke-linejoin:round;stroke-miterlimit:4;stroke-dasharray:none;stroke-opacity:1;paint-order:fill markers stroke"
       id="path881-4-4"
       cx="208.63329"
       cy="89.283722"
       r="1.2027128" />
  </g>
  <g
     inkscape:groupmode="layer"
     id="layer2"
     inkscape:label="Layer 2"
     transform="translate(-50.459831,-55.978878)" />
</svg>
