<?xml version="1.0" encoding="UTF-8" standalone="no"?>
<!-- Created with Inkscape (http://www.inkscape.org/) -->

<svg
   xmlns:dc="http://purl.org/dc/elements/1.1/"
   xmlns:cc="http://creativecommons.org/ns#"
   xmlns:rdf="http://www.w3.org/1999/02/22-rdf-syntax-ns#"
   xmlns:svg="http://www.w3.org/2000/svg"
   xmlns="http://www.w3.org/2000/svg"
   xmlns:sodipodi="http://sodipodi.sourceforge.net/DTD/sodipodi-0.dtd"
   xmlns:inkscape="http://www.inkscape.org/namespaces/inkscape"
   width="99.818748mm"
   height="28.38125mm"
   viewBox="0 0 99.81875 28.38125"
   version="1.1"
   id="svg8"
   sodipodi:docname="balancing_example_1.0.svg"
   inkscape:version="0.92.2 (5c3e80d, 2017-08-06)">
  <defs
     id="defs2">
    <marker
       inkscape:stockid="Arrow1Lend"
       orient="auto"
       refY="0"
       refX="0"
       id="Arrow1Lend"
       style="overflow:visible"
       inkscape:isstock="true">
      <path
         id="path1086"
         d="M 0,0 5,-5 -12.5,0 5,5 Z"
         style="fill:#000000;fill-opacity:1;fill-rule:evenodd;stroke:#000000;stroke-width:1.00000003pt;stroke-opacity:1"
         transform="matrix(-0.8,0,0,-0.8,-10,0)"
         inkscape:connector-curvature="0" />
    </marker>
  </defs>
  <sodipodi:namedview
     id="base"
     pagecolor="#ffffff"
     bordercolor="#666666"
     borderopacity="1.0"
     inkscape:pageopacity="0.0"
     inkscape:pageshadow="2"
     inkscape:zoom="2.0000001"
     inkscape:cx="133.69647"
     inkscape:cy="77.405058"
     inkscape:document-units="mm"
     inkscape:current-layer="layer1"
     showgrid="true"
     showguides="false"
     inkscape:window-width="1920"
     inkscape:window-height="1017"
     inkscape:window-x="-8"
     inkscape:window-y="-8"
     inkscape:window-maximized="1"
     inkscape:measure-start="506.466,-174.437"
     inkscape:measure-end="445.296,-110.679">
    <inkscape:grid
       type="xygrid"
       id="grid932"
       originx="-28.804165"
       originy="-81.720827" />
  </sodipodi:namedview>
  <metadata
     id="metadata5">
    <rdf:RDF>
      <cc:Work
         rdf:about="">
        <dc:format>image/svg+xml</dc:format>
        <dc:type
           rdf:resource="http://purl.org/dc/dcmitype/StillImage" />
        <dc:title></dc:title>
      </cc:Work>
    </rdf:RDF>
  </metadata>
  <g
     inkscape:label="Layer 1"
     inkscape:groupmode="layer"
     id="layer1"
     transform="translate(-28.804168,-186.89792)">
    <flowRoot
       xml:space="preserve"
       id="flowRoot1271"
       style="font-style:normal;font-weight:normal;font-size:16px;line-height:1.25;font-family:sans-serif;letter-spacing:0px;word-spacing:0px;fill:#000000;fill-opacity:1;stroke:none"
       transform="scale(0.26458333)"><flowRegion
         id="flowRegion1273"><rect
           id="rect1275"
           width="85"
           height="20"
           x="160"
           y="167.51968" /></flowRegion><flowPara
         id="flowPara1277" /></flowRoot>    <g
       transform="translate(-65.709628,30.317884)"
       aria-label="0 oC"
       style="font-style:normal;font-weight:normal;font-size:4.23333311px;line-height:1.25;font-family:sans-serif;letter-spacing:0px;word-spacing:0px;fill:#000000;fill-opacity:1;stroke:none;stroke-width:0.26458332"
       id="text1302-9-5" />
    <path
       sodipodi:nodetypes="cc"
       inkscape:connector-curvature="0"
       id="path1240"
       d="M 80.697923,197.78125 H 95.250004"
       style="fill:none;stroke:#000000;stroke-width:0.5;stroke-linecap:butt;stroke-linejoin:miter;stroke-miterlimit:4;stroke-dasharray:none;stroke-opacity:1" />
    <g
       transform="translate(-0.45395292,134.96574)"
       id="text1259"
       style="font-style:normal;font-weight:normal;font-size:4.23333311px;line-height:1.25;font-family:sans-serif;text-align:center;letter-spacing:0px;word-spacing:0px;text-anchor:middle;fill:#ff0000;fill-opacity:1;stroke:none;stroke-width:0.26458332"
       aria-label="Latent heat of  fusion" />
    <path
       style="fill:#000000;fill-opacity:1;stroke:none;stroke-width:0.5;stroke-linecap:butt;stroke-linejoin:miter;stroke-miterlimit:4;stroke-dasharray:none;stroke-opacity:1"
       d="m 100.54167,197.78125 -6.615787,-1.31704 0.002,2.64584 z"
       id="path1740-4-3-5-5-3-1-4-4-7"
       inkscape:connector-curvature="0"
       sodipodi:nodetypes="cccc" />
    <g
       id="g974"
       transform="translate(-2.0505209,0.09921875)">
      <circle
         r="3.0338407"
         cy="200.68365"
         cx="66.522514"
         id="path815-1-9-3-844-0-0"
         style="font-style:normal;font-weight:normal;font-size:4.23333311px;line-height:1.25;font-family:sans-serif;letter-spacing:0px;word-spacing:0px;opacity:1;fill:#afe9af;fill-opacity:1;stroke:#009600;stroke-width:0.60000002;stroke-linecap:round;stroke-linejoin:round;stroke-miterlimit:4;stroke-dasharray:none;stroke-dashoffset:0;stroke-opacity:1;paint-order:fill markers stroke" />
      <circle
         r="3.0338407"
         cy="195.071"
         cx="69.796562"
         id="path815-1-9-3-844-0-72"
         style="font-style:normal;font-weight:normal;font-size:4.23333311px;line-height:1.25;font-family:sans-serif;letter-spacing:0px;word-spacing:0px;opacity:1;fill:#afe9af;fill-opacity:1;stroke:#009600;stroke-width:0.60000002;stroke-linecap:round;stroke-linejoin:round;stroke-miterlimit:4;stroke-dasharray:none;stroke-dashoffset:0;stroke-opacity:1;paint-order:fill markers stroke" />
    </g>
    <circle
       style="font-style:normal;font-weight:normal;font-size:4.23333311px;line-height:1.25;font-family:sans-serif;letter-spacing:0px;word-spacing:0px;opacity:1;fill:#cccccc;fill-opacity:1;stroke:#000015;stroke-width:0.60000002;stroke-linecap:round;stroke-linejoin:round;stroke-miterlimit:4;stroke-dasharray:none;stroke-dashoffset:0;stroke-opacity:1;paint-order:fill markers stroke"
       id="path815-1-9-3-844-0-0-9"
       cx="33.055706"
       cy="197.78331"
       r="3.0338407" />
    <g
       aria-label="Mass of reactants = 68 g "
       style="font-style:normal;font-variant:normal;font-weight:normal;font-stretch:normal;font-size:4.93888855px;line-height:1.25;font-family:Arial;-inkscape-font-specification:Arial;letter-spacing:0px;word-spacing:0px;fill:#000000;fill-opacity:1;stroke:none;stroke-width:0.26458332"
       id="text876" />
    <g
       id="g1027"
       transform="translate(-0.07015825,-1.0991459)">
      <circle
         r="3.0338407"
         cy="204.78442"
         cx="124.19019"
         id="path815-1-9-3-844-0-0-8"
         style="font-style:normal;font-weight:normal;font-size:4.23333311px;line-height:1.25;font-family:sans-serif;letter-spacing:0px;word-spacing:0px;opacity:1;fill:#afe9af;fill-opacity:1;stroke:#009600;stroke-width:0.60000002;stroke-linecap:round;stroke-linejoin:round;stroke-miterlimit:4;stroke-dasharray:none;stroke-dashoffset:0;stroke-opacity:1;paint-order:fill markers stroke" />
      <circle
         r="3.0338407"
         cy="199.07774"
         cx="120.73441"
         id="path815-1-9-3-844-0-0-9-8"
         style="font-style:normal;font-weight:normal;font-size:4.23333311px;line-height:1.25;font-family:sans-serif;letter-spacing:0px;word-spacing:0px;opacity:1;fill:#cccccc;fill-opacity:1;stroke:#000015;stroke-width:0.60000002;stroke-linecap:round;stroke-linejoin:round;stroke-miterlimit:4;stroke-dasharray:none;stroke-dashoffset:0;stroke-opacity:1;paint-order:fill markers stroke" />
      <circle
         r="3.0338407"
         cy="199.30403"
         cx="114.09042"
         id="path815-1-9-3-844-0-0-8-5"
         style="font-style:normal;font-weight:normal;font-size:4.23333311px;line-height:1.25;font-family:sans-serif;letter-spacing:0px;word-spacing:0px;opacity:1;fill:#afe9af;fill-opacity:1;stroke:#009600;stroke-width:0.60000002;stroke-linecap:round;stroke-linejoin:round;stroke-miterlimit:4;stroke-dasharray:none;stroke-dashoffset:0;stroke-opacity:1;paint-order:fill markers stroke" />
      <circle
         r="3.0338407"
         cy="193.24287"
         cx="123.96031"
         id="path815-1-9-3-844-0-0-8-7"
         style="font-style:normal;font-weight:normal;font-size:4.23333311px;line-height:1.25;font-family:sans-serif;letter-spacing:0px;word-spacing:0px;opacity:1;fill:#afe9af;fill-opacity:1;stroke:#009600;stroke-width:0.60000002;stroke-linecap:round;stroke-linejoin:round;stroke-miterlimit:4;stroke-dasharray:none;stroke-dashoffset:0;stroke-opacity:1;paint-order:fill markers stroke" />
    </g>
    <text
       xml:space="preserve"
       style="font-style:normal;font-variant:normal;font-weight:normal;font-stretch:normal;font-size:4.93888855px;line-height:1.25;font-family:Arial;-inkscape-font-specification:Arial;letter-spacing:0px;word-spacing:0px;fill:#000000;fill-opacity:1;stroke:none;stroke-width:0.26458332"
       x="46.202873"
       y="200.52629"
       id="text970"
       inkscape:transform-center-x="1.3229167"
       inkscape:transform-center-y="-0.52916666"><tspan
         sodipodi:role="line"
         id="tspan968"
         x="46.202873"
         y="200.52629"
         style="font-style:normal;font-variant:normal;font-weight:normal;font-stretch:normal;font-size:8.46666622px;font-family:'Calisto MT';-inkscape-font-specification:'Calisto MT';stroke-width:0.26458332">+</tspan></text>
    <g
       aria-label="Fe"
       style="font-style:normal;font-variant:normal;font-weight:normal;font-stretch:normal;font-size:4.93888855px;line-height:1.25;font-family:Arial;-inkscape-font-specification:Arial;letter-spacing:0px;word-spacing:0px;fill:#000000;fill-opacity:1;stroke:none;stroke-width:0.26458332"
       id="text978">
      <path
         d="m 30.602917,209.8566 v -0.14228 q 0.561895,0.0265 1.237133,0.0265 0.709001,0 1.555461,-0.0265 l 0.05305,0.90433 h -0.166398 q -0.101286,-0.38344 -0.151929,-0.48954 -0.03376,-0.0724 -0.10852,-0.1037 -0.07235,-0.0338 -0.327973,-0.0338 h -1.051443 q -0.01447,0.31832 -0.02412,1.2299 h 0.660769 q 0.190514,0 0.24598,-0.0217 0.05788,-0.0217 0.09405,-0.0844 0.03858,-0.0627 0.08441,-0.28457 0.0072,-0.041 0.02653,-0.12058 h 0.161575 q -0.0217,0.50402 -0.0217,0.65595 0,0.0482 0.0217,0.61495 h -0.161575 q -0.01206,-0.0675 -0.01688,-0.10129 -0.05064,-0.31109 -0.113343,-0.36897 -0.0627,-0.0579 -0.32315,-0.0579 h -0.658358 q -0.0024,0.24115 -0.0024,0.32315 0,0.96221 0.01447,1.03456 0.0096,0.0482 0.05305,0.0723 0.05547,0.0338 0.547426,0.11094 v 0.14228 q -0.545014,-0.0265 -0.783759,-0.0265 l -0.844048,0.0265 v -0.14228 q 0.09646,-0.0193 0.144694,-0.0265 0.291799,-0.0434 0.344854,-0.0965 0.05547,-0.0531 0.05547,-0.22187 l 0.01447,-0.68729 q 0.0024,-0.15917 0.0024,-0.60772 0,-1.09244 -0.0096,-1.23472 -0.0072,-0.0941 -0.04823,-0.12781 -0.05305,-0.0458 -0.373793,-0.10852 -0.04341,-0.007 -0.130224,-0.0265 z"
         style="font-style:normal;font-variant:normal;font-weight:normal;font-stretch:normal;font-family:'Calisto MT';-inkscape-font-specification:'Calisto MT';stroke-width:0.26458332"
         id="path1037" />
      <path
         d="m 35.389877,212.55273 0.09164,0.14228 -0.479902,0.3545 q -0.09887,0.0675 -0.204983,0.0989 -0.15434,0.0458 -0.315915,0.0458 -0.393085,0 -0.672827,-0.31592 -0.27733,-0.31591 -0.27733,-0.85369 0,-0.57878 0.332796,-0.92846 0.335208,-0.34967 0.817521,-0.34967 0.373793,0 0.576364,0.20739 0.204984,0.20498 0.209807,0.62942 -0.101286,0.0579 -0.185691,0.14228 -0.171221,-0.002 -0.214629,-0.002 -0.639066,0 -1.111733,0.0193 -0.0024,0.54019 0.183279,0.81753 0.185691,0.27974 0.496783,0.27974 0.156752,0 0.327973,-0.0603 0.171222,-0.0627 0.426848,-0.22669 z m -0.352089,-1.05627 q -0.01447,-0.23874 -0.106109,-0.36173 -0.135048,-0.18087 -0.364147,-0.18087 -0.197748,0 -0.352088,0.13746 -0.154341,0.13505 -0.229099,0.44855 0.08923,0.002 0.135048,0.002 0.395496,0 0.916395,-0.0458 z"
         style="font-style:normal;font-variant:normal;font-weight:normal;font-stretch:normal;font-family:'Calisto MT';-inkscape-font-specification:'Calisto MT';stroke-width:0.26458332"
         id="path1039" />
    </g>
    <g
       aria-label="Cl2"
       style="font-style:normal;font-variant:normal;font-weight:normal;font-stretch:normal;font-size:4.93888855px;line-height:1.25;font-family:Arial;-inkscape-font-specification:Arial;letter-spacing:0px;word-spacing:0px;fill:#000000;fill-opacity:1;stroke:none;stroke-width:0.26458332"
       id="text978-5">
      <path
         d="m 66.104964,212.59593 0.101286,0.18328 q -0.388262,0.24356 -0.745174,0.35932 -0.356912,0.11576 -0.737939,0.11576 -0.484725,0 -0.880222,-0.21946 -0.395497,-0.22186 -0.60048,-0.62459 -0.202572,-0.40515 -0.202572,-0.89711 0,-0.80305 0.52331,-1.3143 0.525722,-0.51125 1.389063,-0.51125 0.530544,0 1.181667,0.21704 -0.0048,0.21222 -0.0048,0.31833 0,0.30868 0.03617,0.64871 h -0.202572 q -0.08923,-0.42203 -0.190514,-0.58119 -0.101286,-0.15916 -0.327973,-0.25321 -0.226687,-0.0965 -0.559483,-0.0965 -0.699355,0 -1.053855,0.49679 -0.274919,0.38826 -0.274919,0.97427 0,0.69935 0.385851,1.1045 0.388262,0.40273 1.01527,0.40273 0.270095,0 0.525721,-0.0699 0.255626,-0.0699 0.622184,-0.25321 z"
         style="font-style:normal;font-variant:normal;font-weight:normal;font-stretch:normal;font-family:'Calisto MT';-inkscape-font-specification:'Calisto MT';stroke-width:0.26458332"
         id="path1042" />
      <path
         d="m 66.432937,210.08549 v -0.13264 q 0.429259,-0.13746 0.776525,-0.31592 l 0.06511,0.0434 q -0.05788,0.45338 -0.05788,1.68569 0,1.24437 0.0096,1.377 0.0096,0.13023 0.05305,0.17605 0.04582,0.0434 0.349678,0.12781 v 0.13505 q -0.388263,-0.0265 -0.602892,-0.0265 -0.229099,0 -0.593246,0.0265 v -0.13505 q 0.327974,-0.10129 0.356912,-0.13022 0.02894,-0.0289 0.03617,-0.13988 0.0072,-0.1471 0.0072,-1.32877 l -0.0048,-1.14549 v -0.0338 q 0,-0.13264 -0.03617,-0.17364 -0.03617,-0.041 -0.113344,-0.041 -0.06511,0 -0.24598,0.0314 z"
         style="font-style:normal;font-variant:normal;font-weight:normal;font-stretch:normal;font-family:'Calisto MT';-inkscape-font-specification:'Calisto MT';stroke-width:0.26458332"
         id="path1044" />
      <path
         d="m 68.013358,212.50356 h -0.111294 q 0.04859,-0.1881 0.07524,-0.38717 0.130104,-0.10973 0.261776,-0.16302 0.133239,-0.0549 0.268045,-0.0549 0.161455,0 0.302531,0.0768 0.141077,0.0752 0.213183,0.21318 0.07211,0.13794 0.07211,0.3041 0,0.15048 -0.05486,0.28529 -0.06897,0.17556 -0.230425,0.3762 -0.161454,0.20065 -0.677168,0.75712 h 0.65679 q 0.142645,0 0.188103,-0.0282 0.04702,-0.0282 0.109726,-0.15675 0.0063,-0.011 0.01881,-0.0345 h 0.119132 q -0.128537,0.30567 -0.18967,0.46869 -0.315071,-0.0172 -0.567442,-0.0172 -0.225722,0 -0.691275,0.0172 v -0.0925 q 0.476525,-0.49691 0.678735,-0.74144 0.20221,-0.2461 0.288423,-0.45144 0.05957,-0.13795 0.05957,-0.2947 0,-0.20691 -0.100321,-0.31507 -0.100321,-0.10816 -0.260208,-0.10816 -0.144212,0 -0.257073,0.0925 -0.08621,0.069 -0.172427,0.25393 z"
         style="font-size:64.99999762%;baseline-shift:sub"
         id="path1046" />
    </g>
    <g
       aria-label="FeCl3"
       style="font-style:normal;font-variant:normal;font-weight:normal;font-stretch:normal;font-size:4.93888855px;line-height:1.25;font-family:Arial;-inkscape-font-specification:Arial;letter-spacing:0px;word-spacing:0px;fill:#000000;fill-opacity:1;stroke:none;stroke-width:0.26458332"
       id="text978-5-4">
      <path
         d="m 113.41077,209.98131 v -0.14228 q 0.5619,0.0265 1.23714,0.0265 0.709,0 1.55546,-0.0265 l 0.053,0.90433 h -0.1664 q -0.10128,-0.38344 -0.15193,-0.48954 -0.0338,-0.0724 -0.10852,-0.1037 -0.0723,-0.0338 -0.32797,-0.0338 h -1.05144 q -0.0145,0.31832 -0.0241,1.2299 h 0.66077 q 0.19051,0 0.24598,-0.0217 0.0579,-0.0217 0.094,-0.0844 0.0386,-0.0627 0.0844,-0.28457 0.007,-0.041 0.0265,-0.12058 h 0.16158 q -0.0217,0.50402 -0.0217,0.65595 0,0.0482 0.0217,0.61495 h -0.16158 q -0.012,-0.0675 -0.0169,-0.10129 -0.0506,-0.31109 -0.11334,-0.36897 -0.0627,-0.0579 -0.32315,-0.0579 h -0.65836 q -0.002,0.24115 -0.002,0.32315 0,0.96221 0.0145,1.03456 0.01,0.0482 0.053,0.0724 0.0555,0.0338 0.54743,0.11093 v 0.14228 q -0.54501,-0.0265 -0.78376,-0.0265 l -0.84405,0.0265 v -0.14228 q 0.0965,-0.0193 0.1447,-0.0265 0.2918,-0.0434 0.34485,-0.0965 0.0555,-0.0531 0.0555,-0.22187 l 0.0145,-0.68729 q 0.002,-0.15917 0.002,-0.60772 0,-1.09244 -0.01,-1.23472 -0.007,-0.0941 -0.0482,-0.12781 -0.053,-0.0458 -0.37379,-0.10852 -0.0434,-0.007 -0.13023,-0.0265 z"
         style="font-style:normal;font-variant:normal;font-weight:normal;font-stretch:normal;font-family:'Calisto MT';-inkscape-font-specification:'Calisto MT';stroke-width:0.26458332"
         id="path1049" />
      <path
         d="m 118.19773,212.67744 0.0916,0.14228 -0.4799,0.3545 q -0.0989,0.0675 -0.20498,0.0989 -0.15434,0.0458 -0.31592,0.0458 -0.39308,0 -0.67283,-0.31592 -0.27733,-0.31591 -0.27733,-0.85369 0,-0.57878 0.3328,-0.92846 0.33521,-0.34967 0.81752,-0.34967 0.37379,0 0.57637,0.20739 0.20498,0.20498 0.2098,0.62942 -0.10128,0.0579 -0.18569,0.14228 -0.17122,-0.002 -0.21463,-0.002 -0.63906,0 -1.11173,0.0193 -0.002,0.54019 0.18328,0.81753 0.18569,0.27974 0.49678,0.27974 0.15675,0 0.32797,-0.0603 0.17123,-0.0627 0.42685,-0.22669 z m -0.35209,-1.05627 q -0.0145,-0.23874 -0.10611,-0.36173 -0.13504,-0.18087 -0.36414,-0.18087 -0.19775,0 -0.35209,0.13746 -0.15434,0.13505 -0.2291,0.44855 0.0892,0.002 0.13505,0.002 0.3955,0 0.91639,-0.0458 z"
         style="font-style:normal;font-variant:normal;font-weight:normal;font-stretch:normal;font-family:'Calisto MT';-inkscape-font-specification:'Calisto MT';stroke-width:0.26458332"
         id="path1051" />
      <path
         d="m 121.72585,212.67503 0.10129,0.18328 q -0.38826,0.24357 -0.74517,0.35932 -0.35692,0.11576 -0.73794,0.11576 -0.48473,0 -0.88023,-0.21946 -0.39549,-0.22186 -0.60048,-0.62459 -0.20257,-0.40514 -0.20257,-0.8971 0,-0.80306 0.52331,-1.31431 0.52572,-0.51125 1.38907,-0.51125 0.53054,0 1.18166,0.21704 -0.005,0.21222 -0.005,0.31833 0,0.30868 0.0362,0.64871 h -0.20257 q -0.0892,-0.42203 -0.19051,-0.58119 -0.10129,-0.15916 -0.32798,-0.25321 -0.22668,-0.0965 -0.55948,-0.0965 -0.69935,0 -1.05385,0.49679 -0.27492,0.38826 -0.27492,0.97427 0,0.69935 0.38585,1.1045 0.38826,0.40273 1.01527,0.40273 0.27009,0 0.52572,-0.0699 0.25563,-0.0699 0.62218,-0.25321 z"
         style="font-style:normal;font-variant:normal;font-weight:normal;font-stretch:normal;font-family:'Calisto MT';-inkscape-font-specification:'Calisto MT';stroke-width:0.26458332"
         id="path1053" />
      <path
         d="m 122.05383,210.16459 v -0.13264 q 0.42926,-0.13746 0.77652,-0.31591 l 0.0651,0.0434 q -0.0579,0.45338 -0.0579,1.68569 0,1.24437 0.01,1.377 0.01,0.13023 0.0531,0.17605 0.0458,0.0434 0.34967,0.12781 v 0.13505 q -0.38826,-0.0265 -0.60289,-0.0265 -0.2291,0 -0.59324,0.0265 v -0.13505 q 0.32797,-0.10128 0.35691,-0.13022 0.0289,-0.0289 0.0362,-0.13987 0.007,-0.14711 0.007,-1.32878 l -0.005,-1.14549 v -0.0338 q 0,-0.13264 -0.0362,-0.17364 -0.0362,-0.041 -0.11334,-0.041 -0.0651,0 -0.24598,0.0314 z"
         style="font-style:normal;font-variant:normal;font-weight:normal;font-stretch:normal;font-family:'Calisto MT';-inkscape-font-specification:'Calisto MT';stroke-width:0.26458332"
         id="path1055" />
      <path
         d="m 123.71419,212.48234 h -0.10502 q 0.0502,-0.17085 0.0831,-0.34642 0.11286,-0.0799 0.22885,-0.11913 0.116,-0.0392 0.23513,-0.0392 0.14892,0 0.26491,0.0596 0.116,0.058 0.174,0.16616 0.0596,0.10659 0.0596,0.22102 0,0.28058 -0.30566,0.4969 0.17086,0.0455 0.26491,0.14421 0.15048,0.15675 0.15048,0.41226 0,0.33231 -0.24924,0.57058 -0.24767,0.23826 -0.62073,0.23826 -0.20692,0 -0.40913,-0.0799 0.0455,-0.20064 0.0674,-0.40755 h 0.094 q 0.0564,0.18183 0.14891,0.25551 0.0941,0.0737 0.23356,0.0737 0.20064,0 0.33388,-0.13794 0.13324,-0.13794 0.13324,-0.36994 0,-0.23042 -0.14107,-0.3668 -0.14108,-0.13794 -0.39972,-0.13794 -0.0235,0 -0.0533,0.002 v -0.10973 q 0.27432,-0.0799 0.38248,-0.20377 0.10972,-0.12541 0.10972,-0.27275 0,-0.13951 -0.0862,-0.22416 -0.0862,-0.0846 -0.23513,-0.0846 -0.12853,0 -0.22415,0.0721 -0.0705,0.0549 -0.13481,0.1881 z"
         style="font-size:64.99999762%;baseline-shift:sub"
         id="path1057" />
    </g>
  </g>
</svg>
