<?xml version="1.0" encoding="UTF-8" standalone="no"?>
<!-- Created with Inkscape (http://www.inkscape.org/) -->

<svg
   xmlns:dc="http://purl.org/dc/elements/1.1/"
   xmlns:cc="http://creativecommons.org/ns#"
   xmlns:rdf="http://www.w3.org/1999/02/22-rdf-syntax-ns#"
   xmlns:svg="http://www.w3.org/2000/svg"
   xmlns="http://www.w3.org/2000/svg"
   xmlns:sodipodi="http://sodipodi.sourceforge.net/DTD/sodipodi-0.dtd"
   xmlns:inkscape="http://www.inkscape.org/namespaces/inkscape"
   width="196.29668mm"
   height="77.234161mm"
   viewBox="0 0 196.29668 77.234161"
   version="1.1"
   id="svg8"
   sodipodi:docname="conservation_of_mass.svg"
   inkscape:version="0.92.2 (5c3e80d, 2017-08-06)">
  <defs
     id="defs2">
    <marker
       inkscape:stockid="Arrow1Lend"
       orient="auto"
       refY="0"
       refX="0"
       id="Arrow1Lend"
       style="overflow:visible"
       inkscape:isstock="true">
      <path
         id="path1086"
         d="M 0,0 5,-5 -12.5,0 5,5 Z"
         style="fill:#000000;fill-opacity:1;fill-rule:evenodd;stroke:#000000;stroke-width:1.00000003pt;stroke-opacity:1"
         transform="matrix(-0.8,0,0,-0.8,-10,0)"
         inkscape:connector-curvature="0" />
    </marker>
  </defs>
  <sodipodi:namedview
     id="base"
     pagecolor="#ffffff"
     bordercolor="#666666"
     borderopacity="1.0"
     inkscape:pageopacity="0.0"
     inkscape:pageshadow="2"
     inkscape:zoom="1.4142136"
     inkscape:cx="358.78122"
     inkscape:cy="166.07534"
     inkscape:document-units="mm"
     inkscape:current-layer="layer1"
     showgrid="false"
     showguides="false"
     inkscape:window-width="1920"
     inkscape:window-height="1017"
     inkscape:window-x="-8"
     inkscape:window-y="-8"
     inkscape:window-maximized="1"
     inkscape:measure-start="506.466,-174.437"
     inkscape:measure-end="445.296,-110.679">
    <inkscape:grid
       type="xygrid"
       id="grid932"
       originx="21.419168"
       originy="-55.310007" />
  </sodipodi:namedview>
  <metadata
     id="metadata5">
    <rdf:RDF>
      <cc:Work
         rdf:about="">
        <dc:format>image/svg+xml</dc:format>
        <dc:type
           rdf:resource="http://purl.org/dc/dcmitype/StillImage" />
        <dc:title />
      </cc:Work>
    </rdf:RDF>
  </metadata>
  <g
     inkscape:label="Layer 1"
     inkscape:groupmode="layer"
     id="layer1"
     transform="translate(21.419164,-164.45583)">
    <flowRoot
       xml:space="preserve"
       id="flowRoot1271"
       style="font-style:normal;font-weight:normal;font-size:16px;line-height:1.25;font-family:sans-serif;letter-spacing:0px;word-spacing:0px;fill:#000000;fill-opacity:1;stroke:none"
       transform="scale(0.26458333)"><flowRegion
         id="flowRegion1273"><rect
           id="rect1275"
           width="85"
           height="20"
           x="160"
           y="167.51968" /></flowRegion><flowPara
         id="flowPara1277" /></flowRoot>    <g
       transform="translate(-65.709628,30.317884)"
       aria-label="0 oC"
       style="font-style:normal;font-weight:normal;font-size:4.23333311px;line-height:1.25;font-family:sans-serif;letter-spacing:0px;word-spacing:0px;fill:#000000;fill-opacity:1;stroke:none;stroke-width:0.26458332"
       id="text1302-9-5" />
    <path
       sodipodi:nodetypes="cc"
       inkscape:connector-curvature="0"
       id="path1240"
       d="m 52.916669,199.10416 42.333333,1e-5"
       style="fill:none;stroke:#000000;stroke-width:0.5;stroke-linecap:butt;stroke-linejoin:miter;stroke-miterlimit:4;stroke-dasharray:none;stroke-opacity:1" />
    <g
       transform="translate(-0.45395292,134.96574)"
       id="text1259"
       style="font-style:normal;font-weight:normal;font-size:4.23333311px;line-height:1.25;font-family:sans-serif;text-align:center;letter-spacing:0px;word-spacing:0px;text-anchor:middle;fill:#ff0000;fill-opacity:1;stroke:none;stroke-width:0.26458332"
       aria-label="Latent heat of  fusion" />
    <path
       style="fill:#000000;fill-opacity:1;stroke:none;stroke-width:0.5;stroke-linecap:butt;stroke-linejoin:miter;stroke-miterlimit:4;stroke-dasharray:none;stroke-opacity:1"
       d="m 100.54167,199.10417 -6.615789,-1.31704 0.002,2.64584 z"
       id="path1740-4-3-5-5-3-1-4-4-7"
       inkscape:connector-curvature="0"
       sodipodi:nodetypes="cccc" />
    <circle
       style="font-style:normal;font-weight:normal;font-size:4.23333311px;line-height:1.25;font-family:sans-serif;letter-spacing:0px;word-spacing:0px;opacity:1;fill:#ffaaaa;fill-opacity:1;stroke:#ff0000;stroke-width:0.6;stroke-linecap:round;stroke-linejoin:round;stroke-miterlimit:4;stroke-dasharray:none;stroke-dashoffset:0;stroke-opacity:1;paint-order:fill markers stroke"
       id="path815-1-9-3-844-0-5"
       cx="12.266139"
       cy="191.7809"
       r="3.0338407" />
    <circle
       style="font-style:normal;font-weight:normal;font-size:4.23333311px;line-height:1.25;font-family:sans-serif;letter-spacing:0px;word-spacing:0px;opacity:1;fill:#ffaaaa;fill-opacity:1;stroke:#ff0000;stroke-width:0.6;stroke-linecap:round;stroke-linejoin:round;stroke-miterlimit:4;stroke-dasharray:none;stroke-dashoffset:0;stroke-opacity:1;paint-order:fill markers stroke"
       id="path815-1-9-3-844-0-4"
       cx="16.943356"
       cy="196.27103"
       r="3.0338407" />
    <circle
       style="font-style:normal;font-weight:normal;font-size:4.23333311px;line-height:1.25;font-family:sans-serif;letter-spacing:0px;word-spacing:0px;opacity:1;fill:#ffaaaa;fill-opacity:1;stroke:#ff0000;stroke-width:0.6;stroke-linecap:round;stroke-linejoin:round;stroke-miterlimit:4;stroke-dasharray:none;stroke-dashoffset:0;stroke-opacity:1;paint-order:fill markers stroke"
       id="path815-1-9-3-844-0-7"
       cx="-8.8961611"
       cy="186.96228"
       r="3.0338407" />
    <circle
       style="font-style:normal;font-weight:normal;font-size:4.23333311px;line-height:1.25;font-family:sans-serif;letter-spacing:0px;word-spacing:0px;opacity:1;fill:#ffaaaa;fill-opacity:1;stroke:#ff0000;stroke-width:0.6;stroke-linecap:round;stroke-linejoin:round;stroke-miterlimit:4;stroke-dasharray:none;stroke-dashoffset:0;stroke-opacity:1;paint-order:fill markers stroke"
       id="path815-1-9-3-844-0-8"
       cx="-4.3124895"
       cy="182.28506"
       r="3.0338407" />
    <circle
       style="font-style:normal;font-weight:normal;font-size:4.23333311px;line-height:1.25;font-family:sans-serif;letter-spacing:0px;word-spacing:0px;opacity:1;fill:#ffaaaa;fill-opacity:1;stroke:#ff0000;stroke-width:0.6;stroke-linecap:round;stroke-linejoin:round;stroke-miterlimit:4;stroke-dasharray:none;stroke-dashoffset:0;stroke-opacity:1;paint-order:fill markers stroke"
       id="path815-1-9-3-844-0-47"
       cx="38.979935"
       cy="182.08371"
       r="3.0338407" />
    <circle
       style="font-style:normal;font-weight:normal;font-size:4.23333311px;line-height:1.25;font-family:sans-serif;letter-spacing:0px;word-spacing:0px;opacity:1;fill:#ffaaaa;fill-opacity:1;stroke:#ff0000;stroke-width:0.6;stroke-linecap:round;stroke-linejoin:round;stroke-miterlimit:4;stroke-dasharray:none;stroke-dashoffset:0;stroke-opacity:1;paint-order:fill markers stroke"
       id="path815-1-9-3-844-0-85"
       cx="40.196011"
       cy="175.7227"
       r="3.0338407" />
    <circle
       style="font-style:normal;font-weight:normal;font-size:4.23333311px;line-height:1.25;font-family:sans-serif;letter-spacing:0px;word-spacing:0px;opacity:1;fill:#ffaaaa;fill-opacity:1;stroke:#ff0000;stroke-width:0.6;stroke-linecap:round;stroke-linejoin:round;stroke-miterlimit:4;stroke-dasharray:none;stroke-dashoffset:0;stroke-opacity:1;paint-order:fill markers stroke"
       id="path815-1-9-3-844-0-9"
       cx="-6.0806251"
       cy="221.18822"
       r="3.0338407" />
    <circle
       style="font-style:normal;font-weight:normal;font-size:4.23333311px;line-height:1.25;font-family:sans-serif;letter-spacing:0px;word-spacing:0px;opacity:1;fill:#ffaaaa;fill-opacity:1;stroke:#ff0000;stroke-width:0.6;stroke-linecap:round;stroke-linejoin:round;stroke-miterlimit:4;stroke-dasharray:none;stroke-dashoffset:0;stroke-opacity:1;paint-order:fill markers stroke"
       id="path815-1-9-3-844-0-3"
       cx="-0.65505147"
       cy="224.7429"
       r="3.0338407" />
    <circle
       style="font-style:normal;font-weight:normal;font-size:4.23333311px;line-height:1.25;font-family:sans-serif;letter-spacing:0px;word-spacing:0px;opacity:1;fill:#ffaaaa;fill-opacity:1;stroke:#ff0000;stroke-width:0.6;stroke-linecap:round;stroke-linejoin:round;stroke-miterlimit:4;stroke-dasharray:none;stroke-dashoffset:0;stroke-opacity:1;paint-order:fill markers stroke"
       id="path815-1-9-3-844-0-36"
       cx="30.014585"
       cy="222.47325"
       r="3.0338407" />
    <circle
       style="font-style:normal;font-weight:normal;font-size:4.23333311px;line-height:1.25;font-family:sans-serif;letter-spacing:0px;word-spacing:0px;opacity:1;fill:#ffaaaa;fill-opacity:1;stroke:#ff0000;stroke-width:0.6;stroke-linecap:round;stroke-linejoin:round;stroke-miterlimit:4;stroke-dasharray:none;stroke-dashoffset:0;stroke-opacity:1;paint-order:fill markers stroke"
       id="path815-1-9-3-844-0-43"
       cx="35.907879"
       cy="219.76047"
       r="3.0338407" />
    <circle
       style="font-style:normal;font-weight:normal;font-size:4.23333311px;line-height:1.25;font-family:sans-serif;letter-spacing:0px;word-spacing:0px;opacity:1;fill:#ffaaaa;fill-opacity:1;stroke:#ff0000;stroke-width:0.6;stroke-linecap:round;stroke-linejoin:round;stroke-miterlimit:4;stroke-dasharray:none;stroke-dashoffset:0;stroke-opacity:1;paint-order:fill markers stroke"
       id="path815-1-9-3-844-0-33"
       cx="12.101354"
       cy="175.36961"
       r="3.0338407" />
    <circle
       style="font-style:normal;font-weight:normal;font-size:4.23333311px;line-height:1.25;font-family:sans-serif;letter-spacing:0px;word-spacing:0px;opacity:1;fill:#ffaaaa;fill-opacity:1;stroke:#ff0000;stroke-width:0.6;stroke-linecap:round;stroke-linejoin:round;stroke-miterlimit:4;stroke-dasharray:none;stroke-dashoffset:0;stroke-opacity:1;paint-order:fill markers stroke"
       id="path815-1-9-3-844-0-45"
       cx="18.462374"
       cy="175.93088"
       r="3.0338407" />
    <circle
       style="font-style:normal;font-weight:normal;font-size:4.23333311px;line-height:1.25;font-family:sans-serif;letter-spacing:0px;word-spacing:0px;opacity:1;fill:#aaccff;fill-opacity:1;stroke:#0000ff;stroke-width:0.6;stroke-linecap:round;stroke-linejoin:round;stroke-miterlimit:4;stroke-dasharray:none;stroke-dashoffset:0;stroke-opacity:1;paint-order:fill markers stroke"
       id="path815-1-9-3-844-0-0"
       cx="30.149429"
       cy="204.61252"
       r="3.0338407" />
    <circle
       style="font-style:normal;font-weight:normal;font-size:4.23333311px;line-height:1.25;font-family:sans-serif;letter-spacing:0px;word-spacing:0px;opacity:1;fill:#aaccff;fill-opacity:1;stroke:#0000ff;stroke-width:0.6;stroke-linecap:round;stroke-linejoin:round;stroke-miterlimit:4;stroke-dasharray:none;stroke-dashoffset:0;stroke-opacity:1;paint-order:fill markers stroke"
       id="path815-1-9-3-844-0-72"
       cx="33.423477"
       cy="198.99986"
       r="3.0338407" />
    <circle
       style="font-style:normal;font-weight:normal;font-size:4.23333311px;line-height:1.25;font-family:sans-serif;letter-spacing:0px;word-spacing:0px;opacity:1;fill:#aaccff;fill-opacity:1;stroke:#0000ff;stroke-width:0.6;stroke-linecap:round;stroke-linejoin:round;stroke-miterlimit:4;stroke-dasharray:none;stroke-dashoffset:0;stroke-opacity:1;paint-order:fill markers stroke"
       id="path815-1-9-3-844-0-0-9"
       cx="-1.1712002"
       cy="209.40454"
       r="3.0338407" />
    <circle
       style="font-style:normal;font-weight:normal;font-size:4.23333311px;line-height:1.25;font-family:sans-serif;letter-spacing:0px;word-spacing:0px;opacity:1;fill:#aaccff;fill-opacity:1;stroke:#0000ff;stroke-width:0.6;stroke-linecap:round;stroke-linejoin:round;stroke-miterlimit:4;stroke-dasharray:none;stroke-dashoffset:0;stroke-opacity:1;paint-order:fill markers stroke"
       id="path815-1-9-3-844-0-72-3"
       cx="5.3768978"
       cy="209.311"
       r="3.0338407" />
    <rect
       style="opacity:1;fill:none;fill-opacity:0.24623114;stroke:#000000;stroke-width:0.50531697;stroke-linecap:round;stroke-linejoin:round;stroke-miterlimit:4;stroke-dasharray:none;stroke-dashoffset:0;stroke-opacity:1;paint-order:fill markers stroke"
       id="rect1066"
       width="63.5"
       height="63.5"
       x="-15.610415"
       y="167.61876"
       ry="0.12176068" />
    <rect
       style="opacity:1;fill:none;fill-opacity:0.24623114;stroke:#000000;stroke-width:0.50531697;stroke-linecap:round;stroke-linejoin:round;stroke-miterlimit:4;stroke-dasharray:none;stroke-dashoffset:0;stroke-opacity:1;paint-order:fill markers stroke"
       id="rect1066-0"
       width="63.5"
       height="63.5"
       x="105.83334"
       y="167.35417"
       ry="0.12176069" />
    <circle
       style="font-style:normal;font-weight:normal;font-size:4.23333311px;line-height:1.25;font-family:sans-serif;letter-spacing:0px;word-spacing:0px;opacity:1;fill:#ffaaaa;fill-opacity:1;stroke:#ff0000;stroke-width:0.6;stroke-linecap:round;stroke-linejoin:round;stroke-miterlimit:4;stroke-dasharray:none;stroke-dashoffset:0;stroke-opacity:1;paint-order:fill markers stroke"
       id="path815-1-9-3-844-0-85-1-9"
       cx="118.09021"
       cy="184.79338"
       r="3.0338407" />
    <circle
       style="font-style:normal;font-weight:normal;font-size:4.23333311px;line-height:1.25;font-family:sans-serif;letter-spacing:0px;word-spacing:0px;opacity:1;fill:#ffaaaa;fill-opacity:1;stroke:#ff0000;stroke-width:0.6;stroke-linecap:round;stroke-linejoin:round;stroke-miterlimit:4;stroke-dasharray:none;stroke-dashoffset:0;stroke-opacity:1;paint-order:fill markers stroke"
       id="path815-1-9-3-844-0-85-0-8"
       cx="123.7562"
       cy="174.91756"
       r="3.0338407" />
    <circle
       style="font-style:normal;font-weight:normal;font-size:4.23333311px;line-height:1.25;font-family:sans-serif;letter-spacing:0px;word-spacing:0px;opacity:1;fill:#aaccff;fill-opacity:1;stroke:#0000ff;stroke-width:0.6;stroke-linecap:round;stroke-linejoin:round;stroke-miterlimit:4;stroke-dasharray:none;stroke-dashoffset:0;stroke-opacity:1;paint-order:fill markers stroke"
       id="path815-1-9-3-844-0-85-11-0"
       cx="123.76577"
       cy="181.49274"
       r="3.0338407" />
    <circle
       style="font-style:normal;font-weight:normal;font-size:4.23333311px;line-height:1.25;font-family:sans-serif;letter-spacing:0px;word-spacing:0px;opacity:1;fill:#ffaaaa;fill-opacity:1;stroke:#ff0000;stroke-width:0.6;stroke-linecap:round;stroke-linejoin:round;stroke-miterlimit:4;stroke-dasharray:none;stroke-dashoffset:0;stroke-opacity:1;paint-order:fill markers stroke"
       id="path815-1-9-3-844-0-85-4-6"
       cx="129.43806"
       cy="184.76112"
       r="3.0338407" />
    <circle
       style="font-style:normal;font-weight:normal;font-size:4.23333311px;line-height:1.25;font-family:sans-serif;letter-spacing:0px;word-spacing:0px;opacity:1;fill:#ffaaaa;fill-opacity:1;stroke:#ff0000;stroke-width:0.6;stroke-linecap:round;stroke-linejoin:round;stroke-miterlimit:4;stroke-dasharray:none;stroke-dashoffset:0;stroke-opacity:1;paint-order:fill markers stroke"
       id="path815-1-9-3-844-0-85-1-5"
       cx="145.68579"
       cy="192.65111"
       r="3.0338407" />
    <circle
       style="font-style:normal;font-weight:normal;font-size:4.23333311px;line-height:1.25;font-family:sans-serif;letter-spacing:0px;word-spacing:0px;opacity:1;fill:#ffaaaa;fill-opacity:1;stroke:#ff0000;stroke-width:0.6;stroke-linecap:round;stroke-linejoin:round;stroke-miterlimit:4;stroke-dasharray:none;stroke-dashoffset:0;stroke-opacity:1;paint-order:fill markers stroke"
       id="path815-1-9-3-844-0-85-0-51"
       cx="151.35179"
       cy="182.77528"
       r="3.0338407" />
    <circle
       style="font-style:normal;font-weight:normal;font-size:4.23333311px;line-height:1.25;font-family:sans-serif;letter-spacing:0px;word-spacing:0px;opacity:1;fill:#aaccff;fill-opacity:1;stroke:#0000ff;stroke-width:0.6;stroke-linecap:round;stroke-linejoin:round;stroke-miterlimit:4;stroke-dasharray:none;stroke-dashoffset:0;stroke-opacity:1;paint-order:fill markers stroke"
       id="path815-1-9-3-844-0-85-11-5"
       cx="151.36136"
       cy="189.35046"
       r="3.0338407" />
    <circle
       style="font-style:normal;font-weight:normal;font-size:4.23333311px;line-height:1.25;font-family:sans-serif;letter-spacing:0px;word-spacing:0px;opacity:1;fill:#ffaaaa;fill-opacity:1;stroke:#ff0000;stroke-width:0.6;stroke-linecap:round;stroke-linejoin:round;stroke-miterlimit:4;stroke-dasharray:none;stroke-dashoffset:0;stroke-opacity:1;paint-order:fill markers stroke"
       id="path815-1-9-3-844-0-85-4-5"
       cx="157.03366"
       cy="192.61885"
       r="3.0338407" />
    <circle
       style="font-style:normal;font-weight:normal;font-size:4.23333311px;line-height:1.25;font-family:sans-serif;letter-spacing:0px;word-spacing:0px;opacity:1;fill:#ffaaaa;fill-opacity:1;stroke:#ff0000;stroke-width:0.6;stroke-linecap:round;stroke-linejoin:round;stroke-miterlimit:4;stroke-dasharray:none;stroke-dashoffset:0;stroke-opacity:1;paint-order:fill markers stroke"
       id="path815-1-9-3-844-0-85-1-9-2"
       cx="118.04343"
       cy="212.4825"
       r="3.0338407" />
    <circle
       style="font-style:normal;font-weight:normal;font-size:4.23333311px;line-height:1.25;font-family:sans-serif;letter-spacing:0px;word-spacing:0px;opacity:1;fill:#ffaaaa;fill-opacity:1;stroke:#ff0000;stroke-width:0.6;stroke-linecap:round;stroke-linejoin:round;stroke-miterlimit:4;stroke-dasharray:none;stroke-dashoffset:0;stroke-opacity:1;paint-order:fill markers stroke"
       id="path815-1-9-3-844-0-85-0-8-4"
       cx="123.70943"
       cy="202.60667"
       r="3.0338407" />
    <circle
       style="font-style:normal;font-weight:normal;font-size:4.23333311px;line-height:1.25;font-family:sans-serif;letter-spacing:0px;word-spacing:0px;opacity:1;fill:#aaccff;fill-opacity:1;stroke:#0000ff;stroke-width:0.6;stroke-linecap:round;stroke-linejoin:round;stroke-miterlimit:4;stroke-dasharray:none;stroke-dashoffset:0;stroke-opacity:1;paint-order:fill markers stroke"
       id="path815-1-9-3-844-0-85-11-0-7"
       cx="123.71899"
       cy="209.18185"
       r="3.0338407" />
    <circle
       style="font-style:normal;font-weight:normal;font-size:4.23333311px;line-height:1.25;font-family:sans-serif;letter-spacing:0px;word-spacing:0px;opacity:1;fill:#ffaaaa;fill-opacity:1;stroke:#ff0000;stroke-width:0.6;stroke-linecap:round;stroke-linejoin:round;stroke-miterlimit:4;stroke-dasharray:none;stroke-dashoffset:0;stroke-opacity:1;paint-order:fill markers stroke"
       id="path815-1-9-3-844-0-85-4-6-7"
       cx="129.3913"
       cy="212.45024"
       r="3.0338407" />
    <circle
       style="font-style:normal;font-weight:normal;font-size:4.23333311px;line-height:1.25;font-family:sans-serif;letter-spacing:0px;word-spacing:0px;opacity:1;fill:#ffaaaa;fill-opacity:1;stroke:#ff0000;stroke-width:0.6;stroke-linecap:round;stroke-linejoin:round;stroke-miterlimit:4;stroke-dasharray:none;stroke-dashoffset:0;stroke-opacity:1;paint-order:fill markers stroke"
       id="path815-1-9-3-844-0-85-1-5-6"
       cx="145.63902"
       cy="220.34023"
       r="3.0338407" />
    <circle
       style="font-style:normal;font-weight:normal;font-size:4.23333311px;line-height:1.25;font-family:sans-serif;letter-spacing:0px;word-spacing:0px;opacity:1;fill:#ffaaaa;fill-opacity:1;stroke:#ff0000;stroke-width:0.6;stroke-linecap:round;stroke-linejoin:round;stroke-miterlimit:4;stroke-dasharray:none;stroke-dashoffset:0;stroke-opacity:1;paint-order:fill markers stroke"
       id="path815-1-9-3-844-0-85-0-51-8"
       cx="151.30502"
       cy="210.4644"
       r="3.0338407" />
    <circle
       style="font-style:normal;font-weight:normal;font-size:4.23333311px;line-height:1.25;font-family:sans-serif;letter-spacing:0px;word-spacing:0px;opacity:1;fill:#aaccff;fill-opacity:1;stroke:#0000ff;stroke-width:0.6;stroke-linecap:round;stroke-linejoin:round;stroke-miterlimit:4;stroke-dasharray:none;stroke-dashoffset:0;stroke-opacity:1;paint-order:fill markers stroke"
       id="path815-1-9-3-844-0-85-11-5-3"
       cx="151.31459"
       cy="217.03958"
       r="3.0338407" />
    <circle
       style="font-style:normal;font-weight:normal;font-size:4.23333311px;line-height:1.25;font-family:sans-serif;letter-spacing:0px;word-spacing:0px;opacity:1;fill:#ffaaaa;fill-opacity:1;stroke:#ff0000;stroke-width:0.6;stroke-linecap:round;stroke-linejoin:round;stroke-miterlimit:4;stroke-dasharray:none;stroke-dashoffset:0;stroke-opacity:1;paint-order:fill markers stroke"
       id="path815-1-9-3-844-0-85-4-5-7"
       cx="156.98689"
       cy="220.30797"
       r="3.0338407" />
    <g
       aria-label="Mass of reactants = 68 g "
       style="font-style:normal;font-variant:normal;font-weight:normal;font-stretch:normal;font-size:4.93888855px;line-height:1.25;font-family:Arial;-inkscape-font-specification:Arial;letter-spacing:0px;word-spacing:0px;fill:#000000;fill-opacity:1;stroke:none;stroke-width:0.26458332"
       id="text876">
      <path
         d="m -9.8364375,235.10852 v -0.14228 q 0.4027317,0.0265 0.612538,0.0265 0.2387451,0 0.5136637,-0.0265 0.098874,0.25321 0.1591634,0.38585 0.079582,0.17846 0.629419,1.35289 0.233922,0.49919 0.4726671,0.97427 l 1.0297391,-2.16559 q 0.094051,-0.20016 0.2242757,-0.54742 0.32315,0.0265 0.4943712,0.0265 0.1591634,0 0.5377794,-0.0265 v 0.14228 q -0.072347,0.0193 -0.1085205,0.0265 -0.3352078,0.0675 -0.3737928,0.0989 -0.062701,0.0482 -0.062701,0.24357 v 0.0314 l -0.00965,0.76447 q 0,1.44211 0.012058,1.7508 0.00241,0.0651 0.036174,0.0965 0.036173,0.0314 0.4123779,0.1037 0.03135,0.005 0.094051,0.0217 v 0.14228 q -0.434082,-0.0265 -0.7644667,-0.0265 -0.3376193,0 -0.7982286,0.0265 v -0.14228 q 0.094051,-0.0241 0.1422824,-0.0338 0.2942112,-0.0555 0.3352078,-0.0772 0.043408,-0.0241 0.057878,-0.0651 0.021704,-0.0699 0.021704,-0.39068 v -2.1053 q -0.2194525,0.43409 -0.991154,2.09083 -0.2122178,0.45579 -0.3135037,0.69694 h -0.1374593 q -0.540191,-1.19854 -1.3239502,-2.78777 l 0.03135,2.24758 q 0,0.26769 0.043408,0.30627 0.043408,0.0386 0.3641466,0.094 0.036174,0.007 0.1109321,0.0241 v 0.14228 q -0.4172011,-0.0265 -0.6752388,-0.0265 -0.2580376,0 -0.6824734,0.0265 v -0.14228 q 0.069935,-0.0193 0.1036974,-0.0241 0.3183268,-0.0627 0.3569119,-0.10852 0.057878,-0.0675 0.060289,-0.33038 l 0.012058,-0.5426 q 0.012058,-0.74277 0.012058,-1.43971 l -0.00241,-0.29421 q 0,-0.17604 -0.021704,-0.21945 -0.021704,-0.0458 -0.069935,-0.0651 -0.09164,-0.0362 -0.4099664,-0.0844 -0.04582,-0.007 -0.1350477,-0.0289 z"
         style="font-style:normal;font-variant:normal;font-weight:normal;font-stretch:normal;font-size:4.93888903px;font-family:'Calisto MT';-inkscape-font-specification:'Calisto MT'"
         id="path950" />
      <path
         d="m -4.5816332,236.7508 -0.1567519,-0.0169 q 0.048231,-0.25081 0.067524,-0.4992 0.4702556,-0.21222 0.8488716,-0.21222 0.1639865,0 0.2966227,0.0482 0.1326362,0.0458 0.2098063,0.13022 0.07717,0.082 0.1157552,0.19775 0.040997,0.11575 0.040997,0.36897 l -0.021704,0.99598 q 0,0.20257 0.04582,0.26527 0.04582,0.0627 0.1181668,0.0627 0.086816,0 0.2725071,-0.13023 l 0.074758,0.0989 q -0.3400309,0.30386 -0.3713813,0.32315 -0.067524,0.0386 -0.1688096,0.0386 -0.1567519,0 -0.2435683,-0.0772 -0.084405,-0.0796 -0.1133436,-0.26527 -0.2893881,0.22428 -0.429259,0.28215 -0.1398708,0.0603 -0.3038574,0.0603 -0.2676839,0 -0.4316705,-0.16157 -0.1639865,-0.16399 -0.1639865,-0.4172 0,-0.15434 0.057878,-0.27733 0.057878,-0.1254 0.1663981,-0.21945 0.084405,-0.0699 0.2845649,-0.16881 0.4702556,-0.2291 0.8199328,-0.36897 -0.012058,-0.34004 -0.1133437,-0.45097 -0.1012858,-0.11093 -0.3110921,-0.11093 -0.1977485,0 -0.340031,0.12299 -0.1398708,0.12058 -0.2508029,0.38103 z m 1.0152697,0.26768 q -0.629419,0.28216 -0.7620552,0.41238 -0.1302246,0.12781 -0.1302246,0.30868 0,0.18087 0.098874,0.28939 0.098874,0.10852 0.2315105,0.10852 0.1374593,0 0.2966227,-0.0892 0.161575,-0.0916 0.2122179,-0.20498 0.053055,-0.11335 0.053055,-0.41238 z"
         style="font-style:normal;font-variant:normal;font-weight:normal;font-stretch:normal;font-size:4.93888903px;font-family:'Calisto MT';-inkscape-font-specification:'Calisto MT'"
         id="path952" />
      <path
         d="m -1.058334,236.67845 -0.1688097,-0.0145 q -0.016881,-0.21222 -0.1519287,-0.33521 -0.1326362,-0.12299 -0.3327962,-0.12299 -0.1736328,0 -0.2773302,0.0941 -0.1012858,0.0916 -0.1012858,0.21221 0,0.10611 0.079582,0.19775 0.1109321,0.1254 0.4774902,0.30627 0.3665582,0.18087 0.4943712,0.34003 0.12540153,0.16158 0.12540153,0.36656 0,0.29421 -0.23633353,0.50884 -0.2363336,0.21463 -0.6463,0.21463 -0.2966227,0 -0.6559462,-0.13264 0.038585,-0.34003 0.038585,-0.62218 h 0.1663981 q 0.069936,0.28456 0.2122179,0.40755 0.144694,0.12299 0.3545003,0.12299 0.1881023,0 0.2917996,-0.094 0.1036974,-0.0965 0.1036974,-0.24357 0,-0.14228 -0.1012858,-0.26286 -0.1036974,-0.12057 -0.4606093,-0.29903 -0.3569119,-0.17846 -0.4750786,-0.32315 -0.1205784,-0.14469 -0.1205784,-0.32797 0,-0.26045 0.233922,-0.46544 0.2363336,-0.20739 0.6270074,-0.20739 0.2725071,0 0.58842232,0.12781 -0.0337619,0.19534 -0.0651123,0.55225 z"
         style="font-style:normal;font-variant:normal;font-weight:normal;font-stretch:normal;font-size:4.93888903px;font-family:'Calisto MT';-inkscape-font-specification:'Calisto MT'"
         id="path954" />
      <path
         d="m 0.84198034,236.67845 -0.16880968,-0.0145 q -0.016881,-0.21222 -0.15192872,-0.33521 -0.13263618,-0.12299 -0.33279623,-0.12299 -0.17363282,0 -0.27733019,0.0941 -0.10128581,0.0916 -0.10128581,0.21221 0,0.10611 0.0795817,0.19775 0.11093208202,0.1254 0.47749025,0.30627 0.36655817,0.18087 0.49437122,0.34003 0.12540148,0.16158 0.12540148,0.36656 0,0.29421 -0.23633356,0.50884 -0.23633356,0.21463 -0.64629993,0.21463 -0.29662273,0 -0.6559462,-0.13264 0.0385851,-0.34003 0.0385851,-0.62218 h 0.16639812 q 0.0699354,0.28456 0.21221789,0.40755 0.14469401,0.12299 0.35450033,0.12299 0.18810222,0 0.2917996,-0.094 0.10369737,-0.0965 0.10369737,-0.24357 0,-0.14228 -0.10128581,-0.26286 -0.10369737,-0.12057 -0.46060928,-0.29903 -0.3569119,-0.17846 -0.47507868,-0.32315 -0.12057834,-0.14469 -0.12057834,-0.32797 0,-0.26045 0.23392199,-0.46544 0.23633355,-0.20739 0.62700739,-0.20739 0.27250706,0 0.58842233,0.12781 -0.0337619,0.19534 -0.0651123,0.55225 z"
         style="font-style:normal;font-variant:normal;font-weight:normal;font-stretch:normal;font-size:4.93888903px;font-family:'Calisto MT';-inkscape-font-specification:'Calisto MT'"
         id="path956" />
      <path
         d="m 2.6000126,237.26205 q 0,-0.5836 0.3303846,-0.92363 0.3303847,-0.34003 0.8681641,-0.34003 0.5088406,0 0.8054634,0.30627 0.2990342,0.30627 0.2990342,0.8561 0,0.59325 -0.3352078,0.94052 -0.3327962,0.34485 -0.8633409,0.34485 -0.5136638,0 -0.8102865,-0.30868 -0.2942111,-0.30868 -0.2942111,-0.8754 z m 0.4630208,-0.20981 q 0,0.3955 0.050643,0.5836 0.079582,0.30386 0.250803,0.4582 0.1736328,0.15193 0.4027316,0.15193 0.2966228,0 0.4871365,-0.22428 0.1905138,-0.22668 0.1905138,-0.72588 0,-0.55948 -0.217041,-0.82717 -0.2146294,-0.27009 -0.506429,-0.27009 -0.2893881,0 -0.4750787,0.21222 -0.1832791,0.2098 -0.1832791,0.64147 z"
         style="font-style:normal;font-variant:normal;font-weight:normal;font-stretch:normal;font-size:4.93888903px;font-family:'Calisto MT';-inkscape-font-specification:'Calisto MT'"
         id="path958" />
      <path
         d="m 5.2213859,238.38825 v -0.13505 q 0.2966228,-0.0675 0.3255616,-0.12057 0.038585,-0.0699 0.038585,-0.94052 0,-0.42443 0.00723,-0.85128 -0.1760443,0.005 -0.3472656,0.0217 v -0.11576 q 0.178456,-0.0724 0.3472656,-0.17363 0.00241,-0.41479 0.024116,-0.51125 0.036173,-0.17364 0.178456,-0.34486 0.1422824,-0.17122 0.3737928,-0.28697 0.1663981,-0.0868 0.3593235,-0.0868 0.144694,0 0.2676839,0.0338 0.1229899,0.0338 0.3135037,0.13023 -0.091639,0.2508 -0.1663981,0.51607 l -0.1326362,-0.0169 q -0.036173,-0.24116 -0.1422824,-0.34003 -0.1036974,-0.0989 -0.2749186,-0.0989 -0.1495172,0 -0.2483914,0.0941 -0.096463,0.0941 -0.1350478,0.28697 -0.026527,0.12782 -0.026527,0.51849 0,0.0482 0.00241,0.14228 0.1712213,0.005 0.2049832,0.005 l 0.4099664,-0.005 0.03135,0.0314 q -0.074759,0.1037 -0.1229899,0.22187 -0.2652724,-0.0169 -0.5233101,-0.0217 -0.00482,0.34486 -0.00482,0.8971 l 0.00482,0.62942 v 0.0289 q 0,0.19052 0.038585,0.23392 0.040997,0.0434 0.3110921,0.1037 0.028939,0.007 0.081993,0.0193 v 0.13505 q -0.3255615,-0.0265 -0.5594835,-0.0265 -0.2049832,0 -0.6366537,0.0265 z"
         style="font-style:normal;font-variant:normal;font-weight:normal;font-stretch:normal;font-size:4.93888903px;font-family:'Calisto MT';-inkscape-font-specification:'Calisto MT'"
         id="path960" />
      <path
         d="m 8.4721782,236.47106 v -0.13746 q 0.450963,-0.11335 0.7692899,-0.3111 l 0.062701,0.0458 q -0.038585,0.23393 -0.04582,0.51126 0.2917996,-0.3545 0.4075548,-0.43409 0.1157553,-0.0796 0.2725071,-0.0796 0.1036971,0 0.2315101,0.0506 -0.05305,0.24598 -0.08682,0.5016 H 9.9625266 q -0.021704,-0.11575 -0.072347,-0.1664 -0.050643,-0.0531 -0.1133437,-0.0531 -0.096463,0 -0.2073947,0.0892 -0.1639866,0.13263 -0.2387452,0.30627 -0.072347,0.17122 -0.072347,0.48713 0,0.55949 0.03135,0.75241 0.012058,0.0724 0.065112,0.11335 0.055466,0.041 0.3424425,0.1061 v 0.13505 q -0.3014458,-0.0265 -0.5474257,-0.0265 -0.2049832,0 -0.6776503,0.0265 v -0.13505 q 0.3303847,-0.082 0.3713813,-0.1254 0.043408,-0.0458 0.043408,-0.24115 l 0.00482,-0.52331 q 0,-0.76929 -0.014469,-0.82717 -0.024116,-0.0965 -0.1350478,-0.0965 -0.062701,0 -0.2073947,0.0241 -0.021704,0.002 -0.062701,0.007 z"
         style="font-style:normal;font-variant:normal;font-weight:normal;font-stretch:normal;font-size:4.93888903px;font-family:'Calisto MT';-inkscape-font-specification:'Calisto MT'"
         id="path962" />
      <path
         d="m 12.178756,237.80465 0.09164,0.14229 -0.479902,0.3545 q -0.09887,0.0675 -0.204983,0.0989 -0.15434,0.0458 -0.315915,0.0458 -0.393085,0 -0.672827,-0.31592 -0.27733,-0.31591 -0.27733,-0.85369 0,-0.57878 0.332796,-0.92845 0.335208,-0.34968 0.817521,-0.34968 0.373793,0 0.576365,0.20739 0.204983,0.20499 0.209806,0.62942 -0.101286,0.0579 -0.185691,0.14229 -0.171221,-0.002 -0.214629,-0.002 -0.639065,0 -1.111733,0.0193 -0.0024,0.54019 0.183279,0.81752 0.185691,0.27974 0.496783,0.27974 0.156752,0 0.327973,-0.0603 0.171222,-0.0627 0.426848,-0.22669 z m -0.352089,-1.05626 q -0.01447,-0.23875 -0.106109,-0.36174 -0.135048,-0.18087 -0.364147,-0.18087 -0.197748,0 -0.352088,0.13746 -0.154341,0.13505 -0.229099,0.44855 0.08923,0.002 0.135048,0.002 0.395496,0 0.916395,-0.0458 z"
         style="font-style:normal;font-variant:normal;font-weight:normal;font-stretch:normal;font-size:4.93888903px;font-family:'Calisto MT';-inkscape-font-specification:'Calisto MT'"
         id="path964" />
      <path
         d="m 12.897404,236.7508 -0.156752,-0.0169 q 0.04823,-0.25081 0.06752,-0.4992 0.470256,-0.21222 0.848872,-0.21222 0.163986,0 0.296622,0.0482 0.132637,0.0458 0.209807,0.13022 0.07717,0.082 0.115755,0.19775 0.041,0.11575 0.041,0.36897 l -0.0217,0.99598 q 0,0.20257 0.04582,0.26527 0.04582,0.0627 0.118167,0.0627 0.08682,0 0.272507,-0.13023 l 0.07476,0.0989 q -0.340031,0.30386 -0.371382,0.32315 -0.06752,0.0386 -0.168809,0.0386 -0.156752,0 -0.243569,-0.0772 -0.0844,-0.0796 -0.113343,-0.26527 -0.289388,0.22428 -0.429259,0.28215 -0.139871,0.0603 -0.303858,0.0603 -0.267684,0 -0.43167,-0.16157 -0.163987,-0.16399 -0.163987,-0.4172 0,-0.15434 0.05788,-0.27733 0.05788,-0.1254 0.166398,-0.21945 0.08441,-0.0699 0.284565,-0.16881 0.470256,-0.2291 0.819933,-0.36897 -0.01206,-0.34004 -0.113344,-0.45097 -0.101286,-0.11093 -0.311092,-0.11093 -0.197749,0 -0.340031,0.12299 -0.139871,0.12058 -0.250803,0.38103 z m 1.01527,0.26768 q -0.629419,0.28216 -0.762055,0.41238 -0.130225,0.12781 -0.130225,0.30868 0,0.18087 0.09887,0.28939 0.09887,0.10852 0.231511,0.10852 0.137459,0 0.296622,-0.0892 0.161575,-0.0916 0.212218,-0.20498 0.05306,-0.11335 0.05306,-0.41238 z"
         style="font-style:normal;font-variant:normal;font-weight:normal;font-stretch:normal;font-size:4.93888903px;font-family:'Calisto MT';-inkscape-font-specification:'Calisto MT'"
         id="path966" />
      <path
         d="m 16.804142,236.83279 -0.161575,-0.0121 q -0.0096,-0.30385 -0.15434,-0.44855 -0.142282,-0.1471 -0.390674,-0.1471 -0.178456,0 -0.342442,0.0989 -0.163987,0.0965 -0.258038,0.31833 -0.09164,0.21945 -0.09164,0.49919 0,0.44855 0.217041,0.70177 0.219452,0.2508 0.506429,0.2508 0.301446,0 0.725881,-0.23874 l 0.08923,0.14469 q -0.378616,0.27974 -0.629419,0.39309 -0.120578,0.0531 -0.294211,0.0531 -0.422024,0 -0.682473,-0.24598 -0.344854,-0.32556 -0.344854,-0.88263 0,-0.57637 0.361735,-0.94775 0.361735,-0.37138 0.892279,-0.37138 0.361736,0 0.696943,0.18569 -0.01688,0.082 -0.04823,0.21222 -0.041,0.17122 -0.09164,0.43649 z"
         style="font-style:normal;font-variant:normal;font-weight:normal;font-stretch:normal;font-size:4.93888903px;font-family:'Calisto MT';-inkscape-font-specification:'Calisto MT'"
         id="path968" />
      <path
         d="m 17.756711,235.49196 h 0.139871 l -0.05547,0.61495 0.668004,-0.007 0.01929,0.0386 q -0.06029,0.0989 -0.110932,0.21222 -0.284564,-0.0145 -0.576364,-0.0193 l -0.0217,1.23954 v 0.0145 q 0,0.28698 0.0627,0.41479 0.06511,0.1254 0.219452,0.1254 0.127813,0 0.33762,-0.10852 l 0.06994,0.13746 q -0.262861,0.16399 -0.40032,0.21463 -0.137459,0.0531 -0.238745,0.0531 -0.159164,0 -0.270096,-0.082 -0.110932,-0.0844 -0.147105,-0.23151 -0.0217,-0.082 -0.0217,-0.50161 0,-0.44855 0.02653,-1.27571 -0.16881,0.005 -0.349677,0.0193 v -0.13023 q 0.202571,-0.0916 0.349677,-0.2508 0.149517,-0.15916 0.299034,-0.47749 z"
         style="font-style:normal;font-variant:normal;font-weight:normal;font-stretch:normal;font-size:4.93888903px;font-family:'Calisto MT';-inkscape-font-specification:'Calisto MT'"
         id="path970" />
      <path
         d="m 19.032429,236.7508 -0.156752,-0.0169 q 0.04823,-0.25081 0.06752,-0.4992 0.470256,-0.21222 0.848872,-0.21222 0.163986,0 0.296622,0.0482 0.132637,0.0458 0.209807,0.13022 0.07717,0.082 0.115755,0.19775 0.041,0.11575 0.041,0.36897 l -0.02171,0.99598 q 0,0.20257 0.04582,0.26527 0.04582,0.0627 0.118167,0.0627 0.08682,0 0.272507,-0.13023 l 0.07476,0.0989 q -0.340031,0.30386 -0.371382,0.32315 -0.06752,0.0386 -0.168809,0.0386 -0.156752,0 -0.243569,-0.0772 -0.0844,-0.0796 -0.113343,-0.26527 -0.289388,0.22428 -0.429259,0.28215 -0.139871,0.0603 -0.303858,0.0603 -0.267684,0 -0.43167,-0.16157 -0.163987,-0.16399 -0.163987,-0.4172 0,-0.15434 0.05788,-0.27733 0.05788,-0.1254 0.166398,-0.21945 0.08441,-0.0699 0.284565,-0.16881 0.470256,-0.2291 0.819933,-0.36897 -0.01206,-0.34004 -0.113344,-0.45097 -0.101286,-0.11093 -0.311092,-0.11093 -0.197748,0 -0.340031,0.12299 -0.139871,0.12058 -0.250803,0.38103 z m 1.01527,0.26768 q -0.629419,0.28216 -0.762055,0.41238 -0.130225,0.12781 -0.130225,0.30868 0,0.18087 0.09887,0.28939 0.09887,0.10852 0.231511,0.10852 0.137459,0 0.296622,-0.0892 0.161575,-0.0916 0.212218,-0.20498 0.05306,-0.11335 0.05306,-0.41238 z"
         style="font-style:normal;font-variant:normal;font-weight:normal;font-stretch:normal;font-size:4.93888903px;font-family:'Calisto MT';-inkscape-font-specification:'Calisto MT'"
         id="path972" />
      <path
         d="m 21.031618,236.46864 v -0.13987 q 0.434082,-0.10128 0.786171,-0.30627 l 0.06511,0.041 q -0.03376,0.20498 -0.041,0.42203 l 0.306269,-0.30386 q 0.07717,-0.0675 0.180867,-0.10611 0.142282,-0.0531 0.296623,-0.0531 0.344854,0 0.520898,0.2291 0.118167,0.15193 0.118167,0.52331 l -0.0072,0.5836 q 0,0.58601 0.01447,0.69212 0.01206,0.0724 0.04582,0.10129 0.03376,0.0289 0.229099,0.0748 0.03617,0.01 0.108521,0.0265 v 0.13505 q -0.284565,-0.0265 -0.506429,-0.0265 -0.192926,0 -0.66077,0.0265 v -0.13505 q 0.279742,-0.082 0.313504,-0.11093 0.03617,-0.0289 0.04341,-0.0941 0.02653,-0.23874 0.02653,-0.7307 0,-0.52573 -0.02171,-0.63425 -0.03376,-0.15916 -0.142282,-0.24598 -0.10852,-0.0868 -0.260449,-0.0868 -0.159164,0 -0.313504,0.094 -0.15434,0.0916 -0.229099,0.24839 -0.07235,0.15675 -0.07235,0.46302 0,0.86817 0.03617,0.94051 0.03617,0.0699 0.282153,0.13264 0.03135,0.007 0.09164,0.0241 v 0.13505 q -0.32315,-0.0265 -0.542603,-0.0265 -0.212218,0 -0.63183,0.0265 v -0.13505 q 0.284564,-0.0675 0.32315,-0.0989 0.02412,-0.0193 0.03376,-0.10129 0.02653,-0.22909 0.02653,-0.62459 0,-0.81752 -0.01688,-0.88746 -0.02653,-0.10128 -0.142283,-0.10128 -0.05305,0 -0.166398,0.0169 -0.03135,0.005 -0.09405,0.012 z"
         style="font-style:normal;font-variant:normal;font-weight:normal;font-stretch:normal;font-size:4.93888903px;font-family:'Calisto MT';-inkscape-font-specification:'Calisto MT'"
         id="path974" />
      <path
         d="m 24.402988,235.49196 h 0.13987 l -0.05547,0.61495 0.668004,-0.007 0.01929,0.0386 q -0.06029,0.0989 -0.110932,0.21222 -0.284565,-0.0145 -0.576365,-0.0193 l -0.0217,1.23954 v 0.0145 q 0,0.28698 0.0627,0.41479 0.06511,0.1254 0.219453,0.1254 0.127813,0 0.337619,-0.10852 l 0.06994,0.13746 q -0.26286,0.16399 -0.40032,0.21463 -0.137459,0.0531 -0.238745,0.0531 -0.159163,0 -0.270095,-0.082 -0.110932,-0.0844 -0.147106,-0.23151 -0.0217,-0.082 -0.0217,-0.50161 0,-0.44855 0.02653,-1.27571 -0.168809,0.005 -0.349677,0.0193 v -0.13023 q 0.202572,-0.0916 0.349677,-0.2508 0.149517,-0.15916 0.299035,-0.47749 z"
         style="font-style:normal;font-variant:normal;font-weight:normal;font-stretch:normal;font-size:4.93888903px;font-family:'Calisto MT';-inkscape-font-specification:'Calisto MT'"
         id="path976" />
      <path
         d="m 26.780795,236.67845 -0.168809,-0.0145 q -0.01688,-0.21222 -0.151929,-0.33521 -0.132636,-0.12299 -0.332796,-0.12299 -0.173633,0 -0.27733,0.0941 -0.101286,0.0916 -0.101286,0.21221 0,0.10611 0.07958,0.19775 0.110932,0.1254 0.47749,0.30627 0.366558,0.18087 0.494371,0.34003 0.125401,0.16158 0.125401,0.36656 0,0.29421 -0.236333,0.50884 -0.236334,0.21463 -0.6463,0.21463 -0.296623,0 -0.655946,-0.13264 0.03859,-0.34003 0.03859,-0.62218 h 0.166398 q 0.06994,0.28456 0.212218,0.40755 0.144694,0.12299 0.3545,0.12299 0.188102,0 0.2918,-0.094 0.103697,-0.0965 0.103697,-0.24357 0,-0.14228 -0.101286,-0.26286 -0.103697,-0.12057 -0.460609,-0.29903 -0.356912,-0.17846 -0.475079,-0.32315 -0.120578,-0.14469 -0.120578,-0.32797 0,-0.26045 0.233922,-0.46544 0.236334,-0.20739 0.627007,-0.20739 0.272508,0 0.588423,0.12781 -0.03376,0.19534 -0.06511,0.55225 z"
         style="font-style:normal;font-variant:normal;font-weight:normal;font-stretch:normal;font-size:4.93888903px;font-family:'Calisto MT';-inkscape-font-specification:'Calisto MT'"
         id="path978" />
      <path
         d="m 28.688344,236.05386 h 2.623785 v 0.31591 h -2.623785 z m 0,1.10932 h 2.623785 v 0.31591 h -2.623785 z"
         style="font-style:normal;font-variant:normal;font-weight:normal;font-stretch:normal;font-size:4.93888903px;font-family:'Calisto MT';-inkscape-font-specification:'Calisto MT'"
         id="path980" />
      <path
         d="m 34.975297,234.8963 0.05547,0.19052 q -0.448551,0.1881 -0.730704,0.40996 -0.282154,0.21946 -0.458198,0.50402 -0.120578,0.19293 -0.217041,0.52813 0.366558,-0.27733 0.475079,-0.32797 0.110932,-0.0531 0.253214,-0.0531 0.40032,0 0.653535,0.27974 0.255626,0.27733 0.255626,0.75482 0,0.47749 -0.294211,0.87781 -0.294212,0.40032 -0.824756,0.40032 -0.455786,0 -0.764467,-0.34727 -0.308681,-0.34726 -0.308681,-0.95257 0,-0.70417 0.41479,-1.2926 0.467844,-0.66559 1.490348,-0.97186 z m -0.127813,2.51768 q 0,-0.15916 -0.07235,-0.40032 -0.06994,-0.24116 -0.229099,-0.38344 -0.159163,-0.14228 -0.368969,-0.14228 -0.16881,0 -0.32315,0.0965 -0.151929,0.0965 -0.219453,0.23633 -0.06752,0.13987 -0.06752,0.36174 0,0.5209 0.24598,0.8344 0.190514,0.24116 0.441317,0.24116 0.291799,0 0.441317,-0.25081 0.151928,-0.2508 0.151928,-0.59324 z"
         style="font-style:normal;font-variant:normal;font-weight:normal;font-stretch:normal;font-size:4.93888903px;font-family:'Calisto MT';-inkscape-font-specification:'Calisto MT'"
         id="path982" />
      <path
         d="m 36.412593,236.64228 q -0.405144,-0.30145 -0.52331,-0.4799 -0.118167,-0.17846 -0.118167,-0.39791 0,-0.34486 0.279742,-0.60048 0.279741,-0.25563 0.737939,-0.25563 0.412378,0 0.634242,0.20016 0.221864,0.20016 0.221864,0.4992 0,0.23392 -0.144694,0.44131 -0.144694,0.2074 -0.520898,0.45579 0.313504,0.21704 0.453374,0.34726 0.142283,0.13023 0.21463,0.27975 0.07476,0.14951 0.07476,0.35208 0,0.40032 -0.301445,0.68971 -0.301446,0.28698 -0.790994,0.28698 -0.450963,0 -0.699355,-0.2291 -0.24598,-0.23151 -0.24598,-0.58119 0,-0.26045 0.139871,-0.47266 0.139871,-0.21463 0.588423,-0.53537 z m 0.393085,-0.2701 q 0.272507,-0.18569 0.381028,-0.35209 0.10852,-0.16881 0.10852,-0.35932 0,-0.24357 -0.159163,-0.39791 -0.156752,-0.15675 -0.409967,-0.15675 -0.250803,0 -0.402731,0.14228 -0.149517,0.13987 -0.149517,0.34968 0,0.13987 0.05064,0.24357 0.05064,0.10369 0.178456,0.22186 0.127813,0.11817 0.402732,0.30868 z m -0.212218,0.3955 q -0.258038,0.18569 -0.383439,0.39791 -0.12299,0.2098 -0.12299,0.43167 0,0.26768 0.185691,0.45578 0.188102,0.18569 0.458197,0.18569 0.248392,0 0.412378,-0.16639 0.163987,-0.1664 0.163987,-0.40997 0,-0.15675 -0.07476,-0.29903 -0.07235,-0.14229 -0.245979,-0.30386 -0.12299,-0.11576 -0.393086,-0.2918 z"
         style="font-style:normal;font-variant:normal;font-weight:normal;font-stretch:normal;font-size:4.93888903px;font-family:'Calisto MT';-inkscape-font-specification:'Calisto MT'"
         id="path984" />
      <path
         d="m 41.604697,236.09244 0.0217,0.0338 q -0.05547,0.10852 -0.10852,0.22669 -0.178456,-0.0217 -0.371382,-0.0241 0.154341,0.24598 0.154341,0.48232 0,0.34726 -0.253215,0.58118 -0.253214,0.23393 -0.709001,0.23393 -0.120578,0 -0.258037,-0.0265 -0.180868,0.16881 -0.180868,0.24839 0,0.0651 0.06029,0.0965 0.103698,0.0555 0.532957,0.0555 l 0.424435,-0.007 q 0.376205,0 0.518487,0.1254 0.142283,0.1254 0.142283,0.37379 0,0.34727 -0.294211,0.57395 -0.429259,0.3328 -1.102086,0.3328 -0.470256,0 -0.689709,-0.1664 -0.217041,-0.1664 -0.217041,-0.36656 0,-0.0989 0.03617,-0.1664 0.01688,-0.0289 0.118167,-0.0965 l 0.381027,-0.27009 q -0.168809,-0.0338 -0.253214,-0.12541 -0.08199,-0.0916 -0.08199,-0.20498 0,-0.0772 0.04823,-0.11334 0.125401,-0.0965 0.390674,-0.34003 -0.204984,-0.10611 -0.308681,-0.27251 -0.101286,-0.16881 -0.101286,-0.39791 0,-0.36656 0.258038,-0.61013 0.260449,-0.24598 0.709001,-0.24598 0.106109,0 0.219452,0.0217 0.115755,0.0193 0.241157,0.0627 0.130224,-0.002 0.202571,-0.002 0.330385,0 0.470256,-0.0121 z m -1.673627,0.68006 q 0,0.34486 0.13987,0.51608 0.139871,0.17122 0.342443,0.17122 0.190514,0 0.315915,-0.14711 0.125402,-0.1471 0.125402,-0.43167 0,-0.3545 -0.135048,-0.51848 -0.132636,-0.16399 -0.340031,-0.16399 -0.190514,0 -0.320738,0.14469 -0.127813,0.1447 -0.127813,0.42926 z m 0.09887,1.56752 q -0.192926,0.16399 -0.265273,0.2701 -0.06994,0.10852 -0.06994,0.19774 0,0.12782 0.132636,0.22428 0.180868,0.13264 0.513664,0.13264 0.376204,0 0.619773,-0.14229 0.245979,-0.13987 0.245979,-0.38343 0,-0.1447 -0.09887,-0.22428 -0.09646,-0.0772 -0.36897,-0.0772 l -0.101285,0.002 z"
         style="font-style:normal;font-variant:normal;font-weight:normal;font-stretch:normal;font-size:4.93888903px;font-family:'Calisto MT';-inkscape-font-specification:'Calisto MT'"
         id="path986" />
    </g>
    <g
       aria-label="Mass of products = 68 g"
       style="font-style:normal;font-variant:normal;font-weight:normal;font-stretch:normal;font-size:4.93888855px;line-height:1.25;font-family:Arial;-inkscape-font-specification:Arial;letter-spacing:0px;word-spacing:0px;fill:#000000;fill-opacity:1;stroke:none;stroke-width:0.26458332"
       id="text876-5">
      <path
         d="m 112.17374,235.03072 v -0.14229 q 0.40273,0.0265 0.61254,0.0265 0.23875,0 0.51366,-0.0265 0.0989,0.25322 0.15917,0.38585 0.0796,0.17846 0.62942,1.35289 0.23392,0.4992 0.47266,0.97428 l 1.02974,-2.16559 q 0.094,-0.20016 0.22428,-0.54743 0.32315,0.0265 0.49437,0.0265 0.15916,0 0.53778,-0.0265 v 0.14229 q -0.0724,0.0193 -0.10852,0.0265 -0.33521,0.0675 -0.37379,0.0989 -0.0627,0.0482 -0.0627,0.24357 v 0.0314 l -0.01,0.76446 q 0,1.44212 0.0121,1.7508 0.002,0.0651 0.0362,0.0965 0.0362,0.0314 0.41238,0.1037 0.0314,0.005 0.094,0.0217 v 0.14228 q -0.43408,-0.0265 -0.76447,-0.0265 -0.33762,0 -0.79823,0.0265 v -0.14228 q 0.094,-0.0241 0.14229,-0.0338 0.29421,-0.0555 0.3352,-0.0772 0.0434,-0.0241 0.0579,-0.0651 0.0217,-0.0699 0.0217,-0.39067 v -2.1053 q -0.21946,0.43408 -0.99116,2.09083 -0.21222,0.45578 -0.3135,0.69694 h -0.13746 q -0.54019,-1.19855 -1.32395,-2.78777 l 0.0314,2.24758 q 0,0.26768 0.0434,0.30627 0.0434,0.0386 0.36414,0.094 0.0362,0.007 0.11094,0.0241 v 0.14228 q -0.41721,-0.0265 -0.67524,-0.0265 -0.25804,0 -0.68248,0.0265 v -0.14228 q 0.0699,-0.0193 0.1037,-0.0241 0.31833,-0.0627 0.35691,-0.10852 0.0579,-0.0675 0.0603,-0.33039 l 0.0121,-0.5426 q 0.0121,-0.74276 0.0121,-1.4397 l -0.002,-0.29421 q 0,-0.17605 -0.0217,-0.21946 -0.0217,-0.0458 -0.0699,-0.0651 -0.0916,-0.0362 -0.40997,-0.0844 -0.0458,-0.007 -0.13505,-0.0289 z"
         style="font-style:normal;font-variant:normal;font-weight:normal;font-stretch:normal;font-size:4.93888903px;font-family:'Calisto MT';-inkscape-font-specification:'Calisto MT';stroke-width:0.26458332"
         id="path913" />
      <path
         d="m 117.42855,236.67299 -0.15676,-0.0169 q 0.0482,-0.2508 0.0675,-0.49919 0.47025,-0.21222 0.84887,-0.21222 0.16399,0 0.29662,0.0482 0.13264,0.0458 0.20981,0.13023 0.0772,0.082 0.11575,0.19774 0.041,0.11576 0.041,0.36897 l -0.0217,0.99598 q 0,0.20257 0.0458,0.26527 0.0458,0.0627 0.11816,0.0627 0.0868,0 0.27251,-0.13022 l 0.0748,0.0989 q -0.34003,0.30386 -0.37138,0.32315 -0.0675,0.0386 -0.16881,0.0386 -0.15675,0 -0.24357,-0.0772 -0.0844,-0.0796 -0.11334,-0.26527 -0.28939,0.22427 -0.42926,0.28215 -0.13987,0.0603 -0.30386,0.0603 -0.26768,0 -0.43167,-0.16158 -0.16399,-0.16398 -0.16399,-0.4172 0,-0.15434 0.0579,-0.27733 0.0579,-0.1254 0.1664,-0.21945 0.0844,-0.0699 0.28456,-0.16881 0.47026,-0.2291 0.81994,-0.36897 -0.0121,-0.34003 -0.11335,-0.45096 -0.10128,-0.11093 -0.31109,-0.11093 -0.19775,0 -0.34003,0.12299 -0.13987,0.12057 -0.2508,0.38102 z m 1.01527,0.26769 q -0.62942,0.28215 -0.76206,0.41238 -0.13022,0.12781 -0.13022,0.30868 0,0.18086 0.0989,0.28938 0.0989,0.10852 0.23151,0.10852 0.13746,0 0.29662,-0.0892 0.16158,-0.0916 0.21222,-0.20499 0.0531,-0.11334 0.0531,-0.41237 z"
         style="font-style:normal;font-variant:normal;font-weight:normal;font-stretch:normal;font-size:4.93888903px;font-family:'Calisto MT';-inkscape-font-specification:'Calisto MT';stroke-width:0.26458332"
         id="path915" />
      <path
         d="m 120.95185,236.60065 -0.16881,-0.0145 q -0.0169,-0.21222 -0.15193,-0.33521 -0.13264,-0.12299 -0.3328,-0.12299 -0.17363,0 -0.27733,0.094 -0.10129,0.0916 -0.10129,0.21222 0,0.10611 0.0796,0.19775 0.11093,0.1254 0.47749,0.30627 0.36656,0.18086 0.49437,0.34003 0.1254,0.16157 0.1254,0.36656 0,0.29421 -0.23633,0.50884 -0.23634,0.21463 -0.6463,0.21463 -0.29663,0 -0.65595,-0.13264 0.0386,-0.34003 0.0386,-0.62219 h 0.1664 q 0.0699,0.28457 0.21222,0.40756 0.14469,0.12299 0.3545,0.12299 0.1881,0 0.2918,-0.094 0.1037,-0.0965 0.1037,-0.24357 0,-0.14228 -0.10129,-0.26286 -0.10369,-0.12058 -0.46061,-0.29904 -0.35691,-0.17845 -0.47508,-0.32315 -0.12057,-0.14469 -0.12057,-0.32797 0,-0.26045 0.23392,-0.46543 0.23633,-0.2074 0.62701,-0.2074 0.2725,0 0.58842,0.12782 -0.0338,0.19533 -0.0651,0.55225 z"
         style="font-style:normal;font-variant:normal;font-weight:normal;font-stretch:normal;font-size:4.93888903px;font-family:'Calisto MT';-inkscape-font-specification:'Calisto MT';stroke-width:0.26458332"
         id="path917" />
      <path
         d="m 122.85216,236.60065 -0.16881,-0.0145 q -0.0169,-0.21222 -0.15193,-0.33521 -0.13263,-0.12299 -0.33279,-0.12299 -0.17364,0 -0.27733,0.094 -0.10129,0.0916 -0.10129,0.21222 0,0.10611 0.0796,0.19775 0.11093,0.1254 0.47749,0.30627 0.36656,0.18086 0.49437,0.34003 0.1254,0.16157 0.1254,0.36656 0,0.29421 -0.23633,0.50884 -0.23633,0.21463 -0.6463,0.21463 -0.29662,0 -0.65595,-0.13264 0.0386,-0.34003 0.0386,-0.62219 h 0.1664 q 0.0699,0.28457 0.21222,0.40756 0.14469,0.12299 0.3545,0.12299 0.1881,0 0.2918,-0.094 0.10369,-0.0965 0.10369,-0.24357 0,-0.14228 -0.10128,-0.26286 -0.1037,-0.12058 -0.46061,-0.29904 -0.35691,-0.17845 -0.47508,-0.32315 -0.12058,-0.14469 -0.12058,-0.32797 0,-0.26045 0.23392,-0.46543 0.23634,-0.2074 0.62701,-0.2074 0.27251,0 0.58842,0.12782 -0.0338,0.19533 -0.0651,0.55225 z"
         style="font-style:normal;font-variant:normal;font-weight:normal;font-stretch:normal;font-size:4.93888903px;font-family:'Calisto MT';-inkscape-font-specification:'Calisto MT';stroke-width:0.26458332"
         id="path919" />
      <path
         d="m 124.61019,237.18425 q 0,-0.5836 0.33039,-0.92363 0.33038,-0.34004 0.86816,-0.34004 0.50884,0 0.80546,0.30627 0.29904,0.30627 0.29904,0.85611 0,0.59325 -0.33521,0.94051 -0.3328,0.34486 -0.86334,0.34486 -0.51366,0 -0.81029,-0.30869 -0.29421,-0.30868 -0.29421,-0.87539 z m 0.46302,-0.20981 q 0,0.3955 0.0506,0.5836 0.0796,0.30386 0.2508,0.4582 0.17363,0.15193 0.40273,0.15193 0.29662,0 0.48714,-0.22428 0.19051,-0.22669 0.19051,-0.72588 0,-0.55949 -0.21704,-0.82717 -0.21463,-0.2701 -0.50643,-0.2701 -0.28939,0 -0.47508,0.21222 -0.18328,0.20981 -0.18328,0.64148 z"
         style="font-style:normal;font-variant:normal;font-weight:normal;font-stretch:normal;font-size:4.93888903px;font-family:'Calisto MT';-inkscape-font-specification:'Calisto MT';stroke-width:0.26458332"
         id="path921" />
      <path
         d="m 127.23157,238.31045 v -0.13505 q 0.29662,-0.0675 0.32556,-0.12058 0.0386,-0.0699 0.0386,-0.94051 0,-0.42444 0.007,-0.85128 -0.17605,0.005 -0.34727,0.0217 v -0.11575 q 0.17846,-0.0724 0.34727,-0.17364 0.002,-0.41479 0.0241,-0.51125 0.0362,-0.17363 0.17846,-0.34485 0.14228,-0.17122 0.37379,-0.28698 0.1664,-0.0868 0.35932,-0.0868 0.1447,0 0.26769,0.0338 0.12299,0.0338 0.3135,0.13022 -0.0916,0.2508 -0.1664,0.51608 l -0.13263,-0.0169 q -0.0362,-0.24116 -0.14228,-0.34004 -0.1037,-0.0989 -0.27492,-0.0989 -0.14952,0 -0.24839,0.094 -0.0965,0.0941 -0.13505,0.28698 -0.0265,0.12781 -0.0265,0.51848 0,0.0482 0.002,0.14229 0.17122,0.005 0.20499,0.005 l 0.40996,-0.005 0.0313,0.0314 q -0.0748,0.10369 -0.12299,0.22186 -0.26527,-0.0169 -0.52331,-0.0217 -0.005,0.34485 -0.005,0.8971 l 0.005,0.62942 v 0.0289 q 0,0.19051 0.0386,0.23392 0.041,0.0434 0.31109,0.1037 0.0289,0.007 0.082,0.0193 v 0.13505 q -0.32556,-0.0265 -0.55948,-0.0265 -0.20498,0 -0.63665,0.0265 z"
         style="font-style:normal;font-variant:normal;font-weight:normal;font-stretch:normal;font-size:4.93888903px;font-family:'Calisto MT';-inkscape-font-specification:'Calisto MT';stroke-width:0.26458332"
         id="path923" />
      <path
         d="m 130.43654,236.38843 v -0.13505 q 0.49919,-0.14469 0.75723,-0.30386 l 0.0796,0.0482 q -0.0338,0.20981 -0.0434,0.46061 0.30627,-0.34967 0.46061,-0.44372 0.11576,-0.0699 0.29904,-0.0699 0.38344,0 0.627,0.26768 0.24598,0.26528 0.24598,0.75724 0,0.3979 -0.16398,0.70176 -0.16399,0.30145 -0.46785,0.49196 -0.30144,0.19052 -0.57877,0.19052 -0.0892,0 -0.19775,-0.0265 -0.10611,-0.0265 -0.2291,-0.0772 0.007,0.64148 0.0217,0.75482 0.01,0.0627 0.0458,0.0916 0.0362,0.0314 0.27733,0.0892 0.0338,0.007 0.10129,0.0265 v 0.13264 q -0.37379,-0.0265 -0.58601,-0.0265 -0.17122,0 -0.66318,0.0265 v -0.13264 l 0.11575,-0.0289 q 0.2074,-0.0458 0.25081,-0.094 0.0434,-0.0482 0.0506,-0.19292 0.005,-0.0965 0.005,-1.11415 l -0.007,-1.0008 0.002,-0.0796 q 0,-0.24115 -0.0362,-0.29903 -0.0217,-0.0362 -0.0868,-0.0362 -0.0699,0 -0.27974,0.0217 z m 0.78135,1.48311 q 0.13263,0.11576 0.27009,0.17605 0.13987,0.0579 0.28698,0.0579 0.26768,0 0.47025,-0.23392 0.20499,-0.23633 0.20499,-0.67041 0,-0.44614 -0.20499,-0.70177 -0.15193,-0.19292 -0.39549,-0.19292 -0.15917,0 -0.31592,0.0965 -0.15675,0.0965 -0.23151,0.2508 -0.0748,0.15193 -0.0796,0.38344 z"
         style="font-style:normal;font-variant:normal;font-weight:normal;font-stretch:normal;font-size:4.93888903px;font-family:'Calisto MT';-inkscape-font-specification:'Calisto MT';stroke-width:0.26458332"
         id="path925" />
      <path
         d="m 133.10614,236.39325 v -0.13746 q 0.45097,-0.11334 0.76929,-0.31109 l 0.0627,0.0458 q -0.0386,0.23392 -0.0458,0.51125 0.2918,-0.3545 0.40756,-0.43408 0.11575,-0.0796 0.27251,-0.0796 0.10369,0 0.23151,0.0506 -0.0531,0.24598 -0.0868,0.50161 h -0.12058 q -0.0217,-0.11576 -0.0724,-0.1664 -0.0506,-0.0531 -0.11334,-0.0531 -0.0965,0 -0.20739,0.0892 -0.16399,0.13264 -0.23875,0.30627 -0.0724,0.17122 -0.0724,0.48714 0,0.55948 0.0314,0.75241 0.0121,0.0723 0.0651,0.11334 0.0555,0.041 0.34244,0.10611 v 0.13505 q -0.30145,-0.0265 -0.54743,-0.0265 -0.20498,0 -0.67765,0.0265 v -0.13505 q 0.33039,-0.082 0.37138,-0.1254 0.0434,-0.0458 0.0434,-0.24116 l 0.005,-0.52331 q 0,-0.76929 -0.0145,-0.82717 -0.0241,-0.0965 -0.13505,-0.0965 -0.0627,0 -0.2074,0.0241 -0.0217,0.002 -0.0627,0.007 z"
         style="font-style:normal;font-variant:normal;font-weight:normal;font-stretch:normal;font-size:4.93888903px;font-family:'Calisto MT';-inkscape-font-specification:'Calisto MT';stroke-width:0.26458332"
         id="path927" />
      <path
         d="m 134.96064,237.18425 q 0,-0.5836 0.33038,-0.92363 0.33039,-0.34004 0.86817,-0.34004 0.50884,0 0.80546,0.30627 0.29903,0.30627 0.29903,0.85611 0,0.59325 -0.3352,0.94051 -0.3328,0.34486 -0.86335,0.34486 -0.51366,0 -0.81028,-0.30869 -0.29421,-0.30868 -0.29421,-0.87539 z m 0.46302,-0.20981 q 0,0.3955 0.0506,0.5836 0.0796,0.30386 0.2508,0.4582 0.17364,0.15193 0.40274,0.15193 0.29662,0 0.48713,-0.22428 0.19052,-0.22669 0.19052,-0.72588 0,-0.55949 -0.21705,-0.82717 -0.21462,-0.2701 -0.50642,-0.2701 -0.28939,0 -0.47508,0.21222 -0.18328,0.20981 -0.18328,0.64148 z"
         style="font-style:normal;font-variant:normal;font-weight:normal;font-stretch:normal;font-size:4.93888903px;font-family:'Calisto MT';-inkscape-font-specification:'Calisto MT';stroke-width:0.26458332"
         id="path929" />
      <path
         d="m 138.88667,235.214 v -0.13264 q 0.26045,-0.0748 0.37861,-0.12058 0.11817,-0.0482 0.40033,-0.19534 l 0.0603,0.0482 q -0.053,0.55948 -0.053,2.08359 0,0.84405 0.0217,0.94051 0.0217,0.0965 0.1447,0.0965 0.0723,0 0.25562,-0.0313 v 0.13023 q -0.50401,0.14951 -0.78134,0.31109 l -0.0603,-0.0458 q 0.0289,-0.18087 0.0362,-0.36174 -0.30145,0.27251 -0.44373,0.34004 -0.13987,0.0675 -0.33521,0.0675 -0.36897,0 -0.61253,-0.27492 -0.24116,-0.27733 -0.24116,-0.78376 0,-0.34726 0.11817,-0.59807 0.0892,-0.19292 0.25803,-0.36414 0.16881,-0.17364 0.37621,-0.27492 0.2098,-0.1037 0.41961,-0.1037 0.0965,0 0.21463,0.0241 0.11817,0.0241 0.25804,0.0723 0.005,-0.12058 0.005,-0.13987 0,-0.56672 -0.0217,-0.62701 -0.0289,-0.0892 -0.15917,-0.0892 -0.0434,0 -0.15434,0.0169 -0.0289,0.005 -0.0844,0.0121 z m 0.41479,1.86896 q 0,-0.47508 -0.0217,-0.54984 -0.041,-0.14469 -0.19051,-0.24357 -0.14711,-0.10128 -0.36656,-0.10128 -0.27492,0 -0.46784,0.2291 -0.19293,0.22668 -0.19293,0.668 0,0.45338 0.19534,0.69212 0.19534,0.23633 0.46784,0.23633 0.18087,0 0.33039,-0.10369 0.14952,-0.1037 0.19775,-0.25081 0.0482,-0.1471 0.0482,-0.57636 z"
         style="font-style:normal;font-variant:normal;font-weight:normal;font-stretch:normal;font-size:4.93888903px;font-family:'Calisto MT';-inkscape-font-specification:'Calisto MT';stroke-width:0.26458332"
         id="path931" />
      <path
         d="m 140.15515,236.22927 v -0.13505 q 0.43891,-0.0241 0.80788,-0.10611 l 0.0603,0.0458 q -0.0507,0.4172 -0.0507,1.01286 0,0.51848 0.0314,0.66318 0.0338,0.14228 0.14229,0.22427 0.10852,0.082 0.26045,0.082 0.17363,0 0.32556,-0.0941 0.15434,-0.0941 0.21463,-0.23875 0.0603,-0.14469 0.0603,-0.44614 0,-0.0362 -0.0145,-0.8127 -0.0121,-0.1037 -0.0627,-0.13987 -0.0482,-0.0362 -0.27251,-0.0482 l -0.0868,-0.007 v -0.13505 q 0.51608,-0.0386 0.80547,-0.10611 l 0.0627,0.0458 q -0.0217,0.20016 -0.0338,0.5016 -0.01,0.29904 -0.01,0.69936 0,0.50402 0.0265,0.59807 0.0265,0.094 0.13504,0.094 0.0627,0 0.25322,-0.0289 v 0.13505 q -0.24839,0.0651 -0.41962,0.13263 -0.1688,0.0675 -0.35932,0.17846 l -0.0724,-0.0531 q 0.0314,-0.17845 0.0362,-0.35691 -0.28457,0.26528 -0.42685,0.33762 -0.14228,0.0724 -0.31833,0.0724 -0.33279,0 -0.49678,-0.16399 -0.1664,-0.16157 -0.1664,-0.49437 v -0.84405 q -0.002,-0.45096 -0.053,-0.51848 -0.0482,-0.0675 -0.29421,-0.0844 -0.0289,-0.002 -0.0844,-0.01 z"
         style="font-style:normal;font-variant:normal;font-weight:normal;font-stretch:normal;font-size:4.93888903px;font-family:'Calisto MT';-inkscape-font-specification:'Calisto MT';stroke-width:0.26458332"
         id="path933" />
      <path
         d="m 144.84324,236.75499 -0.16158,-0.0121 q -0.01,-0.30386 -0.15434,-0.44855 -0.14228,-0.14711 -0.39067,-0.14711 -0.17846,0 -0.34244,0.0989 -0.16399,0.0965 -0.25804,0.31832 -0.0916,0.21946 -0.0916,0.4992 0,0.44855 0.21704,0.70176 0.21945,0.25081 0.50643,0.25081 0.30145,0 0.72588,-0.23875 l 0.0892,0.1447 q -0.37862,0.27974 -0.62942,0.39308 -0.12058,0.0531 -0.29421,0.0531 -0.42202,0 -0.68247,-0.24598 -0.34486,-0.32557 -0.34486,-0.88264 0,-0.57636 0.36174,-0.94774 0.36173,-0.37139 0.89228,-0.37139 0.36173,0 0.69694,0.1857 -0.0169,0.082 -0.0482,0.21221 -0.041,0.17122 -0.0916,0.4365 z"
         style="font-style:normal;font-variant:normal;font-weight:normal;font-stretch:normal;font-size:4.93888903px;font-family:'Calisto MT';-inkscape-font-specification:'Calisto MT';stroke-width:0.26458332"
         id="path935" />
      <path
         d="m 145.79581,235.41416 h 0.13987 l -0.0555,0.61495 0.66801,-0.007 0.0193,0.0386 q -0.0603,0.0989 -0.11093,0.21221 -0.28457,-0.0145 -0.57637,-0.0193 l -0.0217,1.23955 v 0.0145 q 0,0.28697 0.0627,0.41479 0.0651,0.1254 0.21945,0.1254 0.12782,0 0.33762,-0.10852 l 0.0699,0.13746 q -0.26286,0.16398 -0.40032,0.21462 -0.13746,0.0531 -0.23875,0.0531 -0.15916,0 -0.27009,-0.082 -0.11094,-0.0844 -0.14711,-0.23151 -0.0217,-0.082 -0.0217,-0.50161 0,-0.44855 0.0265,-1.27572 -0.16881,0.005 -0.34967,0.0193 v -0.13022 q 0.20257,-0.0916 0.34967,-0.2508 0.14952,-0.15917 0.29904,-0.47749 z"
         style="font-style:normal;font-variant:normal;font-weight:normal;font-stretch:normal;font-size:4.93888903px;font-family:'Calisto MT';-inkscape-font-specification:'Calisto MT';stroke-width:0.26458332"
         id="path937" />
      <path
         d="m 148.17361,236.60065 -0.16881,-0.0145 q -0.0169,-0.21222 -0.15193,-0.33521 -0.13263,-0.12299 -0.33279,-0.12299 -0.17364,0 -0.27733,0.094 -0.10129,0.0916 -0.10129,0.21222 0,0.10611 0.0796,0.19775 0.11094,0.1254 0.47749,0.30627 0.36656,0.18086 0.49437,0.34003 0.12541,0.16157 0.12541,0.36656 0,0.29421 -0.23634,0.50884 -0.23633,0.21463 -0.6463,0.21463 -0.29662,0 -0.65594,-0.13264 0.0386,-0.34003 0.0386,-0.62219 h 0.1664 q 0.0699,0.28457 0.21222,0.40756 0.14469,0.12299 0.3545,0.12299 0.1881,0 0.2918,-0.094 0.10369,-0.0965 0.10369,-0.24357 0,-0.14228 -0.10128,-0.26286 -0.1037,-0.12058 -0.46061,-0.29904 -0.35691,-0.17845 -0.47508,-0.32315 -0.12058,-0.14469 -0.12058,-0.32797 0,-0.26045 0.23392,-0.46543 0.23634,-0.2074 0.62701,-0.2074 0.27251,0 0.58842,0.12782 -0.0338,0.19533 -0.0651,0.55225 z"
         style="font-style:normal;font-variant:normal;font-weight:normal;font-stretch:normal;font-size:4.93888903px;font-family:'Calisto MT';-inkscape-font-specification:'Calisto MT';stroke-width:0.26458332"
         id="path939" />
      <path
         d="m 150.08116,235.97605 h 2.62379 v 0.31592 h -2.62379 z m 0,1.10932 h 2.62379 v 0.31592 h -2.62379 z"
         style="font-style:normal;font-variant:normal;font-weight:normal;font-stretch:normal;font-size:4.93888903px;font-family:'Calisto MT';-inkscape-font-specification:'Calisto MT';stroke-width:0.26458332"
         id="path941" />
      <path
         d="m 156.36812,234.8185 0.0555,0.19051 q -0.44855,0.1881 -0.7307,0.40997 -0.28215,0.21945 -0.4582,0.50402 -0.12058,0.19292 -0.21704,0.52813 0.36656,-0.27733 0.47508,-0.32797 0.11093,-0.0531 0.25321,-0.0531 0.40032,0 0.65354,0.27974 0.25562,0.27733 0.25562,0.75482 0,0.47749 -0.29421,0.87781 -0.29421,0.40032 -0.82475,0.40032 -0.45579,0 -0.76447,-0.34726 -0.30868,-0.34727 -0.30868,-0.95257 0,-0.70418 0.41479,-1.2926 0.46784,-0.66559 1.49035,-0.97186 z m -0.12782,2.51767 q 0,-0.15916 -0.0723,-0.40032 -0.0699,-0.24115 -0.2291,-0.38343 -0.15916,-0.14229 -0.36897,-0.14229 -0.16881,0 -0.32315,0.0965 -0.15193,0.0965 -0.21945,0.23633 -0.0675,0.13987 -0.0675,0.36173 0,0.5209 0.24598,0.83441 0.19052,0.24115 0.44132,0.24115 0.2918,0 0.44132,-0.2508 0.15192,-0.2508 0.15192,-0.59325 z"
         style="font-style:normal;font-variant:normal;font-weight:normal;font-stretch:normal;font-size:4.93888903px;font-family:'Calisto MT';-inkscape-font-specification:'Calisto MT';stroke-width:0.26458332"
         id="path943" />
      <path
         d="m 157.80541,236.56447 q -0.40514,-0.30144 -0.52331,-0.4799 -0.11817,-0.17845 -0.11817,-0.39791 0,-0.34485 0.27974,-0.60048 0.27975,-0.25562 0.73794,-0.25562 0.41238,0 0.63425,0.20016 0.22186,0.20016 0.22186,0.49919 0,0.23392 -0.14469,0.44132 -0.1447,0.20739 -0.5209,0.45578 0.3135,0.21704 0.45337,0.34727 0.14228,0.13022 0.21463,0.27974 0.0748,0.14952 0.0748,0.35209 0,0.40032 -0.30145,0.68971 -0.30144,0.28697 -0.79099,0.28697 -0.45096,0 -0.69935,-0.22909 -0.24598,-0.23151 -0.24598,-0.58119 0,-0.26045 0.13987,-0.47267 0.13987,-0.21463 0.58842,-0.53537 z m 0.39308,-0.27009 q 0.27251,-0.18569 0.38103,-0.35209 0.10852,-0.16881 0.10852,-0.35932 0,-0.24357 -0.15916,-0.39791 -0.15675,-0.15676 -0.40997,-0.15676 -0.2508,0 -0.40273,0.14229 -0.14952,0.13987 -0.14952,0.34967 0,0.13988 0.0506,0.24357 0.0506,0.1037 0.17845,0.22187 0.12782,0.11816 0.40273,0.30868 z m -0.21221,0.39549 q -0.25804,0.1857 -0.38344,0.39791 -0.12299,0.20981 -0.12299,0.43167 0,0.26769 0.18569,0.45579 0.1881,0.18569 0.4582,0.18569 0.24839,0 0.41237,-0.1664 0.16399,-0.1664 0.16399,-0.40996 0,-0.15676 -0.0748,-0.29904 -0.0724,-0.14228 -0.24598,-0.30386 -0.12299,-0.11575 -0.39308,-0.2918 z"
         style="font-style:normal;font-variant:normal;font-weight:normal;font-stretch:normal;font-size:4.93888903px;font-family:'Calisto MT';-inkscape-font-specification:'Calisto MT';stroke-width:0.26458332"
         id="path945" />
      <path
         d="m 162.99751,236.01464 0.0217,0.0338 q -0.0555,0.10852 -0.10852,0.22669 -0.17846,-0.0217 -0.37138,-0.0241 0.15434,0.24598 0.15434,0.48231 0,0.34727 -0.25322,0.58119 -0.25321,0.23392 -0.709,0.23392 -0.12058,0 -0.25804,-0.0265 -0.18086,0.1688 -0.18086,0.24839 0,0.0651 0.0603,0.0965 0.1037,0.0555 0.53296,0.0555 l 0.42444,-0.007 q 0.3762,0 0.51848,0.1254 0.14229,0.1254 0.14229,0.37379 0,0.34727 -0.29421,0.57396 -0.42926,0.33279 -1.10209,0.33279 -0.47026,0 -0.68971,-0.16639 -0.21704,-0.1664 -0.21704,-0.36656 0,-0.0989 0.0362,-0.1664 0.0169,-0.0289 0.11817,-0.0965 l 0.38103,-0.2701 q -0.16881,-0.0338 -0.25322,-0.1254 -0.082,-0.0916 -0.082,-0.20498 0,-0.0772 0.0482,-0.11335 0.1254,-0.0965 0.39068,-0.34003 -0.20499,-0.10611 -0.30869,-0.2725 -0.10128,-0.16881 -0.10128,-0.39791 0,-0.36656 0.25804,-0.61013 0.26045,-0.24598 0.709,-0.24598 0.10611,0 0.21945,0.0217 0.11575,0.0193 0.24116,0.0627 0.13022,-0.002 0.20257,-0.002 0.33038,0 0.47025,-0.012 z m -1.67362,0.68006 q 0,0.34485 0.13987,0.51607 0.13987,0.17122 0.34244,0.17122 0.19051,0 0.31591,-0.1471 0.12541,-0.14711 0.12541,-0.43167 0,-0.3545 -0.13505,-0.51849 -0.13264,-0.16399 -0.34003,-0.16399 -0.19052,0 -0.32074,0.1447 -0.12781,0.14469 -0.12781,0.42926 z m 0.0989,1.56752 q -0.19292,0.16398 -0.26527,0.27009 -0.0699,0.10852 -0.0699,0.19775 0,0.12781 0.13264,0.22428 0.18087,0.13263 0.51366,0.13263 0.37621,0 0.61978,-0.14228 0.24598,-0.13987 0.24598,-0.38344 0,-0.14469 -0.0989,-0.22428 -0.0965,-0.0772 -0.36897,-0.0772 l -0.10128,0.002 z"
         style="font-style:normal;font-variant:normal;font-weight:normal;font-stretch:normal;font-size:4.93888903px;font-family:'Calisto MT';-inkscape-font-specification:'Calisto MT';stroke-width:0.26458332"
         id="path947" />
    </g>
  </g>
</svg>
