<?xml version="1.0" encoding="UTF-8" standalone="no"?>
<!-- Created with Inkscape (http://www.inkscape.org/) -->

<svg
   xmlns:dc="http://purl.org/dc/elements/1.1/"
   xmlns:cc="http://creativecommons.org/ns#"
   xmlns:rdf="http://www.w3.org/1999/02/22-rdf-syntax-ns#"
   xmlns:svg="http://www.w3.org/2000/svg"
   xmlns="http://www.w3.org/2000/svg"
   xmlns:sodipodi="http://sodipodi.sourceforge.net/DTD/sodipodi-0.dtd"
   xmlns:inkscape="http://www.inkscape.org/namespaces/inkscape"
   width="132.79167mm"
   height="11.083333mm"
   viewBox="0 0 132.79169 11.083333"
   version="1.1"
   id="svg8"
   sodipodi:docname="general_equation_1.1.svg"
   inkscape:version="0.92.2 (5c3e80d, 2017-08-06)">
  <defs
     id="defs2">
    <marker
       inkscape:stockid="Arrow1Lend"
       orient="auto"
       refY="0"
       refX="0"
       id="Arrow1Lend"
       style="overflow:visible"
       inkscape:isstock="true">
      <path
         id="path1086"
         d="M 0,0 5,-5 -12.5,0 5,5 Z"
         style="fill:#000000;fill-opacity:1;fill-rule:evenodd;stroke:#000000;stroke-width:1.00000003pt;stroke-opacity:1"
         transform="matrix(-0.8,0,0,-0.8,-10,0)"
         inkscape:connector-curvature="0" />
    </marker>
  </defs>
  <sodipodi:namedview
     id="base"
     pagecolor="#ffffff"
     bordercolor="#666666"
     borderopacity="1.0"
     inkscape:pageopacity="0.0"
     inkscape:pageshadow="2"
     inkscape:zoom="2"
     inkscape:cx="187.00212"
     inkscape:cy="97.21238"
     inkscape:document-units="mm"
     inkscape:current-layer="layer1"
     showgrid="false"
     showguides="false"
     inkscape:window-width="1920"
     inkscape:window-height="1017"
     inkscape:window-x="-8"
     inkscape:window-y="-8"
     inkscape:window-maximized="1"
     inkscape:measure-start="506.466,-174.437"
     inkscape:measure-end="445.296,-110.679">
    <inkscape:grid
       type="xygrid"
       id="grid932"
       originx="-22.239588"
       originy="-73.833331" />
  </sodipodi:namedview>
  <metadata
     id="metadata5">
    <rdf:RDF>
      <cc:Work
         rdf:about="">
        <dc:format>image/svg+xml</dc:format>
        <dc:type
           rdf:resource="http://purl.org/dc/dcmitype/StillImage" />
        <dc:title></dc:title>
      </cc:Work>
    </rdf:RDF>
  </metadata>
  <g
     inkscape:label="Layer 1"
     inkscape:groupmode="layer"
     id="layer1"
     transform="translate(-22.239565,-212.08333)">
    <flowRoot
       xml:space="preserve"
       id="flowRoot1271"
       style="font-style:normal;font-weight:normal;font-size:16px;line-height:1.25;font-family:sans-serif;letter-spacing:0px;word-spacing:0px;fill:#000000;fill-opacity:1;stroke:none"
       transform="scale(0.26458333)"><flowRegion
         id="flowRegion1273"><rect
           id="rect1275"
           width="85"
           height="20"
           x="160"
           y="167.51968" /></flowRegion><flowPara
         id="flowPara1277" /></flowRoot>    <g
       transform="translate(-65.709628,30.317884)"
       aria-label="0 oC"
       style="font-style:normal;font-weight:normal;font-size:4.23333311px;line-height:1.25;font-family:sans-serif;letter-spacing:0px;word-spacing:0px;fill:#000000;fill-opacity:1;stroke:none;stroke-width:0.26458332"
       id="text1302-9-5" />
    <path
       sodipodi:nodetypes="cc"
       inkscape:connector-curvature="0"
       id="path1240"
       d="M 80.69792,217.625 H 95.250001"
       style="fill:none;stroke:#000000;stroke-width:0.5;stroke-linecap:butt;stroke-linejoin:miter;stroke-miterlimit:4;stroke-dasharray:none;stroke-opacity:1" />
    <g
       transform="translate(-0.45395292,134.96574)"
       id="text1259"
       style="font-style:normal;font-weight:normal;font-size:4.23333311px;line-height:1.25;font-family:sans-serif;text-align:center;letter-spacing:0px;word-spacing:0px;text-anchor:middle;fill:#ff0000;fill-opacity:1;stroke:none;stroke-width:0.26458332"
       aria-label="Latent heat of  fusion" />
    <path
       style="fill:#000000;fill-opacity:1;stroke:none;stroke-width:0.5;stroke-linecap:butt;stroke-linejoin:miter;stroke-miterlimit:4;stroke-dasharray:none;stroke-opacity:1"
       d="m 100.54167,217.625 -6.61579,-1.31704 0.002,2.64584 z"
       id="path1740-4-3-5-5-3-1-4-4-7"
       inkscape:connector-curvature="0"
       sodipodi:nodetypes="cccc" />
    <g
       aria-label="Mass of reactants = 68 g "
       style="font-style:normal;font-variant:normal;font-weight:normal;font-stretch:normal;font-size:4.93888855px;line-height:1.25;font-family:Arial;-inkscape-font-specification:Arial;letter-spacing:0px;word-spacing:0px;fill:#000000;fill-opacity:1;stroke:none;stroke-width:0.26458332"
       id="text876" />
    <g
       aria-label="Reactant 2"
       style="font-style:normal;font-variant:normal;font-weight:normal;font-stretch:normal;font-size:4.93888855px;line-height:1.25;font-family:'Calisto MT';-inkscape-font-specification:'Calisto MT';letter-spacing:0px;word-spacing:0px;fill:#000000;fill-opacity:1;stroke:none;stroke-width:0.26458332"
       id="text874">
      <path
         d="m 54.982944,216.06569 v -0.14228 q 0.639065,0.0265 1.024916,0.0265 0.221864,0 0.41479,-0.005 0.255626,-0.01 0.3545,-0.01 0.470255,0 0.709,0.22186 0.236334,0.22428 0.236334,0.6053 0,0.25563 -0.108521,0.45338 -0.106108,0.19533 -0.30868,0.33038 -0.147106,0.0965 -0.419613,0.17122 l 0.803052,1.04662 q 0.149517,0.19534 0.188102,0.2291 0.06029,0.0506 0.156752,0.0868 0.135048,0.053 0.455786,0.12299 v 0.14228 q -0.381027,-0.0265 -0.55466,-0.0265 -0.20016,0 -0.409966,0.0265 -0.108521,-0.18087 -0.294212,-0.45337 -0.18569,-0.27492 -0.226687,-0.32557 -0.02412,-0.0289 -0.04582,-0.0603 l -0.530544,-0.7283 q -0.21463,-0.005 -0.434082,-0.0313 l 0.01929,1.21543 q 0.0048,0.0724 0.04341,0.10852 0.05788,0.0482 0.361735,0.1037 0.04341,0.007 0.132637,0.0289 v 0.14228 q -0.436494,-0.0265 -0.76929,-0.0265 -0.356912,0 -0.798229,0.0265 v -0.14228 l 0.103698,-0.0217 q 0.344854,-0.0651 0.390673,-0.1061 0.04823,-0.0434 0.05547,-0.15193 0.0048,-0.0699 0.01206,-1.23955 l -0.0096,-1.13344 q -0.0024,-0.26044 -0.01447,-0.29903 -0.0096,-0.0386 -0.04582,-0.0579 -0.118167,-0.0627 -0.373793,-0.10369 -0.03859,-0.007 -0.118167,-0.0241 z m 1.010447,1.47588 q 0.250803,0.0265 0.388262,0.0265 0.438905,0 0.648711,-0.19534 0.212218,-0.19534 0.212218,-0.5426 0,-0.30386 -0.188102,-0.47991 -0.185691,-0.17604 -0.542603,-0.17604 -0.127813,0 -0.504017,0.0289 z"
         style="stroke-width:0.26458332"
         id="path997" />
      <path
         d="m 60.336622,218.76182 0.09164,0.14228 -0.479902,0.3545 q -0.09887,0.0675 -0.204983,0.0989 -0.15434,0.0458 -0.315915,0.0458 -0.393086,0 -0.672828,-0.31592 -0.27733,-0.31591 -0.27733,-0.85369 0,-0.57878 0.332797,-0.92845 0.335207,-0.34968 0.817521,-0.34968 0.373792,0 0.576364,0.20739 0.204983,0.20499 0.209806,0.62942 -0.101285,0.0579 -0.18569,0.14228 -0.171222,-0.002 -0.21463,-0.002 -0.639065,0 -1.111732,0.0193 -0.0024,0.54019 0.183279,0.81752 0.185691,0.27974 0.496783,0.27974 0.156752,0 0.327973,-0.0603 0.171221,-0.0627 0.426847,-0.22669 z m -0.352089,-1.05626 q -0.01447,-0.23875 -0.106108,-0.36174 -0.135048,-0.18087 -0.364147,-0.18087 -0.197748,0 -0.352089,0.13746 -0.15434,0.13505 -0.229099,0.44855 0.08923,0.002 0.135048,0.002 0.395497,0 0.916395,-0.0458 z"
         style="stroke-width:0.26458332"
         id="path999" />
      <path
         d="m 61.060092,217.70797 -0.156752,-0.0169 q 0.04823,-0.25081 0.06752,-0.4992 0.470256,-0.21222 0.848872,-0.21222 0.163986,0 0.296622,0.0482 0.132637,0.0458 0.209807,0.13022 0.07717,0.082 0.115755,0.19775 0.041,0.11575 0.041,0.36897 l -0.0217,0.99597 q 0,0.20258 0.04582,0.26528 0.04582,0.0627 0.118167,0.0627 0.08682,0 0.272507,-0.13023 l 0.07476,0.0989 q -0.340031,0.30385 -0.371382,0.32315 -0.06752,0.0386 -0.168809,0.0386 -0.156752,0 -0.243569,-0.0772 -0.0844,-0.0796 -0.113343,-0.26527 -0.289388,0.22428 -0.429259,0.28215 -0.139871,0.0603 -0.303857,0.0603 -0.267684,0 -0.431671,-0.16157 -0.163986,-0.16399 -0.163986,-0.4172 0,-0.15434 0.05788,-0.27733 0.05788,-0.12541 0.166398,-0.21946 0.08441,-0.0699 0.284565,-0.16881 0.470256,-0.22909 0.819933,-0.36897 -0.01206,-0.34003 -0.113344,-0.45096 -0.101286,-0.11093 -0.311092,-0.11093 -0.197748,0 -0.340031,0.12299 -0.139871,0.12058 -0.250803,0.38103 z m 1.01527,0.26768 q -0.629419,0.28215 -0.762055,0.41238 -0.130225,0.12781 -0.130225,0.30868 0,0.18087 0.09887,0.28939 0.09887,0.10852 0.231511,0.10852 0.137459,0 0.296623,-0.0892 0.161574,-0.0916 0.212217,-0.20498 0.05306,-0.11335 0.05306,-0.41238 z"
         style="stroke-width:0.26458332"
         id="path1001" />
      <path
         d="m 64.96683,217.78996 -0.161574,-0.0121 q -0.0096,-0.30386 -0.154341,-0.44855 -0.142282,-0.1471 -0.390674,-0.1471 -0.178455,0 -0.342442,0.0989 -0.163987,0.0965 -0.258038,0.31833 -0.09164,0.21945 -0.09164,0.49919 0,0.44855 0.217041,0.70177 0.219452,0.2508 0.506429,0.2508 0.301446,0 0.725881,-0.23875 l 0.08923,0.1447 q -0.378616,0.27974 -0.629419,0.39308 -0.120578,0.0531 -0.294211,0.0531 -0.422024,0 -0.682473,-0.24598 -0.344854,-0.32556 -0.344854,-0.88263 0,-0.57637 0.361735,-0.94775 0.361735,-0.37138 0.89228,-0.37138 0.361735,0 0.696942,0.18569 -0.01688,0.082 -0.04823,0.21222 -0.041,0.17122 -0.09164,0.43649 z"
         style="stroke-width:0.26458332"
         id="path1003" />
      <path
         d="m 65.919399,216.44913 h 0.139871 l -0.05547,0.61495 0.668004,-0.007 0.01929,0.0386 q -0.06029,0.0989 -0.110932,0.21222 -0.284565,-0.0145 -0.576365,-0.0193 l -0.0217,1.23955 v 0.0145 q 0,0.28698 0.0627,0.41479 0.06511,0.1254 0.219452,0.1254 0.127813,0 0.33762,-0.10852 l 0.06994,0.13746 q -0.262861,0.16399 -0.40032,0.21463 -0.137459,0.053 -0.238745,0.053 -0.159163,0 -0.270096,-0.082 -0.110932,-0.0844 -0.147105,-0.23151 -0.0217,-0.082 -0.0217,-0.50161 0,-0.44855 0.02653,-1.27572 -0.16881,0.005 -0.349677,0.0193 v -0.13023 q 0.202571,-0.0916 0.349677,-0.2508 0.149517,-0.15916 0.299034,-0.47749 z"
         style="stroke-width:0.26458332"
         id="path1005" />
      <path
         d="m 67.195118,217.70797 -0.156752,-0.0169 q 0.04823,-0.25081 0.06752,-0.4992 0.470256,-0.21222 0.848872,-0.21222 0.163986,0 0.296622,0.0482 0.132637,0.0458 0.209807,0.13022 0.07717,0.082 0.115755,0.19775 0.041,0.11575 0.041,0.36897 l -0.0217,0.99597 q 0,0.20258 0.04582,0.26528 0.04582,0.0627 0.118167,0.0627 0.08682,0 0.272507,-0.13023 l 0.07476,0.0989 q -0.340031,0.30385 -0.371382,0.32315 -0.06752,0.0386 -0.168809,0.0386 -0.156752,0 -0.243569,-0.0772 -0.0844,-0.0796 -0.113343,-0.26527 -0.289388,0.22428 -0.429259,0.28215 -0.139871,0.0603 -0.303857,0.0603 -0.267684,0 -0.431671,-0.16157 -0.163986,-0.16399 -0.163986,-0.4172 0,-0.15434 0.05788,-0.27733 0.05788,-0.12541 0.166398,-0.21946 0.08441,-0.0699 0.284565,-0.16881 0.470256,-0.22909 0.819933,-0.36897 -0.01206,-0.34003 -0.113344,-0.45096 -0.101286,-0.11093 -0.311092,-0.11093 -0.197748,0 -0.340031,0.12299 -0.139871,0.12058 -0.250803,0.38103 z m 1.01527,0.26768 q -0.629419,0.28215 -0.762055,0.41238 -0.130225,0.12781 -0.130225,0.30868 0,0.18087 0.09887,0.28939 0.09887,0.10852 0.231511,0.10852 0.137459,0 0.296622,-0.0892 0.161575,-0.0916 0.212218,-0.20498 0.05306,-0.11335 0.05306,-0.41238 z"
         style="stroke-width:0.26458332"
         id="path1007" />
      <path
         d="m 69.194306,217.42581 v -0.13987 q 0.434082,-0.10128 0.786171,-0.30627 l 0.06511,0.041 q -0.03376,0.20498 -0.041,0.42202 l 0.306269,-0.30385 q 0.07717,-0.0675 0.180867,-0.10611 0.142283,-0.0531 0.296623,-0.0531 0.344854,0 0.520898,0.2291 0.118167,0.15193 0.118167,0.52331 l -0.0072,0.5836 q 0,0.58601 0.01447,0.69212 0.01206,0.0724 0.04582,0.10129 0.03376,0.0289 0.229099,0.0748 0.03617,0.01 0.108521,0.0265 v 0.13505 q -0.284565,-0.0265 -0.506429,-0.0265 -0.192926,0 -0.660769,0.0265 v -0.13505 q 0.279741,-0.082 0.313503,-0.11093 0.03617,-0.0289 0.04341,-0.094 0.02653,-0.23875 0.02653,-0.7307 0,-0.52573 -0.0217,-0.63425 -0.03376,-0.15916 -0.142283,-0.24598 -0.10852,-0.0868 -0.260449,-0.0868 -0.159163,0 -0.313504,0.0941 -0.15434,0.0916 -0.229099,0.24839 -0.07235,0.15675 -0.07235,0.46302 0,0.86816 0.03617,0.94051 0.03617,0.0699 0.282153,0.13264 0.03135,0.007 0.09164,0.0241 v 0.13505 q -0.32315,-0.0265 -0.542603,-0.0265 -0.212218,0 -0.63183,0.0265 v -0.13505 q 0.284565,-0.0675 0.32315,-0.0989 0.02411,-0.0193 0.03376,-0.10129 0.02653,-0.2291 0.02653,-0.62459 0,-0.81752 -0.01688,-0.88746 -0.02653,-0.10129 -0.142283,-0.10129 -0.05305,0 -0.166398,0.0169 -0.03135,0.005 -0.09405,0.0121 z"
         style="stroke-width:0.26458332"
         id="path1009" />
      <path
         d="m 72.565677,216.44913 h 0.139871 l -0.05547,0.61495 0.668004,-0.007 0.01929,0.0386 q -0.06029,0.0989 -0.110932,0.21222 -0.284565,-0.0145 -0.576364,-0.0193 l -0.0217,1.23955 v 0.0145 q 0,0.28698 0.0627,0.41479 0.06511,0.1254 0.219453,0.1254 0.127813,0 0.337619,-0.10852 l 0.06994,0.13746 q -0.262861,0.16399 -0.400321,0.21463 -0.137459,0.053 -0.238745,0.053 -0.159163,0 -0.270095,-0.082 -0.110932,-0.0844 -0.147106,-0.23151 -0.0217,-0.082 -0.0217,-0.50161 0,-0.44855 0.02653,-1.27572 -0.168809,0.005 -0.349677,0.0193 v -0.13023 q 0.202572,-0.0916 0.349677,-0.2508 0.149518,-0.15916 0.299035,-0.47749 z"
         style="stroke-width:0.26458332"
         id="path1011" />
      <path
         d="M 75.095411,216.79639 H 74.92419 q 0.07476,-0.28938 0.115755,-0.59565 0.20016,-0.16881 0.402731,-0.25081 0.204984,-0.0844 0.412378,-0.0844 0.248392,0 0.465433,0.11817 0.217041,0.11575 0.327973,0.32797 0.110932,0.21222 0.110932,0.46784 0,0.23151 -0.08441,0.43891 -0.106109,0.27009 -0.3545,0.57877 -0.248392,0.30869 -1.041797,1.16479 h 1.010446 q 0.219453,0 0.289388,-0.0434 0.07235,-0.0434 0.16881,-0.24115 0.0096,-0.0169 0.02894,-0.0531 h 0.183279 q -0.197749,0.47026 -0.2918,0.72106 -0.484725,-0.0265 -0.872987,-0.0265 -0.347265,0 -1.063501,0.0265 v -0.14228 q 0.733117,-0.76447 1.044209,-1.14067 0.311092,-0.37862 0.443728,-0.69453 0.09164,-0.21222 0.09164,-0.45338 0,-0.31833 -0.15434,-0.48472 -0.15434,-0.1664 -0.40032,-0.1664 -0.221864,0 -0.395497,0.14228 -0.132636,0.10611 -0.265272,0.39067 z"
         style="stroke-width:0.26458332"
         id="path1013" />
    </g>
    <g
       aria-label="Product 1"
       style="font-style:normal;font-variant:normal;font-weight:normal;font-stretch:normal;font-size:4.93888855px;line-height:1.25;font-family:'Calisto MT';-inkscape-font-specification:'Calisto MT';letter-spacing:0px;word-spacing:0px;fill:#000000;fill-opacity:1;stroke:none;stroke-width:0.26458332"
       id="text878">
      <path
         d="m 104.76167,216.08424 v -0.14228 q 0.31109,0.0265 0.79582,0.0265 l 0.95257,-0.01 q 0.53054,0 0.77411,0.22428 0.24357,0.22669 0.24357,0.61495 0,0.45096 -0.32797,0.75723 -0.32798,0.30386 -0.90193,0.30386 -0.22186,0 -0.52572,-0.0627 -0.002,0.3762 -0.002,0.53778 0,0.61253 0.0241,0.71141 0.01,0.041 0.0458,0.0627 0.0675,0.0386 0.45338,0.0941 0.0338,0.005 0.0965,0.0193 v 0.14229 q -0.4582,-0.0265 -0.85611,-0.0265 -0.3762,0 -0.7717,0.0265 v -0.14229 q 0.0941,-0.0241 0.13987,-0.0314 0.31833,-0.0651 0.3545,-0.094 0.0603,-0.0531 0.0603,-0.28215 l 0.007,-1.1672 -0.002,-1.1672 v -0.053 q 0,-0.15434 -0.0482,-0.19775 -0.0458,-0.0434 -0.39067,-0.11576 -0.0386,-0.01 -0.12058,-0.0289 z m 1.01286,1.50965 q 0.25563,0.0579 0.43891,0.0579 0.39549,0 0.61012,-0.20739 0.21704,-0.2074 0.21704,-0.55225 0,-0.33521 -0.20016,-0.52331 -0.19775,-0.1881 -0.60771,-0.1881 -0.18087,0 -0.4365,0.0386 -0.0193,0.7283 -0.0217,1.3746 z"
         style="stroke-width:0.26458332"
         id="path980" />
      <path
         d="m 107.77131,217.44678 v -0.13746 q 0.45096,-0.11334 0.76929,-0.31109 l 0.0627,0.0458 q -0.0386,0.23392 -0.0458,0.51125 0.2918,-0.3545 0.40755,-0.43408 0.11576,-0.0796 0.27251,-0.0796 0.1037,0 0.23151,0.0506 -0.053,0.24598 -0.0868,0.50161 h -0.12057 q -0.0217,-0.11576 -0.0724,-0.1664 -0.0506,-0.0531 -0.11334,-0.0531 -0.0965,0 -0.2074,0.0892 -0.16399,0.13264 -0.23874,0.30627 -0.0724,0.17122 -0.0724,0.48714 0,0.55948 0.0314,0.75241 0.0121,0.0723 0.0651,0.11334 0.0555,0.041 0.34244,0.10611 v 0.13505 q -0.30144,-0.0265 -0.54742,-0.0265 -0.20499,0 -0.67765,0.0265 v -0.13505 q 0.33038,-0.082 0.37138,-0.1254 0.0434,-0.0458 0.0434,-0.24116 l 0.005,-0.52331 q 0,-0.76929 -0.0145,-0.82717 -0.0241,-0.0965 -0.13505,-0.0965 -0.0627,0 -0.20739,0.0241 -0.0217,0.002 -0.0627,0.007 z"
         style="stroke-width:0.26458332"
         id="path982" />
      <path
         d="m 109.6258,218.23777 q 0,-0.5836 0.33039,-0.92363 0.33038,-0.34003 0.86816,-0.34003 0.50884,0 0.80546,0.30627 0.29904,0.30627 0.29904,0.85611 0,0.59324 -0.33521,0.94051 -0.3328,0.34485 -0.86334,0.34485 -0.51366,0 -0.81029,-0.30868 -0.29421,-0.30868 -0.29421,-0.8754 z m 0.46302,-0.2098 q 0,0.39549 0.0507,0.5836 0.0796,0.30385 0.2508,0.45819 0.17363,0.15193 0.40273,0.15193 0.29662,0 0.48714,-0.22427 0.19051,-0.22669 0.19051,-0.72588 0,-0.55949 -0.21704,-0.82717 -0.21463,-0.2701 -0.50643,-0.2701 -0.28939,0 -0.47508,0.21222 -0.18328,0.20981 -0.18328,0.64148 z"
         style="stroke-width:0.26458332"
         id="path984" />
      <path
         d="m 113.55183,216.26752 v -0.13263 q 0.26045,-0.0748 0.37862,-0.12058 0.11817,-0.0482 0.40032,-0.19534 l 0.0603,0.0482 q -0.0531,0.55949 -0.0531,2.0836 0,0.84405 0.0217,0.94051 0.0217,0.0965 0.14469,0.0965 0.0724,0 0.25563,-0.0314 v 0.13023 q -0.50402,0.14951 -0.78135,0.31109 l -0.0603,-0.0458 q 0.0289,-0.18087 0.0362,-0.36174 -0.30144,0.27251 -0.44372,0.34003 -0.13987,0.0675 -0.33521,0.0675 -0.36897,0 -0.61254,-0.27492 -0.24116,-0.27733 -0.24116,-0.78376 0,-0.34727 0.11817,-0.59807 0.0892,-0.19292 0.25804,-0.36415 0.16881,-0.17363 0.3762,-0.27491 0.20981,-0.1037 0.41962,-0.1037 0.0965,0 0.21462,0.0241 0.11817,0.0241 0.25804,0.0724 0.005,-0.12058 0.005,-0.13987 0,-0.56672 -0.0217,-0.62701 -0.0289,-0.0892 -0.15916,-0.0892 -0.0434,0 -0.15434,0.0169 -0.0289,0.005 -0.0844,0.012 z m 0.41479,1.86897 q 0,-0.47508 -0.0217,-0.54984 -0.041,-0.14469 -0.19052,-0.24357 -0.1471,-0.10128 -0.36655,-0.10128 -0.27492,0 -0.46785,0.2291 -0.19292,0.22668 -0.19292,0.668 0,0.45337 0.19533,0.69212 0.19534,0.23633 0.46785,0.23633 0.18087,0 0.33038,-0.10369 0.14952,-0.1037 0.19775,-0.25081 0.0482,-0.1471 0.0482,-0.57636 z"
         style="stroke-width:0.26458332"
         id="path986" />
      <path
         d="m 114.82032,217.28279 v -0.13504 q 0.4389,-0.0241 0.80787,-0.10611 l 0.0603,0.0458 q -0.0506,0.4172 -0.0506,1.01285 0,0.51849 0.0314,0.66319 0.0338,0.14228 0.14228,0.22427 0.10852,0.082 0.26045,0.082 0.17363,0 0.32556,-0.0941 0.15434,-0.094 0.21463,-0.23874 0.0603,-0.1447 0.0603,-0.44614 0,-0.0362 -0.0145,-0.8127 -0.0121,-0.1037 -0.0627,-0.13987 -0.0482,-0.0362 -0.27251,-0.0482 l -0.0868,-0.007 v -0.13504 q 0.51607,-0.0386 0.80546,-0.10611 l 0.0627,0.0458 q -0.0217,0.20016 -0.0338,0.5016 -0.01,0.29904 -0.01,0.69936 0,0.50401 0.0265,0.59807 0.0265,0.094 0.13505,0.094 0.0627,0 0.25321,-0.0289 v 0.13505 q -0.24839,0.0651 -0.41961,0.13263 -0.16881,0.0675 -0.35932,0.17846 l -0.0724,-0.0531 q 0.0313,-0.17845 0.0362,-0.35691 -0.28456,0.26527 -0.42684,0.33762 -0.14229,0.0724 -0.31833,0.0724 -0.3328,0 -0.49678,-0.16399 -0.1664,-0.16157 -0.1664,-0.49437 v -0.84405 q -0.002,-0.45096 -0.0531,-0.51849 -0.0482,-0.0675 -0.29421,-0.0844 -0.0289,-0.002 -0.0844,-0.01 z"
         style="stroke-width:0.26458332"
         id="path988" />
      <path
         d="m 119.5084,217.80851 -0.16157,-0.0121 q -0.01,-0.30386 -0.15434,-0.44855 -0.14229,-0.14711 -0.39068,-0.14711 -0.17845,0 -0.34244,0.0989 -0.16399,0.0965 -0.25804,0.31833 -0.0916,0.21945 -0.0916,0.4992 0,0.44855 0.21704,0.70176 0.21946,0.2508 0.50643,0.2508 0.30145,0 0.72589,-0.23874 l 0.0892,0.14469 q -0.37861,0.27974 -0.62942,0.39309 -0.12057,0.0531 -0.29421,0.0531 -0.42202,0 -0.68247,-0.24598 -0.34485,-0.32556 -0.34485,-0.88263 0,-0.57636 0.36173,-0.94775 0.36174,-0.37138 0.89228,-0.37138 0.36174,0 0.69694,0.18569 -0.0169,0.082 -0.0482,0.21222 -0.041,0.17122 -0.0916,0.43649 z"
         style="stroke-width:0.26458332"
         id="path990" />
      <path
         d="m 120.46097,216.46768 h 0.13987 l -0.0555,0.61495 0.668,-0.007 0.0193,0.0386 q -0.0603,0.0989 -0.11093,0.21222 -0.28456,-0.0145 -0.57636,-0.0193 l -0.0217,1.23954 v 0.0145 q 0,0.28698 0.0627,0.41479 0.0651,0.1254 0.21945,0.1254 0.12782,0 0.33762,-0.10852 l 0.0699,0.13746 q -0.26286,0.16399 -0.40032,0.21463 -0.13746,0.0531 -0.23875,0.0531 -0.15916,0 -0.27009,-0.082 -0.11093,-0.0844 -0.14711,-0.23151 -0.0217,-0.082 -0.0217,-0.5016 0,-0.44855 0.0265,-1.27572 -0.16881,0.005 -0.34968,0.0193 v -0.13022 q 0.20257,-0.0916 0.34968,-0.25081 0.14951,-0.15916 0.29903,-0.47749 z"
         style="stroke-width:0.26458332"
         id="path992" />
      <path
         d="m 123.07752,216.43392 v -0.13022 q 0.47508,-0.19534 0.67765,-0.28939 0.094,-0.0434 0.23634,-0.13023 l 0.0699,0.0531 q -0.0555,0.71623 -0.0555,1.78456 0,0.92122 0.005,1.04662 0.005,0.24598 0.0386,0.31109 0.0169,0.0314 0.0482,0.0482 0.0121,0.005 0.3738,0.10129 v 0.13505 q -0.49679,-0.0265 -0.72588,-0.0265 -0.26528,0 -0.61495,0.0265 v -0.13505 q 0.35208,-0.0916 0.38585,-0.11093 0.0338,-0.0193 0.0506,-0.0506 0.0217,-0.0434 0.0314,-0.31109 0.002,-0.0916 0.002,-0.96463 l -0.002,-0.96462 -0.002,-0.22669 q -0.002,-0.13746 -0.0362,-0.18087 -0.0338,-0.0434 -0.10852,-0.0434 -0.082,0 -0.37379,0.0579 z"
         style="stroke-width:0.26458332"
         id="path994" />
    </g>
    <g
       aria-label="Reactant 1"
       style="font-style:normal;font-variant:normal;font-weight:normal;font-stretch:normal;font-size:4.93888855px;line-height:1.25;font-family:'Calisto MT';-inkscape-font-specification:'Calisto MT';letter-spacing:0px;word-spacing:0px;fill:#000000;fill-opacity:1;stroke:none;stroke-width:0.26458332"
       id="text874-1">
      <path
         d="m 24.976349,216.01895 v -0.14228 q 0.639065,0.0265 1.024915,0.0265 0.221865,0 0.41479,-0.005 0.255626,-0.01 0.3545,-0.01 0.470256,0 0.709001,0.22186 0.236333,0.22428 0.236333,0.60531 0,0.25562 -0.10852,0.45337 -0.106109,0.19534 -0.308681,0.33038 -0.147105,0.0965 -0.419612,0.17123 l 0.803051,1.04662 q 0.149518,0.19533 0.188103,0.22909 0.06029,0.0507 0.156751,0.0868 0.135048,0.0531 0.455787,0.12299 v 0.14228 q -0.381028,-0.0265 -0.554661,-0.0265 -0.20016,0 -0.409966,0.0265 -0.108521,-0.18086 -0.294211,-0.45337 -0.185691,-0.27492 -0.226688,-0.32556 -0.02411,-0.0289 -0.04582,-0.0603 l -0.530545,-0.7283 q -0.214629,-0.005 -0.434082,-0.0313 l 0.01929,1.21543 q 0.0048,0.0724 0.04341,0.10852 0.05788,0.0482 0.361735,0.1037 0.04341,0.007 0.132636,0.0289 v 0.14228 q -0.436494,-0.0265 -0.76929,-0.0265 -0.356912,0 -0.798228,0.0265 v -0.14228 l 0.103697,-0.0217 q 0.344854,-0.0651 0.390674,-0.10611 0.04823,-0.0434 0.05547,-0.15193 0.0048,-0.0699 0.01206,-1.23955 l -0.0096,-1.13343 q -0.0024,-0.26045 -0.01447,-0.29904 -0.0096,-0.0386 -0.04582,-0.0579 -0.118167,-0.0627 -0.373793,-0.1037 -0.03859,-0.007 -0.118166,-0.0241 z m 1.010446,1.47588 q 0.250803,0.0265 0.388262,0.0265 0.438905,0 0.648712,-0.19534 0.212218,-0.19534 0.212218,-0.5426 0,-0.30386 -0.188103,-0.4799 -0.18569,-0.17605 -0.542602,-0.17605 -0.127813,0 -0.504018,0.0289 z"
         style="stroke-width:0.26458332"
         id="path1016" />
      <path
         d="m 30.330027,218.71508 0.09164,0.14229 -0.479902,0.3545 q -0.09887,0.0675 -0.204983,0.0989 -0.15434,0.0458 -0.315915,0.0458 -0.393085,0 -0.672827,-0.31591 -0.27733,-0.31592 -0.27733,-0.8537 0,-0.57878 0.332796,-0.92845 0.335208,-0.34968 0.817521,-0.34968 0.373793,0 0.576364,0.2074 0.204984,0.20498 0.209807,0.62941 -0.101286,0.0579 -0.185691,0.14229 -0.171221,-0.002 -0.214629,-0.002 -0.639065,0 -1.111733,0.0193 -0.0024,0.54019 0.18328,0.81752 0.18569,0.27974 0.496782,0.27974 0.156752,0 0.327973,-0.0603 0.171222,-0.0627 0.426848,-0.22669 z m -0.352089,-1.05626 q -0.01447,-0.23875 -0.106109,-0.36174 -0.135048,-0.18086 -0.364147,-0.18086 -0.197748,0 -0.352088,0.13745 -0.154341,0.13505 -0.229099,0.44856 0.08923,0.002 0.135048,0.002 0.395496,0 0.916395,-0.0458 z"
         style="stroke-width:0.26458332"
         id="path1018" />
      <path
         d="m 31.053497,217.66123 -0.156752,-0.0169 q 0.04823,-0.2508 0.06752,-0.4992 0.470255,-0.21221 0.848871,-0.21221 0.163987,0 0.296623,0.0482 0.132636,0.0458 0.209806,0.13022 0.07717,0.082 0.115755,0.19775 0.041,0.11576 0.041,0.36897 l -0.0217,0.99598 q 0,0.20257 0.04582,0.26527 0.04582,0.0627 0.118166,0.0627 0.08682,0 0.272507,-0.13022 l 0.07476,0.0989 q -0.340031,0.30386 -0.371381,0.32315 -0.06752,0.0386 -0.16881,0.0386 -0.156752,0 -0.243568,-0.0772 -0.08441,-0.0796 -0.113344,-0.26527 -0.289388,0.22428 -0.429259,0.28216 -0.13987,0.0603 -0.303857,0.0603 -0.267684,0 -0.43167,-0.16157 -0.163987,-0.16399 -0.163987,-0.4172 0,-0.15434 0.05788,-0.27733 0.05788,-0.1254 0.166398,-0.21945 0.0844,-0.0699 0.284565,-0.16881 0.470255,-0.2291 0.819932,-0.36897 -0.01206,-0.34003 -0.113343,-0.45097 -0.101286,-0.11093 -0.311092,-0.11093 -0.197749,0 -0.340031,0.12299 -0.139871,0.12058 -0.250803,0.38103 z m 1.015269,0.26768 q -0.629419,0.28216 -0.762055,0.41238 -0.130224,0.12781 -0.130224,0.30868 0,0.18087 0.09887,0.28939 0.09887,0.10852 0.23151,0.10852 0.13746,0 0.296623,-0.0892 0.161575,-0.0916 0.212218,-0.20498 0.05305,-0.11334 0.05305,-0.41238 z"
         style="stroke-width:0.26458332"
         id="path1020" />
      <path
         d="m 34.960235,217.74322 -0.161575,-0.0121 q -0.0096,-0.30385 -0.15434,-0.44855 -0.142283,-0.1471 -0.390674,-0.1471 -0.178456,0 -0.342443,0.0989 -0.163986,0.0965 -0.258037,0.31833 -0.09164,0.21945 -0.09164,0.49919 0,0.44855 0.217041,0.70177 0.219453,0.2508 0.506429,0.2508 0.301446,0 0.725882,-0.23874 l 0.08923,0.14469 q -0.378616,0.27974 -0.629419,0.39309 -0.120578,0.0531 -0.294211,0.0531 -0.422024,0 -0.682474,-0.24598 -0.344854,-0.32556 -0.344854,-0.88263 0,-0.57637 0.361735,-0.94775 0.361735,-0.37138 0.89228,-0.37138 0.361735,0 0.696943,0.18569 -0.01688,0.082 -0.04823,0.21222 -0.041,0.17122 -0.09164,0.43649 z"
         style="stroke-width:0.26458332"
         id="path1022" />
      <path
         d="m 35.912804,216.40239 h 0.139871 l -0.05547,0.61495 0.668004,-0.007 0.01929,0.0386 q -0.06029,0.0989 -0.110932,0.21222 -0.284565,-0.0145 -0.576365,-0.0193 l -0.0217,1.23954 v 0.0145 q 0,0.28698 0.0627,0.41479 0.06511,0.1254 0.219453,0.1254 0.127813,0 0.337619,-0.10852 l 0.06993,0.13746 q -0.26286,0.16399 -0.40032,0.21463 -0.137459,0.053 -0.238745,0.053 -0.159163,0 -0.270095,-0.082 -0.110932,-0.0844 -0.147106,-0.23151 -0.0217,-0.082 -0.0217,-0.5016 0,-0.44856 0.02653,-1.27572 -0.168809,0.005 -0.349677,0.0193 v -0.13023 q 0.202572,-0.0916 0.349677,-0.2508 0.149518,-0.15916 0.299035,-0.47749 z"
         style="stroke-width:0.26458332"
         id="path1024" />
      <path
         d="m 37.188523,217.66123 -0.156752,-0.0169 q 0.04823,-0.2508 0.06752,-0.4992 0.470255,-0.21221 0.848871,-0.21221 0.163987,0 0.296623,0.0482 0.132636,0.0458 0.209806,0.13022 0.07717,0.082 0.115755,0.19775 0.041,0.11576 0.041,0.36897 l -0.0217,0.99598 q 0,0.20257 0.04582,0.26527 0.04582,0.0627 0.118166,0.0627 0.08682,0 0.272507,-0.13022 l 0.07476,0.0989 q -0.340031,0.30386 -0.371381,0.32315 -0.06752,0.0386 -0.16881,0.0386 -0.156752,0 -0.243568,-0.0772 -0.0844,-0.0796 -0.113344,-0.26527 -0.289388,0.22428 -0.429259,0.28216 -0.139871,0.0603 -0.303857,0.0603 -0.267684,0 -0.43167,-0.16157 -0.163987,-0.16399 -0.163987,-0.4172 0,-0.15434 0.05788,-0.27733 0.05788,-0.1254 0.166398,-0.21945 0.08441,-0.0699 0.284565,-0.16881 0.470255,-0.2291 0.819932,-0.36897 -0.01206,-0.34003 -0.113343,-0.45097 -0.101286,-0.11093 -0.311093,-0.11093 -0.197748,0 -0.34003,0.12299 -0.139871,0.12058 -0.250803,0.38103 z m 1.015269,0.26768 q -0.629419,0.28216 -0.762055,0.41238 -0.130224,0.12781 -0.130224,0.30868 0,0.18087 0.09887,0.28939 0.09887,0.10852 0.23151,0.10852 0.137459,0 0.296623,-0.0892 0.161575,-0.0916 0.212218,-0.20498 0.05305,-0.11334 0.05305,-0.41238 z"
         style="stroke-width:0.26458332"
         id="path1026" />
      <path
         d="m 39.187711,217.37908 v -0.13987 q 0.434082,-0.10129 0.78617,-0.30627 l 0.06511,0.041 q -0.03376,0.20499 -0.041,0.42203 l 0.306269,-0.30386 q 0.07717,-0.0675 0.180868,-0.10611 0.142282,-0.053 0.296622,-0.053 0.344854,0 0.520899,0.22909 0.118166,0.15193 0.118166,0.52331 l -0.0072,0.5836 q 0,0.58601 0.01447,0.69212 0.01206,0.0724 0.04582,0.10129 0.03376,0.0289 0.229099,0.0748 0.03617,0.01 0.10852,0.0265 v 0.13504 q -0.284565,-0.0265 -0.506429,-0.0265 -0.192925,0 -0.660769,0.0265 v -0.13504 q 0.279742,-0.082 0.313504,-0.11094 0.03617,-0.0289 0.04341,-0.094 0.02653,-0.23874 0.02653,-0.7307 0,-0.52572 -0.0217,-0.63424 -0.03376,-0.15917 -0.142282,-0.24598 -0.108521,-0.0868 -0.26045,-0.0868 -0.159163,0 -0.313503,0.0941 -0.154341,0.0916 -0.229099,0.24839 -0.07235,0.15675 -0.07235,0.46302 0,0.86817 0.03617,0.94051 0.03617,0.0699 0.282154,0.13264 0.03135,0.007 0.09164,0.0241 v 0.13504 q -0.32315,-0.0265 -0.542602,-0.0265 -0.212218,0 -0.631831,0.0265 v -0.13504 q 0.284565,-0.0675 0.32315,-0.0989 0.02412,-0.0193 0.03376,-0.10128 0.02653,-0.2291 0.02653,-0.6246 0,-0.81752 -0.01688,-0.88746 -0.02653,-0.10128 -0.142282,-0.10128 -0.05306,0 -0.166398,0.0169 -0.03135,0.005 -0.09405,0.0121 z"
         style="stroke-width:0.26458332"
         id="path1028" />
      <path
         d="m 42.559081,216.40239 h 0.139871 l -0.05547,0.61495 0.668004,-0.007 0.01929,0.0386 q -0.06029,0.0989 -0.110932,0.21222 -0.284565,-0.0145 -0.576364,-0.0193 l -0.0217,1.23954 v 0.0145 q 0,0.28698 0.0627,0.41479 0.06511,0.1254 0.219452,0.1254 0.127813,0 0.337619,-0.10852 l 0.06994,0.13746 q -0.262861,0.16399 -0.40032,0.21463 -0.137459,0.053 -0.238745,0.053 -0.159164,0 -0.270096,-0.082 -0.110932,-0.0844 -0.147105,-0.23151 -0.0217,-0.082 -0.0217,-0.5016 0,-0.44856 0.02653,-1.27572 -0.16881,0.005 -0.349677,0.0193 v -0.13023 q 0.202571,-0.0916 0.349677,-0.2508 0.149517,-0.15916 0.299034,-0.47749 z"
         style="stroke-width:0.26458332"
         id="path1030" />
      <path
         d="m 45.175632,216.36863 v -0.13023 q 0.475078,-0.19533 0.67765,-0.28938 0.09405,-0.0434 0.236333,-0.13023 l 0.06994,0.0531 q -0.05547,0.71623 -0.05547,1.78456 0,0.92121 0.0048,1.04662 0.0048,0.24598 0.03858,0.31109 0.01688,0.0314 0.04823,0.0482 0.01206,0.005 0.373793,0.10129 v 0.13504 q -0.496783,-0.0265 -0.725881,-0.0265 -0.265273,0 -0.61495,0.0265 v -0.13504 q 0.352089,-0.0916 0.385851,-0.11094 0.03376,-0.0193 0.05064,-0.0506 0.0217,-0.0434 0.03135,-0.31109 0.0024,-0.0916 0.0024,-0.96463 l -0.0024,-0.96463 -0.0024,-0.22668 q -0.0024,-0.13746 -0.03617,-0.18087 -0.03376,-0.0434 -0.108521,-0.0434 -0.08199,0 -0.373792,0.0579 z"
         style="stroke-width:0.26458332"
         id="path1032" />
    </g>
    <text
       xml:space="preserve"
       style="font-style:normal;font-variant:normal;font-weight:normal;font-stretch:normal;font-size:4.93888855px;line-height:1.25;font-family:'Calisto MT';-inkscape-font-specification:'Calisto MT';letter-spacing:0px;word-spacing:0px;fill:#000000;fill-opacity:1;stroke:none;stroke-width:0.26458332"
       x="48.876369"
       y="219.22258"
       id="text919"><tspan
         sodipodi:role="line"
         id="tspan917"
         x="48.876369"
         y="219.22258"
         style="stroke-width:0.26458332">+</tspan></text>
    <rect
       style="opacity:1;fill:none;fill-opacity:0.24623114;stroke:#969696;stroke-width:0.5;stroke-linecap:square;stroke-linejoin:miter;stroke-miterlimit:4;stroke-dasharray:none;stroke-dashoffset:0;stroke-opacity:1;paint-order:fill markers stroke"
       id="rect921"
       width="54.239582"
       height="7.9375"
       x="24.077065"
       y="213.65625"
       ry="0.10295863" />
    <g
       aria-label="Product 2"
       style="font-style:normal;font-variant:normal;font-weight:normal;font-stretch:normal;font-size:4.93888855px;line-height:1.25;font-family:'Calisto MT';-inkscape-font-specification:'Calisto MT';letter-spacing:0px;word-spacing:0px;fill:#000000;fill-opacity:1;stroke:none;stroke-width:0.26458332"
       id="text878-7">
      <path
         d="m 132.29863,216.09065 v -0.14228 q 0.31109,0.0265 0.79582,0.0265 l 0.95256,-0.01 q 0.53055,0 0.77412,0.22428 0.24357,0.22668 0.24357,0.61495 0,0.45096 -0.32798,0.75723 -0.32797,0.30386 -0.90192,0.30386 -0.22187,0 -0.52572,-0.0627 -0.002,0.3762 -0.002,0.53778 0,0.61253 0.0241,0.71141 0.01,0.041 0.0458,0.0627 0.0675,0.0386 0.45337,0.0941 0.0338,0.005 0.0965,0.0193 v 0.14228 q -0.4582,-0.0265 -0.85611,-0.0265 -0.3762,0 -0.7717,0.0265 v -0.14228 q 0.0941,-0.0241 0.13987,-0.0314 0.31833,-0.0651 0.3545,-0.0941 0.0603,-0.053 0.0603,-0.28215 l 0.007,-1.1672 -0.002,-1.1672 v -0.0531 q 0,-0.15434 -0.0482,-0.19775 -0.0458,-0.0434 -0.39067,-0.11576 -0.0386,-0.01 -0.12058,-0.0289 z m 1.01286,1.50964 q 0.25562,0.0579 0.4389,0.0579 0.3955,0 0.61013,-0.20739 0.21704,-0.2074 0.21704,-0.55225 0,-0.33521 -0.20016,-0.52331 -0.19775,-0.1881 -0.60772,-0.1881 -0.18086,0 -0.43649,0.0386 -0.0193,0.72829 -0.0217,1.37459 z"
         style="stroke-width:0.26458332"
         id="path963" />
      <path
         d="m 135.30826,217.45319 v -0.13746 q 0.45097,-0.11334 0.76929,-0.31109 l 0.0627,0.0458 q -0.0386,0.23392 -0.0458,0.51125 0.2918,-0.3545 0.40756,-0.43408 0.11575,-0.0796 0.27251,-0.0796 0.10369,0 0.23151,0.0506 -0.0531,0.24598 -0.0868,0.5016 h -0.12058 q -0.0217,-0.11575 -0.0723,-0.16639 -0.0506,-0.0531 -0.11335,-0.0531 -0.0965,0 -0.20739,0.0892 -0.16399,0.13264 -0.23875,0.30627 -0.0724,0.17122 -0.0724,0.48713 0,0.55949 0.0314,0.75241 0.0121,0.0724 0.0651,0.11335 0.0555,0.041 0.34244,0.10611 v 0.13504 q -0.30145,-0.0265 -0.54743,-0.0265 -0.20498,0 -0.67765,0.0265 v -0.13504 q 0.33039,-0.082 0.37139,-0.12541 0.0434,-0.0458 0.0434,-0.24115 l 0.005,-0.52331 q 0,-0.76929 -0.0145,-0.82717 -0.0241,-0.0965 -0.13505,-0.0965 -0.0627,0 -0.2074,0.0241 -0.0217,0.002 -0.0627,0.007 z"
         style="stroke-width:0.26458332"
         id="path965" />
      <path
         d="m 137.16276,218.24418 q 0,-0.5836 0.33038,-0.92363 0.33039,-0.34003 0.86817,-0.34003 0.50884,0 0.80546,0.30627 0.29904,0.30627 0.29904,0.85611 0,0.59324 -0.33521,0.94051 -0.3328,0.34485 -0.86334,0.34485 -0.51367,0 -0.81029,-0.30868 -0.29421,-0.30868 -0.29421,-0.8754 z m 0.46302,-0.2098 q 0,0.39549 0.0506,0.5836 0.0796,0.30385 0.25081,0.45819 0.17363,0.15193 0.40273,0.15193 0.29662,0 0.48713,-0.22427 0.19052,-0.22669 0.19052,-0.72589 0,-0.55948 -0.21704,-0.82716 -0.21463,-0.2701 -0.50643,-0.2701 -0.28939,0 -0.47508,0.21222 -0.18328,0.20981 -0.18328,0.64148 z"
         style="stroke-width:0.26458332"
         id="path967" />
      <path
         d="m 141.08879,216.27393 v -0.13263 q 0.26045,-0.0748 0.37862,-0.12058 0.11816,-0.0482 0.40032,-0.19534 l 0.0603,0.0482 q -0.0531,0.55949 -0.0531,2.0836 0,0.84404 0.0217,0.94051 0.0217,0.0965 0.1447,0.0965 0.0724,0 0.25562,-0.0314 v 0.13022 q -0.50401,0.14952 -0.78134,0.3111 l -0.0603,-0.0458 q 0.0289,-0.18087 0.0362,-0.36174 -0.30144,0.27251 -0.44373,0.34003 -0.13987,0.0675 -0.3352,0.0675 -0.36897,0 -0.61254,-0.27492 -0.24116,-0.27733 -0.24116,-0.78376 0,-0.34727 0.11817,-0.59807 0.0892,-0.19293 0.25803,-0.36415 0.16881,-0.17363 0.37621,-0.27492 0.20981,-0.10369 0.41961,-0.10369 0.0965,0 0.21463,0.0241 0.11817,0.0241 0.25804,0.0724 0.005,-0.12058 0.005,-0.13987 0,-0.56672 -0.0217,-0.62701 -0.0289,-0.0892 -0.15917,-0.0892 -0.0434,0 -0.15434,0.0169 -0.0289,0.005 -0.0844,0.0121 z m 0.41479,1.86897 q 0,-0.47508 -0.0217,-0.54984 -0.041,-0.14469 -0.19051,-0.24357 -0.1471,-0.10128 -0.36656,-0.10128 -0.27492,0 -0.46784,0.22909 -0.19293,0.22669 -0.19293,0.66801 0,0.45337 0.19534,0.69212 0.19534,0.23633 0.46784,0.23633 0.18087,0 0.33039,-0.1037 0.14952,-0.10369 0.19775,-0.2508 0.0482,-0.1471 0.0482,-0.57636 z"
         style="stroke-width:0.26458332"
         id="path969" />
      <path
         d="m 142.35727,217.2892 v -0.13505 q 0.43891,-0.0241 0.80788,-0.1061 l 0.0603,0.0458 q -0.0506,0.4172 -0.0506,1.01285 0,0.51849 0.0314,0.66318 0.0338,0.14229 0.14228,0.22428 0.10852,0.082 0.26045,0.082 0.17363,0 0.32556,-0.094 0.15434,-0.0941 0.21463,-0.23874 0.0603,-0.1447 0.0603,-0.44614 0,-0.0362 -0.0145,-0.8127 -0.0121,-0.1037 -0.0627,-0.13987 -0.0482,-0.0362 -0.27251,-0.0482 l -0.0868,-0.007 v -0.13505 q 0.51608,-0.0386 0.80547,-0.1061 l 0.0627,0.0458 q -0.0217,0.20016 -0.0338,0.5016 -0.01,0.29904 -0.01,0.69936 0,0.50401 0.0265,0.59806 0.0265,0.0941 0.13504,0.0941 0.0627,0 0.25322,-0.0289 v 0.13504 q -0.24839,0.0651 -0.41961,0.13264 -0.16881,0.0675 -0.35933,0.17846 l -0.0723,-0.0531 q 0.0313,-0.17845 0.0362,-0.35691 -0.28457,0.26527 -0.42685,0.33762 -0.14228,0.0724 -0.31832,0.0724 -0.3328,0 -0.49679,-0.16399 -0.1664,-0.16158 -0.1664,-0.49437 v -0.84405 q -0.002,-0.45096 -0.053,-0.51849 -0.0482,-0.0675 -0.29421,-0.0844 -0.0289,-0.002 -0.0844,-0.01 z"
         style="stroke-width:0.26458332"
         id="path971" />
      <path
         d="m 147.04536,217.81492 -0.16158,-0.012 q -0.01,-0.30386 -0.15434,-0.44856 -0.14228,-0.1471 -0.39067,-0.1471 -0.17846,0 -0.34244,0.0989 -0.16399,0.0965 -0.25804,0.31833 -0.0916,0.21945 -0.0916,0.49919 0,0.44856 0.21704,0.70177 0.21945,0.2508 0.50643,0.2508 0.30145,0 0.72588,-0.23874 l 0.0892,0.14469 q -0.37862,0.27974 -0.62942,0.39309 -0.12058,0.053 -0.29421,0.053 -0.42202,0 -0.68247,-0.24598 -0.34486,-0.32556 -0.34486,-0.88263 0,-0.57637 0.36174,-0.94775 0.36173,-0.37138 0.89228,-0.37138 0.36173,0 0.69694,0.18569 -0.0169,0.082 -0.0482,0.21222 -0.041,0.17122 -0.0916,0.43649 z"
         style="stroke-width:0.26458332"
         id="path973" />
      <path
         d="m 147.99793,216.47409 h 0.13987 l -0.0555,0.61495 0.66801,-0.007 0.0193,0.0386 q -0.0603,0.0989 -0.11093,0.21222 -0.28457,-0.0145 -0.57637,-0.0193 l -0.0217,1.23954 v 0.0145 q 0,0.28698 0.0627,0.41479 0.0651,0.1254 0.21945,0.1254 0.12781,0 0.33762,-0.10852 l 0.0699,0.13746 q -0.26286,0.16399 -0.40032,0.21463 -0.13746,0.0531 -0.23875,0.0531 -0.15916,0 -0.27009,-0.082 -0.11094,-0.0844 -0.14711,-0.23151 -0.0217,-0.082 -0.0217,-0.5016 0,-0.44855 0.0265,-1.27572 -0.16881,0.005 -0.34967,0.0193 v -0.13022 q 0.20257,-0.0916 0.34967,-0.25081 0.14952,-0.15916 0.29904,-0.47749 z"
         style="stroke-width:0.26458332"
         id="path975" />
      <path
         d="m 150.52766,216.82136 h -0.17122 q 0.0748,-0.28939 0.11576,-0.59566 0.20016,-0.16881 0.40273,-0.2508 0.20498,-0.0844 0.41238,-0.0844 0.24839,0 0.46543,0.11817 0.21704,0.11576 0.32797,0.32797 0.11093,0.21222 0.11093,0.46785 0,0.23151 -0.0844,0.4389 -0.10611,0.2701 -0.3545,0.57878 -0.24839,0.30868 -1.0418,1.16478 h 1.01045 q 0.21945,0 0.28939,-0.0434 0.0723,-0.0434 0.1688,-0.24116 0.01,-0.0169 0.0289,-0.0531 h 0.18328 q -0.19775,0.47025 -0.2918,0.72105 -0.48472,-0.0265 -0.87298,-0.0265 -0.34727,0 -1.0635,0.0265 v -0.14228 q 0.73311,-0.76447 1.0442,-1.14067 0.3111,-0.37862 0.44373,-0.69453 0.0916,-0.21222 0.0916,-0.45338 0,-0.31832 -0.15434,-0.48472 -0.15434,-0.1664 -0.40032,-0.1664 -0.22186,0 -0.3955,0.14228 -0.13263,0.10611 -0.26527,0.39068 z"
         style="stroke-width:0.26458332"
         id="path977" />
    </g>
    <text
       xml:space="preserve"
       style="font-style:normal;font-variant:normal;font-weight:normal;font-stretch:normal;font-size:4.93888855px;line-height:1.25;font-family:'Calisto MT';-inkscape-font-specification:'Calisto MT';letter-spacing:0px;word-spacing:0px;fill:#000000;fill-opacity:1;stroke:none;stroke-width:0.26458332"
       x="126.68041"
       y="219.27219"
       id="text919-2"><tspan
         sodipodi:role="line"
         id="tspan917-4"
         x="126.68041"
         y="219.27219"
         style="stroke-width:0.26458332">+</tspan></text>
    <rect
       style="opacity:1;fill:none;fill-opacity:0.24623114;stroke:#969696;stroke-width:0.5;stroke-linecap:square;stroke-linejoin:miter;stroke-miterlimit:4;stroke-dasharray:none;stroke-dashoffset:0;stroke-opacity:1;paint-order:fill markers stroke"
       id="rect959"
       width="50.270832"
       height="7.9375"
       x="103.18748"
       y="213.65625"
       ry="0.10295863" />
  </g>
</svg>
