<?xml version="1.0" encoding="UTF-8" standalone="no"?>
<!-- Created with Inkscape (http://www.inkscape.org/) -->

<svg
   xmlns:dc="http://purl.org/dc/elements/1.1/"
   xmlns:cc="http://creativecommons.org/ns#"
   xmlns:rdf="http://www.w3.org/1999/02/22-rdf-syntax-ns#"
   xmlns:svg="http://www.w3.org/2000/svg"
   xmlns="http://www.w3.org/2000/svg"
   xmlns:xlink="http://www.w3.org/1999/xlink"
   xmlns:sodipodi="http://sodipodi.sourceforge.net/DTD/sodipodi-0.dtd"
   xmlns:inkscape="http://www.inkscape.org/namespaces/inkscape"
   width="76.103676mm"
   height="26.52096mm"
   viewBox="0 0 76.103681 26.520959"
   version="1.1"
   id="svg8"
   inkscape:version="0.92.2 (5c3e80d, 2017-08-06)"
   sodipodi:docname="law_of_reflection.svg">
  <defs
     id="defs2">
    <linearGradient
       inkscape:collect="always"
       id="linearGradient1055">
      <stop
         style="stop-color:#999999;stop-opacity:1"
         offset="0"
         id="stop1051" />
      <stop
         style="stop-color:#1a1a1a;stop-opacity:1"
         offset="1"
         id="stop1053" />
    </linearGradient>
    <linearGradient
       id="linearGradient4583"
       inkscape:collect="always">
      <stop
         id="stop4579"
         offset="0"
         style="stop-color:#cccccc;stop-opacity:1" />
      <stop
         id="stop4581"
         offset="1"
         style="stop-color:#1a1a1a;stop-opacity:1" />
    </linearGradient>
    <linearGradient
       inkscape:collect="always"
       id="linearGradient4537">
      <stop
         style="stop-color:#ffffff;stop-opacity:1"
         offset="0"
         id="stop4533" />
      <stop
         style="stop-color:#1a1a1a;stop-opacity:1"
         offset="1"
         id="stop4535" />
    </linearGradient>
    <radialGradient
       inkscape:collect="always"
       xlink:href="#linearGradient4537"
       id="radialGradient4541"
       cx="35.229485"
       cy="100.66043"
       fx="35.229485"
       fy="100.66043"
       r="27.970238"
       gradientUnits="userSpaceOnUse"
       gradientTransform="matrix(0.20294865,0.94971109,-0.91712483,0.19598463,114.03888,55.656517)" />
    <radialGradient
       inkscape:collect="always"
       xlink:href="#linearGradient4583"
       id="radialGradient4541-2"
       cx="35.229485"
       cy="100.66043"
       fx="35.229485"
       fy="100.66043"
       r="27.970238"
       gradientUnits="userSpaceOnUse"
       gradientTransform="matrix(0.20294865,0.94971109,-0.91712483,0.19598463,176.84185,53.518356)" />
    <radialGradient
       inkscape:collect="always"
       xlink:href="#linearGradient1055"
       id="radialGradient4617"
       gradientUnits="userSpaceOnUse"
       gradientTransform="matrix(0.20294865,0.94971109,-0.91712483,0.19598463,211.28085,55.656513)"
       cx="35.229485"
       cy="100.66043"
       fx="35.229485"
       fy="100.66043"
       r="27.970238" />
  </defs>
  <sodipodi:namedview
     id="base"
     pagecolor="#ffffff"
     bordercolor="#666666"
     borderopacity="1.0"
     inkscape:pageopacity="0.0"
     inkscape:pageshadow="2"
     inkscape:zoom="2.342056"
     inkscape:cx="46.612728"
     inkscape:cy="48.125663"
     inkscape:document-units="mm"
     inkscape:current-layer="layer1"
     showgrid="false"
     inkscape:window-width="1920"
     inkscape:window-height="1017"
     inkscape:window-x="-8"
     inkscape:window-y="-8"
     inkscape:window-maximized="1"
     showguides="false"
     inkscape:snap-midpoints="false"
     inkscape:object-nodes="false"
     inkscape:measure-start="211.353,17.933"
     inkscape:measure-end="244.657,18.1464">
    <inkscape:grid
       type="xygrid"
       id="grid1719"
       originx="-6.3842388"
       originy="-109.929" />
  </sodipodi:namedview>
  <metadata
     id="metadata5">
    <rdf:RDF>
      <cc:Work
         rdf:about="">
        <dc:format>image/svg+xml</dc:format>
        <dc:type
           rdf:resource="http://purl.org/dc/dcmitype/StillImage" />
        <dc:title />
      </cc:Work>
    </rdf:RDF>
  </metadata>
  <g
     inkscape:label="Layer 1"
     inkscape:groupmode="layer"
     id="layer1"
     transform="translate(-6.3842346,-160.55003)">
    <path
       style="fill:none;stroke:#808080;stroke-width:0.26499999;stroke-linecap:butt;stroke-linejoin:miter;stroke-miterlimit:4;stroke-dasharray:0.26499999, 0.26499999;stroke-dashoffset:0;stroke-opacity:1"
       d="m 39.264547,180.27508 c 2.077716,-3.56604 7.39455,-4.11551 9.884923,0.14121"
       id="path953"
       inkscape:connector-curvature="0"
       sodipodi:nodetypes="cc" />
    <g
       id="g2553"
       style="stroke:#e1d08c;stroke-opacity:1"
       transform="translate(5.8208336)" />
    <g
       id="g1809"
       transform="translate(8.4666671)">
      <g
         style="stroke:#ff0000;stroke-opacity:1"
         id="g2482">
        <path
           style="fill:#00ff00;stroke:#ff0000;stroke-width:0.5;stroke-linecap:butt;stroke-linejoin:miter;stroke-miterlimit:4;stroke-dasharray:none;stroke-opacity:1"
           d="M 7.9113052,165.98893 35.58518,183.24154"
           id="path2463"
           inkscape:connector-curvature="0"
           sodipodi:nodetypes="cc" />
        <path
           style="fill:#00ff00;stroke:#ff0000;stroke-width:0.5;stroke-linecap:butt;stroke-linejoin:miter;stroke-miterlimit:4;stroke-dasharray:none;stroke-opacity:1"
           d="M 63.500228,165.99439 35.826353,183.247"
           id="path2463-7"
           inkscape:connector-curvature="0"
           sodipodi:nodetypes="cc" />
      </g>
      <rect
         y="183.22917"
         x="7.9375"
         height="2.6458282"
         width="55.562496"
         id="rect1769"
         style="opacity:0.95;fill:#e6e6e6;fill-opacity:1;stroke:none;stroke-width:0.47776651;stroke-linecap:butt;stroke-linejoin:round;stroke-miterlimit:4;stroke-dasharray:none;stroke-opacity:1;paint-order:fill markers stroke" />
      <path
         inkscape:connector-curvature="0"
         id="path1723"
         d="M 10.583333,183.22917 C 7.9374999,185.875 7.9374999,185.875 7.9374999,185.875"
         style="fill:none;stroke:#000000;stroke-width:0.26458332px;stroke-linecap:butt;stroke-linejoin:miter;stroke-opacity:1" />
      <path
         inkscape:connector-curvature="0"
         id="path1725"
         d="M 13.229167,183.22917 10.583333,185.875"
         style="fill:none;stroke:#000000;stroke-width:0.26458332px;stroke-linecap:butt;stroke-linejoin:miter;stroke-opacity:1" />
      <path
         inkscape:connector-curvature="0"
         id="path1727"
         d="M 15.875,183.22917 13.229167,185.875"
         style="fill:none;stroke:#000000;stroke-width:0.26458332px;stroke-linecap:butt;stroke-linejoin:miter;stroke-opacity:1" />
      <path
         inkscape:connector-curvature="0"
         id="path1729"
         d="M 18.520833,183.22917 15.875,185.875"
         style="fill:none;stroke:#000000;stroke-width:0.26458332px;stroke-linecap:butt;stroke-linejoin:miter;stroke-opacity:1" />
      <path
         inkscape:connector-curvature="0"
         id="path1731"
         d="M 21.166666,183.22917 18.520833,185.875"
         style="fill:none;stroke:#000000;stroke-width:0.26458332px;stroke-linecap:butt;stroke-linejoin:miter;stroke-opacity:1" />
      <path
         inkscape:connector-curvature="0"
         id="path1733"
         d="M 23.8125,183.22917 21.166666,185.875"
         style="fill:none;stroke:#000000;stroke-width:0.26458332px;stroke-linecap:butt;stroke-linejoin:miter;stroke-opacity:1" />
      <path
         inkscape:connector-curvature="0"
         id="path1735"
         d="M 26.458333,183.22917 23.8125,185.875"
         style="fill:none;stroke:#000000;stroke-width:0.26458332px;stroke-linecap:butt;stroke-linejoin:miter;stroke-opacity:1" />
      <path
         inkscape:connector-curvature="0"
         id="path1737"
         d="M 29.104166,183.22917 26.458333,185.875"
         style="fill:none;stroke:#000000;stroke-width:0.26458332px;stroke-linecap:butt;stroke-linejoin:miter;stroke-opacity:1" />
      <path
         inkscape:connector-curvature="0"
         id="path1739"
         d="M 31.75,183.22917 29.104166,185.875"
         style="fill:none;stroke:#000000;stroke-width:0.26458332px;stroke-linecap:butt;stroke-linejoin:miter;stroke-opacity:1" />
      <path
         inkscape:connector-curvature="0"
         id="path1741"
         d="M 34.395833,183.22917 31.75,185.875"
         style="fill:none;stroke:#000000;stroke-width:0.26458332px;stroke-linecap:butt;stroke-linejoin:miter;stroke-opacity:1" />
      <path
         inkscape:connector-curvature="0"
         id="path1743"
         d="M 37.041666,183.22917 34.395833,185.875"
         style="fill:none;stroke:#000000;stroke-width:0.26458332px;stroke-linecap:butt;stroke-linejoin:miter;stroke-opacity:1" />
      <path
         inkscape:connector-curvature="0"
         id="path1745"
         d="M 39.6875,183.22917 37.041666,185.875"
         style="fill:none;stroke:#000000;stroke-width:0.26458332px;stroke-linecap:butt;stroke-linejoin:miter;stroke-opacity:1" />
      <path
         inkscape:connector-curvature="0"
         id="path1747"
         d="M 42.333333,183.22917 39.6875,185.875"
         style="fill:none;stroke:#000000;stroke-width:0.26458332px;stroke-linecap:butt;stroke-linejoin:miter;stroke-opacity:1" />
      <path
         inkscape:connector-curvature="0"
         id="path1749"
         d="M 44.979166,183.22917 42.333333,185.875"
         style="fill:none;stroke:#000000;stroke-width:0.26458332px;stroke-linecap:butt;stroke-linejoin:miter;stroke-opacity:1" />
      <path
         inkscape:connector-curvature="0"
         id="path1751"
         d="M 47.624999,183.22917 44.979166,185.875"
         style="fill:none;stroke:#000000;stroke-width:0.26458332px;stroke-linecap:butt;stroke-linejoin:miter;stroke-opacity:1" />
      <path
         inkscape:connector-curvature="0"
         id="path1753"
         d="M 50.270833,183.22917 47.624999,185.875"
         style="fill:none;stroke:#000000;stroke-width:0.26458332px;stroke-linecap:butt;stroke-linejoin:miter;stroke-opacity:1" />
      <path
         inkscape:connector-curvature="0"
         id="path1755"
         d="M 52.916666,183.22917 50.270833,185.875"
         style="fill:none;stroke:#000000;stroke-width:0.26458332px;stroke-linecap:butt;stroke-linejoin:miter;stroke-opacity:1" />
      <path
         inkscape:connector-curvature="0"
         id="path1757"
         d="M 55.562499,183.22917 52.916666,185.875"
         style="fill:none;stroke:#000000;stroke-width:0.26458332px;stroke-linecap:butt;stroke-linejoin:miter;stroke-opacity:1" />
      <path
         inkscape:connector-curvature="0"
         id="path1759"
         d="M 58.208333,183.22917 55.562499,185.875"
         style="fill:none;stroke:#000000;stroke-width:0.26458332px;stroke-linecap:butt;stroke-linejoin:miter;stroke-opacity:1" />
      <path
         inkscape:connector-curvature="0"
         id="path1761"
         d="M 60.854166,183.22917 58.208333,185.875"
         style="fill:none;stroke:#000000;stroke-width:0.26458332px;stroke-linecap:butt;stroke-linejoin:miter;stroke-opacity:1" />
      <path
         inkscape:connector-curvature="0"
         id="path1763"
         d="M 63.499999,183.22917 60.854166,185.875"
         style="fill:none;stroke:#000000;stroke-width:0.26458332px;stroke-linecap:butt;stroke-linejoin:miter;stroke-opacity:1" />
      <path
         inkscape:connector-curvature="0"
         id="path1721"
         d="m 7.9374999,183.22917 c 55.5625001,0 55.5625001,0 55.5625001,0"
         style="fill:none;stroke:#000000;stroke-width:0.5;stroke-linecap:butt;stroke-linejoin:miter;stroke-miterlimit:4;stroke-dasharray:none;stroke-opacity:1" />
      <path
         inkscape:transform-center-y="-1.9292435"
         inkscape:transform-center-x="-0.59928886"
         sodipodi:nodetypes="cccc"
         inkscape:connector-curvature="0"
         id="path1740-4-3-7-3-9"
         d="m 23.481487,175.69297 -4.663381,-4.36761 -1.321133,2.12958 z"
         style="fill:#ff0000;fill-opacity:1;stroke:none;stroke-width:0.4735913;stroke-linecap:butt;stroke-linejoin:miter;stroke-miterlimit:4;stroke-dasharray:none;stroke-opacity:1" />
      <path
         style="fill:none;stroke:#808080;stroke-width:0.5;stroke-linecap:butt;stroke-linejoin:miter;stroke-miterlimit:4;stroke-dasharray:1, 0.5;stroke-dashoffset:0;stroke-opacity:1"
         d="M 35.723839,182.76868 V 164.91501"
         id="path917"
         inkscape:connector-curvature="0" />
      <path
         inkscape:transform-center-y="1.9292435"
         inkscape:transform-center-x="-0.59928886"
         sodipodi:nodetypes="cccc"
         inkscape:connector-curvature="0"
         id="path1740-4-3-7-3-9-9"
         d="m 54.687975,171.4708 -4.663381,4.36761 -1.321133,-2.12958 z"
         style="fill:#ff0000;fill-opacity:1;stroke:none;stroke-width:0.4735913;stroke-linecap:butt;stroke-linejoin:miter;stroke-miterlimit:4;stroke-dasharray:none;stroke-opacity:1" />
    </g>
    <g
       aria-label="0i"
       style="font-style:normal;font-weight:normal;font-size:10.58333302px;line-height:1.25;font-family:sans-serif;letter-spacing:0px;word-spacing:0px;fill:#000000;fill-opacity:1;stroke:none;stroke-width:0.26458332"
       id="text957">
      <path
         d="m 36.898895,173.59417 q 0,-0.86403 0.316259,-1.27331 0.254249,-0.32866 0.659392,-0.32866 0.256315,0 0.454752,0.13849 0.200505,0.13849 0.31626,0.44235 0.117822,0.30179 0.117822,0.81029 0,0.49816 -0.10542,0.89917 -0.10542,0.40101 -0.359668,0.60358 -0.192236,0.15089 -0.487825,0.15089 -0.465088,0 -0.68833,-0.37827 -0.223242,-0.37827 -0.223242,-1.06453 z m 0.411344,-0.11576 q 0,0.42788 0.03721,0.6842 0.03927,0.25631 0.117822,0.41754 0.08062,0.16123 0.165365,0.22531 0.08682,0.062 0.206706,0.062 0.144694,0 0.254248,-0.093 0.109554,-0.0951 0.188102,-0.35761 0.08062,-0.26251 0.08062,-0.77514 0,-0.47749 -0.07235,-0.90537 -0.03307,-0.1881 -0.09508,-0.31833 -0.06201,-0.13022 -0.148829,-0.19224 -0.08682,-0.0641 -0.221175,-0.0641 -0.128157,0 -0.217041,0.0641 -0.08682,0.0641 -0.150895,0.19224 -0.04754,0.093 -0.08268,0.28319 -0.06201,0.32659 -0.06201,0.77721 z"
         style="font-style:normal;font-variant:normal;font-weight:normal;font-stretch:normal;font-size:4.23333311px;font-family:'Calisto MT';-inkscape-font-specification:'Calisto MT';baseline-shift:sub;stroke-width:0.26458332"
         id="path1039" />
      <path
         d="m 39.530258,174.04892 q 0.09095,0 0.152963,0.0641 0.06408,0.062 0.06408,0.15296 0,0.0889 -0.06408,0.15296 -0.06201,0.0641 -0.152963,0.0641 -0.08888,0 -0.152962,-0.0641 -0.06201,-0.0641 -0.06201,-0.15296 0,-0.091 0.06201,-0.15296 0.06408,-0.0641 0.152962,-0.0641 z m -0.514697,1.37459 v -0.11575 q 0.347266,-0.0889 0.65319,-0.26459 l 0.05374,0.0434 q -0.04134,0.43822 -0.04134,1.2423 0,0.37621 0.0186,0.46302 0.0124,0.0579 0.04341,0.0848 0.03101,0.0248 0.214974,0.0785 0.02274,0.006 0.06821,0.0207 v 0.11576 q -0.270784,-0.0227 -0.444417,-0.0227 -0.10542,0 -0.566374,0.0227 v -0.11576 q 0.279053,-0.0682 0.314193,-0.12402 0.03514,-0.0579 0.03514,-0.59531 l -0.0021,-0.44029 v -0.0847 q 0,-0.23151 -0.03101,-0.27905 -0.03101,-0.0475 -0.09922,-0.0475 -0.04341,0 -0.217041,0.0186 z"
         style=""
         id="path1041" />
    </g>
    <g
       aria-label="0r"
       style="font-style:normal;font-weight:normal;font-size:10.58333302px;line-height:1.25;font-family:sans-serif;letter-spacing:0px;word-spacing:0px;fill:#000000;fill-opacity:1;stroke:none;stroke-width:0.26458332"
       id="text957-6">
      <path
         d="m 47.471057,173.60317 q 0,-0.86403 0.31626,-1.27331 0.254248,-0.32866 0.659391,-0.32866 0.256315,0 0.454753,0.13849 0.200504,0.1385 0.31626,0.44235 0.117822,0.30179 0.117822,0.81029 0,0.49816 -0.10542,0.89917 -0.10542,0.40101 -0.359668,0.60358 -0.192236,0.15089 -0.487825,0.15089 -0.465088,0 -0.68833,-0.37827 -0.223243,-0.37827 -0.223243,-1.06453 z m 0.411345,-0.11576 q 0,0.42788 0.03721,0.6842 0.03927,0.25631 0.117822,0.41754 0.08062,0.16124 0.165365,0.22531 0.08682,0.062 0.206705,0.062 0.144694,0 0.254248,-0.093 0.109554,-0.0951 0.188103,-0.3576 0.08062,-0.26252 0.08062,-0.77515 0,-0.47749 -0.07235,-0.90537 -0.03307,-0.1881 -0.09509,-0.31833 -0.06201,-0.13022 -0.148828,-0.19223 -0.08682,-0.0641 -0.221175,-0.0641 -0.128158,0 -0.217041,0.0641 -0.08682,0.0641 -0.150895,0.19223 -0.04754,0.093 -0.08268,0.28319 -0.06201,0.3266 -0.06201,0.77721 z"
         style="font-style:normal;font-variant:normal;font-weight:normal;font-stretch:normal;font-size:4.23333311px;font-family:'Calisto MT';-inkscape-font-specification:'Calisto MT';baseline-shift:sub;stroke-width:0.26458332"
         id="path1044" />
      <path
         d="m 49.538114,175.45732 v -0.11782 q 0.38654,-0.0971 0.659392,-0.26665 l 0.05374,0.0393 q -0.03307,0.2005 -0.03927,0.43822 0.250114,-0.30386 0.349333,-0.37207 0.09922,-0.0682 0.233577,-0.0682 0.08888,0 0.198438,0.0434 -0.04548,0.21084 -0.07441,0.42995 h -0.103353 q -0.0186,-0.0992 -0.06201,-0.14263 -0.04341,-0.0455 -0.09715,-0.0455 -0.08268,0 -0.177767,0.0765 -0.140559,0.11369 -0.204638,0.26251 -0.06201,0.14677 -0.06201,0.41755 0,0.47956 0.02687,0.64492 0.01033,0.062 0.05581,0.0971 0.04754,0.0351 0.293523,0.0909 v 0.11576 q -0.258383,-0.0227 -0.469222,-0.0227 -0.1757,0 -0.580844,0.0227 v -0.11576 q 0.283187,-0.0703 0.318327,-0.10748 0.03721,-0.0393 0.03721,-0.20671 l 0.0041,-0.44855 q 0,-0.65939 -0.0124,-0.709 -0.02067,-0.0827 -0.115755,-0.0827 -0.05374,0 -0.177767,0.0207 -0.0186,0.002 -0.05374,0.006 z"
         style=""
         id="path1046" />
    </g>
    <g
       aria-label="Normal"
       style="font-style:normal;font-weight:normal;font-size:4.23333311px;line-height:1.25;font-family:sans-serif;letter-spacing:0px;word-spacing:0px;fill:#000000;fill-opacity:1;stroke:none;stroke-width:0.26458332"
       id="text996">
      <path
         d="m 38.231893,162.17648 v -0.10163 q 0.218764,0.0189 0.34451,0.0189 0.10163,0 0.363457,-0.0189 l 0.489204,0.61151 q 0.06718,0.081 1.036974,1.25573 0.0017,-0.24115 0.0017,-0.34967 0,-0.25666 -0.0155,-0.93879 -0.0069,-0.31867 -0.01723,-0.34623 -0.0086,-0.0276 -0.03962,-0.05 -0.02928,-0.0224 -0.239434,-0.062 -0.02756,-0.005 -0.08096,-0.0189 v -0.10163 q 0.306614,0.0189 0.487481,0.0189 0.1757,0 0.485759,-0.0189 v 0.10163 q -0.04651,0.0121 -0.0689,0.0155 -0.230821,0.0482 -0.25666,0.0637 -0.01895,0.0103 -0.03101,0.031 -0.01722,0.0276 -0.02412,0.10336 -0.0017,0.0327 -0.0086,0.47025 -0.0052,0.43581 -0.0052,0.84405 0,0.48231 0.01723,0.81477 l -0.111966,0.0517 -0.718302,-0.89228 -0.942234,-1.13343 0.0086,1.01802 q 0.0086,0.66835 0.01895,0.71314 0.0069,0.031 0.03101,0.0534 0.0379,0.0345 0.25666,0.0723 0.02584,0.003 0.07751,0.0155 v 0.10163 q -0.26355,-0.0189 -0.444417,-0.0189 -0.151584,0 -0.528822,0.0189 v -0.10163 q 0.06029,-0.0138 0.09129,-0.0207 0.206705,-0.0362 0.239434,-0.0672 0.01895,-0.0155 0.02756,-0.0534 0.01723,-0.0792 0.02239,-0.59945 0.0086,-0.73725 0.0086,-0.87161 0,-0.43236 -0.01206,-0.48059 -0.0069,-0.0345 -0.04479,-0.0568 -0.0379,-0.0241 -0.325561,-0.0724 -0.03101,-0.005 -0.09302,-0.0189 z"
         style="font-style:normal;font-variant:normal;font-weight:normal;font-stretch:normal;font-size:3.52777767px;font-family:'Calisto MT';-inkscape-font-specification:'Calisto MT';stroke-width:0.26458332"
         id="path4560" />
      <path
         d="m 41.232571,163.71472 q 0,-0.41686 0.235989,-0.65974 0.23599,-0.24288 0.620118,-0.24288 0.363457,0 0.575331,0.21877 0.213596,0.21876 0.213596,0.6115 0,0.42375 -0.239435,0.67179 -0.237711,0.24633 -0.616672,0.24633 -0.366902,0 -0.578776,-0.22049 -0.210151,-0.22048 -0.210151,-0.62528 z m 0.33073,-0.14987 q 0,0.2825 0.03617,0.41686 0.05684,0.21704 0.179145,0.32729 0.124024,0.10852 0.287666,0.10852 0.211873,0 0.347954,-0.1602 0.136081,-0.16192 0.136081,-0.51849 0,-0.39963 -0.155029,-0.59083 -0.153307,-0.19293 -0.361735,-0.19293 -0.206706,0 -0.339342,0.15159 -0.130913,0.14986 -0.130913,0.45819 z"
         style="font-style:normal;font-variant:normal;font-weight:normal;font-stretch:normal;font-size:3.52777767px;font-family:'Calisto MT';-inkscape-font-specification:'Calisto MT';stroke-width:0.26458332"
         id="path4562" />
      <path
         d="m 43.07053,163.14972 v -0.0982 q 0.322116,-0.081 0.549493,-0.22221 l 0.04479,0.0327 q -0.02756,0.16708 -0.03273,0.36518 0.208428,-0.25322 0.29111,-0.31006 0.08268,-0.0568 0.194648,-0.0568 0.07407,0 0.165365,0.0362 -0.0379,0.1757 -0.06201,0.35829 h -0.08613 q -0.0155,-0.0827 -0.05168,-0.11886 -0.03617,-0.0379 -0.08096,-0.0379 -0.0689,0 -0.148139,0.0637 -0.117133,0.0947 -0.170532,0.21876 -0.05168,0.1223 -0.05168,0.34796 0,0.39963 0.02239,0.53743 0.0086,0.0517 0.04651,0.081 0.03962,0.0293 0.244602,0.0758 v 0.0965 q -0.215318,-0.0189 -0.391018,-0.0189 -0.146417,0 -0.484036,0.0189 v -0.0965 q 0.235989,-0.0586 0.265272,-0.0896 0.03101,-0.0327 0.03101,-0.17225 l 0.0034,-0.3738 q 0,-0.54949 -0.01033,-0.59083 -0.01723,-0.0689 -0.09646,-0.0689 -0.04479,0 -0.148139,0.0172 -0.0155,0.002 -0.04479,0.005 z"
         style="font-style:normal;font-variant:normal;font-weight:normal;font-stretch:normal;font-size:3.52777767px;font-family:'Calisto MT';-inkscape-font-specification:'Calisto MT';stroke-width:0.26458332"
         id="path4564" />
      <path
         d="m 44.388279,163.14628 v -0.0982 q 0.320393,-0.0879 0.54777,-0.21876 l 0.04134,0.0362 q -0.02412,0.1378 -0.02928,0.29628 l 0.249769,-0.23082 q 0.04651,-0.0413 0.113688,-0.0672 0.09302,-0.0344 0.196371,-0.0344 0.191202,0 0.318671,0.10335 0.0913,0.0741 0.129191,0.2291 0.191203,-0.2136 0.279053,-0.26183 0.130913,-0.0706 0.287665,-0.0706 0.129191,0 0.234267,0.0551 0.106798,0.0534 0.153306,0.12574 0.04823,0.0706 0.06201,0.15159 0.01378,0.0792 0.01378,0.26183 l -0.0034,0.47197 q 0,0.35313 0.01378,0.41169 0.0086,0.0379 0.03617,0.0569 0.02756,0.0172 0.229099,0.0586 v 0.0965 q -0.217041,-0.0189 -0.368625,-0.0189 -0.132636,0 -0.463365,0.0189 v -0.0965 q 0.03273,-0.0103 0.04995,-0.0155 0.15503,-0.0448 0.177423,-0.0689 0.02412,-0.0258 0.03273,-0.1447 0.01723,-0.23943 0.01723,-0.54432 0,-0.29283 -0.02584,-0.38241 -0.02412,-0.0913 -0.09819,-0.14297 -0.07407,-0.0517 -0.180867,-0.0517 -0.148139,0 -0.265273,0.0896 -0.11541,0.0879 -0.151584,0.22738 -0.02067,0.0741 -0.02067,0.46508 0,0.44614 0.02756,0.48748 0.02756,0.0413 0.251492,0.081 v 0.0965 q -0.223931,-0.0189 -0.408243,-0.0189 -0.189481,0 -0.418579,0.0189 v -0.0965 l 0.04479,-0.0121 q 0.161919,-0.0431 0.18259,-0.0758 0.0379,-0.0586 0.03962,-0.32211 l 0.01034,-0.50988 q 0,-0.24632 -0.07924,-0.33934 -0.07924,-0.0947 -0.225653,-0.0947 -0.122301,0 -0.235989,0.0724 -0.113688,0.0724 -0.167087,0.19465 -0.04134,0.093 -0.04134,0.31694 l 0.0034,0.29973 q 0,0.33589 0.02412,0.37551 0.02412,0.0379 0.204983,0.081 0.02067,0.003 0.05857,0.0138 v 0.0965 q -0.206706,-0.0189 -0.37207,-0.0189 -0.153307,0 -0.449585,0.0189 v -0.0965 q 0.20326,-0.0413 0.229099,-0.0706 0.03101,-0.0396 0.03101,-0.25494 v -0.0465 l 0.0069,-0.5047 q 0,-0.32901 -0.02756,-0.3738 -0.02584,-0.0465 -0.0913,-0.0465 -0.05168,0 -0.173977,0.0207 z"
         style="font-style:normal;font-variant:normal;font-weight:normal;font-stretch:normal;font-size:3.52777767px;font-family:'Calisto MT';-inkscape-font-specification:'Calisto MT';stroke-width:0.26458332"
         id="path4566" />
      <path
         d="m 47.643894,163.34954 -0.111965,-0.0121 q 0.03445,-0.17915 0.04823,-0.35657 0.335897,-0.15158 0.606337,-0.15158 0.117133,0 0.211873,0.0344 0.09474,0.0327 0.149862,0.093 0.05512,0.0586 0.08268,0.14124 0.02928,0.0827 0.02928,0.26355 l -0.0155,0.71142 q 0,0.14469 0.03273,0.18948 0.03273,0.0448 0.08441,0.0448 0.06201,0 0.194648,-0.093 l 0.0534,0.0706 q -0.24288,0.21704 -0.265273,0.23082 -0.04823,0.0276 -0.120578,0.0276 -0.111966,0 -0.173977,-0.0551 -0.06029,-0.0568 -0.08096,-0.18948 -0.206706,0.1602 -0.306614,0.20154 -0.09991,0.0431 -0.217041,0.0431 -0.191202,0 -0.308336,-0.11541 -0.117133,-0.11713 -0.117133,-0.298 0,-0.11024 0.04134,-0.19809 0.04134,-0.0896 0.118856,-0.15675 0.06029,-0.05 0.203261,-0.12058 0.335896,-0.16364 0.585666,-0.26355 -0.0086,-0.24288 -0.08096,-0.32212 -0.07235,-0.0792 -0.222209,-0.0792 -0.141248,0 -0.242879,0.0879 -0.09991,0.0861 -0.179145,0.27217 z m 0.725193,0.1912 q -0.449585,0.20154 -0.544325,0.29455 -0.09302,0.0913 -0.09302,0.22049 0,0.12919 0.07062,0.20671 0.07062,0.0775 0.165364,0.0775 0.09819,0 0.211874,-0.0637 0.11541,-0.0655 0.151584,-0.14642 0.0379,-0.081 0.0379,-0.29456 z"
         style="font-style:normal;font-variant:normal;font-weight:normal;font-stretch:normal;font-size:3.52777767px;font-family:'Calisto MT';-inkscape-font-specification:'Calisto MT';stroke-width:0.26458332"
         id="path4568" />
      <path
         d="m 49.075331,162.3074 v -0.0947 q 0.306614,-0.0982 0.554661,-0.22566 l 0.04651,0.031 q -0.04134,0.32384 -0.04134,1.20406 0,0.88883 0.0069,0.98357 0.0069,0.093 0.0379,0.12575 0.03273,0.031 0.249769,0.0913 v 0.0965 q -0.27733,-0.0189 -0.430637,-0.0189 -0.163642,0 -0.423747,0.0189 v -0.0965 q 0.234267,-0.0723 0.254937,-0.093 0.02067,-0.0207 0.02584,-0.0999 0.0052,-0.10508 0.0052,-0.94913 l -0.0034,-0.81821 v -0.0241 q 0,-0.0947 -0.02584,-0.12402 -0.02584,-0.0293 -0.08096,-0.0293 -0.04651,0 -0.1757,0.0224 z"
         style="font-style:normal;font-variant:normal;font-weight:normal;font-stretch:normal;font-size:3.52777767px;font-family:'Calisto MT';-inkscape-font-specification:'Calisto MT';stroke-width:0.26458332"
         id="path4570" />
    </g>
    <g
       aria-label="Incident ray"
       style="font-style:normal;font-variant:normal;font-weight:normal;font-stretch:normal;font-size:4.23333311px;line-height:1.25;font-family:'Calisto MT';-inkscape-font-specification:'Calisto MT';letter-spacing:0px;word-spacing:0px;fill:#000000;fill-opacity:1;stroke:none;stroke-width:0.26458332"
       id="text1000">
      <path
         d="m 8.6397944,177.61224 v 0.10163 q -0.060289,0.0138 -0.089572,0.0189 -0.2290989,0.0396 -0.2652724,0.0758 -0.036174,0.0345 -0.036174,0.15675 v 0.0603 l -0.00689,0.69246 0.00517,1.00597 q 0,0.12058 0.034451,0.15331 0.036174,0.0327 0.2428793,0.0568 0.039619,0.005 0.1154107,0.0207 v 0.10163 q -0.2773302,-0.019 -0.5339898,-0.019 -0.2652724,0 -0.5822211,0.019 v -0.10163 q 0.049954,-0.0138 0.075792,-0.0172 0.2446017,-0.0396 0.2790527,-0.0723 0.036173,-0.0344 0.036173,-0.17053 l -0.00172,-0.0861 0.00345,-0.63218 q 0,-0.97496 -0.00345,-1.07831 -0.00345,-0.0568 -0.037896,-0.0879 -0.032728,-0.031 -0.2601047,-0.0741 -0.031006,-0.007 -0.091295,-0.0224 v -0.10163 q 0.3737928,0.0189 0.5839436,0.0189 0.2342665,0 0.5322673,-0.0189 z"
         style="font-style:normal;font-variant:normal;font-weight:normal;font-stretch:normal;font-size:3.52777767px;font-family:'Calisto MT';-inkscape-font-specification:'Calisto MT';stroke-width:0.26458332"
         id="path4573" />
      <path
         d="m 8.7707079,178.68538 v -0.0999 q 0.3100586,-0.0723 0.5615506,-0.21876 l 0.046509,0.0293 q -0.024116,0.14642 -0.029283,0.30145 l 0.2187635,-0.21704 q 0.055122,-0.0482 0.1291911,-0.0758 0.1016303,-0.0379 0.2118734,-0.0379 0.246324,0 0.37207,0.16364 0.0844,0.10852 0.0844,0.3738 l -0.0052,0.41685 q 0,0.41858 0.01034,0.49437 0.0086,0.0517 0.03273,0.0724 0.02412,0.0207 0.163642,0.0534 0.02584,0.007 0.07752,0.0189 v 0.0965 q -0.203261,-0.019 -0.361735,-0.019 -0.137804,0 -0.4719783,0.019 v -0.0965 q 0.1998153,-0.0586 0.2239313,-0.0792 0.02584,-0.0207 0.03101,-0.0672 0.01895,-0.17053 0.01895,-0.52193 0,-0.37552 -0.0155,-0.45303 -0.02412,-0.11369 -0.1016304,-0.1757 -0.077515,-0.062 -0.1860352,-0.062 -0.1136881,0 -0.2239312,0.0672 -0.110243,0.0654 -0.163642,0.17742 -0.051676,0.11196 -0.051676,0.33073 0,0.62012 0.025838,0.67179 0.025838,0.05 0.2015381,0.0947 0.022393,0.005 0.065457,0.0172 v 0.0965 q -0.2308214,-0.019 -0.3875733,-0.019 -0.1515841,0 -0.4513074,0.019 v -0.0965 q 0.2032606,-0.0482 0.2308213,-0.0706 0.017226,-0.0138 0.024116,-0.0723 0.018948,-0.16365 0.018948,-0.44614 0,-0.58395 -0.012058,-0.6339 -0.018948,-0.0724 -0.1016303,-0.0724 -0.037896,0 -0.1188558,0.0121 -0.022393,0.003 -0.067179,0.009 z"
         style="font-style:normal;font-variant:normal;font-weight:normal;font-stretch:normal;font-size:3.52777767px;font-family:'Calisto MT';-inkscape-font-specification:'Calisto MT';stroke-width:0.26458332"
         id="path4575" />
      <path
         d="m 12.083167,178.94549 -0.115411,-0.009 q -0.0069,-0.21704 -0.110243,-0.32039 -0.10163,-0.10507 -0.279052,-0.10507 -0.127469,0 -0.244602,0.0706 -0.117133,0.0689 -0.184313,0.22738 -0.06546,0.15675 -0.06546,0.35656 0,0.3204 0.15503,0.50126 0.156752,0.17915 0.361735,0.17915 0.215318,0 0.518487,-0.17053 l 0.06373,0.10335 q -0.27044,0.19982 -0.449585,0.28078 -0.08613,0.0379 -0.210151,0.0379 -0.301446,0 -0.487481,-0.1757 -0.246324,-0.23254 -0.246324,-0.63045 0,-0.41169 0.258382,-0.67696 0.258382,-0.26527 0.637343,-0.26527 0.258382,0 0.497816,0.13263 -0.01206,0.0586 -0.03445,0.15159 -0.02928,0.1223 -0.06546,0.31178 z"
         style="font-style:normal;font-variant:normal;font-weight:normal;font-stretch:normal;font-size:3.52777767px;font-family:'Calisto MT';-inkscape-font-specification:'Calisto MT';stroke-width:0.26458332"
         id="path4577" />
      <path
         d="m 12.782521,177.52094 q 0.07579,0 0.127469,0.0534 0.0534,0.0517 0.0534,0.12747 0,0.0741 -0.0534,0.12747 -0.05168,0.0534 -0.127469,0.0534 -0.07407,0 -0.127468,-0.0534 -0.05168,-0.0534 -0.05168,-0.12747 0,-0.0758 0.05168,-0.12747 0.0534,-0.0534 0.127468,-0.0534 z m -0.428914,1.14549 v -0.0965 q 0.289388,-0.0741 0.544325,-0.22048 l 0.04479,0.0362 q -0.03445,0.36518 -0.03445,1.03525 0,0.3135 0.0155,0.38585 0.01034,0.0482 0.03617,0.0706 0.02584,0.0207 0.179145,0.0654 0.01895,0.005 0.05684,0.0172 v 0.0965 q -0.225654,-0.019 -0.370348,-0.019 -0.08785,0 -0.471978,0.019 v -0.0965 q 0.232544,-0.0568 0.261827,-0.10336 0.02928,-0.0482 0.02928,-0.49609 l -0.0017,-0.3669 v -0.0706 q 0,-0.19292 -0.02584,-0.23254 -0.02584,-0.0396 -0.08268,-0.0396 -0.03617,0 -0.180868,0.0155 z"
         style="font-style:normal;font-variant:normal;font-weight:normal;font-stretch:normal;font-size:3.52777767px;font-family:'Calisto MT';-inkscape-font-specification:'Calisto MT';stroke-width:0.26458332"
         id="path4579" />
      <path
         d="m 14.270803,177.84478 v -0.0947 q 0.186035,-0.0534 0.27044,-0.0861 0.08441,-0.0344 0.285943,-0.13952 l 0.04306,0.0344 q -0.0379,0.39963 -0.0379,1.48828 0,0.60289 0.0155,0.67179 0.0155,0.0689 0.103353,0.0689 0.05168,0 0.18259,-0.0224 v 0.093 q -0.360012,0.1068 -0.558105,0.22221 l -0.04306,-0.0327 q 0.02067,-0.12919 0.02584,-0.25838 -0.215318,0.19464 -0.316949,0.24287 -0.09991,0.0482 -0.239434,0.0482 -0.26355,0 -0.437527,-0.19637 -0.172255,-0.1981 -0.172255,-0.55983 0,-0.24805 0.08441,-0.42719 0.06373,-0.13781 0.184313,-0.26011 0.120578,-0.12402 0.268717,-0.19637 0.149862,-0.0741 0.299724,-0.0741 0.0689,0 0.153306,0.0172 0.08441,0.0172 0.184313,0.0517 0.0034,-0.0861 0.0034,-0.0999 0,-0.4048 -0.0155,-0.44787 -0.02067,-0.0637 -0.113688,-0.0637 -0.03101,0 -0.110243,0.0121 -0.02067,0.003 -0.06029,0.009 z m 0.296278,1.33497 q 0,-0.33934 -0.0155,-0.39274 -0.02928,-0.10335 -0.136081,-0.17397 -0.105076,-0.0724 -0.261828,-0.0724 -0.19637,0 -0.334174,0.16364 -0.137804,0.16192 -0.137804,0.47715 0,0.32384 0.139527,0.49437 0.139526,0.16881 0.334174,0.16881 0.129191,0 0.235989,-0.0741 0.106798,-0.0741 0.141249,-0.17915 0.03445,-0.10507 0.03445,-0.41169 z"
         style="font-style:normal;font-variant:normal;font-weight:normal;font-stretch:normal;font-size:3.52777767px;font-family:'Calisto MT';-inkscape-font-specification:'Calisto MT';stroke-width:0.26458332"
         id="path4581" />
      <path
         d="m 16.620358,179.63967 0.06546,0.10163 -0.342787,0.25322 q -0.07062,0.0482 -0.146417,0.0706 -0.110243,0.0327 -0.225654,0.0327 -0.280775,0 -0.480591,-0.22565 -0.198093,-0.22566 -0.198093,-0.60978 0,-0.41342 0.237712,-0.66318 0.239434,-0.24977 0.583944,-0.24977 0.266995,0 0.411689,0.14813 0.146416,0.14642 0.149861,0.44959 -0.07235,0.0413 -0.132636,0.10163 -0.122301,-0.002 -0.153307,-0.002 -0.456475,0 -0.794094,0.0138 -0.0017,0.38585 0.130913,0.58394 0.132637,0.19982 0.354845,0.19982 0.111966,0 0.234267,-0.0431 0.122301,-0.0448 0.304891,-0.16192 z m -0.251492,-0.75447 q -0.01034,-0.17053 -0.07579,-0.25838 -0.09646,-0.1292 -0.260105,-0.1292 -0.141249,0 -0.251492,0.0982 -0.110243,0.0965 -0.163642,0.32039 0.06373,0.002 0.09646,0.002 0.282497,0 0.654568,-0.0327 z"
         style="font-style:normal;font-variant:normal;font-weight:normal;font-stretch:normal;font-size:3.52777767px;font-family:'Calisto MT';-inkscape-font-specification:'Calisto MT';stroke-width:0.26458332"
         id="path4583" />
      <path
         d="m 16.832231,178.68538 v -0.0999 q 0.310059,-0.0723 0.561551,-0.21876 l 0.04651,0.0293 q -0.02412,0.14642 -0.02928,0.30145 l 0.218764,-0.21704 q 0.05512,-0.0482 0.129191,-0.0758 0.10163,-0.0379 0.211873,-0.0379 0.246325,0 0.372071,0.16364 0.0844,0.10852 0.0844,0.3738 l -0.0052,0.41685 q 0,0.41858 0.01034,0.49437 0.0086,0.0517 0.03273,0.0724 0.02412,0.0207 0.163642,0.0534 0.02584,0.007 0.07751,0.0189 v 0.0965 q -0.20326,-0.019 -0.361735,-0.019 -0.137804,0 -0.471978,0.019 v -0.0965 q 0.199816,-0.0586 0.223931,-0.0792 0.02584,-0.0207 0.03101,-0.0672 0.01895,-0.17053 0.01895,-0.52193 0,-0.37552 -0.0155,-0.45303 -0.02412,-0.11369 -0.10163,-0.1757 -0.07752,-0.062 -0.186035,-0.062 -0.113688,0 -0.223931,0.0672 -0.110244,0.0654 -0.163642,0.17742 -0.05168,0.11196 -0.05168,0.33073 0,0.62012 0.02584,0.67179 0.02584,0.05 0.201538,0.0947 0.02239,0.005 0.06546,0.0172 v 0.0965 q -0.230821,-0.019 -0.387573,-0.019 -0.151584,0 -0.451308,0.019 v -0.0965 q 0.203261,-0.0482 0.230822,-0.0706 0.01722,-0.0138 0.02412,-0.0723 0.01895,-0.16365 0.01895,-0.44614 0,-0.58395 -0.01206,-0.6339 -0.01895,-0.0724 -0.101631,-0.0724 -0.0379,0 -0.118855,0.0121 -0.02239,0.003 -0.06718,0.009 z"
         style="font-style:normal;font-variant:normal;font-weight:normal;font-stretch:normal;font-size:3.52777767px;font-family:'Calisto MT';-inkscape-font-specification:'Calisto MT';stroke-width:0.26458332"
         id="path4585" />
      <path
         d="m 19.240352,177.98775 h 0.09991 l -0.03962,0.43925 0.477145,-0.005 0.01378,0.0276 q -0.04306,0.0706 -0.07924,0.15159 -0.203261,-0.0103 -0.411689,-0.0138 l -0.0155,0.88539 v 0.0103 q 0,0.20499 0.04479,0.29628 0.04651,0.0896 0.156752,0.0896 0.09129,0 0.241156,-0.0775 l 0.04995,0.0982 q -0.187757,0.11714 -0.285943,0.15331 -0.09819,0.0379 -0.170532,0.0379 -0.113688,0 -0.192925,-0.0586 -0.07924,-0.0603 -0.105076,-0.16537 -0.0155,-0.0586 -0.0155,-0.35829 0,-0.32039 0.01895,-0.91122 -0.120579,0.003 -0.24977,0.0138 v -0.093 q 0.144694,-0.0655 0.24977,-0.17914 0.106797,-0.11369 0.213595,-0.34107 z"
         style="font-style:normal;font-variant:normal;font-weight:normal;font-stretch:normal;font-size:3.52777767px;font-family:'Calisto MT';-inkscape-font-specification:'Calisto MT';stroke-width:0.26458332"
         id="path4587" />
      <path
         d="m 20.75964,178.68711 v -0.0982 q 0.322117,-0.081 0.549493,-0.22221 l 0.04479,0.0327 q -0.02756,0.16709 -0.03273,0.36518 0.208428,-0.25321 0.29111,-0.31006 0.08268,-0.0568 0.194648,-0.0568 0.07407,0 0.165365,0.0362 -0.0379,0.1757 -0.06201,0.35829 h -0.08613 q -0.0155,-0.0827 -0.05168,-0.11886 -0.03617,-0.0379 -0.08096,-0.0379 -0.0689,0 -0.148139,0.0637 -0.117134,0.0947 -0.170533,0.21877 -0.05168,0.1223 -0.05168,0.34795 0,0.39963 0.02239,0.53744 0.0086,0.0517 0.04651,0.081 0.03962,0.0293 0.244602,0.0758 v 0.0965 q -0.215319,-0.019 -0.391019,-0.019 -0.146416,0 -0.484036,0.019 v -0.0965 q 0.235989,-0.0586 0.265273,-0.0896 0.03101,-0.0327 0.03101,-0.17226 l 0.0034,-0.37379 q 0,-0.5495 -0.01034,-0.59084 -0.01722,-0.0689 -0.09646,-0.0689 -0.04479,0 -0.148139,0.0172 -0.0155,0.002 -0.04479,0.005 z"
         style="font-style:normal;font-variant:normal;font-weight:normal;font-stretch:normal;font-size:3.52777767px;font-family:'Calisto MT';-inkscape-font-specification:'Calisto MT';stroke-width:0.26458332"
         id="path4589" />
      <path
         d="m 22.30132,178.88692 -0.111966,-0.0121 q 0.03445,-0.17914 0.04823,-0.35656 0.335897,-0.15159 0.606337,-0.15159 0.117133,0 0.211874,0.0344 0.09474,0.0327 0.149861,0.093 0.05512,0.0586 0.08268,0.14125 0.02928,0.0827 0.02928,0.26355 l -0.0155,0.71141 q 0,0.14469 0.03273,0.18948 0.03273,0.0448 0.08441,0.0448 0.06201,0 0.194648,-0.093 l 0.0534,0.0706 q -0.242879,0.21704 -0.265272,0.23083 -0.04823,0.0276 -0.120579,0.0276 -0.111965,0 -0.173977,-0.0551 -0.06029,-0.0568 -0.08096,-0.18948 -0.206705,0.1602 -0.306613,0.20154 -0.09991,0.0431 -0.217041,0.0431 -0.191203,0 -0.308336,-0.11541 -0.117134,-0.11714 -0.117134,-0.29801 0,-0.11024 0.04134,-0.19809 0.04134,-0.0896 0.118855,-0.15675 0.06029,-0.0499 0.203261,-0.12058 0.335897,-0.16364 0.585666,-0.26355 -0.0086,-0.24288 -0.08096,-0.32211 -0.07235,-0.0792 -0.222209,-0.0792 -0.141249,0 -0.242879,0.0879 -0.09991,0.0861 -0.179145,0.27216 z m 0.725192,0.1912 q -0.449585,0.20154 -0.544325,0.29456 -0.09302,0.0913 -0.09302,0.22049 0,0.12919 0.07062,0.2067 0.07062,0.0775 0.165365,0.0775 0.09819,0 0.211873,-0.0637 0.115411,-0.0655 0.151584,-0.14642 0.0379,-0.081 0.0379,-0.29455 z"
         style="font-style:normal;font-variant:normal;font-weight:normal;font-stretch:normal;font-size:3.52777767px;font-family:'Calisto MT';-inkscape-font-specification:'Calisto MT';stroke-width:0.26458332"
         id="path4591" />
      <path
         d="m 23.605288,178.50451 v -0.0965 q 0.266995,0.0189 0.387573,0.0189 0.09129,0 0.387574,-0.0189 v 0.0965 q -0.151585,0.0258 -0.186036,0.0534 -0.02412,0.0172 -0.02412,0.0448 0,0.0344 0.05512,0.17225 0.186035,0.46337 0.363458,0.82511 l 0.180867,-0.51505 q 0.153307,-0.40996 0.153307,-0.47542 0,-0.0327 -0.0155,-0.0482 -0.02239,-0.0241 -0.0844,-0.0413 -0.01722,-0.005 -0.04823,-0.0155 v -0.0965 q 0.217041,0.0189 0.315226,0.0189 0.118856,0 0.261827,-0.0189 v 0.0965 q -0.132636,0.0327 -0.179144,0.0827 -0.04651,0.0482 -0.177423,0.39102 l -0.335897,0.89572 q -0.146416,0.41686 -0.222208,0.55294 -0.09819,0.17914 -0.223932,0.26527 -0.125746,0.0861 -0.241156,0.0861 -0.06029,0 -0.158475,-0.0207 -0.02584,-0.10508 -0.04479,-0.15331 -0.01895,-0.0482 -0.0689,-0.14125 l 0.06546,-0.0465 q 0.130914,0.11541 0.258382,0.11541 0.122301,0 0.208428,-0.0879 0.122301,-0.1223 0.213596,-0.44269 l -0.335896,-0.76826 q -0.158475,-0.36518 -0.272163,-0.57361 -0.03617,-0.0654 -0.06546,-0.0879 -0.04306,-0.0344 -0.167087,-0.0672 z"
         style="font-style:normal;font-variant:normal;font-weight:normal;font-stretch:normal;font-size:3.52777767px;font-family:'Calisto MT';-inkscape-font-specification:'Calisto MT';stroke-width:0.26458332"
         id="path4593" />
    </g>
    <g
       aria-label="Reflected ray"
       style="font-style:normal;font-variant:normal;font-weight:normal;font-stretch:normal;font-size:4.23333311px;line-height:1.25;font-family:'Calisto MT';-inkscape-font-specification:'Calisto MT';letter-spacing:0px;word-spacing:0px;fill:#000000;fill-opacity:1;stroke:none;stroke-width:0.26458332"
       id="text1000-3">
      <path
         d="m 62.011901,177.71329 v -0.10163 q 0.456475,0.0189 0.732082,0.0189 0.158475,0 0.296279,-0.003 0.18259,-0.007 0.253214,-0.007 0.335897,0 0.506429,0.15847 0.16881,0.1602 0.16881,0.43236 0,0.18259 -0.07752,0.32384 -0.07579,0.13953 -0.220486,0.23599 -0.105075,0.0689 -0.299723,0.1223 l 0.573608,0.74759 q 0.106798,0.13952 0.134359,0.16364 0.04306,0.0362 0.111965,0.062 0.09646,0.0379 0.325562,0.0879 v 0.10163 q -0.272163,-0.0189 -0.396186,-0.0189 -0.142972,0 -0.292833,0.0189 -0.07751,-0.12919 -0.210151,-0.32384 -0.132636,-0.19637 -0.161919,-0.23254 -0.01723,-0.0207 -0.03273,-0.0431 l -0.37896,-0.52021 q -0.153307,-0.003 -0.310059,-0.0224 l 0.01378,0.86817 q 0.0034,0.0517 0.03101,0.0775 0.04134,0.0344 0.258382,0.0741 0.03101,0.005 0.09474,0.0207 v 0.10163 q -0.311782,-0.0189 -0.549493,-0.0189 -0.254937,0 -0.570163,0.0189 v -0.10163 l 0.07407,-0.0155 q 0.246324,-0.0465 0.279053,-0.0758 0.03445,-0.031 0.03962,-0.10853 0.0034,-0.0499 0.0086,-0.88538 l -0.0069,-0.8096 q -0.0017,-0.18604 -0.01034,-0.2136 -0.0069,-0.0276 -0.03273,-0.0413 -0.08441,-0.0448 -0.266995,-0.0741 -0.02756,-0.005 -0.0844,-0.0172 z m 0.721747,1.05419 q 0.179145,0.0189 0.27733,0.0189 0.313504,0 0.463366,-0.13952 0.151584,-0.13953 0.151584,-0.38758 0,-0.21704 -0.134359,-0.34278 -0.132636,-0.12575 -0.387573,-0.12575 -0.0913,0 -0.360013,0.0207 z"
         style="font-style:normal;font-variant:normal;font-weight:normal;font-stretch:normal;font-size:3.52777767px;font-family:'Calisto MT';-inkscape-font-specification:'Calisto MT';stroke-width:0.26458332"
         id="path4596" />
      <path
         d="m 65.835956,179.63909 0.06546,0.10163 -0.342787,0.25322 q -0.07062,0.0482 -0.146416,0.0706 -0.110243,0.0327 -0.225654,0.0327 -0.280775,0 -0.480591,-0.22565 -0.198093,-0.22566 -0.198093,-0.60978 0,-0.41342 0.237712,-0.66318 0.239434,-0.24977 0.583943,-0.24977 0.266995,0 0.411689,0.14813 0.146417,0.14642 0.149862,0.44959 -0.07235,0.0413 -0.132636,0.10163 -0.122301,-0.002 -0.153307,-0.002 -0.456475,0 -0.794095,0.0138 -0.0017,0.38585 0.130914,0.58394 0.132636,0.19982 0.354845,0.19982 0.111965,0 0.234266,-0.0431 0.122301,-0.0448 0.304891,-0.16192 z m -0.251492,-0.75447 q -0.01033,-0.17053 -0.07579,-0.25838 -0.09646,-0.1292 -0.260104,-0.1292 -0.141249,0 -0.251492,0.0982 -0.110243,0.0965 -0.163642,0.32039 0.06373,0.002 0.09646,0.002 0.282498,0 0.654568,-0.0327 z"
         style="font-style:normal;font-variant:normal;font-weight:normal;font-stretch:normal;font-size:3.52777767px;font-family:'Calisto MT';-inkscape-font-specification:'Calisto MT';stroke-width:0.26458332"
         id="path4598" />
      <path
         d="m 66.092616,180.05595 v -0.0965 q 0.211873,-0.0482 0.232544,-0.0861 0.02756,-0.0499 0.02756,-0.67179 0,-0.30317 0.0052,-0.60806 -0.125746,0.003 -0.248046,0.0155 v -0.0827 q 0.127468,-0.0517 0.248046,-0.12403 0.0017,-0.29627 0.01723,-0.36518 0.02584,-0.12402 0.127468,-0.24632 0.101631,-0.1223 0.266995,-0.20498 0.118856,-0.062 0.25666,-0.062 0.103353,0 0.191203,0.0241 0.08785,0.0241 0.223931,0.093 -0.06546,0.17914 -0.118856,0.36862 l -0.09474,-0.012 q -0.02584,-0.17226 -0.10163,-0.24288 -0.07407,-0.0706 -0.196371,-0.0706 -0.106798,0 -0.177422,0.0672 -0.0689,0.0672 -0.09646,0.20498 -0.01895,0.0913 -0.01895,0.37035 0,0.0344 0.0017,0.10163 0.122301,0.003 0.146416,0.003 l 0.292833,-0.003 0.02239,0.0224 q -0.0534,0.0741 -0.08785,0.15847 -0.189481,-0.0121 -0.373793,-0.0155 -0.0034,0.24632 -0.0034,0.64079 l 0.0034,0.44958 v 0.0207 q 0,0.13608 0.02756,0.16709 0.02928,0.031 0.222208,0.0741 0.02067,0.005 0.05857,0.0138 v 0.0965 q -0.232544,-0.0189 -0.399631,-0.0189 -0.146417,0 -0.454753,0.0189 z"
         style="font-style:normal;font-variant:normal;font-weight:normal;font-stretch:normal;font-size:3.52777767px;font-family:'Calisto MT';-inkscape-font-specification:'Calisto MT';stroke-width:0.26458332"
         id="path4600" />
      <path
         d="m 67.191601,177.8442 v -0.0947 q 0.306614,-0.0982 0.554661,-0.22565 l 0.04651,0.031 q -0.04134,0.32384 -0.04134,1.20406 0,0.88884 0.0069,0.98358 0.0069,0.093 0.0379,0.12574 0.03273,0.031 0.249769,0.0913 v 0.0965 q -0.27733,-0.0189 -0.430637,-0.0189 -0.163642,0 -0.423747,0.0189 v -0.0965 q 0.234267,-0.0724 0.254937,-0.093 0.02067,-0.0207 0.02584,-0.0999 0.0052,-0.10507 0.0052,-0.94912 l -0.0034,-0.81821 v -0.0241 q 0,-0.0947 -0.02584,-0.12402 -0.02584,-0.0293 -0.08096,-0.0293 -0.04651,0 -0.1757,0.0224 z"
         style="font-style:normal;font-variant:normal;font-weight:normal;font-stretch:normal;font-size:3.52777767px;font-family:'Calisto MT';-inkscape-font-specification:'Calisto MT';stroke-width:0.26458332"
         id="path4602" />
      <path
         d="m 69.553214,179.63909 0.06546,0.10163 -0.342787,0.25322 q -0.07062,0.0482 -0.146416,0.0706 -0.110243,0.0327 -0.225654,0.0327 -0.280775,0 -0.480591,-0.22565 -0.198093,-0.22566 -0.198093,-0.60978 0,-0.41342 0.237712,-0.66318 0.239434,-0.24977 0.583943,-0.24977 0.266995,0 0.411689,0.14813 0.146417,0.14642 0.149862,0.44959 -0.07235,0.0413 -0.132636,0.10163 -0.122301,-0.002 -0.153307,-0.002 -0.456475,0 -0.794095,0.0138 -0.0017,0.38585 0.130914,0.58394 0.132636,0.19982 0.354845,0.19982 0.111965,0 0.234266,-0.0431 0.122301,-0.0448 0.304891,-0.16192 z m -0.251492,-0.75447 q -0.01033,-0.17053 -0.07579,-0.25838 -0.09646,-0.1292 -0.260104,-0.1292 -0.141249,0 -0.251492,0.0982 -0.110243,0.0965 -0.163642,0.32039 0.06373,0.002 0.09646,0.002 0.282498,0 0.654568,-0.0327 z"
         style="font-style:normal;font-variant:normal;font-weight:normal;font-stretch:normal;font-size:3.52777767px;font-family:'Calisto MT';-inkscape-font-specification:'Calisto MT';stroke-width:0.26458332"
         id="path4604" />
      <path
         d="m 71.127623,178.94491 -0.115411,-0.009 q -0.0069,-0.21704 -0.110243,-0.32039 -0.10163,-0.10507 -0.279052,-0.10507 -0.127469,0 -0.244602,0.0706 -0.117133,0.0689 -0.184313,0.22738 -0.06546,0.15675 -0.06546,0.35656 0,0.3204 0.15503,0.50126 0.156752,0.17915 0.361735,0.17915 0.215318,0 0.518487,-0.17053 l 0.06373,0.10335 q -0.27044,0.19982 -0.449585,0.28078 -0.08613,0.0379 -0.210151,0.0379 -0.301446,0 -0.487481,-0.1757 -0.246324,-0.23254 -0.246324,-0.63045 0,-0.41169 0.258382,-0.67696 0.258382,-0.26527 0.637343,-0.26527 0.258382,0 0.497816,0.13263 -0.01206,0.0586 -0.03445,0.15159 -0.02928,0.1223 -0.06546,0.31178 z"
         style="font-style:normal;font-variant:normal;font-weight:normal;font-stretch:normal;font-size:3.52777767px;font-family:'Calisto MT';-inkscape-font-specification:'Calisto MT';stroke-width:0.26458332"
         id="path4606" />
      <path
         d="m 71.808029,177.98717 h 0.09991 l -0.03962,0.43925 0.477145,-0.005 0.01378,0.0276 q -0.04306,0.0706 -0.07924,0.15159 -0.203261,-0.0103 -0.411689,-0.0138 l -0.0155,0.88539 v 0.0103 q 0,0.20499 0.04479,0.29628 0.04651,0.0896 0.156752,0.0896 0.0913,0 0.241156,-0.0775 l 0.04995,0.0982 q -0.187757,0.11714 -0.285943,0.15331 -0.09819,0.0379 -0.170532,0.0379 -0.113688,0 -0.192925,-0.0586 -0.07924,-0.0603 -0.105076,-0.16536 -0.0155,-0.0586 -0.0155,-0.35829 0,-0.3204 0.01895,-0.91123 -0.120579,0.003 -0.24977,0.0138 v -0.093 q 0.144694,-0.0655 0.24977,-0.17914 0.106798,-0.11369 0.213595,-0.34107 z"
         style="font-style:normal;font-variant:normal;font-weight:normal;font-stretch:normal;font-size:3.52777767px;font-family:'Calisto MT';-inkscape-font-specification:'Calisto MT';stroke-width:0.26458332"
         id="path4608" />
      <path
         d="m 73.825133,179.63909 0.06546,0.10163 -0.342787,0.25322 q -0.07063,0.0482 -0.146417,0.0706 -0.110243,0.0327 -0.225653,0.0327 -0.280776,0 -0.480591,-0.22565 -0.198093,-0.22566 -0.198093,-0.60978 0,-0.41342 0.237711,-0.66318 0.239435,-0.24977 0.583944,-0.24977 0.266995,0 0.411689,0.14813 0.146416,0.14642 0.149862,0.44959 -0.07235,0.0413 -0.132637,0.10163 -0.1223,-0.002 -0.153306,-0.002 -0.456475,0 -0.794095,0.0138 -0.0017,0.38585 0.130914,0.58394 0.132636,0.19982 0.354845,0.19982 0.111965,0 0.234266,-0.0431 0.122301,-0.0448 0.304891,-0.16192 z m -0.251492,-0.75447 q -0.01033,-0.17053 -0.07579,-0.25838 -0.09646,-0.1292 -0.260105,-0.1292 -0.141249,0 -0.251492,0.0982 -0.110243,0.0965 -0.163642,0.32039 0.06374,0.002 0.09646,0.002 0.282498,0 0.654568,-0.0327 z"
         style="font-style:normal;font-variant:normal;font-weight:normal;font-stretch:normal;font-size:3.52777767px;font-family:'Calisto MT';-inkscape-font-specification:'Calisto MT';stroke-width:0.26458332"
         id="path4610" />
      <path
         d="m 75.010246,177.8442 v -0.0947 q 0.186035,-0.0534 0.27044,-0.0861 0.08441,-0.0344 0.285943,-0.13952 l 0.04306,0.0344 q -0.0379,0.39963 -0.0379,1.48828 0,0.60289 0.0155,0.67179 0.0155,0.0689 0.103352,0.0689 0.05168,0 0.18259,-0.0224 v 0.093 q -0.360012,0.1068 -0.558105,0.22221 l -0.04306,-0.0327 q 0.02067,-0.12919 0.02584,-0.25838 -0.215318,0.19464 -0.316948,0.24287 -0.09991,0.0482 -0.239434,0.0482 -0.26355,0 -0.437528,-0.19637 -0.172254,-0.1981 -0.172254,-0.55983 0,-0.24805 0.0844,-0.42719 0.06373,-0.13781 0.184312,-0.26011 0.120578,-0.12402 0.268718,-0.19637 0.149861,-0.0741 0.299723,-0.0741 0.0689,0 0.153307,0.0172 0.0844,0.0172 0.184312,0.0517 0.0034,-0.0861 0.0034,-0.0999 0,-0.4048 -0.0155,-0.44787 -0.02067,-0.0637 -0.113688,-0.0637 -0.03101,0 -0.110243,0.0121 -0.02067,0.003 -0.06029,0.009 z m 0.296278,1.33497 q 0,-0.33934 -0.0155,-0.39274 -0.02928,-0.10335 -0.136081,-0.17397 -0.105075,-0.0724 -0.261827,-0.0724 -0.196371,0 -0.334174,0.16364 -0.137804,0.16192 -0.137804,0.47715 0,0.32384 0.139526,0.49437 0.139526,0.16881 0.334174,0.16881 0.129191,0 0.235989,-0.0741 0.106798,-0.0741 0.141249,-0.17915 0.03445,-0.10507 0.03445,-0.41169 z"
         style="font-style:normal;font-variant:normal;font-weight:normal;font-stretch:normal;font-size:3.52777767px;font-family:'Calisto MT';-inkscape-font-specification:'Calisto MT';stroke-width:0.26458332"
         id="path4612" />
      <path
         d="m 76.861984,178.68653 v -0.0982 q 0.322117,-0.081 0.549493,-0.22221 l 0.04479,0.0327 q -0.02756,0.16709 -0.03273,0.36518 0.208428,-0.25321 0.29111,-0.31006 0.08268,-0.0568 0.194648,-0.0568 0.07407,0 0.165365,0.0362 -0.0379,0.1757 -0.06201,0.35829 h -0.08613 q -0.0155,-0.0827 -0.05168,-0.11886 -0.03617,-0.0379 -0.08096,-0.0379 -0.0689,0 -0.148139,0.0637 -0.117134,0.0947 -0.170533,0.21877 -0.05168,0.1223 -0.05168,0.34795 0,0.39963 0.02239,0.53744 0.0086,0.0517 0.04651,0.081 0.03962,0.0293 0.244602,0.0758 v 0.0965 q -0.215319,-0.0189 -0.391019,-0.0189 -0.146416,0 -0.484036,0.0189 v -0.0965 q 0.235989,-0.0586 0.265273,-0.0896 0.03101,-0.0327 0.03101,-0.17226 l 0.0034,-0.37379 q 0,-0.54949 -0.01034,-0.59084 -0.01722,-0.0689 -0.09646,-0.0689 -0.04479,0 -0.148139,0.0172 -0.0155,0.002 -0.04479,0.005 z"
         style="font-style:normal;font-variant:normal;font-weight:normal;font-stretch:normal;font-size:3.52777767px;font-family:'Calisto MT';-inkscape-font-specification:'Calisto MT';stroke-width:0.26458332"
         id="path4614" />
      <path
         d="m 78.403665,178.88634 -0.111966,-0.0121 q 0.03445,-0.17914 0.04823,-0.35656 0.335897,-0.15159 0.606337,-0.15159 0.117133,0 0.211874,0.0344 0.09474,0.0327 0.149861,0.093 0.05512,0.0586 0.08268,0.14125 0.02928,0.0827 0.02928,0.26355 l -0.0155,0.71141 q 0,0.14469 0.03273,0.18948 0.03273,0.0448 0.08441,0.0448 0.06201,0 0.194648,-0.093 l 0.0534,0.0706 q -0.242879,0.21705 -0.265272,0.23083 -0.04823,0.0276 -0.120579,0.0276 -0.111965,0 -0.173977,-0.0551 -0.06029,-0.0568 -0.08096,-0.18948 -0.206705,0.1602 -0.306613,0.20154 -0.09991,0.0431 -0.217041,0.0431 -0.191203,0 -0.308336,-0.11541 -0.117134,-0.11714 -0.117134,-0.29801 0,-0.11024 0.04134,-0.19809 0.04134,-0.0896 0.118855,-0.15675 0.06029,-0.0499 0.203261,-0.12058 0.335897,-0.16364 0.585666,-0.26355 -0.0086,-0.24288 -0.08096,-0.32211 -0.07235,-0.0792 -0.222209,-0.0792 -0.141249,0 -0.242879,0.0879 -0.09991,0.0861 -0.179145,0.27216 z m 0.725192,0.1912 q -0.449585,0.20154 -0.544325,0.29456 -0.09302,0.0913 -0.09302,0.22049 0,0.12919 0.07062,0.2067 0.07062,0.0775 0.165365,0.0775 0.09819,0 0.211873,-0.0637 0.115411,-0.0655 0.151584,-0.14642 0.0379,-0.081 0.0379,-0.29455 z"
         style="font-style:normal;font-variant:normal;font-weight:normal;font-stretch:normal;font-size:3.52777767px;font-family:'Calisto MT';-inkscape-font-specification:'Calisto MT';stroke-width:0.26458332"
         id="path4616" />
      <path
         d="m 79.707633,178.50394 v -0.0965 q 0.266995,0.019 0.387573,0.019 0.0913,0 0.387574,-0.019 v 0.0965 q -0.151585,0.0258 -0.186036,0.0534 -0.02412,0.0172 -0.02412,0.0448 0,0.0344 0.05512,0.17226 0.186035,0.46336 0.363458,0.8251 l 0.180867,-0.51505 q 0.153307,-0.40996 0.153307,-0.47542 0,-0.0327 -0.0155,-0.0482 -0.02239,-0.0241 -0.08441,-0.0413 -0.01722,-0.005 -0.04823,-0.0155 v -0.0965 q 0.217041,0.019 0.315226,0.019 0.118856,0 0.261827,-0.019 v 0.0965 q -0.132636,0.0327 -0.179144,0.0827 -0.04651,0.0482 -0.177423,0.39102 l -0.335897,0.89572 q -0.146416,0.41686 -0.222208,0.55294 -0.09819,0.17914 -0.223932,0.26527 -0.125746,0.0861 -0.241156,0.0861 -0.06029,0 -0.158475,-0.0207 -0.02584,-0.10508 -0.04479,-0.15331 -0.01895,-0.0482 -0.0689,-0.14125 l 0.06546,-0.0465 q 0.130914,0.11541 0.258382,0.11541 0.122301,0 0.208428,-0.0879 0.122301,-0.1223 0.213596,-0.44269 l -0.335896,-0.76826 q -0.158475,-0.36518 -0.272163,-0.57361 -0.03617,-0.0654 -0.06546,-0.0879 -0.04306,-0.0344 -0.167087,-0.0672 z"
         style="font-style:normal;font-variant:normal;font-weight:normal;font-stretch:normal;font-size:3.52777767px;font-family:'Calisto MT';-inkscape-font-specification:'Calisto MT';stroke-width:0.26458332"
         id="path4618" />
    </g>
    <path
       style="fill:none;stroke:#000000;stroke-width:0.265;stroke-linecap:butt;stroke-linejoin:miter;stroke-opacity:1;stroke-miterlimit:4;stroke-dasharray:none"
       d="m 37.118925,173.55092 c 1.338027,0 1.357998,0 1.357998,0"
       id="path1022"
       inkscape:connector-curvature="0" />
    <path
       style="fill:none;stroke:#000000;stroke-width:0.26499999;stroke-linecap:butt;stroke-linejoin:miter;stroke-miterlimit:4;stroke-dasharray:none;stroke-opacity:1"
       d="m 47.75235,173.55093 c 1.338027,0 1.357998,0 1.357998,0"
       id="path1022-3"
       inkscape:connector-curvature="0" />
  </g>
</svg>
