<?xml version="1.0" encoding="UTF-8" standalone="no"?>
<!-- Created with Inkscape (http://www.inkscape.org/) -->

<svg
   xmlns:dc="http://purl.org/dc/elements/1.1/"
   xmlns:cc="http://creativecommons.org/ns#"
   xmlns:rdf="http://www.w3.org/1999/02/22-rdf-syntax-ns#"
   xmlns:svg="http://www.w3.org/2000/svg"
   xmlns="http://www.w3.org/2000/svg"
   xmlns:xlink="http://www.w3.org/1999/xlink"
   xmlns:sodipodi="http://sodipodi.sourceforge.net/DTD/sodipodi-0.dtd"
   xmlns:inkscape="http://www.inkscape.org/namespaces/inkscape"
   width="373.0625mm"
   height="42.333332mm"
   viewBox="0 0 373.0625 42.333332"
   version="1.1"
   id="svg8"
   inkscape:version="0.92.2 (5c3e80d, 2017-08-06)"
   sodipodi:docname="double_displacement_reaction.svg">
  <defs
     id="defs2">
    <linearGradient
       inkscape:collect="always"
       id="linearGradient954">
      <stop
         style="stop-color:#ffffff;stop-opacity:1"
         offset="0"
         id="stop950" />
      <stop
         style="stop-color:#deaa87;stop-opacity:1"
         offset="1"
         id="stop952" />
    </linearGradient>
    <linearGradient
       id="linearGradient2114"
       inkscape:collect="always">
      <stop
         id="stop2110"
         offset="0"
         style="stop-color:#ffffff;stop-opacity:1" />
      <stop
         id="stop2112"
         offset="1"
         style="stop-color:#aa0000;stop-opacity:1" />
    </linearGradient>
    <marker
       inkscape:stockid="TriangleOutL"
       orient="auto"
       refY="0"
       refX="0"
       id="marker5763"
       style="overflow:visible"
       inkscape:isstock="true">
      <path
         id="path5761"
         d="M 5.77,0 -2.88,5 V -5 Z"
         style="fill:#000000;fill-opacity:1;fill-rule:evenodd;stroke:#000000;stroke-width:1.00000003pt;stroke-opacity:1"
         transform="scale(0.8)"
         inkscape:connector-curvature="0" />
    </marker>
    <linearGradient
       id="linearGradient5655"
       inkscape:collect="always">
      <stop
         id="stop5651"
         offset="0"
         style="stop-color:#ffffff;stop-opacity:1" />
      <stop
         id="stop5653"
         offset="1"
         style="stop-color:#0088aa;stop-opacity:1" />
    </linearGradient>
    <linearGradient
       id="linearGradient5649"
       inkscape:collect="always">
      <stop
         id="stop5645"
         offset="0"
         style="stop-color:#ffffff;stop-opacity:1" />
      <stop
         id="stop5647"
         offset="1"
         style="stop-color:#0088aa;stop-opacity:1" />
    </linearGradient>
    <marker
       inkscape:stockid="TriangleOutL"
       orient="auto"
       refY="0"
       refX="0"
       id="TriangleOutL"
       style="overflow:visible"
       inkscape:isstock="true">
      <path
         id="path4733"
         d="M 5.77,0 -2.88,5 V -5 Z"
         style="fill:#000000;fill-opacity:1;fill-rule:evenodd;stroke:#000000;stroke-width:1.00000003pt;stroke-opacity:1"
         transform="scale(0.8)"
         inkscape:connector-curvature="0" />
    </marker>
    <marker
       inkscape:stockid="Arrow2Lend"
       orient="auto"
       refY="0"
       refX="0"
       id="Arrow2Lend"
       style="overflow:visible"
       inkscape:isstock="true">
      <path
         id="path4612"
         style="fill:#000000;fill-opacity:1;fill-rule:evenodd;stroke:#000000;stroke-width:0.625;stroke-linejoin:round;stroke-opacity:1"
         d="M 8.7185878,4.0337352 -2.2072895,0.01601326 8.7185884,-4.0017078 c -1.7454984,2.3720609 -1.7354408,5.6174519 -6e-7,8.035443 z"
         transform="matrix(-1.1,0,0,-1.1,-1.1,0)"
         inkscape:connector-curvature="0" />
    </marker>
    <marker
       inkscape:stockid="Arrow1Lend"
       orient="auto"
       refY="0"
       refX="0"
       id="Arrow1Lend"
       style="overflow:visible"
       inkscape:isstock="true">
      <path
         id="path4594"
         d="M 0,0 5,-5 -12.5,0 5,5 Z"
         style="fill:#000000;fill-opacity:1;fill-rule:evenodd;stroke:#000000;stroke-width:1.00000003pt;stroke-opacity:1"
         transform="matrix(-0.8,0,0,-0.8,-10,0)"
         inkscape:connector-curvature="0" />
    </marker>
    <linearGradient
       inkscape:collect="always"
       id="linearGradient4510">
      <stop
         style="stop-color:#ffffff;stop-opacity:1"
         offset="0"
         id="stop4506" />
      <stop
         style="stop-color:#808080;stop-opacity:1"
         offset="1"
         id="stop4508" />
    </linearGradient>
    <radialGradient
       inkscape:collect="always"
       xlink:href="#linearGradient4510"
       id="radialGradient4514"
       cx="48.560913"
       cy="102.62313"
       fx="48.560913"
       fy="102.62313"
       r="19.087799"
       gradientUnits="userSpaceOnUse"
       gradientTransform="matrix(0.98951085,0.00480321,-0.00471476,0.97028557,276.51702,-78.003453)" />
    <radialGradient
       inkscape:collect="always"
       xlink:href="#linearGradient5649"
       id="radialGradient4514-7"
       cx="48.560913"
       cy="102.62313"
       fx="48.560913"
       fy="102.62313"
       r="19.087799"
       gradientUnits="userSpaceOnUse"
       gradientTransform="matrix(0.98951086,0.00480321,-0.00471476,0.97028557,210.85304,-77.857564)" />
    <radialGradient
       inkscape:collect="always"
       xlink:href="#linearGradient4510"
       id="radialGradient4514-7-6"
       cx="48.560913"
       cy="102.62313"
       fx="48.560913"
       fy="102.62313"
       r="19.087799"
       gradientUnits="userSpaceOnUse"
       gradientTransform="matrix(0.98951086,0.00480321,-0.00471476,0.97028557,-23.890405,-78.15097)" />
    <radialGradient
       inkscape:collect="always"
       xlink:href="#linearGradient5655"
       id="radialGradient4514-7-6-0"
       cx="48.560913"
       cy="102.62313"
       fx="48.560913"
       fy="102.62313"
       r="19.087799"
       gradientUnits="userSpaceOnUse"
       gradientTransform="matrix(0.98951086,0.00480321,-0.00471476,0.97028557,6.9900308,-77.584003)" />
    <radialGradient
       inkscape:collect="always"
       xlink:href="#linearGradient2114"
       id="radialGradient4514-0"
       cx="48.560913"
       cy="102.62313"
       fx="48.560913"
       fy="102.62313"
       r="19.087799"
       gradientUnits="userSpaceOnUse"
       gradientTransform="matrix(0.98951086,0.00480321,-0.00471476,0.97028557,72.735682,-77.834734)" />
    <radialGradient
       inkscape:collect="always"
       xlink:href="#linearGradient2114"
       id="radialGradient4514-0-9"
       cx="48.560913"
       cy="102.62313"
       fx="48.560913"
       fy="102.62313"
       r="19.087799"
       gradientUnits="userSpaceOnUse"
       gradientTransform="matrix(0.98951086,0.00480321,-0.00471476,0.97028557,179.89656,-77.951561)" />
    <radialGradient
       inkscape:collect="always"
       xlink:href="#linearGradient954"
       id="radialGradient4514-7-9"
       cx="48.560913"
       cy="102.62313"
       fx="48.560913"
       fy="102.62313"
       r="19.087799"
       gradientUnits="userSpaceOnUse"
       gradientTransform="matrix(0.98951086,0.00480321,-0.00471476,0.97028557,103.49661,-78.086142)" />
    <radialGradient
       inkscape:collect="always"
       xlink:href="#linearGradient954"
       id="radialGradient4514-7-9-7"
       cx="48.560913"
       cy="102.62313"
       fx="48.560913"
       fy="102.62313"
       r="19.087799"
       gradientUnits="userSpaceOnUse"
       gradientTransform="matrix(0.98951086,0.00480321,-0.00471476,0.97028557,307.22679,-78.086143)" />
  </defs>
  <sodipodi:namedview
     id="base"
     pagecolor="#ffffff"
     bordercolor="#666666"
     borderopacity="1.0"
     inkscape:pageopacity="0.0"
     inkscape:pageshadow="2"
     inkscape:zoom="0.98994949"
     inkscape:cx="692.77764"
     inkscape:cy="245.53529"
     inkscape:document-units="mm"
     inkscape:current-layer="layer1"
     showgrid="false"
     inkscape:window-width="1920"
     inkscape:window-height="1017"
     inkscape:window-x="-8"
     inkscape:window-y="-8"
     inkscape:window-maximized="1"
     inkscape:snap-global="true">
    <inkscape:grid
       type="xygrid"
       id="grid4557"
       originx="-2.6458333"
       originy="-253.99999" />
  </sodipodi:namedview>
  <metadata
     id="metadata5">
    <rdf:RDF>
      <cc:Work
         rdf:about="">
        <dc:format>image/svg+xml</dc:format>
        <dc:type
           rdf:resource="http://purl.org/dc/dcmitype/StillImage" />
        <dc:title></dc:title>
      </cc:Work>
    </rdf:RDF>
  </metadata>
  <g
     inkscape:label="Layer 1"
     inkscape:groupmode="layer"
     id="layer1"
     transform="translate(-2.6458333,-0.66664076)">
    <circle
       style="opacity:1;fill:url(#radialGradient4514);fill-opacity:1;stroke:none;stroke-width:0.25712869;stroke-linecap:round;stroke-linejoin:round;stroke-miterlimit:4;stroke-dasharray:none;stroke-dashoffset:0;stroke-opacity:1;paint-order:fill markers stroke"
       id="path4504"
       cx="324.17651"
       cy="21.711857"
       r="18.520834" />
    <path
       style="fill:none;stroke:#000000;stroke-width:1;stroke-linecap:butt;stroke-linejoin:miter;stroke-miterlimit:4;stroke-dasharray:none;stroke-opacity:1"
       d="m 87.398227,17.934088 v 7.9375"
       id="path4559"
       inkscape:connector-curvature="0" />
    <path
       style="fill:none;stroke:#000000;stroke-width:1;stroke-linecap:butt;stroke-linejoin:miter;stroke-miterlimit:4;stroke-dasharray:none;stroke-opacity:1"
       d="m 83.429478,21.902838 h 7.937505"
       id="path4561"
       inkscape:connector-curvature="0" />
    <path
       style="fill:none;stroke:#000000;stroke-width:1;stroke-linecap:butt;stroke-linejoin:miter;stroke-miterlimit:4;stroke-dasharray:none;stroke-opacity:1"
       d="m 179.91667,21.833307 h 15.87499"
       id="path4587"
       inkscape:connector-curvature="0"
       sodipodi:nodetypes="cc" />
    <circle
       style="opacity:1;fill:url(#radialGradient4514-7-6);fill-opacity:1;stroke:none;stroke-width:0.25712869;stroke-linecap:round;stroke-linejoin:round;stroke-miterlimit:4;stroke-dasharray:none;stroke-dashoffset:0;stroke-opacity:1;paint-order:fill markers stroke"
       id="path4504-6-4"
       cx="23.769653"
       cy="21.564335"
       r="18.520834" />
    <g
       aria-label="A"
       style="font-style:normal;font-variant:normal;font-weight:normal;font-stretch:normal;font-size:25.39999962px;line-height:1.25;font-family:'Calisto MT';-inkscape-font-specification:'Calisto MT';letter-spacing:0px;word-spacing:0px;fill:#000000;fill-opacity:1;stroke:none;stroke-width:0.26458332"
       id="text5555"
       transform="translate(300.14224,0.33201229)">
      <path
         d="m 23.525474,14.218682 h 0.607715 q 1.302246,3.347255 3.202561,7.591612 l 2.24758,4.909951 q 0.15434,0.260449 0.33762,0.38585 0.125401,0.08682 1.418001,0.463021 v 0.56913 q -1.755621,-0.106109 -2.5852,-0.106109 -0.848871,0 -2.89388,0.106109 v -0.56913 q 1.167198,-0.241157 1.360124,-0.385851 0.192925,-0.144694 0.192925,-0.337619 0,-0.202572 -0.202572,-0.684885 l -0.964626,-2.353689 q -2.054655,-0.01929 -2.990343,-0.01929 l -2.652724,0.01929 -1.003212,2.440505 Q 19.34864,26.836 19.34864,26.980694 q 0,0.125401 0.115755,0.212218 0.125402,0.07717 1.128614,0.289388 0.106109,0.02894 0.299034,0.08682 v 0.56913 q -1.649512,-0.106109 -2.32475,-0.106109 -0.858518,0 -2.199349,0.106109 v -0.56913 q 0.87781,-0.192925 1.205783,-0.434082 0.241157,-0.183279 0.501606,-0.617361 0.549837,-0.954981 2.797418,-6.144673 z m -2.546615,8.623763 q 1.340832,0.03858 1.919608,0.03858 0.173633,0 2.961404,-0.03858 l -2.440506,-5.787761 z"
         style="font-size:19.75555611px;stroke-width:0.26458332"
         id="path6011"
         inkscape:connector-curvature="0" />
    </g>
    <circle
       style="opacity:1;fill:url(#radialGradient4514-7-6-0);fill-opacity:1;stroke:none;stroke-width:0.25712869;stroke-linecap:round;stroke-linejoin:round;stroke-miterlimit:4;stroke-dasharray:none;stroke-dashoffset:0;stroke-opacity:1;paint-order:fill markers stroke"
       id="path4504-6-4-0"
       cx="54.650856"
       cy="22.1313"
       r="18.520834" />
    <g
       aria-label="A"
       style="font-style:normal;font-variant:normal;font-weight:normal;font-stretch:normal;font-size:25.39999962px;line-height:1.25;font-family:'Calisto MT';-inkscape-font-specification:'Calisto MT';letter-spacing:0px;word-spacing:0px;fill:#000000;fill-opacity:1;stroke:none;stroke-width:0.26458332"
       id="text5555-7"
       transform="translate(-142.97233,-0.0035451)">
      <path
         d="m 166.48409,13.918986 h 0.60772 q 1.30224,3.347255 3.20256,7.591612 l 2.24758,4.909951 q 0.15434,0.260449 0.33762,0.38585 0.1254,0.08682 1.418,0.463021 v 0.56913 q -1.75562,-0.106109 -2.5852,-0.106109 -0.84887,0 -2.89388,0.106109 v -0.56913 q 1.1672,-0.241157 1.36012,-0.385851 0.19293,-0.144694 0.19293,-0.337619 0,-0.202572 -0.20258,-0.684885 l -0.96462,-2.353689 q -2.05466,-0.01929 -2.99035,-0.01929 l -2.65272,0.01929 -1.00321,2.440505 q -0.2508,0.588423 -0.2508,0.733117 0,0.125401 0.11575,0.212218 0.1254,0.07717 1.12862,0.289388 0.1061,0.02894 0.29903,0.08682 v 0.56913 q -1.64951,-0.106109 -2.32475,-0.106109 -0.85852,0 -2.19935,0.106109 v -0.56913 q 0.87781,-0.192925 1.20578,-0.434082 0.24116,-0.183279 0.50161,-0.617361 0.54984,-0.954981 2.79742,-6.144673 z m -2.54661,8.623763 q 1.34083,0.03858 1.9196,0.03858 0.17364,0 2.96141,-0.03858 l -2.44051,-5.787761 z"
         style="font-size:19.75555611px;stroke-width:0.26458332"
         id="path6017"
         inkscape:connector-curvature="0" />
    </g>
    <g
       aria-label="B"
       style="font-style:normal;font-variant:normal;font-weight:normal;font-stretch:normal;font-size:25.39999962px;line-height:1.25;font-family:'Calisto MT';-inkscape-font-specification:'Calisto MT';letter-spacing:0px;word-spacing:0px;fill:#000000;fill-opacity:1;stroke:none;stroke-width:0.26458332"
       id="text5555-9-8"
       transform="translate(-142.97233,-0.0035451)">
      <path
         d="m 192.0974,15.293356 v -0.569129 q 1.76526,0.106109 3.26043,0.106109 0.97428,0 2.02572,-0.03859 1.06109,-0.03859 1.63987,-0.03859 1.97748,0 2.94211,0.829579 0.95498,0.839226 0.95498,2.131826 0,0.733116 -0.36656,1.466232 -0.35691,0.72347 -1.01286,1.21543 -0.48231,0.356912 -1.46623,0.675239 1.0418,0.07717 1.60128,0.299034 0.84887,0.347266 1.35048,1.051443 0.5016,0.704178 0.5016,1.755621 0,2.141471 -2.00642,3.38584 -1.36013,0.848871 -4.04179,0.848871 -0.60771,0 -1.90031,-0.06752 -0.89711,-0.04823 -0.99357,-0.04823 -0.17363,0 -2.48873,0.115755 v -0.569129 q 0.29903,-0.06752 0.45337,-0.09646 1.39871,-0.270096 1.55305,-0.405143 0.11575,-0.09646 0.14469,-0.49196 0.0772,-0.897103 0.0772,-5.083583 l -0.0193,-4.26365 q -0.01,-1.331185 -0.1254,-1.562696 -0.0579,-0.115755 -0.20257,-0.183279 -0.1447,-0.07717 -1.47588,-0.366558 -0.13505,-0.02894 -0.40514,-0.09646 z m 3.99355,5.508019 q 0.86816,0.0096 0.96463,0.0096 1.62057,0 2.37298,-0.270095 0.75241,-0.270096 1.21543,-0.945334 0.46302,-0.684885 0.46302,-1.581988 0,-1.282954 -0.9164,-1.929254 -0.65594,-0.463021 -2.14147,-0.463021 -0.84887,0 -1.85208,0.144694 -0.11576,1.456587 -0.11576,3.993555 0,0.356912 0.01,1.041797 z m 0,6.569108 q 1.03215,0.154341 1.85208,0.154341 1.83279,0 2.7299,-0.848872 0.8971,-0.848871 0.8971,-2.32475 0,-1.022505 -0.50161,-1.659158 -0.5016,-0.636654 -1.21543,-0.858518 -0.70417,-0.221864 -2.24758,-0.221864 -0.91639,0 -1.51446,0.01929 z"
         style="font-size:19.75555611px;stroke-width:0.26458332"
         id="path6020"
         inkscape:connector-curvature="0" />
    </g>
    <path
       style="fill:none;stroke:#000000;stroke-width:0.5;stroke-linecap:butt;stroke-linejoin:miter;stroke-miterlimit:4;stroke-dasharray:none;stroke-opacity:1;marker-end:url(#marker5763)"
       d="m 192.10639,21.833307 h 3.68527"
       id="path5759"
       inkscape:connector-curvature="0" />
    <text
       xml:space="preserve"
       style="font-style:normal;font-variant:normal;font-weight:normal;font-stretch:normal;font-size:4.93888855px;line-height:1.25;font-family:'Calisto MT';-inkscape-font-specification:'Calisto MT';letter-spacing:0px;word-spacing:0px;fill:#000000;fill-opacity:1;stroke:none;stroke-width:0.26458332"
       x="9.260417"
       y="51.504459"
       id="text6025"><tspan
         sodipodi:role="line"
         id="tspan6023"
         x="9.260417"
         y="55.936451"
         style="stroke-width:0.26458332" /></text>
    <circle
       style="opacity:1;fill:url(#radialGradient4514-0);fill-opacity:1;stroke:none;stroke-width:0.25712869;stroke-linecap:round;stroke-linejoin:round;stroke-miterlimit:4;stroke-dasharray:none;stroke-dashoffset:0;stroke-opacity:1;paint-order:fill markers stroke"
       id="path4504-63"
       cx="120.39486"
       cy="21.880573"
       r="18.520834" />
    <g
       aria-label="X"
       style="font-style:normal;font-variant:normal;font-weight:normal;font-stretch:normal;font-size:4.93888855px;line-height:1.25;font-family:'Calisto MT';-inkscape-font-specification:'Calisto MT';letter-spacing:0px;word-spacing:0px;fill:#000000;fill-opacity:1;stroke:none;stroke-width:0.26458332"
       id="text2108">
      <path
         d="m 114.12302,15.387848 v -0.569129 q 1.50482,0.106108 2.76848,0.106108 1.2926,0 3.21221,-0.106108 v 0.569129 q -1.17685,0.26045 -1.40836,0.424436 -0.1254,0.08682 -0.1254,0.202572 0,0.15434 0.31833,0.675238 1.36012,2.208996 2.3151,3.520888 1.55305,-2.09324 2.75883,-3.906738 0.21222,-0.318327 0.21222,-0.405143 0,-0.09646 -0.1254,-0.18328 -0.1254,-0.08682 -1.25401,-0.327973 v -0.569129 q 1.62057,0.106108 2.53696,0.106108 1.01286,0 2.3344,-0.106108 v 0.569129 q -1.21543,0.241157 -1.63986,0.511253 -0.42444,0.260449 -1.33119,1.398708 -1.75562,2.228288 -2.87459,3.819922 0.82958,1.311893 2.16077,3.202561 l 1.98713,2.807064 q 0.15434,0.173633 0.38585,0.308681 0.35691,0.202571 1.51446,0.501606 v 0.569129 q -1.70739,-0.106109 -2.73954,-0.106109 -0.96462,0 -3.00963,0.106109 v -0.569129 q 1.26366,-0.33762 1.36977,-0.41479 0.10611,-0.07717 0.10611,-0.221864 0,-0.221864 -0.2701,-0.665593 -1.36977,-2.237934 -2.62378,-4.003201 -1.1672,1.44694 -2.90353,3.983909 -0.35691,0.530545 -0.35691,0.675239 0,0.15434 0.14469,0.270095 0.1447,0.115755 1.01286,0.308681 0.0965,0.01929 0.27974,0.06752 v 0.569129 q -1.40835,-0.106109 -2.7106,-0.106109 -1.19614,0 -2.19935,0.106109 v -0.569129 q 1.09968,-0.231511 1.50482,-0.501606 0.40514,-0.279742 1.57234,-1.745975 2.11253,-2.652723 3.05787,-3.974262 -0.93569,-1.437294 -2.99035,-4.302235 -0.81993,-1.13826 -1.17684,-1.379417 -0.35691,-0.250803 -1.8135,-0.6463 z"
         style="font-size:19.75555611px;stroke-width:0.26458332"
         id="path2490"
         inkscape:connector-curvature="0" />
    </g>
    <circle
       style="opacity:1;fill:url(#radialGradient4514-0-9);fill-opacity:1;stroke:none;stroke-width:0.25712869;stroke-linecap:round;stroke-linejoin:round;stroke-miterlimit:4;stroke-dasharray:none;stroke-dashoffset:0;stroke-opacity:1;paint-order:fill markers stroke"
       id="path4504-63-0"
       cx="227.55513"
       cy="21.763744"
       r="18.520834" />
    <g
       aria-label="X"
       style="font-style:normal;font-variant:normal;font-weight:normal;font-stretch:normal;font-size:4.93888855px;line-height:1.25;font-family:'Calisto MT';-inkscape-font-specification:'Calisto MT';letter-spacing:0px;word-spacing:0px;fill:#000000;fill-opacity:1;stroke:none;stroke-width:0.26458332"
       id="text2108-4"
       transform="translate(30.414337,-0.05303458)">
      <path
         d="m 190.86938,15.324053 v -0.56913 q 1.50482,0.106109 2.76848,0.106109 1.2926,0 3.21221,-0.106109 v 0.56913 q -1.17685,0.260449 -1.40836,0.424436 -0.1254,0.08682 -0.1254,0.202572 0,0.15434 0.31833,0.675238 1.36012,2.208996 2.3151,3.520888 1.55305,-2.09324 2.75884,-3.906738 0.21221,-0.318327 0.21221,-0.405144 0,-0.09646 -0.1254,-0.183279 -0.1254,-0.08682 -1.25401,-0.327973 v -0.56913 q 1.62057,0.106109 2.53697,0.106109 1.01285,0 2.33439,-0.106109 v 0.56913 q -1.21543,0.241157 -1.63986,0.511252 -0.42444,0.26045 -1.33119,1.398709 -1.75562,2.228288 -2.87459,3.819922 0.82958,1.311893 2.16077,3.202561 l 1.98713,2.807064 q 0.15434,0.173633 0.38585,0.308681 0.35691,0.202571 1.51446,0.501605 v 0.56913 q -1.70739,-0.106109 -2.73954,-0.106109 -0.96462,0 -3.00963,0.106109 v -0.56913 q 1.26366,-0.337619 1.36977,-0.414789 0.10611,-0.07717 0.10611,-0.221864 0,-0.221864 -0.2701,-0.665593 -1.36977,-2.237934 -2.62378,-4.003201 -1.1672,1.44694 -2.90353,3.983909 -0.35691,0.530544 -0.35691,0.675239 0,0.15434 0.14469,0.270095 0.1447,0.115755 1.01286,0.308681 0.0965,0.01929 0.27974,0.06752 v 0.56913 q -1.40835,-0.106109 -2.7106,-0.106109 -1.19614,0 -2.19935,0.106109 v -0.56913 q 1.09968,-0.23151 1.50482,-0.501605 0.40514,-0.279742 1.57234,-1.745975 2.11253,-2.652724 3.05787,-3.974262 -0.93569,-1.437294 -2.99034,-4.302236 -0.81994,-1.138259 -1.17685,-1.379416 -0.35691,-0.250803 -1.8135,-0.6463 z"
         style="font-size:19.75555611px;stroke-width:0.26458332"
         id="path2493"
         inkscape:connector-curvature="0" />
    </g>
    <circle
       style="opacity:1;fill:url(#radialGradient4514-7);fill-opacity:1;stroke:none;stroke-width:0.25712869;stroke-linecap:round;stroke-linejoin:round;stroke-miterlimit:4;stroke-dasharray:none;stroke-dashoffset:0;stroke-opacity:1;paint-order:fill markers stroke"
       id="path4504-6"
       cx="258.5105"
       cy="21.857746"
       r="18.520834" />
    <g
       aria-label="B"
       style="font-style:normal;font-variant:normal;font-weight:normal;font-stretch:normal;font-size:25.39999962px;line-height:1.25;font-family:'Calisto MT';-inkscape-font-specification:'Calisto MT';letter-spacing:0px;word-spacing:0px;fill:#000000;fill-opacity:1;stroke:none;stroke-width:0.26458332"
       id="text5555-9"
       transform="translate(168.60344,0.26217694)">
      <path
         d="m 84.393027,15.529591 v -0.56913 q 1.765267,0.106109 3.260438,0.106109 0.974273,0 2.025716,-0.03859 1.06109,-0.03858 1.639866,-0.03858 1.977485,0 2.942111,0.829579 0.954981,0.839225 0.954981,2.131825 0,0.733117 -0.366558,1.466233 -0.356912,0.72347 -1.012858,1.21543 -0.482314,0.356912 -1.466233,0.675238 1.041797,0.07717 1.60128,0.299035 0.848872,0.347265 1.350478,1.051443 0.501606,0.704177 0.501606,1.755621 0,2.141471 -2.006424,3.385839 -1.360124,0.848872 -4.041786,0.848872 -0.607715,0 -1.900315,-0.06752 -0.897103,-0.04823 -0.993565,-0.04823 -0.173633,0 -2.488737,0.115755 v -0.56913 q 0.299034,-0.06752 0.453374,-0.09646 1.398709,-0.270096 1.553049,-0.405144 0.115755,-0.09646 0.144694,-0.491959 0.07717,-0.897103 0.07717,-5.083583 l -0.01929,-4.263651 q -0.0096,-1.331185 -0.125402,-1.562695 -0.05788,-0.115755 -0.202571,-0.183279 -0.144694,-0.07717 -1.475879,-0.366558 -0.135048,-0.02894 -0.405143,-0.09646 z m 3.993554,5.508019 q 0.868164,0.0096 0.964627,0.0096 1.620573,0 2.372982,-0.270095 0.752409,-0.270096 1.21543,-0.945335 0.463021,-0.684885 0.463021,-1.581987 0,-1.282954 -0.916396,-1.929254 -0.655946,-0.463021 -2.141471,-0.463021 -0.848872,0 -1.852084,0.144694 -0.115755,1.456587 -0.115755,3.993555 0,0.356912 0.0096,1.041797 z m 0,6.569108 q 1.032151,0.15434 1.852084,0.15434 1.832791,0 2.729894,-0.848871 0.897102,-0.848872 0.897102,-2.324751 0,-1.022504 -0.501606,-1.659158 -0.501605,-0.636653 -1.215429,-0.858517 -0.704178,-0.221865 -2.247581,-0.221865 -0.916395,0 -1.514464,0.01929 z"
         style="font-size:19.75555611px;stroke-width:0.26458332"
         id="path6014"
         inkscape:connector-curvature="0" />
    </g>
    <path
       style="fill:none;stroke:#000000;stroke-width:1;stroke-linecap:butt;stroke-linejoin:miter;stroke-miterlimit:4;stroke-dasharray:none;stroke-opacity:1"
       d="m 291.30339,17.847705 v 7.9375"
       id="path4559-5"
       inkscape:connector-curvature="0" />
    <path
       style="fill:none;stroke:#000000;stroke-width:1;stroke-linecap:butt;stroke-linejoin:miter;stroke-miterlimit:4;stroke-dasharray:none;stroke-opacity:1"
       d="m 287.33464,21.816455 h 7.93751"
       id="path4561-7"
       inkscape:connector-curvature="0" />
    <circle
       style="opacity:1;fill:url(#radialGradient4514-7-9);fill-opacity:1;stroke:none;stroke-width:0.25712869;stroke-linecap:round;stroke-linejoin:round;stroke-miterlimit:4;stroke-dasharray:none;stroke-dashoffset:0;stroke-opacity:1;paint-order:fill markers stroke"
       id="path4504-6-0"
       cx="151.15598"
       cy="21.629166"
       r="18.520834" />
    <g
       aria-label="B"
       style="font-style:normal;font-variant:normal;font-weight:normal;font-stretch:normal;font-size:25.39999962px;line-height:1.25;font-family:'Calisto MT';-inkscape-font-specification:'Calisto MT';letter-spacing:0px;word-spacing:0px;fill:#000000;fill-opacity:1;stroke:none;stroke-width:0.26458332"
       id="text5555-9-5"
       transform="translate(61.247232,0.03359936)">
      <g
         aria-label="Y"
         style="font-style:normal;font-variant:normal;font-weight:normal;font-stretch:normal;font-size:4.93888855px;line-height:1.25;font-family:'Calisto MT';-inkscape-font-specification:'Calisto MT';letter-spacing:0px;word-spacing:0px;fill:#000000;fill-opacity:1;stroke:none;stroke-width:0.07000434"
         id="text945">
        <path
           d="M 86.533816,28.58723 V 28.0181 q 0.337619,-0.06752 0.501606,-0.09646 1.196137,-0.192926 1.44694,-0.385851 0.144694,-0.115755 0.221864,-0.578776 0.07717,-0.472667 0.07717,-2.720248 l -0.0096,-1.2926 q -0.810287,-1.292599 -2.681663,-4.070724 l -1.75562,-2.546615 Q 84.141541,16.10496 83.8618,15.950619 83.427718,15.709463 82.434152,15.468306 v -0.56913 q 1.52411,0.106109 2.710601,0.106109 1.157552,0 2.836003,-0.106109 v 0.56913 q -1.109321,0.279742 -1.282954,0.405143 -0.163986,0.125402 -0.163986,0.260449 0,0.125402 0.163986,0.405144 0.868164,1.504817 3.299024,5.237923 1.21543,-1.929253 3.173622,-5.266862 0.202572,-0.337619 0.202572,-0.463021 0,-0.135048 -0.106109,-0.202572 -0.308681,-0.192925 -1.350478,-0.376204 v -0.56913 q 1.765267,0.106109 2.565907,0.106109 0.964627,0 2.372982,-0.106109 v 0.56913 q -1.186491,0.23151 -1.67845,0.549837 -0.49196,0.308681 -1.167199,1.311893 -1.466232,2.180056 -3.482302,5.40191 -0.0096,0.482313 -0.0096,0.569129 0,3.356901 0.03858,3.704167 0.03858,0.337619 0.212218,0.49196 0.270096,0.212218 1.620573,0.453374 0.115755,0.01929 0.33762,0.06752 v 0.56913 q -1.794206,-0.106109 -2.903527,-0.106109 -0.887457,0 -3.289377,0.106109 z"
           style="font-size:19.75555611px;stroke-width:0.07000434"
           id="path947"
           inkscape:connector-curvature="0" />
      </g>
    </g>
    <circle
       style="opacity:1;fill:url(#radialGradient4514-7-9-7);fill-opacity:1;stroke:none;stroke-width:0.25712869;stroke-linecap:round;stroke-linejoin:round;stroke-miterlimit:4;stroke-dasharray:none;stroke-dashoffset:0;stroke-opacity:1;paint-order:fill markers stroke"
       id="path4504-6-0-6"
       cx="354.8858"
       cy="21.62916"
       r="18.520834" />
    <g
       aria-label="B"
       style="font-style:normal;font-variant:normal;font-weight:normal;font-stretch:normal;font-size:25.39999962px;line-height:1.25;font-family:'Calisto MT';-inkscape-font-specification:'Calisto MT';letter-spacing:0px;word-spacing:0px;fill:#000000;fill-opacity:1;stroke:none;stroke-width:0.26458332"
       id="text5555-9-5-8"
       transform="translate(264.97741,0.03360016)">
      <g
         aria-label="Y"
         style="font-style:normal;font-variant:normal;font-weight:normal;font-stretch:normal;font-size:4.93888855px;line-height:1.25;font-family:'Calisto MT';-inkscape-font-specification:'Calisto MT';letter-spacing:0px;word-spacing:0px;fill:#000000;fill-opacity:1;stroke:none;stroke-width:0.07000434"
         id="text945-4">
        <path
           inkscape:connector-curvature="0"
           d="M 86.533816,28.58723 V 28.0181 q 0.337619,-0.06752 0.501606,-0.09646 1.196137,-0.192926 1.44694,-0.385851 0.144694,-0.115755 0.221864,-0.578776 0.07717,-0.472667 0.07717,-2.720248 l -0.0096,-1.2926 q -0.810287,-1.292599 -2.681663,-4.070724 l -1.75562,-2.546615 Q 84.141541,16.10496 83.8618,15.950619 83.427718,15.709463 82.434152,15.468306 v -0.56913 q 1.52411,0.106109 2.710601,0.106109 1.157552,0 2.836003,-0.106109 v 0.56913 q -1.109321,0.279742 -1.282954,0.405143 -0.163986,0.125402 -0.163986,0.260449 0,0.125402 0.163986,0.405144 0.868164,1.504817 3.299024,5.237923 1.21543,-1.929253 3.173622,-5.266862 0.202572,-0.337619 0.202572,-0.463021 0,-0.135048 -0.106109,-0.202572 -0.308681,-0.192925 -1.350478,-0.376204 v -0.56913 q 1.765267,0.106109 2.565907,0.106109 0.964627,0 2.372982,-0.106109 v 0.56913 q -1.186491,0.23151 -1.67845,0.549837 -0.49196,0.308681 -1.167199,1.311893 -1.466232,2.180056 -3.482302,5.40191 -0.0096,0.482313 -0.0096,0.569129 0,3.356901 0.03858,3.704167 0.03858,0.337619 0.212218,0.49196 0.270096,0.212218 1.620573,0.453374 0.115755,0.01929 0.33762,0.06752 v 0.56913 q -1.794206,-0.106109 -2.903527,-0.106109 -0.887457,0 -3.289377,0.106109 z"
           style="font-size:19.75555611px;stroke-width:0.07000434"
           id="path947-7" />
      </g>
    </g>
  </g>
</svg>
